<?xml version="1.0" encoding="UTF-8"?>
<svg xmlns="http://www.w3.org/2000/svg" xmlns:xlink="http://www.w3.org/1999/xlink" version="1.2" >
<font id="Intervogue Thin Oblq">
<font-face  font-family="Intervogue" units-per-em="1000" ascent="740" descent="-220" font-style="italic" font-weight="100" font-stretch="normal" slope="-12" cap-height="700" x-height="410" underline-position="-75" underline-thickness="50" />
<missing-glyph  horiz-adv-x="600" d="M-21 60 L559 60 L683 640 L103 640 L-21 60 Z M192 262 L285 355 L192 448 L238 494 L331 401 L424 494 L470 448 L377 355 L470 262 L424 216 L331 309 L238 216 L192 262 Z " />
<glyph glyph-name="NULL" d="" />
<glyph glyph-name="CR" unicode="&#xd;" horiz-adv-x="250" d="" />
<glyph glyph-name="space" unicode="&#x20;" horiz-adv-x="300" d="" />
<glyph glyph-name="exclam" unicode="&#x21;" horiz-adv-x="230" d="M99 200 L129 200 L240 700 L200 700 L99 200 Z M78 -5 C98 -5 113 10 113 30 C113 50 98 65 78 65 C58 65 43 50 43 30 C43 10 58 -5 78 -5 L78 -5 Z " />
<glyph glyph-name="quotedbl" unicode="&#x22;" horiz-adv-x="390" d="M161 490 L201 490 L245 700 L205 700 L161 490 Z M311 490 L351 490 L395 700 L355 700 L311 490 Z " />
<glyph glyph-name="numbersign" unicode="&#x23;" horiz-adv-x="530" d="M530 700 L490 700 L407 465 L267 465 L350 700 L310 700 L227 465 L115 465 L107 427 L213 427 L159 273 L75 273 L67 235 L145 235 L62 0 L102 0 L185 235 L325 235 L242 0 L282 0 L365 235 L477 235 L485 273 L379 273 L433 427 L517 427 L525 465 L447 465 L530 700 Z M339 273 L199 273 L253 427 L393 427 L339 273 Z " />
<glyph glyph-name="dollar" unicode="&#x24;" horiz-adv-x="530" d="M405 711 L424 800 L388 800 L370 715 L357 715 C246 715 180 664 163 582 C145 494 207 415 293 356 L223 26 C98 48 77 169 77 169 L40 158 C40 158 63 13 215 -12 L196 -100 L232 -100 L250 -15 L260 -15 C376 -15 447 49 466 137 C487 234 419 317 333 376 L397 673 C488 656 511 587 511 587 L546 600 C546 600 516 690 405 711 L405 711 Z M302 397 C230 451 188 515 202 577 C215 637 267 677 355 677 L362 677 L302 397 Z M427 142 C412 76 356 23 262 23 L258 23 L325 334 C398 280 442 211 427 142 L427 142 Z " />
<glyph glyph-name="percent" unicode="&#x25;" horiz-adv-x="880" d="M295 395 C385 395 455 465 455 555 C455 645 385 715 295 715 C205 715 135 645 135 555 C135 465 205 395 295 395 L295 395 Z M187 0 L232 0 L755 700 L710 700 L187 0 Z M295 434 C228 434 175 488 175 555 C175 622 228 676 295 676 C362 676 415 622 415 555 C415 488 362 434 295 434 L295 434 Z M647 -15 C737 -15 807 55 807 145 C807 235 737 305 647 305 C557 305 487 235 487 145 C487 55 557 -15 647 -15 L647 -15 Z M647 24 C580 24 527 78 527 145 C527 212 580 266 647 266 C714 266 767 212 767 145 C767 78 714 24 647 24 L647 24 Z " />
<glyph glyph-name="ampersand" unicode="&#x26;" horiz-adv-x="565" d="M555 350 L505 350 L378 188 L278 369 C375 444 427 494 441 560 C458 639 408 715 324 715 C250 715 193 664 177 590 C161 513 195 442 229 378 C112 286 56 236 39 155 C19 62 82 -15 171 -15 C243 -15 296 29 371 119 L436 0 L481 0 L398 152 L555 350 Z M216 585 C228 637 269 677 321 677 C383 677 414 622 402 565 C392 515 354 478 260 403 C225 469 203 527 216 585 L216 585 Z M175 25 C110 24 64 81 78 150 C90 207 132 254 247 345 L351 155 C277 61 231 26 175 25 L175 25 Z " />
<glyph glyph-name="quotesingle" unicode="&#x27;" horiz-adv-x="240" d="M161 490 L201 490 L245 700 L205 700 L161 490 Z " />
<glyph glyph-name="parenleft" unicode="&#x28;" horiz-adv-x="270" d="M324 700 L281 700 C281 700 135 610 85 375 C35 140 139 0 139 0 L176 0 C176 0 75 140 124 370 C173 600 324 700 324 700 L324 700 Z " />
<glyph glyph-name="parenright" unicode="&#x29;" horiz-adv-x="270" d="M7 0 L50 0 C50 0 196 90 246 325 C296 560 192 700 192 700 L155 700 C155 700 256 560 207 330 C158 100 7 0 7 0 L7 0 Z " />
<glyph glyph-name="asterisk" unicode="&#x2a;" horiz-adv-x="440" d="M443 578 L431 615 L318 576 L345 693 L306 701 L283 584 L196 665 L169 636 L260 557 L145 522 L157 485 L270 523 L243 407 L282 399 L305 516 L392 435 L419 464 L330 542 L443 578 Z " />
<glyph glyph-name="plus" unicode="&#x2b;" horiz-adv-x="530" d="M476 328 L311 328 L346 494 L306 494 L271 328 L106 328 L98 290 L263 290 L228 124 L268 124 L303 290 L468 290 L476 328 Z " />
<glyph glyph-name="comma" unicode="&#x2c;" horiz-adv-x="230" d="M5 -150 L47 -150 L112 60 L67 60 L5 -150 Z " />
<glyph glyph-name="hyphen" unicode="&#x2d;" horiz-adv-x="460" d="M98 290 L398 290 L406 328 L106 328 L98 290 Z " />
<glyph glyph-name="period" unicode="&#x2e;" horiz-adv-x="230" d="M78 -5 C98 -5 113 10 113 30 C113 50 98 65 78 65 C58 65 43 50 43 30 C43 10 58 -5 78 -5 L78 -5 Z " />
<glyph glyph-name="slash" unicode="&#x2f;" horiz-adv-x="530" d="M-45 -100 L-5 -101 L636 800 L594 800 L-45 -100 Z " />
<glyph glyph-name="zero" unicode="0" horiz-adv-x="530" d="M233 -15 C354 -15 449 103 498 335 C547 567 490 715 359 715 C238 715 143 597 94 365 C45 133 102 -15 233 -15 L233 -15 Z M236 23 C133 23 90 156 133 360 C176 564 263 677 356 677 C458 677 502 544 459 340 C416 136 328 23 236 23 L236 23 Z " />
<glyph glyph-name="one" unicode="1" horiz-adv-x="320" d="M106 0 L146 0 L294 700 L154 700 L146 662 L246 662 L106 0 Z " />
<glyph glyph-name="two" unicode="2" horiz-adv-x="495" d="M6 0 L386 0 L394 38 L95 38 L390 342 C439 393 487 451 502 519 C525 623 451 715 339 715 C238 715 164 654 127 547 L163 534 C194 622 255 677 337 677 C424 677 480 609 463 525 C451 467 414 423 357 364 L6 0 Z " />
<glyph glyph-name="three" unicode="3" horiz-adv-x="470" d="M300 715 C228 715 167 678 123 624 L153 600 C190 645 237 677 296 677 C383 677 439 606 422 525 C405 446 339 380 202 380 L177 380 L171 350 L196 350 C339 350 381 258 362 170 C343 83 274 23 181 23 C110 23 54 64 32 112 L-3 97 C24 31 94 -15 178 -15 C295 -15 377 54 401 165 C419 249 388 329 302 362 C393 385 445 444 461 520 C483 622 408 715 300 715 L300 715 Z " />
<glyph glyph-name="four" unicode="4" horiz-adv-x="530" d="M514 270 L384 270 L475 700 L435 700 L40 252 L36 232 L336 232 L287 0 L327 0 L376 232 L506 232 L514 270 Z M102 270 L422 635 L344 270 L102 270 Z " />
<glyph glyph-name="five" unicode="5" horiz-adv-x="530" d="M527 662 L535 700 L205 700 L113 290 L143 290 C143 290 178 372 285 372 C383 372 447 284 427 192 C404 86 319 23 226 23 C149 23 93 65 65 124 L29 108 C64 36 132 -15 223 -15 C339 -15 439 58 466 187 C490 301 409 410 293 410 C236 410 197 391 170 369 L237 662 L527 662 Z " />
<glyph glyph-name="six" unicode="6" horiz-adv-x="530" d="M285 425 C246 425 212 412 180 391 L410 700 L362 700 L102 343 C76 307 58 265 51 232 C25 108 111 -15 245 -15 C359 -15 452 54 479 178 C506 302 419 425 285 425 L285 425 Z M441 185 C420 83 338 23 246 23 C134 23 67 123 89 225 C111 327 191 387 283 387 C395 387 462 287 441 185 L441 185 Z " />
<glyph glyph-name="seven" unicode="7" horiz-adv-x="450" d="M135 700 L127 662 L458 662 L63 0 L110 0 L525 700 L135 700 Z " />
<glyph glyph-name="eight" unicode="8" horiz-adv-x="530" d="M522 520 C544 625 467 715 354 715 C251 715 171 655 148 550 C132 477 165 409 224 374 C142 358 81 304 61 210 C37 96 116 -15 238 -15 C350 -15 439 56 463 170 C480 252 443 323 376 358 C449 378 505 436 522 520 L522 520 Z M318 383 C226 383 169 461 187 545 C205 629 269 677 351 677 C443 677 501 609 483 525 C465 441 400 383 318 383 L318 383 Z M424 175 C405 85 329 23 241 23 C143 23 81 115 100 205 C119 295 192 347 280 347 C378 347 443 265 424 175 L424 175 Z " />
<glyph glyph-name="nine" unicode="9" horiz-adv-x="530" d="M347 715 C233 715 140 646 113 522 C86 398 173 275 307 275 C346 275 380 288 412 309 L182 0 L230 0 L490 357 C516 393 534 435 541 468 C567 592 481 715 347 715 L347 715 Z M503 475 C481 373 401 313 309 313 C197 313 130 413 151 515 C172 617 254 677 346 677 C458 677 525 577 503 475 L503 475 Z " />
<glyph glyph-name="colon" unicode="&#x3a;" horiz-adv-x="230" d="M152 345 C172 345 187 360 187 380 C187 400 172 415 152 415 C132 415 117 400 117 380 C117 360 132 345 152 345 L152 345 Z M78 -5 C98 -5 113 10 113 30 C113 50 98 65 78 65 C58 65 43 50 43 30 C43 10 58 -5 78 -5 L78 -5 Z " />
<glyph glyph-name="semicolon" unicode="&#x3b;" horiz-adv-x="230" d="M152 345 C172 345 187 360 187 380 C187 400 172 415 152 415 C132 415 117 400 117 380 C117 360 132 345 152 345 L152 345 Z M5 -150 L47 -150 L112 60 L67 60 L5 -150 Z " />
<glyph glyph-name="less" unicode="&#x3c;" horiz-adv-x="530" d="M518 525 L114 365 L108 335 L444 175 L452 215 L166 347 L508 479 L518 525 Z " />
<glyph glyph-name="equal" unicode="&#x3d;" horiz-adv-x="530" d="M117 380 L487 380 L495 418 L125 418 L117 380 Z M79 200 L449 200 L457 238 L87 238 L79 200 Z " />
<glyph glyph-name="greater" unicode="&#x3e;" horiz-adv-x="530" d="M74 175 L478 335 L484 365 L148 525 L140 485 L426 353 L84 221 L74 175 Z " />
<glyph glyph-name="question" unicode="&#x3f;" horiz-adv-x="485" d="M220 200 L269 200 L414 375 C463 434 492 472 504 528 C525 624 457 715 340 715 C205 715 136 634 119 530 L159 530 C174 621 241 677 338 677 C426 677 481 609 466 537 C457 493 433 459 385 400 L220 200 Z M158 -5 C178 -5 193 10 193 30 C193 50 178 65 158 65 C138 65 123 50 123 30 C123 10 138 -5 158 -5 L158 -5 Z " />
<glyph glyph-name="at" unicode="&#x40;" horiz-adv-x="1070" d="M544 715 C277 715 69 507 69 240 C69 -27 277 -230 544 -230 C594 -230 638 -222 676 -210 L667 -174 C628 -185 587 -192 544 -192 C299 -192 109 -5 109 240 C109 485 299 677 544 677 C789 677 979 495 979 240 C979 74 885 -16 802 -16 C725 -16 681 50 701 145 L757 406 L717 406 L699 320 C679 380 627 425 549 425 C445 425 366 358 344 256 C322 154 392 45 512 45 C574 45 624 74 658 120 C649 26 707 -54 799 -54 C912 -54 1019 61 1019 240 C1019 517 811 715 544 715 L544 715 Z M514 83 C423 83 366 168 384 252 C402 335 471 387 546 387 C638 387 694 302 677 218 C660 135 589 83 514 83 L514 83 Z " />
<glyph glyph-name="A" unicode="A" horiz-adv-x="740" d="M634 0 L676 0 L482 730 L-24 0 L22 0 L228 299 L555 299 L634 0 Z M254 337 L464 642 L545 337 L254 337 Z " />
<glyph glyph-name="B" unicode="B" horiz-adv-x="500" d="M325 700 L205 700 L57 0 L184 0 C322 0 410 63 436 184 C455 273 413 355 334 391 C418 403 473 452 488 527 C506 617 440 700 325 700 L325 700 Z M449 532 C434 464 378 418 290 418 L185 418 L237 662 L322 662 C415 662 464 600 449 532 L449 532 Z M397 189 C376 90 304 38 187 38 L105 38 L177 380 L239 380 C356 380 418 288 397 189 L397 189 Z " />
<glyph glyph-name="C" unicode="C" horiz-adv-x="775" d="M423 -15 C555 -15 650 41 720 133 L690 153 C630 72 539 23 426 23 C223 23 88 197 131 400 C166 565 303 677 466 677 C625 677 708 584 745 491 L780 507 C738 609 640 715 469 715 C284 715 132 591 93 405 C46 183 198 -15 423 -15 L423 -15 Z " />
<glyph glyph-name="D" unicode="D" horiz-adv-x="640" d="M57 0 L229 0 C408 0 570 119 611 304 C660 527 532 700 313 700 L205 700 L57 0 Z M105 38 L237 662 L311 662 C508 662 613 514 572 310 C539 144 388 38 231 38 L105 38 Z " />
<glyph glyph-name="E" unicode="E" horiz-adv-x="520" d="M537 662 L545 700 L205 700 L57 0 L427 0 L435 38 L105 38 L178 381 L502 381 L510 419 L186 419 L237 662 L537 662 Z " />
<glyph glyph-name="F" unicode="F" horiz-adv-x="515" d="M537 662 L545 700 L205 700 L57 0 L97 0 L171 351 L496 351 L504 389 L179 389 L237 662 L537 662 Z " />
<glyph glyph-name="G" unicode="G" horiz-adv-x="815" d="M788 360 L299 360 L291 322 L748 322 C746 310 744 295 740 280 C704 120 584 23 426 23 C223 23 90 197 132 400 C166 565 304 677 471 677 C591 677 671 620 717 557 L749 578 C697 648 605 715 474 715 C285 715 132 591 93 405 C46 183 198 -15 423 -15 C603 -15 740 96 779 275 C790 324 788 360 788 360 L788 360 Z " />
<glyph glyph-name="H" unicode="H" horiz-adv-x="760" d="M725 700 L666 420 L186 420 L245 700 L205 700 L57 0 L97 0 L178 382 L658 382 L577 0 L617 0 L765 700 L725 700 Z " />
<glyph glyph-name="I" unicode="I" horiz-adv-x="260" d="M67 0 L107 0 L255 700 L215 700 L67 0 Z " />
<glyph glyph-name="J" unicode="J" horiz-adv-x="473" d="M161 -15 C265 -15 350 46 378 180 L488 700 L448 700 L339 185 C315 73 246 23 164 23 C99 23 58 56 35 101 L4 82 C30 29 83 -15 161 -15 L161 -15 Z " />
<glyph glyph-name="K" unicode="K" horiz-adv-x="575" d="M640 700 L578 700 L179 390 L245 700 L205 700 L57 0 L97 0 L175 369 L459 0 L512 0 L219 376 L640 700 Z " />
<glyph glyph-name="L" unicode="L" horiz-adv-x="490" d="M105 38 L245 700 L205 700 L57 0 L427 0 L435 38 L105 38 Z " />
<glyph glyph-name="M" unicode="M" horiz-adv-x="840" d="M46 0 L86 0 L226 581 L387 50 L772 573 L666 0 L706 0 L842 730 L402 134 L222 730 L46 0 Z " />
<glyph glyph-name="N" unicode="N" horiz-adv-x="740" d="M590 -30 L745 700 L705 700 L573 79 L212 730 L57 0 L97 0 L229 621 L590 -30 Z " />
<glyph glyph-name="O" unicode="O" horiz-adv-x="830" d="M424 -15 C609 -15 758 109 799 294 C848 517 693 715 468 715 C283 715 132 591 93 406 C46 183 199 -15 424 -15 L424 -15 Z M426 23 C223 23 89 197 132 400 C167 565 303 677 466 677 C669 677 801 504 760 300 C727 134 589 23 426 23 L426 23 Z " />
<glyph glyph-name="P" unicode="P" horiz-adv-x="500" d="M320 700 L205 700 L57 0 L97 0 L163 310 L277 310 C397 310 487 375 510 485 C533 595 460 700 320 700 L320 700 Z M471 490 C452 402 379 348 281 348 L171 348 L237 662 L317 662 C435 662 490 578 471 490 L471 490 Z " />
<glyph glyph-name="Q" unicode="Q" horiz-adv-x="830" d="M799 294 C848 517 693 715 468 715 C283 715 132 591 93 406 C46 183 199 -15 424 -15 C473 -15 520 -6 562 10 L672 -138 L704 -115 L599 26 C699 77 772 173 799 294 L799 294 Z M576 57 L466 206 L434 183 L539 42 C503 29 465 23 426 23 C223 23 89 197 132 400 C167 565 303 677 466 677 C669 677 801 504 760 300 C738 189 669 102 576 57 L576 57 Z " />
<glyph glyph-name="R" unicode="R" horiz-adv-x="530" d="M511 490 C534 598 458 700 325 700 L205 700 L57 0 L97 0 L165 320 L236 320 L438 0 L486 0 L283 320 L285 320 C398 320 488 382 511 490 L511 490 Z M237 662 L322 662 C433 662 490 581 472 495 C454 409 379 358 288 358 L173 358 L237 662 Z " />
<glyph glyph-name="S" unicode="S" horiz-adv-x="515" d="M238 -15 C349 -15 432 48 452 142 C477 258 409 336 317 389 C232 438 177 499 194 577 C208 643 271 677 338 677 C461 677 503 597 503 597 L535 617 C535 617 483 715 340 715 C250 715 173 670 155 582 C134 480 203 409 294 357 C383 306 433 239 413 147 C397 75 329 23 240 23 C106 23 69 147 69 147 L34 130 C34 130 79 -15 238 -15 L238 -15 Z " />
<glyph glyph-name="T" unicode="T" horiz-adv-x="490" d="M575 700 L125 700 L117 662 L322 662 L182 0 L222 0 L362 662 L567 662 L575 700 Z " />
<glyph glyph-name="U" unicode="U" horiz-adv-x="660" d="M309 -15 C437 -15 542 71 574 220 L676 700 L636 700 L535 225 C508 99 418 23 312 23 C186 23 112 119 143 265 L236 700 L196 700 L104 270 C68 102 161 -15 309 -15 L309 -15 Z " />
<glyph glyph-name="V" unicode="V" horiz-adv-x="590" d="M244 -30 L675 700 L630 700 L266 79 L166 700 L125 700 L244 -30 Z " />
<glyph glyph-name="W" unicode="W" horiz-adv-x="1040" d="M1125 700 L1080 700 L717 82 L625 710 L266 81 L166 700 L125 700 L244 -30 L602 594 L694 -30 L1125 700 Z " />
<glyph glyph-name="X" unicode="X" horiz-adv-x="600" d="M-24 0 L30 0 L328 324 L490 0 L536 0 L356 357 L674 700 L620 700 L335 390 L180 700 L134 700 L306 357 L-24 0 Z " />
<glyph glyph-name="Y" unicode="Y" horiz-adv-x="580" d="M227 0 L267 0 L343 360 L675 700 L622 700 L328 397 L162 700 L115 700 L303 360 L227 0 Z " />
<glyph glyph-name="Z" unicode="Z" horiz-adv-x="650" d="M7 0 L557 0 L565 38 L95 38 L705 700 L155 700 L147 662 L617 662 L7 0 Z " />
<glyph glyph-name="bracketleft" unicode="&#x5b;" horiz-adv-x="330" d="M366 662 L374 700 L204 700 L56 0 L226 0 L234 38 L104 38 L236 662 L366 662 Z " />
<glyph glyph-name="backslash" unicode="&#x5c;" horiz-adv-x="530" d="M445 -100 L187 800 L146 800 L404 -100 L445 -100 Z " />
<glyph glyph-name="bracketright" unicode="&#x5d;" horiz-adv-x="330" d="M335 700 L165 700 L157 662 L287 662 L155 38 L25 38 L17 0 L187 0 L335 700 Z " />
<glyph glyph-name="asciicircum" unicode="&#x5e;" horiz-adv-x="530" d="M501 350 L385 700 L355 700 L91 350 L138 350 L361 649 L458 350 L501 350 Z " />
<glyph glyph-name="underscore" unicode="&#x5f;" horiz-adv-x="530" d="M-58 -68 L472 -68 L480 -30 L-50 -30 L-58 -68 Z " />
<glyph glyph-name="grave" unicode="&#x60;" horiz-adv-x="220" d="M215 560 L223 700 L185 700 L180 560 L215 560 Z " />
<glyph glyph-name="a" unicode="a" horiz-adv-x="560" d="M484 410 L467 335 C444 366 385 425 272 425 C165 425 71 352 47 240 C19 108 111 -15 248 -15 C328 -15 378 18 407 47 L396 0 L436 0 L524 410 L484 410 Z M251 23 C136 23 63 125 86 235 C105 325 184 387 269 387 C376 387 436 325 459 294 L417 95 C384 63 327 23 251 23 L251 23 Z " />
<glyph glyph-name="b" unicode="b" horiz-adv-x="560" d="M312 425 C231 425 181 392 153 362 L233 740 L193 740 L36 0 L76 0 L92 76 C115 44 174 -15 288 -15 C395 -15 489 58 513 170 C541 302 449 425 312 425 L312 425 Z M474 175 C455 85 376 23 291 23 C183 23 123 86 101 117 L143 314 C176 346 233 387 309 387 C424 387 497 285 474 175 L474 175 Z " />
<glyph glyph-name="c" unicode="c" horiz-adv-x="470" d="M248 -15 C314 -15 371 10 420 64 L391 88 C350 43 303 23 251 23 C136 23 63 125 86 235 C105 325 184 387 269 387 C345 387 399 344 425 286 L460 301 C429 368 368 425 272 425 C165 425 71 352 47 240 C19 108 111 -15 248 -15 L248 -15 Z " />
<glyph glyph-name="d" unicode="d" horiz-adv-x="560" d="M553 740 L467 335 C443 367 384 425 272 425 C165 425 71 352 47 240 C19 108 111 -15 248 -15 C327 -15 377 17 406 46 L396 0 L436 0 L593 740 L553 740 Z M251 23 C136 23 63 125 86 235 C105 325 184 387 269 387 C376 387 435 326 458 295 L416 94 C382 62 326 23 251 23 L251 23 Z " />
<glyph glyph-name="e" unicode="e" horiz-adv-x="505" d="M264 425 C162 425 71 352 47 240 C19 108 111 -15 248 -15 C324 -15 388 20 434 84 L402 102 C366 54 313 23 251 23 C147 23 77 107 82 205 L459 205 C459 205 461 209 462 215 C478 309 401 425 264 425 L264 425 Z M261 387 C363 387 423 317 424 243 L88 243 C110 329 183 387 261 387 L261 387 Z " />
<glyph glyph-name="f" unicode="f" horiz-adv-x="340" d="M379 755 C298 755 247 709 228 618 L184 410 L74 410 L66 372 L176 372 L97 0 L137 0 L216 372 L346 372 L354 410 L224 410 L267 613 C281 680 319 717 376 717 C421 717 444 695 444 695 L452 732 C452 732 428 755 379 755 L379 755 Z " />
<glyph glyph-name="g" unicode="g" horiz-adv-x="560" d="M484 410 L468 334 C445 365 386 425 272 425 C165 425 71 352 47 240 C19 108 111 -15 248 -15 C328 -15 378 18 407 48 L387 -45 C366 -143 298 -197 210 -197 C152 -197 102 -168 77 -131 L47 -156 C80 -200 138 -235 207 -235 C317 -235 400 -171 426 -50 L524 410 L484 410 Z M251 23 C136 23 63 125 86 235 C105 325 184 387 269 387 C377 387 437 324 459 293 L417 95 C384 63 327 23 251 23 L251 23 Z " />
<glyph glyph-name="h" unicode="h" horiz-adv-x="470" d="M296 425 C243 425 195 395 149 342 L234 740 L194 740 L36 0 L76 0 L135 276 C190 354 245 385 291 385 C351 385 390 344 374 270 L316 0 L356 0 L413 266 C434 362 378 425 296 425 L296 425 Z " />
<glyph glyph-name="i" unicode="i" horiz-adv-x="220" d="M194 565 C214 565 229 580 229 600 C229 620 214 635 194 635 C174 635 159 620 159 600 C159 580 174 565 194 565 L194 565 Z M47 0 L87 0 L174 410 L134 410 L47 0 Z " />
<glyph glyph-name="j" unicode="j" horiz-adv-x="220" d="M194 565 C214 565 229 580 229 600 C229 620 214 635 194 635 C174 635 159 620 159 600 C159 580 174 565 194 565 L194 565 Z M0 -220 L40 -220 L174 410 L134 410 L0 -220 Z " />
<glyph glyph-name="k" unicode="k" horiz-adv-x="370" d="M394 410 L338 410 L124 223 L234 740 L194 740 L36 0 L76 0 L119 203 L265 0 L316 0 L162 211 L394 410 Z " />
<glyph glyph-name="l" unicode="l" horiz-adv-x="220" d="M46 0 L86 0 L244 740 L204 740 L46 0 Z " />
<glyph glyph-name="m" unicode="m" horiz-adv-x="750" d="M575 425 C518 425 465 389 416 326 C407 388 359 425 295 425 C244 425 195 396 150 344 L164 410 L124 410 L37 0 L77 0 L136 278 C190 355 245 385 292 385 C351 385 390 344 374 270 L316 0 L356 0 L413 265 C414 269 415 273 415 276 C470 355 525 385 572 385 C631 385 670 344 654 270 L596 0 L636 0 L693 265 C714 362 658 425 575 425 L575 425 Z " />
<glyph glyph-name="n" unicode="n" horiz-adv-x="470" d="M295 425 C244 425 195 396 150 344 L164 410 L124 410 L36 0 L76 0 L136 278 C190 355 245 385 292 385 C351 385 390 344 374 270 L316 0 L356 0 L413 265 C434 362 378 425 295 425 L295 425 Z " />
<glyph glyph-name="o" unicode="o" horiz-adv-x="520" d="M248 -15 C355 -15 449 58 473 170 C501 302 409 425 272 425 C165 425 71 352 47 240 C19 108 111 -15 248 -15 L248 -15 Z M251 23 C136 23 63 125 86 235 C105 325 184 387 269 387 C384 387 457 285 434 175 C415 85 336 23 251 23 L251 23 Z " />
<glyph glyph-name="p" unicode="p" horiz-adv-x="560" d="M312 425 C233 425 184 393 155 364 L164 410 L124 410 L-10 -220 L30 -220 L93 75 C117 43 176 -15 288 -15 C395 -15 489 58 513 170 C541 302 449 425 312 425 L312 425 Z M474 175 C455 85 376 23 291 23 C184 23 125 84 102 115 L145 316 C178 348 235 387 309 387 C424 387 497 285 474 175 L474 175 Z " />
<glyph glyph-name="q" unicode="q" horiz-adv-x="560" d="M484 410 L468 334 C445 365 386 425 272 425 C165 425 71 352 47 240 C19 108 111 -15 248 -15 C329 -15 378 18 407 48 L350 -220 L390 -220 L524 410 L484 410 Z M251 23 C136 23 63 125 86 235 C105 325 184 387 269 387 C377 387 437 324 459 293 L417 96 C384 64 327 23 251 23 L251 23 Z " />
<glyph glyph-name="r" unicode="r" horiz-adv-x="335" d="M272 425 C229 425 191 400 152 351 L164 410 L124 410 L37 0 L77 0 L137 280 C189 360 233 387 269 387 C301 387 319 371 337 347 L370 370 C350 399 319 425 272 425 L272 425 Z " />
<glyph glyph-name="s" unicode="s" horiz-adv-x="341" d="M143 -15 C208 -15 264 27 276 86 C289 151 253 199 186 232 C127 261 117 301 127 334 C137 368 170 387 212 387 C269 387 298 344 298 344 L327 364 C327 364 295 425 209 425 C151 425 101 391 88 337 C75 281 103 231 172 195 C228 166 246 131 237 89 C229 51 193 23 148 23 C67 23 46 93 46 93 L13 79 C13 79 36 -15 143 -15 L143 -15 Z " />
<glyph glyph-name="t" unicode="t" horiz-adv-x="340" d="M354 410 L224 410 L271 630 L231 630 L184 410 L74 410 L66 372 L176 372 L97 0 L137 0 L216 372 L346 372 L354 410 Z " />
<glyph glyph-name="u" unicode="u" horiz-adv-x="470" d="M394 410 L334 132 C280 55 225 25 178 25 C119 25 80 66 96 140 L154 410 L114 410 L57 145 C36 48 92 -15 175 -15 C226 -15 275 14 320 66 L306 0 L346 0 L434 410 L394 410 Z " />
<glyph glyph-name="v" unicode="v" horiz-adv-x="420" d="M160 -30 L454 410 L408 410 L176 60 L94 410 L54 410 L160 -30 Z " />
<glyph glyph-name="w" unicode="w" horiz-adv-x="630" d="M664 410 L618 410 L415 78 L358 420 L155 78 L94 410 L54 410 L135 -30 L337 311 L395 -30 L664 410 Z " />
<glyph glyph-name="x" unicode="x" horiz-adv-x="360" d="M-34 0 L17 0 L178 177 L263 0 L306 0 L205 209 L389 410 L338 410 L183 240 L102 410 L59 410 L158 209 L-34 0 Z " />
<glyph glyph-name="y" unicode="y" horiz-adv-x="420" d="M408 410 L177 60 L94 410 L54 410 L147 15 L-9 -220 L34 -220 L454 410 L408 410 Z " />
<glyph glyph-name="z" unicode="z" horiz-adv-x="380" d="M-14 0 L306 0 L315 38 L71 38 L394 410 L74 410 L65 372 L309 372 L-14 0 Z " />
<glyph glyph-name="braceleft" unicode="&#x7b;" horiz-adv-x="330" d="M347 700 C273 700 227 662 211 588 C196 518 196 466 185 416 C178 385 157 369 123 369 L95 369 L87 331 L115 331 C149 331 161 305 155 274 C145 224 129 202 115 132 C100 58 145 0 219 0 L227 0 L235 38 L222 38 C173 38 143 76 153 125 C168 197 184 221 195 273 C202 304 190 334 166 347 C196 353 216 372 223 407 C234 459 236 513 251 585 C261 634 295 662 344 662 L367 662 L375 700 L347 700 Z " />
<glyph glyph-name="bar" unicode="&#x7c;" horiz-adv-x="260" d="M45 -100 L85 -100 L277 800 L237 800 L45 -100 Z " />
<glyph glyph-name="braceright" unicode="&#x7d;" horiz-adv-x="330" d="M277 369 C243 369 231 395 237 426 C247 476 263 498 277 568 C292 642 247 700 173 700 L165 700 L157 662 L170 662 C219 662 249 624 239 575 C224 503 208 479 197 427 C190 396 202 366 226 353 C196 347 176 328 169 293 C158 241 156 187 141 115 C131 66 97 38 48 38 L25 38 L17 0 L45 0 C119 0 165 38 181 112 C196 182 196 234 207 284 C214 315 235 331 269 331 L297 331 L305 369 L277 369 Z " />
<glyph glyph-name="asciitilde" unicode="&#x7e;" horiz-adv-x="530" d="M97 283 C97 283 136 311 188 311 C273 311 305 271 385 271 C437 271 471 301 471 301 L479 337 C479 337 440 309 388 309 C303 309 271 349 191 349 C139 349 105 319 105 319 L97 283 Z " />
<glyph glyph-name="exclamdown" unicode="&#xa1;" horiz-adv-x="230" d="M167 485 C147 485 132 470 132 450 C132 430 147 415 167 415 C187 415 202 430 202 450 C202 470 187 485 167 485 L167 485 Z M146 280 L116 280 L5 -220 L45 -220 L146 280 Z " />
<glyph glyph-name="cent" unicode="&#xa2;" horiz-adv-x="530" d="M512 576 L547 591 C521 646 475 695 406 710 L425 800 L389 800 L371 715 L359 715 C252 715 158 642 134 530 C110 417 174 311 279 282 L259 190 L295 190 L313 276 C320 275 328 275 335 275 C401 275 458 300 507 354 L478 378 C437 333 390 313 338 313 C332 313 327 313 321 314 L398 672 C452 660 491 623 512 576 L512 576 Z M287 320 C202 345 154 432 173 525 C192 615 271 677 356 677 L363 677 L287 320 Z " />
<glyph glyph-name="sterling" unicode="&#xa3;" horiz-adv-x="530" d="M377 715 C272 715 197 659 175 557 C159 484 177 423 191 359 L83 359 L75 321 L198 321 C205 280 208 237 197 187 C177 92 103 27 42 23 L37 0 L417 0 L425 38 L144 38 C189 69 223 121 237 187 C248 237 246 281 239 321 L415 321 L423 359 L232 359 C218 424 199 482 214 552 C231 632 293 677 375 677 C490 677 517 587 517 587 L554 599 C554 599 518 715 377 715 L377 715 Z " />
<glyph glyph-name="currency" unicode="&#xa4;" horiz-adv-x="530" d="M554 505 L535 535 L466 490 C436 527 393 554 342 565 C291 576 240 568 197 547 L153 616 L123 596 L168 529 C125 498 93 452 81 396 C70 345 78 295 99 252 L42 215 L62 185 L118 221 C148 179 194 147 250 135 C306 123 362 134 407 160 L443 104 L473 123 L436 180 C473 211 500 253 511 304 C523 360 513 415 486 461 L554 505 Z M472 313 C451 215 356 151 258 172 C160 193 99 290 120 388 C141 485 236 549 334 528 C432 507 493 410 472 313 L472 313 Z " />
<glyph glyph-name="yen" unicode="&#xa5;" horiz-adv-x="530" d="M318 360 L615 700 L563 700 L305 402 L173 700 L125 700 L278 360 L274 339 L49 339 L41 301 L266 301 L248 219 L23 219 L15 181 L240 181 L202 0 L242 0 L280 181 L505 181 L513 219 L288 219 L306 301 L531 301 L539 339 L314 339 L318 360 Z " />
<glyph glyph-name="brokenbar" unicode="&#xa6;" horiz-adv-x="260" d="M173 500 L213 500 L277 800 L237 800 L173 500 Z M45 -100 L85 -100 L149 200 L109 200 L45 -100 Z " />
<glyph glyph-name="section" unicode="&#xa7;" horiz-adv-x="485" d="M334 677 C419 677 454 615 454 615 L488 632 C488 632 446 715 336 715 C253 715 199 672 186 616 C176 572 195 531 233 497 C165 487 112 448 100 393 C83 315 127 256 214 219 C299 183 332 138 322 89 C314 48 270 23 213 23 C128 23 93 85 93 85 L59 68 C59 68 101 -15 211 -15 C294 -15 348 28 361 84 C371 128 352 169 314 203 C382 213 435 252 447 307 C464 385 420 444 333 481 C248 517 215 562 225 611 C233 652 277 677 334 677 L334 677 Z M408 312 C398 267 351 233 279 229 C265 237 249 246 232 253 C151 288 125 328 139 388 C149 433 196 467 268 471 C282 463 298 454 315 447 C396 412 422 372 408 312 L408 312 Z " />
<glyph glyph-name="dieresis" unicode="&#xa8;" horiz-adv-x="382" d="M206 595 C226 595 241 610 241 630 C241 650 226 665 206 665 C186 665 171 650 171 630 C171 610 186 595 206 595 L206 595 Z M356 595 C376 595 391 610 391 630 C391 650 376 665 356 665 C336 665 321 650 321 630 C321 610 336 595 356 595 L356 595 Z " />
<glyph glyph-name="copyright" unicode="&#xa9;" horiz-adv-x="830" d="M446 -15 C651 -15 811 145 811 350 C811 555 651 715 446 715 C241 715 81 555 81 350 C81 145 241 -15 446 -15 L446 -15 Z M446 23 C263 23 121 166 121 350 C121 534 263 677 446 677 C629 677 771 534 771 350 C771 166 629 23 446 23 L446 23 Z M451 130 C528 130 592 169 631 225 L599 247 C568 200 515 168 451 168 C351 168 271 250 271 350 C271 450 351 532 451 532 C511 532 559 504 593 462 L623 486 C582 535 523 570 451 570 C329 570 231 472 231 350 C231 228 329 130 451 130 L451 130 Z " />
<glyph glyph-name="ordfeminine" unicode="&#xaa;" horiz-adv-x="312" d="M342 700 L333 666 C322 681 295 708 242 708 C186 708 139 669 126 610 C111 541 157 477 227 477 C265 477 288 492 301 506 L298 485 L331 485 L377 700 L342 700 Z M234 513 C184 513 153 558 162 605 C170 645 205 672 243 672 C289 672 315 644 325 630 L307 545 C292 530 267 513 234 513 L234 513 Z " />
<glyph glyph-name="guillemotleft" unicode="&#xab;" horiz-adv-x="690" d="M398 525 L111 350 L324 175 L332 210 L165 347 L390 484 L398 525 Z M678 525 L391 350 L604 175 L612 210 L445 347 L670 484 L678 525 Z " />
<glyph glyph-name="logicalnot" unicode="&#xac;" horiz-adv-x="530" d="M98 290 L428 290 L408 200 L448 200 L476 328 L106 328 L98 290 Z " />
<glyph glyph-name="registered" unicode="&#xae;" horiz-adv-x="420" d="M289 723 C204 723 139 658 139 573 C139 488 204 423 289 423 C374 423 439 488 439 573 C439 658 374 723 289 723 L289 723 Z M289 456 C224 456 173 508 173 573 C173 638 224 690 289 690 C354 690 405 638 405 573 C405 508 354 456 289 456 L289 456 Z M340 601 C340 624 323 644 293 644 L242 644 L242 500 L274 500 L274 559 L283 559 L318 500 L356 500 L315 563 C331 570 340 585 340 601 L340 601 Z M274 616 L291 616 C302 616 309 609 309 599 C309 589 302 582 291 582 L274 582 L274 616 Z " />
<glyph glyph-name="macron" unicode="&#xaf;" horiz-adv-x="375" d="M171 631 L386 631 L394 669 L179 669 L171 631 Z " />
<glyph glyph-name="degree" unicode="&#xb0;" horiz-adv-x="460" d="M302 375 C398 375 472 449 472 545 C472 641 398 715 302 715 C206 715 132 641 132 545 C132 449 206 375 302 375 L302 375 Z M302 413 C231 413 172 471 172 545 C172 619 231 677 302 677 C373 677 432 619 432 545 C432 471 373 413 302 413 L302 413 Z " />
<glyph glyph-name="plusminus" unicode="&#xb1;" horiz-adv-x="530" d="M337 448 L372 614 L332 614 L297 448 L132 448 L124 410 L289 410 L254 244 L294 244 L329 410 L494 410 L502 448 L337 448 Z M60 110 L430 110 L438 148 L68 148 L60 110 Z " />
<glyph glyph-name="uni00B2" unicode="&#xb2;" horiz-adv-x="328" d="M90 347 L295 347 L303 382 L169 382 L298 518 C323 544 346 572 353 605 C364 659 325 707 266 707 C210 707 173 675 151 621 L184 607 C200 648 226 672 262 672 C298 672 321 643 314 608 C309 584 294 565 269 538 L90 347 Z " />
<glyph glyph-name="uni00B3" unicode="&#xb3;" horiz-adv-x="325" d="M256 707 C218 707 186 688 162 660 L185 637 C205 659 225 672 251 672 C288 672 312 641 305 606 C298 571 269 543 209 543 L193 543 L187 516 L202 516 C266 516 285 478 276 438 C267 400 238 375 198 375 C167 375 142 392 130 415 L101 398 C116 364 152 340 198 340 C258 340 301 375 313 431 C321 470 308 508 273 527 C312 541 335 569 343 604 C355 659 317 707 256 707 L256 707 Z " />
<glyph glyph-name="acute" unicode="&#xb4;" horiz-adv-x="220" d="M155 560 L194 560 L245 700 L203 700 L155 560 Z " />
<glyph glyph-name="uni00B5" unicode="&#xb5;" horiz-adv-x="470" d="M404 410 L345 137 C329 64 274 25 210 25 C133 25 95 80 110 153 L164 410 L124 410 L-10 -220 L30 -220 L88 53 C108 12 149 -15 207 -15 C293 -15 364 37 384 132 L444 410 L404 410 Z " />
<glyph glyph-name="paragraph" unicode="&#xb6;" horiz-adv-x="600" d="M123 550 C102 450 165 350 295 350 L300 350 L226 0 L266 0 L406 662 L556 662 L416 0 L456 0 L604 700 L329 700 C219 700 144 650 123 550 L123 550 Z " />
<glyph glyph-name="periodcentered" unicode="&#xb7;" horiz-adv-x="230" d="M146 315 C166 315 181 330 181 350 C181 370 166 385 146 385 C126 385 111 370 111 350 C111 330 126 315 146 315 L146 315 Z " />
<glyph glyph-name="cedilla" unicode="&#xb8;" horiz-adv-x="345" d="M112 -57 L151 0 L115 0 L52 -92 L72 -103 C72 -103 89 -91 106 -91 C139 -91 160 -112 154 -140 C147 -171 116 -184 87 -184 C41 -184 20 -161 20 -161 L-4 -188 C-4 -188 29 -220 85 -220 C142 -220 182 -188 191 -145 C200 -101 172 -58 112 -57 L112 -57 Z " />
<glyph glyph-name="uni00B9" unicode="&#xb9;" horiz-adv-x="214" d="M135 347 L174 347 L248 700 L156 700 L148 665 L202 665 L135 347 Z " />
<glyph glyph-name="ordmasculine" unicode="&#xba;" horiz-adv-x="312" d="M231 478 C289 478 338 516 351 575 C366 644 317 708 246 708 C189 708 139 669 126 610 C111 541 160 478 231 478 L231 478 Z M234 513 C184 513 152 558 162 605 C170 645 205 672 243 672 C293 672 325 627 315 580 C307 540 272 513 234 513 L234 513 Z " />
<glyph glyph-name="guillemotright" unicode="&#xbb;" horiz-adv-x="690" d="M74 175 L361 350 L148 525 L140 490 L307 353 L82 216 L74 175 Z M354 175 L641 350 L428 525 L420 490 L587 353 L362 216 L354 175 Z " />
<glyph glyph-name="onequarter" unicode="&#xbc;" horiz-adv-x="696" d="M541 700 L20 0 L68 0 L589 700 L541 700 Z M174 347 L248 700 L156 700 L148 665 L202 665 L135 347 L174 347 Z M622 141 L566 141 L611 353 L571 353 L377 128 L373 108 L522 108 L499 0 L536 0 L559 108 L615 108 L622 141 Z M425 141 L563 303 L529 141 L425 141 Z " />
<glyph glyph-name="onehalf" unicode="&#xbd;" horiz-adv-x="662" d="M20 0 L68 0 L589 700 L541 700 L20 0 Z M135 347 L174 347 L248 700 L156 700 L148 665 L202 665 L135 347 Z M350 0 L555 0 L563 35 L429 35 L558 171 C583 197 606 225 613 258 C624 312 585 360 526 360 C470 360 433 328 411 274 L444 260 C460 301 486 325 522 325 C558 325 581 296 574 261 C569 237 554 218 529 191 L350 0 Z " />
<glyph glyph-name="threequarters" unicode="&#xbe;" horiz-adv-x="807" d="M313 431 C321 470 308 508 273 527 C312 541 335 569 343 604 C355 659 317 707 256 707 C218 707 186 688 162 660 L185 637 C205 659 225 672 251 672 C288 672 312 641 305 606 C298 571 269 543 209 543 L193 543 L187 516 L202 516 C266 516 285 478 276 438 C267 400 238 375 198 375 C167 375 142 392 130 415 L101 398 C116 364 152 340 198 340 C258 340 301 375 313 431 L313 431 Z M652 700 L131 0 L179 0 L700 700 L652 700 Z M733 141 L677 141 L722 353 L682 353 L488 128 L484 108 L633 108 L610 0 L647 0 L670 108 L726 108 L733 141 Z M536 141 L674 303 L640 141 L536 141 Z " />
<glyph glyph-name="questiondown" unicode="&#xbf;" horiz-adv-x="485" d="M342 485 C322 485 307 470 307 450 C307 430 322 415 342 415 C362 415 377 430 377 450 C377 470 362 485 342 485 L342 485 Z M280 280 L231 280 L86 105 C37 46 8 8 -4 -48 C-25 -144 43 -235 160 -235 C295 -235 364 -154 381 -50 L341 -50 C326 -141 259 -197 162 -197 C74 -197 19 -129 34 -57 C43 -13 67 21 115 80 L280 280 Z " />
<glyph glyph-name="Agrave" unicode="&#xc0;" horiz-adv-x="740" d="M516 910 L478 910 L473 770 L508 770 L516 910 Z M634 0 L676 0 L482 730 L-24 0 L22 0 L228 299 L555 299 L634 0 Z M254 337 L464 642 L545 337 L254 337 Z " />
<glyph glyph-name="Aacute" unicode="&#xc1;" horiz-adv-x="740" d="M562 910 L520 910 L472 770 L511 770 L562 910 Z M634 0 L676 0 L482 730 L-24 0 L22 0 L228 299 L555 299 L634 0 Z M254 337 L464 642 L545 337 L254 337 Z " />
<glyph glyph-name="Acircumflex" unicode="&#xc2;" horiz-adv-x="740" d="M515 878 L561 770 L597 770 L542 910 L497 910 L382 770 L420 770 L515 878 Z M634 0 L676 0 L482 730 L-24 0 L22 0 L228 299 L555 299 L634 0 Z M254 337 L464 642 L545 337 L254 337 Z " />
<glyph glyph-name="Atilde" unicode="&#xc3;" horiz-adv-x="740" d="M562 829 C592 829 614 849 614 849 L621 885 C621 885 597 866 567 866 C518 866 503 892 454 892 C424 892 403 872 403 872 L396 836 C396 836 419 855 449 855 C498 855 513 829 562 829 L562 829 Z M634 0 L676 0 L482 730 L-24 0 L22 0 L228 299 L555 299 L634 0 Z M254 337 L464 642 L545 337 L254 337 Z " />
<glyph glyph-name="Adieresis" unicode="&#xc4;" horiz-adv-x="740" d="M430 805 C450 805 465 820 465 840 C465 860 450 875 430 875 C410 875 395 860 395 840 C395 820 410 805 430 805 L430 805 Z M580 805 C600 805 615 820 615 840 C615 860 600 875 580 875 C560 875 545 860 545 840 C545 820 560 805 580 805 L580 805 Z M634 0 L676 0 L482 730 L-24 0 L22 0 L228 299 L555 299 L634 0 Z M254 337 L464 642 L545 337 L254 337 Z " />
<glyph glyph-name="Aring" unicode="&#xc5;" horiz-adv-x="740" d="M634 0 L676 0 L486 716 C490 715 495 715 499 715 C555 715 599 759 599 815 C599 871 555 915 499 915 C443 915 399 871 399 815 C399 768 430 729 474 718 L-24 0 L22 0 L228 299 L555 299 L634 0 Z M434 815 C434 851 463 880 499 880 C535 880 564 851 564 815 C564 779 535 750 499 750 C463 750 434 779 434 815 L434 815 Z M254 337 L464 642 L545 337 L254 337 Z " />
<glyph glyph-name="AE" unicode="&#xc6;" horiz-adv-x="940" d="M956 662 L964 700 L461 700 L-24 0 L22 0 L228 299 L555 299 L634 0 L846 0 L854 38 L666 38 L583 351 L915 351 L923 389 L573 389 L501 660 L956 662 Z M254 337 L464 642 L545 337 L254 337 Z " />
<glyph glyph-name="Ccedilla" unicode="&#xc7;" horiz-adv-x="775" d="M466 677 C625 677 708 584 745 491 L780 507 C738 609 640 715 469 715 C284 715 132 591 93 405 C49 195 182 7 386 -13 L332 -92 L352 -103 C352 -103 369 -91 386 -91 C419 -91 440 -112 434 -140 C427 -171 396 -184 367 -184 C321 -184 300 -161 300 -161 L276 -188 C276 -188 309 -220 365 -220 C422 -220 462 -188 471 -145 C480 -101 452 -58 392 -57 L421 -15 L423 -15 C555 -15 650 41 720 133 L690 153 C630 72 539 23 426 23 C223 23 88 197 131 400 C166 565 303 677 466 677 L466 677 Z " />
<glyph glyph-name="Egrave" unicode="&#xc8;" horiz-adv-x="520" d="M416 910 L378 910 L373 770 L408 770 L416 910 Z M537 662 L545 700 L205 700 L57 0 L427 0 L435 38 L105 38 L178 381 L502 381 L510 419 L186 419 L237 662 L537 662 Z " />
<glyph glyph-name="Eacute" unicode="&#xc9;" horiz-adv-x="520" d="M462 910 L420 910 L372 770 L411 770 L462 910 Z M537 662 L545 700 L205 700 L57 0 L427 0 L435 38 L105 38 L178 381 L502 381 L510 419 L186 419 L237 662 L537 662 Z " />
<glyph glyph-name="Ecircumflex" unicode="&#xca;" horiz-adv-x="520" d="M415 878 L461 770 L497 770 L442 910 L397 910 L282 770 L320 770 L415 878 Z M537 662 L545 700 L205 700 L57 0 L427 0 L435 38 L105 38 L178 381 L502 381 L510 419 L186 419 L237 662 L537 662 Z " />
<glyph glyph-name="Edieresis" unicode="&#xcb;" horiz-adv-x="520" d="M330 805 C350 805 365 820 365 840 C365 860 350 875 330 875 C310 875 295 860 295 840 C295 820 310 805 330 805 L330 805 Z M480 805 C500 805 515 820 515 840 C515 860 500 875 480 875 C460 875 445 860 445 840 C445 820 460 805 480 805 L480 805 Z M537 662 L545 700 L205 700 L57 0 L427 0 L435 38 L105 38 L178 381 L502 381 L510 419 L186 419 L237 662 L537 662 Z " />
<glyph glyph-name="Igrave" unicode="&#xcc;" horiz-adv-x="260" d="M268 770 L276 910 L238 910 L233 770 L268 770 Z M67 0 L107 0 L255 700 L215 700 L67 0 Z " />
<glyph glyph-name="Iacute" unicode="&#xcd;" horiz-adv-x="260" d="M232 770 L271 770 L322 910 L280 910 L232 770 Z M67 0 L107 0 L255 700 L215 700 L67 0 Z " />
<glyph glyph-name="Icircumflex" unicode="&#xce;" horiz-adv-x="260" d="M142 770 L180 770 L275 878 L321 770 L357 770 L302 910 L257 910 L142 770 Z M67 0 L107 0 L255 700 L215 700 L67 0 Z " />
<glyph glyph-name="Idieresis" unicode="&#xcf;" horiz-adv-x="260" d="M190 805 C210 805 225 820 225 840 C225 860 210 875 190 875 C170 875 155 860 155 840 C155 820 170 805 190 805 L190 805 Z M340 805 C360 805 375 820 375 840 C375 860 360 875 340 875 C320 875 305 860 305 840 C305 820 320 805 340 805 L340 805 Z M67 0 L107 0 L255 700 L215 700 L67 0 Z " />
<glyph glyph-name="Eth" unicode="&#xd0;" horiz-adv-x="640" d="M313 700 L205 700 L136 374 L36 374 L28 336 L128 336 L57 0 L229 0 C408 0 570 119 611 304 C660 527 532 700 313 700 L313 700 Z M572 310 C539 144 388 38 231 38 L105 38 L168 336 L368 336 L376 374 L176 374 L237 662 L311 662 C508 662 613 514 572 310 L572 310 Z " />
<glyph glyph-name="Ntilde" unicode="&#xd1;" horiz-adv-x="740" d="M396 836 C396 836 419 855 449 855 C498 855 513 829 562 829 C592 829 614 849 614 849 L621 885 C621 885 597 866 567 866 C518 866 503 892 454 892 C424 892 403 872 403 872 L396 836 Z M590 -30 L745 700 L705 700 L573 79 L212 730 L57 0 L97 0 L229 621 L590 -30 Z " />
<glyph glyph-name="Ograve" unicode="&#xd2;" horiz-adv-x="830" d="M553 770 L561 910 L523 910 L518 770 L553 770 Z M424 -15 C609 -15 758 109 799 294 C848 517 693 715 468 715 C283 715 132 591 93 406 C46 183 199 -15 424 -15 L424 -15 Z M426 23 C223 23 89 197 132 400 C167 565 303 677 466 677 C669 677 801 504 760 300 C727 134 589 23 426 23 L426 23 Z " />
<glyph glyph-name="Oacute" unicode="&#xd3;" horiz-adv-x="830" d="M517 770 L556 770 L607 910 L565 910 L517 770 Z M424 -15 C609 -15 758 109 799 294 C848 517 693 715 468 715 C283 715 132 591 93 406 C46 183 199 -15 424 -15 L424 -15 Z M426 23 C223 23 89 197 132 400 C167 565 303 677 466 677 C669 677 801 504 760 300 C727 134 589 23 426 23 L426 23 Z " />
<glyph glyph-name="Ocircumflex" unicode="&#xd4;" horiz-adv-x="830" d="M427 770 L465 770 L560 878 L606 770 L642 770 L587 910 L542 910 L427 770 Z M424 -15 C609 -15 758 109 799 294 C848 517 693 715 468 715 C283 715 132 591 93 406 C46 183 199 -15 424 -15 L424 -15 Z M426 23 C223 23 89 197 132 400 C167 565 303 677 466 677 C669 677 801 504 760 300 C727 134 589 23 426 23 L426 23 Z " />
<glyph glyph-name="Otilde" unicode="&#xd5;" horiz-adv-x="830" d="M441 836 C441 836 464 855 494 855 C543 855 558 829 607 829 C637 829 659 849 659 849 L666 885 C666 885 642 866 612 866 C563 866 548 892 499 892 C469 892 448 872 448 872 L441 836 Z M424 -15 C609 -15 758 109 799 294 C848 517 693 715 468 715 C283 715 132 591 93 406 C46 183 199 -15 424 -15 L424 -15 Z M426 23 C223 23 89 197 132 400 C167 565 303 677 466 677 C669 677 801 504 760 300 C727 134 589 23 426 23 L426 23 Z " />
<glyph glyph-name="Odieresis" unicode="&#xd6;" horiz-adv-x="830" d="M475 805 C495 805 510 820 510 840 C510 860 495 875 475 875 C455 875 440 860 440 840 C440 820 455 805 475 805 L475 805 Z M625 805 C645 805 660 820 660 840 C660 860 645 875 625 875 C605 875 590 860 590 840 C590 820 605 805 625 805 L625 805 Z M424 -15 C609 -15 758 109 799 294 C848 517 693 715 468 715 C283 715 132 591 93 406 C46 183 199 -15 424 -15 L424 -15 Z M426 23 C223 23 89 197 132 400 C167 565 303 677 466 677 C669 677 801 504 760 300 C727 134 589 23 426 23 L426 23 Z " />
<glyph glyph-name="multiply" unicode="&#xd7;" horiz-adv-x="530" d="M477 409 L455 442 L293 336 L187 499 L154 477 L260 315 L97 209 L119 176 L281 282 L387 119 L420 141 L314 303 L477 409 Z " />
<glyph glyph-name="Oslash" unicode="&#xd8;" horiz-adv-x="830" d="M884 700 L827 700 L719 608 C658 674 570 715 468 715 C283 715 132 591 93 406 C70 299 94 198 149 122 L6 0 L63 0 L172 93 C233 27 321 -15 424 -15 C609 -15 758 109 799 294 C823 401 799 503 743 580 L884 700 Z M132 400 C167 565 303 677 466 677 C558 677 636 641 690 583 L178 147 C131 215 112 304 132 400 L132 400 Z M760 300 C727 134 589 23 426 23 C333 23 255 59 201 118 L713 554 C760 486 779 397 760 300 L760 300 Z " />
<glyph glyph-name="Ugrave" unicode="&#xd9;" horiz-adv-x="660" d="M469 770 L477 910 L439 910 L434 770 L469 770 Z M309 -15 C437 -15 542 71 574 220 L676 700 L636 700 L535 225 C508 99 418 23 312 23 C186 23 112 119 143 265 L236 700 L196 700 L104 270 C68 102 161 -15 309 -15 L309 -15 Z " />
<glyph glyph-name="Uacute" unicode="&#xda;" horiz-adv-x="660" d="M433 770 L472 770 L523 910 L481 910 L433 770 Z M309 -15 C437 -15 542 71 574 220 L676 700 L636 700 L535 225 C508 99 418 23 312 23 C186 23 112 119 143 265 L236 700 L196 700 L104 270 C68 102 161 -15 309 -15 L309 -15 Z " />
<glyph glyph-name="Ucircumflex" unicode="&#xdb;" horiz-adv-x="660" d="M343 770 L381 770 L476 878 L522 770 L558 770 L503 910 L458 910 L343 770 Z M309 -15 C437 -15 542 71 574 220 L676 700 L636 700 L535 225 C508 99 418 23 312 23 C186 23 112 119 143 265 L236 700 L196 700 L104 270 C68 102 161 -15 309 -15 L309 -15 Z " />
<glyph glyph-name="Udieresis" unicode="&#xdc;" horiz-adv-x="660" d="M391 805 C411 805 426 820 426 840 C426 860 411 875 391 875 C371 875 356 860 356 840 C356 820 371 805 391 805 L391 805 Z M541 805 C561 805 576 820 576 840 C576 860 561 875 541 875 C521 875 506 860 506 840 C506 820 521 805 541 805 L541 805 Z M309 -15 C437 -15 542 71 574 220 L676 700 L636 700 L535 225 C508 99 418 23 312 23 C186 23 112 119 143 265 L236 700 L196 700 L104 270 C68 102 161 -15 309 -15 L309 -15 Z " />
<glyph glyph-name="Yacute" unicode="&#xdd;" horiz-adv-x="580" d="M392 770 L431 770 L482 910 L440 910 L392 770 Z M227 0 L267 0 L343 360 L675 700 L622 700 L328 397 L162 700 L115 700 L303 360 L227 0 Z " />
<glyph glyph-name="Thorn" unicode="&#xde;" horiz-adv-x="500" d="M289 555 L214 555 L245 700 L205 700 L57 0 L97 0 L132 165 L246 165 C366 165 456 230 479 340 C502 450 429 555 289 555 L289 555 Z M440 345 C421 257 348 203 250 203 L140 203 L206 517 L286 517 C404 517 459 433 440 345 L440 345 Z " />
<glyph glyph-name="germandbls" unicode="&#xdf;" horiz-adv-x="540" d="M513 587 C528 657 483 755 363 755 C253 755 183 690 160 580 L37 0 L77 0 L199 575 C219 669 283 717 360 717 C447 717 486 647 474 590 C456 505 360 498 340 403 C318 298 467 240 443 125 C429 57 380 23 315 23 C250 23 214 61 214 61 L192 31 C192 31 234 -15 312 -15 C397 -15 463 32 482 120 C510 249 359 315 377 400 C393 475 490 477 513 587 L513 587 Z " />
<glyph glyph-name="agrave" unicode="&#xe0;" horiz-adv-x="560" d="M375 670 L337 670 L332 530 L367 530 L375 670 Z M484 410 L467 335 C444 366 385 425 272 425 C165 425 71 352 47 240 C19 108 111 -15 248 -15 C328 -15 378 18 407 47 L396 0 L436 0 L524 410 L484 410 Z M251 23 C136 23 63 125 86 235 C105 325 184 387 269 387 C376 387 436 325 459 294 L417 95 C384 63 327 23 251 23 L251 23 Z " />
<glyph glyph-name="aacute" unicode="&#xe1;" horiz-adv-x="560" d="M421 670 L379 670 L331 530 L370 530 L421 670 Z M484 410 L467 335 C444 366 385 425 272 425 C165 425 71 352 47 240 C19 108 111 -15 248 -15 C328 -15 378 18 407 47 L396 0 L436 0 L524 410 L484 410 Z M251 23 C136 23 63 125 86 235 C105 325 184 387 269 387 C376 387 436 325 459 294 L417 95 C384 63 327 23 251 23 L251 23 Z " />
<glyph glyph-name="acircumflex" unicode="&#xe2;" horiz-adv-x="560" d="M374 638 L420 530 L456 530 L401 670 L356 670 L241 530 L279 530 L374 638 Z M484 410 L467 335 C444 366 385 425 272 425 C165 425 71 352 47 240 C19 108 111 -15 248 -15 C328 -15 378 18 407 47 L396 0 L436 0 L524 410 L484 410 Z M251 23 C136 23 63 125 86 235 C105 325 184 387 269 387 C376 387 436 325 459 294 L417 95 C384 63 327 23 251 23 L251 23 Z " />
<glyph glyph-name="atilde" unicode="&#xe3;" horiz-adv-x="560" d="M421 589 C451 589 473 609 473 609 L480 645 C480 645 456 626 426 626 C377 626 362 652 313 652 C283 652 262 632 262 632 L255 596 C255 596 278 615 308 615 C357 615 372 589 421 589 L421 589 Z M484 410 L467 335 C444 366 385 425 272 425 C165 425 71 352 47 240 C19 108 111 -15 248 -15 C328 -15 378 18 407 47 L396 0 L436 0 L524 410 L484 410 Z M251 23 C136 23 63 125 86 235 C105 325 184 387 269 387 C376 387 436 325 459 294 L417 95 C384 63 327 23 251 23 L251 23 Z " />
<glyph glyph-name="adieresis" unicode="&#xe4;" horiz-adv-x="560" d="M289 565 C309 565 324 580 324 600 C324 620 309 635 289 635 C269 635 254 620 254 600 C254 580 269 565 289 565 L289 565 Z M439 565 C459 565 474 580 474 600 C474 620 459 635 439 635 C419 635 404 620 404 600 C404 580 419 565 439 565 L439 565 Z M484 410 L467 335 C444 366 385 425 272 425 C165 425 71 352 47 240 C19 108 111 -15 248 -15 C328 -15 378 18 407 47 L396 0 L436 0 L524 410 L484 410 Z M251 23 C136 23 63 125 86 235 C105 325 184 387 269 387 C376 387 436 325 459 294 L417 95 C384 63 327 23 251 23 L251 23 Z " />
<glyph glyph-name="aring" unicode="&#xe5;" horiz-adv-x="560" d="M358 475 C414 475 458 519 458 575 C458 631 414 675 358 675 C302 675 258 631 258 575 C258 519 302 475 358 475 L358 475 Z M358 640 C394 640 423 611 423 575 C423 539 394 510 358 510 C322 510 293 539 293 575 C293 611 322 640 358 640 L358 640 Z M484 410 L467 335 C444 366 385 425 272 425 C165 425 71 352 47 240 C19 108 111 -15 248 -15 C328 -15 378 18 407 47 L396 0 L436 0 L524 410 L484 410 Z M251 23 C136 23 63 125 86 235 C105 325 184 387 269 387 C376 387 436 325 459 294 L417 95 C384 63 327 23 251 23 L251 23 Z " />
<glyph glyph-name="ae" unicode="&#xe6;" horiz-adv-x="905" d="M669 425 C607 425 552 400 513 358 L524 410 L484 410 L467 335 C444 366 385 425 272 425 C165 425 71 352 47 240 C19 108 111 -15 248 -15 C328 -15 378 18 407 47 L396 0 L436 0 L452 77 L461 117 C488 40 558 -15 653 -15 C729 -15 793 20 839 84 L807 102 C771 54 718 23 656 23 C548 23 478 107 483 205 L864 205 C864 205 866 209 867 215 C883 309 806 425 669 425 L669 425 Z M251 23 C136 23 63 125 86 235 C105 325 184 387 269 387 C376 387 436 325 459 294 L417 95 C384 63 327 23 251 23 L251 23 Z M666 387 C768 387 828 317 829 243 L489 243 C511 329 585 387 666 387 L666 387 Z " />
<glyph glyph-name="ccedilla" unicode="&#xe7;" horiz-adv-x="470" d="M269 387 C345 387 399 344 425 286 L460 301 C429 368 368 425 272 425 C165 425 71 352 47 240 C23 126 88 20 193 -8 L136 -92 L156 -103 C156 -103 173 -91 190 -91 C223 -91 244 -112 238 -140 C231 -171 200 -184 171 -184 C125 -184 104 -161 104 -161 L80 -188 C80 -188 113 -220 169 -220 C226 -220 266 -188 275 -145 C284 -101 256 -58 196 -57 L226 -14 C233 -15 240 -15 248 -15 C314 -15 371 10 420 64 L391 88 C350 43 303 23 251 23 C136 23 63 125 86 235 C105 325 184 387 269 387 L269 387 Z " />
<glyph glyph-name="egrave" unicode="&#xe8;" horiz-adv-x="505" d="M350 670 L312 670 L307 530 L342 530 L350 670 Z M264 425 C162 425 71 352 47 240 C19 108 111 -15 248 -15 C324 -15 388 20 434 84 L402 102 C366 54 313 23 251 23 C147 23 77 107 82 205 L459 205 C459 205 461 209 462 215 C478 309 401 425 264 425 L264 425 Z M261 387 C363 387 423 317 424 243 L88 243 C110 329 183 387 261 387 L261 387 Z " />
<glyph glyph-name="eacute" unicode="&#xe9;" horiz-adv-x="505" d="M396 670 L354 670 L306 530 L345 530 L396 670 Z M264 425 C162 425 71 352 47 240 C19 108 111 -15 248 -15 C324 -15 388 20 434 84 L402 102 C366 54 313 23 251 23 C147 23 77 107 82 205 L459 205 C459 205 461 209 462 215 C478 309 401 425 264 425 L264 425 Z M261 387 C363 387 423 317 424 243 L88 243 C110 329 183 387 261 387 L261 387 Z " />
<glyph glyph-name="ecircumflex" unicode="&#xea;" horiz-adv-x="505" d="M349 638 L395 530 L431 530 L376 670 L331 670 L216 530 L254 530 L349 638 Z M264 425 C162 425 71 352 47 240 C19 108 111 -15 248 -15 C324 -15 388 20 434 84 L402 102 C366 54 313 23 251 23 C147 23 77 107 82 205 L459 205 C459 205 461 209 462 215 C478 309 401 425 264 425 L264 425 Z M261 387 C363 387 423 317 424 243 L88 243 C110 329 183 387 261 387 L261 387 Z " />
<glyph glyph-name="edieresis" unicode="&#xeb;" horiz-adv-x="505" d="M264 565 C284 565 299 580 299 600 C299 620 284 635 264 635 C244 635 229 620 229 600 C229 580 244 565 264 565 L264 565 Z M414 565 C434 565 449 580 449 600 C449 620 434 635 414 635 C394 635 379 620 379 600 C379 580 394 565 414 565 L414 565 Z M264 425 C162 425 71 352 47 240 C19 108 111 -15 248 -15 C324 -15 388 20 434 84 L402 102 C366 54 313 23 251 23 C147 23 77 107 82 205 L459 205 C459 205 461 209 462 215 C478 309 401 425 264 425 L264 425 Z M261 387 C363 387 423 317 424 243 L88 243 C110 329 183 387 261 387 L261 387 Z " />
<glyph glyph-name="igrave" unicode="&#xec;" horiz-adv-x="220" d="M197 530 L205 670 L167 670 L162 530 L197 530 Z M46 0 L86 0 L174 410 L134 410 L46 0 Z " />
<glyph glyph-name="iacute" unicode="&#xed;" horiz-adv-x="220" d="M161 530 L200 530 L251 670 L209 670 L161 530 Z M46 0 L86 0 L174 410 L134 410 L46 0 Z " />
<glyph glyph-name="icircumflex" unicode="&#xee;" horiz-adv-x="220" d="M71 530 L109 530 L204 638 L250 530 L286 530 L231 670 L186 670 L71 530 Z M46 0 L86 0 L174 410 L134 410 L46 0 Z " />
<glyph glyph-name="idieresis" unicode="&#xef;" horiz-adv-x="220" d="M119 565 C139 565 154 580 154 600 C154 620 139 635 119 635 C99 635 84 620 84 600 C84 580 99 565 119 565 L119 565 Z M269 565 C289 565 304 580 304 600 C304 620 289 635 269 635 C249 635 234 620 234 600 C234 580 249 565 269 565 L269 565 Z M46 0 L86 0 L174 410 L134 410 L46 0 Z " />
<glyph glyph-name="eth" unicode="&#xf0;" horiz-adv-x="520" d="M549 626 L539 657 L439 623 C415 668 383 712 342 755 L313 728 C349 688 378 649 400 610 L236 555 L246 524 L416 581 C463 486 472 393 462 296 C435 369 368 425 272 425 C165 425 71 352 47 240 C19 108 111 -15 248 -15 C355 -15 446 43 481 210 C509 342 510 470 453 594 L549 626 Z M434 175 C415 85 336 23 251 23 C136 23 63 125 86 235 C105 325 184 387 269 387 C384 387 457 285 434 175 L434 175 Z " />
<glyph glyph-name="ntilde" unicode="&#xf1;" horiz-adv-x="470" d="M382 626 C333 626 318 652 269 652 C239 652 218 632 218 632 L211 596 C211 596 234 615 264 615 C313 615 328 589 377 589 C407 589 429 609 429 609 L436 645 C436 645 412 626 382 626 L382 626 Z M295 425 C244 425 195 396 150 344 L164 410 L124 410 L36 0 L76 0 L136 278 C190 355 245 385 292 385 C351 385 390 344 374 270 L316 0 L356 0 L413 265 C434 362 378 425 295 425 L295 425 Z " />
<glyph glyph-name="ograve" unicode="&#xf2;" horiz-adv-x="520" d="M347 530 L355 670 L317 670 L312 530 L347 530 Z M248 -15 C355 -15 449 58 473 170 C501 302 409 425 272 425 C165 425 71 352 47 240 C19 108 111 -15 248 -15 L248 -15 Z M251 23 C136 23 63 125 86 235 C105 325 184 387 269 387 C384 387 457 285 434 175 C415 85 336 23 251 23 L251 23 Z " />
<glyph glyph-name="oacute" unicode="&#xf3;" horiz-adv-x="520" d="M311 530 L350 530 L401 670 L359 670 L311 530 Z M248 -15 C355 -15 449 58 473 170 C501 302 409 425 272 425 C165 425 71 352 47 240 C19 108 111 -15 248 -15 L248 -15 Z M251 23 C136 23 63 125 86 235 C105 325 184 387 269 387 C384 387 457 285 434 175 C415 85 336 23 251 23 L251 23 Z " />
<glyph glyph-name="ocircumflex" unicode="&#xf4;" horiz-adv-x="520" d="M221 530 L259 530 L354 638 L400 530 L436 530 L381 670 L336 670 L221 530 Z M248 -15 C355 -15 449 58 473 170 C501 302 409 425 272 425 C165 425 71 352 47 240 C19 108 111 -15 248 -15 L248 -15 Z M251 23 C136 23 63 125 86 235 C105 325 184 387 269 387 C384 387 457 285 434 175 C415 85 336 23 251 23 L251 23 Z " />
<glyph glyph-name="otilde" unicode="&#xf5;" horiz-adv-x="520" d="M235 596 C235 596 258 615 288 615 C337 615 352 589 401 589 C431 589 453 609 453 609 L460 645 C460 645 436 626 406 626 C357 626 342 652 293 652 C263 652 242 632 242 632 L235 596 Z M248 -15 C355 -15 449 58 473 170 C501 302 409 425 272 425 C165 425 71 352 47 240 C19 108 111 -15 248 -15 L248 -15 Z M251 23 C136 23 63 125 86 235 C105 325 184 387 269 387 C384 387 457 285 434 175 C415 85 336 23 251 23 L251 23 Z " />
<glyph glyph-name="odieresis" unicode="&#xf6;" horiz-adv-x="520" d="M269 565 C289 565 304 580 304 600 C304 620 289 635 269 635 C249 635 234 620 234 600 C234 580 249 565 269 565 L269 565 Z M419 565 C439 565 454 580 454 600 C454 620 439 635 419 635 C399 635 384 620 384 600 C384 580 399 565 419 565 L419 565 Z M248 -15 C355 -15 449 58 473 170 C501 302 409 425 272 425 C165 425 71 352 47 240 C19 108 111 -15 248 -15 L248 -15 Z M251 23 C136 23 63 125 86 235 C105 325 184 387 269 387 C384 387 457 285 434 175 C415 85 336 23 251 23 L251 23 Z " />
<glyph glyph-name="divide" unicode="&#xf7;" horiz-adv-x="530" d="M322 438 C342 438 357 453 357 473 C357 493 342 508 322 508 C302 508 287 493 287 473 C287 453 302 438 322 438 L322 438 Z M98 290 L468 290 L476 328 L106 328 L98 290 Z M252 110 C272 110 287 125 287 145 C287 165 272 180 252 180 C232 180 217 165 217 145 C217 125 232 110 252 110 L252 110 Z " />
<glyph glyph-name="oslash" unicode="&#xf8;" horiz-adv-x="520" d="M524 410 L469 410 L418 366 C382 402 331 425 272 425 C165 425 71 352 47 240 C34 178 47 118 79 72 L-4 0 L51 0 L102 44 C138 8 189 -15 248 -15 C355 -15 449 58 473 170 C486 232 473 292 441 338 L524 410 Z M86 235 C105 325 184 387 269 387 C317 387 358 369 388 340 L109 98 C85 136 75 185 86 235 L86 235 Z M434 175 C415 85 336 23 251 23 C203 23 162 41 132 70 L411 312 C435 274 445 225 434 175 L434 175 Z " />
<glyph glyph-name="ugrave" unicode="&#xf9;" horiz-adv-x="470" d="M320 620 L282 620 L277 480 L312 480 L320 620 Z M394 410 L334 132 C280 55 225 25 178 25 C119 25 80 66 96 140 L154 410 L114 410 L57 145 C36 48 92 -15 175 -15 C226 -15 275 14 320 66 L306 0 L346 0 L434 410 L394 410 Z " />
<glyph glyph-name="uacute" unicode="&#xfa;" horiz-adv-x="470" d="M366 620 L324 620 L276 480 L315 480 L366 620 Z M394 410 L334 132 C280 55 225 25 178 25 C119 25 80 66 96 140 L154 410 L114 410 L57 145 C36 48 92 -15 175 -15 C226 -15 275 14 320 66 L306 0 L346 0 L434 410 L394 410 Z " />
<glyph glyph-name="ucircumflex" unicode="&#xfb;" horiz-adv-x="470" d="M319 588 L365 480 L401 480 L346 620 L301 620 L186 480 L224 480 L319 588 Z M394 410 L334 132 C280 55 225 25 178 25 C119 25 80 66 96 140 L154 410 L114 410 L57 145 C36 48 92 -15 175 -15 C226 -15 275 14 320 66 L306 0 L346 0 L434 410 L394 410 Z " />
<glyph glyph-name="udieresis" unicode="&#xfc;" horiz-adv-x="470" d="M234 515 C254 515 269 530 269 550 C269 570 254 585 234 585 C214 585 199 570 199 550 C199 530 214 515 234 515 L234 515 Z M384 515 C404 515 419 530 419 550 C419 570 404 585 384 585 C364 585 349 570 349 550 C349 530 364 515 384 515 L384 515 Z M394 410 L334 132 C280 55 225 25 178 25 C119 25 80 66 96 140 L154 410 L114 410 L57 145 C36 48 92 -15 175 -15 C226 -15 275 14 320 66 L306 0 L346 0 L434 410 L394 410 Z " />
<glyph glyph-name="yacute" unicode="&#xfd;" horiz-adv-x="420" d="M338 620 L296 620 L248 480 L287 480 L338 620 Z M408 410 L177 60 L94 410 L54 410 L147 15 L-9 -220 L34 -220 L454 410 L408 410 Z " />
<glyph glyph-name="thorn" unicode="&#xfe;" horiz-adv-x="560" d="M312 425 C232 425 183 393 154 363 L234 740 L194 740 L-10 -220 L30 -220 L93 75 C116 43 175 -15 288 -15 C395 -15 489 58 513 170 C541 302 449 425 312 425 L312 425 Z M474 175 C455 85 376 23 291 23 C184 23 124 85 101 116 L144 315 C177 347 234 387 309 387 C424 387 497 285 474 175 L474 175 Z " />
<glyph glyph-name="ydieresis" unicode="&#xff;" horiz-adv-x="420" d="M206 515 C226 515 241 530 241 550 C241 570 226 585 206 585 C186 585 171 570 171 550 C171 530 186 515 206 515 L206 515 Z M356 515 C376 515 391 530 391 550 C391 570 376 585 356 585 C336 585 321 570 321 550 C321 530 336 515 356 515 L356 515 Z M408 410 L177 60 L94 410 L54 410 L147 15 L-9 -220 L34 -220 L454 410 L408 410 Z " />
<glyph glyph-name="Amacron" unicode="&#x100;" horiz-adv-x="740" d="M620 879 L405 879 L397 841 L612 841 L620 879 Z M634 0 L676 0 L482 730 L-24 0 L22 0 L228 299 L555 299 L634 0 Z M254 337 L464 642 L545 337 L254 337 Z " />
<glyph glyph-name="amacron" unicode="&#x101;" horiz-adv-x="560" d="M479 639 L264 639 L256 601 L471 601 L479 639 Z M484 410 L467 335 C444 366 385 425 272 425 C165 425 71 352 47 240 C19 108 111 -15 248 -15 C328 -15 378 18 407 47 L396 0 L436 0 L524 410 L484 410 Z M251 23 C136 23 63 125 86 235 C105 325 184 387 269 387 C376 387 436 325 459 294 L417 95 C384 63 327 23 251 23 L251 23 Z " />
<glyph glyph-name="Abreve" unicode="&#x102;" horiz-adv-x="740" d="M500 770 C570 770 618 821 637 910 L599 910 C584 842 549 806 503 806 C456 806 425 842 440 910 L402 910 C383 821 429 770 500 770 L500 770 Z M634 0 L676 0 L482 730 L-24 0 L22 0 L228 299 L555 299 L634 0 Z M254 337 L464 642 L545 337 L254 337 Z " />
<glyph glyph-name="abreve" unicode="&#x103;" horiz-adv-x="560" d="M359 530 C429 530 477 581 496 670 L458 670 C443 602 408 566 362 566 C315 566 284 602 299 670 L261 670 C242 581 288 530 359 530 L359 530 Z M484 410 L467 335 C444 366 385 425 272 425 C165 425 71 352 47 240 C19 108 111 -15 248 -15 C328 -15 378 18 407 47 L396 0 L436 0 L524 410 L484 410 Z M251 23 C136 23 63 125 86 235 C105 325 184 387 269 387 C376 387 436 325 459 294 L417 95 C384 63 327 23 251 23 L251 23 Z " />
<glyph glyph-name="Aogonek" unicode="&#x104;" horiz-adv-x="740" d="M666 -156 C666 -156 639 -189 595 -189 C558 -189 530 -160 538 -120 C546 -80 586 -49 676 0 L482 730 L-24 0 L22 0 L228 299 L555 299 L633 6 C560 -31 512 -63 501 -115 C489 -172 527 -225 592 -225 C655 -225 688 -178 688 -178 L666 -156 Z M254 337 L464 642 L545 337 L254 337 Z " />
<glyph glyph-name="aogonek" unicode="&#x105;" horiz-adv-x="560" d="M355 -189 C318 -189 290 -160 298 -120 C306 -80 346 -49 436 0 L524 410 L484 410 L467 335 C444 366 385 425 272 425 C165 425 71 352 47 240 C19 108 111 -15 248 -15 C328 -15 378 18 407 47 L398 8 C323 -30 272 -62 261 -115 C249 -172 287 -225 352 -225 C415 -225 448 -178 448 -178 L426 -156 C426 -156 399 -189 355 -189 L355 -189 Z M251 23 C136 23 63 125 86 235 C105 325 184 387 269 387 C376 387 436 325 459 294 L417 95 C384 63 327 23 251 23 L251 23 Z " />
<glyph glyph-name="Cacute" unicode="&#x106;" horiz-adv-x="775" d="M477 770 L516 770 L567 910 L525 910 L477 770 Z M423 -15 C555 -15 650 41 720 133 L690 153 C630 72 539 23 426 23 C223 23 88 197 131 400 C166 565 303 677 466 677 C625 677 708 584 745 491 L780 507 C738 609 640 715 469 715 C284 715 132 591 93 405 C46 183 198 -15 423 -15 L423 -15 Z " />
<glyph glyph-name="cacute" unicode="&#x107;" horiz-adv-x="470" d="M311 530 L350 530 L401 670 L359 670 L311 530 Z M248 -15 C314 -15 371 10 420 64 L391 88 C350 43 303 23 251 23 C136 23 63 125 86 235 C105 325 184 387 269 387 C345 387 399 344 425 286 L460 301 C429 368 368 425 272 425 C165 425 71 352 47 240 C19 108 111 -15 248 -15 L248 -15 Z " />
<glyph glyph-name="Ccircumflex" unicode="&#x108;" horiz-adv-x="775" d="M387 770 L425 770 L520 878 L566 770 L602 770 L547 910 L502 910 L387 770 Z M423 -15 C555 -15 650 41 720 133 L690 153 C630 72 539 23 426 23 C223 23 88 197 131 400 C166 565 303 677 466 677 C625 677 708 584 745 491 L780 507 C738 609 640 715 469 715 C284 715 132 591 93 405 C46 183 198 -15 423 -15 L423 -15 Z " />
<glyph glyph-name="ccircumflex" unicode="&#x109;" horiz-adv-x="470" d="M221 530 L259 530 L354 638 L400 530 L436 530 L381 670 L336 670 L221 530 Z M248 -15 C314 -15 371 10 420 64 L391 88 C350 43 303 23 251 23 C136 23 63 125 86 235 C105 325 184 387 269 387 C345 387 399 344 425 286 L460 301 C429 368 368 425 272 425 C165 425 71 352 47 240 C19 108 111 -15 248 -15 L248 -15 Z " />
<glyph glyph-name="Cdotaccent" unicode="&#x10a;" horiz-adv-x="775" d="M510 805 C530 805 545 820 545 840 C545 860 530 875 510 875 C490 875 475 860 475 840 C475 820 490 805 510 805 L510 805 Z M423 -15 C555 -15 650 41 720 133 L690 153 C630 72 539 23 426 23 C223 23 88 197 131 400 C166 565 303 677 466 677 C625 677 708 584 745 491 L780 507 C738 609 640 715 469 715 C284 715 132 591 93 405 C46 183 198 -15 423 -15 L423 -15 Z " />
<glyph glyph-name="cdotaccent" unicode="&#x10b;" horiz-adv-x="470" d="M344 565 C364 565 379 580 379 600 C379 620 364 635 344 635 C324 635 309 620 309 600 C309 580 324 565 344 565 L344 565 Z M248 -15 C314 -15 371 10 420 64 L391 88 C350 43 303 23 251 23 C136 23 63 125 86 235 C105 325 184 387 269 387 C345 387 399 344 425 286 L460 301 C429 368 368 425 272 425 C165 425 71 352 47 240 C19 108 111 -15 248 -15 L248 -15 Z " />
<glyph glyph-name="Ccaron" unicode="&#x10c;" horiz-adv-x="775" d="M417 910 L472 770 L517 770 L632 910 L594 910 L502 802 L453 910 L417 910 Z M423 -15 C555 -15 650 41 720 133 L690 153 C630 72 539 23 426 23 C223 23 88 197 131 400 C166 565 303 677 466 677 C625 677 708 584 745 491 L780 507 C738 609 640 715 469 715 C284 715 132 591 93 405 C46 183 198 -15 423 -15 L423 -15 Z " />
<glyph glyph-name="ccaron" unicode="&#x10d;" horiz-adv-x="470" d="M251 670 L306 530 L351 530 L466 670 L428 670 L336 562 L287 670 L251 670 Z M248 -15 C314 -15 371 10 420 64 L391 88 C350 43 303 23 251 23 C136 23 63 125 86 235 C105 325 184 387 269 387 C345 387 399 344 425 286 L460 301 C429 368 368 425 272 425 C165 425 71 352 47 240 C19 108 111 -15 248 -15 L248 -15 Z " />
<glyph glyph-name="Dcaron" unicode="&#x10e;" horiz-adv-x="640" d="M362 910 L417 770 L462 770 L577 910 L539 910 L447 802 L398 910 L362 910 Z M57 0 L229 0 C408 0 570 119 611 304 C660 527 532 700 313 700 L205 700 L57 0 Z M105 38 L237 662 L311 662 C508 662 613 514 572 310 C539 144 388 38 231 38 L105 38 Z " />
<glyph glyph-name="dcaron" unicode="&#x10f;" horiz-adv-x="620" d="M467 335 C443 367 384 425 272 425 C165 425 71 352 47 240 C19 108 111 -15 248 -15 C327 -15 377 17 406 46 L396 0 L436 0 L593 740 L553 740 L467 335 Z M816 700 L754 490 L796 490 L861 700 L816 700 Z M251 23 C136 23 63 125 86 235 C105 325 184 387 269 387 C376 387 435 326 458 295 L416 94 C382 62 326 23 251 23 L251 23 Z " />
<glyph glyph-name="Dcroat" unicode="&#x110;" horiz-adv-x="640" d="M313 700 L205 700 L136 374 L36 374 L28 336 L128 336 L57 0 L229 0 C408 0 570 119 611 304 C660 527 532 700 313 700 L313 700 Z M572 310 C539 144 388 38 231 38 L105 38 L168 336 L368 336 L376 374 L176 374 L237 662 L311 662 C508 662 613 514 572 310 L572 310 Z " />
<glyph glyph-name="dcroat" unicode="&#x111;" horiz-adv-x="560" d="M652 640 L572 640 L593 740 L553 740 L532 640 L432 640 L424 602 L524 602 L467 335 C443 367 384 425 272 425 C165 425 71 352 47 240 C19 108 111 -15 248 -15 C327 -15 377 17 406 46 L396 0 L436 0 L564 602 L644 602 L652 640 Z M251 23 C136 23 63 125 86 235 C105 325 184 387 269 387 C376 387 435 326 458 295 L416 94 C382 62 326 23 251 23 L251 23 Z " />
<glyph glyph-name="Emacron" unicode="&#x112;" horiz-adv-x="520" d="M520 879 L305 879 L297 841 L512 841 L520 879 Z M537 662 L545 700 L205 700 L57 0 L427 0 L435 38 L105 38 L178 381 L502 381 L510 419 L186 419 L237 662 L537 662 Z " />
<glyph glyph-name="emacron" unicode="&#x113;" horiz-adv-x="505" d="M454 639 L239 639 L231 601 L446 601 L454 639 Z M264 425 C162 425 71 352 47 240 C19 108 111 -15 248 -15 C324 -15 388 20 434 84 L402 102 C366 54 313 23 251 23 C147 23 77 107 82 205 L459 205 C459 205 461 209 462 215 C478 309 401 425 264 425 L264 425 Z M261 387 C363 387 423 317 424 243 L88 243 C110 329 183 387 261 387 L261 387 Z " />
<glyph glyph-name="Ebreve" unicode="&#x114;" horiz-adv-x="520" d="M400 770 C470 770 518 821 537 910 L499 910 C484 842 449 806 403 806 C356 806 325 842 340 910 L302 910 C283 821 329 770 400 770 L400 770 Z M537 662 L545 700 L205 700 L57 0 L427 0 L435 38 L105 38 L178 381 L502 381 L510 419 L186 419 L237 662 L537 662 Z " />
<glyph glyph-name="ebreve" unicode="&#x115;" horiz-adv-x="505" d="M334 530 C404 530 452 581 471 670 L433 670 C418 602 383 566 337 566 C290 566 259 602 274 670 L236 670 C217 581 263 530 334 530 L334 530 Z M264 425 C162 425 71 352 47 240 C19 108 111 -15 248 -15 C324 -15 388 20 434 84 L402 102 C366 54 313 23 251 23 C147 23 77 107 82 205 L459 205 C459 205 461 209 462 215 C478 309 401 425 264 425 L264 425 Z M261 387 C363 387 423 317 424 243 L88 243 C110 329 183 387 261 387 L261 387 Z " />
<glyph glyph-name="Edotaccent" unicode="&#x116;" horiz-adv-x="520" d="M405 805 C425 805 440 820 440 840 C440 860 425 875 405 875 C385 875 370 860 370 840 C370 820 385 805 405 805 L405 805 Z M537 662 L545 700 L205 700 L57 0 L427 0 L435 38 L105 38 L178 381 L502 381 L510 419 L186 419 L237 662 L537 662 Z " />
<glyph glyph-name="edotaccent" unicode="&#x117;" horiz-adv-x="505" d="M339 565 C359 565 374 580 374 600 C374 620 359 635 339 635 C319 635 304 620 304 600 C304 580 319 565 339 565 L339 565 Z M264 425 C162 425 71 352 47 240 C19 108 111 -15 248 -15 C324 -15 388 20 434 84 L402 102 C366 54 313 23 251 23 C147 23 77 107 82 205 L459 205 C459 205 461 209 462 215 C478 309 401 425 264 425 L264 425 Z M261 387 C363 387 423 317 424 243 L88 243 C110 329 183 387 261 387 L261 387 Z " />
<glyph glyph-name="Eogonek" unicode="&#x118;" horiz-adv-x="520" d="M537 662 L545 700 L205 700 L57 0 L373 0 C306 -35 262 -66 252 -115 C240 -172 278 -225 343 -225 C406 -225 439 -178 439 -178 L417 -156 C417 -156 390 -189 346 -189 C309 -189 281 -160 289 -120 C297 -80 337 -49 427 0 L435 38 L105 38 L178 381 L502 381 L510 419 L186 419 L237 662 L537 662 Z " />
<glyph glyph-name="eogonek" unicode="&#x119;" horiz-adv-x="505" d="M264 425 C162 425 71 352 47 240 C19 109 110 -13 245 -15 C194 -44 161 -73 152 -115 C140 -172 178 -225 243 -225 C306 -225 339 -178 339 -178 L317 -156 C317 -156 290 -189 246 -189 C209 -189 181 -160 189 -120 C197 -81 235 -50 322 -3 C366 12 404 42 434 84 L402 102 C366 54 313 23 251 23 C147 23 77 107 82 205 L459 205 C459 205 461 209 462 215 C478 309 401 425 264 425 L264 425 Z M261 387 C363 387 423 317 424 243 L88 243 C110 329 183 387 261 387 L261 387 Z " />
<glyph glyph-name="Ecaron" unicode="&#x11a;" horiz-adv-x="520" d="M412 770 L527 910 L489 910 L397 802 L348 910 L312 910 L367 770 L412 770 Z M537 662 L545 700 L205 700 L57 0 L427 0 L435 38 L105 38 L178 381 L502 381 L510 419 L186 419 L237 662 L537 662 Z " />
<glyph glyph-name="ecaron" unicode="&#x11b;" horiz-adv-x="505" d="M346 530 L461 670 L423 670 L331 562 L282 670 L246 670 L301 530 L346 530 Z M264 425 C162 425 71 352 47 240 C19 108 111 -15 248 -15 C324 -15 388 20 434 84 L402 102 C366 54 313 23 251 23 C147 23 77 107 82 205 L459 205 C459 205 461 209 462 215 C478 309 401 425 264 425 L264 425 Z M261 387 C363 387 423 317 424 243 L88 243 C110 329 183 387 261 387 L261 387 Z " />
<glyph glyph-name="Gcircumflex" unicode="&#x11c;" horiz-adv-x="815" d="M525 878 L571 770 L607 770 L552 910 L507 910 L392 770 L430 770 L525 878 Z M788 360 L299 360 L291 322 L748 322 C746 310 744 295 740 280 C704 120 584 23 426 23 C223 23 90 197 132 400 C166 565 304 677 471 677 C591 677 671 620 717 557 L749 578 C697 648 605 715 474 715 C285 715 132 591 93 405 C46 183 198 -15 423 -15 C603 -15 740 96 779 275 C790 324 788 360 788 360 L788 360 Z " />
<glyph glyph-name="gcircumflex" unicode="&#x11d;" horiz-adv-x="560" d="M375 638 L421 530 L457 530 L402 670 L357 670 L242 530 L280 530 L375 638 Z M484 410 L468 334 C445 365 386 425 272 425 C165 425 71 352 47 240 C19 108 111 -15 248 -15 C328 -15 378 18 407 48 L387 -45 C366 -143 298 -197 210 -197 C152 -197 102 -168 77 -131 L47 -156 C80 -200 138 -235 207 -235 C317 -235 400 -171 426 -50 L524 410 L484 410 Z M251 23 C136 23 63 125 86 235 C105 325 184 387 269 387 C377 387 437 324 459 293 L417 95 C384 63 327 23 251 23 L251 23 Z " />
<glyph glyph-name="Gbreve" unicode="&#x11e;" horiz-adv-x="815" d="M510 770 C580 770 628 821 647 910 L609 910 C594 842 559 806 513 806 C466 806 435 842 450 910 L412 910 C393 821 439 770 510 770 L510 770 Z M788 360 L299 360 L291 322 L748 322 C746 310 744 295 740 280 C704 120 584 23 426 23 C223 23 90 197 132 400 C166 565 304 677 471 677 C591 677 671 620 717 557 L749 578 C697 648 605 715 474 715 C285 715 132 591 93 405 C46 183 198 -15 423 -15 C603 -15 740 96 779 275 C790 324 788 360 788 360 L788 360 Z " />
<glyph glyph-name="gbreve" unicode="&#x11f;" horiz-adv-x="560" d="M360 530 C430 530 478 581 497 670 L459 670 C444 602 409 566 363 566 C316 566 285 602 300 670 L262 670 C243 581 289 530 360 530 L360 530 Z M484 410 L468 334 C445 365 386 425 272 425 C165 425 71 352 47 240 C19 108 111 -15 248 -15 C328 -15 378 18 407 48 L387 -45 C366 -143 298 -197 210 -197 C152 -197 102 -168 77 -131 L47 -156 C80 -200 138 -235 207 -235 C317 -235 400 -171 426 -50 L524 410 L484 410 Z M251 23 C136 23 63 125 86 235 C105 325 184 387 269 387 C377 387 437 324 459 293 L417 95 C384 63 327 23 251 23 L251 23 Z " />
<glyph glyph-name="Gdotaccent" unicode="&#x120;" horiz-adv-x="815" d="M515 805 C535 805 550 820 550 840 C550 860 535 875 515 875 C495 875 480 860 480 840 C480 820 495 805 515 805 L515 805 Z M788 360 L299 360 L291 322 L748 322 C746 310 744 295 740 280 C704 120 584 23 426 23 C223 23 90 197 132 400 C166 565 304 677 471 677 C591 677 671 620 717 557 L749 578 C697 648 605 715 474 715 C285 715 132 591 93 405 C46 183 198 -15 423 -15 C603 -15 740 96 779 275 C790 324 788 360 788 360 L788 360 Z " />
<glyph glyph-name="gdotaccent" unicode="&#x121;" horiz-adv-x="560" d="M365 565 C385 565 400 580 400 600 C400 620 385 635 365 635 C345 635 330 620 330 600 C330 580 345 565 365 565 L365 565 Z M484 410 L468 334 C445 365 386 425 272 425 C165 425 71 352 47 240 C19 108 111 -15 248 -15 C328 -15 378 18 407 48 L387 -45 C366 -143 298 -197 210 -197 C152 -197 102 -168 77 -131 L47 -156 C80 -200 138 -235 207 -235 C317 -235 400 -171 426 -50 L524 410 L484 410 Z M251 23 C136 23 63 125 86 235 C105 325 184 387 269 387 C377 387 437 324 459 293 L417 95 C384 63 327 23 251 23 L251 23 Z " />
<glyph glyph-name="Gcommaaccent" unicode="&#x122;" horiz-adv-x="815" d="M788 360 L299 360 L291 322 L748 322 C746 310 744 295 740 280 C704 120 584 23 426 23 C223 23 90 197 132 400 C166 565 304 677 471 677 C591 677 671 620 717 557 L749 578 C697 648 605 715 474 715 C285 715 132 591 93 405 C46 183 198 -15 423 -15 C603 -15 740 96 779 275 C790 324 788 360 788 360 L788 360 Z M327 -210 L366 -210 L417 -70 L375 -70 L327 -210 Z " />
<glyph glyph-name="gcommaaccent" unicode="&#x123;" horiz-adv-x="560" d="M420 670 L381 670 L330 530 L372 530 L420 670 Z M484 410 L468 334 C445 365 386 425 272 425 C165 425 71 352 47 240 C19 108 111 -15 248 -15 C328 -15 378 18 407 48 L387 -45 C366 -143 298 -197 210 -197 C152 -197 102 -168 77 -131 L47 -156 C80 -200 138 -235 207 -235 C317 -235 400 -171 426 -50 L524 410 L484 410 Z M251 23 C136 23 63 125 86 235 C105 325 184 387 269 387 C377 387 437 324 459 293 L417 95 C384 63 327 23 251 23 L251 23 Z " />
<glyph glyph-name="Hcircumflex" unicode="&#x124;" horiz-adv-x="760" d="M525 878 L571 770 L607 770 L552 910 L507 910 L392 770 L430 770 L525 878 Z M725 700 L666 420 L186 420 L245 700 L205 700 L57 0 L97 0 L178 382 L658 382 L577 0 L617 0 L765 700 L725 700 Z " />
<glyph glyph-name="hcircumflex" unicode="&#x125;" horiz-adv-x="470" d="M254 918 L300 810 L336 810 L281 950 L236 950 L121 810 L159 810 L254 918 Z M296 425 C243 425 195 395 149 342 L234 740 L194 740 L36 0 L76 0 L135 276 C190 354 245 385 291 385 C351 385 390 344 374 270 L316 0 L356 0 L413 266 C434 362 378 425 296 425 L296 425 Z " />
<glyph glyph-name="Hbar" unicode="&#x126;" horiz-adv-x="760" d="M835 559 L735 559 L765 700 L725 700 L695 559 L215 559 L245 700 L205 700 L175 559 L75 559 L67 521 L167 521 L57 0 L97 0 L178 382 L658 382 L577 0 L617 0 L727 521 L827 521 L835 559 Z M666 420 L186 420 L207 521 L687 521 L666 420 Z " />
<glyph glyph-name="hbar" unicode="&#x127;" horiz-adv-x="470" d="M296 425 C243 425 195 395 149 342 L205 602 L304 602 L312 640 L213 640 L234 740 L194 740 L173 640 L92 640 L84 602 L165 602 L36 0 L76 0 L135 276 C190 354 245 385 291 385 C351 385 390 344 374 270 L316 0 L356 0 L413 266 C434 362 378 425 296 425 L296 425 Z " />
<glyph glyph-name="Itilde" unicode="&#x128;" horiz-adv-x="260" d="M156 836 C156 836 179 855 209 855 C258 855 273 829 322 829 C352 829 374 849 374 849 L381 885 C381 885 357 866 327 866 C278 866 263 892 214 892 C184 892 163 872 163 872 L156 836 Z M67 0 L107 0 L255 700 L215 700 L67 0 Z " />
<glyph glyph-name="itilde" unicode="&#x129;" horiz-adv-x="220" d="M85 596 C85 596 108 615 138 615 C187 615 202 589 251 589 C281 589 303 609 303 609 L310 645 C310 645 286 626 256 626 C207 626 192 652 143 652 C113 652 92 632 92 632 L85 596 Z M46 0 L86 0 L174 410 L134 410 L46 0 Z " />
<glyph glyph-name="Imacron" unicode="&#x12a;" horiz-adv-x="260" d="M157 841 L372 841 L380 879 L165 879 L157 841 Z M67 0 L107 0 L255 700 L215 700 L67 0 Z " />
<glyph glyph-name="imacron" unicode="&#x12b;" horiz-adv-x="220" d="M86 601 L301 601 L309 639 L94 639 L86 601 Z M46 0 L86 0 L174 410 L134 410 L46 0 Z " />
<glyph glyph-name="Ibreve" unicode="&#x12c;" horiz-adv-x="260" d="M162 910 C143 821 189 770 260 770 C330 770 378 821 397 910 L359 910 C344 842 309 806 263 806 C216 806 185 842 200 910 L162 910 Z M67 0 L107 0 L255 700 L215 700 L67 0 Z " />
<glyph glyph-name="ibreve" unicode="&#x12d;" horiz-adv-x="220" d="M91 670 C72 581 118 530 189 530 C259 530 307 581 326 670 L288 670 C273 602 238 566 192 566 C145 566 114 602 129 670 L91 670 Z M46 0 L86 0 L174 410 L134 410 L46 0 Z " />
<glyph glyph-name="Iogonek" unicode="&#x12e;" horiz-adv-x="260" d="M26 -189 C-11 -189 -39 -160 -31 -120 C-23 -80 17 -49 107 0 L255 700 L215 700 L69 8 C-6 -30 -57 -62 -68 -115 C-80 -172 -42 -225 23 -225 C86 -225 119 -178 119 -178 L97 -156 C97 -156 70 -189 26 -189 L26 -189 Z " />
<glyph glyph-name="iogonek" unicode="&#x12f;" horiz-adv-x="220" d="M194 635 C174 635 159 620 159 600 C159 580 174 565 194 565 C214 565 229 580 229 600 C229 620 214 635 194 635 L194 635 Z M87 0 L174 410 L134 410 L49 8 C-26 -30 -77 -62 -88 -115 C-100 -172 -62 -225 3 -225 C66 -225 99 -178 99 -178 L77 -156 C77 -156 50 -189 6 -189 C-31 -189 -59 -160 -51 -120 C-43 -80 -3 -49 87 0 L87 0 Z " />
<glyph glyph-name="Idotaccent" unicode="&#x130;" horiz-adv-x="260" d="M265 805 C285 805 300 820 300 840 C300 860 285 875 265 875 C245 875 230 860 230 840 C230 820 245 805 265 805 L265 805 Z M67 0 L107 0 L255 700 L215 700 L67 0 Z " />
<glyph glyph-name="dotlessi" unicode="&#x131;" horiz-adv-x="220" d="M46 0 L86 0 L174 410 L134 410 L46 0 Z " />
<glyph glyph-name="IJ" unicode="&#x132;" horiz-adv-x="733" d="M67 0 L107 0 L255 700 L215 700 L67 0 Z M421 -15 C525 -15 610 46 638 180 L748 700 L708 700 L599 185 C575 73 506 23 424 23 C359 23 318 56 295 101 L264 82 C290 29 343 -15 421 -15 L421 -15 Z " />
<glyph glyph-name="ij" unicode="&#x133;" horiz-adv-x="440" d="M194 565 C214 565 229 580 229 600 C229 620 214 635 194 635 C174 635 159 620 159 600 C159 580 174 565 194 565 L194 565 Z M414 565 C434 565 449 580 449 600 C449 620 434 635 414 635 C394 635 379 620 379 600 C379 580 394 565 414 565 L414 565 Z M47 0 L87 0 L174 410 L134 410 L47 0 Z M220 -220 L260 -220 L394 410 L354 410 L220 -220 Z " />
<glyph glyph-name="Jcircumflex" unicode="&#x134;" horiz-adv-x="473" d="M375 770 L413 770 L508 878 L554 770 L590 770 L535 910 L490 910 L375 770 Z M161 -15 C265 -15 350 46 378 180 L488 700 L448 700 L339 185 C315 73 246 23 164 23 C99 23 58 56 35 101 L4 82 C30 29 83 -15 161 -15 L161 -15 Z " />
<glyph glyph-name="jcircumflex" unicode="&#x135;" horiz-adv-x="220" d="M77 560 L115 560 L210 668 L256 560 L292 560 L237 700 L192 700 L77 560 Z M0 -220 L40 -220 L174 410 L134 410 L0 -220 Z " />
<glyph glyph-name="Kcommaaccent" unicode="&#x136;" horiz-adv-x="575" d="M640 700 L578 700 L179 390 L245 700 L205 700 L57 0 L97 0 L175 369 L459 0 L512 0 L219 376 L640 700 Z M180 -210 L219 -210 L270 -70 L228 -70 L180 -210 Z " />
<glyph glyph-name="kcommaaccent" unicode="&#x137;" horiz-adv-x="370" d="M394 410 L338 410 L124 223 L234 740 L194 740 L36 0 L76 0 L119 203 L265 0 L316 0 L162 211 L394 410 Z M84 -210 L123 -210 L174 -70 L132 -70 L84 -210 Z " />
<glyph glyph-name="Lacute" unicode="&#x139;" horiz-adv-x="490" d="M312 910 L270 910 L222 770 L261 770 L312 910 Z M105 38 L245 700 L205 700 L57 0 L427 0 L435 38 L105 38 Z " />
<glyph glyph-name="lacute" unicode="&#x13a;" horiz-adv-x="220" d="M221 810 L260 810 L311 950 L269 950 L221 810 Z M46 0 L86 0 L244 740 L204 740 L46 0 Z " />
<glyph glyph-name="Lcommaaccent" unicode="&#x13b;" horiz-adv-x="490" d="M105 38 L245 700 L205 700 L57 0 L427 0 L435 38 L105 38 Z M157 -210 L196 -210 L247 -70 L205 -70 L157 -210 Z " />
<glyph glyph-name="lcommaaccent" unicode="&#x13c;" horiz-adv-x="220" d="M46 0 L86 0 L244 740 L204 740 L46 0 Z M-19 -210 L20 -210 L71 -70 L29 -70 L-19 -210 Z " />
<glyph glyph-name="Lcaron" unicode="&#x13d;" horiz-adv-x="490" d="M245 700 L205 700 L57 0 L427 0 L435 38 L105 38 L245 700 Z M593 700 L531 490 L573 490 L638 700 L593 700 Z " />
<glyph glyph-name="lcaron" unicode="&#x13e;" horiz-adv-x="273" d="M46 0 L86 0 L244 740 L204 740 L46 0 Z M407 490 L449 490 L514 700 L469 700 L407 490 Z " />
<glyph glyph-name="Ldot" unicode="&#x13f;" horiz-adv-x="490" d="M245 700 L205 700 L57 0 L427 0 L435 38 L105 38 L245 700 Z M406 315 C426 315 441 330 441 350 C441 370 426 385 406 385 C386 385 371 370 371 350 C371 330 386 315 406 315 L406 315 Z " />
<glyph glyph-name="ldot" unicode="&#x140;" horiz-adv-x="260" d="M46 0 L86 0 L244 740 L204 740 L46 0 Z M286 315 C306 315 321 330 321 350 C321 370 306 385 286 385 C266 385 251 370 251 350 C251 330 266 315 286 315 L286 315 Z " />
<glyph glyph-name="Lslash" unicode="&#x141;" horiz-adv-x="490" d="M105 38 L166 327 L379 386 L387 424 L174 365 L245 700 L205 700 L132 353 L25 324 L17 286 L124 315 L57 0 L427 0 L435 38 L105 38 Z " />
<glyph glyph-name="lslash" unicode="&#x142;" horiz-adv-x="220" d="M262 404 L165 371 L244 740 L204 740 L122 357 L25 324 L17 286 L114 319 L46 0 L86 0 L157 333 L254 366 L262 404 Z " />
<glyph glyph-name="Nacute" unicode="&#x143;" horiz-adv-x="740" d="M472 770 L511 770 L562 910 L520 910 L472 770 Z M590 -30 L745 700 L705 700 L573 79 L212 730 L57 0 L97 0 L229 621 L590 -30 Z " />
<glyph glyph-name="nacute" unicode="&#x144;" horiz-adv-x="470" d="M377 670 L335 670 L287 530 L326 530 L377 670 Z M295 425 C244 425 195 396 150 344 L164 410 L124 410 L36 0 L76 0 L136 278 C190 355 245 385 292 385 C351 385 390 344 374 270 L316 0 L356 0 L413 265 C434 362 378 425 295 425 L295 425 Z " />
<glyph glyph-name="Ncommaaccent" unicode="&#x145;" horiz-adv-x="740" d="M590 -30 L745 700 L705 700 L573 79 L212 730 L57 0 L97 0 L229 621 L590 -30 Z M242 -210 L281 -210 L332 -70 L290 -70 L242 -210 Z " />
<glyph glyph-name="ncommaaccent" unicode="&#x146;" horiz-adv-x="470" d="M295 425 C244 425 195 396 150 344 L164 410 L124 410 L36 0 L76 0 L136 278 C190 355 245 385 292 385 C351 385 390 344 374 270 L316 0 L356 0 L413 265 C434 362 378 425 295 425 L295 425 Z M107 -210 L146 -210 L197 -70 L155 -70 L107 -210 Z " />
<glyph glyph-name="Ncaron" unicode="&#x147;" horiz-adv-x="740" d="M412 910 L467 770 L512 770 L627 910 L589 910 L497 802 L448 910 L412 910 Z M590 -30 L745 700 L705 700 L573 79 L212 730 L57 0 L97 0 L229 621 L590 -30 Z " />
<glyph glyph-name="ncaron" unicode="&#x148;" horiz-adv-x="470" d="M327 530 L442 670 L404 670 L312 562 L263 670 L227 670 L282 530 L327 530 Z M295 425 C244 425 195 396 150 344 L164 410 L124 410 L36 0 L76 0 L136 278 C190 355 245 385 292 385 C351 385 390 344 374 270 L316 0 L356 0 L413 265 C434 362 378 425 295 425 L295 425 Z " />
<glyph glyph-name="Eng" unicode="&#x14a;" horiz-adv-x="740" d="M56 0 L96 0 L229 621 L561 22 L544 -60 C524 -155 474 -197 405 -197 C359 -197 317 -172 297 -142 L268 -163 C293 -204 344 -235 403 -235 C494 -235 558 -181 583 -65 L745 700 L705 700 L573 79 L212 730 L56 0 Z " />
<glyph glyph-name="eng" unicode="&#x14b;" horiz-adv-x="470" d="M295 425 C244 425 195 396 150 344 L164 410 L124 410 L36 0 L76 0 L136 278 C190 355 245 385 292 385 C351 385 390 344 374 270 L269 -220 L309 -220 L413 265 C434 362 378 425 295 425 L295 425 Z " />
<glyph glyph-name="Omacron" unicode="&#x14c;" horiz-adv-x="830" d="M442 841 L657 841 L665 879 L450 879 L442 841 Z M424 -15 C609 -15 758 109 799 294 C848 517 693 715 468 715 C283 715 132 591 93 406 C46 183 199 -15 424 -15 L424 -15 Z M426 23 C223 23 89 197 132 400 C167 565 303 677 466 677 C669 677 801 504 760 300 C727 134 589 23 426 23 L426 23 Z " />
<glyph glyph-name="omacron" unicode="&#x14d;" horiz-adv-x="520" d="M236 601 L451 601 L459 639 L244 639 L236 601 Z M248 -15 C355 -15 449 58 473 170 C501 302 409 425 272 425 C165 425 71 352 47 240 C19 108 111 -15 248 -15 L248 -15 Z M251 23 C136 23 63 125 86 235 C105 325 184 387 269 387 C384 387 457 285 434 175 C415 85 336 23 251 23 L251 23 Z " />
<glyph glyph-name="Obreve" unicode="&#x14e;" horiz-adv-x="830" d="M447 910 C428 821 474 770 545 770 C615 770 663 821 682 910 L644 910 C629 842 594 806 548 806 C501 806 470 842 485 910 L447 910 Z M424 -15 C609 -15 758 109 799 294 C848 517 693 715 468 715 C283 715 132 591 93 406 C46 183 199 -15 424 -15 L424 -15 Z M426 23 C223 23 89 197 132 400 C167 565 303 677 466 677 C669 677 801 504 760 300 C727 134 589 23 426 23 L426 23 Z " />
<glyph glyph-name="obreve" unicode="&#x14f;" horiz-adv-x="520" d="M241 670 C222 581 268 530 339 530 C409 530 457 581 476 670 L438 670 C423 602 388 566 342 566 C295 566 264 602 279 670 L241 670 Z M248 -15 C355 -15 449 58 473 170 C501 302 409 425 272 425 C165 425 71 352 47 240 C19 108 111 -15 248 -15 L248 -15 Z M251 23 C136 23 63 125 86 235 C105 325 184 387 269 387 C384 387 457 285 434 175 C415 85 336 23 251 23 L251 23 Z " />
<glyph glyph-name="Ohungarumlaut" unicode="&#x150;" horiz-adv-x="830" d="M457 770 L496 770 L547 910 L505 910 L457 770 Z M577 770 L616 770 L667 910 L625 910 L577 770 Z M424 -15 C609 -15 758 109 799 294 C848 517 693 715 468 715 C283 715 132 591 93 406 C46 183 199 -15 424 -15 L424 -15 Z M426 23 C223 23 89 197 132 400 C167 565 303 677 466 677 C669 677 801 504 760 300 C727 134 589 23 426 23 L426 23 Z " />
<glyph glyph-name="ohungarumlaut" unicode="&#x151;" horiz-adv-x="520" d="M251 530 L290 530 L341 670 L299 670 L251 530 Z M371 530 L410 530 L461 670 L419 670 L371 530 Z M248 -15 C355 -15 449 58 473 170 C501 302 409 425 272 425 C165 425 71 352 47 240 C19 108 111 -15 248 -15 L248 -15 Z M251 23 C136 23 63 125 86 235 C105 325 184 387 269 387 C384 387 457 285 434 175 C415 85 336 23 251 23 L251 23 Z " />
<glyph glyph-name="OE" unicode="&#x152;" horiz-adv-x="1120" d="M1145 700 L572 700 C539 710 505 715 468 715 C283 715 132 591 93 406 C46 183 199 -15 424 -15 C462 -15 498 -10 532 0 L1027 0 L1035 38 L620 38 C709 91 774 181 799 294 C805 324 808 353 808 381 L1102 381 L1110 419 L806 419 C793 521 738 609 655 662 L1137 662 L1145 700 Z M760 300 C727 134 589 23 426 23 C223 23 89 197 132 400 C167 565 303 677 466 677 C669 677 801 504 760 300 L760 300 Z " />
<glyph glyph-name="oe" unicode="&#x153;" horiz-adv-x="905" d="M669 425 C582 425 503 372 467 287 C440 366 367 425 272 425 C165 425 71 352 47 240 C19 108 111 -15 248 -15 C339 -15 421 38 458 124 C485 44 558 -15 653 -15 C729 -15 793 20 839 84 L807 102 C771 54 718 23 656 23 C552 23 482 107 487 205 L864 205 C864 205 866 209 867 215 C883 309 806 425 669 425 L669 425 Z M434 175 C415 85 336 23 251 23 C136 23 63 125 86 235 C105 325 184 387 269 387 C384 387 457 285 434 175 L434 175 Z M666 387 C768 387 828 317 829 243 L493 243 C515 329 588 387 666 387 L666 387 Z " />
<glyph glyph-name="Racute" unicode="&#x154;" horiz-adv-x="530" d="M457 910 L415 910 L367 770 L406 770 L457 910 Z M511 490 C534 598 458 700 325 700 L205 700 L57 0 L97 0 L165 320 L236 320 L438 0 L486 0 L283 320 L285 320 C398 320 488 382 511 490 L511 490 Z M237 662 L322 662 C433 662 490 581 472 495 C454 409 379 358 288 358 L173 358 L237 662 Z " />
<glyph glyph-name="racute" unicode="&#x155;" horiz-adv-x="335" d="M340 670 L298 670 L250 530 L289 530 L340 670 Z M272 425 C229 425 191 400 152 351 L164 410 L124 410 L37 0 L77 0 L137 280 C189 360 233 387 269 387 C301 387 319 371 337 347 L370 370 C350 399 319 425 272 425 L272 425 Z " />
<glyph glyph-name="Rcommaaccent" unicode="&#x156;" horiz-adv-x="530" d="M511 490 C534 598 458 700 325 700 L205 700 L57 0 L97 0 L165 320 L236 320 L438 0 L486 0 L283 320 L285 320 C398 320 488 382 511 490 L511 490 Z M237 662 L322 662 C433 662 490 581 472 495 C454 409 379 358 288 358 L173 358 L237 662 Z M171 -210 L210 -210 L261 -70 L219 -70 L171 -210 Z " />
<glyph glyph-name="rcommaaccent" unicode="&#x157;" horiz-adv-x="335" d="M272 425 C229 425 191 400 152 351 L164 410 L124 410 L37 0 L77 0 L137 280 C189 360 233 387 269 387 C301 387 319 371 337 347 L370 370 C350 399 319 425 272 425 L272 425 Z M-28 -210 L11 -210 L62 -70 L20 -70 L-28 -210 Z " />
<glyph glyph-name="Rcaron" unicode="&#x158;" horiz-adv-x="530" d="M407 770 L522 910 L484 910 L392 802 L343 910 L307 910 L362 770 L407 770 Z M325 700 L205 700 L57 0 L97 0 L165 320 L236 320 L438 0 L486 0 L283 320 L285 320 C398 320 488 382 511 490 C534 598 458 700 325 700 L325 700 Z M472 495 C454 409 379 358 288 358 L173 358 L237 662 L322 662 C433 662 490 581 472 495 L472 495 Z " />
<glyph glyph-name="rcaron" unicode="&#x159;" horiz-adv-x="335" d="M290 530 L405 670 L367 670 L275 562 L226 670 L190 670 L245 530 L290 530 Z M272 425 C229 425 191 400 152 351 L164 410 L124 410 L37 0 L77 0 L137 280 C189 360 233 387 269 387 C301 387 319 371 337 347 L370 370 C350 399 319 425 272 425 L272 425 Z " />
<glyph glyph-name="Sacute" unicode="&#x15a;" horiz-adv-x="515" d="M373 770 L412 770 L463 910 L421 910 L373 770 Z M238 -15 C349 -15 432 48 452 142 C477 258 409 336 317 389 C232 438 177 499 194 577 C208 643 271 677 338 677 C461 677 503 597 503 597 L535 617 C535 617 483 715 340 715 C250 715 173 670 155 582 C134 480 203 409 294 357 C383 306 433 239 413 147 C397 75 329 23 240 23 C106 23 69 147 69 147 L34 130 C34 130 79 -15 238 -15 L238 -15 Z " />
<glyph glyph-name="sacute" unicode="&#x15b;" horiz-adv-x="341" d="M233 530 L272 530 L323 670 L281 670 L233 530 Z M143 -15 C208 -15 264 27 276 86 C289 151 253 199 186 232 C127 261 117 301 127 334 C137 368 170 387 212 387 C269 387 298 344 298 344 L327 364 C327 364 295 425 209 425 C151 425 101 391 88 337 C75 281 103 231 172 195 C228 166 246 131 237 89 C229 51 193 23 148 23 C67 23 46 93 46 93 L13 79 C13 79 36 -15 143 -15 L143 -15 Z " />
<glyph glyph-name="Scedilla" unicode="&#x15e;" horiz-adv-x="515" d="M340 715 C250 715 173 670 155 582 C134 480 203 409 294 357 C383 306 433 239 413 147 C397 75 329 23 240 23 C106 23 69 147 69 147 L34 130 C34 130 71 10 197 -12 L142 -92 L162 -103 C162 -103 179 -91 196 -91 C229 -91 250 -112 244 -140 C237 -171 206 -184 177 -184 C131 -184 110 -161 110 -161 L86 -188 C86 -188 119 -220 175 -220 C232 -220 272 -188 281 -145 C290 -101 262 -58 202 -57 L231 -15 L238 -15 C349 -15 432 48 452 142 C477 258 409 336 317 389 C232 438 177 499 194 577 C208 643 271 677 338 677 C461 677 503 597 503 597 L535 617 C535 617 483 715 340 715 L340 715 Z " />
<glyph glyph-name="scedilla" unicode="&#x15f;" horiz-adv-x="341" d="M209 425 C151 425 101 391 88 337 C75 281 103 231 172 195 C228 166 246 131 237 89 C229 51 193 23 148 23 C67 23 46 93 46 93 L13 79 C13 79 31 4 111 -12 L56 -92 L76 -103 C76 -103 93 -91 110 -91 C143 -91 164 -112 158 -140 C151 -171 120 -184 91 -184 C45 -184 24 -161 24 -161 L0 -188 C0 -188 33 -220 89 -220 C146 -220 186 -188 195 -145 C204 -101 176 -58 116 -57 L145 -15 C209 -14 264 28 276 86 C289 151 253 199 186 232 C127 261 117 301 127 334 C137 368 170 387 212 387 C269 387 298 344 298 344 L327 364 C327 364 295 425 209 425 L209 425 Z " />
<glyph glyph-name="Scaron" unicode="&#x160;" horiz-adv-x="515" d="M313 910 L368 770 L413 770 L528 910 L490 910 L398 802 L349 910 L313 910 Z M238 -15 C349 -15 432 48 452 142 C477 258 409 336 317 389 C232 438 177 499 194 577 C208 643 271 677 338 677 C461 677 503 597 503 597 L535 617 C535 617 483 715 340 715 C250 715 173 670 155 582 C134 480 203 409 294 357 C383 306 433 239 413 147 C397 75 329 23 240 23 C106 23 69 147 69 147 L34 130 C34 130 79 -15 238 -15 L238 -15 Z " />
<glyph glyph-name="scaron" unicode="&#x161;" horiz-adv-x="341" d="M173 670 L228 530 L273 530 L388 670 L350 670 L258 562 L209 670 L173 670 Z M143 -15 C208 -15 264 27 276 86 C289 151 253 199 186 232 C127 261 117 301 127 334 C137 368 170 387 212 387 C269 387 298 344 298 344 L327 364 C327 364 295 425 209 425 C151 425 101 391 88 337 C75 281 103 231 172 195 C228 166 246 131 237 89 C229 51 193 23 148 23 C67 23 46 93 46 93 L13 79 C13 79 36 -15 143 -15 L143 -15 Z " />
<glyph glyph-name="uni0162" unicode="&#x162;" horiz-adv-x="490" d="M222 0 L362 662 L567 662 L575 700 L125 700 L117 662 L322 662 L182 0 L185 0 L122 -92 L142 -103 C142 -103 159 -91 176 -91 C209 -91 230 -112 224 -140 C217 -171 186 -184 157 -184 C111 -184 90 -161 90 -161 L66 -188 C66 -188 99 -220 155 -220 C212 -220 252 -188 261 -145 C270 -101 242 -58 182 -57 L221 0 L222 0 Z " />
<glyph glyph-name="uni0163" unicode="&#x163;" horiz-adv-x="340" d="M137 0 L216 372 L346 372 L354 410 L224 410 L271 630 L231 630 L184 410 L74 410 L66 372 L176 372 L97 0 L100 0 L37 -92 L57 -103 C57 -103 74 -91 91 -91 C124 -91 145 -112 139 -140 C132 -171 101 -184 72 -184 C26 -184 5 -161 5 -161 L-19 -188 C-19 -188 14 -220 70 -220 C127 -220 167 -188 176 -145 C185 -101 157 -58 97 -57 L136 0 L137 0 Z " />
<glyph glyph-name="Tcaron" unicode="&#x164;" horiz-adv-x="490" d="M387 770 L502 910 L464 910 L372 802 L323 910 L287 910 L342 770 L387 770 Z M575 700 L125 700 L117 662 L322 662 L182 0 L222 0 L362 662 L567 662 L575 700 Z " />
<glyph glyph-name="tcaron" unicode="&#x165;" horiz-adv-x="340" d="M415 700 L370 700 L308 490 L350 490 L415 700 Z M271 630 L231 630 L184 410 L74 410 L66 372 L176 372 L97 0 L137 0 L216 372 L346 372 L354 410 L224 410 L271 630 Z " />
<glyph glyph-name="Tbar" unicode="&#x166;" horiz-adv-x="490" d="M567 662 L575 700 L125 700 L117 662 L322 662 L261 374 L106 374 L98 336 L253 336 L182 0 L222 0 L293 336 L448 336 L456 374 L301 374 L362 662 L567 662 Z " />
<glyph glyph-name="tbar" unicode="&#x167;" horiz-adv-x="340" d="M346 372 L354 410 L224 410 L271 630 L231 630 L184 410 L74 410 L66 372 L176 372 L146 229 L35 229 L27 191 L138 191 L97 0 L137 0 L178 191 L305 191 L313 229 L186 229 L216 372 L346 372 Z " />
<glyph glyph-name="Utilde" unicode="&#x168;" horiz-adv-x="660" d="M357 836 C357 836 380 855 410 855 C459 855 474 829 523 829 C553 829 575 849 575 849 L582 885 C582 885 558 866 528 866 C479 866 464 892 415 892 C385 892 364 872 364 872 L357 836 Z M309 -15 C437 -15 542 71 574 220 L676 700 L636 700 L535 225 C508 99 418 23 312 23 C186 23 112 119 143 265 L236 700 L196 700 L104 270 C68 102 161 -15 309 -15 L309 -15 Z " />
<glyph glyph-name="utilde" unicode="&#x169;" horiz-adv-x="470" d="M366 539 C396 539 418 559 418 559 L425 595 C425 595 401 576 371 576 C322 576 307 602 258 602 C228 602 207 582 207 582 L200 546 C200 546 223 565 253 565 C302 565 317 539 366 539 L366 539 Z M394 410 L334 132 C280 55 225 25 178 25 C119 25 80 66 96 140 L154 410 L114 410 L57 145 C36 48 92 -15 175 -15 C226 -15 275 14 320 66 L306 0 L346 0 L434 410 L394 410 Z " />
<glyph glyph-name="Umacron" unicode="&#x16a;" horiz-adv-x="660" d="M358 841 L573 841 L581 879 L366 879 L358 841 Z M309 -15 C437 -15 542 71 574 220 L676 700 L636 700 L535 225 C508 99 418 23 312 23 C186 23 112 119 143 265 L236 700 L196 700 L104 270 C68 102 161 -15 309 -15 L309 -15 Z " />
<glyph glyph-name="umacron" unicode="&#x16b;" horiz-adv-x="470" d="M424 589 L209 589 L201 551 L416 551 L424 589 Z M394 410 L334 132 C280 55 225 25 178 25 C119 25 80 66 96 140 L154 410 L114 410 L57 145 C36 48 92 -15 175 -15 C226 -15 275 14 320 66 L306 0 L346 0 L434 410 L394 410 Z " />
<glyph glyph-name="Ubreve" unicode="&#x16c;" horiz-adv-x="660" d="M363 910 C344 821 390 770 461 770 C531 770 579 821 598 910 L560 910 C545 842 510 806 464 806 C417 806 386 842 401 910 L363 910 Z M309 -15 C437 -15 542 71 574 220 L676 700 L636 700 L535 225 C508 99 418 23 312 23 C186 23 112 119 143 265 L236 700 L196 700 L104 270 C68 102 161 -15 309 -15 L309 -15 Z " />
<glyph glyph-name="ubreve" unicode="&#x16d;" horiz-adv-x="470" d="M304 480 C374 480 422 531 441 620 L403 620 C388 552 353 516 307 516 C260 516 229 552 244 620 L206 620 C187 531 233 480 304 480 L304 480 Z M334 132 C280 55 225 25 178 25 C119 25 80 66 96 140 L154 410 L114 410 L57 145 C36 48 92 -15 175 -15 C226 -15 275 14 320 66 L306 0 L346 0 L434 410 L394 410 L334 132 Z " />
<glyph glyph-name="Uring" unicode="&#x16e;" horiz-adv-x="660" d="M460 715 C516 715 560 759 560 815 C560 871 516 915 460 915 C404 915 360 871 360 815 C360 759 404 715 460 715 L460 715 Z M460 750 C424 750 395 779 395 815 C395 851 424 880 460 880 C496 880 525 851 525 815 C525 779 496 750 460 750 L460 750 Z M309 -15 C437 -15 542 71 574 220 L676 700 L636 700 L535 225 C508 99 418 23 312 23 C186 23 112 119 143 265 L236 700 L196 700 L104 270 C68 102 161 -15 309 -15 L309 -15 Z " />
<glyph glyph-name="uring" unicode="&#x16f;" horiz-adv-x="470" d="M303 425 C359 425 403 469 403 525 C403 581 359 625 303 625 C247 625 203 581 203 525 C203 469 247 425 303 425 L303 425 Z M303 590 C339 590 368 561 368 525 C368 489 339 460 303 460 C267 460 238 489 238 525 C238 561 267 590 303 590 L303 590 Z M394 410 L334 132 C280 55 225 25 178 25 C119 25 80 66 96 140 L154 410 L114 410 L57 145 C36 48 92 -15 175 -15 C226 -15 275 14 320 66 L306 0 L346 0 L434 410 L394 410 Z " />
<glyph glyph-name="Uhungarumlaut" unicode="&#x170;" horiz-adv-x="660" d="M373 770 L412 770 L463 910 L421 910 L373 770 Z M493 770 L532 770 L583 910 L541 910 L493 770 Z M309 -15 C437 -15 542 71 574 220 L676 700 L636 700 L535 225 C508 99 418 23 312 23 C186 23 112 119 143 265 L236 700 L196 700 L104 270 C68 102 161 -15 309 -15 L309 -15 Z " />
<glyph glyph-name="uhungarumlaut" unicode="&#x171;" horiz-adv-x="470" d="M306 620 L264 620 L216 480 L255 480 L306 620 Z M426 620 L384 620 L336 480 L375 480 L426 620 Z M394 410 L334 132 C280 55 225 25 178 25 C119 25 80 66 96 140 L154 410 L114 410 L57 145 C36 48 92 -15 175 -15 C226 -15 275 14 320 66 L306 0 L346 0 L434 410 L394 410 Z " />
<glyph glyph-name="Uogonek" unicode="&#x172;" horiz-adv-x="660" d="M636 700 L535 225 C508 99 418 23 312 23 C186 23 112 119 143 265 L236 700 L196 700 L104 270 C71 114 148 2 278 -13 C225 -43 191 -72 182 -115 C170 -172 208 -225 273 -225 C336 -225 369 -178 369 -178 L347 -156 C347 -156 320 -189 276 -189 C239 -189 211 -160 219 -120 C226 -84 259 -55 332 -14 C449 -5 544 80 574 220 L676 700 L636 700 Z " />
<glyph glyph-name="uogonek" unicode="&#x173;" horiz-adv-x="470" d="M265 -189 C228 -189 200 -160 208 -120 C216 -80 256 -49 346 0 L434 410 L394 410 L334 132 C280 55 225 25 178 25 C119 25 80 66 96 140 L154 410 L114 410 L57 145 C36 48 92 -15 175 -15 C226 -15 275 14 320 66 L308 8 C233 -30 182 -62 171 -115 C159 -172 197 -225 262 -225 C325 -225 358 -178 358 -178 L336 -156 C336 -156 309 -189 265 -189 L265 -189 Z " />
<glyph glyph-name="Wcircumflex" unicode="&#x174;" horiz-adv-x="1040" d="M665 878 L711 770 L747 770 L692 910 L647 910 L532 770 L570 770 L665 878 Z M1125 700 L1080 700 L717 82 L625 710 L266 81 L166 700 L125 700 L244 -30 L602 594 L694 -30 L1125 700 Z " />
<glyph glyph-name="wcircumflex" unicode="&#x175;" horiz-adv-x="630" d="M396 588 L442 480 L478 480 L423 620 L378 620 L263 480 L301 480 L396 588 Z M664 410 L618 410 L415 78 L358 420 L155 78 L94 410 L54 410 L135 -30 L337 311 L395 -30 L664 410 Z " />
<glyph glyph-name="Ycircumflex" unicode="&#x176;" horiz-adv-x="580" d="M302 770 L340 770 L435 878 L481 770 L517 770 L462 910 L417 910 L302 770 Z M227 0 L267 0 L343 360 L675 700 L622 700 L328 397 L162 700 L115 700 L303 360 L227 0 Z " />
<glyph glyph-name="ycircumflex" unicode="&#x177;" horiz-adv-x="420" d="M291 588 L337 480 L373 480 L318 620 L273 620 L158 480 L196 480 L291 588 Z M408 410 L177 60 L94 410 L54 410 L147 15 L-9 -220 L34 -220 L454 410 L408 410 Z " />
<glyph glyph-name="Ydieresis" unicode="&#x178;" horiz-adv-x="580" d="M350 805 C370 805 385 820 385 840 C385 860 370 875 350 875 C330 875 315 860 315 840 C315 820 330 805 350 805 L350 805 Z M500 805 C520 805 535 820 535 840 C535 860 520 875 500 875 C480 875 465 860 465 840 C465 820 480 805 500 805 L500 805 Z M227 0 L267 0 L343 360 L675 700 L622 700 L328 397 L162 700 L115 700 L303 360 L227 0 Z " />
<glyph glyph-name="Zacute" unicode="&#x179;" horiz-adv-x="650" d="M427 770 L466 770 L517 910 L475 910 L427 770 Z M7 0 L557 0 L565 38 L95 38 L705 700 L155 700 L147 662 L617 662 L7 0 Z " />
<glyph glyph-name="zacute" unicode="&#x17a;" horiz-adv-x="380" d="M231 480 L270 480 L321 620 L279 620 L231 480 Z M-14 0 L306 0 L315 38 L71 38 L394 410 L74 410 L65 372 L309 372 L-14 0 Z " />
<glyph glyph-name="Zdotaccent" unicode="&#x17b;" horiz-adv-x="650" d="M460 805 C480 805 495 820 495 840 C495 860 480 875 460 875 C440 875 425 860 425 840 C425 820 440 805 460 805 L460 805 Z M7 0 L557 0 L565 38 L95 38 L705 700 L155 700 L147 662 L617 662 L7 0 Z " />
<glyph glyph-name="zdotaccent" unicode="&#x17c;" horiz-adv-x="380" d="M264 515 C284 515 299 530 299 550 C299 570 284 585 264 585 C244 585 229 570 229 550 C229 530 244 515 264 515 L264 515 Z M-14 0 L306 0 L315 38 L71 38 L394 410 L74 410 L65 372 L309 372 L-14 0 Z " />
<glyph glyph-name="Zcaron" unicode="&#x17d;" horiz-adv-x="650" d="M367 910 L422 770 L467 770 L582 910 L544 910 L452 802 L403 910 L367 910 Z M7 0 L557 0 L565 38 L95 38 L705 700 L155 700 L147 662 L617 662 L7 0 Z " />
<glyph glyph-name="zcaron" unicode="&#x17e;" horiz-adv-x="380" d="M171 620 L226 480 L271 480 L386 620 L348 620 L256 512 L207 620 L171 620 Z M-14 0 L306 0 L315 38 L71 38 L394 410 L74 410 L65 372 L309 372 L-14 0 Z " />
<glyph glyph-name="florin" unicode="&#x192;" horiz-adv-x="600" d="M516 715 C392 715 342 580 274 269 L97 269 L89 231 L266 231 C202 -67 160 -197 61 -197 C11 -197 -12 -161 -25 -91 L-65 -100 C-51 -187 -11 -235 60 -235 C187 -235 236 -95 306 231 L483 231 L491 269 L314 269 C376 552 418 677 515 677 C564 677 587 641 600 571 L640 580 C626 667 586 715 516 715 L516 715 Z " />
<glyph glyph-name="Aringacute" unicode="&#x1fa;" horiz-adv-x="720" d="M634 0 L676 0 L490 700 C546 701 589 744 589 800 C589 839 568 872 536 888 L573 970 L533 970 L503 899 C499 900 494 900 489 900 C433 900 389 856 389 800 C389 753 420 714 463 703 L-24 0 L22 0 L228 299 L555 299 L634 0 Z M424 800 C424 836 453 865 489 865 C525 865 554 836 554 800 C554 764 525 735 489 735 C453 735 424 764 424 800 L424 800 Z M254 337 L464 642 L545 337 L254 337 Z " />
<glyph glyph-name="aringacute" unicode="&#x1fb;" horiz-adv-x="560" d="M484 410 L467 335 C454 352 430 379 391 398 C434 410 465 448 465 495 C465 535 442 569 409 585 L443 665 L401 665 L373 595 L365 595 C309 595 265 551 265 495 C265 467 276 442 294 424 C287 425 279 425 272 425 C165 425 71 352 47 240 C19 108 111 -15 248 -15 C328 -15 378 18 407 47 L396 0 L436 0 L524 410 L484 410 Z M365 560 C401 560 430 531 430 495 C430 459 401 430 365 430 C329 430 300 459 300 495 C300 531 329 560 365 560 L365 560 Z M251 23 C136 23 63 125 86 235 C105 325 184 387 269 387 C376 387 436 325 459 294 L417 95 C384 63 327 23 251 23 L251 23 Z " />
<glyph glyph-name="AEacute" unicode="&#x1fc;" horiz-adv-x="940" d="M799 910 L757 910 L709 770 L748 770 L799 910 Z M956 662 L964 700 L461 700 L-24 0 L22 0 L228 299 L555 299 L634 0 L846 0 L854 38 L666 38 L583 351 L915 351 L923 389 L573 389 L501 660 L956 662 Z M254 337 L464 642 L545 337 L254 337 Z " />
<glyph glyph-name="aeacute" unicode="&#x1fd;" horiz-adv-x="905" d="M601 670 L559 670 L511 530 L550 530 L601 670 Z M669 425 C607 425 552 400 513 358 L524 410 L484 410 L467 335 C444 366 385 425 272 425 C165 425 71 352 47 240 C19 108 111 -15 248 -15 C328 -15 378 18 407 47 L396 0 L436 0 L452 77 L461 117 C488 40 558 -15 653 -15 C729 -15 793 20 839 84 L807 102 C771 54 718 23 656 23 C548 23 478 107 483 205 L864 205 C864 205 866 209 867 215 C883 309 806 425 669 425 L669 425 Z M251 23 C136 23 63 125 86 235 C105 325 184 387 269 387 C376 387 436 325 459 294 L417 95 C384 63 327 23 251 23 L251 23 Z M666 387 C768 387 828 317 829 243 L489 243 C511 329 585 387 666 387 L666 387 Z " />
<glyph glyph-name="Oslashacute" unicode="&#x1fe;" horiz-adv-x="830" d="M607 910 L565 910 L517 770 L556 770 L607 910 Z M884 700 L827 700 L719 608 C658 674 570 715 468 715 C283 715 132 591 93 406 C70 299 94 198 149 122 L6 0 L63 0 L172 93 C233 27 321 -15 424 -15 C609 -15 758 109 799 294 C823 401 799 503 743 580 L884 700 Z M132 400 C167 565 303 677 466 677 C558 677 636 641 690 583 L178 147 C131 215 112 304 132 400 L132 400 Z M760 300 C727 134 589 23 426 23 C333 23 255 59 201 118 L713 554 C760 486 779 397 760 300 L760 300 Z " />
<glyph glyph-name="oslashacute" unicode="&#x1ff;" horiz-adv-x="520" d="M401 670 L359 670 L311 530 L350 530 L401 670 Z M524 410 L469 410 L418 366 C382 402 331 425 272 425 C165 425 71 352 47 240 C34 178 47 118 79 72 L-4 0 L51 0 L102 44 C138 8 189 -15 248 -15 C355 -15 449 58 473 170 C486 232 473 292 441 338 L524 410 Z M86 235 C105 325 184 387 269 387 C317 387 358 369 388 340 L109 98 C85 136 75 185 86 235 L86 235 Z M434 175 C415 85 336 23 251 23 C203 23 162 41 132 70 L411 312 C435 274 445 225 434 175 L434 175 Z " />
<glyph glyph-name="Scommaaccent" unicode="&#x218;" horiz-adv-x="515" d="M238 -15 C349 -15 432 48 452 142 C477 258 409 336 317 389 C232 438 177 499 194 577 C208 643 271 677 338 677 C461 677 503 597 503 597 L535 617 C535 617 483 715 340 715 C250 715 173 670 155 582 C134 480 203 409 294 357 C383 306 433 239 413 147 C397 75 329 23 240 23 C106 23 69 147 69 147 L34 130 C34 130 79 -15 238 -15 L238 -15 Z M137 -210 L176 -210 L227 -70 L185 -70 L137 -210 Z " />
<glyph glyph-name="scommaaccent" unicode="&#x219;" horiz-adv-x="341" d="M143 -15 C208 -15 264 27 276 86 C289 151 253 199 186 232 C127 261 117 301 127 334 C137 368 170 387 212 387 C269 387 298 344 298 344 L327 364 C327 364 295 425 209 425 C151 425 101 391 88 337 C75 281 103 231 172 195 C228 166 246 131 237 89 C229 51 193 23 148 23 C67 23 46 93 46 93 L13 79 C13 79 36 -15 143 -15 L143 -15 Z M51 -210 L90 -210 L141 -70 L99 -70 L51 -210 Z " />
<glyph glyph-name="uni021A" unicode="&#x21a;" horiz-adv-x="490" d="M575 700 L125 700 L117 662 L322 662 L182 0 L222 0 L362 662 L567 662 L575 700 Z M117 -210 L156 -210 L207 -70 L165 -70 L117 -210 Z " />
<glyph glyph-name="uni021B" unicode="&#x21b;" horiz-adv-x="340" d="M354 410 L224 410 L271 630 L231 630 L184 410 L74 410 L66 372 L176 372 L97 0 L137 0 L216 372 L346 372 L354 410 Z M32 -210 L71 -210 L122 -70 L80 -70 L32 -210 Z " />
<glyph glyph-name="circumflex" unicode="&#x2c6;" horiz-adv-x="375" d="M155 560 L193 560 L288 668 L334 560 L370 560 L315 700 L270 700 L155 560 Z " />
<glyph glyph-name="caron" unicode="&#x2c7;" horiz-adv-x="375" d="M185 700 L240 560 L285 560 L400 700 L362 700 L270 592 L221 700 L185 700 Z " />
<glyph glyph-name="breve" unicode="&#x2d8;" horiz-adv-x="395" d="M185 700 C166 611 212 560 283 560 C353 560 401 611 420 700 L382 700 C367 632 332 596 286 596 C239 596 208 632 223 700 L185 700 Z " />
<glyph glyph-name="dotaccent" unicode="&#x2d9;" horiz-adv-x="232" d="M206 595 C226 595 241 610 241 630 C241 650 226 665 206 665 C186 665 171 650 171 630 C171 610 186 595 206 595 L206 595 Z " />
<glyph glyph-name="ring" unicode="&#x2da;" horiz-adv-x="364" d="M267 505 C323 505 367 549 367 605 C367 661 323 705 267 705 C211 705 167 661 167 605 C167 549 211 505 267 505 L267 505 Z M267 540 C231 540 202 569 202 605 C202 641 231 670 267 670 C303 670 332 641 332 605 C332 569 303 540 267 540 L267 540 Z " />
<glyph glyph-name="ogonek" unicode="&#x2db;" horiz-adv-x="360" d="M103 -225 C166 -225 199 -178 199 -178 L177 -156 C177 -156 150 -189 106 -189 C69 -189 41 -160 49 -120 C57 -80 97 -49 187 0 L152 10 C75 -29 23 -61 12 -115 C0 -172 38 -225 103 -225 L103 -225 Z " />
<glyph glyph-name="tilde" unicode="&#x2dc;" horiz-adv-x="376" d="M170 626 C170 626 193 645 223 645 C272 645 287 619 336 619 C366 619 388 639 388 639 L395 675 C395 675 371 656 341 656 C292 656 277 682 228 682 C198 682 177 662 177 662 L170 626 Z " />
<glyph glyph-name="hungarumlaut" unicode="&#x2dd;" horiz-adv-x="340" d="M155 560 L194 560 L245 700 L203 700 L155 560 Z M275 560 L314 560 L365 700 L323 700 L275 560 Z " />
<glyph glyph-name="gravecomb" unicode="&#x300;" d="M-5 560 L3 700 L-35 700 L-40 560 L-5 560 Z " />
<glyph glyph-name="acutecomb" unicode="&#x301;" d="M-65 560 L-26 560 L25 700 L-17 700 L-65 560 Z " />
<glyph glyph-name="uni0302" unicode="&#x302;" d="M-220 560 L-182 560 L-87 668 L-41 560 L-5 560 L-60 700 L-105 700 L-220 560 Z " />
<glyph glyph-name="tildecomb" unicode="&#x303;" d="M-185 626 C-185 626 -162 645 -132 645 C-83 645 -68 619 -19 619 C11 619 33 639 33 639 L40 675 C40 675 16 656 -14 656 C-63 656 -78 682 -127 682 C-157 682 -178 662 -178 662 L-185 626 Z " />
<glyph glyph-name="uni0304" unicode="&#x304;" d="M-184 631 L31 631 L39 669 L-176 669 L-184 631 Z " />
<glyph glyph-name="uni0306" unicode="&#x306;" d="M-210 700 C-229 611 -183 560 -112 560 C-42 560 6 611 25 700 L-13 700 C-28 632 -63 596 -109 596 C-156 596 -187 632 -172 700 L-210 700 Z " />
<glyph glyph-name="uni0307" unicode="&#x307;" d="M-25 595 C-5 595 10 610 10 630 C10 650 -5 665 -25 665 C-45 665 -60 650 -60 630 C-60 610 -45 595 -25 595 L-25 595 Z " />
<glyph glyph-name="uni0308" unicode="&#x308;" d="M-175 595 C-155 595 -140 610 -140 630 C-140 650 -155 665 -175 665 C-195 665 -210 650 -210 630 C-210 610 -195 595 -175 595 L-175 595 Z M-25 595 C-5 595 10 610 10 630 C10 650 -5 665 -25 665 C-45 665 -60 650 -60 630 C-60 610 -45 595 -25 595 L-25 595 Z " />
<glyph glyph-name="uni030A" unicode="&#x30a;" d="M-95 505 C-39 505 5 549 5 605 C5 661 -39 705 -95 705 C-151 705 -195 661 -195 605 C-195 549 -151 505 -95 505 L-95 505 Z M-95 540 C-131 540 -160 569 -160 605 C-160 641 -131 670 -95 670 C-59 670 -30 641 -30 605 C-30 569 -59 540 -95 540 L-95 540 Z " />
<glyph glyph-name="uni030B" unicode="&#x30b;" d="M-185 560 L-146 560 L-95 700 L-137 700 L-185 560 Z M-65 560 L-26 560 L25 700 L-17 700 L-65 560 Z " />
<glyph glyph-name="uni030C" unicode="&#x30c;" d="M-190 700 L-135 560 L-90 560 L25 700 L-13 700 L-105 592 L-154 700 L-190 700 Z " />
<glyph glyph-name="uni0312" unicode="&#x312;" d="M25 700 L-14 700 L-65 560 L-23 560 L25 700 Z " />
<glyph glyph-name="uni0326" unicode="&#x326;" d="M-230 -220 L-191 -220 L-140 -80 L-182 -80 L-230 -220 Z " />
<glyph glyph-name="uni0327" unicode="&#x327;" d="M-233 -57 L-194 0 L-230 0 L-293 -92 L-273 -103 C-273 -103 -256 -91 -239 -91 C-206 -91 -185 -112 -191 -140 C-198 -171 -229 -184 -258 -184 C-304 -184 -325 -161 -325 -161 L-349 -188 C-349 -188 -316 -220 -260 -220 C-203 -220 -163 -188 -154 -145 C-145 -101 -173 -58 -233 -57 L-233 -57 Z " />
<glyph glyph-name="uni0328" unicode="&#x328;" d="M-257 -225 C-194 -225 -161 -178 -161 -178 L-183 -156 C-183 -156 -210 -189 -254 -189 C-291 -189 -319 -160 -311 -120 C-303 -80 -263 -49 -173 0 L-208 10 C-285 -29 -337 -61 -348 -115 C-360 -172 -322 -225 -257 -225 L-257 -225 Z " />
<glyph glyph-name="uni0394" unicode="&#x394;" horiz-adv-x="720" d="M472 730 L-24 0 L656 0 L472 730 Z M48 38 L454 641 L605 38 L48 38 Z " />
<glyph glyph-name="uni03A9" unicode="&#x3a9;" horiz-adv-x="830" d="M803 315 C846 520 704 715 489 715 C294 715 131 591 88 386 C58 244 108 103 207 38 L25 38 L17 0 L272 0 L280 38 C157 79 96 231 127 380 C165 564 313 677 486 677 C679 677 804 504 764 320 C732 171 621 79 480 38 L472 0 L727 0 L735 38 L575 38 C691 88 775 181 803 315 L803 315 Z " />
<glyph glyph-name="uni03BC" unicode="&#x3bc;" horiz-adv-x="470" d="M404 410 L345 137 C329 64 274 25 210 25 C133 25 95 80 110 153 L164 410 L124 410 L-10 -220 L30 -220 L88 53 C108 12 149 -15 207 -15 C293 -15 364 37 384 132 L444 410 L404 410 Z " />
<glyph glyph-name="pi" unicode="&#x3c0;" horiz-adv-x="600" d="M614 410 L74 410 L65 372 L175 372 L96 0 L136 0 L215 372 L455 372 L376 0 L416 0 L495 372 L605 372 L614 410 Z " />
<glyph glyph-name="Wgrave" unicode="&#x1e80;" horiz-adv-x="1040" d="M666 910 L628 910 L623 770 L658 770 L666 910 Z M1125 700 L1080 700 L717 82 L625 710 L266 81 L166 700 L125 700 L244 -30 L602 594 L694 -30 L1125 700 Z " />
<glyph glyph-name="wgrave" unicode="&#x1e81;" horiz-adv-x="630" d="M397 620 L359 620 L354 480 L389 480 L397 620 Z M664 410 L618 410 L415 78 L358 420 L155 78 L94 410 L54 410 L135 -30 L337 311 L395 -30 L664 410 Z " />
<glyph glyph-name="Wacute" unicode="&#x1e82;" horiz-adv-x="1040" d="M712 910 L670 910 L622 770 L661 770 L712 910 Z M1125 700 L1080 700 L717 82 L625 710 L266 81 L166 700 L125 700 L244 -30 L602 594 L694 -30 L1125 700 Z " />
<glyph glyph-name="wacute" unicode="&#x1e83;" horiz-adv-x="630" d="M443 620 L401 620 L353 480 L392 480 L443 620 Z M664 410 L618 410 L415 78 L358 420 L155 78 L94 410 L54 410 L135 -30 L337 311 L395 -30 L664 410 Z " />
<glyph glyph-name="Wdieresis" unicode="&#x1e84;" horiz-adv-x="1040" d="M580 805 C600 805 615 820 615 840 C615 860 600 875 580 875 C560 875 545 860 545 840 C545 820 560 805 580 805 L580 805 Z M730 805 C750 805 765 820 765 840 C765 860 750 875 730 875 C710 875 695 860 695 840 C695 820 710 805 730 805 L730 805 Z M1125 700 L1080 700 L717 82 L625 710 L266 81 L166 700 L125 700 L244 -30 L602 594 L694 -30 L1125 700 Z " />
<glyph glyph-name="wdieresis" unicode="&#x1e85;" horiz-adv-x="630" d="M311 515 C331 515 346 530 346 550 C346 570 331 585 311 585 C291 585 276 570 276 550 C276 530 291 515 311 515 L311 515 Z M461 515 C481 515 496 530 496 550 C496 570 481 585 461 585 C441 585 426 570 426 550 C426 530 441 515 461 515 L461 515 Z M664 410 L618 410 L415 78 L358 420 L155 78 L94 410 L54 410 L135 -30 L337 311 L395 -30 L664 410 Z " />
<glyph glyph-name="Ygrave" unicode="&#x1ef2;" horiz-adv-x="580" d="M428 770 L436 910 L398 910 L393 770 L428 770 Z M227 0 L267 0 L343 360 L675 700 L622 700 L328 397 L162 700 L115 700 L303 360 L227 0 Z " />
<glyph glyph-name="ygrave" unicode="&#x1ef3;" horiz-adv-x="420" d="M292 620 L254 620 L249 480 L284 480 L292 620 Z M408 410 L177 60 L94 410 L54 410 L147 15 L-9 -220 L34 -220 L454 410 L408 410 Z " />
<glyph glyph-name="endash" unicode="&#x2013;" horiz-adv-x="690" d="M98 290 L628 290 L636 328 L106 328 L98 290 Z " />
<glyph glyph-name="emdash" unicode="&#x2014;" horiz-adv-x="920" d="M98 290 L858 290 L866 328 L106 328 L98 290 Z " />
<glyph glyph-name="quoteleft" unicode="&#x2018;" horiz-adv-x="230" d="M255 700 L213 700 L148 490 L193 490 L255 700 Z " />
<glyph glyph-name="quoteright" unicode="&#x2019;" horiz-adv-x="230" d="M141 490 L183 490 L248 700 L203 700 L141 490 Z " />
<glyph glyph-name="quotesinglbase" unicode="&#x201a;" horiz-adv-x="230" d="M5 -150 L47 -150 L112 60 L67 60 L5 -150 Z " />
<glyph glyph-name="quotedblleft" unicode="&#x201c;" horiz-adv-x="390" d="M255 700 L213 700 L148 490 L193 490 L255 700 Z M415 700 L373 700 L308 490 L353 490 L415 700 Z " />
<glyph glyph-name="quotedblright" unicode="&#x201d;" horiz-adv-x="390" d="M141 490 L183 490 L248 700 L203 700 L141 490 Z M301 490 L343 490 L408 700 L363 700 L301 490 Z " />
<glyph glyph-name="quotedblbase" unicode="&#x201e;" horiz-adv-x="390" d="M5 -150 L47 -150 L112 60 L67 60 L5 -150 Z M165 -150 L207 -150 L272 60 L227 60 L165 -150 Z " />
<glyph glyph-name="dagger" unicode="&#x2020;" horiz-adv-x="370" d="M395 600 L290 600 L311 700 L271 700 L250 600 L145 600 L136 562 L242 562 L177 260 L217 260 L282 562 L386 562 L395 600 Z " />
<glyph glyph-name="daggerdbl" unicode="&#x2021;" horiz-adv-x="370" d="M386 562 L395 600 L290 600 L311 700 L271 700 L250 600 L145 600 L136 562 L242 562 L206 398 L102 398 L93 360 L198 360 L177 260 L217 260 L238 360 L343 360 L352 398 L246 398 L282 562 L386 562 Z " />
<glyph glyph-name="bullet" unicode="&#x2022;" horiz-adv-x="260" d="M161 300 C190 300 211 321 211 350 C211 379 190 400 161 400 C132 400 111 379 111 350 C111 321 132 300 161 300 L161 300 Z " />
<glyph glyph-name="ellipsis" unicode="&#x2026;" horiz-adv-x="850" d="M78 -5 C98 -5 113 10 113 30 C113 50 98 65 78 65 C58 65 43 50 43 30 C43 10 58 -5 78 -5 L78 -5 Z M388 -5 C408 -5 423 10 423 30 C423 50 408 65 388 65 C368 65 353 50 353 30 C353 10 368 -5 388 -5 L388 -5 Z M698 -5 C718 -5 733 10 733 30 C733 50 718 65 698 65 C678 65 663 50 663 30 C663 10 678 -5 698 -5 L698 -5 Z " />
<glyph glyph-name="perthousand" unicode="&#x2030;" horiz-adv-x="1280" d="M295 395 C385 395 455 465 455 555 C455 645 385 715 295 715 C205 715 135 645 135 555 C135 465 205 395 295 395 L295 395 Z M187 0 L232 0 L755 700 L710 700 L187 0 Z M295 434 C228 434 175 488 175 555 C175 622 228 676 295 676 C362 676 415 622 415 555 C415 488 362 434 295 434 L295 434 Z M647 -15 C737 -15 807 55 807 145 C807 235 737 305 647 305 C557 305 487 235 487 145 C487 55 557 -15 647 -15 L647 -15 Z M1047 -15 C1137 -15 1207 55 1207 145 C1207 235 1137 305 1047 305 C957 305 887 235 887 145 C887 55 957 -15 1047 -15 L1047 -15 Z M647 24 C580 24 527 78 527 145 C527 212 580 266 647 266 C714 266 767 212 767 145 C767 78 714 24 647 24 L647 24 Z M1047 24 C980 24 927 78 927 145 C927 212 980 266 1047 266 C1114 266 1167 212 1167 145 C1167 78 1114 24 1047 24 L1047 24 Z " />
<glyph glyph-name="guilsinglleft" unicode="&#x2039;" horiz-adv-x="410" d="M398 525 L111 350 L324 175 L332 210 L165 347 L390 484 L398 525 Z " />
<glyph glyph-name="guilsinglright" unicode="&#x203a;" horiz-adv-x="410" d="M74 175 L361 350 L148 525 L140 490 L307 353 L82 216 L74 175 Z " />
<glyph glyph-name="fraction" unicode="&#x2044;" horiz-adv-x="120" d="M-194 0 L-146 0 L375 700 L327 700 L-194 0 Z " />
<glyph glyph-name="Euro" unicode="&#x20ac;" horiz-adv-x="530" d="M405 677 C455 677 490 642 507 571 L546 578 C525 666 481 715 408 715 C300 715 212 620 160 434 L89 434 L81 396 L150 396 C148 386 145 376 143 365 C139 344 135 324 132 304 L61 304 L53 266 L128 266 C113 92 171 -15 282 -15 C356 -15 411 30 462 118 L427 135 C385 64 338 23 285 23 C199 23 155 116 168 266 L393 266 L401 304 L172 304 C175 322 178 341 182 360 C185 372 187 384 190 396 L461 396 L469 434 L201 434 C247 591 324 677 405 677 L405 677 Z " />
<glyph glyph-name="trademark" unicode="&#x2122;" horiz-adv-x="570" d="M453 528 L383 712 L315 448 L351 448 L389 603 L442 463 L552 599 L526 448 L562 448 L606 712 L453 528 Z M330 665 L338 700 L166 700 L158 665 L225 665 L179 448 L217 448 L263 665 L330 665 Z " />
<glyph glyph-name="minus" unicode="&#x2212;" horiz-adv-x="530" d="M98 290 L468 290 L476 328 L106 328 L98 290 Z " />
<glyph glyph-name="approxequal" unicode="&#x2248;" horiz-adv-x="530" d="M117 378 C117 378 156 406 208 406 C293 406 313 356 403 356 C455 356 489 386 489 386 L497 422 C497 422 458 394 406 394 C321 394 301 444 211 444 C159 444 125 414 125 414 L117 378 Z M79 198 C79 198 118 226 170 226 C255 226 275 176 365 176 C417 176 451 206 451 206 L459 242 C459 242 420 214 368 214 C283 214 263 264 173 264 C121 264 87 234 87 234 L79 198 Z " />
<glyph glyph-name="notequal" unicode="&#x2260;" horiz-adv-x="530" d="M487 380 L495 418 L374 418 L431 514 L388 514 L331 418 L125 418 L117 380 L308 380 L223 238 L87 238 L79 200 L200 200 L143 104 L186 104 L243 200 L449 200 L457 238 L266 238 L351 380 L487 380 Z " />
<glyph glyph-name="lessequal" unicode="&#x2264;" horiz-adv-x="530" d="M459 248 L468 288 L183 420 L524 552 L533 598 L130 438 L124 408 L459 248 Z M433 123 L441 161 L71 161 L63 123 L433 123 Z " />
<glyph glyph-name="greaterequal" unicode="&#x2265;" horiz-adv-x="530" d="M90 248 L494 408 L500 438 L164 598 L155 558 L441 426 L99 294 L90 248 Z M64 123 L434 123 L442 161 L72 161 L64 123 Z " />
<glyph glyph-name="fi" unicode="&#xfb01;" horiz-adv-x="560" d="M376 717 C421 717 444 695 444 695 L452 732 C452 732 428 755 379 755 C298 755 247 709 228 618 L184 410 L74 410 L66 372 L176 372 L97 0 L137 0 L216 372 L346 372 L354 410 L224 410 L267 613 C281 680 319 717 376 717 L376 717 Z M534 635 C514 635 499 620 499 600 C499 580 514 565 534 565 C554 565 569 580 569 600 C569 620 554 635 534 635 L534 635 Z M387 0 L427 0 L514 410 L474 410 L387 0 Z " />
<glyph glyph-name="fl" unicode="&#xfb02;" horiz-adv-x="560" d="M376 717 C421 717 444 695 444 695 L452 732 C452 732 428 755 379 755 C298 755 247 709 228 618 L184 410 L74 410 L66 372 L176 372 L97 0 L137 0 L216 372 L346 372 L354 410 L224 410 L267 613 C281 680 319 717 376 717 L376 717 Z M544 740 L386 0 L426 0 L584 740 L544 740 Z " />
</font>
</svg>
