<?xml version="1.0" encoding="utf-8"?>
<!-- Generator: Adobe Illustrator 24.0.1, SVG Export Plug-In . SVG Version: 6.00 Build 0)  -->
<svg version="1.1" id="Layer_1" xmlns="http://www.w3.org/2000/svg" xmlns:xlink="http://www.w3.org/1999/xlink" x="0px" y="0px"
	 viewBox="0 0 1920 1080" style="enable-background:new 0 0 1920 1080;" xml:space="preserve">
<style type="text/css">
	.st0{fill:#39A1D2;}
	.st1{fill:#FFFFFF;}
</style>
<circle class="st0" cx="960" cy="540" r="40"/>
<g id="project_icon-2_1_" transform="translate(1519 586)">
	<path id="Path_15_1_" class="st1" d="M-566.81-56.42h9.43c0.51,0,0.92-0.41,0.92-0.92s-0.41-0.92-0.92-0.92h-9.43
		c-0.51,0-0.92,0.41-0.92,0.92S-567.32-56.42-566.81-56.42z"/>
	<path id="Path_16_1_" class="st1" d="M-566.81-51.56h15.65c0.51,0,0.92-0.41,0.92-0.92s-0.41-0.92-0.92-0.92h-15.65
		c-0.51,0-0.92,0.41-0.92,0.92S-567.32-51.56-566.81-51.56z"/>
	<path id="Path_17_1_" class="st1" d="M-566.81-46.71h15.65c0.51,0,0.92-0.41,0.92-0.92s-0.41-0.92-0.92-0.92h-15.65
		c-0.51,0-0.92,0.41-0.92,0.92S-567.32-46.71-566.81-46.71z"/>
	<path id="Path_18_1_" class="st1" d="M-560.26-43.7h-6.55c-0.51,0-0.92,0.41-0.92,0.92s0.41,0.92,0.92,0.92h6.55
		c0.51,0,0.92-0.41,0.92-0.92S-559.75-43.7-560.26-43.7z"/>
	<path id="Path_19_1_" class="st1" d="M-541.89-42.63v-24.68c0-1.01-0.82-1.84-1.83-1.84c0,0-0.01,0-0.01,0h-5.67
		c-0.71-1.15-1.97-1.85-3.32-1.85h-12.45c-1.35,0-2.6,0.7-3.32,1.84h-5.67c-1.02,0-1.84,0.83-1.84,1.85c0,0,0,0,0,0v39.19
		c0,1.01,0.82,1.84,1.83,1.84c0,0,0.01,0,0.01,0h17.42c3.4,5.33,10.48,6.89,15.8,3.49s6.89-10.48,3.49-15.8
		C-538.54-40.32-540.08-41.71-541.89-42.63z M-572.31-29.97v-35.5h3.58c0.63,1.4,2.03,2.31,3.57,2.31h12.45
		c1.54,0,2.94-0.91,3.57-2.31h3.58v21.68c-0.51-0.07-1.02-0.11-1.53-0.11c-6.32,0.01-11.44,5.13-11.45,11.45
		c0,0.83,0.09,1.67,0.27,2.48H-572.31z M-547.1-22.84c-5.3-0.01-9.6-4.31-9.59-9.61c0.01-5.3,4.31-9.6,9.61-9.59
		c5.3,0.01,9.59,4.3,9.59,9.6C-537.5-27.14-541.8-22.85-547.1-22.84z"/>
	<path id="Path_20_1_" class="st1" d="M-543.7-36.98l-5.36,6.53l-1.58-1.67c-0.7-0.74-1.87-0.76-2.61-0.06
		c-0.74,0.7-0.76,1.87-0.06,2.61l3.03,3.18c0.35,0.37,0.83,0.57,1.34,0.57h0.07c0.53-0.02,1.02-0.26,1.36-0.67l6.68-8.14
		c0.63-0.8,0.5-1.97-0.31-2.61C-541.92-37.86-543.05-37.74-543.7-36.98z"/>
</g>
</svg>
