<?xml version="1.0" encoding="utf-8"?>
<!-- Generator: Adobe Illustrator 24.0.1, SVG Export Plug-In . SVG Version: 6.00 Build 0)  -->
<svg version="1.1" id="Layer_1" xmlns="http://www.w3.org/2000/svg" xmlns:xlink="http://www.w3.org/1999/xlink" x="0px" y="0px"
	 viewBox="0 0 1920 1080" style="enable-background:new 0 0 1920 1080;" xml:space="preserve">
<style type="text/css">
	.st0{fill:#FFFFFF;}
	.st1{fill:#39A1D2;}
	.st2{fill:#00567B;}
</style>
<g>
	<circle class="st0" cx="960" cy="540" r="40"/>
	<path class="st1" d="M960,580c-22.06,0-40-17.94-40-40s17.94-40,40-40s40,17.94,40,40S982.06,580,960,580z M960,504
		c-19.85,0-36,16.15-36,36s16.15,36,36,36s36-16.15,36-36S979.85,504,960,504z"/>
	<g id="scope_icon-2" transform="translate(368 572)">
		<path id="Path_8" class="st2" d="M577.2-34.62h1.84c0.01-5.71,4.63-10.33,10.34-10.34v-1.84
			C582.66-46.79,577.21-41.34,577.2-34.62z"/>
		<path id="Path_9" class="st2" d="M612.59-13.31l-9.31-9.3c6.63-7.68,5.78-19.29-1.9-25.92c-7.68-6.63-19.29-5.78-25.92,1.9
			c-6.63,7.68-5.78,19.29,1.9,25.92c6.62,5.71,16.34,5.97,23.25,0.63l9.38,9.38c0.72,0.72,1.89,0.72,2.6-0.01
			S613.31-12.59,612.59-13.31C612.59-13.31,612.59-13.31,612.59-13.31z M574.69-34.61c0-8.12,6.57-14.7,14.69-14.7
			c8.12,0,14.7,6.57,14.7,14.69c0,8.12-6.57,14.7-14.69,14.7c0,0-0.01,0-0.01,0C581.27-19.93,574.7-26.5,574.69-34.61z"/>
	</g>
</g>
</svg>
