<?xml version="1.0" encoding="utf-8"?>
<!-- Generator: Adobe Illustrator 24.0.1, SVG Export Plug-In . SVG Version: 6.00 Build 0)  -->
<svg version="1.1" id="Layer_1" xmlns="http://www.w3.org/2000/svg" xmlns:xlink="http://www.w3.org/1999/xlink" x="0px" y="0px"
	 viewBox="0 0 1920 1080" style="enable-background:new 0 0 1920 1080;" xml:space="preserve">
<style type="text/css">
	.st0{fill:#39A1D2;}
	.st1{fill:#FFFFFF;}
</style>
<circle class="st0" cx="960" cy="540" r="40"/>
<g id="code_icon-2" transform="translate(168 72)">
	<g id="Group_6">
		<path id="Path_10" class="st1" d="M785.97,485.67c-0.49,0-0.96-0.19-1.3-0.54l-15.81-15.81c-0.72-0.72-0.72-1.89,0-2.61
			l15.8-15.81c0.7-0.74,1.87-0.76,2.61-0.06c0.74,0.7,0.76,1.87,0.06,2.61c-0.02,0.02-0.04,0.04-0.06,0.06l-14.5,14.51l14.5,14.51
			c0.72,0.71,0.73,1.87,0.02,2.6C786.93,485.48,786.46,485.67,785.97,485.67z"/>
	</g>
	<g id="Group_7">
		<path id="Path_11" class="st1" d="M798.03,485.67c-1.02,0-1.84-0.83-1.84-1.85c0-0.49,0.2-0.96,0.54-1.3l14.5-14.51l-14.5-14.5
			c-0.74-0.7-0.76-1.87-0.06-2.61c0.7-0.74,1.87-0.76,2.61-0.06c0.02,0.02,0.04,0.04,0.06,0.06l15.8,15.81
			c0.72,0.72,0.72,1.89,0,2.61l-15.8,15.81C799,485.48,798.53,485.67,798.03,485.67z"/>
	</g>
</g>
</svg>
