<?xml version="1.0" encoding="UTF-8"?>
<svg xmlns="http://www.w3.org/2000/svg" xmlns:xlink="http://www.w3.org/1999/xlink" version="1.2" >
<font id="Intervogue Alt Bold">
<font-face  font-family="Intervogue Alt" units-per-em="1000" ascent="740" descent="-220" font-style="normal" font-weight="700" font-stretch="normal" cap-height="715" x-height="463" underline-position="-75" underline-thickness="50" />
<missing-glyph  horiz-adv-x="600" d="M10 68 L590 68 L590 648 L10 648 L10 68 Z M161 270 L254 363 L161 456 L207 502 L300 409 L393 502 L439 456 L346 363 L439 270 L393 224 L300 317 L207 224 L161 270 Z " />
<glyph glyph-name="NULL" d="" />
<glyph glyph-name="CR" unicode="&#xd;" horiz-adv-x="250" d="" />
<glyph glyph-name="space" unicode="&#x20;" horiz-adv-x="300" d="" />
<glyph glyph-name="exclam" unicode="&#x21;" horiz-adv-x="268" d="M78 230 L190 230 L206 715 L61 715 L78 230 Z M134 -13 C182 -13 218 24 218 71 C218 118 182 155 134 155 C85 155 50 118 50 71 C50 24 85 -13 134 -13 L134 -13 Z " />
<glyph glyph-name="quotedbl" unicode="&#x22;" horiz-adv-x="484" d="M70 415 L200 415 L200 715 L70 715 L70 415 Z M284 415 L414 415 L414 715 L284 715 L284 415 Z " />
<glyph glyph-name="numbersign" unicode="&#x23;" horiz-adv-x="553" d="M508 422 L508 499 L433 499 L463 715 L385 715 L355 499 L238 499 L268 715 L190 715 L160 499 L45 499 L45 422 L149 422 L131 293 L45 293 L45 216 L120 216 L90 0 L168 0 L198 216 L315 216 L285 0 L363 0 L393 216 L508 216 L508 293 L404 293 L422 422 L508 422 Z M326 293 L209 293 L227 422 L344 422 L326 293 Z " />
<glyph glyph-name="dollar" unicode="&#x24;" horiz-adv-x="553" d="M518 198 C518 312 439 372 315 426 L315 612 C382 602 407 544 407 544 L510 598 C510 598 466 719 315 729 L315 800 L261 800 L261 728 C138 717 63 638 63 534 C63 429 142 368 261 311 L261 103 C171 115 137 209 137 209 L35 150 C35 150 84 -2 261 -14 L261 -100 L315 -100 L315 -13 C442 -1 518 89 518 198 L518 198 Z M200 536 C200 570 222 598 261 609 L261 454 C220 479 200 505 200 536 L200 536 Z M315 107 L315 282 C358 255 380 228 380 192 C380 153 357 119 315 107 L315 107 Z " />
<glyph glyph-name="percent" unicode="&#x25;" horiz-adv-x="880" d="M222 380 C322 380 400 457 400 555 C400 653 322 730 222 730 C123 730 45 653 45 555 C45 457 123 380 222 380 L222 380 Z M208 0 L271 0 L673 715 L609 715 L208 0 Z M222 476 C179 476 144 511 144 555 C144 599 179 634 222 634 C266 634 301 599 301 555 C301 511 266 476 222 476 L222 476 Z M658 -15 C758 -15 835 62 835 160 C835 258 758 335 658 335 C558 335 481 258 481 160 C481 62 558 -15 658 -15 L658 -15 Z M658 81 C614 81 579 116 579 160 C579 204 614 239 658 239 C702 239 737 204 737 160 C737 116 702 81 658 81 L658 81 Z " />
<glyph glyph-name="ampersand" unicode="&#x26;" horiz-adv-x="644" d="M623 365 L491 365 L417 255 L324 371 C412 446 444 503 444 568 C444 656 370 730 268 730 C165 730 91 656 91 564 C91 493 126 444 173 384 C71 304 31 242 31 163 C31 54 119 -15 220 -15 C295 -15 362 13 422 75 L483 0 L623 0 L490 165 L623 365 Z M268 631 C304 631 329 602 329 562 C329 526 312 497 260 451 C221 502 206 529 206 562 C206 602 231 631 268 631 L268 631 Z M241 93 C197 92 161 126 161 173 C161 212 179 249 239 302 L354 160 C319 111 282 93 241 93 L241 93 Z " />
<glyph glyph-name="quotesingle" unicode="&#x27;" horiz-adv-x="270" d="M70 415 L200 415 L200 715 L70 715 L70 415 Z " />
<glyph glyph-name="parenleft" unicode="&#x28;" horiz-adv-x="300" d="M265 0 C265 0 157 150 157 358 C157 565 265 715 265 715 L135 715 C135 715 35 574 35 358 C35 141 135 0 135 0 L265 0 Z " />
<glyph glyph-name="parenright" unicode="&#x29;" horiz-adv-x="300" d="M35 0 L165 0 C165 0 265 141 265 358 C265 574 165 715 165 715 L35 715 C35 715 143 565 143 358 C143 150 35 0 35 0 L35 0 Z " />
<glyph glyph-name="asterisk" unicode="&#x2a;" horiz-adv-x="457" d="M399 592 L357 665 L267 608 L271 715 L186 715 L190 609 L100 665 L58 592 L153 543 L58 493 L100 420 L190 476 L186 370 L271 370 L267 477 L357 420 L399 493 L306 543 L399 592 Z " />
<glyph glyph-name="plus" unicode="&#x2b;" horiz-adv-x="553" d="M503 371 L339 371 L339 536 L214 536 L214 371 L50 371 L50 249 L214 249 L214 84 L339 84 L339 249 L503 249 L503 371 Z " />
<glyph glyph-name="comma" unicode="&#x2c;" horiz-adv-x="268" d="M50 -150 L165 -150 L205 150 L74 150 L50 -150 Z " />
<glyph glyph-name="hyphen" unicode="&#x2d;" horiz-adv-x="430" d="M50 248 L380 248 L380 370 L50 370 L50 248 Z " />
<glyph glyph-name="period" unicode="&#x2e;" horiz-adv-x="268" d="M134 -13 C182 -13 218 24 218 71 C218 118 182 155 134 155 C85 155 50 118 50 71 C50 24 85 -13 134 -13 L134 -13 Z " />
<glyph glyph-name="slash" unicode="&#x2f;" horiz-adv-x="530" d="M5 -100 L105 -100 L525 800 L418 800 L5 -100 Z " />
<glyph glyph-name="zero" unicode="0" horiz-adv-x="553" d="M276 -15 C416 -15 508 104 508 358 C508 611 416 730 276 730 C136 730 45 611 45 358 C45 104 136 -15 276 -15 L276 -15 Z M276 115 C215 115 183 190 183 358 C183 525 215 601 276 601 C338 601 370 525 370 358 C370 190 338 115 276 115 L276 115 Z " />
<glyph glyph-name="one" unicode="1" horiz-adv-x="395" d="M158 0 L295 0 L295 715 L35 715 L35 593 L158 593 L158 0 Z " />
<glyph glyph-name="two" unicode="2" horiz-adv-x="518" d="M28 0 L468 0 L468 122 L227 122 L383 327 C433 393 473 452 473 526 C473 643 382 730 255 730 C130 730 54 657 18 548 L136 499 C156 569 195 604 247 604 C300 604 335 567 335 517 C335 477 320 442 281 391 L28 63 L28 0 Z " />
<glyph glyph-name="three" unicode="3" horiz-adv-x="500" d="M352 367 C411 403 444 461 444 528 C444 643 360 730 222 730 C132 730 59 686 21 627 L103 550 C139 590 170 607 210 607 C265 607 306 564 306 514 C306 457 271 410 176 410 L133 410 L133 320 L176 320 C277 320 318 275 318 211 C318 155 272 109 211 109 C164 109 128 130 92 175 L5 105 C44 36 122 -15 222 -15 C366 -15 455 74 455 195 C455 270 418 331 352 367 L352 367 Z " />
<glyph glyph-name="four" unicode="4" horiz-adv-x="553" d="M530 304 L445 304 L445 715 L300 715 L23 262 L23 189 L315 189 L315 0 L445 0 L445 189 L530 189 L530 304 Z M154 304 L315 571 L315 304 L154 304 Z " />
<glyph glyph-name="five" unicode="5" horiz-adv-x="530" d="M269 448 C237 448 211 441 189 431 L192 593 L445 593 L445 715 L70 715 L65 275 L144 275 C144 275 169 329 239 329 C308 329 355 283 355 220 C355 158 309 111 243 111 C191 111 150 144 130 185 L28 114 C67 42 143 -15 249 -15 C387 -15 485 86 485 224 C485 352 397 448 269 448 L269 448 Z " />
<glyph glyph-name="six" unicode="6" horiz-adv-x="553" d="M291 440 C275 440 260 438 246 434 L381 715 L242 715 L80 366 C56 316 41 263 41 216 C41 88 146 -15 276 -15 C411 -15 511 87 511 219 C511 348 418 440 291 440 L291 440 Z M276 111 C216 111 171 156 171 216 C171 276 216 322 276 322 C336 322 381 276 381 216 C381 156 336 111 276 111 L276 111 Z " />
<glyph glyph-name="seven" unicode="7" horiz-adv-x="488" d="M23 715 L23 586 L301 586 L80 0 L226 0 L465 653 L465 715 L23 715 Z " />
<glyph glyph-name="eight" unicode="8" horiz-adv-x="553" d="M412 370 C463 404 496 459 496 526 C496 642 402 730 276 730 C150 730 56 642 56 526 C56 459 89 404 141 370 C83 334 45 274 45 200 C45 78 144 -15 276 -15 C409 -15 508 78 508 200 C508 275 470 334 412 370 L412 370 Z M276 604 C328 604 366 566 366 515 C366 464 328 426 276 426 C225 426 186 464 186 515 C186 566 225 604 276 604 L276 604 Z M276 111 C219 111 175 154 175 211 C175 268 219 312 276 312 C334 312 378 268 378 211 C378 154 334 111 276 111 L276 111 Z " />
<glyph glyph-name="nine" unicode="9" horiz-adv-x="553" d="M277 730 C142 730 42 628 42 496 C42 367 135 275 262 275 C278 275 293 277 307 281 L172 0 L311 0 L473 349 C497 399 512 452 512 499 C512 627 407 730 277 730 L277 730 Z M172 499 C172 559 217 604 277 604 C337 604 382 559 382 499 C382 439 337 393 277 393 C217 393 172 439 172 499 L172 499 Z " />
<glyph glyph-name="colon" unicode="&#x3a;" horiz-adv-x="268" d="M134 307 C182 307 218 344 218 391 C218 438 182 475 134 475 C85 475 50 438 50 391 C50 344 85 307 134 307 L134 307 Z M134 -13 C182 -13 218 24 218 71 C218 118 182 155 134 155 C85 155 50 118 50 71 C50 24 85 -13 134 -13 L134 -13 Z " />
<glyph glyph-name="semicolon" unicode="&#x3b;" horiz-adv-x="268" d="M134 307 C182 307 218 344 218 391 C218 438 182 475 134 475 C85 475 50 438 50 391 C50 344 85 307 134 307 L134 307 Z M50 -150 L165 -150 L205 150 L74 150 L50 -150 Z " />
<glyph glyph-name="less" unicode="&#x3c;" horiz-adv-x="553" d="M503 130 L503 261 L231 358 L503 454 L503 585 L50 403 L50 313 L503 130 Z " />
<glyph glyph-name="equal" unicode="&#x3d;" horiz-adv-x="553" d="M50 354 L503 354 L503 468 L50 468 L50 354 Z M50 151 L503 151 L503 266 L50 266 L50 151 Z " />
<glyph glyph-name="greater" unicode="&#x3e;" horiz-adv-x="553" d="M50 130 L503 313 L503 403 L50 585 L50 454 L322 358 L50 261 L50 130 Z " />
<glyph glyph-name="question" unicode="&#x3f;" horiz-adv-x="500" d="M177 230 L312 230 L404 384 C445 452 465 499 465 553 C465 653 386 730 256 730 C113 730 35 646 35 523 L161 523 C161 578 195 616 250 616 C302 616 331 582 331 546 C331 515 316 483 293 442 L177 230 Z M203 -13 C251 -13 286 24 286 71 C286 118 251 155 203 155 C154 155 119 118 119 71 C119 24 154 -13 203 -13 L203 -13 Z " />
<glyph glyph-name="at" unicode="&#x40;" horiz-adv-x="1055" d="M528 730 C256 730 45 519 45 248 C45 -26 256 -230 528 -230 C587 -230 640 -220 684 -203 L651 -113 C615 -124 577 -131 528 -131 C311 -131 145 29 145 248 C145 464 311 631 528 631 C749 631 918 475 918 248 C918 112 853 47 787 47 C724 47 696 104 710 171 L766 433 L662 433 L645 368 C625 416 582 447 515 447 C420 447 338 381 314 268 C290 156 362 44 481 44 C537 44 575 68 601 106 C613 22 675 -45 769 -45 C915 -45 1010 82 1010 248 C1010 529 799 730 528 730 L528 730 Z M508 147 C448 147 410 201 422 257 C434 312 477 344 527 344 C588 344 625 289 613 234 C602 179 558 147 508 147 L508 147 Z " />
<glyph glyph-name="A" unicode="A" horiz-adv-x="740" d="M567 0 L735 0 L434 715 L307 715 L5 0 L159 0 L225 169 L503 169 L567 0 Z M273 291 L366 528 L457 291 L273 291 Z " />
<glyph glyph-name="B" unicode="B" horiz-adv-x="553" d="M392 368 C453 400 488 462 488 529 C488 629 413 715 293 715 L70 715 L70 0 L290 0 C423 0 508 84 508 195 C508 272 465 337 392 368 L392 368 Z M251 597 C311 597 346 561 346 510 C346 459 311 423 251 423 L215 423 L215 597 L251 597 Z M262 118 L215 118 L215 309 L262 309 C328 309 366 270 366 214 C366 157 328 118 262 118 L262 118 Z " />
<glyph glyph-name="C" unicode="C" horiz-adv-x="761" d="M411 -15 C548 -15 658 54 726 160 L609 238 C567 169 497 122 411 122 C281 122 180 225 180 358 C180 490 281 593 411 593 C496 593 565 548 607 481 L721 562 C653 664 545 730 411 730 C200 730 35 567 35 358 C35 148 200 -15 411 -15 L411 -15 Z " />
<glyph glyph-name="D" unicode="D" horiz-adv-x="655" d="M70 0 L270 0 C502 0 620 154 620 358 C620 561 502 715 270 715 L70 715 L70 0 Z M215 133 L215 582 L270 582 C412 582 475 490 475 358 C475 225 412 133 270 133 L215 133 Z " />
<glyph glyph-name="E" unicode="E" horiz-adv-x="543" d="M215 133 L215 307 L495 307 L495 430 L215 430 L215 582 L470 582 L470 715 L70 715 L70 0 L500 0 L500 133 L215 133 Z " />
<glyph glyph-name="F" unicode="F" horiz-adv-x="530" d="M495 430 L215 430 L215 582 L470 582 L470 715 L70 715 L70 0 L215 0 L215 307 L495 307 L495 430 Z " />
<glyph glyph-name="G" unicode="G" horiz-adv-x="804" d="M767 393 L301 393 L301 268 L619 268 C590 182 516 122 412 122 C281 122 180 226 180 358 C180 490 281 593 417 593 C487 593 548 566 590 525 L685 627 C619 691 525 730 417 730 C200 730 35 567 35 358 C35 148 200 -15 412 -15 C621 -15 769 146 769 353 C769 371 767 393 767 393 L767 393 Z " />
<glyph glyph-name="H" unicode="H" horiz-adv-x="760" d="M545 715 L545 439 L215 439 L215 715 L70 715 L70 0 L215 0 L215 302 L545 302 L545 0 L690 0 L690 715 L545 715 Z " />
<glyph glyph-name="I" unicode="I" horiz-adv-x="305" d="M80 0 L225 0 L225 715 L80 715 L80 0 Z " />
<glyph glyph-name="J" unicode="J" horiz-adv-x="505" d="M207 -15 C350 -15 441 79 441 231 L441 715 L296 715 L296 235 C296 172 262 130 206 130 C170 130 144 150 128 179 L5 105 C46 32 112 -15 207 -15 L207 -15 Z " />
<glyph glyph-name="K" unicode="K" horiz-adv-x="643" d="M638 0 L353 376 L618 715 L438 715 L215 416 L215 715 L70 715 L70 0 L215 0 L215 330 L458 0 L638 0 Z " />
<glyph glyph-name="L" unicode="L" horiz-adv-x="513" d="M215 137 L215 715 L70 715 L70 0 L500 0 L500 137 L215 137 Z " />
<glyph glyph-name="M" unicode="M" horiz-adv-x="890" d="M70 0 L211 0 L211 398 L414 0 L476 0 L679 398 L679 0 L820 0 L820 715 L702 715 L449 210 L196 715 L70 715 L70 0 Z " />
<glyph glyph-name="N" unicode="N" horiz-adv-x="740" d="M544 0 L670 0 L670 715 L528 715 L528 263 L196 715 L70 715 L70 0 L213 0 L213 460 L544 0 Z " />
<glyph glyph-name="O" unicode="O" horiz-adv-x="823" d="M411 -15 C623 -15 788 148 788 358 C788 567 623 730 411 730 C200 730 35 567 35 358 C35 148 200 -15 411 -15 L411 -15 Z M411 122 C281 122 180 225 180 358 C180 490 281 593 411 593 C542 593 643 490 643 358 C643 225 542 122 411 122 L411 122 Z " />
<glyph glyph-name="P" unicode="P" horiz-adv-x="553" d="M291 715 L70 715 L70 0 L215 0 L215 284 L291 284 C429 284 518 382 518 499 C518 616 429 715 291 715 L291 715 Z M276 406 L215 406 L215 589 L276 589 C336 589 376 550 376 498 C376 445 336 406 276 406 L276 406 Z " />
<glyph glyph-name="Q" unicode="Q" horiz-adv-x="823" d="M788 358 C788 567 623 730 411 730 C200 730 35 567 35 358 C35 170 167 20 346 -10 L346 -200 L476 -200 L476 -10 C656 20 788 170 788 358 L788 358 Z M476 131 L476 263 L346 263 L346 131 C249 159 180 248 180 358 C180 490 281 593 411 593 C542 593 643 490 643 358 C643 248 574 159 476 131 L476 131 Z " />
<glyph glyph-name="R" unicode="R" horiz-adv-x="598" d="M427 0 L598 0 L383 302 C467 335 518 412 518 500 C518 617 430 715 293 715 L70 715 L70 0 L215 0 L215 286 L235 286 L427 0 Z M270 589 C333 589 376 547 376 491 C376 435 333 393 270 393 L215 393 L215 589 L270 589 Z " />
<glyph glyph-name="S" unicode="S" horiz-adv-x="545" d="M276 -15 C421 -15 510 81 510 199 C510 315 432 374 308 430 C231 465 198 496 198 536 C198 576 229 606 285 606 C360 606 410 553 410 553 L490 654 C490 654 409 730 283 730 C141 730 53 647 53 535 C53 427 126 363 247 307 C328 269 365 240 365 193 C365 148 334 110 273 110 C184 110 112 195 112 195 L28 100 C28 100 112 -15 276 -15 L276 -15 Z " />
<glyph glyph-name="T" unicode="T" horiz-adv-x="535" d="M523 715 L13 715 L13 578 L195 578 L195 0 L340 0 L340 578 L523 578 L523 715 Z " />
<glyph glyph-name="U" unicode="U" horiz-adv-x="653" d="M326 -15 C485 -15 589 90 589 256 L589 715 L444 715 L444 260 C444 180 400 130 326 130 C253 130 209 180 209 260 L209 715 L64 715 L64 256 C64 90 168 -15 326 -15 L326 -15 Z " />
<glyph glyph-name="V" unicode="V" horiz-adv-x="590" d="M232 0 L358 0 L585 715 L443 715 L303 245 L162 715 L5 715 L232 0 Z " />
<glyph glyph-name="W" unicode="W" horiz-adv-x="1040" d="M889 715 L741 242 L586 715 L468 715 L314 246 L166 715 L5 715 L241 0 L359 0 L520 483 L682 0 L800 0 L1035 715 L889 715 Z " />
<glyph glyph-name="X" unicode="X" horiz-adv-x="615" d="M5 0 L171 0 L308 236 L444 0 L610 0 L391 366 L600 715 L434 715 L308 496 L181 715 L15 715 L225 366 L5 0 Z " />
<glyph glyph-name="Y" unicode="Y" horiz-adv-x="610" d="M233 0 L378 0 L378 334 L615 715 L460 715 L313 478 L165 715 L-5 715 L233 334 L233 0 Z " />
<glyph glyph-name="Z" unicode="Z" horiz-adv-x="688" d="M50 0 L638 0 L638 133 L275 133 L638 653 L638 715 L50 715 L50 582 L413 582 L50 63 L50 0 Z " />
<glyph glyph-name="bracketleft" unicode="&#x5b;" horiz-adv-x="345" d="M285 616 L285 715 L55 715 L55 0 L285 0 L285 100 L177 100 L177 616 L285 616 Z " />
<glyph glyph-name="backslash" unicode="&#x5c;" horiz-adv-x="530" d="M525 -100 L112 800 L5 800 L425 -100 L525 -100 Z " />
<glyph glyph-name="bracketright" unicode="&#x5d;" horiz-adv-x="345" d="M275 715 L45 715 L45 616 L153 616 L153 100 L45 100 L45 0 L275 0 L275 715 Z " />
<glyph glyph-name="asciicircum" unicode="&#x5e;" horiz-adv-x="553" d="M508 350 L321 715 L231 715 L45 350 L169 350 L276 574 L384 350 L508 350 Z " />
<glyph glyph-name="underscore" unicode="&#x5f;" horiz-adv-x="553" d="M0 -122 L553 -122 L553 -23 L0 -23 L0 -122 Z " />
<glyph glyph-name="grave" unicode="&#x60;" horiz-adv-x="600" d="M219 575 L195 715 L65 715 L105 575 L219 575 Z " />
<glyph glyph-name="a" unicode="a" horiz-adv-x="586" d="M406 463 L402 404 C372 450 324 478 256 478 C127 478 29 370 29 231 C29 93 127 -15 256 -15 C324 -15 372 13 402 59 L406 0 L529 0 L529 463 L406 463 Z M279 111 C211 111 159 164 159 231 C159 299 211 352 279 352 C347 352 399 299 399 231 C399 164 347 111 279 111 L279 111 Z " />
<glyph glyph-name="b" unicode="b" horiz-adv-x="586" d="M330 478 C264 478 217 452 187 408 L187 740 L57 740 L57 0 L180 0 L184 59 C214 13 262 -15 330 -15 C459 -15 557 93 557 231 C557 370 459 478 330 478 L330 478 Z M307 111 C239 111 187 164 187 231 C187 299 239 352 307 352 C375 352 427 299 427 231 C427 164 375 111 307 111 L307 111 Z " />
<glyph glyph-name="c" unicode="c" horiz-adv-x="500" d="M279 -15 C372 -15 446 34 489 105 L381 168 C361 134 324 111 279 111 C211 111 159 164 159 231 C159 299 211 352 279 352 C321 352 356 331 378 300 L483 370 C439 435 367 478 279 478 C138 478 29 370 29 231 C29 93 138 -15 279 -15 L279 -15 Z " />
<glyph glyph-name="d" unicode="d" horiz-adv-x="586" d="M399 740 L399 408 C369 452 322 478 256 478 C127 478 29 370 29 231 C29 93 127 -15 256 -15 C324 -15 372 13 402 59 L406 0 L529 0 L529 740 L399 740 Z M279 111 C211 111 159 164 159 231 C159 299 211 352 279 352 C347 352 399 299 399 231 C399 164 347 111 279 111 L279 111 Z " />
<glyph glyph-name="e" unicode="e" horiz-adv-x="550" d="M522 242 C522 373 419 478 278 478 C137 478 29 370 29 232 C29 93 138 -15 279 -15 C378 -15 460 38 502 119 L388 169 C370 133 328 107 279 107 C219 107 171 147 161 208 L519 208 C519 208 522 224 522 242 L522 242 Z M278 373 C330 373 368 346 385 295 L169 295 C187 346 228 373 278 373 L278 373 Z " />
<glyph glyph-name="f" unicode="f" horiz-adv-x="355" d="M308 633 C336 633 355 625 355 625 L355 745 C355 745 333 755 286 755 C173 755 103 682 103 562 L103 463 L23 463 L23 341 L103 341 L103 0 L233 0 L233 341 L333 341 L333 463 L233 463 L233 551 C233 602 259 633 308 633 L308 633 Z " />
<glyph glyph-name="g" unicode="g" horiz-adv-x="586" d="M406 463 L402 405 C372 450 324 478 256 478 C127 478 29 371 29 239 C29 107 127 0 256 0 C322 0 369 26 399 68 L399 1 C399 -76 347 -121 282 -121 C218 -121 175 -84 175 -39 L45 -39 C45 -154 148 -235 280 -235 C420 -235 529 -143 529 1 L529 463 L406 463 Z M279 115 C211 115 159 167 159 235 C159 303 211 356 279 356 C347 356 399 303 399 235 C399 167 347 115 279 115 L279 115 Z " />
<glyph glyph-name="h" unicode="h" horiz-adv-x="511" d="M319 478 C263 478 224 455 188 415 L188 740 L58 740 L58 0 L188 0 L188 298 C211 332 240 351 269 351 C307 351 330 330 330 283 L330 0 L460 0 L460 330 C460 424 406 478 319 478 L319 478 Z " />
<glyph glyph-name="i" unicode="i" horiz-adv-x="258" d="M129 550 C177 550 213 586 213 630 C213 674 177 710 129 710 C80 710 45 674 45 630 C45 586 80 550 129 550 L129 550 Z M64 0 L194 0 L194 463 L64 463 L64 0 Z " />
<glyph glyph-name="j" unicode="j" horiz-adv-x="258" d="M129 550 C177 550 213 586 213 630 C213 674 177 710 129 710 C80 710 45 674 45 630 C45 586 80 550 129 550 L129 550 Z M64 -220 L194 -220 L194 463 L64 463 L64 -220 Z " />
<glyph glyph-name="k" unicode="k" horiz-adv-x="479" d="M476 0 L296 249 L466 463 L314 463 L188 289 L188 740 L58 740 L58 0 L188 0 L188 196 L324 0 L476 0 Z " />
<glyph glyph-name="l" unicode="l" horiz-adv-x="258" d="M64 0 L194 0 L194 740 L64 740 L64 0 Z " />
<glyph glyph-name="m" unicode="m" horiz-adv-x="784" d="M591 478 C529 478 488 449 448 400 C427 450 381 478 319 478 C261 478 222 453 184 411 L180 463 L58 463 L58 0 L188 0 L188 298 C211 332 240 351 269 351 C307 351 330 330 330 283 L330 0 L460 0 L460 298 C483 332 512 351 542 351 C580 351 603 330 603 283 L603 0 L733 0 L733 330 C733 424 678 478 591 478 L591 478 Z " />
<glyph glyph-name="n" unicode="n" horiz-adv-x="511" d="M319 478 C261 478 222 453 184 411 L180 463 L58 463 L58 0 L188 0 L188 298 C211 332 240 351 269 351 C307 351 330 330 330 283 L330 0 L460 0 L460 330 C460 424 406 478 319 478 L319 478 Z " />
<glyph glyph-name="o" unicode="o" horiz-adv-x="558" d="M279 -15 C420 -15 529 93 529 231 C529 370 420 478 279 478 C138 478 29 370 29 231 C29 93 138 -15 279 -15 L279 -15 Z M279 111 C211 111 159 164 159 231 C159 299 211 352 279 352 C347 352 399 299 399 231 C399 164 347 111 279 111 L279 111 Z " />
<glyph glyph-name="p" unicode="p" horiz-adv-x="586" d="M330 478 C262 478 214 450 184 404 L180 463 L57 463 L57 -220 L187 -220 L187 54 C217 11 264 -15 330 -15 C459 -15 557 93 557 231 C557 370 459 478 330 478 L330 478 Z M307 111 C239 111 187 164 187 231 C187 299 239 352 307 352 C375 352 427 299 427 231 C427 164 375 111 307 111 L307 111 Z " />
<glyph glyph-name="q" unicode="q" horiz-adv-x="586" d="M406 463 L402 404 C372 450 324 478 256 478 C127 478 29 370 29 231 C29 93 127 -15 256 -15 C322 -15 369 11 399 54 L399 -220 L529 -220 L529 463 L406 463 Z M279 111 C211 111 159 164 159 231 C159 299 211 352 279 352 C347 352 399 299 399 231 C399 164 347 111 279 111 L279 111 Z " />
<glyph glyph-name="r" unicode="r" horiz-adv-x="429" d="M295 478 C252 478 221 458 184 411 L180 463 L58 463 L58 0 L188 0 L188 296 C211 343 231 359 256 359 C279 359 295 345 307 313 L429 357 C407 433 366 478 295 478 L295 478 Z " />
<glyph glyph-name="s" unicode="s" horiz-adv-x="403" d="M207 -15 C304 -15 374 45 374 132 C374 209 320 251 236 287 C189 306 171 322 171 344 C171 362 185 378 216 378 C260 378 303 341 303 341 L364 425 C364 425 308 478 212 478 C117 478 47 422 47 339 C47 267 98 221 180 188 C232 166 250 149 250 125 C250 104 235 86 203 86 C149 86 92 143 92 143 L29 64 C29 64 89 -15 207 -15 L207 -15 Z " />
<glyph glyph-name="t" unicode="t" horiz-adv-x="355" d="M333 463 L233 463 L233 683 L103 683 L103 463 L23 463 L23 341 L103 341 L103 0 L233 0 L233 341 L333 341 L333 463 Z " />
<glyph glyph-name="u" unicode="u" horiz-adv-x="505" d="M253 -15 C368 -15 454 64 454 186 L454 463 L324 463 L324 184 C324 140 295 111 253 111 C211 111 181 140 181 184 L181 463 L51 463 L51 186 C51 64 137 -15 253 -15 L253 -15 Z " />
<glyph glyph-name="v" unicode="v" horiz-adv-x="480" d="M184 0 L296 0 L478 463 L347 463 L248 178 L148 463 L3 463 L184 0 Z " />
<glyph glyph-name="w" unicode="w" horiz-adv-x="728" d="M594 463 L504 197 L423 463 L320 463 L239 195 L148 463 L3 463 L175 0 L279 0 L364 273 L449 0 L552 0 L725 463 L594 463 Z " />
<glyph glyph-name="x" unicode="x" horiz-adv-x="458" d="M3 0 L149 0 L229 128 L308 0 L455 0 L302 235 L450 463 L303 463 L229 342 L154 463 L8 463 L156 235 L3 0 Z " />
<glyph glyph-name="y" unicode="y" horiz-adv-x="480" d="M347 463 L245 189 L148 463 L3 463 L176 26 L75 -220 L206 -220 L478 463 L347 463 Z " />
<glyph glyph-name="z" unicode="z" horiz-adv-x="455" d="M41 0 L414 0 L414 115 L212 115 L414 400 L414 463 L41 463 L41 348 L243 348 L41 63 L41 0 Z " />
<glyph glyph-name="braceleft" unicode="&#x7b;" horiz-adv-x="360" d="M297 616 L315 616 L315 715 L265 715 C159 715 100 660 100 572 C100 516 110 489 110 450 C110 423 95 407 68 407 L45 407 L45 308 L68 308 C95 308 110 292 110 266 C110 226 100 200 100 143 C100 55 159 0 265 0 L315 0 L315 100 L297 100 C251 100 222 126 222 167 C222 209 232 234 232 279 C232 319 214 347 183 358 C214 369 232 397 232 436 C232 481 222 507 222 549 C222 589 251 616 297 616 L297 616 Z " />
<glyph glyph-name="bar" unicode="&#x7c;" horiz-adv-x="283" d="M80 -100 L203 -100 L203 800 L80 800 L80 -100 Z " />
<glyph glyph-name="braceright" unicode="&#x7d;" horiz-adv-x="360" d="M292 407 C265 407 250 423 250 450 C250 489 260 516 260 572 C260 660 201 715 95 715 L45 715 L45 616 L63 616 C109 616 138 589 138 549 C138 507 128 481 128 436 C128 397 146 369 177 358 C146 347 128 319 128 279 C128 234 138 209 138 167 C138 126 109 100 63 100 L45 100 L45 0 L95 0 C201 0 260 55 260 143 C260 200 250 226 250 266 C250 292 265 308 292 308 L315 308 L315 407 L292 407 Z " />
<glyph glyph-name="asciitilde" unicode="&#x7e;" horiz-adv-x="553" d="M50 243 C50 243 85 273 145 273 C251 273 303 225 408 225 C468 225 503 263 503 263 L503 377 C503 377 468 347 408 347 C302 347 250 395 145 395 C85 395 50 357 50 357 L50 243 Z " />
<glyph glyph-name="exclamdown" unicode="&#xa1;" horiz-adv-x="268" d="M134 508 C85 508 50 471 50 424 C50 377 85 340 134 340 C182 340 218 377 218 424 C218 471 182 508 134 508 L134 508 Z M78 265 L61 -220 L206 -220 L190 265 L78 265 Z " />
<glyph glyph-name="cent" unicode="&#xa2;" horiz-adv-x="553" d="M506 357 L399 421 C382 392 354 371 318 365 L318 602 C351 597 378 578 396 552 L501 623 C461 683 397 723 318 729 L318 800 L264 800 L264 728 C140 713 46 611 46 484 C46 356 140 255 264 240 L264 168 L318 168 L318 239 C402 246 467 292 506 357 L506 357 Z M176 484 C176 541 213 586 264 600 L264 367 C213 381 176 427 176 484 L176 484 Z " />
<glyph glyph-name="sterling" unicode="&#xa3;" horiz-adv-x="553" d="M289 230 C289 265 284 294 276 320 L420 320 L420 375 L255 375 C235 418 215 457 215 513 C215 564 245 604 302 604 C369 604 391 536 391 536 L508 587 C508 587 463 730 300 730 C161 730 78 641 78 512 C78 457 92 414 108 375 L35 375 L35 320 L131 320 C145 287 155 253 155 211 C155 124 114 82 65 73 L65 0 L483 0 L483 122 L254 122 C277 151 289 188 289 230 L289 230 Z " />
<glyph glyph-name="currency" unicode="&#xa4;" horiz-adv-x="553" d="M470 516 L526 572 L489 610 L431 553 C389 585 335 604 276 604 C217 604 164 585 122 553 L64 610 L26 572 L83 515 C47 473 26 418 26 358 C26 298 46 244 80 202 L26 148 L64 110 L119 165 C161 131 216 111 276 111 C337 111 391 131 434 165 L489 110 L526 148 L472 202 C506 244 526 298 526 358 C526 419 505 473 470 516 L470 516 Z M276 237 C209 237 156 290 156 358 C156 425 209 478 276 478 C344 478 396 425 396 358 C396 290 344 237 276 237 L276 237 Z " />
<glyph glyph-name="yen" unicode="&#xa5;" horiz-adv-x="553" d="M349 334 L540 715 L385 715 L284 479 L183 715 L13 715 L204 334 L204 314 L28 314 L28 259 L204 259 L204 194 L28 194 L28 139 L204 139 L204 0 L349 0 L349 139 L525 139 L525 194 L349 194 L349 259 L525 259 L525 314 L349 314 L349 334 Z " />
<glyph glyph-name="brokenbar" unicode="&#xa6;" horiz-adv-x="305" d="M80 470 L225 470 L225 800 L80 800 L80 470 Z M80 -100 L225 -100 L225 230 L80 230 L80 -100 Z " />
<glyph glyph-name="section" unicode="&#xa7;" horiz-adv-x="508" d="M463 352 C463 434 413 484 305 511 C241 528 209 548 209 579 C209 607 232 625 274 625 C331 625 367 580 367 580 L435 661 C435 661 373 730 269 730 C156 730 85 666 85 581 C85 540 98 510 123 485 C74 460 45 417 45 363 C45 281 95 232 202 204 C267 188 299 167 299 136 C299 108 276 91 233 91 C177 91 141 135 141 135 L73 55 C73 55 135 -15 239 -15 C352 -15 423 49 423 134 C423 175 410 206 385 230 C434 255 463 298 463 352 L463 352 Z M256 293 C197 310 164 332 164 369 C164 397 180 424 218 432 C228 429 239 425 251 422 C310 405 344 383 344 347 C344 317 327 291 288 283 C278 287 267 290 256 293 L256 293 Z " />
<glyph glyph-name="dieresis" unicode="&#xa8;" horiz-adv-x="600" d="M130 580 C167 580 195 608 195 645 C195 682 167 710 130 710 C93 710 65 682 65 645 C65 608 93 580 130 580 L130 580 Z M303 580 C340 580 368 608 368 645 C368 682 340 710 303 710 C265 710 238 682 238 645 C238 608 265 580 303 580 L303 580 Z " />
<glyph glyph-name="copyright" unicode="&#xa9;" horiz-adv-x="823" d="M411 -15 C621 -15 784 148 784 358 C784 567 621 730 411 730 C202 730 39 567 39 358 C39 148 202 -15 411 -15 L411 -15 Z M411 51 C239 51 105 186 105 358 C105 530 239 664 411 664 C585 664 718 530 718 358 C718 186 585 51 411 51 L411 51 Z M416 144 C497 144 561 186 599 247 L508 300 C490 270 456 250 416 250 C355 250 308 297 308 358 C308 419 355 465 416 465 C455 465 485 447 505 419 L594 479 C555 535 493 572 416 572 C294 572 199 478 199 358 C199 237 294 144 416 144 L416 144 Z " />
<glyph glyph-name="ordfeminine" unicode="&#xaa;" horiz-adv-x="319" d="M214 715 L211 691 C197 711 176 723 144 723 C78 723 29 667 29 595 C29 522 78 467 144 467 C176 467 197 479 211 498 L214 474 L290 474 L290 715 L214 715 Z M160 546 C132 546 111 567 111 595 C111 622 132 643 160 643 C187 643 208 622 208 595 C208 567 187 546 160 546 L160 546 Z " />
<glyph glyph-name="guillemotleft" unicode="&#xab;" horiz-adv-x="653" d="M323 160 L323 267 L199 358 L323 448 L323 555 L50 378 L50 338 L323 160 Z M603 160 L603 267 L479 358 L603 448 L603 555 L330 378 L330 338 L603 160 Z " />
<glyph glyph-name="logicalnot" unicode="&#xac;" horiz-adv-x="553" d="M50 249 L388 249 L388 155 L503 155 L503 371 L50 371 L50 249 Z " />
<glyph glyph-name="registered" unicode="&#xae;" horiz-adv-x="390" d="M195 723 C110 723 45 658 45 573 C45 488 110 423 195 423 C280 423 345 488 345 573 C345 658 280 723 195 723 L195 723 Z M195 463 C134 463 86 512 86 573 C86 634 134 683 195 683 C256 683 304 634 304 573 C304 512 256 463 195 463 L195 463 Z M250 601 C250 624 233 645 203 645 L144 645 L144 500 L185 500 L185 558 L188 558 L217 500 L264 500 L228 564 C242 571 250 585 250 601 L250 601 Z M196 612 C204 612 211 607 211 598 C211 590 204 584 196 584 L185 584 L185 612 L196 612 Z " />
<glyph glyph-name="macron" unicode="&#xaf;" horiz-adv-x="600" d="M60 608 L350 608 L350 692 L60 692 L60 608 Z " />
<glyph glyph-name="degree" unicode="&#xb0;" horiz-adv-x="465" d="M232 360 C339 360 420 441 420 545 C420 649 339 730 232 730 C126 730 45 649 45 545 C45 441 126 360 232 360 L232 360 Z M232 457 C185 457 145 496 145 545 C145 594 185 634 232 634 C280 634 320 594 320 545 C320 496 280 457 232 457 L232 457 Z " />
<glyph glyph-name="plusminus" unicode="&#xb1;" horiz-adv-x="553" d="M339 514 L339 679 L214 679 L214 514 L50 514 L50 392 L214 392 L214 227 L339 227 L339 392 L503 392 L503 514 L339 514 Z M50 54 L503 54 L503 176 L50 176 L50 54 Z " />
<glyph glyph-name="uni00B2" unicode="&#xb2;" horiz-adv-x="332" d="M52 355 L285 355 L285 432 L176 432 L241 515 C267 549 287 578 287 617 C287 678 240 722 173 722 C105 722 67 685 45 629 L120 596 C132 629 147 643 167 643 C188 643 200 629 200 610 C200 594 195 579 176 555 L52 396 L52 355 Z " />
<glyph glyph-name="uni00B3" unicode="&#xb3;" horiz-adv-x="326" d="M234 538 C261 557 277 585 277 618 C277 676 234 722 159 722 C112 722 73 700 52 670 L104 621 C123 640 135 644 152 644 C173 644 190 627 190 608 C190 583 175 566 136 566 L110 566 L110 509 L136 509 C178 509 194 493 194 466 C194 443 176 425 152 425 C133 425 119 433 99 454 L45 408 C65 373 107 348 159 348 C237 348 281 393 281 455 C281 490 264 519 234 538 L234 538 Z " />
<glyph glyph-name="acute" unicode="&#xb4;" horiz-adv-x="600" d="M65 575 L179 575 L219 715 L89 715 L65 575 Z " />
<glyph glyph-name="uni00B5" unicode="&#xb5;" horiz-adv-x="511" d="M330 463 L330 184 C330 140 301 111 259 111 C217 111 188 140 188 184 L188 463 L58 463 L58 -220 L188 -220 L188 9 C212 -7 240 -15 274 -15 C379 -15 460 64 460 186 L460 463 L330 463 Z " />
<glyph glyph-name="paragraph" unicode="&#xb6;" horiz-adv-x="690" d="M35 512 C35 400 117 309 249 309 L270 309 L270 0 L393 0 L393 608 L498 608 L498 0 L620 0 L620 715 L249 715 C117 715 35 623 35 512 L35 512 Z " />
<glyph glyph-name="periodcentered" unicode="&#xb7;" horiz-adv-x="268" d="M134 273 C182 273 218 310 218 357 C218 404 182 441 134 441 C85 441 50 404 50 357 C50 310 85 273 134 273 L134 273 Z " />
<glyph glyph-name="cedilla" unicode="&#xb8;" horiz-adv-x="600" d="M182 -41 L200 0 L133 0 L93 -85 L126 -108 C126 -108 137 -98 154 -98 C173 -98 187 -109 187 -125 C187 -143 171 -155 149 -155 C116 -155 93 -136 93 -136 L65 -188 C65 -188 101 -220 158 -220 C232 -220 273 -177 273 -128 C273 -81 240 -44 182 -41 L182 -41 Z " />
<glyph glyph-name="uni00B9" unicode="&#xb9;" horiz-adv-x="243" d="M100 355 L188 355 L188 715 L35 715 L35 638 L100 638 L100 355 Z " />
<glyph glyph-name="ordmasculine" unicode="&#xba;" horiz-adv-x="319" d="M160 467 C234 467 290 522 290 594 C290 667 234 723 160 723 C86 723 29 667 29 594 C29 522 86 467 160 467 L160 467 Z M160 546 C132 546 111 567 111 594 C111 622 132 643 160 643 C187 643 208 622 208 594 C208 567 187 546 160 546 L160 546 Z " />
<glyph glyph-name="guillemotright" unicode="&#xbb;" horiz-adv-x="653" d="M50 160 L323 338 L323 378 L50 555 L50 448 L174 358 L50 267 L50 160 Z M330 160 L603 338 L603 378 L330 555 L330 448 L454 358 L330 267 L330 160 Z " />
<glyph glyph-name="onequarter" unicode="&#xbc;" horiz-adv-x="714" d="M100 355 L188 355 L188 715 L35 715 L35 638 L100 638 L100 355 Z M472 715 L70 0 L134 0 L536 715 L472 715 Z M669 158 L635 158 L635 360 L543 360 L408 132 L408 86 L553 86 L553 0 L635 0 L635 86 L669 86 L669 158 Z M489 158 L553 271 L553 158 L489 158 Z " />
<glyph glyph-name="onehalf" unicode="&#xbd;" horiz-adv-x="695" d="M100 355 L188 355 L188 715 L35 715 L35 638 L100 638 L100 355 Z M70 0 L134 0 L536 715 L472 715 L70 0 Z M415 0 L648 0 L648 77 L539 77 L604 160 C630 194 650 223 650 262 C650 323 603 367 536 367 C468 367 430 330 408 274 L483 241 C495 274 510 288 530 288 C551 288 563 274 563 255 C563 239 558 224 539 200 L415 41 L415 0 Z " />
<glyph glyph-name="threequarters" unicode="&#xbe;" horiz-adv-x="797" d="M281 455 C281 490 264 519 234 538 C261 557 277 585 277 618 C277 676 234 722 159 722 C112 722 73 700 52 670 L104 621 C123 640 135 644 152 644 C173 644 190 627 190 608 C190 583 175 566 136 566 L110 566 L110 509 L136 509 C178 509 194 493 194 466 C194 443 176 425 152 425 C133 425 119 433 99 454 L45 408 C65 373 107 348 159 348 C237 348 281 393 281 455 L281 455 Z M555 715 L153 0 L217 0 L619 715 L555 715 Z M752 158 L718 158 L718 360 L626 360 L491 132 L491 86 L636 86 L636 0 L718 0 L718 86 L752 86 L752 158 Z M572 158 L636 271 L636 158 L572 158 Z " />
<glyph glyph-name="questiondown" unicode="&#xbf;" horiz-adv-x="500" d="M297 508 C249 508 214 471 214 424 C214 377 249 340 297 340 C346 340 381 377 381 424 C381 471 346 508 297 508 L297 508 Z M323 265 L188 265 L96 111 C55 43 35 -4 35 -58 C35 -158 114 -235 244 -235 C387 -235 465 -151 465 -28 L339 -28 C339 -83 305 -121 250 -121 C198 -121 169 -87 169 -51 C169 -20 184 12 207 53 L323 265 Z " />
<glyph glyph-name="Agrave" unicode="&#xc0;" horiz-adv-x="740" d="M427 777 L403 917 L273 917 L313 777 L427 777 Z M567 0 L735 0 L434 715 L307 715 L5 0 L159 0 L225 169 L503 169 L567 0 Z M273 291 L366 528 L457 291 L273 291 Z " />
<glyph glyph-name="Aacute" unicode="&#xc1;" horiz-adv-x="740" d="M467 917 L337 917 L313 777 L427 777 L467 917 Z M567 0 L735 0 L434 715 L307 715 L5 0 L159 0 L225 169 L503 169 L567 0 Z M273 291 L366 528 L457 291 L273 291 Z " />
<glyph glyph-name="Acircumflex" unicode="&#xc2;" horiz-adv-x="740" d="M370 854 L415 777 L514 777 L444 917 L294 917 L224 777 L323 777 L370 854 Z M567 0 L735 0 L434 715 L307 715 L5 0 L159 0 L225 169 L503 169 L567 0 Z M273 291 L366 528 L457 291 L273 291 Z " />
<glyph glyph-name="Atilde" unicode="&#xc3;" horiz-adv-x="740" d="M453 795 C491 795 514 820 514 820 L514 898 C514 898 491 878 453 878 C385 878 352 910 284 910 C246 910 224 884 224 884 L224 807 C224 807 246 826 284 826 C352 826 385 795 453 795 L453 795 Z M567 0 L735 0 L434 715 L307 715 L5 0 L159 0 L225 169 L503 169 L567 0 Z M273 291 L366 528 L457 291 L273 291 Z " />
<glyph glyph-name="Adieresis" unicode="&#xc4;" horiz-adv-x="740" d="M284 782 C321 782 349 810 349 847 C349 884 321 912 284 912 C247 912 219 884 219 847 C219 810 247 782 284 782 L284 782 Z M457 782 C494 782 522 810 522 847 C522 884 494 912 457 912 C419 912 392 884 392 847 C392 810 419 782 457 782 L457 782 Z M567 0 L735 0 L434 715 L307 715 L5 0 L159 0 L225 169 L503 169 L567 0 Z M273 291 L366 528 L457 291 L273 291 Z " />
<glyph glyph-name="Aring" unicode="&#xc5;" horiz-adv-x="740" d="M567 0 L735 0 L434 715 L413 715 C453 731 480 769 480 815 C480 875 432 922 370 922 C308 922 261 875 261 815 C261 769 288 731 328 715 L307 715 L5 0 L159 0 L225 169 L503 169 L567 0 Z M370 856 C393 856 411 837 411 815 C411 792 393 774 370 774 C348 774 329 792 329 815 C329 837 348 856 370 856 L370 856 Z M273 291 L366 528 L457 291 L273 291 Z " />
<glyph glyph-name="AE" unicode="&#xc6;" horiz-adv-x="918" d="M679 133 L606 307 L870 307 L870 430 L554 430 L490 582 L845 582 L845 715 L307 715 L5 0 L159 0 L226 169 L502 169 L567 0 L875 0 L875 133 L679 133 Z M275 291 L367 522 L455 291 L275 291 Z " />
<glyph glyph-name="Ccedilla" unicode="&#xc7;" horiz-adv-x="761" d="M726 160 L609 238 C567 169 497 122 411 122 C281 122 180 225 180 358 C180 490 281 593 411 593 C496 593 565 548 607 481 L721 562 C653 664 545 730 411 730 C200 730 35 567 35 358 C35 159 183 3 378 -14 L344 -85 L377 -108 C377 -108 388 -98 405 -98 C424 -98 438 -109 438 -125 C438 -143 422 -155 400 -155 C367 -155 344 -136 344 -136 L316 -188 C316 -188 352 -220 409 -220 C483 -220 524 -177 524 -128 C524 -81 491 -44 433 -41 L445 -14 C566 -3 664 63 726 160 L726 160 Z " />
<glyph glyph-name="Egrave" unicode="&#xc8;" horiz-adv-x="543" d="M327 777 L303 917 L173 917 L213 777 L327 777 Z M215 133 L215 307 L495 307 L495 430 L215 430 L215 582 L470 582 L470 715 L70 715 L70 0 L500 0 L500 133 L215 133 Z " />
<glyph glyph-name="Eacute" unicode="&#xc9;" horiz-adv-x="543" d="M367 917 L237 917 L213 777 L327 777 L367 917 Z M215 133 L215 307 L495 307 L495 430 L215 430 L215 582 L470 582 L470 715 L70 715 L70 0 L500 0 L500 133 L215 133 Z " />
<glyph glyph-name="Ecircumflex" unicode="&#xca;" horiz-adv-x="543" d="M270 854 L315 777 L414 777 L344 917 L194 917 L124 777 L223 777 L270 854 Z M215 133 L215 307 L495 307 L495 430 L215 430 L215 582 L470 582 L470 715 L70 715 L70 0 L500 0 L500 133 L215 133 Z " />
<glyph glyph-name="Edieresis" unicode="&#xcb;" horiz-adv-x="543" d="M184 782 C221 782 249 810 249 847 C249 884 221 912 184 912 C147 912 119 884 119 847 C119 810 147 782 184 782 L184 782 Z M357 782 C394 782 422 810 422 847 C422 884 394 912 357 912 C319 912 292 884 292 847 C292 810 319 782 357 782 L357 782 Z M215 133 L215 307 L495 307 L495 430 L215 430 L215 582 L470 582 L470 715 L70 715 L70 0 L500 0 L500 133 L215 133 Z " />
<glyph glyph-name="Igrave" unicode="&#xcc;" horiz-adv-x="305" d="M210 777 L186 917 L56 917 L96 777 L210 777 Z M80 0 L225 0 L225 715 L80 715 L80 0 Z " />
<glyph glyph-name="Iacute" unicode="&#xcd;" horiz-adv-x="305" d="M96 777 L210 777 L250 917 L120 917 L96 777 Z M80 0 L225 0 L225 715 L80 715 L80 0 Z " />
<glyph glyph-name="Icircumflex" unicode="&#xce;" horiz-adv-x="305" d="M7 777 L106 777 L153 854 L198 777 L297 777 L227 917 L77 917 L7 777 Z M80 0 L225 0 L225 715 L80 715 L80 0 Z " />
<glyph glyph-name="Idieresis" unicode="&#xcf;" horiz-adv-x="305" d="M67 782 C104 782 132 810 132 847 C132 884 104 912 67 912 C30 912 2 884 2 847 C2 810 30 782 67 782 L67 782 Z M240 782 C277 782 305 810 305 847 C305 884 277 912 240 912 C202 912 175 884 175 847 C175 810 202 782 240 782 L240 782 Z M80 0 L225 0 L225 715 L80 715 L80 0 Z " />
<glyph glyph-name="Eth" unicode="&#xd0;" horiz-adv-x="655" d="M270 715 L70 715 L70 386 L0 386 L0 324 L70 324 L70 0 L270 0 C502 0 620 154 620 358 C620 561 502 715 270 715 L270 715 Z M270 133 L215 133 L215 324 L340 324 L340 386 L215 386 L215 582 L270 582 C412 582 475 490 475 358 C475 225 412 133 270 133 L270 133 Z " />
<glyph glyph-name="Ntilde" unicode="&#xd1;" horiz-adv-x="740" d="M214 807 C214 807 236 826 274 826 C342 826 375 795 443 795 C481 795 504 820 504 820 L504 898 C504 898 481 878 443 878 C375 878 342 910 274 910 C236 910 214 884 214 884 L214 807 Z M544 0 L670 0 L670 715 L528 715 L528 263 L196 715 L70 715 L70 0 L213 0 L213 460 L544 0 Z " />
<glyph glyph-name="Ograve" unicode="&#xd2;" horiz-adv-x="823" d="M468 777 L444 917 L314 917 L354 777 L468 777 Z M411 -15 C623 -15 788 148 788 358 C788 567 623 730 411 730 C200 730 35 567 35 358 C35 148 200 -15 411 -15 L411 -15 Z M411 122 C281 122 180 225 180 358 C180 490 281 593 411 593 C542 593 643 490 643 358 C643 225 542 122 411 122 L411 122 Z " />
<glyph glyph-name="Oacute" unicode="&#xd3;" horiz-adv-x="823" d="M354 777 L468 777 L508 917 L378 917 L354 777 Z M411 -15 C623 -15 788 148 788 358 C788 567 623 730 411 730 C200 730 35 567 35 358 C35 148 200 -15 411 -15 L411 -15 Z M411 122 C281 122 180 225 180 358 C180 490 281 593 411 593 C542 593 643 490 643 358 C643 225 542 122 411 122 L411 122 Z " />
<glyph glyph-name="Ocircumflex" unicode="&#xd4;" horiz-adv-x="823" d="M265 777 L364 777 L411 854 L456 777 L555 777 L485 917 L335 917 L265 777 Z M411 -15 C623 -15 788 148 788 358 C788 567 623 730 411 730 C200 730 35 567 35 358 C35 148 200 -15 411 -15 L411 -15 Z M411 122 C281 122 180 225 180 358 C180 490 281 593 411 593 C542 593 643 490 643 358 C643 225 542 122 411 122 L411 122 Z " />
<glyph glyph-name="Otilde" unicode="&#xd5;" horiz-adv-x="823" d="M265 807 C265 807 287 826 325 826 C393 826 426 795 494 795 C532 795 555 820 555 820 L555 898 C555 898 532 878 494 878 C426 878 393 910 325 910 C287 910 265 884 265 884 L265 807 Z M411 -15 C623 -15 788 148 788 358 C788 567 623 730 411 730 C200 730 35 567 35 358 C35 148 200 -15 411 -15 L411 -15 Z M411 122 C281 122 180 225 180 358 C180 490 281 593 411 593 C542 593 643 490 643 358 C643 225 542 122 411 122 L411 122 Z " />
<glyph glyph-name="Odieresis" unicode="&#xd6;" horiz-adv-x="823" d="M325 782 C362 782 390 810 390 847 C390 884 362 912 325 912 C288 912 260 884 260 847 C260 810 288 782 325 782 L325 782 Z M498 782 C535 782 563 810 563 847 C563 884 535 912 498 912 C460 912 433 884 433 847 C433 810 460 782 498 782 L498 782 Z M411 -15 C623 -15 788 148 788 358 C788 567 623 730 411 730 C200 730 35 567 35 358 C35 148 200 -15 411 -15 L411 -15 Z M411 122 C281 122 180 225 180 358 C180 490 281 593 411 593 C542 593 643 490 643 358 C643 225 542 122 411 122 L411 122 Z " />
<glyph glyph-name="multiply" unicode="&#xd7;" horiz-adv-x="583" d="M485 432 L398 518 L276 396 L154 518 L68 432 L190 310 L68 188 L154 101 L276 223 L398 101 L485 188 L363 310 L485 432 Z " />
<glyph glyph-name="Oslash" unicode="&#xd8;" horiz-adv-x="823" d="M788 715 L708 715 L647 650 C583 700 501 730 411 730 C200 730 35 567 35 358 C35 259 72 170 133 104 L35 0 L114 0 L175 65 C239 15 321 -15 411 -15 C623 -15 788 148 788 358 C788 457 751 545 690 611 L788 715 Z M176 358 C176 492 279 597 411 597 C465 597 514 580 553 550 L228 205 C195 246 176 299 176 358 L176 358 Z M646 358 C646 223 544 118 411 118 C357 118 309 135 269 165 L594 510 C627 469 646 416 646 358 L646 358 Z " />
<glyph glyph-name="Ugrave" unicode="&#xd9;" horiz-adv-x="653" d="M383 777 L359 917 L229 917 L269 777 L383 777 Z M326 -15 C485 -15 589 90 589 256 L589 715 L444 715 L444 260 C444 180 400 130 326 130 C253 130 209 180 209 260 L209 715 L64 715 L64 256 C64 90 168 -15 326 -15 L326 -15 Z " />
<glyph glyph-name="Uacute" unicode="&#xda;" horiz-adv-x="653" d="M269 777 L383 777 L423 917 L293 917 L269 777 Z M326 -15 C485 -15 589 90 589 256 L589 715 L444 715 L444 260 C444 180 400 130 326 130 C253 130 209 180 209 260 L209 715 L64 715 L64 256 C64 90 168 -15 326 -15 L326 -15 Z " />
<glyph glyph-name="Ucircumflex" unicode="&#xdb;" horiz-adv-x="653" d="M180 777 L279 777 L326 854 L371 777 L470 777 L400 917 L250 917 L180 777 Z M326 -15 C485 -15 589 90 589 256 L589 715 L444 715 L444 260 C444 180 400 130 326 130 C253 130 209 180 209 260 L209 715 L64 715 L64 256 C64 90 168 -15 326 -15 L326 -15 Z " />
<glyph glyph-name="Udieresis" unicode="&#xdc;" horiz-adv-x="653" d="M240 782 C277 782 305 810 305 847 C305 884 277 912 240 912 C203 912 175 884 175 847 C175 810 203 782 240 782 L240 782 Z M413 782 C450 782 478 810 478 847 C478 884 450 912 413 912 C375 912 348 884 348 847 C348 810 375 782 413 782 L413 782 Z M326 -15 C485 -15 589 90 589 256 L589 715 L444 715 L444 260 C444 180 400 130 326 130 C253 130 209 180 209 260 L209 715 L64 715 L64 256 C64 90 168 -15 326 -15 L326 -15 Z " />
<glyph glyph-name="Yacute" unicode="&#xdd;" horiz-adv-x="610" d="M256 777 L370 777 L410 917 L280 917 L256 777 Z M233 0 L378 0 L378 334 L615 715 L460 715 L313 478 L165 715 L-5 715 L233 334 L233 0 Z " />
<glyph glyph-name="Thorn" unicode="&#xde;" horiz-adv-x="553" d="M291 584 L215 584 L215 715 L70 715 L70 0 L215 0 L215 152 L291 152 C429 152 518 251 518 368 C518 484 429 584 291 584 L291 584 Z M276 274 L215 274 L215 458 L276 458 C336 458 376 419 376 366 C376 313 336 274 276 274 L276 274 Z " />
<glyph glyph-name="germandbls" unicode="&#xdf;" horiz-adv-x="570" d="M485 589 C485 663 417 755 275 755 C133 755 58 671 58 528 L58 0 L188 0 L188 539 C188 603 219 641 275 641 C326 641 355 607 355 566 C355 504 275 469 275 374 C275 269 415 231 415 160 C415 120 388 96 349 96 C308 96 277 119 277 119 L235 21 C235 21 296 -15 362 -15 C466 -15 545 52 545 158 C545 287 400 334 400 398 C400 458 485 497 485 589 L485 589 Z " />
<glyph glyph-name="agrave" unicode="&#xe0;" horiz-adv-x="586" d="M351 567 L327 707 L197 707 L237 567 L351 567 Z M406 463 L402 404 C372 450 324 478 256 478 C127 478 29 370 29 231 C29 93 127 -15 256 -15 C324 -15 372 13 402 59 L406 0 L529 0 L529 463 L406 463 Z M279 111 C211 111 159 164 159 231 C159 299 211 352 279 352 C347 352 399 299 399 231 C399 164 347 111 279 111 L279 111 Z " />
<glyph glyph-name="aacute" unicode="&#xe1;" horiz-adv-x="586" d="M391 707 L261 707 L237 567 L351 567 L391 707 Z M406 463 L402 404 C372 450 324 478 256 478 C127 478 29 370 29 231 C29 93 127 -15 256 -15 C324 -15 372 13 402 59 L406 0 L529 0 L529 463 L406 463 Z M279 111 C211 111 159 164 159 231 C159 299 211 352 279 352 C347 352 399 299 399 231 C399 164 347 111 279 111 L279 111 Z " />
<glyph glyph-name="acircumflex" unicode="&#xe2;" horiz-adv-x="586" d="M294 644 L339 567 L438 567 L368 707 L218 707 L148 567 L247 567 L294 644 Z M406 463 L402 404 C372 450 324 478 256 478 C127 478 29 370 29 231 C29 93 127 -15 256 -15 C324 -15 372 13 402 59 L406 0 L529 0 L529 463 L406 463 Z M279 111 C211 111 159 164 159 231 C159 299 211 352 279 352 C347 352 399 299 399 231 C399 164 347 111 279 111 L279 111 Z " />
<glyph glyph-name="atilde" unicode="&#xe3;" horiz-adv-x="586" d="M377 585 C415 585 438 610 438 610 L438 688 C438 688 415 668 377 668 C309 668 276 700 208 700 C170 700 148 674 148 674 L148 597 C148 597 170 616 208 616 C276 616 309 585 377 585 L377 585 Z M406 463 L402 404 C372 450 324 478 256 478 C127 478 29 370 29 231 C29 93 127 -15 256 -15 C324 -15 372 13 402 59 L406 0 L529 0 L529 463 L406 463 Z M279 111 C211 111 159 164 159 231 C159 299 211 352 279 352 C347 352 399 299 399 231 C399 164 347 111 279 111 L279 111 Z " />
<glyph glyph-name="adieresis" unicode="&#xe4;" horiz-adv-x="586" d="M208 572 C245 572 273 600 273 637 C273 674 245 702 208 702 C171 702 143 674 143 637 C143 600 171 572 208 572 L208 572 Z M381 572 C418 572 446 600 446 637 C446 674 418 702 381 702 C343 702 316 674 316 637 C316 600 343 572 381 572 L381 572 Z M406 463 L402 404 C372 450 324 478 256 478 C127 478 29 370 29 231 C29 93 127 -15 256 -15 C324 -15 372 13 402 59 L406 0 L529 0 L529 463 L406 463 Z M279 111 C211 111 159 164 159 231 C159 299 211 352 279 352 C347 352 399 299 399 231 C399 164 347 111 279 111 L279 111 Z " />
<glyph glyph-name="aring" unicode="&#xe5;" horiz-adv-x="586" d="M294 497 C356 497 404 544 404 605 C404 665 356 712 294 712 C232 712 185 665 185 605 C185 544 232 497 294 497 L294 497 Z M294 646 C317 646 335 627 335 605 C335 582 317 564 294 564 C272 564 253 582 253 605 C253 627 272 646 294 646 L294 646 Z M406 463 L402 404 C372 450 324 478 256 478 C127 478 29 370 29 231 C29 93 127 -15 256 -15 C324 -15 372 13 402 59 L406 0 L529 0 L529 463 L406 463 Z M279 111 C211 111 159 164 159 231 C159 299 211 352 279 352 C347 352 399 299 399 231 C399 164 347 111 279 111 L279 111 Z " />
<glyph glyph-name="ae" unicode="&#xe6;" horiz-adv-x="920" d="M892 242 C892 373 796 478 670 478 C602 478 556 450 526 404 L522 463 L407 463 L402 404 C372 450 325 478 257 478 C127 478 29 370 29 232 C29 93 127 -15 257 -15 C325 -15 372 13 402 59 L407 0 L522 0 L526 60 C556 13 603 -15 672 -15 C756 -15 830 38 872 119 L758 169 C740 133 698 107 649 107 C589 107 541 147 531 208 L889 208 C889 208 892 224 892 242 L892 242 Z M648 373 C700 373 738 347 755 295 L539 295 C557 346 598 373 648 373 L648 373 Z M279 111 C211 111 159 164 159 232 C159 299 211 352 279 352 C347 352 399 299 399 232 C399 164 347 111 279 111 L279 111 Z " />
<glyph glyph-name="ccedilla" unicode="&#xe7;" horiz-adv-x="500" d="M489 105 L381 168 C361 134 324 111 279 111 C211 111 159 164 159 231 C159 299 211 352 279 352 C321 352 356 331 378 300 L483 370 C439 435 367 478 279 478 C138 478 29 370 29 231 C29 104 121 2 246 -13 L212 -85 L245 -108 C245 -108 256 -98 273 -98 C292 -98 306 -109 306 -125 C306 -143 290 -155 268 -155 C235 -155 212 -136 212 -136 L184 -188 C184 -188 220 -220 277 -220 C351 -220 392 -177 392 -128 C392 -81 359 -44 301 -41 L313 -13 C390 -2 451 43 489 105 L489 105 Z " />
<glyph glyph-name="egrave" unicode="&#xe8;" horiz-adv-x="550" d="M334 567 L310 707 L180 707 L220 567 L334 567 Z M522 242 C522 373 419 478 278 478 C137 478 29 370 29 232 C29 93 138 -15 279 -15 C378 -15 460 38 502 119 L388 169 C370 133 328 107 279 107 C219 107 171 147 161 208 L519 208 C519 208 522 224 522 242 L522 242 Z M278 373 C330 373 368 346 385 295 L169 295 C187 346 228 373 278 373 L278 373 Z " />
<glyph glyph-name="eacute" unicode="&#xe9;" horiz-adv-x="550" d="M374 707 L244 707 L220 567 L334 567 L374 707 Z M522 242 C522 373 419 478 278 478 C137 478 29 370 29 232 C29 93 138 -15 279 -15 C378 -15 460 38 502 119 L388 169 C370 133 328 107 279 107 C219 107 171 147 161 208 L519 208 C519 208 522 224 522 242 L522 242 Z M278 373 C330 373 368 346 385 295 L169 295 C187 346 228 373 278 373 L278 373 Z " />
<glyph glyph-name="ecircumflex" unicode="&#xea;" horiz-adv-x="550" d="M277 644 L322 567 L421 567 L351 707 L201 707 L131 567 L230 567 L277 644 Z M522 242 C522 373 419 478 278 478 C137 478 29 370 29 232 C29 93 138 -15 279 -15 C378 -15 460 38 502 119 L388 169 C370 133 328 107 279 107 C219 107 171 147 161 208 L519 208 C519 208 522 224 522 242 L522 242 Z M278 373 C330 373 368 346 385 295 L169 295 C187 346 228 373 278 373 L278 373 Z " />
<glyph glyph-name="edieresis" unicode="&#xeb;" horiz-adv-x="550" d="M191 572 C228 572 256 600 256 637 C256 674 228 702 191 702 C154 702 126 674 126 637 C126 600 154 572 191 572 L191 572 Z M364 572 C401 572 429 600 429 637 C429 674 401 702 364 702 C326 702 299 674 299 637 C299 600 326 572 364 572 L364 572 Z M522 242 C522 373 419 478 278 478 C137 478 29 370 29 232 C29 93 138 -15 279 -15 C378 -15 460 38 502 119 L388 169 C370 133 328 107 279 107 C219 107 171 147 161 208 L519 208 C519 208 522 224 522 242 L522 242 Z M278 373 C330 373 368 346 385 295 L169 295 C187 346 228 373 278 373 L278 373 Z " />
<glyph glyph-name="igrave" unicode="&#xec;" horiz-adv-x="258" d="M186 567 L162 707 L32 707 L72 567 L186 567 Z M64 0 L194 0 L194 463 L64 463 L64 0 Z " />
<glyph glyph-name="iacute" unicode="&#xed;" horiz-adv-x="258" d="M72 567 L186 567 L226 707 L96 707 L72 567 Z M64 0 L194 0 L194 463 L64 463 L64 0 Z " />
<glyph glyph-name="icircumflex" unicode="&#xee;" horiz-adv-x="258" d="M-17 567 L82 567 L129 644 L174 567 L273 567 L203 707 L53 707 L-17 567 Z M64 0 L194 0 L194 463 L64 463 L64 0 Z " />
<glyph glyph-name="idieresis" unicode="&#xef;" horiz-adv-x="258" d="M43 572 C80 572 108 600 108 637 C108 674 80 702 43 702 C6 702 -22 674 -22 637 C-22 600 6 572 43 572 L43 572 Z M216 572 C253 572 281 600 281 637 C281 674 253 702 216 702 C178 702 151 674 151 637 C151 600 178 572 216 572 L216 572 Z M64 0 L194 0 L194 463 L64 463 L64 0 Z " />
<glyph glyph-name="eth" unicode="&#xf0;" horiz-adv-x="558" d="M419 615 L475 641 L453 686 L386 655 C354 689 316 723 270 755 L195 664 C224 644 249 623 272 602 L172 556 L194 511 L310 565 C371 499 407 432 426 373 C397 430 346 470 263 470 C133 470 29 363 29 228 C29 91 138 -15 279 -15 C425 -15 529 92 529 271 C529 381 507 501 419 615 L419 615 Z M279 111 C211 111 159 164 159 231 C159 299 211 352 279 352 C347 352 399 299 399 231 C399 164 347 111 279 111 L279 111 Z " />
<glyph glyph-name="ntilde" unicode="&#xf1;" horiz-adv-x="511" d="M339 585 C377 585 400 610 400 610 L400 688 C400 688 377 668 339 668 C271 668 238 700 170 700 C132 700 110 674 110 674 L110 597 C110 597 132 616 170 616 C238 616 271 585 339 585 L339 585 Z M319 478 C261 478 222 453 184 411 L180 463 L58 463 L58 0 L188 0 L188 298 C211 332 240 351 269 351 C307 351 330 330 330 283 L330 0 L460 0 L460 330 C460 424 406 478 319 478 L319 478 Z " />
<glyph glyph-name="ograve" unicode="&#xf2;" horiz-adv-x="558" d="M336 567 L312 707 L182 707 L222 567 L336 567 Z M279 -15 C420 -15 529 93 529 231 C529 370 420 478 279 478 C138 478 29 370 29 231 C29 93 138 -15 279 -15 L279 -15 Z M279 111 C211 111 159 164 159 231 C159 299 211 352 279 352 C347 352 399 299 399 231 C399 164 347 111 279 111 L279 111 Z " />
<glyph glyph-name="oacute" unicode="&#xf3;" horiz-adv-x="558" d="M222 567 L336 567 L376 707 L246 707 L222 567 Z M279 -15 C420 -15 529 93 529 231 C529 370 420 478 279 478 C138 478 29 370 29 231 C29 93 138 -15 279 -15 L279 -15 Z M279 111 C211 111 159 164 159 231 C159 299 211 352 279 352 C347 352 399 299 399 231 C399 164 347 111 279 111 L279 111 Z " />
<glyph glyph-name="ocircumflex" unicode="&#xf4;" horiz-adv-x="558" d="M133 567 L232 567 L279 644 L324 567 L423 567 L353 707 L203 707 L133 567 Z M279 -15 C420 -15 529 93 529 231 C529 370 420 478 279 478 C138 478 29 370 29 231 C29 93 138 -15 279 -15 L279 -15 Z M279 111 C211 111 159 164 159 231 C159 299 211 352 279 352 C347 352 399 299 399 231 C399 164 347 111 279 111 L279 111 Z " />
<glyph glyph-name="otilde" unicode="&#xf5;" horiz-adv-x="558" d="M133 597 C133 597 155 616 193 616 C261 616 294 585 362 585 C400 585 423 610 423 610 L423 688 C423 688 400 668 362 668 C294 668 261 700 193 700 C155 700 133 674 133 674 L133 597 Z M279 -15 C420 -15 529 93 529 231 C529 370 420 478 279 478 C138 478 29 370 29 231 C29 93 138 -15 279 -15 L279 -15 Z M279 111 C211 111 159 164 159 231 C159 299 211 352 279 352 C347 352 399 299 399 231 C399 164 347 111 279 111 L279 111 Z " />
<glyph glyph-name="odieresis" unicode="&#xf6;" horiz-adv-x="558" d="M193 572 C230 572 258 600 258 637 C258 674 230 702 193 702 C156 702 128 674 128 637 C128 600 156 572 193 572 L193 572 Z M366 572 C403 572 431 600 431 637 C431 674 403 702 366 702 C328 702 301 674 301 637 C301 600 328 572 366 572 L366 572 Z M279 -15 C420 -15 529 93 529 231 C529 370 420 478 279 478 C138 478 29 370 29 231 C29 93 138 -15 279 -15 L279 -15 Z M279 111 C211 111 159 164 159 231 C159 299 211 352 279 352 C347 352 399 299 399 231 C399 164 347 111 279 111 L279 111 Z " />
<glyph glyph-name="divide" unicode="&#xf7;" horiz-adv-x="553" d="M276 420 C325 420 360 457 360 504 C360 551 325 588 276 588 C228 588 193 551 193 504 C193 457 228 420 276 420 L276 420 Z M50 249 L503 249 L503 371 L50 371 L50 249 Z M276 32 C325 32 360 69 360 116 C360 163 325 200 276 200 C228 200 193 163 193 116 C193 69 228 32 276 32 L276 32 Z " />
<glyph glyph-name="oslash" unicode="&#xf8;" horiz-adv-x="558" d="M529 463 L453 463 L425 433 C385 461 334 478 279 478 C138 478 29 370 29 231 C29 168 52 110 91 67 L29 0 L104 0 L132 30 C173 2 223 -15 279 -15 C420 -15 529 93 529 231 C529 295 506 352 467 396 L529 463 Z M151 231 C151 304 207 359 279 359 C303 359 324 353 343 343 L173 158 C159 178 151 203 151 231 L151 231 Z M406 231 C406 159 351 103 279 103 C255 103 233 109 214 120 L384 305 C398 284 406 259 406 231 L406 231 Z " />
<glyph glyph-name="ugrave" unicode="&#xf9;" horiz-adv-x="505" d="M308 567 L284 707 L154 707 L194 567 L308 567 Z M253 -15 C368 -15 454 64 454 186 L454 463 L324 463 L324 184 C324 140 295 111 253 111 C211 111 181 140 181 184 L181 463 L51 463 L51 186 C51 64 137 -15 253 -15 L253 -15 Z " />
<glyph glyph-name="uacute" unicode="&#xfa;" horiz-adv-x="505" d="M194 567 L308 567 L348 707 L218 707 L194 567 Z M253 -15 C368 -15 454 64 454 186 L454 463 L324 463 L324 184 C324 140 295 111 253 111 C211 111 181 140 181 184 L181 463 L51 463 L51 186 C51 64 137 -15 253 -15 L253 -15 Z " />
<glyph glyph-name="ucircumflex" unicode="&#xfb;" horiz-adv-x="505" d="M105 567 L204 567 L251 644 L296 567 L395 567 L325 707 L175 707 L105 567 Z M253 -15 C368 -15 454 64 454 186 L454 463 L324 463 L324 184 C324 140 295 111 253 111 C211 111 181 140 181 184 L181 463 L51 463 L51 186 C51 64 137 -15 253 -15 L253 -15 Z " />
<glyph glyph-name="udieresis" unicode="&#xfc;" horiz-adv-x="505" d="M165 572 C202 572 230 600 230 637 C230 674 202 702 165 702 C128 702 100 674 100 637 C100 600 128 572 165 572 L165 572 Z M338 572 C375 572 403 600 403 637 C403 674 375 702 338 702 C300 702 273 674 273 637 C273 600 300 572 338 572 L338 572 Z M253 -15 C368 -15 454 64 454 186 L454 463 L324 463 L324 184 C324 140 295 111 253 111 C211 111 181 140 181 184 L181 463 L51 463 L51 186 C51 64 137 -15 253 -15 L253 -15 Z " />
<glyph glyph-name="yacute" unicode="&#xfd;" horiz-adv-x="480" d="M345 665 L215 665 L191 525 L305 525 L345 665 Z M347 463 L245 189 L148 463 L3 463 L176 26 L75 -220 L206 -220 L478 463 L347 463 Z " />
<glyph glyph-name="thorn" unicode="&#xfe;" horiz-adv-x="586" d="M330 478 C265 478 218 452 188 409 L188 740 L58 740 L58 -220 L188 -220 L188 54 C218 11 265 -15 330 -15 C460 -15 558 93 558 231 C558 370 460 478 330 478 L330 478 Z M308 111 C240 111 188 164 188 231 C188 299 240 352 308 352 C375 352 428 299 428 231 C428 164 375 111 308 111 L308 111 Z " />
<glyph glyph-name="ydieresis" unicode="&#xff;" horiz-adv-x="480" d="M162 530 C199 530 227 558 227 595 C227 632 199 660 162 660 C125 660 97 632 97 595 C97 558 125 530 162 530 L162 530 Z M335 530 C372 530 400 558 400 595 C400 632 372 660 335 660 C297 660 270 632 270 595 C270 558 297 530 335 530 L335 530 Z M347 463 L245 189 L148 463 L3 463 L176 26 L75 -220 L206 -220 L478 463 L347 463 Z " />
<glyph glyph-name="Amacron" unicode="&#x100;" horiz-adv-x="740" d="M514 894 L224 894 L224 810 L514 810 L514 894 Z M567 0 L735 0 L434 715 L307 715 L5 0 L159 0 L225 169 L503 169 L567 0 Z M273 291 L366 528 L457 291 L273 291 Z " />
<glyph glyph-name="amacron" unicode="&#x101;" horiz-adv-x="586" d="M438 684 L148 684 L148 600 L438 600 L438 684 Z M406 463 L402 404 C372 450 324 478 256 478 C127 478 29 370 29 231 C29 93 127 -15 256 -15 C324 -15 372 13 402 59 L406 0 L529 0 L529 463 L406 463 Z M279 111 C211 111 159 164 159 231 C159 299 211 352 279 352 C347 352 399 299 399 231 C399 164 347 111 279 111 L279 111 Z " />
<glyph glyph-name="Abreve" unicode="&#x102;" horiz-adv-x="740" d="M370 777 C455 777 509 834 509 917 L417 917 C417 878 400 854 370 854 C338 854 321 878 321 917 L229 917 C229 834 283 777 370 777 L370 777 Z M567 0 L735 0 L434 715 L307 715 L5 0 L159 0 L225 169 L503 169 L567 0 Z M273 291 L366 528 L457 291 L273 291 Z " />
<glyph glyph-name="abreve" unicode="&#x103;" horiz-adv-x="586" d="M294 567 C379 567 433 624 433 707 L341 707 C341 668 324 644 294 644 C262 644 245 668 245 707 L153 707 C153 624 207 567 294 567 L294 567 Z M406 463 L402 404 C372 450 324 478 256 478 C127 478 29 370 29 231 C29 93 127 -15 256 -15 C324 -15 372 13 402 59 L406 0 L529 0 L529 463 L406 463 Z M279 111 C211 111 159 164 159 231 C159 299 211 352 279 352 C347 352 399 299 399 231 C399 164 347 111 279 111 L279 111 Z " />
<glyph glyph-name="Aogonek" unicode="&#x104;" horiz-adv-x="740" d="M730 -107 C730 -107 708 -134 678 -134 C657 -134 641 -119 641 -97 C641 -65 673 -40 735 0 L434 715 L307 715 L5 0 L159 0 L225 169 L503 169 L567 0 L633 0 C589 -29 553 -68 553 -121 C553 -184 601 -225 665 -225 C738 -225 779 -168 779 -168 L730 -107 Z M273 291 L366 528 L457 291 L273 291 Z " />
<glyph glyph-name="aogonek" unicode="&#x105;" horiz-adv-x="586" d="M524 -107 C524 -107 502 -134 472 -134 C451 -134 435 -119 435 -97 C435 -65 467 -40 529 0 L529 463 L406 463 L402 404 C372 450 324 478 256 478 C127 478 29 370 29 231 C29 93 127 -15 256 -15 C324 -15 372 13 402 59 L406 0 L427 0 C383 -29 347 -68 347 -121 C347 -184 395 -225 459 -225 C532 -225 573 -168 573 -168 L524 -107 Z M279 111 C211 111 159 164 159 231 C159 299 211 352 279 352 C347 352 399 299 399 231 C399 164 347 111 279 111 L279 111 Z " />
<glyph glyph-name="Cacute" unicode="&#x106;" horiz-adv-x="761" d="M354 777 L468 777 L508 917 L378 917 L354 777 Z M411 -15 C548 -15 658 54 726 160 L609 238 C567 169 497 122 411 122 C281 122 180 225 180 358 C180 490 281 593 411 593 C496 593 565 548 607 481 L721 562 C653 664 545 730 411 730 C200 730 35 567 35 358 C35 148 200 -15 411 -15 L411 -15 Z " />
<glyph glyph-name="cacute" unicode="&#x107;" horiz-adv-x="500" d="M222 567 L336 567 L376 707 L246 707 L222 567 Z M279 -15 C372 -15 446 34 489 105 L381 168 C361 134 324 111 279 111 C211 111 159 164 159 231 C159 299 211 352 279 352 C321 352 356 331 378 300 L483 370 C439 435 367 478 279 478 C138 478 29 370 29 231 C29 93 138 -15 279 -15 L279 -15 Z " />
<glyph glyph-name="Ccircumflex" unicode="&#x108;" horiz-adv-x="761" d="M265 777 L364 777 L411 854 L456 777 L555 777 L485 917 L335 917 L265 777 Z M411 -15 C548 -15 658 54 726 160 L609 238 C567 169 497 122 411 122 C281 122 180 225 180 358 C180 490 281 593 411 593 C496 593 565 548 607 481 L721 562 C653 664 545 730 411 730 C200 730 35 567 35 358 C35 148 200 -15 411 -15 L411 -15 Z " />
<glyph glyph-name="ccircumflex" unicode="&#x109;" horiz-adv-x="500" d="M133 567 L232 567 L279 644 L324 567 L423 567 L353 707 L203 707 L133 567 Z M279 -15 C372 -15 446 34 489 105 L381 168 C361 134 324 111 279 111 C211 111 159 164 159 231 C159 299 211 352 279 352 C321 352 356 331 378 300 L483 370 C439 435 367 478 279 478 C138 478 29 370 29 231 C29 93 138 -15 279 -15 L279 -15 Z " />
<glyph glyph-name="Cdotaccent" unicode="&#x10a;" horiz-adv-x="761" d="M411 782 C448 782 476 810 476 847 C476 884 448 912 411 912 C374 912 346 884 346 847 C346 810 374 782 411 782 L411 782 Z M411 -15 C548 -15 658 54 726 160 L609 238 C567 169 497 122 411 122 C281 122 180 225 180 358 C180 490 281 593 411 593 C496 593 565 548 607 481 L721 562 C653 664 545 730 411 730 C200 730 35 567 35 358 C35 148 200 -15 411 -15 L411 -15 Z " />
<glyph glyph-name="cdotaccent" unicode="&#x10b;" horiz-adv-x="500" d="M279 572 C316 572 344 600 344 637 C344 674 316 702 279 702 C242 702 214 674 214 637 C214 600 242 572 279 572 L279 572 Z M279 -15 C372 -15 446 34 489 105 L381 168 C361 134 324 111 279 111 C211 111 159 164 159 231 C159 299 211 352 279 352 C321 352 356 331 378 300 L483 370 C439 435 367 478 279 478 C138 478 29 370 29 231 C29 93 138 -15 279 -15 L279 -15 Z " />
<glyph glyph-name="Ccaron" unicode="&#x10c;" horiz-adv-x="761" d="M265 917 L335 777 L485 777 L555 917 L456 917 L411 840 L364 917 L265 917 Z M411 -15 C548 -15 658 54 726 160 L609 238 C567 169 497 122 411 122 C281 122 180 225 180 358 C180 490 281 593 411 593 C496 593 565 548 607 481 L721 562 C653 664 545 730 411 730 C200 730 35 567 35 358 C35 148 200 -15 411 -15 L411 -15 Z " />
<glyph glyph-name="ccaron" unicode="&#x10d;" horiz-adv-x="500" d="M133 707 L203 567 L353 567 L423 707 L324 707 L279 630 L232 707 L133 707 Z M279 -15 C372 -15 446 34 489 105 L381 168 C361 134 324 111 279 111 C211 111 159 164 159 231 C159 299 211 352 279 352 C321 352 356 331 378 300 L483 370 C439 435 367 478 279 478 C138 478 29 370 29 231 C29 93 138 -15 279 -15 L279 -15 Z " />
<glyph glyph-name="Dcaron" unicode="&#x10e;" horiz-adv-x="655" d="M182 917 L252 777 L402 777 L472 917 L373 917 L328 840 L281 917 L182 917 Z M70 0 L270 0 C502 0 620 154 620 358 C620 561 502 715 270 715 L70 715 L70 0 Z M215 133 L215 582 L270 582 C412 582 475 490 475 358 C475 225 412 133 270 133 L215 133 Z " />
<glyph glyph-name="dcaron" unicode="&#x10f;" horiz-adv-x="748" d="M399 408 C369 452 322 478 256 478 C127 478 29 370 29 231 C29 93 127 -15 256 -15 C324 -15 372 13 402 59 L406 0 L529 0 L529 740 L399 740 L399 408 Z M617 715 L593 415 L708 415 L748 715 L617 715 Z M279 111 C211 111 159 164 159 231 C159 299 211 352 279 352 C347 352 399 299 399 231 C399 164 347 111 279 111 L279 111 Z " />
<glyph glyph-name="Dcroat" unicode="&#x110;" horiz-adv-x="655" d="M270 715 L70 715 L70 386 L0 386 L0 324 L70 324 L70 0 L270 0 C502 0 620 154 620 358 C620 561 502 715 270 715 L270 715 Z M270 133 L215 133 L215 324 L340 324 L340 386 L215 386 L215 582 L270 582 C412 582 475 490 475 358 C475 225 412 133 270 133 L270 133 Z " />
<glyph glyph-name="dcroat" unicode="&#x111;" horiz-adv-x="586" d="M586 640 L529 640 L529 740 L399 740 L399 640 L314 640 L314 578 L399 578 L399 408 C369 452 322 478 256 478 C127 478 29 370 29 231 C29 93 127 -15 256 -15 C324 -15 372 13 402 59 L406 0 L529 0 L529 578 L586 578 L586 640 Z M279 111 C211 111 159 164 159 231 C159 299 211 352 279 352 C347 352 399 299 399 231 C399 164 347 111 279 111 L279 111 Z " />
<glyph glyph-name="Emacron" unicode="&#x112;" horiz-adv-x="543" d="M414 894 L124 894 L124 810 L414 810 L414 894 Z M215 133 L215 307 L495 307 L495 430 L215 430 L215 582 L470 582 L470 715 L70 715 L70 0 L500 0 L500 133 L215 133 Z " />
<glyph glyph-name="emacron" unicode="&#x113;" horiz-adv-x="550" d="M421 684 L131 684 L131 600 L421 600 L421 684 Z M522 242 C522 373 419 478 278 478 C137 478 29 370 29 232 C29 93 138 -15 279 -15 C378 -15 460 38 502 119 L388 169 C370 133 328 107 279 107 C219 107 171 147 161 208 L519 208 C519 208 522 224 522 242 L522 242 Z M278 373 C330 373 368 346 385 295 L169 295 C187 346 228 373 278 373 L278 373 Z " />
<glyph glyph-name="Ebreve" unicode="&#x114;" horiz-adv-x="543" d="M270 777 C355 777 409 834 409 917 L317 917 C317 878 300 854 270 854 C238 854 221 878 221 917 L129 917 C129 834 183 777 270 777 L270 777 Z M215 133 L215 307 L495 307 L495 430 L215 430 L215 582 L470 582 L470 715 L70 715 L70 0 L500 0 L500 133 L215 133 Z " />
<glyph glyph-name="ebreve" unicode="&#x115;" horiz-adv-x="550" d="M277 567 C362 567 416 624 416 707 L324 707 C324 668 307 644 277 644 C245 644 228 668 228 707 L136 707 C136 624 190 567 277 567 L277 567 Z M522 242 C522 373 419 478 278 478 C137 478 29 370 29 232 C29 93 138 -15 279 -15 C378 -15 460 38 502 119 L388 169 C370 133 328 107 279 107 C219 107 171 147 161 208 L519 208 C519 208 522 224 522 242 L522 242 Z M278 373 C330 373 368 346 385 295 L169 295 C187 346 228 373 278 373 L278 373 Z " />
<glyph glyph-name="Edotaccent" unicode="&#x116;" horiz-adv-x="543" d="M270 782 C307 782 335 810 335 847 C335 884 307 912 270 912 C233 912 205 884 205 847 C205 810 233 782 270 782 L270 782 Z M215 133 L215 307 L495 307 L495 430 L215 430 L215 582 L470 582 L470 715 L70 715 L70 0 L500 0 L500 133 L215 133 Z " />
<glyph glyph-name="edotaccent" unicode="&#x117;" horiz-adv-x="550" d="M277 572 C314 572 342 600 342 637 C342 674 314 702 277 702 C240 702 212 674 212 637 C212 600 240 572 277 572 L277 572 Z M522 242 C522 373 419 478 278 478 C137 478 29 370 29 232 C29 93 138 -15 279 -15 C378 -15 460 38 502 119 L388 169 C370 133 328 107 279 107 C219 107 171 147 161 208 L519 208 C519 208 522 224 522 242 L522 242 Z M278 373 C330 373 368 346 385 295 L169 295 C187 346 228 373 278 373 L278 373 Z " />
<glyph glyph-name="Eogonek" unicode="&#x118;" horiz-adv-x="543" d="M495 -107 C495 -107 473 -134 443 -134 C422 -134 406 -119 406 -97 C406 -65 438 -40 500 0 L500 133 L215 133 L215 307 L495 307 L495 430 L215 430 L215 582 L470 582 L470 715 L70 715 L70 0 L398 0 C354 -29 318 -68 318 -121 C318 -184 366 -225 430 -225 C503 -225 544 -168 544 -168 L495 -107 Z " />
<glyph glyph-name="eogonek" unicode="&#x119;" horiz-adv-x="550" d="M522 242 C522 373 419 478 278 478 C137 478 29 370 29 232 C29 106 118 6 240 -12 C204 -40 177 -75 177 -121 C177 -184 225 -225 289 -225 C362 -225 403 -168 403 -168 L354 -107 C354 -107 332 -134 302 -134 C281 -134 265 -119 265 -97 C265 -66 294 -42 351 -5 C417 14 471 59 502 119 L388 169 C370 133 328 107 279 107 C219 107 171 147 161 208 L519 208 C519 208 522 224 522 242 L522 242 Z M278 373 C330 373 368 346 385 295 L169 295 C187 346 228 373 278 373 L278 373 Z " />
<glyph glyph-name="Ecaron" unicode="&#x11a;" horiz-adv-x="543" d="M344 777 L414 917 L315 917 L270 840 L223 917 L124 917 L194 777 L344 777 Z M215 133 L215 307 L495 307 L495 430 L215 430 L215 582 L470 582 L470 715 L70 715 L70 0 L500 0 L500 133 L215 133 Z " />
<glyph glyph-name="ecaron" unicode="&#x11b;" horiz-adv-x="550" d="M351 567 L421 707 L322 707 L277 630 L230 707 L131 707 L201 567 L351 567 Z M522 242 C522 373 419 478 278 478 C137 478 29 370 29 232 C29 93 138 -15 279 -15 C378 -15 460 38 502 119 L388 169 C370 133 328 107 279 107 C219 107 171 147 161 208 L519 208 C519 208 522 224 522 242 L522 242 Z M278 373 C330 373 368 346 385 295 L169 295 C187 346 228 373 278 373 L278 373 Z " />
<glyph glyph-name="Gcircumflex" unicode="&#x11c;" horiz-adv-x="804" d="M417 854 L462 777 L561 777 L491 917 L341 917 L271 777 L370 777 L417 854 Z M767 393 L301 393 L301 268 L619 268 C590 182 516 122 412 122 C281 122 180 226 180 358 C180 490 281 593 417 593 C487 593 548 566 590 525 L685 627 C619 691 525 730 417 730 C200 730 35 567 35 358 C35 148 200 -15 412 -15 C621 -15 769 146 769 353 C769 371 767 393 767 393 L767 393 Z " />
<glyph glyph-name="gcircumflex" unicode="&#x11d;" horiz-adv-x="586" d="M294 644 L339 567 L438 567 L368 707 L218 707 L148 567 L247 567 L294 644 Z M406 463 L402 405 C372 450 324 478 256 478 C127 478 29 371 29 239 C29 107 127 0 256 0 C322 0 369 26 399 68 L399 1 C399 -76 347 -121 282 -121 C218 -121 175 -84 175 -39 L45 -39 C45 -154 148 -235 280 -235 C420 -235 529 -143 529 1 L529 463 L406 463 Z M279 115 C211 115 159 167 159 235 C159 303 211 356 279 356 C347 356 399 303 399 235 C399 167 347 115 279 115 L279 115 Z " />
<glyph glyph-name="Gbreve" unicode="&#x11e;" horiz-adv-x="804" d="M417 777 C502 777 556 834 556 917 L464 917 C464 878 447 854 417 854 C385 854 368 878 368 917 L276 917 C276 834 330 777 417 777 L417 777 Z M767 393 L301 393 L301 268 L619 268 C590 182 516 122 412 122 C281 122 180 226 180 358 C180 490 281 593 417 593 C487 593 548 566 590 525 L685 627 C619 691 525 730 417 730 C200 730 35 567 35 358 C35 148 200 -15 412 -15 C621 -15 769 146 769 353 C769 371 767 393 767 393 L767 393 Z " />
<glyph glyph-name="gbreve" unicode="&#x11f;" horiz-adv-x="586" d="M294 567 C379 567 433 624 433 707 L341 707 C341 668 324 644 294 644 C262 644 245 668 245 707 L153 707 C153 624 207 567 294 567 L294 567 Z M406 463 L402 405 C372 450 324 478 256 478 C127 478 29 371 29 239 C29 107 127 0 256 0 C322 0 369 26 399 68 L399 1 C399 -76 347 -121 282 -121 C218 -121 175 -84 175 -39 L45 -39 C45 -154 148 -235 280 -235 C420 -235 529 -143 529 1 L529 463 L406 463 Z M279 115 C211 115 159 167 159 235 C159 303 211 356 279 356 C347 356 399 303 399 235 C399 167 347 115 279 115 L279 115 Z " />
<glyph glyph-name="Gdotaccent" unicode="&#x120;" horiz-adv-x="804" d="M417 782 C454 782 482 810 482 847 C482 884 454 912 417 912 C380 912 352 884 352 847 C352 810 380 782 417 782 L417 782 Z M767 393 L301 393 L301 268 L619 268 C590 182 516 122 412 122 C281 122 180 226 180 358 C180 490 281 593 417 593 C487 593 548 566 590 525 L685 627 C619 691 525 730 417 730 C200 730 35 567 35 358 C35 148 200 -15 412 -15 C621 -15 769 146 769 353 C769 371 767 393 767 393 L767 393 Z " />
<glyph glyph-name="gdotaccent" unicode="&#x121;" horiz-adv-x="586" d="M294 572 C331 572 359 600 359 637 C359 674 331 702 294 702 C257 702 229 674 229 637 C229 600 257 572 294 572 L294 572 Z M406 463 L402 405 C372 450 324 478 256 478 C127 478 29 371 29 239 C29 107 127 0 256 0 C322 0 369 26 399 68 L399 1 C399 -76 347 -121 282 -121 C218 -121 175 -84 175 -39 L45 -39 C45 -154 148 -235 280 -235 C420 -235 529 -143 529 1 L529 463 L406 463 Z M279 115 C211 115 159 167 159 235 C159 303 211 356 279 356 C347 356 399 303 399 235 C399 167 347 115 279 115 L279 115 Z " />
<glyph glyph-name="Gcommaaccent" unicode="&#x122;" horiz-adv-x="804" d="M767 393 L301 393 L301 268 L619 268 C590 182 516 122 412 122 C281 122 180 226 180 358 C180 490 281 593 417 593 C487 593 548 566 590 525 L685 627 C619 691 525 730 417 730 C200 730 35 567 35 358 C35 148 200 -15 412 -15 C621 -15 769 146 769 353 C769 371 767 393 767 393 L767 393 Z M323 -202 L437 -202 L477 -62 L347 -62 L323 -202 Z " />
<glyph glyph-name="gcommaaccent" unicode="&#x123;" horiz-adv-x="586" d="M381 707 L267 707 L227 567 L357 567 L381 707 Z M406 463 L402 405 C372 450 324 478 256 478 C127 478 29 371 29 239 C29 107 127 0 256 0 C322 0 369 26 399 68 L399 1 C399 -76 347 -121 282 -121 C218 -121 175 -84 175 -39 L45 -39 C45 -154 148 -235 280 -235 C420 -235 529 -143 529 1 L529 463 L406 463 Z M279 115 C211 115 159 167 159 235 C159 303 211 356 279 356 C347 356 399 303 399 235 C399 167 347 115 279 115 L279 115 Z " />
<glyph glyph-name="Hcircumflex" unicode="&#x124;" horiz-adv-x="760" d="M380 854 L425 777 L524 777 L454 917 L304 917 L234 777 L333 777 L380 854 Z M545 715 L545 439 L215 439 L215 715 L70 715 L70 0 L215 0 L215 302 L545 302 L545 0 L690 0 L690 715 L545 715 Z " />
<glyph glyph-name="hcircumflex" unicode="&#x125;" horiz-adv-x="511" d="M123 879 L168 802 L267 802 L197 942 L47 942 L-23 802 L76 802 L123 879 Z M319 478 C263 478 224 455 188 415 L188 740 L58 740 L58 0 L188 0 L188 298 C211 332 240 351 269 351 C307 351 330 330 330 283 L330 0 L460 0 L460 330 C460 424 406 478 319 478 L319 478 Z " />
<glyph glyph-name="Hbar" unicode="&#x126;" horiz-adv-x="760" d="M760 601 L690 601 L690 715 L545 715 L545 601 L215 601 L215 715 L70 715 L70 601 L0 601 L0 539 L70 539 L70 0 L215 0 L215 302 L545 302 L545 0 L690 0 L690 539 L760 539 L760 601 Z M545 439 L215 439 L215 539 L545 539 L545 439 Z " />
<glyph glyph-name="hbar" unicode="&#x127;" horiz-adv-x="511" d="M319 478 C263 478 224 455 188 415 L188 578 L273 578 L273 640 L188 640 L188 740 L58 740 L58 640 L0 640 L0 578 L58 578 L58 0 L188 0 L188 298 C211 332 240 351 269 351 C307 351 330 330 330 283 L330 0 L460 0 L460 330 C460 424 406 478 319 478 L319 478 Z " />
<glyph glyph-name="Itilde" unicode="&#x128;" horiz-adv-x="305" d="M7 807 C7 807 29 826 67 826 C135 826 168 795 236 795 C274 795 297 820 297 820 L297 898 C297 898 274 878 236 878 C168 878 135 910 67 910 C29 910 7 884 7 884 L7 807 Z M80 0 L225 0 L225 715 L80 715 L80 0 Z " />
<glyph glyph-name="itilde" unicode="&#x129;" horiz-adv-x="258" d="M-17 597 C-17 597 5 616 43 616 C111 616 144 585 212 585 C250 585 273 610 273 610 L273 688 C273 688 250 668 212 668 C144 668 111 700 43 700 C5 700 -17 674 -17 674 L-17 597 Z M64 0 L194 0 L194 463 L64 463 L64 0 Z " />
<glyph glyph-name="Imacron" unicode="&#x12a;" horiz-adv-x="305" d="M7 810 L297 810 L297 894 L7 894 L7 810 Z M80 0 L225 0 L225 715 L80 715 L80 0 Z " />
<glyph glyph-name="imacron" unicode="&#x12b;" horiz-adv-x="258" d="M-17 600 L273 600 L273 684 L-17 684 L-17 600 Z M64 0 L194 0 L194 463 L64 463 L64 0 Z " />
<glyph glyph-name="Ibreve" unicode="&#x12c;" horiz-adv-x="305" d="M12 917 C12 834 66 777 153 777 C238 777 292 834 292 917 L200 917 C200 878 183 854 153 854 C121 854 104 878 104 917 L12 917 Z M80 0 L225 0 L225 715 L80 715 L80 0 Z " />
<glyph glyph-name="ibreve" unicode="&#x12d;" horiz-adv-x="258" d="M-12 707 C-12 624 42 567 129 567 C214 567 268 624 268 707 L176 707 C176 668 159 644 129 644 C97 644 80 668 80 707 L-12 707 Z M64 0 L194 0 L194 463 L64 463 L64 0 Z " />
<glyph glyph-name="Iogonek" unicode="&#x12e;" horiz-adv-x="305" d="M220 -107 C220 -107 198 -134 168 -134 C147 -134 131 -119 131 -97 C131 -65 163 -40 225 0 L225 715 L80 715 L80 0 L123 0 C79 -29 43 -68 43 -121 C43 -184 91 -225 155 -225 C228 -225 269 -168 269 -168 L220 -107 Z " />
<glyph glyph-name="iogonek" unicode="&#x12f;" horiz-adv-x="258" d="M129 550 C177 550 213 586 213 630 C213 674 177 710 129 710 C80 710 45 674 45 630 C45 586 80 550 129 550 L129 550 Z M189 -107 C189 -107 167 -134 137 -134 C116 -134 100 -119 100 -97 C100 -65 132 -40 194 0 L194 463 L64 463 L64 0 L92 0 C48 -29 12 -68 12 -121 C12 -184 60 -225 124 -225 C197 -225 238 -168 238 -168 L189 -107 Z " />
<glyph glyph-name="Idotaccent" unicode="&#x130;" horiz-adv-x="305" d="M153 782 C190 782 218 810 218 847 C218 884 190 912 153 912 C116 912 88 884 88 847 C88 810 116 782 153 782 L153 782 Z M80 0 L225 0 L225 715 L80 715 L80 0 Z " />
<glyph glyph-name="dotlessi" unicode="&#x131;" horiz-adv-x="258" d="M64 0 L194 0 L194 463 L64 463 L64 0 Z " />
<glyph glyph-name="IJ" unicode="&#x132;" horiz-adv-x="810" d="M80 0 L225 0 L225 715 L80 715 L80 0 Z M512 -15 C655 -15 746 79 746 231 L746 715 L601 715 L601 235 C601 172 567 130 511 130 C475 130 449 150 433 179 L310 105 C351 32 417 -15 512 -15 L512 -15 Z " />
<glyph glyph-name="ij" unicode="&#x133;" horiz-adv-x="516" d="M129 550 C177 550 213 586 213 630 C213 674 177 710 129 710 C80 710 45 674 45 630 C45 586 80 550 129 550 L129 550 Z M387 550 C435 550 471 586 471 630 C471 674 435 710 387 710 C338 710 303 674 303 630 C303 586 338 550 387 550 L387 550 Z M64 0 L194 0 L194 463 L64 463 L64 0 Z M322 -220 L452 -220 L452 463 L322 463 L322 -220 Z " />
<glyph glyph-name="Jcircumflex" unicode="&#x134;" horiz-adv-x="505" d="M222 777 L321 777 L368 854 L413 777 L512 777 L442 917 L292 917 L222 777 Z M207 -15 C350 -15 441 79 441 231 L441 715 L296 715 L296 235 C296 172 262 130 206 130 C170 130 144 150 128 179 L5 105 C46 32 112 -15 207 -15 L207 -15 Z " />
<glyph glyph-name="jcircumflex" unicode="&#x135;" horiz-adv-x="258" d="M-16 575 L83 575 L130 652 L175 575 L274 575 L204 715 L54 715 L-16 575 Z M64 -220 L194 -220 L194 463 L64 463 L64 -220 Z " />
<glyph glyph-name="Kcommaaccent" unicode="&#x136;" horiz-adv-x="643" d="M353 376 L618 715 L438 715 L215 416 L215 715 L70 715 L70 0 L215 0 L215 330 L458 0 L638 0 L353 376 Z M245 -202 L359 -202 L399 -62 L269 -62 L245 -202 Z " />
<glyph glyph-name="kcommaaccent" unicode="&#x137;" horiz-adv-x="479" d="M296 249 L466 463 L314 463 L188 289 L188 740 L58 740 L58 0 L188 0 L188 196 L324 0 L476 0 L296 249 Z M167 -202 L281 -202 L321 -62 L191 -62 L167 -202 Z " />
<glyph glyph-name="Lacute" unicode="&#x139;" horiz-adv-x="513" d="M240 917 L110 917 L86 777 L200 777 L240 917 Z M215 137 L215 715 L70 715 L70 0 L500 0 L500 137 L215 137 Z " />
<glyph glyph-name="lacute" unicode="&#x13a;" horiz-adv-x="258" d="M72 802 L186 802 L226 942 L96 942 L72 802 Z M64 0 L194 0 L194 740 L64 740 L64 0 Z " />
<glyph glyph-name="Lcommaaccent" unicode="&#x13b;" horiz-adv-x="513" d="M215 137 L215 715 L70 715 L70 0 L500 0 L500 137 L215 137 Z M196 -202 L310 -202 L350 -62 L220 -62 L196 -202 Z " />
<glyph glyph-name="lcommaaccent" unicode="&#x13c;" horiz-adv-x="258" d="M64 0 L194 0 L194 740 L64 740 L64 0 Z M40 -202 L154 -202 L194 -62 L64 -62 L40 -202 Z " />
<glyph glyph-name="Lcaron" unicode="&#x13d;" horiz-adv-x="513" d="M215 137 L215 715 L70 715 L70 0 L500 0 L500 137 L215 137 Z M478 715 L347 715 L323 415 L438 415 L478 715 Z " />
<glyph glyph-name="lcaron" unicode="&#x13e;" horiz-adv-x="413" d="M64 0 L194 0 L194 740 L64 740 L64 0 Z M259 415 L374 415 L414 715 L283 715 L259 415 Z " />
<glyph glyph-name="Ldot" unicode="&#x13f;" horiz-adv-x="513" d="M215 137 L215 715 L70 715 L70 0 L500 0 L500 137 L215 137 Z M397 273 C445 273 481 310 481 357 C481 404 445 441 397 441 C348 441 313 404 313 357 C313 310 348 273 397 273 L397 273 Z " />
<glyph glyph-name="ldot" unicode="&#x140;" horiz-adv-x="399" d="M64 0 L194 0 L194 740 L64 740 L64 0 Z M315 273 C363 273 399 310 399 357 C399 404 363 441 315 441 C266 441 231 404 231 357 C231 310 266 273 315 273 L315 273 Z " />
<glyph glyph-name="Lslash" unicode="&#x141;" horiz-adv-x="513" d="M215 137 L215 375 L340 412 L340 474 L215 437 L215 715 L70 715 L70 395 L0 374 L0 312 L70 333 L70 0 L500 0 L500 137 L215 137 Z " />
<glyph glyph-name="lslash" unicode="&#x142;" horiz-adv-x="258" d="M258 454 L194 434 L194 740 L64 740 L64 394 L0 374 L0 312 L64 332 L64 0 L194 0 L194 372 L258 392 L258 454 Z " />
<glyph glyph-name="Nacute" unicode="&#x143;" horiz-adv-x="740" d="M303 777 L417 777 L457 917 L327 917 L303 777 Z M544 0 L670 0 L670 715 L528 715 L528 263 L196 715 L70 715 L70 0 L213 0 L213 460 L544 0 Z " />
<glyph glyph-name="nacute" unicode="&#x144;" horiz-adv-x="511" d="M353 707 L223 707 L199 567 L313 567 L353 707 Z M319 478 C261 478 222 453 184 411 L180 463 L58 463 L58 0 L188 0 L188 298 C211 332 240 351 269 351 C307 351 330 330 330 283 L330 0 L460 0 L460 330 C460 424 406 478 319 478 L319 478 Z " />
<glyph glyph-name="Ncommaaccent" unicode="&#x145;" horiz-adv-x="740" d="M544 0 L670 0 L670 715 L528 715 L528 263 L196 715 L70 715 L70 0 L213 0 L213 460 L544 0 Z M291 -202 L405 -202 L445 -62 L315 -62 L291 -202 Z " />
<glyph glyph-name="ncommaaccent" unicode="&#x146;" horiz-adv-x="511" d="M319 478 C261 478 222 453 184 411 L180 463 L58 463 L58 0 L188 0 L188 298 C211 332 240 351 269 351 C307 351 330 330 330 283 L330 0 L460 0 L460 330 C460 424 406 478 319 478 L319 478 Z M167 -202 L281 -202 L321 -62 L191 -62 L167 -202 Z " />
<glyph glyph-name="Ncaron" unicode="&#x147;" horiz-adv-x="740" d="M214 917 L284 777 L434 777 L504 917 L405 917 L360 840 L313 917 L214 917 Z M544 0 L670 0 L670 715 L528 715 L528 263 L196 715 L70 715 L70 0 L213 0 L213 460 L544 0 Z " />
<glyph glyph-name="ncaron" unicode="&#x148;" horiz-adv-x="511" d="M330 567 L400 707 L301 707 L256 630 L209 707 L110 707 L180 567 L330 567 Z M319 478 C261 478 222 453 184 411 L180 463 L58 463 L58 0 L188 0 L188 298 C211 332 240 351 269 351 C307 351 330 330 330 283 L330 0 L460 0 L460 330 C460 424 406 478 319 478 L319 478 Z " />
<glyph glyph-name="Eng" unicode="&#x14a;" horiz-adv-x="740" d="M70 0 L213 0 L213 460 L528 23 L528 -8 C528 -61 499 -91 453 -91 C427 -91 407 -82 392 -68 L322 -182 C357 -215 406 -235 464 -235 C586 -235 670 -155 670 -12 L670 715 L528 715 L528 263 L196 715 L70 715 L70 0 Z " />
<glyph glyph-name="eng" unicode="&#x14b;" horiz-adv-x="511" d="M319 478 C261 478 222 453 184 411 L180 463 L58 463 L58 0 L188 0 L188 298 C211 332 240 351 269 351 C307 351 330 330 330 283 L330 -220 L460 -220 L460 330 C460 424 406 478 319 478 L319 478 Z " />
<glyph glyph-name="Omacron" unicode="&#x14c;" horiz-adv-x="823" d="M265 810 L555 810 L555 894 L265 894 L265 810 Z M411 -15 C623 -15 788 148 788 358 C788 567 623 730 411 730 C200 730 35 567 35 358 C35 148 200 -15 411 -15 L411 -15 Z M411 122 C281 122 180 225 180 358 C180 490 281 593 411 593 C542 593 643 490 643 358 C643 225 542 122 411 122 L411 122 Z " />
<glyph glyph-name="omacron" unicode="&#x14d;" horiz-adv-x="558" d="M133 600 L423 600 L423 684 L133 684 L133 600 Z M279 -15 C420 -15 529 93 529 231 C529 370 420 478 279 478 C138 478 29 370 29 231 C29 93 138 -15 279 -15 L279 -15 Z M279 111 C211 111 159 164 159 231 C159 299 211 352 279 352 C347 352 399 299 399 231 C399 164 347 111 279 111 L279 111 Z " />
<glyph glyph-name="Obreve" unicode="&#x14e;" horiz-adv-x="823" d="M270 917 C270 834 324 777 411 777 C496 777 550 834 550 917 L458 917 C458 878 441 854 411 854 C379 854 362 878 362 917 L270 917 Z M411 -15 C623 -15 788 148 788 358 C788 567 623 730 411 730 C200 730 35 567 35 358 C35 148 200 -15 411 -15 L411 -15 Z M411 122 C281 122 180 225 180 358 C180 490 281 593 411 593 C542 593 643 490 643 358 C643 225 542 122 411 122 L411 122 Z " />
<glyph glyph-name="obreve" unicode="&#x14f;" horiz-adv-x="558" d="M138 707 C138 624 192 567 279 567 C364 567 418 624 418 707 L326 707 C326 668 309 644 279 644 C247 644 230 668 230 707 L138 707 Z M279 -15 C420 -15 529 93 529 231 C529 370 420 478 279 478 C138 478 29 370 29 231 C29 93 138 -15 279 -15 L279 -15 Z M279 111 C211 111 159 164 159 231 C159 299 211 352 279 352 C347 352 399 299 399 231 C399 164 347 111 279 111 L279 111 Z " />
<glyph glyph-name="Ohungarumlaut" unicode="&#x150;" horiz-adv-x="823" d="M283 777 L382 777 L422 917 L307 917 L283 777 Z M441 777 L540 777 L579 917 L464 917 L441 777 Z M411 -15 C623 -15 788 148 788 358 C788 567 623 730 411 730 C200 730 35 567 35 358 C35 148 200 -15 411 -15 L411 -15 Z M411 122 C281 122 180 225 180 358 C180 490 281 593 411 593 C542 593 643 490 643 358 C643 225 542 122 411 122 L411 122 Z " />
<glyph glyph-name="ohungarumlaut" unicode="&#x151;" horiz-adv-x="558" d="M151 567 L250 567 L290 707 L175 707 L151 567 Z M309 567 L408 567 L447 707 L332 707 L309 567 Z M279 -15 C420 -15 529 93 529 231 C529 370 420 478 279 478 C138 478 29 370 29 231 C29 93 138 -15 279 -15 L279 -15 Z M279 111 C211 111 159 164 159 231 C159 299 211 352 279 352 C347 352 399 299 399 231 C399 164 347 111 279 111 L279 111 Z " />
<glyph glyph-name="OE" unicode="&#x152;" horiz-adv-x="1090" d="M1048 133 L714 133 C751 182 776 242 785 307 L1043 307 L1043 430 L781 430 C771 487 747 538 714 582 L1018 582 L1018 715 L520 715 C485 725 449 730 411 730 C200 730 35 567 35 358 C35 148 200 -15 411 -15 C449 -15 485 -10 520 0 L1048 0 L1048 133 Z M180 358 C180 490 281 593 411 593 C542 593 643 490 643 358 C643 225 542 122 411 122 C281 122 180 225 180 358 L180 358 Z " />
<glyph glyph-name="oe" unicode="&#x153;" horiz-adv-x="920" d="M892 242 C892 373 789 478 648 478 C565 478 502 441 464 382 C426 441 362 478 279 478 C138 478 29 370 29 232 C29 93 138 -15 279 -15 C362 -15 426 23 464 82 C502 23 566 -15 649 -15 C748 -15 830 38 872 119 L758 169 C740 133 698 107 649 107 C589 107 541 147 531 208 L889 208 C889 208 892 224 892 242 L892 242 Z M648 373 C700 373 738 346 755 295 L539 295 C557 346 598 373 648 373 L648 373 Z M279 111 C211 111 159 164 159 232 C159 299 211 352 279 352 C347 352 399 299 399 232 C399 164 347 111 279 111 L279 111 Z " />
<glyph glyph-name="Racute" unicode="&#x154;" horiz-adv-x="598" d="M396 917 L266 917 L242 777 L356 777 L396 917 Z M427 0 L598 0 L383 302 C467 335 518 412 518 500 C518 617 430 715 293 715 L70 715 L70 0 L215 0 L215 286 L235 286 L427 0 Z M270 589 C333 589 376 547 376 491 C376 435 333 393 270 393 L215 393 L215 589 L270 589 Z " />
<glyph glyph-name="racute" unicode="&#x155;" horiz-adv-x="429" d="M327 707 L197 707 L173 567 L287 567 L327 707 Z M295 478 C252 478 221 458 184 411 L180 463 L58 463 L58 0 L188 0 L188 296 C211 343 231 359 256 359 C279 359 295 345 307 313 L429 357 C407 433 366 478 295 478 L295 478 Z " />
<glyph glyph-name="Rcommaaccent" unicode="&#x156;" horiz-adv-x="598" d="M383 302 C467 335 518 412 518 500 C518 617 430 715 293 715 L70 715 L70 0 L215 0 L215 286 L235 286 L427 0 L598 0 L383 302 Z M270 589 C333 589 376 547 376 491 C376 435 333 393 270 393 L215 393 L215 589 L270 589 Z M230 -202 L344 -202 L384 -62 L254 -62 L230 -202 Z " />
<glyph glyph-name="rcommaaccent" unicode="&#x157;" horiz-adv-x="429" d="M295 478 C252 478 221 458 184 411 L180 463 L58 463 L58 0 L188 0 L188 296 C211 343 231 359 256 359 C279 359 295 345 307 313 L429 357 C407 433 366 478 295 478 L295 478 Z M34 -202 L148 -202 L188 -62 L58 -62 L34 -202 Z " />
<glyph glyph-name="Rcaron" unicode="&#x158;" horiz-adv-x="598" d="M373 777 L443 917 L344 917 L299 840 L252 917 L153 917 L223 777 L373 777 Z M427 0 L598 0 L383 302 C467 335 518 412 518 500 C518 617 430 715 293 715 L70 715 L70 0 L215 0 L215 286 L235 286 L427 0 Z M270 589 C333 589 376 547 376 491 C376 435 333 393 270 393 L215 393 L215 589 L270 589 Z " />
<glyph glyph-name="rcaron" unicode="&#x159;" horiz-adv-x="429" d="M304 567 L374 707 L275 707 L230 630 L183 707 L84 707 L154 567 L304 567 Z M295 478 C252 478 221 458 184 411 L180 463 L58 463 L58 0 L188 0 L188 296 C211 343 231 359 256 359 C279 359 295 345 307 313 L429 357 C407 433 366 478 295 478 L295 478 Z " />
<glyph glyph-name="Sacute" unicode="&#x15a;" horiz-adv-x="545" d="M226 777 L340 777 L380 917 L250 917 L226 777 Z M276 -15 C421 -15 510 81 510 199 C510 315 432 374 308 430 C231 465 198 496 198 536 C198 576 229 606 285 606 C360 606 410 553 410 553 L490 654 C490 654 409 730 283 730 C141 730 53 647 53 535 C53 427 126 363 247 307 C328 269 365 240 365 193 C365 148 334 110 273 110 C184 110 112 195 112 195 L28 100 C28 100 112 -15 276 -15 L276 -15 Z " />
<glyph glyph-name="sacute" unicode="&#x15b;" horiz-adv-x="403" d="M155 567 L269 567 L309 707 L179 707 L155 567 Z M207 -15 C304 -15 374 45 374 132 C374 209 320 251 236 287 C189 306 171 322 171 344 C171 362 185 378 216 378 C260 378 303 341 303 341 L364 425 C364 425 308 478 212 478 C117 478 47 422 47 339 C47 267 98 221 180 188 C232 166 250 149 250 125 C250 104 235 86 203 86 C149 86 92 143 92 143 L29 64 C29 64 89 -15 207 -15 L207 -15 Z " />
<glyph glyph-name="Scedilla" unicode="&#x15e;" horiz-adv-x="545" d="M510 199 C510 315 432 374 308 430 C231 465 198 496 198 536 C198 576 229 606 285 606 C360 606 410 553 410 553 L490 654 C490 654 409 730 283 730 C141 730 53 647 53 535 C53 427 126 363 247 307 C328 269 365 240 365 193 C365 148 334 110 273 110 C184 110 112 195 112 195 L28 100 C28 100 101 1 243 -13 L209 -85 L242 -108 C242 -108 253 -98 270 -98 C289 -98 303 -109 303 -125 C303 -143 287 -155 265 -155 C232 -155 209 -136 209 -136 L181 -188 C181 -188 217 -220 274 -220 C348 -220 389 -177 389 -128 C389 -81 356 -44 298 -41 L310 -13 C435 1 510 91 510 199 L510 199 Z " />
<glyph glyph-name="scedilla" unicode="&#x15f;" horiz-adv-x="403" d="M374 132 C374 209 320 251 236 287 C189 306 171 322 171 344 C171 362 185 378 216 378 C260 378 303 341 303 341 L364 425 C364 425 308 478 212 478 C117 478 47 422 47 339 C47 267 98 221 180 188 C232 166 250 149 250 125 C250 104 235 86 203 86 C149 86 92 143 92 143 L29 64 C29 64 78 0 174 -13 L140 -85 L173 -108 C173 -108 184 -98 201 -98 C220 -98 234 -109 234 -125 C234 -143 218 -155 196 -155 C163 -155 140 -136 140 -136 L112 -188 C112 -188 148 -220 205 -220 C279 -220 320 -177 320 -128 C320 -81 287 -44 229 -41 L242 -12 C320 0 374 56 374 132 L374 132 Z " />
<glyph glyph-name="Scaron" unicode="&#x160;" horiz-adv-x="545" d="M137 917 L207 777 L357 777 L427 917 L328 917 L283 840 L236 917 L137 917 Z M276 -15 C421 -15 510 81 510 199 C510 315 432 374 308 430 C231 465 198 496 198 536 C198 576 229 606 285 606 C360 606 410 553 410 553 L490 654 C490 654 409 730 283 730 C141 730 53 647 53 535 C53 427 126 363 247 307 C328 269 365 240 365 193 C365 148 334 110 273 110 C184 110 112 195 112 195 L28 100 C28 100 112 -15 276 -15 L276 -15 Z " />
<glyph glyph-name="scaron" unicode="&#x161;" horiz-adv-x="403" d="M66 707 L136 567 L286 567 L356 707 L257 707 L212 630 L165 707 L66 707 Z M207 -15 C304 -15 374 45 374 132 C374 209 320 251 236 287 C189 306 171 322 171 344 C171 362 185 378 216 378 C260 378 303 341 303 341 L364 425 C364 425 308 478 212 478 C117 478 47 422 47 339 C47 267 98 221 180 188 C232 166 250 149 250 125 C250 104 235 86 203 86 C149 86 92 143 92 143 L29 64 C29 64 89 -15 207 -15 L207 -15 Z " />
<glyph glyph-name="uni0162" unicode="&#x162;" horiz-adv-x="535" d="M340 0 L340 578 L523 578 L523 715 L13 715 L13 578 L195 578 L195 0 L241 0 L201 -85 L234 -108 C234 -108 245 -98 262 -98 C281 -98 295 -109 295 -125 C295 -143 279 -155 257 -155 C224 -155 201 -136 201 -136 L173 -188 C173 -188 209 -220 266 -220 C340 -220 381 -177 381 -128 C381 -81 348 -44 290 -41 L308 0 L340 0 Z " />
<glyph glyph-name="uni0163" unicode="&#x163;" horiz-adv-x="355" d="M233 0 L233 341 L333 341 L333 463 L233 463 L233 683 L103 683 L103 463 L23 463 L23 341 L103 341 L103 0 L141 0 L101 -85 L134 -108 C134 -108 145 -98 162 -98 C181 -98 195 -109 195 -125 C195 -143 179 -155 157 -155 C124 -155 101 -136 101 -136 L73 -188 C73 -188 109 -220 166 -220 C240 -220 281 -177 281 -128 C281 -81 248 -44 190 -41 L208 0 L233 0 Z " />
<glyph glyph-name="Tcaron" unicode="&#x164;" horiz-adv-x="535" d="M342 777 L412 917 L313 917 L268 840 L221 917 L122 917 L192 777 L342 777 Z M523 715 L13 715 L13 578 L195 578 L195 0 L340 0 L340 578 L523 578 L523 715 Z " />
<glyph glyph-name="tcaron" unicode="&#x165;" horiz-adv-x="434" d="M296 715 L272 513 L387 513 L426 715 L296 715 Z M233 683 L103 683 L103 463 L23 463 L23 341 L103 341 L103 0 L233 0 L233 341 L333 341 L333 463 L233 463 L233 683 Z " />
<glyph glyph-name="Tbar" unicode="&#x166;" horiz-adv-x="535" d="M523 578 L523 715 L13 715 L13 578 L195 578 L195 371 L55 371 L55 309 L195 309 L195 0 L340 0 L340 309 L480 309 L480 371 L340 371 L340 578 L523 578 Z " />
<glyph glyph-name="tbar" unicode="&#x167;" horiz-adv-x="355" d="M333 341 L333 463 L233 463 L233 683 L103 683 L103 463 L23 463 L23 341 L103 341 L103 241 L23 241 L23 179 L103 179 L103 0 L233 0 L233 179 L333 179 L333 241 L233 241 L233 341 L333 341 Z " />
<glyph glyph-name="Utilde" unicode="&#x168;" horiz-adv-x="653" d="M180 807 C180 807 202 826 240 826 C308 826 341 795 409 795 C447 795 470 820 470 820 L470 898 C470 898 447 878 409 878 C341 878 308 910 240 910 C202 910 180 884 180 884 L180 807 Z M326 -15 C485 -15 589 90 589 256 L589 715 L444 715 L444 260 C444 180 400 130 326 130 C253 130 209 180 209 260 L209 715 L64 715 L64 256 C64 90 168 -15 326 -15 L326 -15 Z " />
<glyph glyph-name="utilde" unicode="&#x169;" horiz-adv-x="505" d="M105 597 C105 597 127 616 165 616 C233 616 266 585 334 585 C372 585 395 610 395 610 L395 688 C395 688 372 668 334 668 C266 668 233 700 165 700 C127 700 105 674 105 674 L105 597 Z M253 -15 C368 -15 454 64 454 186 L454 463 L324 463 L324 184 C324 140 295 111 253 111 C211 111 181 140 181 184 L181 463 L51 463 L51 186 C51 64 137 -15 253 -15 L253 -15 Z " />
<glyph glyph-name="Umacron" unicode="&#x16a;" horiz-adv-x="653" d="M180 810 L470 810 L470 894 L180 894 L180 810 Z M326 -15 C485 -15 589 90 589 256 L589 715 L444 715 L444 260 C444 180 400 130 326 130 C253 130 209 180 209 260 L209 715 L64 715 L64 256 C64 90 168 -15 326 -15 L326 -15 Z " />
<glyph glyph-name="umacron" unicode="&#x16b;" horiz-adv-x="505" d="M105 600 L395 600 L395 684 L105 684 L105 600 Z M253 -15 C368 -15 454 64 454 186 L454 463 L324 463 L324 184 C324 140 295 111 253 111 C211 111 181 140 181 184 L181 463 L51 463 L51 186 C51 64 137 -15 253 -15 L253 -15 Z " />
<glyph glyph-name="Ubreve" unicode="&#x16c;" horiz-adv-x="653" d="M185 917 C185 834 239 777 326 777 C411 777 465 834 465 917 L373 917 C373 878 356 854 326 854 C294 854 277 878 277 917 L185 917 Z M326 -15 C485 -15 589 90 589 256 L589 715 L444 715 L444 260 C444 180 400 130 326 130 C253 130 209 180 209 260 L209 715 L64 715 L64 256 C64 90 168 -15 326 -15 L326 -15 Z " />
<glyph glyph-name="ubreve" unicode="&#x16d;" horiz-adv-x="505" d="M110 707 C110 624 164 567 251 567 C336 567 390 624 390 707 L298 707 C298 668 281 644 251 644 C219 644 202 668 202 707 L110 707 Z M253 -15 C368 -15 454 64 454 186 L454 463 L324 463 L324 184 C324 140 295 111 253 111 C211 111 181 140 181 184 L181 463 L51 463 L51 186 C51 64 137 -15 253 -15 L253 -15 Z " />
<glyph glyph-name="Uring" unicode="&#x16e;" horiz-adv-x="653" d="M326 707 C388 707 436 754 436 815 C436 875 388 922 326 922 C264 922 217 875 217 815 C217 754 264 707 326 707 L326 707 Z M326 774 C304 774 285 792 285 815 C285 837 304 856 326 856 C349 856 367 837 367 815 C367 792 349 774 326 774 L326 774 Z M326 -15 C485 -15 589 90 589 256 L589 715 L444 715 L444 260 C444 180 400 130 326 130 C253 130 209 180 209 260 L209 715 L64 715 L64 256 C64 90 168 -15 326 -15 L326 -15 Z " />
<glyph glyph-name="uring" unicode="&#x16f;" horiz-adv-x="505" d="M251 497 C313 497 361 544 361 605 C361 665 313 712 251 712 C189 712 142 665 142 605 C142 544 189 497 251 497 L251 497 Z M251 564 C229 564 210 582 210 605 C210 627 229 646 251 646 C274 646 292 627 292 605 C292 582 274 564 251 564 L251 564 Z M253 -15 C368 -15 454 64 454 186 L454 463 L324 463 L324 184 C324 140 295 111 253 111 C211 111 181 140 181 184 L181 463 L51 463 L51 186 C51 64 137 -15 253 -15 L253 -15 Z " />
<glyph glyph-name="Uhungarumlaut" unicode="&#x170;" horiz-adv-x="653" d="M198 777 L297 777 L337 917 L222 917 L198 777 Z M356 777 L455 777 L494 917 L379 917 L356 777 Z M326 -15 C485 -15 589 90 589 256 L589 715 L444 715 L444 260 C444 180 400 130 326 130 C253 130 209 180 209 260 L209 715 L64 715 L64 256 C64 90 168 -15 326 -15 L326 -15 Z " />
<glyph glyph-name="uhungarumlaut" unicode="&#x171;" horiz-adv-x="505" d="M123 567 L222 567 L262 707 L147 707 L123 567 Z M281 567 L380 567 L419 707 L304 707 L281 567 Z M253 -15 C368 -15 454 64 454 186 L454 463 L324 463 L324 184 C324 140 295 111 253 111 C211 111 181 140 181 184 L181 463 L51 463 L51 186 C51 64 137 -15 253 -15 L253 -15 Z " />
<glyph glyph-name="Uogonek" unicode="&#x172;" horiz-adv-x="653" d="M444 715 L444 260 C444 180 400 130 326 130 C253 130 209 180 209 260 L209 715 L64 715 L64 256 C64 105 150 4 285 -12 C249 -40 222 -75 222 -121 C222 -184 270 -225 334 -225 C407 -225 448 -168 448 -168 L399 -107 C399 -107 377 -134 347 -134 C326 -134 310 -119 310 -97 C310 -67 337 -44 391 -9 C513 16 589 114 589 256 L589 715 L444 715 Z " />
<glyph glyph-name="uogonek" unicode="&#x173;" horiz-adv-x="505" d="M324 463 L324 184 C324 140 295 111 253 111 C211 111 181 140 181 184 L181 463 L51 463 L51 186 C51 79 118 5 213 -12 C176 -39 149 -75 149 -121 C149 -184 197 -225 261 -225 C334 -225 375 -168 375 -168 L326 -107 C326 -107 304 -134 274 -134 C253 -134 237 -119 237 -97 C237 -66 267 -41 326 -3 C402 23 454 92 454 186 L454 463 L324 463 Z " />
<glyph glyph-name="Wcircumflex" unicode="&#x174;" horiz-adv-x="1040" d="M528 854 L573 777 L672 777 L602 917 L452 917 L382 777 L481 777 L528 854 Z M889 715 L741 242 L586 715 L468 715 L314 246 L166 715 L5 715 L241 0 L359 0 L520 483 L682 0 L800 0 L1035 715 L889 715 Z " />
<glyph glyph-name="wcircumflex" unicode="&#x175;" horiz-adv-x="728" d="M371 602 L416 525 L515 525 L445 665 L295 665 L225 525 L324 525 L371 602 Z M594 463 L504 197 L423 463 L320 463 L239 195 L148 463 L3 463 L175 0 L279 0 L364 273 L449 0 L552 0 L725 463 L594 463 Z " />
<glyph glyph-name="Ycircumflex" unicode="&#x176;" horiz-adv-x="610" d="M167 777 L266 777 L313 854 L358 777 L457 777 L387 917 L237 917 L167 777 Z M233 0 L378 0 L378 334 L615 715 L460 715 L313 478 L165 715 L-5 715 L233 334 L233 0 Z " />
<glyph glyph-name="ycircumflex" unicode="&#x177;" horiz-adv-x="480" d="M248 602 L293 525 L392 525 L322 665 L172 665 L102 525 L201 525 L248 602 Z M347 463 L245 189 L148 463 L3 463 L176 26 L75 -220 L206 -220 L478 463 L347 463 Z " />
<glyph glyph-name="Ydieresis" unicode="&#x178;" horiz-adv-x="610" d="M227 782 C264 782 292 810 292 847 C292 884 264 912 227 912 C190 912 162 884 162 847 C162 810 190 782 227 782 L227 782 Z M400 782 C437 782 465 810 465 847 C465 884 437 912 400 912 C362 912 335 884 335 847 C335 810 362 782 400 782 L400 782 Z M233 0 L378 0 L378 334 L615 715 L460 715 L313 478 L165 715 L-5 715 L233 334 L233 0 Z " />
<glyph glyph-name="Zacute" unicode="&#x179;" horiz-adv-x="688" d="M287 777 L401 777 L441 917 L311 917 L287 777 Z M50 0 L638 0 L638 133 L275 133 L638 653 L638 715 L50 715 L50 582 L413 582 L50 63 L50 0 Z " />
<glyph glyph-name="zacute" unicode="&#x17a;" horiz-adv-x="455" d="M178 525 L292 525 L332 665 L202 665 L178 525 Z M41 0 L414 0 L414 115 L212 115 L414 400 L414 463 L41 463 L41 348 L243 348 L41 63 L41 0 Z " />
<glyph glyph-name="Zdotaccent" unicode="&#x17b;" horiz-adv-x="688" d="M344 782 C381 782 409 810 409 847 C409 884 381 912 344 912 C307 912 279 884 279 847 C279 810 307 782 344 782 L344 782 Z M50 0 L638 0 L638 133 L275 133 L638 653 L638 715 L50 715 L50 582 L413 582 L50 63 L50 0 Z " />
<glyph glyph-name="zdotaccent" unicode="&#x17c;" horiz-adv-x="455" d="M235 530 C272 530 300 558 300 595 C300 632 272 660 235 660 C198 660 170 632 170 595 C170 558 198 530 235 530 L235 530 Z M41 0 L414 0 L414 115 L212 115 L414 400 L414 463 L41 463 L41 348 L243 348 L41 63 L41 0 Z " />
<glyph glyph-name="Zcaron" unicode="&#x17d;" horiz-adv-x="688" d="M198 917 L268 777 L418 777 L488 917 L389 917 L344 840 L297 917 L198 917 Z M50 0 L638 0 L638 133 L275 133 L638 653 L638 715 L50 715 L50 582 L413 582 L50 63 L50 0 Z " />
<glyph glyph-name="zcaron" unicode="&#x17e;" horiz-adv-x="455" d="M89 665 L159 525 L309 525 L379 665 L280 665 L235 588 L188 665 L89 665 Z M41 0 L414 0 L414 115 L212 115 L414 400 L414 463 L41 463 L41 348 L243 348 L41 63 L41 0 Z " />
<glyph glyph-name="florin" unicode="&#x192;" horiz-adv-x="570" d="M368 604 C401 604 413 579 428 533 L553 558 C518 675 461 730 364 730 C234 730 177 630 174 285 L45 285 L45 230 L174 230 C173 -46 161 -109 117 -109 C84 -109 73 -84 57 -38 L-68 -63 C-33 -180 24 -235 121 -235 C254 -235 310 -131 311 230 L450 230 L450 285 L311 285 C312 544 326 604 368 604 L368 604 Z " />
<glyph glyph-name="Aringacute" unicode="&#x1fa;" horiz-adv-x="720" d="M567 0 L735 0 L434 715 L433 715 C456 735 470 764 470 797 C470 832 454 862 429 881 L457 970 L327 970 L312 894 C276 877 251 840 251 797 C251 757 271 723 303 704 L5 0 L159 0 L225 169 L503 169 L567 0 Z M360 838 C383 838 401 819 401 797 C401 774 383 756 360 756 C338 756 319 774 319 797 C319 819 338 838 360 838 L360 838 Z M273 291 L366 528 L457 291 L273 291 Z " />
<glyph glyph-name="aringacute" unicode="&#x1fb;" horiz-adv-x="586" d="M406 463 L402 404 C391 421 377 436 361 447 C387 467 403 498 403 533 C403 567 387 597 362 617 L390 706 L260 706 L246 630 C209 613 184 577 184 533 C184 510 191 489 202 472 C101 446 29 350 29 231 C29 93 127 -15 256 -15 C324 -15 372 13 402 59 L406 0 L529 0 L529 463 L406 463 Z M293 574 C316 574 334 555 334 533 C334 510 316 492 293 492 C271 492 252 510 252 533 C252 555 271 574 293 574 L293 574 Z M279 111 C211 111 159 164 159 231 C159 299 211 352 279 352 C347 352 399 299 399 231 C399 164 347 111 279 111 L279 111 Z " />
<glyph glyph-name="AEacute" unicode="&#x1fc;" horiz-adv-x="918" d="M673 917 L543 917 L519 777 L633 777 L673 917 Z M679 133 L606 307 L870 307 L870 430 L554 430 L490 582 L845 582 L845 715 L307 715 L5 0 L159 0 L226 169 L502 169 L567 0 L875 0 L875 133 L679 133 Z M275 291 L367 522 L455 291 L275 291 Z " />
<glyph glyph-name="aeacute" unicode="&#x1fd;" horiz-adv-x="920" d="M561 685 L431 685 L407 545 L521 545 L561 685 Z M892 242 C892 373 796 478 670 478 C602 478 556 450 526 404 L522 463 L407 463 L402 404 C372 450 325 478 257 478 C127 478 29 370 29 232 C29 93 127 -15 257 -15 C325 -15 372 13 402 59 L407 0 L522 0 L526 60 C556 13 603 -15 672 -15 C756 -15 830 38 872 119 L758 169 C740 133 698 107 649 107 C589 107 541 147 531 208 L889 208 C889 208 892 224 892 242 L892 242 Z M648 373 C700 373 738 347 755 295 L539 295 C557 346 598 373 648 373 L648 373 Z M279 111 C211 111 159 164 159 232 C159 299 211 352 279 352 C347 352 399 299 399 232 C399 164 347 111 279 111 L279 111 Z " />
<glyph glyph-name="Oslashacute" unicode="&#x1fe;" horiz-adv-x="823" d="M508 917 L378 917 L354 777 L468 777 L508 917 Z M788 715 L708 715 L647 650 C583 700 501 730 411 730 C200 730 35 567 35 358 C35 259 72 170 133 104 L35 0 L114 0 L175 65 C239 15 321 -15 411 -15 C623 -15 788 148 788 358 C788 457 751 545 690 611 L788 715 Z M176 358 C176 492 279 597 411 597 C465 597 514 580 553 550 L228 205 C195 246 176 299 176 358 L176 358 Z M646 358 C646 223 544 118 411 118 C357 118 309 135 269 165 L594 510 C627 469 646 416 646 358 L646 358 Z " />
<glyph glyph-name="oslashacute" unicode="&#x1ff;" horiz-adv-x="558" d="M376 707 L246 707 L222 567 L336 567 L376 707 Z M529 463 L453 463 L425 433 C385 461 334 478 279 478 C138 478 29 370 29 231 C29 168 52 110 91 67 L29 0 L104 0 L132 30 C173 2 223 -15 279 -15 C420 -15 529 93 529 231 C529 295 506 352 467 396 L529 463 Z M151 231 C151 304 207 359 279 359 C303 359 324 353 343 343 L173 158 C159 178 151 203 151 231 L151 231 Z M406 231 C406 159 351 103 279 103 C255 103 233 109 214 120 L384 305 C398 284 406 259 406 231 L406 231 Z " />
<glyph glyph-name="Scommaaccent" unicode="&#x218;" horiz-adv-x="545" d="M276 -15 C421 -15 510 81 510 199 C510 315 432 374 308 430 C231 465 198 496 198 536 C198 576 229 606 285 606 C360 606 410 553 410 553 L490 654 C490 654 409 730 283 730 C141 730 53 647 53 535 C53 427 126 363 247 307 C328 269 365 240 365 193 C365 148 334 110 273 110 C184 110 112 195 112 195 L28 100 C28 100 112 -15 276 -15 L276 -15 Z M187 -202 L301 -202 L341 -62 L211 -62 L187 -202 Z " />
<glyph glyph-name="scommaaccent" unicode="&#x219;" horiz-adv-x="403" d="M207 -15 C304 -15 374 45 374 132 C374 209 320 251 236 287 C189 306 171 322 171 344 C171 362 185 378 216 378 C260 378 303 341 303 341 L364 425 C364 425 308 478 212 478 C117 478 47 422 47 339 C47 267 98 221 180 188 C232 166 250 149 250 125 C250 104 235 86 203 86 C149 86 92 143 92 143 L29 64 C29 64 89 -15 207 -15 L207 -15 Z M118 -202 L232 -202 L272 -62 L142 -62 L118 -202 Z " />
<glyph glyph-name="uni021A" unicode="&#x21a;" horiz-adv-x="535" d="M523 715 L13 715 L13 578 L195 578 L195 0 L340 0 L340 578 L523 578 L523 715 Z M179 -202 L293 -202 L333 -62 L203 -62 L179 -202 Z " />
<glyph glyph-name="uni021B" unicode="&#x21b;" horiz-adv-x="355" d="M333 463 L233 463 L233 683 L103 683 L103 463 L23 463 L23 341 L103 341 L103 0 L233 0 L233 341 L333 341 L333 463 Z M79 -202 L193 -202 L233 -62 L103 -62 L79 -202 Z " />
<glyph glyph-name="circumflex" unicode="&#x2c6;" horiz-adv-x="600" d="M65 575 L164 575 L211 652 L256 575 L355 575 L285 715 L135 715 L65 575 Z " />
<glyph glyph-name="caron" unicode="&#x2c7;" horiz-adv-x="600" d="M65 715 L135 575 L285 575 L355 715 L256 715 L211 638 L164 715 L65 715 Z " />
<glyph glyph-name="breve" unicode="&#x2d8;" horiz-adv-x="600" d="M65 715 C65 632 119 575 206 575 C291 575 345 632 345 715 L253 715 C253 676 236 652 206 652 C174 652 157 676 157 715 L65 715 Z " />
<glyph glyph-name="dotaccent" unicode="&#x2d9;" horiz-adv-x="600" d="M130 580 C167 580 195 608 195 645 C195 682 167 710 130 710 C93 710 65 682 65 645 C65 608 93 580 130 580 L130 580 Z " />
<glyph glyph-name="ring" unicode="&#x2da;" horiz-adv-x="600" d="M167 505 C229 505 277 552 277 613 C277 673 229 720 167 720 C105 720 58 673 58 613 C58 552 105 505 167 505 L167 505 Z M167 572 C145 572 126 590 126 613 C126 635 145 654 167 654 C190 654 208 635 208 613 C208 590 190 572 167 572 L167 572 Z " />
<glyph glyph-name="ogonek" unicode="&#x2db;" horiz-adv-x="600" d="M177 -225 C250 -225 291 -168 291 -168 L242 -107 C242 -107 220 -134 190 -134 C169 -134 153 -119 153 -97 C153 -65 185 -40 247 0 L161 10 C110 -20 65 -62 65 -121 C65 -184 113 -225 177 -225 L177 -225 Z " />
<glyph glyph-name="tilde" unicode="&#x2dc;" horiz-adv-x="600" d="M60 605 C60 605 82 624 120 624 C188 624 221 593 289 593 C327 593 350 618 350 618 L350 696 C350 696 327 676 289 676 C221 676 188 708 120 708 C82 708 60 682 60 682 L60 605 Z " />
<glyph glyph-name="hungarumlaut" unicode="&#x2dd;" horiz-adv-x="600" d="M65 575 L164 575 L204 715 L89 715 L65 575 Z M223 575 L322 575 L361 715 L246 715 L223 575 Z " />
<glyph glyph-name="gravecomb" unicode="&#x300;" d="M-65 575 L-89 715 L-219 715 L-179 575 L-65 575 Z " />
<glyph glyph-name="acutecomb" unicode="&#x301;" d="M-219 575 L-105 575 L-65 715 L-195 715 L-219 575 Z " />
<glyph glyph-name="uni0302" unicode="&#x302;" d="M-355 575 L-256 575 L-209 652 L-164 575 L-65 575 L-135 715 L-285 715 L-355 575 Z " />
<glyph glyph-name="tildecomb" unicode="&#x303;" d="M-350 605 C-350 605 -328 624 -290 624 C-222 624 -189 593 -121 593 C-83 593 -60 618 -60 618 L-60 696 C-60 696 -83 676 -121 676 C-189 676 -222 708 -290 708 C-328 708 -350 682 -350 682 L-350 605 Z " />
<glyph glyph-name="uni0304" unicode="&#x304;" d="M-350 608 L-60 608 L-60 692 L-350 692 L-350 608 Z " />
<glyph glyph-name="uni0306" unicode="&#x306;" d="M-345 715 C-345 632 -291 575 -204 575 C-119 575 -65 632 -65 715 L-157 715 C-157 676 -174 652 -204 652 C-236 652 -253 676 -253 715 L-345 715 Z " />
<glyph glyph-name="uni0307" unicode="&#x307;" d="M-130 580 C-93 580 -65 608 -65 645 C-65 682 -93 710 -130 710 C-167 710 -195 682 -195 645 C-195 608 -167 580 -130 580 L-130 580 Z " />
<glyph glyph-name="uni0308" unicode="&#x308;" d="M-303 580 C-266 580 -238 608 -238 645 C-238 682 -266 710 -303 710 C-340 710 -368 682 -368 645 C-368 608 -340 580 -303 580 L-303 580 Z M-130 580 C-93 580 -65 608 -65 645 C-65 682 -93 710 -130 710 C-168 710 -195 682 -195 645 C-195 608 -168 580 -130 580 L-130 580 Z " />
<glyph glyph-name="uni030A" unicode="&#x30a;" d="M-168 505 C-106 505 -58 552 -58 613 C-58 673 -106 720 -168 720 C-230 720 -277 673 -277 613 C-277 552 -230 505 -168 505 L-168 505 Z M-168 572 C-190 572 -209 590 -209 613 C-209 635 -190 654 -168 654 C-145 654 -127 635 -127 613 C-127 590 -145 572 -168 572 L-168 572 Z " />
<glyph glyph-name="uni030B" unicode="&#x30b;" d="M-361 575 L-262 575 L-222 715 L-337 715 L-361 575 Z M-203 575 L-104 575 L-65 715 L-180 715 L-203 575 Z " />
<glyph glyph-name="uni030C" unicode="&#x30c;" d="M-355 715 L-285 575 L-135 575 L-65 715 L-164 715 L-209 638 L-256 715 L-355 715 Z " />
<glyph glyph-name="uni0312" unicode="&#x312;" d="M-65 715 L-179 715 L-219 575 L-89 575 L-65 715 Z " />
<glyph glyph-name="uni0326" unicode="&#x326;" d="M-219 -220 L-105 -220 L-65 -80 L-195 -80 L-219 -220 Z " />
<glyph glyph-name="uni0327" unicode="&#x327;" d="M-156 -41 L-138 0 L-205 0 L-245 -85 L-212 -108 C-212 -108 -201 -98 -184 -98 C-165 -98 -151 -109 -151 -125 C-151 -143 -167 -155 -189 -155 C-222 -155 -245 -136 -245 -136 L-273 -188 C-273 -188 -237 -220 -180 -220 C-106 -220 -65 -177 -65 -128 C-65 -81 -98 -44 -156 -41 L-156 -41 Z " />
<glyph glyph-name="uni0328" unicode="&#x328;" d="M-179 -225 C-106 -225 -65 -168 -65 -168 L-114 -107 C-114 -107 -136 -134 -166 -134 C-187 -134 -203 -119 -203 -97 C-203 -65 -171 -40 -109 0 L-195 10 C-246 -20 -291 -62 -291 -121 C-291 -184 -243 -225 -179 -225 L-179 -225 Z " />
<glyph glyph-name="uni0394" unicode="&#x394;" horiz-adv-x="720" d="M424 715 L297 715 L5 0 L715 0 L424 715 Z M206 122 L356 511 L501 122 L206 122 Z " />
<glyph glyph-name="uni03A9" unicode="&#x3a9;" horiz-adv-x="823" d="M788 373 C788 574 623 730 411 730 C200 730 35 574 35 373 C35 266 78 185 147 130 L45 130 L45 0 L326 0 L326 130 C239 163 180 252 180 358 C180 490 281 593 411 593 C542 593 643 490 643 358 C643 252 583 163 496 130 L496 0 L778 0 L778 130 L676 130 C745 185 788 266 788 373 L788 373 Z " />
<glyph glyph-name="uni03BC" unicode="&#x3bc;" horiz-adv-x="511" d="M330 463 L330 184 C330 140 301 111 259 111 C217 111 188 140 188 184 L188 463 L58 463 L58 -220 L188 -220 L188 9 C212 -7 240 -15 274 -15 C379 -15 460 64 460 186 L460 463 L330 463 Z " />
<glyph glyph-name="pi" unicode="&#x3c0;" horiz-adv-x="608" d="M585 463 L23 463 L23 341 L103 341 L103 0 L233 0 L233 341 L375 341 L375 0 L505 0 L505 341 L585 341 L585 463 Z " />
<glyph glyph-name="Wgrave" unicode="&#x1e80;" horiz-adv-x="1040" d="M585 777 L561 917 L431 917 L471 777 L585 777 Z M889 715 L741 242 L586 715 L468 715 L314 246 L166 715 L5 715 L241 0 L359 0 L520 483 L682 0 L800 0 L1035 715 L889 715 Z " />
<glyph glyph-name="wgrave" unicode="&#x1e81;" horiz-adv-x="728" d="M428 525 L404 665 L274 665 L314 525 L428 525 Z M594 463 L504 197 L423 463 L320 463 L239 195 L148 463 L3 463 L175 0 L279 0 L364 273 L449 0 L552 0 L725 463 L594 463 Z " />
<glyph glyph-name="Wacute" unicode="&#x1e82;" horiz-adv-x="1040" d="M625 917 L495 917 L471 777 L585 777 L625 917 Z M889 715 L741 242 L586 715 L468 715 L314 246 L166 715 L5 715 L241 0 L359 0 L520 483 L682 0 L800 0 L1035 715 L889 715 Z " />
<glyph glyph-name="wacute" unicode="&#x1e83;" horiz-adv-x="728" d="M468 665 L338 665 L314 525 L428 525 L468 665 Z M594 463 L504 197 L423 463 L320 463 L239 195 L148 463 L3 463 L175 0 L279 0 L364 273 L449 0 L552 0 L725 463 L594 463 Z " />
<glyph glyph-name="Wdieresis" unicode="&#x1e84;" horiz-adv-x="1040" d="M442 782 C479 782 507 810 507 847 C507 884 479 912 442 912 C405 912 377 884 377 847 C377 810 405 782 442 782 L442 782 Z M615 782 C652 782 680 810 680 847 C680 884 652 912 615 912 C577 912 550 884 550 847 C550 810 577 782 615 782 L615 782 Z M889 715 L741 242 L586 715 L468 715 L314 246 L166 715 L5 715 L241 0 L359 0 L520 483 L682 0 L800 0 L1035 715 L889 715 Z " />
<glyph glyph-name="wdieresis" unicode="&#x1e85;" horiz-adv-x="728" d="M285 530 C322 530 350 558 350 595 C350 632 322 660 285 660 C248 660 220 632 220 595 C220 558 248 530 285 530 L285 530 Z M458 530 C495 530 523 558 523 595 C523 632 495 660 458 660 C420 660 393 632 393 595 C393 558 420 530 458 530 L458 530 Z M594 463 L504 197 L423 463 L320 463 L239 195 L148 463 L3 463 L175 0 L279 0 L364 273 L449 0 L552 0 L725 463 L594 463 Z " />
<glyph glyph-name="Ygrave" unicode="&#x1ef2;" horiz-adv-x="610" d="M370 777 L346 917 L216 917 L256 777 L370 777 Z M233 0 L378 0 L378 334 L615 715 L460 715 L313 478 L165 715 L-5 715 L233 334 L233 0 Z " />
<glyph glyph-name="ygrave" unicode="&#x1ef3;" horiz-adv-x="480" d="M305 525 L281 665 L151 665 L191 525 L305 525 Z M347 463 L245 189 L148 463 L3 463 L176 26 L75 -220 L206 -220 L478 463 L347 463 Z " />
<glyph glyph-name="endash" unicode="&#x2013;" horiz-adv-x="660" d="M50 248 L610 248 L610 370 L50 370 L50 248 Z " />
<glyph glyph-name="emdash" unicode="&#x2014;" horiz-adv-x="890" d="M50 248 L840 248 L840 370 L50 370 L50 248 Z " />
<glyph glyph-name="quoteleft" unicode="&#x2018;" horiz-adv-x="268" d="M218 715 L103 715 L63 415 L194 415 L218 715 Z " />
<glyph glyph-name="quoteright" unicode="&#x2019;" horiz-adv-x="268" d="M50 415 L165 415 L205 715 L74 715 L50 415 Z " />
<glyph glyph-name="quotesinglbase" unicode="&#x201a;" horiz-adv-x="268" d="M50 -150 L165 -150 L205 150 L74 150 L50 -150 Z " />
<glyph glyph-name="quotedblleft" unicode="&#x201c;" horiz-adv-x="484" d="M218 715 L103 715 L63 415 L194 415 L218 715 Z M434 715 L319 715 L279 415 L410 415 L434 715 Z " />
<glyph glyph-name="quotedblright" unicode="&#x201d;" horiz-adv-x="484" d="M50 415 L165 415 L205 715 L74 715 L50 415 Z M266 415 L381 415 L421 715 L290 715 L266 415 Z " />
<glyph glyph-name="quotedblbase" unicode="&#x201e;" horiz-adv-x="484" d="M50 -150 L165 -150 L205 150 L74 150 L50 -150 Z M266 -150 L381 -150 L421 150 L290 150 L266 -150 Z " />
<glyph glyph-name="dagger" unicode="&#x2020;" horiz-adv-x="370" d="M325 601 L235 601 L235 700 L135 700 L135 601 L45 601 L45 516 L135 516 L135 215 L235 215 L235 516 L325 516 L325 601 Z " />
<glyph glyph-name="daggerdbl" unicode="&#x2021;" horiz-adv-x="370" d="M325 516 L325 601 L235 601 L235 700 L135 700 L135 601 L45 601 L45 516 L135 516 L135 399 L45 399 L45 314 L135 314 L135 215 L235 215 L235 314 L325 314 L325 399 L235 399 L235 516 L325 516 Z " />
<glyph glyph-name="bullet" unicode="&#x2022;" horiz-adv-x="350" d="M175 233 C248 233 300 287 300 358 C300 428 248 483 175 483 C103 483 50 428 50 358 C50 287 103 233 175 233 L175 233 Z " />
<glyph glyph-name="ellipsis" unicode="&#x2026;" horiz-adv-x="903" d="M134 -13 C182 -13 218 24 218 71 C218 118 182 155 134 155 C85 155 50 118 50 71 C50 24 85 -13 134 -13 L134 -13 Z M452 -13 C500 -13 536 24 536 71 C536 118 500 155 452 155 C403 155 368 118 368 71 C368 24 403 -13 452 -13 L452 -13 Z M769 -13 C817 -13 853 24 853 71 C853 118 817 155 769 155 C720 155 685 118 685 71 C685 24 720 -13 769 -13 L769 -13 Z " />
<glyph glyph-name="perthousand" unicode="&#x2030;" horiz-adv-x="1295" d="M222 380 C322 380 400 457 400 555 C400 653 322 730 222 730 C123 730 45 653 45 555 C45 457 123 380 222 380 L222 380 Z M208 0 L271 0 L673 715 L609 715 L208 0 Z M222 476 C179 476 144 511 144 555 C144 599 179 634 222 634 C266 634 301 599 301 555 C301 511 266 476 222 476 L222 476 Z M658 -15 C758 -15 835 62 835 160 C835 258 758 335 658 335 C558 335 481 258 481 160 C481 62 558 -15 658 -15 L658 -15 Z M1073 -15 C1173 -15 1250 62 1250 160 C1250 258 1173 335 1073 335 C973 335 896 258 896 160 C896 62 973 -15 1073 -15 L1073 -15 Z M658 81 C614 81 579 116 579 160 C579 204 614 239 658 239 C702 239 737 204 737 160 C737 116 702 81 658 81 L658 81 Z M1073 81 C1029 81 994 116 994 160 C994 204 1029 239 1073 239 C1117 239 1152 204 1152 160 C1152 116 1117 81 1073 81 L1073 81 Z " />
<glyph glyph-name="guilsinglleft" unicode="&#x2039;" horiz-adv-x="373" d="M323 160 L323 267 L199 358 L323 448 L323 555 L50 378 L50 338 L323 160 Z " />
<glyph glyph-name="guilsinglright" unicode="&#x203a;" horiz-adv-x="373" d="M50 160 L323 338 L323 378 L50 555 L50 448 L174 358 L50 267 L50 160 Z " />
<glyph glyph-name="fraction" unicode="&#x2044;" horiz-adv-x="120" d="M-173 0 L-109 0 L293 715 L229 715 L-173 0 Z " />
<glyph glyph-name="Euro" unicode="&#x20ac;" horiz-adv-x="553" d="M321 111 C271 111 241 162 231 269 L410 269 L410 324 L227 324 C227 335 227 346 227 358 L227 392 L443 392 L443 446 L231 446 C241 553 271 604 321 604 C354 604 378 579 393 533 L518 558 C483 675 414 730 321 730 C198 730 113 639 94 446 L33 446 L33 392 L91 392 C90 381 90 370 90 358 C90 346 90 335 91 324 L33 324 L33 269 L94 269 C114 76 199 -15 321 -15 C414 -15 483 40 518 157 L393 182 C378 136 354 111 321 111 L321 111 Z " />
<glyph glyph-name="trademark" unicode="&#x2122;" horiz-adv-x="582" d="M45 656 L105 656 L105 463 L170 463 L170 656 L231 656 L231 715 L45 715 L45 656 Z M485 715 L399 551 L312 715 L259 715 L259 463 L318 463 L318 586 L385 463 L410 463 L478 586 L478 463 L537 463 L537 715 L485 715 Z " />
<glyph glyph-name="minus" unicode="&#x2212;" horiz-adv-x="553" d="M50 249 L503 249 L503 371 L50 371 L50 249 Z " />
<glyph glyph-name="approxequal" unicode="&#x2248;" horiz-adv-x="553" d="M50 353 C50 353 89 379 145 379 C259 379 293 329 408 329 C464 329 503 359 503 359 L503 469 C503 469 464 444 408 444 C294 444 260 494 145 494 C89 494 50 464 50 464 L50 353 Z M50 151 C50 151 89 177 145 177 C259 177 293 127 408 127 C464 127 503 157 503 157 L503 267 C503 267 464 241 408 241 C294 241 260 291 145 291 C89 291 50 261 50 261 L50 151 Z " />
<glyph glyph-name="notequal" unicode="&#x2260;" horiz-adv-x="553" d="M503 354 L503 468 L372 468 L406 552 L344 552 L310 468 L50 468 L50 354 L263 354 L227 266 L50 266 L50 151 L180 151 L146 67 L209 67 L243 151 L503 151 L503 266 L290 266 L326 354 L503 354 Z " />
<glyph glyph-name="lessequal" unicode="&#x2264;" horiz-adv-x="553" d="M503 228 L503 359 L238 448 L503 537 L503 668 L50 493 L50 403 L503 228 Z M503 68 L503 183 L50 183 L50 68 L503 68 Z " />
<glyph glyph-name="greaterequal" unicode="&#x2265;" horiz-adv-x="553" d="M50 228 L503 403 L503 493 L50 668 L50 537 L315 448 L50 359 L50 228 Z M50 68 L503 68 L503 183 L50 183 L50 68 Z " />
<glyph glyph-name="fi" unicode="&#xfb01;" horiz-adv-x="613" d="M103 562 L103 463 L23 463 L23 341 L103 341 L103 0 L233 0 L233 341 L333 341 L333 463 L233 463 L233 551 C233 602 259 633 308 633 C336 633 355 625 355 625 L355 745 C355 745 333 755 286 755 C173 755 103 682 103 562 L103 562 Z M484 550 C532 550 568 586 568 630 C568 674 532 710 484 710 C435 710 400 674 400 630 C400 586 435 550 484 550 L484 550 Z M419 0 L549 0 L549 463 L419 463 L419 0 Z " />
<glyph glyph-name="fl" unicode="&#xfb02;" horiz-adv-x="613" d="M103 562 L103 463 L23 463 L23 341 L103 341 L103 0 L233 0 L233 341 L333 341 L333 463 L233 463 L233 551 C233 602 259 633 308 633 C336 633 355 625 355 625 L355 745 C355 745 333 755 286 755 C173 755 103 682 103 562 L103 562 Z M419 740 L419 0 L549 0 L549 740 L419 740 Z " />
</font>
</svg>
