<?xml version="1.0" encoding="utf-8"?>
<!-- Generator: Adobe Illustrator 24.0.1, SVG Export Plug-In . SVG Version: 6.00 Build 0)  -->
<svg version="1.1" id="Layer_1" xmlns="http://www.w3.org/2000/svg" xmlns:xlink="http://www.w3.org/1999/xlink" x="0px" y="0px"
	 viewBox="0 0 1920 1080" style="enable-background:new 0 0 1920 1080;" xml:space="preserve">
<style type="text/css">
	.st0{fill:#72CEE7;}
</style>
<g>
	<polygon class="st0" points="965.5,521.18 954.5,521.18 954.5,534.5 941.18,534.5 941.18,545.5 954.5,545.5 954.5,558.82 
		965.5,558.82 965.5,545.5 978.82,545.5 978.82,534.5 965.5,534.5 	"/>
	<path class="st0" d="M960,500c-22.09,0-40,17.91-40,40c0,22.09,17.91,40,40,40s40-17.91,40-40C1000,517.91,982.09,500,960,500z
		 M960,566.26c-14.48,0-26.26-11.78-26.26-26.26s11.78-26.26,26.26-26.26c14.48,0,26.26,11.78,26.26,26.26S974.48,566.26,960,566.26
		z"/>
</g>
</svg>
