<?xml version="1.0" encoding="utf-8"?>
<!-- Generator: Adobe Illustrator 24.0.1, SVG Export Plug-In . SVG Version: 6.00 Build 0)  -->
<svg version="1.1" id="Layer_1" xmlns="http://www.w3.org/2000/svg" xmlns:xlink="http://www.w3.org/1999/xlink" x="0px" y="0px"
	 viewBox="0 0 1920 1080" style="enable-background:new 0 0 1920 1080;" xml:space="preserve">
<style type="text/css">
	.st0{fill:#FFFFFF;}
	.st1{fill:#39A1D2;}
	.st2{fill:#00567B;}
</style>
<g>
	<circle class="st0" cx="960" cy="540" r="40"/>
	<path class="st1" d="M960,580c-22.06,0-40-17.94-40-40s17.94-40,40-40s40,17.94,40,40S982.06,580,960,580z M960,504
		c-19.85,0-36,16.15-36,36s16.15,36,36,36s36-16.15,36-36S979.85,504,960,504z"/>
	<g id="cloud_icon-2" transform="translate(1129 591)">
		<path id="Path_12" class="st2" d="M-156.62-61.25c-0.39,0-0.79,0.02-1.18,0.07c-1.82-6.9-8.89-11.02-15.79-9.21
			c-5.68,1.49-9.63,6.63-9.63,12.5v0.32l0,0c-4.8,0-8.68,3.89-8.68,8.69s3.89,8.69,8.68,8.69h4.24v-3.69h-4.24
			c-2.76,0.12-5.1-2.01-5.22-4.77c-0.12-2.76,2.01-5.1,4.77-5.22c0.15-0.01,0.3-0.01,0.45,0h2.06c1.02,0,1.85-0.83,1.85-1.85
			c0-0.12-0.01-0.24-0.04-0.36c-0.12-0.59-0.18-1.2-0.18-1.8c0-5.1,4.13-9.23,9.23-9.23c4.74,0,8.71,3.59,9.19,8.31
			c0.05,0.55,0.35,1.06,0.82,1.36c0.47,0.31,1.05,0.38,1.58,0.21c0.67-0.22,1.38-0.33,2.09-0.33c3.78,0.01,6.83,3.06,6.84,6.84
			c-0.01,1.99-0.88,3.88-2.38,5.19c-0.95,1.05-2.29,1.65-3.7,1.65h-2.09v3.69h2.09c2.39,0.01,4.68-0.99,6.31-2.74
			c4.31-3.9,4.64-10.54,0.74-14.85C-150.81-59.99-153.65-61.25-156.62-61.25z"/>
		<path id="Path_13" class="st2" d="M-161.77-44.35h-0.09v-0.4c0-3.67-2.98-6.65-6.65-6.65c-3.67,0-6.65,2.98-6.65,6.65v0.4h-0.09
			c-1.43,0-2.59,1.16-2.59,2.59v7.98c0,1.43,1.16,2.59,2.59,2.59h13.47c1.43,0,2.59-1.16,2.59-2.59v-7.98
			c0.01-1.42-1.13-2.58-2.55-2.59C-161.75-44.35-161.76-44.35-161.77-44.35z M-171.46-44.75c0-1.63,1.32-2.96,2.96-2.96
			s2.96,1.32,2.96,2.96c0,0,0,0,0,0v0.4h-5.92V-44.75z M-162.86-34.87h-11.29v-5.79h11.28L-162.86-34.87L-162.86-34.87z"/>
		<path id="Path_14" class="st2" d="M-169.25-37.4v1.76h1.49v-1.76c0.5-0.27,0.81-0.79,0.81-1.36c0.01-0.86-0.69-1.57-1.55-1.57
			c-0.86-0.01-1.57,0.69-1.57,1.55C-170.08-38.21-169.76-37.67-169.25-37.4z"/>
	</g>
</g>
</svg>
