<?xml version="1.0" encoding="utf-8"?>
<!-- Generator: Adobe Illustrator 24.0.1, SVG Export Plug-In . SVG Version: 6.00 Build 0)  -->
<svg version="1.1" id="Layer_1" xmlns="http://www.w3.org/2000/svg" xmlns:xlink="http://www.w3.org/1999/xlink" x="0px" y="0px"
	 viewBox="0 0 1920 1080" style="enable-background:new 0 0 1920 1080;" xml:space="preserve">
<style type="text/css">
	.st0{fill:url(#SVGID_1_);}
	.st1{fill:url(#SVGID_2_);}
	.st2{fill:url(#SVGID_3_);}
</style>
<g>
	<g>
		<radialGradient id="SVGID_1_" cx="933.3956" cy="537.5312" r="84.2906" gradientUnits="userSpaceOnUse">
			<stop  offset="0" style="stop-color:#72CEE7"/>
			<stop  offset="1" style="stop-color:#0074BC"/>
		</radialGradient>
		<path class="st0" d="M1004.21,508.66c-1.4,0-2.73,0.28-3.95,0.79c-4.51-2.36-9.56-3.62-14.8-3.62c-0.53,0-1.05,0.01-1.58,0.04
			c-0.18,0.01-0.36,0.03-0.54,0.04c-0.34,0.02-0.67,0.04-1.01,0.08c-0.22,0.02-0.44,0.05-0.66,0.08c-0.29,0.03-0.58,0.07-0.86,0.11
			c-0.24,0.04-0.48,0.08-0.72,0.12c-0.26,0.04-0.52,0.09-0.78,0.14c-0.25,0.05-0.51,0.1-0.76,0.16c-0.24,0.05-0.47,0.11-0.7,0.16
			c-0.27,0.07-0.53,0.14-0.8,0.21c-0.21,0.06-0.42,0.12-0.63,0.18c-0.28,0.08-0.56,0.17-0.83,0.26c-0.18,0.06-0.37,0.12-0.55,0.19
			c-0.3,0.1-0.59,0.21-0.88,0.32c-0.15,0.06-0.29,0.12-0.44,0.17c-0.32,0.13-0.64,0.26-0.96,0.39c-0.1,0.04-0.19,0.09-0.28,0.13
			c-2.96,1.33-5.69,3.09-8.09,5.2c-6.65,5.86-10.86,14.43-10.86,23.97c0,11.63-9.46,21.08-21.08,21.08s-21.08-9.46-21.08-21.08
			c0-11.63,9.46-21.09,21.08-21.09c8.87,0,16.47,5.5,19.58,13.27c1.81-7.77,6.27-14.53,12.37-19.29v-19.74
			c2.95-1.83,4.93-5.09,4.93-8.81c0-5.71-4.65-10.36-10.36-10.36s-10.36,4.65-10.36,10.36c0,3.72,1.98,6.98,4.93,8.81v22.87
			c-5.63-4.96-13.01-7.98-21.08-7.98c-17.62,0-31.95,14.33-31.95,31.95c0,17.62,14.33,31.95,31.95,31.95c0.63,0,1.26-0.02,1.88-0.06
			c0.19-0.01,0.39-0.03,0.58-0.04c0.43-0.03,0.87-0.07,1.29-0.12c0.21-0.02,0.42-0.05,0.63-0.08c0.43-0.06,0.86-0.13,1.28-0.2
			c0.18-0.03,0.37-0.06,0.55-0.1c0.6-0.12,1.19-0.25,1.77-0.4c0.01,0,0.02-0.01,0.03-0.01c0.57-0.15,1.14-0.32,1.7-0.5
			c0.17-0.06,0.35-0.12,0.52-0.18c0.4-0.14,0.8-0.28,1.2-0.43c0.19-0.07,0.37-0.14,0.56-0.22c0.4-0.16,0.8-0.33,1.19-0.51
			c0.15-0.07,0.31-0.14,0.46-0.21c0.54-0.26,1.08-0.52,1.6-0.81c0,0,0.01,0,0.01-0.01c0.52-0.28,1.02-0.58,1.52-0.89
			c0.14-0.09,0.28-0.18,0.42-0.27c0.36-0.23,0.72-0.47,1.08-0.72c0.15-0.11,0.3-0.21,0.45-0.32c0.36-0.26,0.72-0.53,1.06-0.81
			c0.12-0.09,0.23-0.18,0.35-0.27c0.92-0.75,1.8-1.55,2.63-2.4c0.11-0.11,0.22-0.23,0.32-0.34c0.31-0.32,0.61-0.65,0.9-0.98
			c0.12-0.13,0.23-0.26,0.34-0.4c0.3-0.35,0.59-0.71,0.87-1.07c0.08-0.11,0.17-0.21,0.25-0.32c0.37-0.48,0.72-0.97,1.06-1.47
			c3.43-5.09,5.43-11.22,5.43-17.8c0-11.63,9.46-21.09,21.08-21.09c2.95,0,5.79,0.61,8.42,1.75c-0.01,0.19-0.03,0.39-0.03,0.58
			c0,5.71,4.65,10.36,10.36,10.36s10.36-4.65,10.36-10.36C1014.58,513.31,1009.93,508.66,1004.21,508.66z M958.95,475.38
			c3.72,0,6.74,3.02,6.74,6.74c0,3.72-3.02,6.74-6.74,6.74c-3.72,0-6.74-3.03-6.74-6.74C952.2,478.4,955.23,475.38,958.95,475.38z
			 M1004.21,525.77c-3.72,0-6.74-3.02-6.74-6.74c0-3.72,3.02-6.74,6.74-6.74s6.74,3.03,6.74,6.74
			C1010.96,522.74,1007.93,525.77,1004.21,525.77z"/>
		<radialGradient id="SVGID_2_" cx="1004.6775" cy="556.9847" r="43.5927" gradientUnits="userSpaceOnUse">
			<stop  offset="0" style="stop-color:#72CEE7"/>
			<stop  offset="1" style="stop-color:#0074BC"/>
		</radialGradient>
		<path class="st1" d="M1004.21,546.16c-5.71,0-10.36,4.65-10.36,10.36c0,0.2,0.02,0.39,0.03,0.58c-2.62,1.14-5.47,1.75-8.42,1.75
			c-8.87,0-16.47-5.5-19.58-13.27c-1.03,4.39-2.89,8.46-5.43,12.03c5.86,7.37,14.88,12.11,25,12.11c5.24,0,10.29-1.26,14.8-3.62
			c1.22,0.5,2.55,0.79,3.95,0.79c5.71,0,10.36-4.65,10.36-10.36C1014.58,550.81,1009.93,546.16,1004.21,546.16z M1004.21,563.27
			c-3.72,0-6.74-3.03-6.74-6.74c0-3.72,3.02-6.74,6.74-6.74s6.74,3.02,6.74,6.74C1010.96,560.24,1007.93,563.27,1004.21,563.27z"/>
	</g>
	<linearGradient id="SVGID_3_" gradientUnits="userSpaceOnUse" x1="1047.407" y1="687.7416" x2="869.8911" y2="510.2258">
		<stop  offset="0" style="stop-color:#72CEE7"/>
		<stop  offset="1" style="stop-color:#0074BC"/>
	</linearGradient>
	<path class="st2" d="M789.92,590.2h6.62c1.39,0,2.66,0.22,3.81,0.67c1.16,0.45,2.15,1.07,2.99,1.86c0.84,0.79,1.48,1.73,1.94,2.8
		s0.68,2.23,0.68,3.48v0.05c0,1.25-0.23,2.42-0.68,3.5c-0.46,1.08-1.1,2.02-1.94,2.81c-0.84,0.79-1.83,1.42-2.99,1.88
		c-1.16,0.46-2.43,0.68-3.81,0.68h-6.62V590.2z M796.51,605.13c0.93,0,1.77-0.15,2.53-0.45c0.76-0.3,1.41-0.71,1.94-1.25
		c0.53-0.54,0.95-1.17,1.24-1.91c0.3-0.74,0.44-1.54,0.44-2.41v-0.05c0-0.87-0.15-1.67-0.44-2.42c-0.3-0.75-0.71-1.39-1.24-1.92
		c-0.53-0.53-1.18-0.95-1.94-1.26c-0.76-0.31-1.61-0.46-2.53-0.46h-3.5v12.12H796.51z M823.69,593.8l-6.01,14.14h-3.19l7.81-17.87
		h2.89l7.81,17.87h-3.3L823.69,593.8z M845.41,593.09h-5.63v-2.89h14.4v2.89h-5.63v14.85h-3.14V593.09z M872.07,608.22
		c-1.15,0-2.19-0.16-3.12-0.49c-0.93-0.33-1.72-0.82-2.38-1.48c-0.66-0.66-1.17-1.47-1.52-2.45c-0.36-0.97-0.53-2.1-0.53-3.38V590.2
		h3.09v10.09c0,1.66,0.4,2.91,1.2,3.78c0.8,0.86,1.9,1.29,3.31,1.29c1.39,0,2.49-0.41,3.29-1.24c0.8-0.83,1.2-2.06,1.2-3.7V590.2
		h3.09v10.06c0,1.32-0.18,2.48-0.54,3.47c-0.36,1-0.87,1.83-1.53,2.5c-0.66,0.67-1.46,1.17-2.4,1.5
		C874.29,608.05,873.24,608.22,872.07,608.22z M891.7,590.2h3.32l5.4,8.39l5.4-8.39h3.32v17.74h-3.09v-12.72l-5.6,8.36h-0.1
		l-5.55-8.31v12.67h-3.09V590.2z M944.77,608.24c-1.3,0-2.5-0.24-3.6-0.71c-1.1-0.47-2.05-1.12-2.86-1.94s-1.44-1.79-1.9-2.9
		c-0.46-1.12-0.69-2.31-0.69-3.57v-0.05c0-1.27,0.23-2.45,0.68-3.56c0.45-1.11,1.08-2.08,1.9-2.92c0.82-0.84,1.78-1.5,2.9-1.98
		c1.12-0.48,2.35-0.72,3.7-0.72c0.81,0,1.55,0.07,2.22,0.2c0.67,0.14,1.28,0.33,1.84,0.57c0.56,0.25,1.07,0.54,1.55,0.87
		c0.47,0.34,0.92,0.71,1.34,1.12l-2,2.31c-0.71-0.66-1.46-1.19-2.26-1.6c-0.79-0.41-1.7-0.61-2.71-0.61c-0.85,0-1.63,0.17-2.34,0.49
		c-0.72,0.33-1.34,0.78-1.86,1.34c-0.52,0.57-0.93,1.23-1.22,1.99c-0.29,0.76-0.43,1.57-0.43,2.43v0.05c0,0.86,0.14,1.68,0.43,2.45
		c0.29,0.77,0.69,1.44,1.22,2.02c0.52,0.57,1.14,1.03,1.86,1.36c0.72,0.33,1.5,0.49,2.34,0.49c1.08,0,2.01-0.21,2.79-0.62
		c0.78-0.41,1.55-0.98,2.31-1.69l2,2.03c-0.46,0.49-0.93,0.93-1.43,1.31c-0.5,0.38-1.04,0.71-1.61,0.99
		c-0.57,0.28-1.2,0.49-1.89,0.63C946.36,608.17,945.6,608.24,944.77,608.24z M970.49,608.24c-1.37,0-2.62-0.24-3.75-0.72
		c-1.13-0.48-2.1-1.14-2.91-1.96c-0.81-0.83-1.44-1.8-1.9-2.9c-0.46-1.11-0.68-2.29-0.68-3.54v-0.05c0-1.25,0.23-2.43,0.68-3.54
		c0.46-1.11,1.1-2.08,1.93-2.91c0.83-0.84,1.81-1.5,2.94-1.99c1.13-0.49,2.38-0.74,3.75-0.74c1.37,0,2.62,0.24,3.75,0.72
		c1.13,0.48,2.1,1.14,2.91,1.96c0.81,0.83,1.44,1.8,1.9,2.9c0.46,1.11,0.68,2.29,0.68,3.54v0.05c0,1.25-0.23,2.43-0.68,3.54
		c-0.46,1.11-1.1,2.08-1.93,2.91c-0.83,0.84-1.81,1.5-2.94,1.99C973.11,608,971.86,608.24,970.49,608.24z M970.54,605.38
		c0.87,0,1.68-0.16,2.41-0.49c0.73-0.33,1.36-0.78,1.88-1.34c0.52-0.57,0.93-1.23,1.22-1.99c0.29-0.76,0.44-1.57,0.44-2.43v-0.05
		c0-0.86-0.15-1.68-0.44-2.45c-0.29-0.77-0.71-1.44-1.24-2c-0.53-0.57-1.17-1.02-1.91-1.36c-0.74-0.34-1.55-0.51-2.42-0.51
		c-0.88,0-1.68,0.17-2.41,0.49s-1.36,0.78-1.88,1.34c-0.52,0.57-0.93,1.23-1.22,1.99c-0.29,0.76-0.44,1.57-0.44,2.43v0.05
		c0,0.86,0.15,1.68,0.44,2.45c0.29,0.77,0.71,1.44,1.24,2c0.53,0.57,1.17,1.02,1.91,1.36C968.86,605.21,969.67,605.38,970.54,605.38
		z M991.07,590.2h2.88l9.49,12.27V590.2h3.09v17.74h-2.61l-9.76-12.62v12.62h-3.09V590.2z M1026.87,608.24c-1.3,0-2.5-0.24-3.6-0.71
		c-1.1-0.47-2.05-1.12-2.86-1.94c-0.81-0.82-1.44-1.79-1.9-2.9c-0.46-1.12-0.69-2.31-0.69-3.57v-0.05c0-1.27,0.23-2.45,0.68-3.56
		c0.45-1.11,1.08-2.08,1.9-2.92c0.82-0.84,1.78-1.5,2.9-1.98c1.12-0.48,2.35-0.72,3.7-0.72c0.81,0,1.55,0.07,2.22,0.2
		c0.67,0.14,1.28,0.33,1.84,0.57c0.56,0.25,1.07,0.54,1.55,0.87c0.47,0.34,0.92,0.71,1.34,1.12l-2,2.31
		c-0.71-0.66-1.46-1.19-2.26-1.6c-0.79-0.41-1.7-0.61-2.71-0.61c-0.85,0-1.63,0.17-2.34,0.49c-0.72,0.33-1.34,0.78-1.86,1.34
		c-0.52,0.57-0.93,1.23-1.22,1.99c-0.29,0.76-0.43,1.57-0.43,2.43v0.05c0,0.86,0.14,1.68,0.43,2.45c0.29,0.77,0.69,1.44,1.22,2.02
		c0.52,0.57,1.14,1.03,1.86,1.36c0.72,0.33,1.5,0.49,2.34,0.49c1.08,0,2.01-0.21,2.79-0.62c0.78-0.41,1.55-0.98,2.31-1.69l2,2.03
		c-0.46,0.49-0.93,0.93-1.43,1.31c-0.5,0.38-1.04,0.71-1.61,0.99c-0.57,0.28-1.2,0.49-1.89,0.63
		C1028.45,608.17,1027.69,608.24,1026.87,608.24z M1044.66,590.2h13.13v2.81h-10.04v4.56h8.9v2.81h-8.9v4.74h10.16v2.81h-13.26
		V590.2z M1069.28,590.2h7c1.03,0,1.96,0.14,2.8,0.42c0.84,0.28,1.55,0.68,2.13,1.2c0.58,0.52,1.03,1.15,1.34,1.88
		c0.31,0.73,0.47,1.54,0.47,2.43v0.05c0,1-0.19,1.87-0.56,2.62c-0.37,0.75-0.88,1.38-1.52,1.89c-0.64,0.51-1.4,0.89-2.26,1.15
		c-0.86,0.26-1.79,0.39-2.77,0.39h-3.53v5.7h-3.09V590.2z M1076.01,599.42c1.19,0,2.12-0.3,2.81-0.89c0.69-0.59,1.03-1.36,1.03-2.29
		v-0.05c0-1.05-0.35-1.84-1.04-2.38c-0.7-0.53-1.63-0.8-2.8-0.8h-3.64v6.41H1076.01z M1098.16,593.09h-5.63v-2.89h14.4v2.89h-5.63
		v14.85h-3.14V593.09z M1123.77,608.19c-1.37,0-2.68-0.23-3.93-0.7c-1.25-0.46-2.41-1.18-3.47-2.14l1.88-2.23
		c0.86,0.74,1.73,1.31,2.61,1.71c0.88,0.4,1.88,0.6,2.99,0.6c0.96,0,1.73-0.2,2.29-0.61c0.57-0.41,0.85-0.95,0.85-1.62v-0.05
		c0-0.32-0.05-0.6-0.17-0.85s-0.31-0.48-0.61-0.7c-0.3-0.22-0.7-0.42-1.22-0.61c-0.52-0.19-1.19-0.37-2.02-0.56
		c-0.95-0.22-1.79-0.47-2.53-0.75c-0.74-0.28-1.36-0.62-1.85-1.01c-0.5-0.4-0.88-0.88-1.14-1.46c-0.26-0.57-0.39-1.27-0.39-2.08
		v-0.05c0-0.76,0.15-1.46,0.45-2.09c0.3-0.63,0.72-1.17,1.24-1.62c0.53-0.45,1.16-0.8,1.9-1.05c0.74-0.25,1.55-0.38,2.43-0.38
		c1.3,0,2.47,0.19,3.51,0.57c1.04,0.38,2.02,0.93,2.93,1.66l-1.67,2.36c-0.81-0.59-1.61-1.04-2.41-1.36
		c-0.79-0.31-1.6-0.47-2.41-0.47c-0.91,0-1.62,0.2-2.13,0.61c-0.51,0.41-0.76,0.9-0.76,1.5v0.05c0,0.34,0.06,0.64,0.18,0.9
		c0.12,0.26,0.33,0.5,0.65,0.71c0.31,0.21,0.75,0.41,1.3,0.6c0.55,0.19,1.25,0.38,2.1,0.58c0.93,0.24,1.76,0.5,2.48,0.79
		c0.72,0.29,1.32,0.64,1.79,1.05c0.47,0.41,0.83,0.9,1.08,1.44c0.25,0.55,0.37,1.19,0.37,1.91v0.05c0,0.83-0.16,1.57-0.47,2.23
		c-0.31,0.66-0.74,1.22-1.29,1.67c-0.55,0.46-1.22,0.8-1.99,1.04C1125.55,608.07,1124.7,608.19,1123.77,608.19z"/>
</g>
</svg>
