<?xml version="1.0" encoding="utf-8"?>
<!-- Generator: Adobe Illustrator 24.0.1, SVG Export Plug-In . SVG Version: 6.00 Build 0)  -->
<svg version="1.1" id="Layer_1" xmlns="http://www.w3.org/2000/svg" xmlns:xlink="http://www.w3.org/1999/xlink" x="0px" y="0px"
	 viewBox="0 0 1920 1080" style="enable-background:new 0 0 1920 1080;" xml:space="preserve">
<style type="text/css">
	.st0{fill:url(#SVGID_1_);}
	.st1{fill:url(#SVGID_2_);}
</style>
<g>
	<radialGradient id="SVGID_1_" cx="935.8665" cy="556.7916" r="84.2906" gradientUnits="userSpaceOnUse">
		<stop  offset="0" style="stop-color:#72CEE7"/>
		<stop  offset="1" style="stop-color:#0074BC"/>
	</radialGradient>
	<path class="st0" d="M1006.68,527.92c-1.4,0-2.73,0.28-3.95,0.79c-4.51-2.36-9.56-3.62-14.8-3.62c-0.53,0-1.05,0.01-1.58,0.04
		c-0.18,0.01-0.36,0.03-0.54,0.04c-0.34,0.02-0.67,0.04-1.01,0.08c-0.22,0.02-0.44,0.05-0.66,0.08c-0.29,0.03-0.58,0.07-0.86,0.11
		c-0.24,0.04-0.48,0.08-0.72,0.12c-0.26,0.04-0.52,0.09-0.78,0.14c-0.25,0.05-0.51,0.1-0.76,0.16c-0.24,0.05-0.47,0.11-0.7,0.16
		c-0.27,0.07-0.53,0.14-0.8,0.21c-0.21,0.06-0.42,0.12-0.63,0.18c-0.28,0.08-0.56,0.17-0.83,0.26c-0.18,0.06-0.37,0.12-0.55,0.19
		c-0.3,0.1-0.59,0.21-0.88,0.32c-0.15,0.06-0.29,0.12-0.44,0.17c-0.32,0.13-0.64,0.26-0.96,0.39c-0.1,0.04-0.19,0.09-0.28,0.13
		c-2.96,1.33-5.69,3.09-8.09,5.2c-6.65,5.86-10.86,14.43-10.86,23.97c0,11.63-9.46,21.08-21.08,21.08s-21.08-9.46-21.08-21.08
		c0-11.63,9.46-21.09,21.08-21.09c8.87,0,16.47,5.5,19.58,13.27c1.81-7.77,6.27-14.53,12.37-19.29v-19.74
		c2.95-1.83,4.93-5.09,4.93-8.81c0-5.71-4.65-10.36-10.36-10.36c-5.71,0-10.36,4.65-10.36,10.36c0,3.72,1.98,6.98,4.93,8.81v22.87
		c-5.63-4.96-13.01-7.98-21.08-7.98c-17.62,0-31.95,14.33-31.95,31.95s14.33,31.95,31.95,31.95c0.63,0,1.26-0.02,1.88-0.06
		c0.19-0.01,0.39-0.03,0.58-0.04c0.43-0.03,0.87-0.07,1.29-0.12c0.21-0.03,0.42-0.05,0.63-0.08c0.43-0.06,0.86-0.13,1.28-0.2
		c0.18-0.03,0.37-0.06,0.55-0.1c0.6-0.12,1.19-0.25,1.77-0.4c0.01,0,0.02-0.01,0.03-0.01c0.57-0.15,1.14-0.32,1.7-0.5
		c0.17-0.06,0.35-0.12,0.52-0.18c0.4-0.14,0.8-0.28,1.2-0.43c0.19-0.07,0.37-0.14,0.56-0.22c0.4-0.16,0.8-0.33,1.19-0.51
		c0.15-0.07,0.31-0.14,0.46-0.21c0.54-0.26,1.08-0.52,1.6-0.81c0,0,0.01,0,0.01-0.01c0.52-0.28,1.02-0.58,1.52-0.89
		c0.14-0.09,0.28-0.18,0.42-0.27c0.36-0.23,0.72-0.47,1.08-0.72c0.15-0.11,0.3-0.21,0.45-0.32c0.36-0.26,0.72-0.53,1.07-0.81
		c0.12-0.09,0.23-0.18,0.35-0.27c0.92-0.75,1.8-1.55,2.63-2.4c0.11-0.11,0.22-0.23,0.32-0.34c0.31-0.32,0.61-0.65,0.9-0.98
		c0.12-0.13,0.23-0.26,0.34-0.4c0.3-0.35,0.59-0.71,0.87-1.07c0.08-0.11,0.17-0.21,0.25-0.32c0.37-0.48,0.72-0.97,1.06-1.47
		c3.43-5.09,5.43-11.22,5.43-17.8c0-11.63,9.46-21.09,21.08-21.09c2.95,0,5.79,0.61,8.42,1.75c-0.01,0.19-0.03,0.39-0.03,0.58
		c0,5.71,4.65,10.36,10.36,10.36c5.71,0,10.36-4.65,10.36-10.36C1017.05,532.57,1012.4,527.92,1006.68,527.92z M961.42,494.64
		c3.72,0,6.74,3.02,6.74,6.74s-3.02,6.74-6.74,6.74c-3.72,0-6.74-3.03-6.74-6.74S957.7,494.64,961.42,494.64z M1006.68,545.03
		c-3.72,0-6.74-3.02-6.74-6.74c0-3.72,3.02-6.74,6.74-6.74c3.72,0,6.74,3.03,6.74,6.74C1013.43,542,1010.4,545.03,1006.68,545.03z"
		/>
	<radialGradient id="SVGID_2_" cx="1007.1484" cy="576.2451" r="43.5927" gradientUnits="userSpaceOnUse">
		<stop  offset="0" style="stop-color:#72CEE7"/>
		<stop  offset="1" style="stop-color:#0074BC"/>
	</radialGradient>
	<path class="st1" d="M1006.68,565.42c-5.71,0-10.36,4.65-10.36,10.36c0,0.2,0.02,0.39,0.03,0.58c-2.62,1.14-5.47,1.75-8.42,1.75
		c-8.87,0-16.47-5.5-19.58-13.27c-1.03,4.39-2.89,8.46-5.43,12.03c5.86,7.37,14.88,12.11,25.01,12.11c5.24,0,10.29-1.26,14.8-3.62
		c1.22,0.5,2.55,0.79,3.95,0.79c5.71,0,10.36-4.65,10.36-10.36C1017.05,570.07,1012.4,565.42,1006.68,565.42z M1006.68,582.53
		c-3.72,0-6.74-3.03-6.74-6.74s3.02-6.74,6.74-6.74c3.72,0,6.74,3.02,6.74,6.74S1010.4,582.53,1006.68,582.53z"/>
</g>
</svg>
