<?xml version="1.0" encoding="UTF-8"?>
<svg xmlns="http://www.w3.org/2000/svg" xmlns:xlink="http://www.w3.org/1999/xlink" version="1.2" >
<font id="Intervogue Alt Black Oblq">
<font-face  font-family="Intervogue Alt" units-per-em="1000" ascent="740" descent="-220" font-style="italic" font-weight="800" font-stretch="normal" slope="-12" cap-height="720" x-height="480" underline-position="-75" underline-thickness="50" />
<missing-glyph  horiz-adv-x="600" d="M-26 70 L554 70 L678 650 L98 650 L-26 70 Z M187 272 L280 365 L187 458 L233 504 L326 411 L419 504 L465 458 L372 365 L465 272 L419 226 L326 319 L233 226 L187 272 Z " />
<glyph glyph-name="NULL" d="" />
<glyph glyph-name="CR" unicode="&#xd;" horiz-adv-x="250" d="" />
<glyph glyph-name="space" unicode="&#x20;" horiz-adv-x="300" d="" />
<glyph glyph-name="exclam" unicode="&#x21;" horiz-adv-x="280" d="M70 240 L210 240 L332 720 L152 720 L70 240 Z M107 -15 C165 -15 207 29 207 85 C207 141 165 185 107 185 C49 185 7 141 7 85 C7 29 49 -15 107 -15 L107 -15 Z " />
<glyph glyph-name="quotedbl" unicode="&#x22;" horiz-adv-x="515" d="M92 390 L252 390 L322 720 L162 720 L92 390 Z M327 390 L487 390 L557 720 L397 720 L327 390 Z " />
<glyph glyph-name="numbersign" unicode="&#x23;" horiz-adv-x="560" d="M578 720 L488 720 L414 510 L304 510 L378 720 L288 720 L214 510 L98 510 L79 420 L182 420 L140 300 L53 300 L34 210 L108 210 L34 0 L124 0 L198 210 L308 210 L234 0 L324 0 L398 210 L514 210 L533 300 L430 300 L472 420 L559 420 L578 510 L504 510 L578 720 Z M340 300 L230 300 L272 420 L382 420 L340 300 Z " />
<glyph glyph-name="dollar" unicode="&#x24;" horiz-adv-x="560" d="M365 441 C364 441 363 442 363 442 L394 587 C441 572 457 526 457 526 L589 585 C589 585 560 701 424 729 L439 800 L379 800 L365 735 L362 735 C237 735 147 673 125 570 C104 470 154 371 270 299 C271 299 271 298 272 298 L236 132 C169 149 150 221 150 221 L16 166 C16 166 47 22 206 -9 L187 -100 L247 -100 L265 -15 L269 -15 C397 -15 490 59 514 167 C537 271 488 363 365 441 L365 441 Z M289 542 C294 567 308 583 334 589 L311 483 C292 504 286 523 289 542 L289 542 Z M349 189 C344 159 327 139 296 131 L323 258 C346 234 353 212 349 189 L349 189 Z " />
<glyph glyph-name="percent" unicode="&#x25;" horiz-adv-x="880" d="M290 375 C393 375 473 454 473 555 C473 656 393 735 290 735 C187 735 107 656 107 555 C107 454 187 375 290 375 L290 375 Z M149 0 L224 0 L783 720 L708 720 L149 0 Z M290 490 C254 490 225 519 225 555 C225 591 254 620 290 620 C326 620 355 591 355 555 C355 519 326 490 290 490 L290 490 Z M642 -15 C745 -15 825 64 825 165 C825 266 745 345 642 345 C539 345 459 266 459 165 C459 64 539 -15 642 -15 L642 -15 Z M642 100 C606 100 577 129 577 165 C577 201 606 230 642 230 C678 230 707 201 707 165 C707 129 678 100 642 100 L642 100 Z " />
<glyph glyph-name="ampersand" unicode="&#x26;" horiz-adv-x="670" d="M683 370 L518 370 L434 280 L381 367 C483 437 522 482 535 545 C555 637 485 735 365 735 C265 735 182 676 162 580 C148 513 169 455 202 395 C80 319 30 269 14 190 C-10 74 74 -15 191 -15 C260 -15 329 11 401 69 L443 0 L604 0 L502 169 L683 370 Z M298 562 C304 597 324 615 354 615 C384 615 403 587 396 552 C390 523 371 502 321 468 C298 514 294 540 298 562 L298 562 Z M232 115 C190 115 167 151 175 192 C181 225 202 250 264 292 L336 175 C294 132 261 115 232 115 L232 115 Z " />
<glyph glyph-name="quotesingle" unicode="&#x27;" horiz-adv-x="280" d="M92 390 L252 390 L322 720 L162 720 L92 390 Z " />
<glyph glyph-name="parenleft" unicode="&#x28;" horiz-adv-x="310" d="M382 720 L215 720 C215 720 107 600 62 390 C17 180 75 0 75 0 L228 0 C228 0 164 170 207 370 C250 570 382 720 382 720 L382 720 Z " />
<glyph glyph-name="parenright" unicode="&#x29;" horiz-adv-x="310" d="M-21 0 L146 0 C146 0 254 120 299 330 C344 540 286 720 286 720 L133 720 C133 720 197 550 154 350 C111 150 -21 0 -21 0 L-21 0 Z " />
<glyph glyph-name="asterisk" unicode="&#x2a;" horiz-adv-x="462" d="M482 548 L451 643 L356 608 L381 706 L284 726 L267 627 L195 697 L128 624 L206 559 L108 532 L139 437 L234 472 L209 374 L306 354 L323 453 L395 383 L462 456 L385 521 L482 548 Z " />
<glyph glyph-name="plus" unicode="&#x2b;" horiz-adv-x="560" d="M551 385 L388 385 L423 550 L269 550 L234 385 L71 385 L39 235 L202 235 L167 70 L321 70 L356 235 L519 235 L551 385 Z " />
<glyph glyph-name="comma" unicode="&#x2c;" horiz-adv-x="280" d="M-43 -150 L102 -150 L212 180 L47 180 L-43 -150 Z " />
<glyph glyph-name="hyphen" unicode="&#x2d;" horiz-adv-x="420" d="M39 234 L379 234 L411 384 L71 384 L39 234 Z " />
<glyph glyph-name="period" unicode="&#x2e;" horiz-adv-x="280" d="M107 -15 C165 -15 207 29 207 85 C207 141 165 185 107 185 C49 185 7 141 7 85 C7 29 49 -15 107 -15 L107 -15 Z " />
<glyph glyph-name="slash" unicode="&#x2f;" horiz-adv-x="530" d="M-72 -100 L53 -100 L649 800 L515 800 L-72 -100 Z " />
<glyph glyph-name="zero" unicode="0" horiz-adv-x="560" d="M251 -15 C394 -15 488 89 543 350 C598 611 504 735 361 735 C218 735 123 631 68 370 C13 109 108 -15 251 -15 L251 -15 Z M265 145 C217 145 204 210 237 365 C270 520 299 575 347 575 C395 575 408 510 375 355 C342 200 313 145 265 145 L265 145 Z " />
<glyph glyph-name="one" unicode="1" horiz-adv-x="420" d="M108 0 L278 0 L432 720 L132 720 L100 570 L230 570 L108 0 Z " />
<glyph glyph-name="two" unicode="2" horiz-adv-x="525" d="M-30 0 L430 0 L462 150 L261 150 L442 339 C492 397 528 445 542 510 C568 629 478 735 345 735 C204 735 130 662 70 548 L207 480 C241 550 273 580 316 580 C356 580 379 549 371 512 C366 488 356 465 317 425 L-11 88 L-30 0 Z " />
<glyph glyph-name="three" unicode="3" horiz-adv-x="510" d="M308 735 C220 735 146 694 93 634 L178 533 C221 571 248 583 281 583 C325 583 355 542 346 502 C335 452 299 420 224 420 L169 420 L145 310 L190 310 C276 310 307 267 295 211 C285 165 247 137 197 137 C157 137 125 153 95 196 L-22 111 C14 42 90 -15 203 -15 C334 -15 430 60 456 175 C471 244 449 312 396 356 C459 387 501 436 515 501 C542 630 459 735 308 735 L308 735 Z " />
<glyph glyph-name="four" unicode="4" horiz-adv-x="560" d="M572 720 L392 720 L25 265 L6 175 L295 175 L258 0 L418 0 L455 175 L526 175 L555 315 L485 315 L572 720 Z M202 315 L371 530 L325 315 L202 315 Z " />
<glyph glyph-name="five" unicode="5" horiz-adv-x="530" d="M520 570 L552 720 L162 720 L61 270 L156 270 C156 270 184 315 242 315 C301 315 338 271 327 219 C317 171 279 140 224 140 C181 140 147 167 135 202 L0 121 C27 48 101 -15 218 -15 C351 -15 452 60 482 201 C510 332 434 455 297 455 C280 455 265 453 250 449 L278 570 L520 570 Z " />
<glyph glyph-name="six" unicode="6" horiz-adv-x="560" d="M319 445 L317 445 L519 720 L336 720 L111 399 C74 346 53 304 41 245 C14 110 113 -15 251 -15 C384 -15 483 69 511 199 C540 334 452 445 319 445 L319 445 Z M354 210 C345 166 312 140 269 140 C220 140 188 182 198 230 C207 274 240 300 283 300 C332 300 364 258 354 210 L354 210 Z " />
<glyph glyph-name="seven" unicode="7" horiz-adv-x="500" d="M122 720 L88 560 L336 560 L8 0 L202 0 L565 640 L582 720 L122 720 Z " />
<glyph glyph-name="eight" unicode="8" horiz-adv-x="560" d="M356 735 C239 735 142 674 117 555 C104 492 123 431 163 387 C101 359 55 310 39 235 C12 110 103 -15 256 -15 C379 -15 479 50 506 175 C521 244 500 310 455 355 C510 382 550 427 564 495 C589 614 503 735 356 735 L356 735 Z M270 519 C278 557 306 580 344 580 C386 580 414 543 406 501 C399 463 370 440 332 440 C289 440 261 477 270 519 L270 519 Z M354 210 C344 165 312 140 269 140 C220 140 188 183 198 230 C208 275 240 300 283 300 C331 300 364 257 354 210 L354 210 Z " />
<glyph glyph-name="nine" unicode="9" horiz-adv-x="560" d="M360 735 C227 735 128 651 100 521 C71 386 159 275 292 275 L294 275 L92 0 L275 0 L500 321 C537 374 558 416 570 475 C597 610 498 735 360 735 L360 735 Z M257 510 C266 554 299 580 342 580 C391 580 423 538 413 490 C404 446 371 420 328 420 C279 420 247 462 257 510 L257 510 Z " />
<glyph glyph-name="colon" unicode="&#x3a;" horiz-adv-x="280" d="M173 295 C231 295 273 339 273 395 C273 451 231 495 173 495 C115 495 73 451 73 395 C73 339 115 295 173 295 L173 295 Z M107 -15 C165 -15 207 29 207 85 C207 141 165 185 107 185 C49 185 7 141 7 85 C7 29 49 -15 107 -15 L107 -15 Z " />
<glyph glyph-name="semicolon" unicode="&#x3b;" horiz-adv-x="280" d="M173 295 C231 295 273 339 273 395 C273 451 231 495 173 495 C115 495 73 451 73 395 C73 339 115 295 173 295 L173 295 Z M-43 -150 L102 -150 L212 180 L47 180 L-43 -150 Z " />
<glyph glyph-name="less" unicode="&#x3c;" horiz-adv-x="560" d="M598 605 L78 415 L54 305 L494 115 L526 265 L286 350 L562 435 L598 605 Z " />
<glyph glyph-name="equal" unicode="&#x3d;" horiz-adv-x="560" d="M62 345 L542 345 L572 485 L92 485 L62 345 Z M18 135 L498 135 L528 275 L48 275 L18 135 Z " />
<glyph glyph-name="greater" unicode="&#x3e;" horiz-adv-x="560" d="M14 115 L534 305 L558 415 L118 605 L86 455 L326 370 L50 285 L14 115 Z " />
<glyph glyph-name="question" unicode="&#x3f;" horiz-adv-x="505" d="M154 240 L333 240 L446 375 C492 430 527 483 538 535 C560 637 483 735 344 735 C204 735 110 660 90 520 L245 520 C254 564 279 595 321 595 C362 595 379 565 374 540 C371 524 362 507 345 485 L154 240 Z M173 -15 C231 -15 273 29 273 85 C273 141 231 185 173 185 C115 185 73 141 73 85 C73 29 115 -15 173 -15 L173 -15 Z " />
<glyph glyph-name="at" unicode="&#x40;" horiz-adv-x="1050" d="M529 735 C256 735 44 523 44 250 C44 -26 256 -230 529 -230 C592 -230 647 -219 693 -200 L652 -92 C617 -104 580 -110 529 -110 C322 -110 164 40 164 250 C164 457 322 615 529 615 C742 615 904 468 904 250 C904 124 849 68 789 68 C731 68 708 122 720 180 L776 442 L650 442 L634 383 C614 427 574 454 511 454 C418 454 336 388 311 272 C286 156 359 43 477 43 C532 43 567 65 591 102 C608 22 672 -42 766 -42 C923 -42 1014 89 1014 250 C1014 533 802 735 529 735 L529 735 Z M513 168 C463 168 432 212 442 258 C452 304 486 329 528 329 C578 329 609 285 599 239 C589 193 555 168 513 168 L513 168 Z " />
<glyph glyph-name="A" unicode="A" horiz-adv-x="740" d="M492 0 L689 0 L553 720 L393 720 L-51 0 L152 0 L224 125 L476 125 L492 0 Z M310 275 L430 482 L456 275 L310 275 Z " />
<glyph glyph-name="B" unicode="B" horiz-adv-x="570" d="M570 527 C590 624 528 720 403 720 L163 720 L9 0 L261 0 C409 0 493 69 518 185 C534 259 503 332 440 374 C511 399 555 457 570 527 L570 527 Z M340 575 C380 575 402 550 394 513 C386 476 358 455 318 455 L286 455 L312 575 L340 575 Z M352 225 C341 174 307 145 250 145 L220 145 L256 315 L276 315 C332 315 363 276 352 225 L352 225 Z " />
<glyph glyph-name="C" unicode="C" horiz-adv-x="756" d="M406 -15 C538 -15 625 26 712 125 L581 229 C534 177 481 155 422 155 C299 155 216 265 242 390 C264 495 347 565 450 565 C539 565 599 508 623 444 L784 515 C739 628 634 735 466 735 C262 735 109 611 66 410 C19 189 182 -15 406 -15 L406 -15 Z " />
<glyph glyph-name="D" unicode="D" horiz-adv-x="660" d="M9 0 L256 0 C470 0 604 119 647 320 C694 540 570 720 336 720 L163 720 L9 0 Z M225 165 L307 555 L330 555 C453 555 497 465 471 340 C449 234 385 165 282 165 L225 165 Z " />
<glyph glyph-name="E" unicode="E" horiz-adv-x="550" d="M308 555 L547 555 L583 720 L163 720 L9 0 L459 0 L495 165 L224 165 L256 312 L521 312 L553 463 L288 463 L308 555 Z " />
<glyph glyph-name="F" unicode="F" horiz-adv-x="535" d="M308 555 L547 555 L583 720 L163 720 L9 0 L189 0 L251 292 L517 292 L549 443 L284 443 L308 555 Z " />
<glyph glyph-name="G" unicode="G" horiz-adv-x="800" d="M793 420 L365 420 L333 270 L604 270 C573 197 504 155 422 155 C299 155 216 266 242 390 C264 495 347 565 455 565 C526 565 574 534 605 493 L754 590 C694 677 596 735 471 735 C262 735 109 611 66 410 C19 190 182 -15 406 -15 C608 -15 740 105 783 300 C795 355 793 420 793 420 L793 420 Z " />
<glyph glyph-name="H" unicode="H" horiz-adv-x="760" d="M623 720 L571 475 L291 475 L343 720 L163 720 L9 0 L189 0 L254 305 L534 305 L469 0 L649 0 L803 720 L623 720 Z " />
<glyph glyph-name="I" unicode="I" horiz-adv-x="320" d="M19 0 L199 0 L353 720 L173 720 L19 0 Z " />
<glyph glyph-name="J" unicode="J" horiz-adv-x="515" d="M186 -15 C338 -15 424 70 456 220 L562 720 L382 720 L279 225 C269 178 244 155 203 155 C174 155 152 173 143 204 L-15 121 C10 51 82 -15 186 -15 L186 -15 Z " />
<glyph glyph-name="K" unicode="K" horiz-adv-x="665" d="M748 720 L516 720 L288 461 L343 720 L163 720 L9 0 L189 0 L261 336 L401 0 L614 0 L441 383 L748 720 Z " />
<glyph glyph-name="L" unicode="L" horiz-adv-x="520" d="M225 170 L343 720 L163 720 L9 0 L459 0 L496 170 L225 170 Z " />
<glyph glyph-name="M" unicode="M" horiz-adv-x="890" d="M9 0 L184 0 L256 337 L354 0 L434 0 L676 337 L604 0 L779 0 L933 720 L770 720 L441 255 L310 720 L163 720 L9 0 Z " />
<glyph glyph-name="N" unicode="N" horiz-adv-x="740" d="M469 0 L629 0 L783 720 L606 720 L519 308 L323 720 L163 720 L9 0 L186 0 L276 422 L469 0 Z " />
<glyph glyph-name="O" unicode="O" horiz-adv-x="820" d="M406 -15 C610 -15 762 109 805 310 C852 530 690 735 466 735 C262 735 109 611 66 410 C19 190 182 -15 406 -15 L406 -15 Z M422 155 C299 155 215 265 242 390 C265 496 347 565 450 565 C573 565 655 455 629 330 C607 224 525 155 422 155 L422 155 Z " />
<glyph glyph-name="P" unicode="P" horiz-adv-x="570" d="M383 720 L163 720 L9 0 L189 0 L248 275 L328 275 C478 275 565 358 590 477 C615 596 533 720 383 720 L383 720 Z M419 490 C411 449 379 425 335 425 L280 425 L310 565 L355 565 C399 565 427 531 419 490 L419 490 Z " />
<glyph glyph-name="Q" unicode="Q" horiz-adv-x="820" d="M805 310 C852 530 690 735 466 735 C262 735 109 611 66 410 C19 190 182 -15 406 -15 C454 -15 499 -8 540 5 L657 -162 L788 -70 L680 84 C741 140 785 217 805 310 L805 310 Z M507 332 L376 240 L435 155 L422 155 C299 155 215 265 242 390 C265 496 347 565 450 565 C573 565 655 455 629 330 C621 290 604 255 580 227 L507 332 Z " />
<glyph glyph-name="R" unicode="R" horiz-adv-x="620" d="M592 482 C616 598 545 720 388 720 L163 720 L9 0 L189 0 L250 285 L369 0 L569 0 L426 298 C514 326 574 394 592 482 L592 482 Z M345 565 C394 565 425 529 417 480 C409 434 370 405 321 405 L276 405 L310 565 L345 565 Z " />
<glyph glyph-name="S" unicode="S" horiz-adv-x="555" d="M259 -15 C394 -15 488 69 509 167 C535 290 474 373 346 447 C294 477 282 507 288 537 C293 563 318 582 356 582 C420 582 461 524 461 524 L578 626 C578 626 504 735 347 735 C225 735 135 663 115 570 C90 456 151 368 273 296 C329 263 343 230 336 194 C330 163 301 138 259 138 C176 138 125 228 125 228 L3 136 C3 136 76 -15 259 -15 L259 -15 Z " />
<glyph glyph-name="T" unicode="T" horiz-adv-x="550" d="M643 720 L113 720 L76 550 L251 550 L134 0 L314 0 L431 550 L606 550 L643 720 Z " />
<glyph glyph-name="U" unicode="U" horiz-adv-x="650" d="M291 -15 C466 -15 563 91 595 240 L697 720 L517 720 L419 260 C406 199 371 165 319 165 C253 165 228 209 241 270 L337 720 L157 720 L64 280 C24 91 136 -15 291 -15 L291 -15 Z " />
<glyph glyph-name="V" unicode="V" horiz-adv-x="590" d="M163 0 L323 0 L692 720 L504 720 L304 300 L284 720 L102 720 L163 0 Z " />
<glyph glyph-name="W" unicode="W" horiz-adv-x="1040" d="M949 720 L738 301 L693 720 L543 720 L322 307 L289 720 L102 720 L174 0 L324 0 L561 438 L612 0 L762 0 L1142 720 L949 720 Z " />
<glyph glyph-name="X" unicode="X" horiz-adv-x="620" d="M-51 0 L161 0 L310 207 L371 0 L569 0 L441 369 L713 720 L501 720 L365 531 L311 720 L113 720 L236 369 L-51 0 Z " />
<glyph glyph-name="Y" unicode="Y" horiz-adv-x="620" d="M168 0 L348 0 L418 325 L732 720 L528 720 L362 505 L288 720 L92 720 L238 325 L168 0 Z " />
<glyph glyph-name="Z" unicode="Z" horiz-adv-x="700" d="M-1 0 L599 0 L635 165 L323 165 L736 640 L753 720 L153 720 L117 555 L429 555 L16 80 L-1 0 Z " />
<glyph glyph-name="bracketleft" unicode="&#x5b;" horiz-adv-x="350" d="M386 600 L412 720 L162 720 L8 0 L258 0 L284 120 L184 120 L286 600 L386 600 Z " />
<glyph glyph-name="backslash" unicode="&#x5c;" horiz-adv-x="530" d="M458 -100 L253 800 L119 800 L333 -100 L458 -100 Z " />
<glyph glyph-name="bracketright" unicode="&#x5d;" horiz-adv-x="350" d="M393 720 L143 720 L117 600 L217 600 L115 120 L15 120 L-11 0 L239 0 L393 720 Z " />
<glyph glyph-name="asciicircum" unicode="&#x5e;" horiz-adv-x="560" d="M543 350 L436 720 L326 720 L63 350 L220 350 L352 549 L400 350 L543 350 Z " />
<glyph glyph-name="underscore" unicode="&#x5f;" horiz-adv-x="560" d="M-81 -140 L479 -140 L505 -20 L-55 -20 L-81 -140 Z " />
<glyph glyph-name="grave" unicode="&#x60;" horiz-adv-x="305" d="M317 580 L317 720 L162 720 L182 580 L317 580 Z " />
<glyph glyph-name="a" unicode="a" horiz-adv-x="595" d="M446 480 L430 429 C412 453 367 495 279 495 C152 495 61 409 32 275 C-1 121 89 -15 231 -15 C310 -15 346 17 361 38 L364 0 L494 0 L596 480 L446 480 Z M276 140 C214 140 175 193 187 252 C198 307 242 340 294 340 C351 340 381 300 393 277 L372 177 C351 159 319 140 276 140 L276 140 Z " />
<glyph glyph-name="b" unicode="b" horiz-adv-x="595" d="M364 495 C312 495 279 481 258 466 L317 740 L157 740 L-1 0 L149 0 L165 51 C183 27 228 -15 316 -15 C443 -15 534 71 563 205 C596 359 506 495 364 495 L364 495 Z M408 228 C397 173 353 140 301 140 C244 140 214 180 202 204 L223 302 C244 321 276 340 319 340 C381 340 420 287 408 228 L408 228 Z " />
<glyph glyph-name="c" unicode="c" horiz-adv-x="510" d="M261 -15 C351 -15 426 19 478 89 L354 172 C336 151 310 140 276 140 C214 140 175 193 187 252 C198 307 242 340 294 340 C337 340 368 315 380 281 L527 343 C496 415 431 495 309 495 C172 495 61 409 32 275 C-1 121 109 -15 261 -15 L261 -15 Z " />
<glyph glyph-name="d" unicode="d" horiz-adv-x="595" d="M491 740 L426 435 C406 458 361 495 279 495 C152 495 61 409 32 275 C-1 121 89 -15 231 -15 C310 -15 346 17 361 38 L364 0 L494 0 L651 740 L491 740 Z M276 140 C214 140 175 193 187 252 C198 307 242 340 294 340 C351 340 380 300 393 277 L371 177 C351 159 319 140 276 140 L276 140 Z " />
<glyph glyph-name="e" unicode="e" horiz-adv-x="565" d="M309 495 C172 495 61 409 31 270 C-1 121 109 -15 261 -15 C366 -15 450 30 509 127 L371 184 C348 152 315 135 273 135 C228 135 192 166 186 210 L531 210 C531 210 535 219 538 240 C557 367 456 495 309 495 L309 495 Z M303 371 C342 371 371 350 382 310 L207 310 C229 354 261 371 303 371 L303 371 Z " />
<glyph glyph-name="f" unicode="f" horiz-adv-x="360" d="M389 755 C263 755 185 689 157 555 L141 481 L71 481 L39 331 L109 331 L39 0 L199 0 L269 331 L359 331 L391 481 L300 481 L311 532 C321 579 348 605 395 605 C421 605 435 597 435 597 L466 739 C466 739 438 755 389 755 L389 755 Z " />
<glyph glyph-name="g" unicode="g" horiz-adv-x="595" d="M446 480 L430 429 C412 453 367 495 279 495 C152 495 63 414 35 285 C3 136 89 5 231 5 C286 5 320 17 340 30 L334 0 C320 -64 280 -90 227 -90 C185 -90 155 -64 135 -39 L27 -135 C63 -189 135 -235 224 -235 C356 -235 459 -164 490 -20 L596 480 L446 480 Z M276 155 C214 155 180 205 190 262 C199 315 242 345 294 345 C352 345 381 302 393 277 L374 189 C354 173 321 155 276 155 L276 155 Z " />
<glyph glyph-name="h" unicode="h" horiz-adv-x="525" d="M372 495 C326 495 292 477 254 443 L317 740 L157 740 L-1 0 L159 0 L224 305 C246 329 268 340 288 340 C320 340 336 318 328 279 L269 0 L429 0 L498 327 C519 425 467 495 372 495 L372 495 Z " />
<glyph glyph-name="i" unicode="i" horiz-adv-x="270" d="M220 545 C278 545 320 588 320 640 C320 692 278 735 220 735 C162 735 120 692 120 640 C120 588 162 545 220 545 L220 545 Z M4 0 L164 0 L266 480 L106 480 L4 0 Z " />
<glyph glyph-name="j" unicode="j" horiz-adv-x="270" d="M220 545 C278 545 320 588 320 640 C320 692 278 735 220 735 C162 735 120 692 120 640 C120 588 162 545 220 545 L220 545 Z M-42 -220 L118 -220 L266 480 L106 480 L-42 -220 Z " />
<glyph glyph-name="k" unicode="k" horiz-adv-x="515" d="M556 480 L361 480 L229 326 L317 740 L157 740 L-1 0 L159 0 L202 201 L284 0 L464 0 L346 262 L556 480 Z " />
<glyph glyph-name="l" unicode="l" horiz-adv-x="270" d="M4 0 L164 0 L322 740 L162 740 L4 0 Z " />
<glyph glyph-name="m" unicode="m" horiz-adv-x="795" d="M642 495 C585 495 546 467 495 415 C479 464 435 495 372 495 C323 495 287 474 246 436 L251 480 L101 480 L-1 0 L159 0 L224 305 C246 329 268 340 288 340 C320 340 336 318 328 279 L269 0 L429 0 L493 304 C516 328 538 340 558 340 C590 340 606 318 598 279 L539 0 L699 0 L768 327 C789 425 737 495 642 495 L642 495 Z " />
<glyph glyph-name="n" unicode="n" horiz-adv-x="525" d="M372 495 C323 495 287 474 246 436 L251 480 L101 480 L-1 0 L159 0 L224 305 C246 329 268 340 288 340 C320 340 336 318 328 279 L269 0 L429 0 L498 327 C519 425 467 495 372 495 L372 495 Z " />
<glyph glyph-name="o" unicode="o" horiz-adv-x="570" d="M261 -15 C398 -15 509 71 538 205 C571 358 461 495 309 495 C172 495 61 409 32 275 C-1 121 109 -15 261 -15 L261 -15 Z M276 140 C214 140 175 193 187 252 C198 307 242 340 294 340 C356 340 395 287 383 228 C372 173 328 140 276 140 L276 140 Z " />
<glyph glyph-name="p" unicode="p" horiz-adv-x="595" d="M364 495 C285 495 249 463 234 442 L231 480 L101 480 L-47 -220 L113 -220 L169 45 C190 21 234 -15 316 -15 C443 -15 534 71 563 205 C596 359 506 495 364 495 L364 495 Z M408 228 C397 173 353 140 301 140 C244 140 215 179 203 203 L224 303 C244 321 276 340 319 340 C381 340 420 287 408 228 L408 228 Z " />
<glyph glyph-name="q" unicode="q" horiz-adv-x="595" d="M446 480 L430 429 C412 453 367 495 279 495 C152 495 61 409 32 275 C-1 121 89 -15 231 -15 C283 -15 316 -1 337 14 L287 -220 L447 -220 L596 480 L446 480 Z M276 140 C214 140 175 193 187 252 C198 307 242 340 294 340 C351 340 381 300 393 276 L372 178 C351 159 319 140 276 140 L276 140 Z " />
<glyph glyph-name="r" unicode="r" horiz-adv-x="460" d="M367 495 C331 495 296 477 245 429 L251 480 L101 480 L-1 0 L159 0 L223 300 C251 337 269 350 289 350 C308 350 319 337 321 302 L484 352 C484 444 442 495 367 495 L367 495 Z " />
<glyph glyph-name="s" unicode="s" horiz-adv-x="423" d="M197 -15 C286 -15 354 34 370 106 C390 196 342 257 257 301 C220 320 215 334 217 349 C219 362 230 375 255 375 C299 375 333 337 333 337 L415 428 C415 428 355 495 240 495 C153 495 87 449 72 381 C53 296 96 230 180 188 C223 167 227 151 224 134 C221 119 209 105 182 105 C131 105 80 162 80 162 L-1 72 C-1 72 56 -15 197 -15 L197 -15 Z " />
<glyph glyph-name="t" unicode="t" horiz-adv-x="360" d="M391 481 L301 481 L347 700 L187 700 L141 481 L71 481 L39 331 L109 331 L39 0 L199 0 L269 331 L359 331 L391 481 Z " />
<glyph glyph-name="u" unicode="u" horiz-adv-x="525" d="M366 480 L301 175 C279 151 257 140 237 140 C205 140 189 162 197 201 L256 480 L96 480 L27 153 C6 55 58 -15 153 -15 C202 -15 238 6 279 44 L274 0 L424 0 L526 480 L366 480 Z " />
<glyph glyph-name="v" unicode="v" horiz-adv-x="500" d="M129 0 L269 0 L551 480 L378 480 L242 217 L218 480 L51 480 L129 0 Z " />
<glyph glyph-name="w" unicode="w" horiz-adv-x="760" d="M638 480 L511 240 L493 480 L363 480 L243 239 L218 480 L51 480 L125 0 L255 0 L382 250 L403 0 L533 0 L811 480 L638 480 Z " />
<glyph glyph-name="x" unicode="x" horiz-adv-x="490" d="M-51 0 L136 0 L225 112 L266 0 L439 0 L336 244 L536 480 L349 480 L267 376 L229 480 L56 480 L156 244 L-51 0 Z " />
<glyph glyph-name="y" unicode="y" horiz-adv-x="500" d="M381 480 L246 232 L221 480 L51 480 L126 36 L-24 -220 L136 -220 L551 480 L381 480 Z " />
<glyph glyph-name="z" unicode="z" horiz-adv-x="480" d="M-6 0 L384 0 L414 140 L242 140 L469 400 L486 480 L96 480 L66 340 L238 340 L11 80 L-6 0 Z " />
<glyph glyph-name="braceleft" unicode="&#x7b;" horiz-adv-x="370" d="M367 720 C250 720 181 668 161 575 C150 523 155 493 146 457 C140 432 126 420 101 420 L78 420 L52 300 L71 300 C96 300 109 284 104 259 C97 223 82 207 71 155 C51 62 106 0 223 0 L278 0 L304 120 L289 120 C244 120 219 147 227 185 C234 217 247 230 257 273 C267 315 254 347 223 359 C259 369 283 395 291 437 C300 480 296 509 303 541 C311 579 340 600 385 600 L406 600 L432 720 L367 720 Z " />
<glyph glyph-name="bar" unicode="&#x7c;" horiz-adv-x="290" d="M-2 -100 L148 -100 L340 800 L190 800 L-2 -100 Z " />
<glyph glyph-name="braceright" unicode="&#x7d;" horiz-adv-x="370" d="M349 420 C324 420 311 436 316 461 C323 497 338 513 349 565 C369 658 314 720 197 720 L142 720 L116 600 L131 600 C176 600 201 573 193 535 C186 503 173 490 163 447 C153 405 166 373 197 361 C161 351 137 325 129 283 C120 240 124 211 117 179 C109 141 80 120 35 120 L14 120 L-12 0 L53 0 C170 0 239 52 259 145 C270 197 265 227 274 263 C280 288 294 300 319 300 L342 300 L368 420 L349 420 Z " />
<glyph glyph-name="asciitilde" unicode="&#x7e;" horiz-adv-x="560" d="M38 230 C38 230 81 260 154 260 C267 260 301 210 414 210 C477 210 522 250 522 250 L552 390 C552 390 509 360 436 360 C323 360 289 410 176 410 C113 410 68 370 68 370 L38 230 Z " />
<glyph glyph-name="exclamdown" unicode="&#xa1;" horiz-adv-x="280" d="M178 515 C120 515 78 471 78 415 C78 359 120 315 178 315 C236 315 278 359 278 415 C278 471 236 515 178 515 L178 515 Z M215 260 L75 260 L-47 -220 L133 -220 L215 260 Z " />
<glyph glyph-name="cent" unicode="&#xa2;" horiz-adv-x="560" d="M355 381 L396 573 C420 564 438 545 446 521 L593 583 C567 644 517 710 429 729 L444 800 L384 800 L370 735 C235 733 127 647 98 515 C70 383 146 265 264 233 L248 160 L308 160 L322 225 L327 225 C417 225 492 259 544 329 L420 412 C404 394 383 383 355 381 L355 381 Z M253 492 C262 539 295 569 337 578 L297 391 C263 409 244 449 253 492 L253 492 Z " />
<glyph glyph-name="sterling" unicode="&#xa3;" horiz-adv-x="560" d="M301 222 C309 259 310 291 308 320 L447 320 L460 380 L301 380 C294 424 287 464 297 511 C306 553 331 580 372 580 C424 580 437 521 437 521 L587 577 C587 577 548 735 372 735 C247 735 161 658 133 545 C118 487 124 432 130 380 L60 380 L47 320 L138 320 C141 286 142 252 135 219 C117 135 73 100 28 90 L9 0 L439 0 L471 150 L269 150 C284 170 295 194 301 222 L301 222 Z " />
<glyph glyph-name="currency" unicode="&#xa4;" horiz-adv-x="560" d="M606 519 L573 569 L505 525 C469 566 419 596 359 609 C299 622 241 614 191 591 L147 660 L97 627 L141 560 C97 525 65 475 52 414 C39 353 48 294 73 245 L6 201 L39 151 L107 195 C143 154 193 124 253 111 C313 98 371 106 421 129 L465 60 L515 93 L471 160 C515 195 547 245 560 306 C573 367 564 426 539 476 L606 519 Z M285 262 C229 274 196 325 208 381 C220 437 271 470 327 458 C383 446 416 395 404 339 C392 283 341 250 285 262 L285 262 Z " />
<glyph glyph-name="yen" unicode="&#xa5;" horiz-adv-x="560" d="M388 325 L652 720 L452 720 L336 505 L312 720 L112 720 L208 325 L204 305 L43 305 L31 245 L191 245 L178 185 L18 185 L5 125 L165 125 L138 0 L318 0 L345 125 L505 125 L518 185 L358 185 L371 245 L531 245 L543 305 L384 305 L388 325 Z " />
<glyph glyph-name="brokenbar" unicode="&#xa6;" horiz-adv-x="320" d="M117 460 L297 460 L370 800 L190 800 L117 460 Z M-2 -100 L178 -100 L251 240 L71 240 L-2 -100 Z " />
<glyph glyph-name="section" unicode="&#xa7;" horiz-adv-x="515" d="M374 519 C316 542 301 558 304 578 C307 596 324 607 355 607 C407 607 437 569 437 569 L529 660 C529 660 466 735 340 735 C241 735 175 687 158 606 C149 562 156 525 177 494 C120 472 81 434 70 383 C53 304 92 241 192 201 C250 178 265 162 262 142 C259 124 242 113 211 113 C159 113 129 151 129 151 L37 60 C37 60 100 -15 226 -15 C325 -15 391 33 408 114 C417 158 410 195 389 226 C446 248 485 286 496 337 C513 416 474 479 374 519 L374 519 Z M214 380 C217 400 235 416 267 421 L286 412 C334 391 357 369 352 340 C349 320 331 304 299 299 L280 308 C232 329 209 351 214 380 L214 380 Z " />
<glyph glyph-name="dieresis" unicode="&#xa8;" horiz-adv-x="454" d="M224 575 C267 575 299 607 299 650 C299 693 267 725 224 725 C181 725 149 693 149 650 C149 607 181 575 224 575 L224 575 Z M404 575 C447 575 479 607 479 650 C479 693 447 725 404 725 C361 725 329 693 329 650 C329 607 361 575 404 575 L404 575 Z " />
<glyph glyph-name="copyright" unicode="&#xa9;" horiz-adv-x="820" d="M436 -15 C647 -15 811 149 811 360 C811 571 647 735 436 735 C225 735 61 571 61 360 C61 149 225 -15 436 -15 L436 -15 Z M436 60 C267 60 136 192 136 360 C136 528 267 660 436 660 C606 660 736 528 736 360 C736 192 606 60 436 60 L436 60 Z M426 148 C501 148 550 171 599 227 L507 301 C488 284 462 274 435 274 C385 274 350 319 363 377 C374 425 413 446 451 446 C484 446 508 425 521 396 L640 448 C615 512 555 573 460 573 C344 573 256 502 231 388 C204 263 299 148 426 148 L426 148 Z " />
<glyph glyph-name="ordfeminine" unicode="&#xaa;" horiz-adv-x="321" d="M308 720 L300 697 C293 707 272 727 230 727 C164 727 119 683 104 612 C87 532 131 463 203 463 C235 463 254 477 264 487 L267 470 L345 470 L398 720 L308 720 Z M198 598 C202 621 219 633 241 633 C262 633 273 617 277 606 L269 571 C261 564 248 557 232 557 C208 557 194 576 198 598 L198 598 Z " />
<glyph glyph-name="guillemotleft" unicode="&#xab;" horiz-adv-x="640" d="M390 565 L71 385 L61 335 L302 155 L328 275 L246 350 L360 425 L390 565 Z M670 565 L351 385 L341 335 L582 155 L608 275 L526 350 L640 425 L670 565 Z " />
<glyph glyph-name="logicalnot" unicode="&#xac;" horiz-adv-x="560" d="M39 235 L379 235 L359 140 L499 140 L551 385 L71 385 L39 235 Z " />
<glyph glyph-name="registered" unicode="&#xae;" horiz-adv-x="380" d="M261 723 C176 723 111 658 111 573 C111 488 176 423 261 423 C346 423 411 488 411 573 C411 658 346 723 261 723 L261 723 Z M261 465 C201 465 154 513 154 573 C154 633 201 681 261 681 C321 681 368 633 368 573 C368 513 321 465 261 465 L261 465 Z M283 645 L225 645 L195 500 L239 500 L251 558 L252 558 L267 500 L318 500 L297 563 C311 569 321 581 324 597 C329 620 315 645 283 645 L283 645 Z M270 611 C278 611 284 605 282 597 C280 589 275 585 267 585 L257 585 L262 611 L270 611 Z " />
<glyph glyph-name="macron" unicode="&#xaf;" horiz-adv-x="436" d="M137 600 L452 600 L474 700 L159 700 L137 600 Z " />
<glyph glyph-name="degree" unicode="&#xb0;" horiz-adv-x="466" d="M298 355 C408 355 491 438 491 545 C491 652 408 735 298 735 C188 735 105 652 105 545 C105 438 188 355 298 355 L298 355 Z M298 471 C258 471 225 504 225 545 C225 586 258 619 298 619 C338 619 371 586 371 545 C371 504 338 471 298 471 L298 471 Z " />
<glyph glyph-name="plusminus" unicode="&#xb1;" horiz-adv-x="560" d="M420 535 L455 700 L301 700 L266 535 L103 535 L71 385 L234 385 L199 220 L353 220 L388 385 L551 385 L583 535 L420 535 Z M-4 35 L476 35 L508 185 L28 185 L-4 35 Z " />
<glyph glyph-name="uni00B2" unicode="&#xb2;" horiz-adv-x="334" d="M76 357 L317 357 L337 448 L252 448 L324 527 C351 556 366 579 373 611 C387 673 339 727 270 727 C193 727 156 689 123 631 L206 589 C223 622 235 633 251 633 C265 633 271 623 268 611 C266 604 266 595 249 578 L88 412 L76 357 Z " />
<glyph glyph-name="uni00B3" unicode="&#xb3;" horiz-adv-x="323" d="M356 605 C370 673 328 727 246 727 C200 727 161 706 133 675 L183 614 C206 632 216 635 229 635 C245 635 256 619 253 605 C248 584 235 573 206 573 L174 573 L159 506 L185 506 C220 506 235 492 229 468 C225 451 210 442 192 442 C176 442 163 446 147 467 L77 415 C96 380 135 350 196 350 C263 350 314 388 327 446 C334 479 324 511 301 534 C330 549 350 574 356 605 L356 605 Z " />
<glyph glyph-name="acute" unicode="&#xb4;" horiz-adv-x="305" d="M132 580 L277 580 L347 720 L182 720 L132 580 Z " />
<glyph glyph-name="uni00B5" unicode="&#xb5;" horiz-adv-x="525" d="M371 480 L311 195 C304 160 279 140 246 140 C212 140 194 164 201 199 L261 480 L101 480 L-47 -220 L113 -220 L161 8 C184 -7 212 -15 246 -15 C352 -15 440 54 468 185 L531 480 L371 480 Z " />
<glyph glyph-name="paragraph" unicode="&#xb6;" horiz-adv-x="720" d="M93 537 C68 422 134 295 280 295 L281 295 L218 0 L368 0 L494 590 L584 590 L458 0 L608 0 L762 720 L332 720 C206 720 118 652 93 537 L93 537 Z " />
<glyph glyph-name="periodcentered" unicode="&#xb7;" horiz-adv-x="280" d="M166 260 C224 260 266 304 266 360 C266 416 224 460 166 460 C108 460 66 416 66 360 C66 304 108 260 166 260 L166 260 Z " />
<glyph glyph-name="cedilla" unicode="&#xb8;" horiz-adv-x="335" d="M126 -37 L149 0 L72 0 L16 -82 L47 -109 C47 -109 57 -100 72 -100 C89 -100 98 -111 96 -123 C94 -137 81 -145 63 -145 C32 -145 12 -127 12 -127 L-31 -187 C-31 -187 6 -220 68 -220 C141 -220 184 -183 195 -135 C206 -87 181 -45 126 -37 L126 -37 Z " />
<glyph glyph-name="uni00B9" unicode="&#xb9;" horiz-adv-x="253" d="M124 357 L227 357 L305 720 L132 720 L113 629 L182 629 L124 357 Z " />
<glyph glyph-name="ordmasculine" unicode="&#xba;" horiz-adv-x="321" d="M222 463 C295 463 353 507 368 578 C385 658 328 728 250 728 C177 728 119 683 104 612 C87 532 144 463 222 463 L222 463 Z M232 557 C208 557 194 576 198 598 C202 621 219 633 241 633 C264 633 278 614 274 592 C270 569 253 557 232 557 L232 557 Z " />
<glyph glyph-name="guillemotright" unicode="&#xbb;" horiz-adv-x="640" d="M22 155 L341 335 L351 385 L110 565 L84 445 L166 370 L52 295 L22 155 Z M302 155 L621 335 L631 385 L390 565 L364 445 L446 370 L332 295 L302 155 Z " />
<glyph glyph-name="onequarter" unicode="&#xbc;" horiz-adv-x="720" d="M575 720 L22 0 L102 0 L655 720 L575 720 Z M124 357 L227 357 L305 720 L132 720 L113 629 L182 629 L124 357 Z M680 363 L570 363 L391 134 L379 79 L522 79 L505 0 L602 0 L619 79 L646 79 L664 164 L637 164 L680 363 Z M494 164 L558 249 L540 164 L494 164 Z " />
<glyph glyph-name="onehalf" unicode="&#xbd;" horiz-adv-x="707" d="M22 0 L102 0 L655 720 L575 720 L22 0 Z M124 357 L227 357 L305 720 L132 720 L113 629 L182 629 L124 357 Z M373 0 L614 0 L634 91 L549 91 L621 170 C648 199 663 222 670 254 C684 316 636 370 567 370 C490 370 453 332 420 274 L503 232 C520 265 532 276 548 276 C562 276 568 266 565 254 C563 247 563 238 546 221 L385 55 L373 0 Z " />
<glyph glyph-name="threequarters" unicode="&#xbe;" horiz-adv-x="790" d="M192 442 C176 442 163 446 147 467 L77 415 C96 380 135 350 196 350 C263 350 314 388 327 446 C334 479 324 511 301 534 C330 549 350 574 356 605 C370 673 328 727 246 727 C200 727 161 706 133 675 L183 614 C206 632 216 635 229 635 C245 635 256 619 253 605 C248 584 235 573 206 573 L174 573 L159 506 L185 506 C220 506 235 492 229 468 C225 451 210 442 192 442 L192 442 Z M645 720 L92 0 L172 0 L725 720 L645 720 Z M750 363 L640 363 L461 134 L449 79 L592 79 L575 0 L672 0 L689 79 L716 79 L734 164 L707 164 L750 363 Z M564 164 L628 249 L610 164 L564 164 Z " />
<glyph glyph-name="questiondown" unicode="&#xbf;" horiz-adv-x="505" d="M337 515 C279 515 237 471 237 415 C237 359 279 315 337 315 C395 315 437 359 437 415 C437 471 395 515 337 515 L337 515 Z M356 260 L177 260 L64 125 C18 70 -17 17 -28 -35 C-50 -137 27 -235 166 -235 C306 -235 400 -160 420 -20 L265 -20 C256 -64 231 -95 189 -95 C148 -95 131 -65 136 -40 C139 -24 148 -7 165 15 L356 260 Z " />
<glyph glyph-name="Agrave" unicode="&#xc0;" horiz-adv-x="740" d="M554 780 L554 920 L399 920 L419 780 L554 780 Z M492 0 L689 0 L553 720 L393 720 L-51 0 L152 0 L224 125 L476 125 L492 0 Z M310 275 L430 482 L456 275 L310 275 Z " />
<glyph glyph-name="Aacute" unicode="&#xc1;" horiz-adv-x="740" d="M630 920 L465 920 L415 780 L560 780 L630 920 Z M492 0 L689 0 L553 720 L393 720 L-51 0 L152 0 L224 125 L476 125 L492 0 Z M310 275 L430 482 L456 275 L310 275 Z " />
<glyph glyph-name="Acircumflex" unicode="&#xc2;" horiz-adv-x="740" d="M501 846 L524 780 L642 780 L607 920 L422 920 L327 780 L449 780 L501 846 Z M492 0 L689 0 L553 720 L393 720 L-51 0 L152 0 L224 125 L476 125 L492 0 Z M310 275 L430 482 L456 275 L310 275 Z " />
<glyph glyph-name="Atilde" unicode="&#xc3;" horiz-adv-x="740" d="M577 784 C618 784 649 811 649 811 L668 903 C668 903 629 883 588 883 C514 883 495 916 421 916 C380 916 350 889 350 889 L331 798 C331 798 369 817 410 817 C484 817 503 784 577 784 L577 784 Z M492 0 L689 0 L553 720 L393 720 L-51 0 L152 0 L224 125 L476 125 L492 0 Z M310 275 L430 482 L456 275 L310 275 Z " />
<glyph glyph-name="Adieresis" unicode="&#xc4;" horiz-adv-x="740" d="M410 775 C453 775 485 807 485 850 C485 893 453 925 410 925 C367 925 335 893 335 850 C335 807 367 775 410 775 L410 775 Z M590 775 C633 775 665 807 665 850 C665 893 633 925 590 925 C547 925 515 893 515 850 C515 807 547 775 590 775 L590 775 Z M492 0 L689 0 L553 720 L393 720 L-51 0 L152 0 L224 125 L476 125 L492 0 Z M310 275 L430 482 L456 275 L310 275 Z " />
<glyph glyph-name="Aring" unicode="&#xc5;" horiz-adv-x="740" d="M492 0 L689 0 L553 720 L550 720 C583 739 605 774 605 815 C605 877 556 925 492 925 C428 925 379 877 379 815 C379 774 401 739 434 720 L393 720 L-51 0 L152 0 L224 125 L476 125 L492 0 Z M492 848 C510 848 525 833 525 815 C525 797 510 782 492 782 C474 782 459 797 459 815 C459 833 474 848 492 848 L492 848 Z M310 275 L430 482 L456 275 L310 275 Z " />
<glyph glyph-name="AE" unicode="&#xc6;" horiz-adv-x="910" d="M584 555 L907 555 L943 720 L393 720 L-51 0 L153 0 L225 125 L476 125 L492 0 L819 0 L855 165 L658 165 L634 292 L877 292 L909 443 L605 443 L584 555 Z M311 275 L430 483 L457 275 L311 275 Z " />
<glyph glyph-name="Ccedilla" unicode="&#xc7;" horiz-adv-x="756" d="M422 155 C299 155 216 265 242 390 C264 495 347 565 450 565 C539 565 599 508 623 444 L784 515 C739 628 634 735 466 735 C262 735 109 611 66 410 C22 204 161 13 361 -12 L313 -82 L344 -109 C344 -109 354 -100 369 -100 C386 -100 395 -111 393 -123 C391 -137 378 -145 360 -145 C329 -145 309 -127 309 -127 L266 -187 C266 -187 303 -220 365 -220 C438 -220 481 -183 492 -135 C503 -87 478 -45 423 -37 L437 -14 C552 -8 632 34 712 125 L581 229 C534 177 481 155 422 155 L422 155 Z " />
<glyph glyph-name="Egrave" unicode="&#xc8;" horiz-adv-x="550" d="M455 780 L455 920 L300 920 L320 780 L455 780 Z M308 555 L547 555 L583 720 L163 720 L9 0 L459 0 L495 165 L224 165 L256 312 L521 312 L553 463 L288 463 L308 555 Z " />
<glyph glyph-name="Eacute" unicode="&#xc9;" horiz-adv-x="550" d="M531 920 L366 920 L316 780 L461 780 L531 920 Z M308 555 L547 555 L583 720 L163 720 L9 0 L459 0 L495 165 L224 165 L256 312 L521 312 L553 463 L288 463 L308 555 Z " />
<glyph glyph-name="Ecircumflex" unicode="&#xca;" horiz-adv-x="550" d="M402 846 L425 780 L543 780 L508 920 L323 920 L228 780 L350 780 L402 846 Z M308 555 L547 555 L583 720 L163 720 L9 0 L459 0 L495 165 L224 165 L256 312 L521 312 L553 463 L288 463 L308 555 Z " />
<glyph glyph-name="Edieresis" unicode="&#xcb;" horiz-adv-x="550" d="M311 775 C354 775 386 807 386 850 C386 893 354 925 311 925 C268 925 236 893 236 850 C236 807 268 775 311 775 L311 775 Z M491 775 C534 775 566 807 566 850 C566 893 534 925 491 925 C448 925 416 893 416 850 C416 807 448 775 491 775 L491 775 Z M308 555 L547 555 L583 720 L163 720 L9 0 L459 0 L495 165 L224 165 L256 312 L521 312 L553 463 L288 463 L308 555 Z " />
<glyph glyph-name="Igrave" unicode="&#xcc;" horiz-adv-x="320" d="M345 780 L345 920 L190 920 L210 780 L345 780 Z M19 0 L199 0 L353 720 L173 720 L19 0 Z " />
<glyph glyph-name="Iacute" unicode="&#xcd;" horiz-adv-x="320" d="M206 780 L351 780 L421 920 L256 920 L206 780 Z M19 0 L199 0 L353 720 L173 720 L19 0 Z " />
<glyph glyph-name="Icircumflex" unicode="&#xce;" horiz-adv-x="320" d="M118 780 L240 780 L292 846 L315 780 L433 780 L398 920 L213 920 L118 780 Z M19 0 L199 0 L353 720 L173 720 L19 0 Z " />
<glyph glyph-name="Idieresis" unicode="&#xcf;" horiz-adv-x="320" d="M201 775 C244 775 276 807 276 850 C276 893 244 925 201 925 C158 925 126 893 126 850 C126 807 158 775 201 775 L201 775 Z M381 775 C424 775 456 807 456 850 C456 893 424 925 381 925 C338 925 306 893 306 850 C306 807 338 775 381 775 L381 775 Z M19 0 L199 0 L353 720 L173 720 L19 0 Z " />
<glyph glyph-name="Eth" unicode="&#xd0;" horiz-adv-x="660" d="M336 720 L163 720 L92 390 L32 390 L18 320 L77 320 L9 0 L256 0 C470 0 604 119 647 320 C694 540 570 720 336 720 L336 720 Z M471 340 C449 234 385 165 282 165 L225 165 L258 320 L358 320 L372 390 L272 390 L307 555 L330 555 C453 555 497 465 471 340 L471 340 Z " />
<glyph glyph-name="Ntilde" unicode="&#xd1;" horiz-adv-x="740" d="M331 798 C331 798 369 817 410 817 C484 817 503 784 577 784 C618 784 649 811 649 811 L668 903 C668 903 629 883 588 883 C514 883 495 916 421 916 C380 916 350 889 350 889 L331 798 Z M469 0 L629 0 L783 720 L606 720 L519 308 L323 720 L163 720 L9 0 L186 0 L276 422 L469 0 Z " />
<glyph glyph-name="Ograve" unicode="&#xd2;" horiz-adv-x="820" d="M595 780 L595 920 L440 920 L460 780 L595 780 Z M406 -15 C610 -15 762 109 805 310 C852 530 690 735 466 735 C262 735 109 611 66 410 C19 190 182 -15 406 -15 L406 -15 Z M422 155 C299 155 215 265 242 390 C265 496 347 565 450 565 C573 565 655 455 629 330 C607 224 525 155 422 155 L422 155 Z " />
<glyph glyph-name="Oacute" unicode="&#xd3;" horiz-adv-x="820" d="M456 780 L601 780 L671 920 L506 920 L456 780 Z M406 -15 C610 -15 762 109 805 310 C852 530 690 735 466 735 C262 735 109 611 66 410 C19 190 182 -15 406 -15 L406 -15 Z M422 155 C299 155 215 265 242 390 C265 496 347 565 450 565 C573 565 655 455 629 330 C607 224 525 155 422 155 L422 155 Z " />
<glyph glyph-name="Ocircumflex" unicode="&#xd4;" horiz-adv-x="820" d="M368 780 L490 780 L542 846 L565 780 L683 780 L648 920 L463 920 L368 780 Z M406 -15 C610 -15 762 109 805 310 C852 530 690 735 466 735 C262 735 109 611 66 410 C19 190 182 -15 406 -15 L406 -15 Z M422 155 C299 155 215 265 242 390 C265 496 347 565 450 565 C573 565 655 455 629 330 C607 224 525 155 422 155 L422 155 Z " />
<glyph glyph-name="Otilde" unicode="&#xd5;" horiz-adv-x="820" d="M372 798 C372 798 410 817 451 817 C525 817 544 784 618 784 C659 784 690 811 690 811 L709 903 C709 903 670 883 629 883 C555 883 536 916 462 916 C421 916 391 889 391 889 L372 798 Z M406 -15 C610 -15 762 109 805 310 C852 530 690 735 466 735 C262 735 109 611 66 410 C19 190 182 -15 406 -15 L406 -15 Z M422 155 C299 155 215 265 242 390 C265 496 347 565 450 565 C573 565 655 455 629 330 C607 224 525 155 422 155 L422 155 Z " />
<glyph glyph-name="Odieresis" unicode="&#xd6;" horiz-adv-x="820" d="M451 775 C494 775 526 807 526 850 C526 893 494 925 451 925 C408 925 376 893 376 850 C376 807 408 775 451 775 L451 775 Z M631 775 C674 775 706 807 706 850 C706 893 674 925 631 925 C588 925 556 893 556 850 C556 807 588 775 631 775 L631 775 Z M406 -15 C610 -15 762 109 805 310 C852 530 690 735 466 735 C262 735 109 611 66 410 C19 190 182 -15 406 -15 L406 -15 Z M422 155 C299 155 215 265 242 390 C265 496 347 565 450 565 C573 565 655 455 629 330 C607 224 525 155 422 155 L422 155 Z " />
<glyph glyph-name="multiply" unicode="&#xd7;" horiz-adv-x="600" d="M557 378 L476 504 L337 414 L247 552 L121 471 L211 332 L73 242 L154 116 L293 206 L383 68 L509 149 L419 288 L557 378 Z " />
<glyph glyph-name="Oslash" unicode="&#xd8;" horiz-adv-x="820" d="M893 720 L793 720 L704 641 C643 699 560 735 466 735 C262 735 109 611 66 410 C44 306 68 206 124 128 L-21 0 L79 0 L168 79 C229 21 312 -15 406 -15 C610 -15 762 109 805 310 C827 414 803 514 747 591 L893 720 Z M237 390 C260 496 344 570 450 570 C498 570 541 553 573 525 L257 246 C234 287 226 338 237 390 L237 390 Z M634 330 C612 224 528 150 422 150 C374 150 331 167 299 195 L614 473 C637 432 645 382 634 330 L634 330 Z " />
<glyph glyph-name="Ugrave" unicode="&#xd9;" horiz-adv-x="650" d="M509 780 L509 920 L354 920 L374 780 L509 780 Z M291 -15 C466 -15 563 91 595 240 L697 720 L517 720 L419 260 C406 199 371 165 319 165 C253 165 228 209 241 270 L337 720 L157 720 L64 280 C24 91 136 -15 291 -15 L291 -15 Z " />
<glyph glyph-name="Uacute" unicode="&#xda;" horiz-adv-x="650" d="M370 780 L515 780 L585 920 L420 920 L370 780 Z M291 -15 C466 -15 563 91 595 240 L697 720 L517 720 L419 260 C406 199 371 165 319 165 C253 165 228 209 241 270 L337 720 L157 720 L64 280 C24 91 136 -15 291 -15 L291 -15 Z " />
<glyph glyph-name="Ucircumflex" unicode="&#xdb;" horiz-adv-x="650" d="M282 780 L404 780 L456 846 L479 780 L597 780 L562 920 L377 920 L282 780 Z M291 -15 C466 -15 563 91 595 240 L697 720 L517 720 L419 260 C406 199 371 165 319 165 C253 165 228 209 241 270 L337 720 L157 720 L64 280 C24 91 136 -15 291 -15 L291 -15 Z " />
<glyph glyph-name="Udieresis" unicode="&#xdc;" horiz-adv-x="650" d="M365 775 C408 775 440 807 440 850 C440 893 408 925 365 925 C322 925 290 893 290 850 C290 807 322 775 365 775 L365 775 Z M545 775 C588 775 620 807 620 850 C620 893 588 925 545 925 C502 925 470 893 470 850 C470 807 502 775 545 775 L545 775 Z M291 -15 C466 -15 563 91 595 240 L697 720 L517 720 L419 260 C406 199 371 165 319 165 C253 165 228 209 241 270 L337 720 L157 720 L64 280 C24 91 136 -15 291 -15 L291 -15 Z " />
<glyph glyph-name="Yacute" unicode="&#xdd;" horiz-adv-x="620" d="M351 780 L496 780 L566 920 L401 920 L351 780 Z M168 0 L348 0 L418 325 L732 720 L528 720 L362 505 L288 720 L92 720 L238 325 L168 0 Z " />
<glyph glyph-name="Thorn" unicode="&#xde;" horiz-adv-x="570" d="M356 593 L316 593 L343 720 L163 720 L9 0 L189 0 L221 148 L301 148 C451 148 538 231 563 350 C588 469 506 593 356 593 L356 593 Z M392 363 C384 322 352 298 308 298 L253 298 L283 438 L328 438 C372 438 400 404 392 363 L392 363 Z " />
<glyph glyph-name="germandbls" unicode="&#xdf;" horiz-adv-x="580" d="M572 565 C589 645 526 755 370 755 C224 755 145 685 113 535 L-1 0 L159 0 L273 535 C284 589 308 615 355 615 C395 615 416 585 408 550 C395 495 319 485 299 390 C277 285 396 222 385 165 C379 135 358 120 329 120 C297 120 270 142 270 142 L205 32 C205 32 253 -15 334 -15 C438 -15 518 38 540 145 C566 271 443 335 454 390 C465 445 551 465 572 565 L572 565 Z " />
<glyph glyph-name="agrave" unicode="&#xe0;" horiz-adv-x="595" d="M440 580 L440 720 L285 720 L305 580 L440 580 Z M446 480 L430 429 C412 453 367 495 279 495 C152 495 61 409 32 275 C-1 121 89 -15 231 -15 C310 -15 346 17 361 38 L364 0 L494 0 L596 480 L446 480 Z M276 140 C214 140 175 193 187 252 C198 307 242 340 294 340 C351 340 381 300 393 277 L372 177 C351 159 319 140 276 140 L276 140 Z " />
<glyph glyph-name="aacute" unicode="&#xe1;" horiz-adv-x="595" d="M516 720 L351 720 L301 580 L446 580 L516 720 Z M446 480 L430 429 C412 453 367 495 279 495 C152 495 61 409 32 275 C-1 121 89 -15 231 -15 C310 -15 346 17 361 38 L364 0 L494 0 L596 480 L446 480 Z M276 140 C214 140 175 193 187 252 C198 307 242 340 294 340 C351 340 381 300 393 277 L372 177 C351 159 319 140 276 140 L276 140 Z " />
<glyph glyph-name="acircumflex" unicode="&#xe2;" horiz-adv-x="595" d="M387 646 L410 580 L528 580 L493 720 L308 720 L213 580 L335 580 L387 646 Z M446 480 L430 429 C412 453 367 495 279 495 C152 495 61 409 32 275 C-1 121 89 -15 231 -15 C310 -15 346 17 361 38 L364 0 L494 0 L596 480 L446 480 Z M276 140 C214 140 175 193 187 252 C198 307 242 340 294 340 C351 340 381 300 393 277 L372 177 C351 159 319 140 276 140 L276 140 Z " />
<glyph glyph-name="atilde" unicode="&#xe3;" horiz-adv-x="595" d="M463 584 C504 584 535 611 535 611 L554 703 C554 703 515 683 474 683 C400 683 381 716 307 716 C266 716 236 689 236 689 L217 598 C217 598 255 617 296 617 C370 617 389 584 463 584 L463 584 Z M446 480 L430 429 C412 453 367 495 279 495 C152 495 61 409 32 275 C-1 121 89 -15 231 -15 C310 -15 346 17 361 38 L364 0 L494 0 L596 480 L446 480 Z M276 140 C214 140 175 193 187 252 C198 307 242 340 294 340 C351 340 381 300 393 277 L372 177 C351 159 319 140 276 140 L276 140 Z " />
<glyph glyph-name="adieresis" unicode="&#xe4;" horiz-adv-x="595" d="M296 575 C339 575 371 607 371 650 C371 693 339 725 296 725 C253 725 221 693 221 650 C221 607 253 575 296 575 L296 575 Z M476 575 C519 575 551 607 551 650 C551 693 519 725 476 725 C433 725 401 693 401 650 C401 607 433 575 476 575 L476 575 Z M446 480 L430 429 C412 453 367 495 279 495 C152 495 61 409 32 275 C-1 121 89 -15 231 -15 C310 -15 346 17 361 38 L364 0 L494 0 L596 480 L446 480 Z M276 140 C214 140 175 193 187 252 C198 307 242 340 294 340 C351 340 381 300 393 277 L372 177 C351 159 319 140 276 140 L276 140 Z " />
<glyph glyph-name="aring" unicode="&#xe5;" horiz-adv-x="595" d="M378 505 C442 505 491 553 491 615 C491 677 442 725 378 725 C314 725 265 677 265 615 C265 553 314 505 378 505 L378 505 Z M378 648 C396 648 411 633 411 615 C411 597 396 582 378 582 C360 582 345 597 345 615 C345 633 360 648 378 648 L378 648 Z M446 480 L430 429 C412 453 367 495 279 495 C152 495 61 409 32 275 C-1 121 89 -15 231 -15 C310 -15 346 17 361 38 L364 0 L494 0 L596 480 L446 480 Z M276 140 C214 140 175 193 187 252 C198 307 242 340 294 340 C351 340 381 300 393 277 L372 177 C351 159 319 140 276 140 L276 140 Z " />
<glyph glyph-name="ae" unicode="&#xe6;" horiz-adv-x="925" d="M700 495 C656 495 612 477 576 444 L576 480 L446 480 L430 429 C412 453 367 495 279 495 C152 495 61 409 32 275 C-1 121 89 -15 231 -15 C292 -15 327 4 346 22 L344 0 L484 0 L501 54 C526 12 569 -15 632 -15 C727 -15 811 30 870 127 L732 184 C709 152 676 135 634 135 C589 135 553 166 547 210 L892 210 C892 210 896 219 899 240 C917 367 817 495 700 495 L700 495 Z M664 371 C703 371 732 350 743 310 L568 310 C590 354 622 371 664 371 L664 371 Z M187 252 C198 307 242 340 294 340 C351 340 381 300 393 277 L372 177 C351 159 319 140 276 140 C214 140 175 193 187 252 L187 252 Z " />
<glyph glyph-name="ccedilla" unicode="&#xe7;" horiz-adv-x="510" d="M276 140 C214 140 175 193 187 252 C198 307 242 340 294 340 C337 340 368 315 380 281 L527 343 C496 415 431 495 309 495 C172 495 61 409 32 275 C4 143 81 24 199 -7 L148 -82 L179 -109 C179 -109 189 -100 204 -100 C221 -100 230 -111 228 -123 C226 -137 213 -145 195 -145 C164 -145 144 -127 144 -127 L101 -187 C101 -187 138 -220 200 -220 C273 -220 316 -183 327 -135 C338 -87 313 -45 258 -37 L272 -15 C357 -12 428 22 478 89 L354 172 C336 151 310 140 276 140 L276 140 Z " />
<glyph glyph-name="egrave" unicode="&#xe8;" horiz-adv-x="565" d="M427 580 L427 720 L272 720 L292 580 L427 580 Z M309 495 C172 495 61 409 31 270 C-1 121 109 -15 261 -15 C366 -15 450 30 509 127 L371 184 C348 152 315 135 273 135 C228 135 192 166 186 210 L531 210 C531 210 535 219 538 240 C557 367 456 495 309 495 L309 495 Z M303 371 C342 371 371 350 382 310 L207 310 C229 354 261 371 303 371 L303 371 Z " />
<glyph glyph-name="eacute" unicode="&#xe9;" horiz-adv-x="565" d="M503 720 L338 720 L288 580 L433 580 L503 720 Z M309 495 C172 495 61 409 31 270 C-1 121 109 -15 261 -15 C366 -15 450 30 509 127 L371 184 C348 152 315 135 273 135 C228 135 192 166 186 210 L531 210 C531 210 535 219 538 240 C557 367 456 495 309 495 L309 495 Z M303 371 C342 371 371 350 382 310 L207 310 C229 354 261 371 303 371 L303 371 Z " />
<glyph glyph-name="ecircumflex" unicode="&#xea;" horiz-adv-x="565" d="M374 646 L397 580 L515 580 L480 720 L295 720 L200 580 L322 580 L374 646 Z M309 495 C172 495 61 409 31 270 C-1 121 109 -15 261 -15 C366 -15 450 30 509 127 L371 184 C348 152 315 135 273 135 C228 135 192 166 186 210 L531 210 C531 210 535 219 538 240 C557 367 456 495 309 495 L309 495 Z M303 371 C342 371 371 350 382 310 L207 310 C229 354 261 371 303 371 L303 371 Z " />
<glyph glyph-name="edieresis" unicode="&#xeb;" horiz-adv-x="565" d="M283 575 C326 575 358 607 358 650 C358 693 326 725 283 725 C240 725 208 693 208 650 C208 607 240 575 283 575 L283 575 Z M463 575 C506 575 538 607 538 650 C538 693 506 725 463 725 C420 725 388 693 388 650 C388 607 420 575 463 575 L463 575 Z M309 495 C172 495 61 409 31 270 C-1 121 109 -15 261 -15 C366 -15 450 30 509 127 L371 184 C348 152 315 135 273 135 C228 135 192 166 186 210 L531 210 C531 210 535 219 538 240 C557 367 456 495 309 495 L309 495 Z M303 371 C342 371 371 350 382 310 L207 310 C229 354 261 371 303 371 L303 371 Z " />
<glyph glyph-name="igrave" unicode="&#xec;" horiz-adv-x="270" d="M277 580 L277 720 L122 720 L142 580 L277 580 Z M4 0 L164 0 L266 480 L106 480 L4 0 Z " />
<glyph glyph-name="iacute" unicode="&#xed;" horiz-adv-x="270" d="M138 580 L283 580 L353 720 L188 720 L138 580 Z M4 0 L164 0 L266 480 L106 480 L4 0 Z " />
<glyph glyph-name="icircumflex" unicode="&#xee;" horiz-adv-x="270" d="M50 580 L172 580 L224 646 L247 580 L365 580 L330 720 L145 720 L50 580 Z M4 0 L164 0 L266 480 L106 480 L4 0 Z " />
<glyph glyph-name="idieresis" unicode="&#xef;" horiz-adv-x="270" d="M133 575 C176 575 208 607 208 650 C208 693 176 725 133 725 C90 725 58 693 58 650 C58 607 90 575 133 575 L133 575 Z M313 575 C356 575 388 607 388 650 C388 693 356 725 313 725 C270 725 238 693 238 650 C238 607 270 575 313 575 L313 575 Z M4 0 L164 0 L266 480 L106 480 L4 0 Z " />
<glyph glyph-name="eth" unicode="&#xf0;" horiz-adv-x="570" d="M572 652 L551 697 L483 665 C460 697 431 727 395 755 L290 653 C312 637 332 619 348 601 L255 557 L276 512 L379 561 C414 509 430 454 437 406 C411 453 363 485 287 485 C164 485 60 408 30 268 C0 126 109 -15 261 -15 C403 -15 509 66 547 250 C569 354 577 497 510 622 L572 652 Z M383 228 C372 173 328 140 276 140 C214 140 175 193 187 252 C198 307 242 340 294 340 C356 340 395 287 383 228 L383 228 Z " />
<glyph glyph-name="ntilde" unicode="&#xf1;" horiz-adv-x="525" d="M428 584 C469 584 500 611 500 611 L519 703 C519 703 480 683 439 683 C365 683 346 716 272 716 C231 716 201 689 201 689 L182 598 C182 598 220 617 261 617 C335 617 354 584 428 584 L428 584 Z M372 495 C323 495 287 474 246 436 L251 480 L101 480 L-1 0 L159 0 L224 305 C246 329 268 340 288 340 C320 340 336 318 328 279 L269 0 L429 0 L498 327 C519 425 467 495 372 495 L372 495 Z " />
<glyph glyph-name="ograve" unicode="&#xf2;" horiz-adv-x="570" d="M427 580 L427 720 L272 720 L292 580 L427 580 Z M261 -15 C398 -15 509 71 538 205 C571 358 461 495 309 495 C172 495 61 409 32 275 C-1 121 109 -15 261 -15 L261 -15 Z M276 140 C214 140 175 193 187 252 C198 307 242 340 294 340 C356 340 395 287 383 228 C372 173 328 140 276 140 L276 140 Z " />
<glyph glyph-name="oacute" unicode="&#xf3;" horiz-adv-x="570" d="M288 580 L433 580 L503 720 L338 720 L288 580 Z M261 -15 C398 -15 509 71 538 205 C571 358 461 495 309 495 C172 495 61 409 32 275 C-1 121 109 -15 261 -15 L261 -15 Z M276 140 C214 140 175 193 187 252 C198 307 242 340 294 340 C356 340 395 287 383 228 C372 173 328 140 276 140 L276 140 Z " />
<glyph glyph-name="ocircumflex" unicode="&#xf4;" horiz-adv-x="570" d="M200 580 L322 580 L374 646 L397 580 L515 580 L480 720 L295 720 L200 580 Z M261 -15 C398 -15 509 71 538 205 C571 358 461 495 309 495 C172 495 61 409 32 275 C-1 121 109 -15 261 -15 L261 -15 Z M276 140 C214 140 175 193 187 252 C198 307 242 340 294 340 C356 340 395 287 383 228 C372 173 328 140 276 140 L276 140 Z " />
<glyph glyph-name="otilde" unicode="&#xf5;" horiz-adv-x="570" d="M204 598 C204 598 242 617 283 617 C357 617 376 584 450 584 C491 584 522 611 522 611 L541 703 C541 703 502 683 461 683 C387 683 368 716 294 716 C253 716 223 689 223 689 L204 598 Z M261 -15 C398 -15 509 71 538 205 C571 358 461 495 309 495 C172 495 61 409 32 275 C-1 121 109 -15 261 -15 L261 -15 Z M276 140 C214 140 175 193 187 252 C198 307 242 340 294 340 C356 340 395 287 383 228 C372 173 328 140 276 140 L276 140 Z " />
<glyph glyph-name="odieresis" unicode="&#xf6;" horiz-adv-x="570" d="M283 575 C326 575 358 607 358 650 C358 693 326 725 283 725 C240 725 208 693 208 650 C208 607 240 575 283 575 L283 575 Z M463 575 C506 575 538 607 538 650 C538 693 506 725 463 725 C420 725 388 693 388 650 C388 607 420 575 463 575 L463 575 Z M261 -15 C398 -15 509 71 538 205 C571 358 461 495 309 495 C172 495 61 409 32 275 C-1 121 109 -15 261 -15 L261 -15 Z M276 140 C214 140 175 193 187 252 C198 307 242 340 294 340 C356 340 395 287 383 228 C372 173 328 140 276 140 L276 140 Z " />
<glyph glyph-name="divide" unicode="&#xf7;" horiz-adv-x="560" d="M338 414 C396 414 438 458 438 514 C438 570 396 614 338 614 C280 614 238 570 238 514 C238 458 280 414 338 414 L338 414 Z M39 235 L519 235 L551 385 L71 385 L39 235 Z M252 6 C310 6 352 50 352 106 C352 162 310 206 252 206 C194 206 152 162 152 106 C152 50 194 6 252 6 L252 6 Z " />
<glyph glyph-name="oslash" unicode="&#xf8;" horiz-adv-x="570" d="M596 480 L501 480 L459 442 C419 475 367 495 309 495 C172 495 61 409 32 275 C17 204 32 137 68 85 L-26 0 L69 0 L111 38 C151 5 203 -15 261 -15 C398 -15 509 71 538 205 C553 276 538 343 502 395 L596 480 Z M177 252 C188 307 232 350 294 350 C313 350 330 345 345 338 L183 190 C175 209 173 231 177 252 L177 252 Z M393 228 C382 173 338 130 276 130 C257 130 240 135 225 142 L387 290 C395 271 397 249 393 228 L393 228 Z " />
<glyph glyph-name="ugrave" unicode="&#xf9;" horiz-adv-x="525" d="M396 540 L396 680 L241 680 L261 540 L396 540 Z M366 480 L301 175 C279 151 257 140 237 140 C205 140 189 162 197 201 L256 480 L96 480 L27 153 C6 55 58 -15 153 -15 C202 -15 238 6 279 44 L274 0 L424 0 L526 480 L366 480 Z " />
<glyph glyph-name="uacute" unicode="&#xfa;" horiz-adv-x="525" d="M472 680 L307 680 L257 540 L402 540 L472 680 Z M366 480 L301 175 C279 151 257 140 237 140 C205 140 189 162 197 201 L256 480 L96 480 L27 153 C6 55 58 -15 153 -15 C202 -15 238 6 279 44 L274 0 L424 0 L526 480 L366 480 Z " />
<glyph glyph-name="ucircumflex" unicode="&#xfb;" horiz-adv-x="525" d="M343 606 L366 540 L484 540 L449 680 L264 680 L169 540 L291 540 L343 606 Z M366 480 L301 175 C279 151 257 140 237 140 C205 140 189 162 197 201 L256 480 L96 480 L27 153 C6 55 58 -15 153 -15 C202 -15 238 6 279 44 L274 0 L424 0 L526 480 L366 480 Z " />
<glyph glyph-name="udieresis" unicode="&#xfc;" horiz-adv-x="525" d="M252 535 C295 535 327 567 327 610 C327 653 295 685 252 685 C209 685 177 653 177 610 C177 567 209 535 252 535 L252 535 Z M432 535 C475 535 507 567 507 610 C507 653 475 685 432 685 C389 685 357 653 357 610 C357 567 389 535 432 535 L432 535 Z M366 480 L301 175 C279 151 257 140 237 140 C205 140 189 162 197 201 L256 480 L96 480 L27 153 C6 55 58 -15 153 -15 C202 -15 238 6 279 44 L274 0 L424 0 L526 480 L366 480 Z " />
<glyph glyph-name="yacute" unicode="&#xfd;" horiz-adv-x="500" d="M459 680 L294 680 L244 540 L389 540 L459 680 Z M381 480 L246 232 L221 480 L51 480 L126 36 L-24 -220 L136 -220 L551 480 L381 480 Z " />
<glyph glyph-name="thorn" unicode="&#xfe;" horiz-adv-x="595" d="M364 495 C312 495 279 481 258 466 L312 720 L152 720 L-47 -220 L113 -220 L169 45 C190 21 234 -15 316 -15 C443 -15 534 71 563 205 C596 359 506 495 364 495 L364 495 Z M408 228 C397 173 353 140 301 140 C244 140 215 179 203 203 L224 303 C244 321 276 340 319 340 C381 340 420 287 408 228 L408 228 Z " />
<glyph glyph-name="ydieresis" unicode="&#xff;" horiz-adv-x="500" d="M239 535 C282 535 314 567 314 610 C314 653 282 685 239 685 C196 685 164 653 164 610 C164 567 196 535 239 535 L239 535 Z M419 535 C462 535 494 567 494 610 C494 653 462 685 419 685 C376 685 344 653 344 610 C344 567 376 535 419 535 L419 535 Z M381 480 L246 232 L221 480 L51 480 L126 36 L-24 -220 L136 -220 L551 480 L381 480 Z " />
<glyph glyph-name="Amacron" unicode="&#x100;" horiz-adv-x="740" d="M668 900 L353 900 L331 800 L646 800 L668 900 Z M492 0 L689 0 L553 720 L393 720 L-51 0 L152 0 L224 125 L476 125 L492 0 Z M310 275 L430 482 L456 275 L310 275 Z " />
<glyph glyph-name="amacron" unicode="&#x101;" horiz-adv-x="595" d="M554 700 L239 700 L217 600 L532 600 L554 700 Z M446 480 L430 429 C412 453 367 495 279 495 C152 495 61 409 32 275 C-1 121 89 -15 231 -15 C310 -15 346 17 361 38 L364 0 L494 0 L596 480 L446 480 Z M276 140 C214 140 175 193 187 252 C198 307 242 340 294 340 C351 340 381 300 393 277 L372 177 C351 159 319 140 276 140 L276 140 Z " />
<glyph glyph-name="Abreve" unicode="&#x102;" horiz-adv-x="740" d="M500 780 C586 780 644 834 662 920 L552 920 C546 890 532 870 507 870 C481 870 471 890 477 920 L367 920 C351 844 403 780 500 780 L500 780 Z M492 0 L689 0 L553 720 L393 720 L-51 0 L152 0 L224 125 L476 125 L492 0 Z M310 275 L430 482 L456 275 L310 275 Z " />
<glyph glyph-name="abreve" unicode="&#x103;" horiz-adv-x="595" d="M386 580 C472 580 530 634 548 720 L438 720 C432 690 418 670 393 670 C367 670 357 690 363 720 L253 720 C237 644 289 580 386 580 L386 580 Z M446 480 L430 429 C412 453 367 495 279 495 C152 495 61 409 32 275 C-1 121 89 -15 231 -15 C310 -15 346 17 361 38 L364 0 L494 0 L596 480 L446 480 Z M276 140 C214 140 175 193 187 252 C198 307 242 340 294 340 C351 340 381 300 393 277 L372 177 C351 159 319 140 276 140 L276 140 Z " />
<glyph glyph-name="Aogonek" unicode="&#x104;" horiz-adv-x="740" d="M646 -95 C646 -95 624 -115 605 -115 C591 -115 580 -103 583 -87 C588 -62 620 -40 689 0 L553 720 L393 720 L-51 0 L152 0 L224 125 L476 125 L492 0 L571 0 C523 -27 486 -58 474 -110 C460 -174 510 -225 574 -225 C650 -225 695 -167 695 -167 L646 -95 Z M310 275 L430 482 L456 275 L310 275 Z " />
<glyph glyph-name="aogonek" unicode="&#x105;" horiz-adv-x="595" d="M410 -115 C396 -115 385 -103 388 -87 C393 -62 425 -40 494 0 L596 480 L446 480 L430 429 C412 453 367 495 279 495 C152 495 61 409 32 275 C-1 121 89 -15 231 -15 C310 -15 346 17 361 38 L364 0 L376 0 C328 -27 291 -58 279 -110 C265 -174 315 -225 379 -225 C455 -225 500 -167 500 -167 L451 -95 C451 -95 429 -115 410 -115 L410 -115 Z M276 140 C214 140 175 193 187 252 C198 307 242 340 294 340 C351 340 381 300 393 277 L372 177 C351 159 319 140 276 140 L276 140 Z " />
<glyph glyph-name="Cacute" unicode="&#x106;" horiz-adv-x="756" d="M416 780 L561 780 L631 920 L466 920 L416 780 Z M406 -15 C538 -15 625 26 712 125 L581 229 C534 177 481 155 422 155 C299 155 216 265 242 390 C264 495 347 565 450 565 C539 565 599 508 623 444 L784 515 C739 628 634 735 466 735 C262 735 109 611 66 410 C19 189 182 -15 406 -15 L406 -15 Z " />
<glyph glyph-name="cacute" unicode="&#x107;" horiz-adv-x="510" d="M288 580 L433 580 L503 720 L338 720 L288 580 Z M261 -15 C351 -15 426 19 478 89 L354 172 C336 151 310 140 276 140 C214 140 175 193 187 252 C198 307 242 340 294 340 C337 340 368 315 380 281 L527 343 C496 415 431 495 309 495 C172 495 61 409 32 275 C-1 121 109 -15 261 -15 L261 -15 Z " />
<glyph glyph-name="Ccircumflex" unicode="&#x108;" horiz-adv-x="756" d="M328 780 L450 780 L502 846 L525 780 L643 780 L608 920 L423 920 L328 780 Z M406 -15 C538 -15 625 26 712 125 L581 229 C534 177 481 155 422 155 C299 155 216 265 242 390 C264 495 347 565 450 565 C539 565 599 508 623 444 L784 515 C739 628 634 735 466 735 C262 735 109 611 66 410 C19 189 182 -15 406 -15 L406 -15 Z " />
<glyph glyph-name="ccircumflex" unicode="&#x109;" horiz-adv-x="510" d="M200 580 L322 580 L374 646 L397 580 L515 580 L480 720 L295 720 L200 580 Z M261 -15 C351 -15 426 19 478 89 L354 172 C336 151 310 140 276 140 C214 140 175 193 187 252 C198 307 242 340 294 340 C337 340 368 315 380 281 L527 343 C496 415 431 495 309 495 C172 495 61 409 32 275 C-1 121 109 -15 261 -15 L261 -15 Z " />
<glyph glyph-name="Cdotaccent" unicode="&#x10a;" horiz-adv-x="756" d="M501 775 C544 775 576 807 576 850 C576 893 544 925 501 925 C458 925 426 893 426 850 C426 807 458 775 501 775 L501 775 Z M406 -15 C538 -15 625 26 712 125 L581 229 C534 177 481 155 422 155 C299 155 216 265 242 390 C264 495 347 565 450 565 C539 565 599 508 623 444 L784 515 C739 628 634 735 466 735 C262 735 109 611 66 410 C19 189 182 -15 406 -15 L406 -15 Z " />
<glyph glyph-name="cdotaccent" unicode="&#x10b;" horiz-adv-x="510" d="M373 575 C416 575 448 607 448 650 C448 693 416 725 373 725 C330 725 298 693 298 650 C298 607 330 575 373 575 L373 575 Z M261 -15 C351 -15 426 19 478 89 L354 172 C336 151 310 140 276 140 C214 140 175 193 187 252 C198 307 242 340 294 340 C337 340 368 315 380 281 L527 343 C496 415 431 495 309 495 C172 495 61 409 32 275 C-1 121 109 -15 261 -15 L261 -15 Z " />
<glyph glyph-name="Ccaron" unicode="&#x10c;" horiz-adv-x="756" d="M359 920 L394 780 L579 780 L674 920 L552 920 L501 854 L477 920 L359 920 Z M406 -15 C538 -15 625 26 712 125 L581 229 C534 177 481 155 422 155 C299 155 216 265 242 390 C264 495 347 565 450 565 C539 565 599 508 623 444 L784 515 C739 628 634 735 466 735 C262 735 109 611 66 410 C19 189 182 -15 406 -15 L406 -15 Z " />
<glyph glyph-name="ccaron" unicode="&#x10d;" horiz-adv-x="510" d="M231 720 L266 580 L451 580 L546 720 L424 720 L373 654 L349 720 L231 720 Z M261 -15 C351 -15 426 19 478 89 L354 172 C336 151 310 140 276 140 C214 140 175 193 187 252 C198 307 242 340 294 340 C337 340 368 315 380 281 L527 343 C496 415 431 495 309 495 C172 495 61 409 32 275 C-1 121 109 -15 261 -15 L261 -15 Z " />
<glyph glyph-name="Dcaron" unicode="&#x10e;" horiz-adv-x="660" d="M319 920 L354 780 L539 780 L634 920 L512 920 L461 854 L437 920 L319 920 Z M9 0 L256 0 C470 0 604 119 647 320 C694 540 570 720 336 720 L163 720 L9 0 Z M225 165 L307 555 L330 555 C453 555 497 465 471 340 C449 234 385 165 282 165 L225 165 Z " />
<glyph glyph-name="dcaron" unicode="&#x10f;" horiz-adv-x="790" d="M426 435 C406 458 361 495 279 495 C152 495 61 409 32 275 C-1 121 89 -15 231 -15 C310 -15 346 17 361 38 L364 0 L494 0 L651 740 L491 740 L426 435 Z M842 720 L752 390 L897 390 L1007 720 L842 720 Z M276 140 C214 140 175 193 187 252 C198 307 242 340 294 340 C351 340 380 300 393 277 L371 177 C351 159 319 140 276 140 L276 140 Z " />
<glyph glyph-name="Dcroat" unicode="&#x110;" horiz-adv-x="660" d="M336 720 L163 720 L92 390 L32 390 L18 320 L77 320 L9 0 L256 0 C470 0 604 119 647 320 C694 540 570 720 336 720 L336 720 Z M471 340 C449 234 385 165 282 165 L225 165 L258 320 L358 320 L372 390 L272 390 L307 555 L330 555 C453 555 497 465 471 340 L471 340 Z " />
<glyph glyph-name="dcroat" unicode="&#x111;" horiz-adv-x="595" d="M679 640 L630 640 L651 740 L491 740 L470 640 L389 640 L375 570 L455 570 L426 435 C406 458 361 495 279 495 C152 495 61 409 32 275 C-1 121 89 -15 231 -15 C310 -15 346 17 361 38 L364 0 L494 0 L615 570 L665 570 L679 640 Z M276 140 C214 140 175 193 187 252 C198 307 242 340 294 340 C351 340 380 300 393 277 L371 177 C351 159 319 140 276 140 L276 140 Z " />
<glyph glyph-name="Emacron" unicode="&#x112;" horiz-adv-x="550" d="M569 900 L254 900 L232 800 L547 800 L569 900 Z M308 555 L547 555 L583 720 L163 720 L9 0 L459 0 L495 165 L224 165 L256 312 L521 312 L553 463 L288 463 L308 555 Z " />
<glyph glyph-name="emacron" unicode="&#x113;" horiz-adv-x="565" d="M541 700 L226 700 L204 600 L519 600 L541 700 Z M309 495 C172 495 61 409 31 270 C-1 121 109 -15 261 -15 C366 -15 450 30 509 127 L371 184 C348 152 315 135 273 135 C228 135 192 166 186 210 L531 210 C531 210 535 219 538 240 C557 367 456 495 309 495 L309 495 Z M303 371 C342 371 371 350 382 310 L207 310 C229 354 261 371 303 371 L303 371 Z " />
<glyph glyph-name="Ebreve" unicode="&#x114;" horiz-adv-x="550" d="M401 780 C487 780 545 834 563 920 L453 920 C447 890 433 870 408 870 C382 870 372 890 378 920 L268 920 C252 844 304 780 401 780 L401 780 Z M308 555 L547 555 L583 720 L163 720 L9 0 L459 0 L495 165 L224 165 L256 312 L521 312 L553 463 L288 463 L308 555 Z " />
<glyph glyph-name="ebreve" unicode="&#x115;" horiz-adv-x="565" d="M373 580 C459 580 517 634 535 720 L425 720 C419 690 405 670 380 670 C354 670 344 690 350 720 L240 720 C224 644 276 580 373 580 L373 580 Z M309 495 C172 495 61 409 31 270 C-1 121 109 -15 261 -15 C366 -15 450 30 509 127 L371 184 C348 152 315 135 273 135 C228 135 192 166 186 210 L531 210 C531 210 535 219 538 240 C557 367 456 495 309 495 L309 495 Z M303 371 C342 371 371 350 382 310 L207 310 C229 354 261 371 303 371 L303 371 Z " />
<glyph glyph-name="Edotaccent" unicode="&#x116;" horiz-adv-x="550" d="M401 775 C444 775 476 807 476 850 C476 893 444 925 401 925 C358 925 326 893 326 850 C326 807 358 775 401 775 L401 775 Z M308 555 L547 555 L583 720 L163 720 L9 0 L459 0 L495 165 L224 165 L256 312 L521 312 L553 463 L288 463 L308 555 Z " />
<glyph glyph-name="edotaccent" unicode="&#x117;" horiz-adv-x="565" d="M373 575 C416 575 448 607 448 650 C448 693 416 725 373 725 C330 725 298 693 298 650 C298 607 330 575 373 575 L373 575 Z M309 495 C172 495 61 409 31 270 C-1 121 109 -15 261 -15 C366 -15 450 30 509 127 L371 184 C348 152 315 135 273 135 C228 135 192 166 186 210 L531 210 C531 210 535 219 538 240 C557 367 456 495 309 495 L309 495 Z M303 371 C342 371 371 350 382 310 L207 310 C229 354 261 371 303 371 L303 371 Z " />
<glyph glyph-name="Eogonek" unicode="&#x118;" horiz-adv-x="550" d="M308 555 L547 555 L583 720 L163 720 L9 0 L341 0 C293 -27 256 -58 244 -110 C230 -174 280 -225 344 -225 C420 -225 465 -167 465 -167 L416 -95 C416 -95 394 -115 375 -115 C361 -115 350 -103 353 -87 C358 -62 390 -40 459 0 L495 165 L224 165 L256 312 L521 312 L553 463 L288 463 L308 555 Z " />
<glyph glyph-name="eogonek" unicode="&#x119;" horiz-adv-x="565" d="M309 495 C172 495 61 409 31 270 C2 136 88 12 217 -11 C178 -36 148 -65 138 -110 C124 -174 174 -225 238 -225 C314 -225 359 -167 359 -167 L310 -95 C310 -95 288 -115 269 -115 C255 -115 244 -103 247 -87 C252 -63 282 -41 347 -3 C413 16 467 58 509 127 L371 184 C348 152 315 135 273 135 C228 135 192 166 186 210 L531 210 C531 210 535 219 538 240 C557 367 456 495 309 495 L309 495 Z M303 371 C342 371 371 350 382 310 L207 310 C229 354 261 371 303 371 L303 371 Z " />
<glyph glyph-name="Ecaron" unicode="&#x11a;" horiz-adv-x="550" d="M479 780 L574 920 L452 920 L401 854 L377 920 L259 920 L294 780 L479 780 Z M308 555 L547 555 L583 720 L163 720 L9 0 L459 0 L495 165 L224 165 L256 312 L521 312 L553 463 L288 463 L308 555 Z " />
<glyph glyph-name="ecaron" unicode="&#x11b;" horiz-adv-x="565" d="M451 580 L546 720 L424 720 L373 654 L349 720 L231 720 L266 580 L451 580 Z M309 495 C172 495 61 409 31 270 C-1 121 109 -15 261 -15 C366 -15 450 30 509 127 L371 184 C348 152 315 135 273 135 C228 135 192 166 186 210 L531 210 C531 210 535 219 538 240 C557 367 456 495 309 495 L309 495 Z M303 371 C342 371 371 350 382 310 L207 310 C229 354 261 371 303 371 L303 371 Z " />
<glyph glyph-name="Gcircumflex" unicode="&#x11c;" horiz-adv-x="800" d="M507 846 L530 780 L648 780 L613 920 L428 920 L333 780 L455 780 L507 846 Z M793 420 L365 420 L333 270 L604 270 C573 197 504 155 422 155 C299 155 216 266 242 390 C264 495 347 565 455 565 C526 565 574 534 605 493 L754 590 C694 677 596 735 471 735 C262 735 109 611 66 410 C19 190 182 -15 406 -15 C608 -15 740 105 783 300 C795 355 793 420 793 420 L793 420 Z " />
<glyph glyph-name="gcircumflex" unicode="&#x11d;" horiz-adv-x="595" d="M387 646 L410 580 L528 580 L493 720 L308 720 L213 580 L335 580 L387 646 Z M446 480 L430 429 C412 453 367 495 279 495 C152 495 63 414 35 285 C3 136 89 5 231 5 C286 5 320 17 340 30 L334 0 C320 -64 280 -90 227 -90 C185 -90 155 -64 135 -39 L27 -135 C63 -189 135 -235 224 -235 C356 -235 459 -164 490 -20 L596 480 L446 480 Z M276 155 C214 155 180 205 190 262 C199 315 242 345 294 345 C352 345 381 302 393 277 L374 189 C354 173 321 155 276 155 L276 155 Z " />
<glyph glyph-name="Gbreve" unicode="&#x11e;" horiz-adv-x="800" d="M506 780 C592 780 650 834 668 920 L558 920 C552 890 538 870 513 870 C487 870 477 890 483 920 L373 920 C357 844 409 780 506 780 L506 780 Z M793 420 L365 420 L333 270 L604 270 C573 197 504 155 422 155 C299 155 216 266 242 390 C264 495 347 565 455 565 C526 565 574 534 605 493 L754 590 C694 677 596 735 471 735 C262 735 109 611 66 410 C19 190 182 -15 406 -15 C608 -15 740 105 783 300 C795 355 793 420 793 420 L793 420 Z " />
<glyph glyph-name="gbreve" unicode="&#x11f;" horiz-adv-x="595" d="M386 580 C472 580 530 634 548 720 L438 720 C432 690 418 670 393 670 C367 670 357 690 363 720 L253 720 C237 644 289 580 386 580 L386 580 Z M446 480 L430 429 C412 453 367 495 279 495 C152 495 63 414 35 285 C3 136 89 5 231 5 C286 5 320 17 340 30 L334 0 C320 -64 280 -90 227 -90 C185 -90 155 -64 135 -39 L27 -135 C63 -189 135 -235 224 -235 C356 -235 459 -164 490 -20 L596 480 L446 480 Z M276 155 C214 155 180 205 190 262 C199 315 242 345 294 345 C352 345 381 302 393 277 L374 189 C354 173 321 155 276 155 L276 155 Z " />
<glyph glyph-name="Gdotaccent" unicode="&#x120;" horiz-adv-x="800" d="M506 775 C549 775 581 807 581 850 C581 893 549 925 506 925 C463 925 431 893 431 850 C431 807 463 775 506 775 L506 775 Z M793 420 L365 420 L333 270 L604 270 C573 197 504 155 422 155 C299 155 216 266 242 390 C264 495 347 565 455 565 C526 565 574 534 605 493 L754 590 C694 677 596 735 471 735 C262 735 109 611 66 410 C19 190 182 -15 406 -15 C608 -15 740 105 783 300 C795 355 793 420 793 420 L793 420 Z " />
<glyph glyph-name="gdotaccent" unicode="&#x121;" horiz-adv-x="595" d="M386 575 C429 575 461 607 461 650 C461 693 429 725 386 725 C343 725 311 693 311 650 C311 607 343 575 386 575 L386 575 Z M446 480 L430 429 C412 453 367 495 279 495 C152 495 63 414 35 285 C3 136 89 5 231 5 C286 5 320 17 340 30 L334 0 C320 -64 280 -90 227 -90 C185 -90 155 -64 135 -39 L27 -135 C63 -189 135 -235 224 -235 C356 -235 459 -164 490 -20 L596 480 L446 480 Z M276 155 C214 155 180 205 190 262 C199 315 242 345 294 345 C352 345 381 302 393 277 L374 189 C354 173 321 155 276 155 L276 155 Z " />
<glyph glyph-name="Gcommaaccent" unicode="&#x122;" horiz-adv-x="800" d="M793 420 L365 420 L333 270 L604 270 C573 197 504 155 422 155 C299 155 216 266 242 390 C264 495 347 565 455 565 C526 565 574 534 605 493 L754 590 C694 677 596 735 471 735 C262 735 109 611 66 410 C19 190 182 -15 406 -15 C608 -15 740 105 783 300 C795 355 793 420 793 420 L793 420 Z M251 -200 L396 -200 L466 -60 L301 -60 L251 -200 Z " />
<glyph glyph-name="gcommaaccent" unicode="&#x123;" horiz-adv-x="595" d="M506 720 L361 720 L291 580 L456 580 L506 720 Z M446 480 L430 429 C412 453 367 495 279 495 C152 495 63 414 35 285 C3 136 89 5 231 5 C286 5 320 17 340 30 L334 0 C320 -64 280 -90 227 -90 C185 -90 155 -64 135 -39 L27 -135 C63 -189 135 -235 224 -235 C356 -235 459 -164 490 -20 L596 480 L446 480 Z M276 155 C214 155 180 205 190 262 C199 315 242 345 294 345 C352 345 381 302 393 277 L374 189 C354 173 321 155 276 155 L276 155 Z " />
<glyph glyph-name="Hcircumflex" unicode="&#x124;" horiz-adv-x="760" d="M512 846 L535 780 L653 780 L618 920 L433 920 L338 780 L460 780 L512 846 Z M623 720 L571 475 L291 475 L343 720 L163 720 L9 0 L189 0 L254 305 L534 305 L469 0 L649 0 L803 720 L623 720 Z " />
<glyph glyph-name="hcircumflex" unicode="&#x125;" horiz-adv-x="525" d="M266 866 L289 800 L407 800 L372 940 L187 940 L92 800 L214 800 L266 866 Z M372 495 C326 495 292 477 254 443 L317 740 L157 740 L-1 0 L159 0 L224 305 C246 329 268 340 288 340 C320 340 336 318 328 279 L269 0 L429 0 L498 327 C519 425 467 495 372 495 L372 495 Z " />
<glyph glyph-name="Hbar" unicode="&#x126;" horiz-adv-x="760" d="M840 615 L781 615 L803 720 L623 720 L601 615 L321 615 L343 720 L163 720 L141 615 L80 615 L65 545 L126 545 L9 0 L189 0 L254 305 L534 305 L469 0 L649 0 L766 545 L825 545 L840 615 Z M571 475 L291 475 L306 545 L586 545 L571 475 Z " />
<glyph glyph-name="hbar" unicode="&#x127;" horiz-adv-x="525" d="M372 495 C326 495 292 477 254 443 L281 570 L361 570 L375 640 L296 640 L317 740 L157 740 L136 640 L85 640 L71 570 L121 570 L-1 0 L159 0 L224 305 C246 329 268 340 288 340 C320 340 336 318 328 279 L269 0 L429 0 L498 327 C519 425 467 495 372 495 L372 495 Z " />
<glyph glyph-name="Itilde" unicode="&#x128;" horiz-adv-x="320" d="M122 798 C122 798 160 817 201 817 C275 817 294 784 368 784 C409 784 440 811 440 811 L459 903 C459 903 420 883 379 883 C305 883 286 916 212 916 C171 916 141 889 141 889 L122 798 Z M19 0 L199 0 L353 720 L173 720 L19 0 Z " />
<glyph glyph-name="itilde" unicode="&#x129;" horiz-adv-x="270" d="M54 598 C54 598 92 617 133 617 C207 617 226 584 300 584 C341 584 372 611 372 611 L391 703 C391 703 352 683 311 683 C237 683 218 716 144 716 C103 716 73 689 73 689 L54 598 Z M4 0 L164 0 L266 480 L106 480 L4 0 Z " />
<glyph glyph-name="Imacron" unicode="&#x12a;" horiz-adv-x="320" d="M122 800 L437 800 L459 900 L144 900 L122 800 Z M19 0 L199 0 L353 720 L173 720 L19 0 Z " />
<glyph glyph-name="imacron" unicode="&#x12b;" horiz-adv-x="270" d="M54 600 L369 600 L391 700 L76 700 L54 600 Z M4 0 L164 0 L266 480 L106 480 L4 0 Z " />
<glyph glyph-name="Ibreve" unicode="&#x12c;" horiz-adv-x="320" d="M158 920 C142 844 194 780 291 780 C377 780 435 834 453 920 L343 920 C337 890 323 870 298 870 C272 870 262 890 268 920 L158 920 Z M19 0 L199 0 L353 720 L173 720 L19 0 Z " />
<glyph glyph-name="ibreve" unicode="&#x12d;" horiz-adv-x="270" d="M90 720 C74 644 126 580 223 580 C309 580 367 634 385 720 L275 720 C269 690 255 670 230 670 C204 670 194 690 200 720 L90 720 Z M4 0 L164 0 L266 480 L106 480 L4 0 Z " />
<glyph glyph-name="Iogonek" unicode="&#x12e;" horiz-adv-x="320" d="M115 -115 C101 -115 90 -103 93 -87 C98 -62 130 -40 199 0 L353 720 L173 720 L19 0 L81 0 C33 -27 -4 -58 -16 -110 C-30 -174 20 -225 84 -225 C160 -225 205 -167 205 -167 L156 -95 C156 -95 134 -115 115 -115 L115 -115 Z " />
<glyph glyph-name="iogonek" unicode="&#x12f;" horiz-adv-x="270" d="M220 735 C162 735 120 692 120 640 C120 588 162 545 220 545 C278 545 320 588 320 640 C320 692 278 735 220 735 L220 735 Z M164 0 L266 480 L106 480 L4 0 L46 0 C-2 -27 -39 -58 -51 -110 C-65 -174 -15 -225 49 -225 C125 -225 170 -167 170 -167 L121 -95 C121 -95 99 -115 80 -115 C66 -115 55 -103 58 -87 C63 -62 95 -40 164 0 L164 0 Z " />
<glyph glyph-name="Idotaccent" unicode="&#x130;" horiz-adv-x="320" d="M291 775 C334 775 366 807 366 850 C366 893 334 925 291 925 C248 925 216 893 216 850 C216 807 248 775 291 775 L291 775 Z M19 0 L199 0 L353 720 L173 720 L19 0 Z " />
<glyph glyph-name="dotlessi" unicode="&#x131;" horiz-adv-x="270" d="M4 0 L164 0 L266 480 L106 480 L4 0 Z " />
<glyph glyph-name="IJ" unicode="&#x132;" horiz-adv-x="835" d="M19 0 L199 0 L353 720 L173 720 L19 0 Z M506 -15 C658 -15 744 70 776 220 L882 720 L702 720 L599 225 C589 178 564 155 523 155 C494 155 472 173 463 204 L305 121 C330 51 402 -15 506 -15 L506 -15 Z " />
<glyph glyph-name="ij" unicode="&#x133;" horiz-adv-x="540" d="M220 545 C278 545 320 588 320 640 C320 692 278 735 220 735 C162 735 120 692 120 640 C120 588 162 545 220 545 L220 545 Z M490 545 C548 545 590 588 590 640 C590 692 548 735 490 735 C432 735 390 692 390 640 C390 588 432 545 490 545 L490 545 Z M4 0 L164 0 L266 480 L106 480 L4 0 Z M228 -220 L388 -220 L536 480 L376 480 L228 -220 Z " />
<glyph glyph-name="Jcircumflex" unicode="&#x134;" horiz-adv-x="515" d="M327 780 L449 780 L501 846 L524 780 L642 780 L607 920 L422 920 L327 780 Z M186 -15 C338 -15 424 70 456 220 L562 720 L382 720 L279 225 C269 178 244 155 203 155 C174 155 152 173 143 204 L-15 121 C10 51 82 -15 186 -15 L186 -15 Z " />
<glyph glyph-name="jcircumflex" unicode="&#x135;" horiz-adv-x="270" d="M50 580 L172 580 L224 646 L247 580 L365 580 L330 720 L145 720 L50 580 Z M-42 -220 L118 -220 L266 480 L106 480 L-42 -220 Z " />
<glyph glyph-name="Kcommaaccent" unicode="&#x136;" horiz-adv-x="665" d="M748 720 L516 720 L288 461 L343 720 L163 720 L9 0 L189 0 L261 336 L401 0 L614 0 L441 383 L748 720 Z M148 -200 L293 -200 L363 -60 L198 -60 L148 -200 Z " />
<glyph glyph-name="kcommaaccent" unicode="&#x137;" horiz-adv-x="515" d="M556 480 L361 480 L229 326 L317 740 L157 740 L-1 0 L159 0 L202 201 L284 0 L464 0 L346 262 L556 480 Z M76 -200 L221 -200 L291 -60 L126 -60 L76 -200 Z " />
<glyph glyph-name="Lacute" unicode="&#x139;" horiz-adv-x="520" d="M411 920 L246 920 L196 780 L341 780 L411 920 Z M225 170 L343 720 L163 720 L9 0 L459 0 L496 170 L225 170 Z " />
<glyph glyph-name="lacute" unicode="&#x13a;" horiz-adv-x="270" d="M185 800 L330 800 L400 940 L235 940 L185 800 Z M4 0 L164 0 L322 740 L162 740 L4 0 Z " />
<glyph glyph-name="Lcommaaccent" unicode="&#x13b;" horiz-adv-x="520" d="M225 170 L343 720 L163 720 L9 0 L459 0 L496 170 L225 170 Z M86 -200 L231 -200 L301 -60 L136 -60 L86 -200 Z " />
<glyph glyph-name="lcommaaccent" unicode="&#x13c;" horiz-adv-x="270" d="M4 0 L164 0 L322 740 L162 740 L4 0 Z M-64 -200 L81 -200 L151 -60 L-14 -60 L-64 -200 Z " />
<glyph glyph-name="Lcaron" unicode="&#x13d;" horiz-adv-x="520" d="M343 720 L163 720 L9 0 L459 0 L496 170 L225 170 L343 720 Z M547 720 L457 390 L602 390 L712 720 L547 720 Z " />
<glyph glyph-name="lcaron" unicode="&#x13e;" horiz-adv-x="460" d="M4 0 L164 0 L322 740 L162 740 L4 0 Z M422 390 L567 390 L677 720 L512 720 L422 390 Z " />
<glyph glyph-name="Ldot" unicode="&#x13f;" horiz-adv-x="520" d="M343 720 L163 720 L9 0 L459 0 L496 170 L225 170 L343 720 Z M459 460 C401 460 359 416 359 360 C359 304 401 260 459 260 C517 260 559 304 559 360 C559 416 517 460 459 460 L459 460 Z " />
<glyph glyph-name="ldot" unicode="&#x140;" horiz-adv-x="445" d="M4 0 L164 0 L322 740 L162 740 L4 0 Z M394 260 C452 260 494 304 494 360 C494 416 452 460 394 460 C336 460 294 416 294 360 C294 304 336 260 394 260 L394 260 Z " />
<glyph glyph-name="Lslash" unicode="&#x141;" horiz-adv-x="520" d="M225 170 L273 391 L378 420 L393 490 L288 461 L343 720 L163 720 L96 408 L32 390 L17 320 L81 338 L9 0 L459 0 L496 170 L225 170 Z " />
<glyph glyph-name="lslash" unicode="&#x142;" horiz-adv-x="270" d="M322 740 L162 740 L91 406 L32 390 L17 320 L76 336 L4 0 L164 0 L246 384 L304 400 L319 470 L261 454 L322 740 Z " />
<glyph glyph-name="Nacute" unicode="&#x143;" horiz-adv-x="740" d="M415 780 L560 780 L630 920 L465 920 L415 780 Z M469 0 L629 0 L783 720 L606 720 L519 308 L323 720 L163 720 L9 0 L186 0 L276 422 L469 0 Z " />
<glyph glyph-name="nacute" unicode="&#x144;" horiz-adv-x="525" d="M481 720 L316 720 L266 580 L411 580 L481 720 Z M372 495 C323 495 287 474 246 436 L251 480 L101 480 L-1 0 L159 0 L224 305 C246 329 268 340 288 340 C320 340 336 318 328 279 L269 0 L429 0 L498 327 C519 425 467 495 372 495 L372 495 Z " />
<glyph glyph-name="Ncommaaccent" unicode="&#x145;" horiz-adv-x="740" d="M469 0 L629 0 L783 720 L606 720 L519 308 L323 720 L163 720 L9 0 L186 0 L276 422 L469 0 Z M171 -200 L316 -200 L386 -60 L221 -60 L171 -200 Z " />
<glyph glyph-name="ncommaaccent" unicode="&#x146;" horiz-adv-x="525" d="M372 495 C323 495 287 474 246 436 L251 480 L101 480 L-1 0 L159 0 L224 305 C246 329 268 340 288 340 C320 340 336 318 328 279 L269 0 L429 0 L498 327 C519 425 467 495 372 495 L372 495 Z M64 -200 L209 -200 L279 -60 L114 -60 L64 -200 Z " />
<glyph glyph-name="Ncaron" unicode="&#x147;" horiz-adv-x="740" d="M358 920 L393 780 L578 780 L673 920 L551 920 L500 854 L476 920 L358 920 Z M469 0 L629 0 L783 720 L606 720 L519 308 L323 720 L163 720 L9 0 L186 0 L276 422 L469 0 Z " />
<glyph glyph-name="ncaron" unicode="&#x148;" horiz-adv-x="525" d="M429 580 L524 720 L402 720 L351 654 L327 720 L209 720 L244 580 L429 580 Z M372 495 C323 495 287 474 246 436 L251 480 L101 480 L-1 0 L159 0 L224 305 C246 329 268 340 288 340 C320 340 336 318 328 279 L269 0 L429 0 L498 327 C519 425 467 495 372 495 L372 495 Z " />
<glyph glyph-name="Eng" unicode="&#x14a;" horiz-adv-x="740" d="M9 0 L186 0 L276 422 L457 26 L451 -5 C444 -43 424 -65 386 -65 C366 -65 348 -57 335 -43 L239 -175 C266 -207 321 -235 379 -235 C510 -235 593 -171 625 -20 L783 720 L606 720 L519 308 L323 720 L163 720 L9 0 Z " />
<glyph glyph-name="eng" unicode="&#x14b;" horiz-adv-x="525" d="M372 495 C323 495 287 474 246 436 L251 480 L101 480 L-1 0 L159 0 L224 305 C246 329 268 340 288 340 C320 340 336 318 328 279 L223 -220 L383 -220 L498 327 C519 425 467 495 372 495 L372 495 Z " />
<glyph glyph-name="Omacron" unicode="&#x14c;" horiz-adv-x="820" d="M372 800 L687 800 L709 900 L394 900 L372 800 Z M406 -15 C610 -15 762 109 805 310 C852 530 690 735 466 735 C262 735 109 611 66 410 C19 190 182 -15 406 -15 L406 -15 Z M422 155 C299 155 215 265 242 390 C265 496 347 565 450 565 C573 565 655 455 629 330 C607 224 525 155 422 155 L422 155 Z " />
<glyph glyph-name="omacron" unicode="&#x14d;" horiz-adv-x="570" d="M204 600 L519 600 L541 700 L226 700 L204 600 Z M261 -15 C398 -15 509 71 538 205 C571 358 461 495 309 495 C172 495 61 409 32 275 C-1 121 109 -15 261 -15 L261 -15 Z M276 140 C214 140 175 193 187 252 C198 307 242 340 294 340 C356 340 395 287 383 228 C372 173 328 140 276 140 L276 140 Z " />
<glyph glyph-name="Obreve" unicode="&#x14e;" horiz-adv-x="820" d="M408 920 C392 844 444 780 541 780 C627 780 685 834 703 920 L593 920 C587 890 573 870 548 870 C522 870 512 890 518 920 L408 920 Z M406 -15 C610 -15 762 109 805 310 C852 530 690 735 466 735 C262 735 109 611 66 410 C19 190 182 -15 406 -15 L406 -15 Z M422 155 C299 155 215 265 242 390 C265 496 347 565 450 565 C573 565 655 455 629 330 C607 224 525 155 422 155 L422 155 Z " />
<glyph glyph-name="obreve" unicode="&#x14f;" horiz-adv-x="570" d="M240 720 C224 644 276 580 373 580 C459 580 517 634 535 720 L425 720 C419 690 405 670 380 670 C354 670 344 690 350 720 L240 720 Z M261 -15 C398 -15 509 71 538 205 C571 358 461 495 309 495 C172 495 61 409 32 275 C-1 121 109 -15 261 -15 L261 -15 Z M276 140 C214 140 175 193 187 252 C198 307 242 340 294 340 C356 340 395 287 383 228 C372 173 328 140 276 140 L276 140 Z " />
<glyph glyph-name="Ohungarumlaut" unicode="&#x150;" horiz-adv-x="820" d="M381 780 L506 780 L576 920 L431 920 L381 780 Z M551 780 L676 780 L746 920 L601 920 L551 780 Z M406 -15 C610 -15 762 109 805 310 C852 530 690 735 466 735 C262 735 109 611 66 410 C19 190 182 -15 406 -15 L406 -15 Z M422 155 C299 155 215 265 242 390 C265 496 347 565 450 565 C573 565 655 455 629 330 C607 224 525 155 422 155 L422 155 Z " />
<glyph glyph-name="ohungarumlaut" unicode="&#x151;" horiz-adv-x="570" d="M213 580 L338 580 L408 720 L263 720 L213 580 Z M383 580 L508 580 L578 720 L433 720 L383 580 Z M261 -15 C398 -15 509 71 538 205 C571 358 461 495 309 495 C172 495 61 409 32 275 C-1 121 109 -15 261 -15 L261 -15 Z M276 140 C214 140 175 193 187 252 C198 307 242 340 294 340 C356 340 395 287 383 228 C372 173 328 140 276 140 L276 140 Z " />
<glyph glyph-name="OE" unicode="&#x152;" horiz-adv-x="1080" d="M770 555 L1076 555 L1112 720 L568 720 C536 730 502 735 466 735 C262 735 109 611 66 410 C19 190 182 -15 406 -15 C448 -15 487 -10 524 0 L988 0 L1024 165 L747 165 C774 207 793 256 805 310 L805 312 L1050 312 L1082 463 L805 463 C798 495 786 526 770 555 L770 555 Z M242 390 C265 496 347 565 450 565 C573 565 655 455 629 330 C607 224 525 155 422 155 C299 155 215 265 242 390 L242 390 Z " />
<glyph glyph-name="oe" unicode="&#x153;" horiz-adv-x="925" d="M670 495 C589 495 525 465 479 413 C442 463 383 495 309 495 C172 495 61 409 32 275 C-1 121 109 -15 261 -15 C342 -15 406 15 452 67 C489 17 548 -15 622 -15 C727 -15 811 30 870 127 L732 184 C709 152 676 135 634 135 C589 135 553 166 547 210 L892 210 C892 210 896 219 899 240 C918 367 817 495 670 495 L670 495 Z M664 371 C703 371 732 350 743 310 L568 310 C590 354 622 371 664 371 L664 371 Z M383 228 C372 173 328 140 276 140 C214 140 175 193 187 252 C198 307 242 340 294 340 C356 340 395 287 383 228 L383 228 Z " />
<glyph glyph-name="Racute" unicode="&#x154;" horiz-adv-x="620" d="M561 920 L396 920 L346 780 L491 780 L561 920 Z M592 482 C616 598 545 720 388 720 L163 720 L9 0 L189 0 L250 285 L369 0 L569 0 L426 298 C514 326 574 394 592 482 L592 482 Z M345 565 C394 565 425 529 417 480 C409 434 370 405 321 405 L276 405 L310 565 L345 565 Z " />
<glyph glyph-name="racute" unicode="&#x155;" horiz-adv-x="460" d="M458 720 L293 720 L243 580 L388 580 L458 720 Z M367 495 C331 495 296 477 245 429 L251 480 L101 480 L-1 0 L159 0 L223 300 C251 337 269 350 289 350 C308 350 319 337 321 302 L484 352 C484 444 442 495 367 495 L367 495 Z " />
<glyph glyph-name="Rcommaaccent" unicode="&#x156;" horiz-adv-x="620" d="M592 482 C616 598 545 720 388 720 L163 720 L9 0 L189 0 L250 285 L369 0 L569 0 L426 298 C514 326 574 394 592 482 L592 482 Z M345 565 C394 565 425 529 417 480 C409 434 370 405 321 405 L276 405 L310 565 L345 565 Z M131 -200 L276 -200 L346 -60 L181 -60 L131 -200 Z " />
<glyph glyph-name="rcommaaccent" unicode="&#x157;" horiz-adv-x="460" d="M367 495 C331 495 296 477 245 429 L251 480 L101 480 L-1 0 L159 0 L223 300 C251 337 269 350 289 350 C308 350 319 337 321 302 L484 352 C484 444 442 495 367 495 L367 495 Z M-69 -200 L76 -200 L146 -60 L-19 -60 L-69 -200 Z " />
<glyph glyph-name="Rcaron" unicode="&#x158;" horiz-adv-x="620" d="M509 780 L604 920 L482 920 L431 854 L407 920 L289 920 L324 780 L509 780 Z M388 720 L163 720 L9 0 L189 0 L250 285 L369 0 L569 0 L426 298 C514 326 574 394 592 482 C616 598 545 720 388 720 L388 720 Z M345 565 C394 565 425 529 417 480 C409 434 370 405 321 405 L276 405 L310 565 L345 565 Z " />
<glyph glyph-name="rcaron" unicode="&#x159;" horiz-adv-x="460" d="M406 580 L501 720 L379 720 L328 654 L304 720 L186 720 L221 580 L406 580 Z M367 495 C331 495 296 477 245 429 L251 480 L101 480 L-1 0 L159 0 L223 300 C251 337 269 350 289 350 C308 350 319 337 321 302 L484 352 C484 444 442 495 367 495 L367 495 Z " />
<glyph glyph-name="Sacute" unicode="&#x15a;" horiz-adv-x="555" d="M332 780 L477 780 L547 920 L382 920 L332 780 Z M259 -15 C394 -15 488 69 509 167 C535 290 474 373 346 447 C294 477 282 507 288 537 C293 563 318 582 356 582 C420 582 461 524 461 524 L578 626 C578 626 504 735 347 735 C225 735 135 663 115 570 C90 456 151 368 273 296 C329 263 343 230 336 194 C330 163 301 138 259 138 C176 138 125 228 125 228 L3 136 C3 136 76 -15 259 -15 L259 -15 Z " />
<glyph glyph-name="sacute" unicode="&#x15b;" horiz-adv-x="423" d="M224 580 L369 580 L439 720 L274 720 L224 580 Z M197 -15 C286 -15 354 34 370 106 C390 196 342 257 257 301 C220 320 215 334 217 349 C219 362 230 375 255 375 C299 375 333 337 333 337 L415 428 C415 428 355 495 240 495 C153 495 87 449 72 381 C53 296 96 230 180 188 C223 167 227 151 224 134 C221 119 209 105 182 105 C131 105 80 162 80 162 L-1 72 C-1 72 56 -15 197 -15 L197 -15 Z " />
<glyph glyph-name="Scedilla" unicode="&#x15e;" horiz-adv-x="555" d="M346 447 C294 477 282 507 288 537 C293 563 318 582 356 582 C420 582 461 524 461 524 L578 626 C578 626 504 735 347 735 C225 735 135 663 115 570 C90 456 151 368 273 296 C329 263 343 230 336 194 C330 163 301 138 259 138 C176 138 125 228 125 228 L3 136 C3 136 58 22 192 -8 L141 -82 L172 -109 C172 -109 182 -100 197 -100 C214 -100 223 -111 221 -123 C219 -137 206 -145 188 -145 C157 -145 137 -127 137 -127 L94 -187 C94 -187 131 -220 193 -220 C266 -220 309 -183 320 -135 C331 -87 306 -45 251 -37 L265 -15 C397 -13 488 70 509 167 C535 290 474 373 346 447 L346 447 Z " />
<glyph glyph-name="scedilla" unicode="&#x15f;" horiz-adv-x="423" d="M257 301 C220 320 215 334 217 349 C219 362 230 375 255 375 C299 375 333 337 333 337 L415 428 C415 428 355 495 240 495 C153 495 87 449 72 381 C53 296 96 230 180 188 C223 167 227 151 224 134 C221 119 209 105 182 105 C131 105 80 162 80 162 L-1 72 C-1 72 38 13 130 -8 L79 -82 L110 -109 C110 -109 120 -100 135 -100 C152 -100 161 -111 159 -123 C157 -137 144 -145 126 -145 C95 -145 75 -127 75 -127 L32 -187 C32 -187 69 -220 131 -220 C204 -220 247 -183 258 -135 C269 -87 244 -45 189 -37 L203 -15 C289 -13 354 36 370 106 C390 196 342 257 257 301 L257 301 Z " />
<glyph glyph-name="Scaron" unicode="&#x160;" horiz-adv-x="555" d="M275 920 L310 780 L495 780 L590 920 L468 920 L417 854 L393 920 L275 920 Z M259 -15 C394 -15 488 69 509 167 C535 290 474 373 346 447 C294 477 282 507 288 537 C293 563 318 582 356 582 C420 582 461 524 461 524 L578 626 C578 626 504 735 347 735 C225 735 135 663 115 570 C90 456 151 368 273 296 C329 263 343 230 336 194 C330 163 301 138 259 138 C176 138 125 228 125 228 L3 136 C3 136 76 -15 259 -15 L259 -15 Z " />
<glyph glyph-name="scaron" unicode="&#x161;" horiz-adv-x="423" d="M167 720 L202 580 L387 580 L482 720 L360 720 L309 654 L285 720 L167 720 Z M197 -15 C286 -15 354 34 370 106 C390 196 342 257 257 301 C220 320 215 334 217 349 C219 362 230 375 255 375 C299 375 333 337 333 337 L415 428 C415 428 355 495 240 495 C153 495 87 449 72 381 C53 296 96 230 180 188 C223 167 227 151 224 134 C221 119 209 105 182 105 C131 105 80 162 80 162 L-1 72 C-1 72 56 -15 197 -15 L197 -15 Z " />
<glyph glyph-name="uni0162" unicode="&#x162;" horiz-adv-x="550" d="M314 0 L431 550 L606 550 L643 720 L113 720 L76 550 L251 550 L134 0 L194 0 L138 -82 L169 -109 C169 -109 179 -100 194 -100 C211 -100 220 -111 218 -123 C216 -137 203 -145 185 -145 C154 -145 134 -127 134 -127 L91 -187 C91 -187 128 -220 190 -220 C263 -220 306 -183 317 -135 C328 -87 303 -45 248 -37 L271 0 L314 0 Z " />
<glyph glyph-name="uni0163" unicode="&#x163;" horiz-adv-x="360" d="M199 0 L269 331 L359 331 L391 481 L301 481 L347 700 L187 700 L141 481 L71 481 L39 331 L109 331 L39 0 L89 0 L33 -82 L64 -109 C64 -109 74 -100 89 -100 C106 -100 115 -111 113 -123 C111 -137 98 -145 80 -145 C49 -145 29 -127 29 -127 L-14 -187 C-14 -187 23 -220 85 -220 C158 -220 201 -183 212 -135 C223 -87 198 -45 143 -37 L166 0 L199 0 Z " />
<glyph glyph-name="Tcaron" unicode="&#x164;" horiz-adv-x="550" d="M484 780 L579 920 L457 920 L406 854 L382 920 L264 920 L299 780 L484 780 Z M643 720 L113 720 L76 550 L251 550 L134 0 L314 0 L431 550 L606 550 L643 720 Z " />
<glyph glyph-name="tcaron" unicode="&#x165;" horiz-adv-x="465" d="M402 720 L340 520 L485 520 L567 720 L402 720 Z M347 700 L187 700 L141 481 L71 481 L39 331 L109 331 L39 0 L199 0 L269 331 L359 331 L391 481 L301 481 L347 700 Z " />
<glyph glyph-name="Tbar" unicode="&#x166;" horiz-adv-x="550" d="M606 550 L643 720 L113 720 L76 550 L251 550 L213 370 L78 370 L64 300 L198 300 L134 0 L314 0 L378 300 L514 300 L528 370 L393 370 L431 550 L606 550 Z " />
<glyph glyph-name="tbar" unicode="&#x167;" horiz-adv-x="360" d="M359 331 L391 481 L301 481 L347 700 L187 700 L141 481 L71 481 L39 331 L109 331 L91 245 L21 245 L6 175 L76 175 L39 0 L199 0 L236 175 L325 175 L340 245 L251 245 L269 331 L359 331 Z " />
<glyph glyph-name="Utilde" unicode="&#x168;" horiz-adv-x="650" d="M286 798 C286 798 324 817 365 817 C439 817 458 784 532 784 C573 784 604 811 604 811 L623 903 C623 903 584 883 543 883 C469 883 450 916 376 916 C335 916 305 889 305 889 L286 798 Z M291 -15 C466 -15 563 91 595 240 L697 720 L517 720 L419 260 C406 199 371 165 319 165 C253 165 228 209 241 270 L337 720 L157 720 L64 280 C24 91 136 -15 291 -15 L291 -15 Z " />
<glyph glyph-name="utilde" unicode="&#x169;" horiz-adv-x="525" d="M419 544 C460 544 491 571 491 571 L510 663 C510 663 471 643 430 643 C356 643 337 676 263 676 C222 676 192 649 192 649 L173 558 C173 558 211 577 252 577 C326 577 345 544 419 544 L419 544 Z M366 480 L301 175 C279 151 257 140 237 140 C205 140 189 162 197 201 L256 480 L96 480 L27 153 C6 55 58 -15 153 -15 C202 -15 238 6 279 44 L274 0 L424 0 L526 480 L366 480 Z " />
<glyph glyph-name="Umacron" unicode="&#x16a;" horiz-adv-x="650" d="M286 800 L601 800 L623 900 L308 900 L286 800 Z M291 -15 C466 -15 563 91 595 240 L697 720 L517 720 L419 260 C406 199 371 165 319 165 C253 165 228 209 241 270 L337 720 L157 720 L64 280 C24 91 136 -15 291 -15 L291 -15 Z " />
<glyph glyph-name="umacron" unicode="&#x16b;" horiz-adv-x="525" d="M510 660 L195 660 L173 560 L488 560 L510 660 Z M366 480 L301 175 C279 151 257 140 237 140 C205 140 189 162 197 201 L256 480 L96 480 L27 153 C6 55 58 -15 153 -15 C202 -15 238 6 279 44 L274 0 L424 0 L526 480 L366 480 Z " />
<glyph glyph-name="Ubreve" unicode="&#x16c;" horiz-adv-x="650" d="M322 920 C306 844 358 780 455 780 C541 780 599 834 617 920 L507 920 C501 890 487 870 462 870 C436 870 426 890 432 920 L322 920 Z M291 -15 C466 -15 563 91 595 240 L697 720 L517 720 L419 260 C406 199 371 165 319 165 C253 165 228 209 241 270 L337 720 L157 720 L64 280 C24 91 136 -15 291 -15 L291 -15 Z " />
<glyph glyph-name="ubreve" unicode="&#x16d;" horiz-adv-x="525" d="M342 540 C428 540 486 594 504 680 L394 680 C388 650 374 630 349 630 C323 630 313 650 319 680 L209 680 C193 604 245 540 342 540 L342 540 Z M366 480 L301 175 C279 151 257 140 237 140 C205 140 189 162 197 201 L256 480 L96 480 L27 153 C6 55 58 -15 153 -15 C202 -15 238 6 279 44 L274 0 L424 0 L526 480 L366 480 Z " />
<glyph glyph-name="Uring" unicode="&#x16e;" horiz-adv-x="650" d="M447 705 C511 705 560 753 560 815 C560 877 511 925 447 925 C383 925 334 877 334 815 C334 753 383 705 447 705 L447 705 Z M447 782 C429 782 414 797 414 815 C414 833 429 848 447 848 C465 848 480 833 480 815 C480 797 465 782 447 782 L447 782 Z M291 -15 C466 -15 563 91 595 240 L697 720 L517 720 L419 260 C406 199 371 165 319 165 C253 165 228 209 241 270 L337 720 L157 720 L64 280 C24 91 136 -15 291 -15 L291 -15 Z " />
<glyph glyph-name="uring" unicode="&#x16f;" horiz-adv-x="525" d="M392 480 C425 499 447 534 447 575 C447 637 398 685 334 685 C270 685 221 637 221 575 C221 513 270 465 334 465 C344 465 354 466 364 469 L301 175 C279 151 257 140 237 140 C205 140 189 162 197 201 L256 480 L96 480 L27 153 C6 55 58 -15 153 -15 C202 -15 238 6 279 44 L274 0 L424 0 L526 480 L392 480 Z M334 542 C316 542 301 557 301 575 C301 593 316 608 334 608 C352 608 367 593 367 575 C367 557 352 542 334 542 L334 542 Z " />
<glyph glyph-name="Uhungarumlaut" unicode="&#x170;" horiz-adv-x="650" d="M295 780 L420 780 L490 920 L345 920 L295 780 Z M465 780 L590 780 L660 920 L515 920 L465 780 Z M291 -15 C466 -15 563 91 595 240 L697 720 L517 720 L419 260 C406 199 371 165 319 165 C253 165 228 209 241 270 L337 720 L157 720 L64 280 C24 91 136 -15 291 -15 L291 -15 Z " />
<glyph glyph-name="uhungarumlaut" unicode="&#x171;" horiz-adv-x="525" d="M377 680 L232 680 L182 540 L307 540 L377 680 Z M477 540 L547 680 L402 680 L352 540 L477 540 Z M301 175 C279 151 257 140 237 140 C205 140 189 162 197 201 L256 480 L96 480 L27 153 C6 55 58 -15 153 -15 C202 -15 238 6 279 44 L274 0 L424 0 L526 480 L366 480 L301 175 Z " />
<glyph glyph-name="Uogonek" unicode="&#x172;" horiz-adv-x="650" d="M517 720 L419 260 C406 199 371 165 319 165 C253 165 228 209 241 270 L337 720 L157 720 L64 280 C30 120 105 19 223 -8 C182 -33 150 -63 139 -110 C125 -174 175 -225 239 -225 C315 -225 360 -167 360 -167 L311 -95 C311 -95 289 -115 270 -115 C256 -115 245 -103 248 -87 C252 -65 278 -45 332 -13 C481 2 566 103 595 240 L697 720 L517 720 Z " />
<glyph glyph-name="uogonek" unicode="&#x173;" horiz-adv-x="525" d="M340 -115 C326 -115 315 -103 318 -87 C323 -62 355 -40 424 0 L526 480 L366 480 L301 175 C279 151 257 140 237 140 C205 140 189 162 197 201 L256 480 L96 480 L27 153 C6 55 58 -15 153 -15 C202 -15 238 6 279 44 L274 0 L306 0 C258 -27 221 -58 209 -110 C195 -174 245 -225 309 -225 C385 -225 430 -167 430 -167 L381 -95 C381 -95 359 -115 340 -115 L340 -115 Z " />
<glyph glyph-name="Wcircumflex" unicode="&#x174;" horiz-adv-x="1040" d="M647 846 L670 780 L788 780 L753 920 L568 920 L473 780 L595 780 L647 846 Z M949 720 L738 301 L693 720 L543 720 L322 307 L289 720 L102 720 L174 0 L324 0 L561 438 L612 0 L762 0 L1142 720 L949 720 Z " />
<glyph glyph-name="wcircumflex" unicode="&#x175;" horiz-adv-x="760" d="M460 606 L483 540 L601 540 L566 680 L381 680 L286 540 L408 540 L460 606 Z M638 480 L511 240 L493 480 L363 480 L243 239 L218 480 L51 480 L125 0 L255 0 L382 250 L403 0 L533 0 L811 480 L638 480 Z " />
<glyph glyph-name="Ycircumflex" unicode="&#x176;" horiz-adv-x="620" d="M263 780 L385 780 L437 846 L460 780 L578 780 L543 920 L358 920 L263 780 Z M168 0 L348 0 L418 325 L732 720 L528 720 L362 505 L288 720 L92 720 L238 325 L168 0 Z " />
<glyph glyph-name="ycircumflex" unicode="&#x177;" horiz-adv-x="500" d="M330 606 L353 540 L471 540 L436 680 L251 680 L156 540 L278 540 L330 606 Z M381 480 L246 232 L221 480 L51 480 L126 36 L-24 -220 L136 -220 L551 480 L381 480 Z " />
<glyph glyph-name="Ydieresis" unicode="&#x178;" horiz-adv-x="620" d="M346 775 C389 775 421 807 421 850 C421 893 389 925 346 925 C303 925 271 893 271 850 C271 807 303 775 346 775 L346 775 Z M526 775 C569 775 601 807 601 850 C601 893 569 925 526 925 C483 925 451 893 451 850 C451 807 483 775 526 775 L526 775 Z M168 0 L348 0 L418 325 L732 720 L528 720 L362 505 L288 720 L92 720 L238 325 L168 0 Z " />
<glyph glyph-name="Zacute" unicode="&#x179;" horiz-adv-x="700" d="M396 780 L541 780 L611 920 L446 920 L396 780 Z M-1 0 L599 0 L635 165 L323 165 L736 640 L753 720 L153 720 L117 555 L429 555 L16 80 L-1 0 Z " />
<glyph glyph-name="zacute" unicode="&#x17a;" horiz-adv-x="480" d="M244 540 L389 540 L459 680 L294 680 L244 540 Z M-6 0 L384 0 L414 140 L242 140 L469 400 L486 480 L96 480 L66 340 L238 340 L11 80 L-6 0 Z " />
<glyph glyph-name="Zdotaccent" unicode="&#x17b;" horiz-adv-x="700" d="M481 775 C524 775 556 807 556 850 C556 893 524 925 481 925 C438 925 406 893 406 850 C406 807 438 775 481 775 L481 775 Z M-1 0 L599 0 L635 165 L323 165 L736 640 L753 720 L153 720 L117 555 L429 555 L16 80 L-1 0 Z " />
<glyph glyph-name="zdotaccent" unicode="&#x17c;" horiz-adv-x="480" d="M329 535 C372 535 404 567 404 610 C404 653 372 685 329 685 C286 685 254 653 254 610 C254 567 286 535 329 535 L329 535 Z M-6 0 L384 0 L414 140 L242 140 L469 400 L486 480 L96 480 L66 340 L238 340 L11 80 L-6 0 Z " />
<glyph glyph-name="Zcaron" unicode="&#x17d;" horiz-adv-x="700" d="M339 920 L374 780 L559 780 L654 920 L532 920 L481 854 L457 920 L339 920 Z M-1 0 L599 0 L635 165 L323 165 L736 640 L753 720 L153 720 L117 555 L429 555 L16 80 L-1 0 Z " />
<glyph glyph-name="zcaron" unicode="&#x17e;" horiz-adv-x="480" d="M187 680 L222 540 L407 540 L502 680 L380 680 L329 614 L305 680 L187 680 Z M-6 0 L384 0 L414 140 L242 140 L469 400 L486 480 L96 480 L66 340 L238 340 L11 80 L-6 0 Z " />
<glyph glyph-name="florin" unicode="&#x192;" horiz-adv-x="560" d="M433 735 C305 735 236 647 156 290 L43 290 L30 230 L143 230 C85 -37 68 -80 39 -80 C14 -80 10 -59 7 -21 L-152 -51 C-141 -173 -68 -235 31 -235 C162 -235 231 -144 313 230 L426 230 L439 290 L326 290 C380 539 396 580 425 580 C450 580 454 559 457 521 L616 551 C605 673 532 735 433 735 L433 735 Z " />
<glyph glyph-name="Aringacute" unicode="&#x1fa;" horiz-adv-x="720" d="M492 0 L689 0 L555 711 C578 731 593 761 593 795 C593 817 587 837 576 854 L639 970 L479 970 L452 902 C402 890 367 848 367 795 C367 766 378 739 396 720 L393 720 L-51 0 L152 0 L224 125 L476 125 L492 0 Z M513 795 C513 777 498 762 480 762 C462 762 447 777 447 795 C447 813 462 828 480 828 C498 828 513 813 513 795 L513 795 Z M310 275 L430 482 L456 275 L310 275 Z " />
<glyph glyph-name="aringacute" unicode="&#x1fb;" horiz-adv-x="595" d="M470 480 C483 498 491 520 491 545 C491 569 484 591 471 609 L527 720 L362 720 L336 648 C294 632 265 593 265 545 C265 527 269 510 277 495 C151 494 61 408 32 275 C-1 121 89 -15 231 -15 C310 -15 346 17 361 38 L364 0 L494 0 L596 480 L470 480 Z M378 578 C396 578 411 563 411 545 C411 527 396 512 378 512 C360 512 345 527 345 545 C345 563 360 578 378 578 L378 578 Z M419 442 C425 444 431 447 437 450 L430 429 C427 433 424 438 419 442 L419 442 Z M276 140 C214 140 175 193 187 252 C198 307 242 340 294 340 C351 340 381 300 393 277 L372 177 C351 159 319 140 276 140 L276 140 Z " />
<glyph glyph-name="AEacute" unicode="&#x1fc;" horiz-adv-x="910" d="M841 920 L676 920 L626 780 L771 780 L841 920 Z M584 555 L907 555 L943 720 L393 720 L-51 0 L153 0 L225 125 L476 125 L492 0 L819 0 L855 165 L658 165 L634 292 L877 292 L909 443 L605 443 L584 555 Z M311 275 L430 483 L457 275 L311 275 Z " />
<glyph glyph-name="aeacute" unicode="&#x1fd;" horiz-adv-x="925" d="M683 720 L518 720 L468 580 L613 580 L683 720 Z M700 495 C656 495 612 477 576 444 L576 480 L446 480 L430 429 C412 453 367 495 279 495 C152 495 61 409 32 275 C-1 121 89 -15 231 -15 C292 -15 327 4 346 22 L344 0 L484 0 L501 54 C526 12 569 -15 632 -15 C727 -15 811 30 870 127 L732 184 C709 152 676 135 634 135 C589 135 553 166 547 210 L892 210 C892 210 896 219 899 240 C917 367 817 495 700 495 L700 495 Z M664 371 C703 371 732 350 743 310 L568 310 C590 354 622 371 664 371 L664 371 Z M187 252 C198 307 242 340 294 340 C351 340 381 300 393 277 L372 177 C351 159 319 140 276 140 C214 140 175 193 187 252 L187 252 Z " />
<glyph glyph-name="Oslashacute" unicode="&#x1fe;" horiz-adv-x="820" d="M671 920 L506 920 L456 780 L601 780 L671 920 Z M893 720 L793 720 L704 641 C643 699 560 735 466 735 C262 735 109 611 66 410 C44 306 68 206 124 128 L-21 0 L79 0 L168 79 C229 21 312 -15 406 -15 C610 -15 762 109 805 310 C827 414 803 514 747 591 L893 720 Z M237 390 C260 496 344 570 450 570 C498 570 541 553 573 525 L257 246 C234 287 226 338 237 390 L237 390 Z M634 330 C612 224 528 150 422 150 C374 150 331 167 299 195 L614 473 C637 432 645 382 634 330 L634 330 Z " />
<glyph glyph-name="oslashacute" unicode="&#x1ff;" horiz-adv-x="570" d="M503 720 L338 720 L288 580 L433 580 L503 720 Z M596 480 L501 480 L459 442 C419 475 367 495 309 495 C172 495 61 409 32 275 C17 204 32 137 68 85 L-26 0 L69 0 L111 38 C151 5 203 -15 261 -15 C398 -15 509 71 538 205 C553 276 538 343 502 395 L596 480 Z M177 252 C188 307 232 350 294 350 C313 350 330 345 345 338 L183 190 C175 209 173 231 177 252 L177 252 Z M393 228 C382 173 338 130 276 130 C257 130 240 135 225 142 L387 290 C395 271 397 249 393 228 L393 228 Z " />
<glyph glyph-name="Scommaaccent" unicode="&#x218;" horiz-adv-x="555" d="M259 -15 C394 -15 488 69 509 167 C535 290 474 373 346 447 C294 477 282 507 288 537 C293 563 318 582 356 582 C420 582 461 524 461 524 L578 626 C578 626 504 735 347 735 C225 735 135 663 115 570 C90 456 151 368 273 296 C329 263 343 230 336 194 C330 163 301 138 259 138 C176 138 125 228 125 228 L3 136 C3 136 76 -15 259 -15 L259 -15 Z M79 -200 L224 -200 L294 -60 L129 -60 L79 -200 Z " />
<glyph glyph-name="scommaaccent" unicode="&#x219;" horiz-adv-x="423" d="M197 -15 C286 -15 354 34 370 106 C390 196 342 257 257 301 C220 320 215 334 217 349 C219 362 230 375 255 375 C299 375 333 337 333 337 L415 428 C415 428 355 495 240 495 C153 495 87 449 72 381 C53 296 96 230 180 188 C223 167 227 151 224 134 C221 119 209 105 182 105 C131 105 80 162 80 162 L-1 72 C-1 72 56 -15 197 -15 L197 -15 Z M17 -200 L162 -200 L232 -60 L67 -60 L17 -200 Z " />
<glyph glyph-name="uni021A" unicode="&#x21a;" horiz-adv-x="550" d="M643 720 L113 720 L76 550 L251 550 L134 0 L314 0 L431 550 L606 550 L643 720 Z M76 -200 L221 -200 L291 -60 L126 -60 L76 -200 Z " />
<glyph glyph-name="uni021B" unicode="&#x21b;" horiz-adv-x="360" d="M391 481 L301 481 L347 700 L187 700 L141 481 L71 481 L39 331 L109 331 L39 0 L199 0 L269 331 L359 331 L391 481 Z M-29 -200 L116 -200 L186 -60 L21 -60 L-29 -200 Z " />
<glyph glyph-name="circumflex" unicode="&#x2c6;" horiz-adv-x="435" d="M132 580 L254 580 L306 646 L329 580 L447 580 L412 720 L227 720 L132 580 Z " />
<glyph glyph-name="caron" unicode="&#x2c7;" horiz-adv-x="435" d="M162 720 L197 580 L382 580 L477 720 L355 720 L304 654 L280 720 L162 720 Z " />
<glyph glyph-name="breve" unicode="&#x2d8;" horiz-adv-x="415" d="M162 720 C146 644 198 580 295 580 C381 580 439 634 457 720 L347 720 C341 690 327 670 302 670 C276 670 266 690 272 720 L162 720 Z " />
<glyph glyph-name="dotaccent" unicode="&#x2d9;" horiz-adv-x="274" d="M224 575 C267 575 299 607 299 650 C299 693 267 725 224 725 C181 725 149 693 149 650 C149 607 181 575 224 575 L224 575 Z " />
<glyph glyph-name="ring" unicode="&#x2da;" horiz-adv-x="351" d="M255 505 C319 505 368 553 368 615 C368 677 319 725 255 725 C191 725 142 677 142 615 C142 553 191 505 255 505 L255 505 Z M255 582 C237 582 222 597 222 615 C222 633 237 648 255 648 C273 648 288 633 288 615 C288 597 273 582 255 582 L255 582 Z " />
<glyph glyph-name="ogonek" unicode="&#x2db;" horiz-adv-x="354" d="M86 -225 C162 -225 207 -167 207 -167 L158 -95 C158 -95 136 -115 117 -115 C103 -115 92 -103 95 -87 C100 -62 132 -40 201 0 L101 10 C45 -20 -1 -52 -14 -110 C-28 -174 22 -225 86 -225 L86 -225 Z " />
<glyph glyph-name="tilde" unicode="&#x2dc;" horiz-adv-x="435" d="M136 598 C136 598 174 617 215 617 C289 617 308 584 382 584 C423 584 454 611 454 611 L473 703 C473 703 434 683 393 683 C319 683 300 716 226 716 C185 716 155 689 155 689 L136 598 Z " />
<glyph glyph-name="hungarumlaut" unicode="&#x2dd;" horiz-adv-x="455" d="M132 580 L257 580 L327 720 L182 720 L132 580 Z M302 580 L427 580 L497 720 L352 720 L302 580 Z " />
<glyph glyph-name="gravecomb" unicode="&#x300;" d="M12 580 L12 720 L-143 720 L-123 580 L12 580 Z " />
<glyph glyph-name="acutecomb" unicode="&#x301;" d="M-173 580 L-28 580 L42 720 L-123 720 L-173 580 Z " />
<glyph glyph-name="uni0302" unicode="&#x302;" d="M-303 580 L-181 580 L-129 646 L-106 580 L12 580 L-23 720 L-208 720 L-303 580 Z " />
<glyph glyph-name="tildecomb" unicode="&#x303;" d="M-299 598 C-299 598 -261 617 -220 617 C-146 617 -127 584 -53 584 C-12 584 19 611 19 611 L38 703 C38 703 -1 683 -42 683 C-116 683 -135 716 -209 716 C-250 716 -280 689 -280 689 L-299 598 Z " />
<glyph glyph-name="uni0304" unicode="&#x304;" d="M-298 600 L17 600 L39 700 L-276 700 L-298 600 Z " />
<glyph glyph-name="uni0306" unicode="&#x306;" d="M-253 720 C-269 644 -217 580 -120 580 C-34 580 24 634 42 720 L-68 720 C-74 690 -88 670 -113 670 C-139 670 -149 690 -143 720 L-253 720 Z " />
<glyph glyph-name="uni0307" unicode="&#x307;" d="M-48 575 C-5 575 27 607 27 650 C27 693 -5 725 -48 725 C-91 725 -123 693 -123 650 C-123 607 -91 575 -48 575 L-48 575 Z " />
<glyph glyph-name="uni0308" unicode="&#x308;" d="M-228 575 C-185 575 -153 607 -153 650 C-153 693 -185 725 -228 725 C-271 725 -303 693 -303 650 C-303 607 -271 575 -228 575 L-228 575 Z M-48 575 C-5 575 27 607 27 650 C27 693 -5 725 -48 725 C-91 725 -123 693 -123 650 C-123 607 -91 575 -48 575 L-48 575 Z " />
<glyph glyph-name="uni030A" unicode="&#x30a;" d="M-83 505 C-19 505 30 553 30 615 C30 677 -19 725 -83 725 C-147 725 -196 677 -196 615 C-196 553 -147 505 -83 505 L-83 505 Z M-83 582 C-101 582 -116 597 -116 615 C-116 633 -101 648 -83 648 C-65 648 -50 633 -50 615 C-50 597 -65 582 -83 582 L-83 582 Z " />
<glyph glyph-name="uni030B" unicode="&#x30b;" d="M-323 580 L-198 580 L-128 720 L-273 720 L-323 580 Z M-153 580 L-28 580 L42 720 L-103 720 L-153 580 Z " />
<glyph glyph-name="uni030C" unicode="&#x30c;" d="M-273 720 L-238 580 L-53 580 L42 720 L-80 720 L-131 654 L-155 720 L-273 720 Z " />
<glyph glyph-name="uni0312" unicode="&#x312;" d="M42 720 L-103 720 L-173 580 L-8 580 L42 720 Z " />
<glyph glyph-name="uni0326" unicode="&#x326;" d="M-343 -220 L-198 -220 L-128 -80 L-293 -80 L-343 -220 Z " />
<glyph glyph-name="uni0327" unicode="&#x327;" d="M-209 -37 L-186 0 L-263 0 L-319 -82 L-288 -109 C-288 -109 -278 -100 -263 -100 C-246 -100 -237 -111 -239 -123 C-241 -137 -254 -145 -272 -145 C-303 -145 -323 -127 -323 -127 L-366 -187 C-366 -187 -329 -220 -267 -220 C-194 -220 -151 -183 -140 -135 C-129 -87 -154 -45 -209 -37 L-209 -37 Z " />
<glyph glyph-name="uni0328" unicode="&#x328;" d="M-268 -225 C-192 -225 -147 -167 -147 -167 L-196 -95 C-196 -95 -218 -115 -237 -115 C-251 -115 -262 -103 -259 -87 C-254 -62 -222 -40 -153 0 L-253 10 C-309 -20 -355 -52 -368 -110 C-382 -174 -332 -225 -268 -225 L-268 -225 Z " />
<glyph glyph-name="uni0394" unicode="&#x394;" horiz-adv-x="720" d="M543 720 L383 720 L-51 0 L669 0 L543 720 Z M237 150 L416 468 L454 150 L237 150 Z " />
<glyph glyph-name="uni03A9" unicode="&#x3a9;" horiz-adv-x="820" d="M816 360 C858 560 699 735 475 735 C271 735 110 620 68 420 C46 314 64 223 117 160 L23 160 L-11 0 L279 0 L313 160 C247 191 218 279 237 370 C261 485 346 565 459 565 C572 565 658 465 633 350 C613 259 551 191 473 160 L439 0 L729 0 L763 160 L692 160 C752 206 797 271 816 360 L816 360 Z " />
<glyph glyph-name="uni03BC" unicode="&#x3bc;" horiz-adv-x="525" d="M371 480 L311 195 C304 160 279 140 246 140 C212 140 194 164 201 199 L261 480 L101 480 L-47 -220 L113 -220 L161 8 C184 -7 212 -15 246 -15 C352 -15 440 54 468 185 L531 480 L371 480 Z " />
<glyph glyph-name="pi" unicode="&#x3c0;" horiz-adv-x="610" d="M641 481 L71 481 L39 331 L109 331 L39 0 L199 0 L269 331 L379 331 L309 0 L469 0 L539 331 L609 331 L641 481 Z " />
<glyph glyph-name="Wgrave" unicode="&#x1e80;" horiz-adv-x="1040" d="M700 780 L700 920 L545 920 L565 780 L700 780 Z M949 720 L738 301 L693 720 L543 720 L322 307 L289 720 L102 720 L174 0 L324 0 L561 438 L612 0 L762 0 L1142 720 L949 720 Z " />
<glyph glyph-name="wgrave" unicode="&#x1e81;" horiz-adv-x="760" d="M513 540 L513 680 L358 680 L378 540 L513 540 Z M638 480 L511 240 L493 480 L363 480 L243 239 L218 480 L51 480 L125 0 L255 0 L382 250 L403 0 L533 0 L811 480 L638 480 Z " />
<glyph glyph-name="Wacute" unicode="&#x1e82;" horiz-adv-x="1040" d="M776 920 L611 920 L561 780 L706 780 L776 920 Z M949 720 L738 301 L693 720 L543 720 L322 307 L289 720 L102 720 L174 0 L324 0 L561 438 L612 0 L762 0 L1142 720 L949 720 Z " />
<glyph glyph-name="wacute" unicode="&#x1e83;" horiz-adv-x="760" d="M589 680 L424 680 L374 540 L519 540 L589 680 Z M638 480 L511 240 L493 480 L363 480 L243 239 L218 480 L51 480 L125 0 L255 0 L382 250 L403 0 L533 0 L811 480 L638 480 Z " />
<glyph glyph-name="Wdieresis" unicode="&#x1e84;" horiz-adv-x="1040" d="M556 775 C599 775 631 807 631 850 C631 893 599 925 556 925 C513 925 481 893 481 850 C481 807 513 775 556 775 L556 775 Z M736 775 C779 775 811 807 811 850 C811 893 779 925 736 925 C693 925 661 893 661 850 C661 807 693 775 736 775 L736 775 Z M949 720 L738 301 L693 720 L543 720 L322 307 L289 720 L102 720 L174 0 L324 0 L561 438 L612 0 L762 0 L1142 720 L949 720 Z " />
<glyph glyph-name="wdieresis" unicode="&#x1e85;" horiz-adv-x="760" d="M369 535 C412 535 444 567 444 610 C444 653 412 685 369 685 C326 685 294 653 294 610 C294 567 326 535 369 535 L369 535 Z M549 535 C592 535 624 567 624 610 C624 653 592 685 549 685 C506 685 474 653 474 610 C474 567 506 535 549 535 L549 535 Z M638 480 L511 240 L493 480 L363 480 L243 239 L218 480 L51 480 L125 0 L255 0 L382 250 L403 0 L533 0 L811 480 L638 480 Z " />
<glyph glyph-name="Ygrave" unicode="&#x1ef2;" horiz-adv-x="620" d="M490 780 L490 920 L335 920 L355 780 L490 780 Z M168 0 L348 0 L418 325 L732 720 L528 720 L362 505 L288 720 L92 720 L238 325 L168 0 Z " />
<glyph glyph-name="ygrave" unicode="&#x1ef3;" horiz-adv-x="500" d="M383 540 L383 680 L228 680 L248 540 L383 540 Z M381 480 L246 232 L221 480 L51 480 L126 36 L-24 -220 L136 -220 L551 480 L381 480 Z " />
<glyph glyph-name="endash" unicode="&#x2013;" horiz-adv-x="650" d="M39 234 L609 234 L641 384 L71 384 L39 234 Z " />
<glyph glyph-name="emdash" unicode="&#x2014;" horiz-adv-x="880" d="M39 234 L839 234 L871 384 L71 384 L39 234 Z " />
<glyph glyph-name="quoteleft" unicode="&#x2018;" horiz-adv-x="280" d="M342 720 L197 720 L87 390 L252 390 L342 720 Z " />
<glyph glyph-name="quoteright" unicode="&#x2019;" horiz-adv-x="280" d="M72 390 L217 390 L327 720 L162 720 L72 390 Z " />
<glyph glyph-name="quotesinglbase" unicode="&#x201a;" horiz-adv-x="280" d="M-43 -150 L102 -150 L212 180 L47 180 L-43 -150 Z " />
<glyph glyph-name="quotedblleft" unicode="&#x201c;" horiz-adv-x="515" d="M342 720 L197 720 L87 390 L252 390 L342 720 Z M577 720 L432 720 L322 390 L487 390 L577 720 Z " />
<glyph glyph-name="quotedblright" unicode="&#x201d;" horiz-adv-x="515" d="M72 390 L217 390 L327 720 L162 720 L72 390 Z M307 390 L452 390 L562 720 L397 720 L307 390 Z " />
<glyph glyph-name="quotedblbase" unicode="&#x201e;" horiz-adv-x="515" d="M-43 -150 L102 -150 L212 180 L47 180 L-43 -150 Z M192 -150 L337 -150 L447 180 L282 180 L192 -150 Z " />
<glyph glyph-name="dagger" unicode="&#x2020;" horiz-adv-x="370" d="M407 601 L322 601 L343 700 L223 700 L202 601 L117 601 L96 501 L181 501 L117 200 L237 200 L301 501 L386 501 L407 601 Z " />
<glyph glyph-name="daggerdbl" unicode="&#x2021;" horiz-adv-x="370" d="M386 501 L407 601 L322 601 L343 700 L223 700 L202 601 L117 601 L96 501 L181 501 L159 399 L74 399 L53 299 L138 299 L117 200 L237 200 L258 299 L343 299 L364 399 L279 399 L301 501 L386 501 Z " />
<glyph glyph-name="bullet" unicode="&#x2022;" horiz-adv-x="380" d="M216 210 C303 210 366 276 366 360 C366 444 303 510 216 510 C129 510 66 444 66 360 C66 276 129 210 216 210 L216 210 Z " />
<glyph glyph-name="ellipsis" unicode="&#x2026;" horiz-adv-x="920" d="M107 -15 C165 -15 207 29 207 85 C207 141 165 185 107 185 C49 185 7 141 7 85 C7 29 49 -15 107 -15 L107 -15 Z M427 -15 C485 -15 527 29 527 85 C527 141 485 185 427 185 C369 185 327 141 327 85 C327 29 369 -15 427 -15 L427 -15 Z M747 -15 C805 -15 847 29 847 85 C847 141 805 185 747 185 C689 185 647 141 647 85 C647 29 689 -15 747 -15 L747 -15 Z " />
<glyph glyph-name="perthousand" unicode="&#x2030;" horiz-adv-x="1300" d="M290 375 C393 375 473 454 473 555 C473 656 393 735 290 735 C187 735 107 656 107 555 C107 454 187 375 290 375 L290 375 Z M149 0 L224 0 L783 720 L708 720 L149 0 Z M290 490 C254 490 225 519 225 555 C225 591 254 620 290 620 C326 620 355 591 355 555 C355 519 326 490 290 490 L290 490 Z M642 -15 C745 -15 825 64 825 165 C825 266 745 345 642 345 C539 345 459 266 459 165 C459 64 539 -15 642 -15 L642 -15 Z M1062 -15 C1165 -15 1245 64 1245 165 C1245 266 1165 345 1062 345 C959 345 879 266 879 165 C879 64 959 -15 1062 -15 L1062 -15 Z M642 100 C606 100 577 129 577 165 C577 201 606 230 642 230 C678 230 707 201 707 165 C707 129 678 100 642 100 L642 100 Z M1062 100 C1026 100 997 129 997 165 C997 201 1026 230 1062 230 C1098 230 1127 201 1127 165 C1127 129 1098 100 1062 100 L1062 100 Z " />
<glyph glyph-name="guilsinglleft" unicode="&#x2039;" horiz-adv-x="360" d="M390 565 L71 385 L61 335 L302 155 L328 275 L246 350 L360 425 L390 565 Z " />
<glyph glyph-name="guilsinglright" unicode="&#x203a;" horiz-adv-x="360" d="M22 155 L341 335 L351 385 L110 565 L84 445 L166 370 L52 295 L22 155 Z " />
<glyph glyph-name="fraction" unicode="&#x2044;" horiz-adv-x="120" d="M-231 0 L-151 0 L402 720 L322 720 L-231 0 Z " />
<glyph glyph-name="Euro" unicode="&#x20ac;" horiz-adv-x="560" d="M307 140 C270 140 255 181 264 270 L427 270 L440 330 L273 330 C275 341 277 353 280 365 C282 374 284 382 285 390 L482 390 L495 450 L300 450 C326 542 353 580 391 580 C416 580 434 561 437 521 L587 541 C579 670 503 735 404 735 C277 735 187 652 130 450 L75 450 L62 390 L115 390 C114 383 112 377 111 370 C108 356 106 343 104 330 L50 330 L37 270 L97 270 C83 77 171 -15 294 -15 C378 -15 453 27 512 154 L366 199 C349 156 332 140 307 140 L307 140 Z " />
<glyph glyph-name="trademark" unicode="&#x2122;" horiz-adv-x="580" d="M318 653 L332 720 L142 720 L128 653 L184 653 L145 468 L219 468 L258 653 L318 653 Z M580 720 L467 566 L419 720 L362 720 L308 468 L375 468 L398 577 L434 468 L462 468 L545 577 L522 468 L588 468 L642 720 L580 720 Z " />
<glyph glyph-name="minus" unicode="&#x2212;" horiz-adv-x="560" d="M39 235 L519 235 L551 385 L71 385 L39 235 Z " />
<glyph glyph-name="approxequal" unicode="&#x2248;" horiz-adv-x="560" d="M62 345 C62 345 110 370 178 370 C301 370 314 320 437 320 C495 320 544 350 544 350 L572 485 C572 485 525 460 457 460 C334 460 321 510 198 510 C140 510 91 480 91 480 L62 345 Z M18 135 C18 135 65 160 133 160 C256 160 269 110 392 110 C450 110 499 140 499 140 L528 275 C528 275 480 250 412 250 C289 250 276 300 153 300 C95 300 46 270 46 270 L18 135 Z " />
<glyph glyph-name="notequal" unicode="&#x2260;" horiz-adv-x="560" d="M542 345 L572 485 L440 485 L489 565 L414 565 L365 485 L92 485 L62 345 L279 345 L236 275 L48 275 L18 135 L150 135 L101 55 L176 55 L225 135 L498 135 L528 275 L311 275 L354 345 L542 345 Z " />
<glyph glyph-name="lessequal" unicode="&#x2264;" horiz-adv-x="560" d="M516 221 L548 371 L316 446 L580 521 L616 691 L98 511 L74 401 L516 221 Z M480 50 L510 190 L30 190 L0 50 L480 50 Z " />
<glyph glyph-name="greaterequal" unicode="&#x2265;" horiz-adv-x="560" d="M36 221 L554 401 L578 511 L136 691 L104 541 L336 466 L72 391 L36 221 Z M0 50 L480 50 L510 190 L30 190 L0 50 Z " />
<glyph glyph-name="fi" unicode="&#xfb01;" horiz-adv-x="630" d="M391 481 L300 481 L311 532 C321 579 348 605 395 605 C421 605 435 597 435 597 L466 739 C466 739 438 755 389 755 C263 755 185 689 157 555 L141 481 L71 481 L39 331 L109 331 L39 0 L199 0 L269 331 L359 331 L391 481 Z M580 735 C522 735 480 692 480 640 C480 588 522 545 580 545 C638 545 680 588 680 640 C680 692 638 735 580 735 L580 735 Z M364 0 L524 0 L626 480 L466 480 L364 0 Z " />
<glyph glyph-name="fl" unicode="&#xfb02;" horiz-adv-x="630" d="M391 481 L300 481 L311 532 C321 579 348 605 395 605 C421 605 435 597 435 597 L466 739 C466 739 438 755 389 755 C263 755 185 689 157 555 L141 481 L71 481 L39 331 L109 331 L39 0 L199 0 L269 331 L359 331 L391 481 Z M522 740 L364 0 L524 0 L682 740 L522 740 Z " />
</font>
</svg>
