<?xml version="1.0" encoding="UTF-8"?>
<svg xmlns="http://www.w3.org/2000/svg" xmlns:xlink="http://www.w3.org/1999/xlink" version="1.2" >
<font id="Intervogue Alt Thin">
<font-face  font-family="Intervogue Alt" units-per-em="1000" ascent="740" descent="-220" font-style="normal" font-weight="100" font-stretch="normal" cap-height="700" x-height="410" underline-position="-75" underline-thickness="50" />
<missing-glyph  horiz-adv-x="600" d="M10 60 L590 60 L590 640 L10 640 L10 60 Z M161 262 L254 355 L161 448 L207 494 L300 401 L393 494 L439 448 L346 355 L439 262 L393 216 L300 309 L207 216 L161 262 Z " />
<glyph glyph-name="NULL" d="" />
<glyph glyph-name="CR" unicode="&#xd;" horiz-adv-x="250" d="" />
<glyph glyph-name="space" unicode="&#x20;" horiz-adv-x="300" d="" />
<glyph glyph-name="exclam" unicode="&#x21;" horiz-adv-x="230" d="M100 200 L130 200 L135 700 L95 700 L100 200 Z M115 -5 C135 -5 150 10 150 30 C150 50 135 65 115 65 C95 65 80 50 80 30 C80 10 95 -5 115 -5 L115 -5 Z " />
<glyph glyph-name="quotedbl" unicode="&#x22;" horiz-adv-x="390" d="M100 490 L140 490 L140 700 L100 700 L100 490 Z M250 490 L290 490 L290 700 L250 700 L250 490 Z " />
<glyph glyph-name="numbersign" unicode="&#x23;" horiz-adv-x="530" d="M470 427 L470 465 L391 465 L425 700 L385 700 L351 465 L211 465 L245 700 L205 700 L171 465 L60 465 L60 427 L166 427 L144 273 L60 273 L60 235 L139 235 L105 0 L145 0 L179 235 L319 235 L285 0 L325 0 L359 235 L470 235 L470 273 L364 273 L386 427 L470 427 Z M324 273 L184 273 L206 427 L346 427 L324 273 Z " />
<glyph glyph-name="dollar" unicode="&#x24;" horiz-adv-x="530" d="M480 172 C480 279 387 331 298 376 L298 677 C408 671 438 597 438 597 L473 611 C473 611 433 708 298 715 L298 800 L262 800 L262 714 C154 706 85 638 85 547 C85 448 175 393 262 349 L262 23 C124 32 88 159 88 159 L50 146 C50 146 93 -5 262 -15 L262 -100 L298 -100 L298 -14 C412 -6 480 75 480 172 L480 172 Z M125 547 C125 616 177 668 262 676 L262 394 C190 432 125 477 125 547 L125 547 Z M298 24 L298 330 C373 292 440 249 440 172 C440 97 389 33 298 24 L298 24 Z " />
<glyph glyph-name="percent" unicode="&#x25;" horiz-adv-x="880" d="M220 395 C310 395 380 465 380 555 C380 645 310 715 220 715 C130 715 60 645 60 555 C60 465 130 395 220 395 L220 395 Z M230 0 L273 0 L650 700 L607 700 L230 0 Z M220 434 C153 434 100 488 100 555 C100 622 153 676 220 676 C287 676 340 622 340 555 C340 488 287 434 220 434 L220 434 Z M660 -15 C750 -15 820 55 820 145 C820 235 750 305 660 305 C570 305 500 235 500 145 C500 55 570 -15 660 -15 L660 -15 Z M660 24 C593 24 540 78 540 145 C540 212 593 266 660 266 C727 266 780 212 780 145 C780 78 727 24 660 24 L660 24 Z " />
<glyph glyph-name="ampersand" unicode="&#x26;" horiz-adv-x="565" d="M525 350 L478 350 L383 187 L243 372 C323 448 365 504 365 575 C365 654 309 715 230 715 C151 715 95 654 95 575 C95 501 143 437 192 374 C96 282 50 225 50 140 C50 52 119 -15 203 -15 C278 -15 332 28 388 117 L477 0 L525 0 L409 152 L525 350 Z M230 677 C287 677 325 632 325 575 C325 521 296 477 220 402 C171 467 135 521 135 575 C135 632 173 677 230 677 L230 677 Z M203 25 C143 24 90 76 90 140 C90 201 121 255 214 345 L362 150 C308 60 264 26 203 25 L203 25 Z " />
<glyph glyph-name="quotesingle" unicode="&#x27;" horiz-adv-x="240" d="M100 490 L140 490 L140 700 L100 700 L100 490 Z " />
<glyph glyph-name="parenleft" unicode="&#x28;" horiz-adv-x="270" d="M220 0 C220 0 90 120 90 350 C90 580 220 700 220 700 L180 700 C180 700 50 585 50 350 C50 115 180 0 180 0 L220 0 Z " />
<glyph glyph-name="parenright" unicode="&#x29;" horiz-adv-x="270" d="M50 0 L90 0 C90 0 220 115 220 350 C220 585 90 700 90 700 L50 700 C50 700 180 580 180 350 C180 120 50 0 50 0 L50 0 Z " />
<glyph glyph-name="asterisk" unicode="&#x2a;" horiz-adv-x="440" d="M360 608 L340 642 L238 580 L240 700 L200 700 L202 581 L100 642 L80 608 L185 550 L80 492 L100 458 L202 519 L200 400 L240 400 L238 520 L340 458 L360 492 L256 550 L360 608 Z " />
<glyph glyph-name="plus" unicode="&#x2b;" horiz-adv-x="530" d="M450 328 L285 328 L285 494 L245 494 L245 328 L80 328 L80 290 L245 290 L245 124 L285 124 L285 290 L450 290 L450 328 Z " />
<glyph glyph-name="comma" unicode="&#x2c;" horiz-adv-x="230" d="M80 -150 L120 -150 L143 60 L100 60 L80 -150 Z " />
<glyph glyph-name="hyphen" unicode="&#x2d;" horiz-adv-x="460" d="M80 290 L380 290 L380 328 L80 328 L80 290 Z " />
<glyph glyph-name="period" unicode="&#x2e;" horiz-adv-x="230" d="M115 -5 C135 -5 150 10 150 30 C150 50 135 65 115 65 C95 65 80 50 80 30 C80 10 95 -5 115 -5 L115 -5 Z " />
<glyph glyph-name="slash" unicode="&#x2f;" horiz-adv-x="530" d="M20 -100 L60 -100 L510 800 L470 800 L20 -100 Z " />
<glyph glyph-name="zero" unicode="0" horiz-adv-x="530" d="M265 -15 C396 -15 470 118 470 350 C470 582 396 715 265 715 C134 715 60 582 60 350 C60 118 134 -15 265 -15 L265 -15 Z M265 23 C162 23 100 146 100 350 C100 554 162 677 265 677 C367 677 430 554 430 350 C430 146 367 23 265 23 L265 23 Z " />
<glyph glyph-name="one" unicode="1" horiz-adv-x="320" d="M150 0 L190 0 L190 700 L50 700 L50 662 L150 662 L150 0 Z " />
<glyph glyph-name="two" unicode="2" horiz-adv-x="495" d="M50 0 L430 0 L430 38 L120 38 L356 342 C402 402 435 462 435 530 C435 634 356 715 247 715 C149 715 71 644 55 547 L92 541 C106 621 165 677 247 677 C334 677 395 614 395 530 C395 472 369 422 324 364 L50 10 L50 0 Z " />
<glyph glyph-name="three" unicode="3" horiz-adv-x="470" d="M269 366 C354 393 395 460 395 535 C395 637 313 715 205 715 C133 715 70 675 37 621 L68 600 C95 645 144 677 205 677 C292 677 355 616 355 535 C355 456 302 380 165 380 L140 380 L140 350 L165 350 C308 350 370 268 370 180 C370 93 298 23 205 23 C136 23 81 64 54 115 L20 97 C55 28 123 -15 205 -15 C322 -15 410 69 410 180 C410 265 364 338 269 366 L269 366 Z " />
<glyph glyph-name="four" unicode="4" horiz-adv-x="530" d="M500 270 L370 270 L370 700 L330 700 L30 252 L30 232 L330 232 L330 0 L370 0 L370 232 L500 232 L500 270 Z M84 270 L330 641 L330 270 L84 270 Z " />
<glyph glyph-name="five" unicode="5" horiz-adv-x="530" d="M265 410 C200 410 160 385 135 359 L140 662 L430 662 L430 700 L100 700 L95 290 L125 290 C125 290 153 372 260 372 C358 372 430 299 430 202 C430 96 353 23 255 23 C176 23 112 70 83 128 L50 108 C88 38 162 -15 255 -15 C376 -15 470 73 470 202 C470 321 381 410 265 410 L265 410 Z " />
<glyph glyph-name="six" unicode="6" horiz-adv-x="530" d="M265 425 C218 425 180 411 148 389 L301 700 L257 700 L69 307 C54 275 45 238 45 205 C45 81 141 -15 265 -15 C389 -15 485 81 485 205 C485 329 389 425 265 425 L265 425 Z M265 23 C163 23 85 103 85 205 C85 307 163 387 265 387 C367 387 445 307 445 205 C445 103 367 23 265 23 L265 23 Z " />
<glyph glyph-name="seven" unicode="7" horiz-adv-x="450" d="M30 700 L30 662 L369 662 L110 0 L153 0 L420 690 L420 700 L30 700 Z " />
<glyph glyph-name="eight" unicode="8" horiz-adv-x="530" d="M346 366 C411 393 455 453 455 530 C455 635 373 715 265 715 C157 715 75 635 75 530 C75 453 119 393 184 366 C110 338 60 271 60 185 C60 71 148 -15 265 -15 C382 -15 470 71 470 185 C470 271 420 338 346 366 L346 366 Z M115 530 C115 614 178 677 265 677 C352 677 415 614 415 530 C415 446 352 383 265 383 C178 383 115 446 115 530 L115 530 Z M265 23 C172 23 100 95 100 185 C100 275 172 347 265 347 C358 347 430 275 430 185 C430 95 358 23 265 23 L265 23 Z " />
<glyph glyph-name="nine" unicode="9" horiz-adv-x="530" d="M265 715 C141 715 45 619 45 495 C45 371 141 275 265 275 C312 275 350 289 382 311 L229 0 L273 0 L461 393 C476 425 485 462 485 495 C485 619 389 715 265 715 L265 715 Z M265 313 C163 313 85 393 85 495 C85 597 163 677 265 677 C367 677 445 597 445 495 C445 393 367 313 265 313 L265 313 Z " />
<glyph glyph-name="colon" unicode="&#x3a;" horiz-adv-x="230" d="M115 345 C135 345 150 360 150 380 C150 400 135 415 115 415 C95 415 80 400 80 380 C80 360 95 345 115 345 L115 345 Z M115 -5 C135 -5 150 10 150 30 C150 50 135 65 115 65 C95 65 80 50 80 30 C80 10 95 -5 115 -5 L115 -5 Z " />
<glyph glyph-name="semicolon" unicode="&#x3b;" horiz-adv-x="230" d="M115 345 C135 345 150 360 150 380 C150 400 135 415 115 415 C95 415 80 400 80 380 C80 360 95 345 115 345 L115 345 Z M80 -150 L120 -150 L143 60 L100 60 L80 -150 Z " />
<glyph glyph-name="less" unicode="&#x3c;" horiz-adv-x="530" d="M450 175 L450 218 L136 350 L450 482 L450 525 L80 365 L80 335 L450 175 Z " />
<glyph glyph-name="equal" unicode="&#x3d;" horiz-adv-x="530" d="M80 380 L450 380 L450 418 L80 418 L80 380 Z M80 200 L450 200 L450 238 L80 238 L80 200 Z " />
<glyph glyph-name="greater" unicode="&#x3e;" horiz-adv-x="530" d="M80 175 L450 335 L450 365 L80 525 L80 482 L394 350 L80 218 L80 175 Z " />
<glyph glyph-name="question" unicode="&#x3f;" horiz-adv-x="485" d="M223 200 L268 200 L368 370 C405 433 435 487 435 545 C435 641 366 715 248 715 C113 715 50 632 50 530 L90 530 C90 621 156 677 248 677 C336 677 395 619 395 547 C395 498 371 453 332 387 L223 200 Z M195 -5 C215 -5 230 10 230 30 C230 50 215 65 195 65 C175 65 160 50 160 30 C160 10 175 -5 195 -5 L195 -5 Z " />
<glyph glyph-name="at" unicode="&#x40;" horiz-adv-x="1070" d="M535 715 C268 715 60 507 60 240 C60 -27 268 -230 535 -230 C585 -230 629 -222 667 -210 L658 -174 C619 -185 578 -192 535 -192 C290 -192 100 -5 100 240 C100 485 290 677 535 677 C780 677 970 495 970 240 C970 74 876 -16 793 -16 C716 -16 672 50 692 145 L748 406 L708 406 L690 320 C670 380 618 425 540 425 C436 425 357 358 335 256 C313 154 383 45 503 45 C565 45 615 74 649 120 C640 26 698 -54 790 -54 C903 -54 1010 61 1010 240 C1010 517 802 715 535 715 L535 715 Z M505 83 C414 83 357 168 375 252 C393 335 462 387 537 387 C629 387 685 302 668 218 C651 135 580 83 505 83 L505 83 Z " />
<glyph glyph-name="A" unicode="A" horiz-adv-x="740" d="M676 0 L720 0 L384 700 L356 700 L20 0 L64 0 L207 299 L533 299 L676 0 Z M225 337 L370 642 L515 337 L225 337 Z " />
<glyph glyph-name="B" unicode="B" horiz-adv-x="500" d="M303 369 C376 392 420 450 420 525 C420 625 345 700 225 700 L100 700 L100 0 L222 0 C355 0 440 83 440 194 C440 279 388 344 303 369 L303 369 Z M225 662 C323 662 380 603 380 525 C380 447 323 388 225 388 L140 388 L140 662 L225 662 Z M222 38 L140 38 L140 350 L222 350 C334 350 400 283 400 194 C400 105 334 38 222 38 L222 38 Z " />
<glyph glyph-name="C" unicode="C" horiz-adv-x="775" d="M415 -15 C551 -15 664 55 725 162 L691 182 C637 86 536 23 415 23 C232 23 90 166 90 350 C90 534 232 677 415 677 C526 677 619 624 675 542 L707 565 C644 656 539 715 415 715 C210 715 50 555 50 350 C50 145 210 -15 415 -15 L415 -15 Z " />
<glyph glyph-name="D" unicode="D" horiz-adv-x="640" d="M100 0 L240 0 C468 0 590 150 590 350 C590 550 468 700 240 700 L100 700 L100 0 Z M140 38 L140 662 L240 662 C446 662 550 529 550 350 C550 171 446 38 240 38 L140 38 Z " />
<glyph glyph-name="E" unicode="E" horiz-adv-x="520" d="M140 38 L140 351 L465 351 L465 389 L140 389 L140 662 L440 662 L440 700 L100 700 L100 0 L470 0 L470 38 L140 38 Z " />
<glyph glyph-name="F" unicode="F" horiz-adv-x="515" d="M465 389 L140 389 L140 662 L440 662 L440 700 L100 700 L100 0 L140 0 L140 351 L465 351 L465 389 Z " />
<glyph glyph-name="G" unicode="G" horiz-adv-x="815" d="M764 340 L250 340 L250 302 L724 302 C711 142 583 23 415 23 C232 23 90 166 90 350 C90 534 233 677 420 677 C520 677 605 637 664 576 L692 603 C626 671 531 715 420 715 C211 715 50 555 50 350 C50 145 210 -15 415 -15 C615 -15 765 135 765 330 C765 337 764 340 764 340 L764 340 Z " />
<glyph glyph-name="H" unicode="H" horiz-adv-x="760" d="M620 700 L620 390 L140 390 L140 700 L100 700 L100 0 L140 0 L140 352 L620 352 L620 0 L660 0 L660 700 L620 700 Z " />
<glyph glyph-name="I" unicode="I" horiz-adv-x="260" d="M110 0 L150 0 L150 700 L110 700 L110 0 Z " />
<glyph glyph-name="J" unicode="J" horiz-adv-x="473" d="M183 -15 C297 -15 383 71 383 205 L383 700 L343 700 L343 205 C343 93 275 23 183 23 C128 23 80 50 50 93 L20 72 C58 19 115 -15 183 -15 L183 -15 Z " />
<glyph glyph-name="K" unicode="K" horiz-adv-x="575" d="M555 0 L183 353 L535 700 L478 700 L140 360 L140 700 L100 700 L100 0 L140 0 L140 340 L497 0 L555 0 Z " />
<glyph glyph-name="L" unicode="L" horiz-adv-x="490" d="M140 38 L140 700 L100 700 L100 0 L470 0 L470 38 L140 38 Z " />
<glyph glyph-name="M" unicode="M" horiz-adv-x="890" d="M100 0 L140 0 L140 581 L440 0 L450 0 L750 581 L750 0 L790 0 L790 700 L768 700 L445 74 L122 700 L100 700 L100 0 Z " />
<glyph glyph-name="N" unicode="N" horiz-adv-x="740" d="M616 0 L640 0 L640 700 L600 700 L600 86 L123 700 L100 700 L100 0 L140 0 L140 614 L616 0 Z " />
<glyph glyph-name="O" unicode="O" horiz-adv-x="830" d="M415 -15 C620 -15 780 145 780 350 C780 555 620 715 415 715 C210 715 50 555 50 350 C50 145 210 -15 415 -15 L415 -15 Z M415 23 C232 23 90 166 90 350 C90 534 232 677 415 677 C598 677 740 534 740 350 C740 166 598 23 415 23 L415 23 Z " />
<glyph glyph-name="P" unicode="P" horiz-adv-x="500" d="M235 700 L100 700 L100 0 L140 0 L140 310 L235 310 C365 310 450 395 450 505 C450 615 365 700 235 700 L235 700 Z M235 348 L140 348 L140 662 L235 662 C343 662 410 593 410 505 C410 417 343 348 235 348 L235 348 Z " />
<glyph glyph-name="Q" unicode="Q" horiz-adv-x="830" d="M780 350 C780 555 620 715 415 715 C210 715 50 555 50 350 C50 152 200 -4 395 -14 L395 -200 L435 -200 L435 -14 C630 -4 780 152 780 350 L780 350 Z M435 24 L435 180 L395 180 L395 24 C222 34 90 173 90 350 C90 534 232 677 415 677 C598 677 740 534 740 350 C740 173 608 34 435 24 L435 24 Z " />
<glyph glyph-name="R" unicode="R" horiz-adv-x="530" d="M478 0 L530 0 L260 321 C377 329 450 408 450 510 C450 618 368 700 240 700 L100 700 L100 0 L140 0 L140 320 L210 320 L478 0 Z M140 662 L240 662 C346 662 410 596 410 510 C410 424 346 358 240 358 L140 358 L140 662 Z " />
<glyph glyph-name="S" unicode="S" horiz-adv-x="515" d="M265 -15 C388 -15 465 69 465 172 C465 283 367 335 275 381 C194 422 115 469 115 547 C115 622 176 677 272 677 C363 677 416 618 416 618 L445 646 C445 646 382 715 271 715 C152 715 75 644 75 547 C75 445 167 390 256 345 C342 302 425 259 425 172 C425 91 365 23 264 23 C145 23 84 132 84 132 L50 111 C50 111 121 -15 265 -15 L265 -15 Z " />
<glyph glyph-name="T" unicode="T" horiz-adv-x="490" d="M470 700 L20 700 L20 662 L225 662 L225 0 L265 0 L265 662 L470 662 L470 700 Z " />
<glyph glyph-name="U" unicode="U" horiz-adv-x="660" d="M330 -15 C468 -15 570 87 570 245 L570 700 L530 700 L530 245 C530 109 446 23 330 23 C214 23 130 109 130 245 L130 700 L90 700 L90 245 C90 87 192 -15 330 -15 L330 -15 Z " />
<glyph glyph-name="V" unicode="V" horiz-adv-x="590" d="M284 0 L306 0 L570 700 L527 700 L295 79 L63 700 L20 700 L284 0 Z " />
<glyph glyph-name="W" unicode="W" horiz-adv-x="1040" d="M977 700 L746 81 L530 700 L510 700 L295 81 L63 700 L20 700 L284 0 L306 0 L520 609 L734 0 L756 0 L1020 700 L977 700 Z " />
<glyph glyph-name="X" unicode="X" horiz-adv-x="600" d="M20 0 L70 0 L300 324 L530 0 L580 0 L325 357 L570 700 L520 700 L300 390 L80 700 L30 700 L275 357 L20 0 Z " />
<glyph glyph-name="Y" unicode="Y" horiz-adv-x="580" d="M270 0 L310 0 L310 360 L570 700 L520 700 L290 397 L60 700 L10 700 L270 360 L270 0 Z " />
<glyph glyph-name="Z" unicode="Z" horiz-adv-x="650" d="M50 0 L600 0 L600 38 L120 38 L600 690 L600 700 L50 700 L50 662 L530 662 L50 10 L50 0 Z " />
<glyph glyph-name="bracketleft" unicode="&#x5b;" horiz-adv-x="330" d="M270 662 L270 700 L100 700 L100 0 L270 0 L270 38 L140 38 L140 662 L270 662 Z " />
<glyph glyph-name="backslash" unicode="&#x5c;" horiz-adv-x="530" d="M510 -100 L60 800 L20 800 L470 -100 L510 -100 Z " />
<glyph glyph-name="bracketright" unicode="&#x5d;" horiz-adv-x="330" d="M230 700 L60 700 L60 662 L190 662 L190 38 L60 38 L60 0 L230 0 L230 700 Z " />
<glyph glyph-name="asciicircum" unicode="&#x5e;" horiz-adv-x="530" d="M470 350 L280 700 L250 700 L60 350 L105 350 L265 649 L425 350 L470 350 Z " />
<glyph glyph-name="underscore" unicode="&#x5f;" horiz-adv-x="530" d="M0 -68 L530 -68 L530 -30 L0 -30 L0 -68 Z " />
<glyph glyph-name="grave" unicode="&#x60;" horiz-adv-x="600" d="M140 560 L120 700 L80 700 L103 560 L140 560 Z " />
<glyph glyph-name="a" unicode="a" horiz-adv-x="560" d="M440 410 L440 321 C404 384 339 425 260 425 C138 425 40 327 40 205 C40 83 138 -15 260 -15 C339 -15 404 26 440 89 L440 0 L480 0 L480 410 L440 410 Z M260 23 C160 23 80 105 80 205 C80 305 160 387 260 387 C360 387 440 305 440 205 C440 105 360 23 260 23 L260 23 Z " />
<glyph glyph-name="b" unicode="b" horiz-adv-x="560" d="M300 425 C221 425 156 384 120 321 L120 740 L80 740 L80 0 L120 0 L120 89 C156 26 221 -15 300 -15 C422 -15 520 83 520 205 C520 327 422 425 300 425 L300 425 Z M300 23 C200 23 120 105 120 205 C120 305 200 387 300 387 C400 387 480 305 480 205 C480 105 400 23 300 23 L300 23 Z " />
<glyph glyph-name="c" unicode="c" horiz-adv-x="470" d="M260 -15 C337 -15 401 24 440 80 L408 102 C377 55 324 23 260 23 C160 23 80 105 80 205 C80 305 160 387 260 387 C320 387 368 359 402 317 L432 341 C391 390 332 425 260 425 C138 425 40 327 40 205 C40 83 138 -15 260 -15 L260 -15 Z " />
<glyph glyph-name="d" unicode="d" horiz-adv-x="560" d="M440 740 L440 321 C404 384 339 425 260 425 C138 425 40 327 40 205 C40 83 138 -15 260 -15 C339 -15 404 26 440 89 L440 0 L480 0 L480 740 L440 740 Z M260 23 C160 23 80 105 80 205 C80 305 160 387 260 387 C360 387 440 305 440 205 C440 105 360 23 260 23 L260 23 Z " />
<glyph glyph-name="e" unicode="e" horiz-adv-x="505" d="M465 215 C465 328 378 425 255 425 C133 425 40 327 40 205 C40 83 138 -15 260 -15 C348 -15 415 35 448 95 L415 112 C388 66 334 23 260 23 C160 23 80 105 80 205 L464 205 C464 205 465 209 465 215 L465 215 Z M255 387 C346 387 409 323 422 243 L84 243 C100 325 168 387 255 387 L255 387 Z " />
<glyph glyph-name="f" unicode="f" horiz-adv-x="340" d="M272 717 C313 717 340 698 340 698 L340 738 C340 738 317 755 272 755 C191 755 140 701 140 613 L140 410 L30 410 L30 372 L140 372 L140 0 L180 0 L180 372 L310 372 L310 410 L180 410 L180 613 C180 677 215 717 272 717 L272 717 Z " />
<glyph glyph-name="g" unicode="g" horiz-adv-x="560" d="M440 410 L440 321 C404 384 339 425 260 425 C138 425 40 327 40 205 C40 83 138 -15 260 -15 C339 -15 404 26 440 89 L440 -25 C440 -133 363 -197 265 -197 C171 -197 100 -143 100 -65 L60 -65 C60 -165 149 -235 265 -235 C385 -235 480 -155 480 -25 L480 410 L440 410 Z M260 23 C160 23 80 105 80 205 C80 305 160 387 260 387 C360 387 440 305 440 205 C440 105 360 23 260 23 L260 23 Z " />
<glyph glyph-name="h" unicode="h" horiz-adv-x="470" d="M263 425 C201 425 156 390 120 337 L120 740 L80 740 L80 0 L120 0 L120 275 C158 347 206 385 263 385 C319 385 360 352 360 280 L360 0 L400 0 L400 280 C400 374 341 425 263 425 L263 425 Z " />
<glyph glyph-name="i" unicode="i" horiz-adv-x="220" d="M110 565 C130 565 145 580 145 600 C145 620 130 635 110 635 C90 635 75 620 75 600 C75 580 90 565 110 565 L110 565 Z M90 0 L130 0 L130 410 L90 410 L90 0 Z " />
<glyph glyph-name="j" unicode="j" horiz-adv-x="220" d="M110 565 C130 565 145 580 145 600 C145 620 130 635 110 635 C90 635 75 620 75 600 C75 580 90 565 110 565 L110 565 Z M90 -220 L130 -220 L130 410 L90 410 L90 -220 Z " />
<glyph glyph-name="k" unicode="k" horiz-adv-x="370" d="M360 0 L161 211 L350 410 L297 410 L120 221 L120 740 L80 740 L80 0 L120 0 L120 199 L306 0 L360 0 Z " />
<glyph glyph-name="l" unicode="l" horiz-adv-x="220" d="M90 0 L130 0 L130 740 L90 740 L90 0 Z " />
<glyph glyph-name="m" unicode="m" horiz-adv-x="750" d="M543 425 C478 425 431 386 394 328 C377 391 326 425 263 425 C201 425 156 390 120 337 L120 410 L80 410 L80 0 L120 0 L120 275 C158 347 206 385 263 385 C319 385 360 352 360 280 L360 0 L400 0 L400 275 C438 347 486 385 543 385 C599 385 640 352 640 280 L640 0 L680 0 L680 280 C680 374 621 425 543 425 L543 425 Z " />
<glyph glyph-name="n" unicode="n" horiz-adv-x="470" d="M263 425 C201 425 156 390 120 337 L120 410 L80 410 L80 0 L120 0 L120 275 C158 347 206 385 263 385 C319 385 360 352 360 280 L360 0 L400 0 L400 280 C400 374 341 425 263 425 L263 425 Z " />
<glyph glyph-name="o" unicode="o" horiz-adv-x="520" d="M260 -15 C382 -15 480 83 480 205 C480 327 382 425 260 425 C138 425 40 327 40 205 C40 83 138 -15 260 -15 L260 -15 Z M260 23 C160 23 80 105 80 205 C80 305 160 387 260 387 C360 387 440 305 440 205 C440 105 360 23 260 23 L260 23 Z " />
<glyph glyph-name="p" unicode="p" horiz-adv-x="560" d="M300 425 C221 425 156 384 120 321 L120 410 L80 410 L80 -220 L120 -220 L120 89 C156 26 221 -15 300 -15 C422 -15 520 83 520 205 C520 327 422 425 300 425 L300 425 Z M300 23 C200 23 120 105 120 205 C120 305 200 387 300 387 C400 387 480 305 480 205 C480 105 400 23 300 23 L300 23 Z " />
<glyph glyph-name="q" unicode="q" horiz-adv-x="560" d="M440 410 L440 321 C404 384 339 425 260 425 C138 425 40 327 40 205 C40 83 138 -15 260 -15 C339 -15 404 26 440 89 L440 -220 L480 -220 L480 410 L440 410 Z M260 23 C160 23 80 105 80 205 C80 305 160 387 260 387 C360 387 440 305 440 205 C440 105 360 23 260 23 L260 23 Z " />
<glyph glyph-name="r" unicode="r" horiz-adv-x="335" d="M230 425 C183 425 149 400 120 350 L120 410 L80 410 L80 0 L120 0 L120 280 C155 360 190 387 230 387 C262 387 286 370 306 345 L335 370 C309 400 277 425 230 425 L230 425 Z " />
<glyph glyph-name="s" unicode="s" horiz-adv-x="341" d="M180 -15 C253 -15 301 39 301 103 C301 171 242 206 185 231 C134 252 100 277 100 319 C100 358 130 387 188 387 C239 387 273 349 273 349 L298 376 C298 376 258 425 182 425 C108 425 60 378 60 317 C60 254 114 220 169 196 C222 173 261 148 261 101 C261 59 235 23 182 23 C107 23 71 92 71 92 L40 71 C40 71 84 -15 180 -15 L180 -15 Z " />
<glyph glyph-name="t" unicode="t" horiz-adv-x="340" d="M310 410 L180 410 L180 630 L140 630 L140 410 L30 410 L30 372 L140 372 L140 0 L180 0 L180 372 L310 372 L310 410 Z " />
<glyph glyph-name="u" unicode="u" horiz-adv-x="460" d="M230 -15 C321 -15 390 50 390 145 L390 410 L350 410 L350 145 C350 72 299 25 230 25 C161 25 110 72 110 145 L110 410 L70 410 L70 145 C70 50 139 -15 230 -15 L230 -15 Z " />
<glyph glyph-name="v" unicode="v" horiz-adv-x="420" d="M196 0 L224 0 L410 410 L367 410 L210 60 L53 410 L10 410 L196 0 Z " />
<glyph glyph-name="w" unicode="w" horiz-adv-x="630" d="M577 410 L445 79 L327 410 L303 410 L185 79 L53 410 L10 410 L173 0 L197 0 L315 332 L433 0 L457 0 L620 410 L577 410 Z " />
<glyph glyph-name="x" unicode="x" horiz-adv-x="360" d="M10 0 L57 0 L180 177 L303 0 L350 0 L204 209 L345 410 L298 410 L180 240 L62 410 L15 410 L157 209 L10 0 Z " />
<glyph glyph-name="y" unicode="y" horiz-adv-x="420" d="M367 410 L210 60 L53 410 L10 410 L189 15 L81 -220 L124 -220 L410 410 L367 410 Z " />
<glyph glyph-name="z" unicode="z" horiz-adv-x="380" d="M30 0 L350 0 L350 38 L96 38 L350 400 L350 410 L30 410 L30 372 L284 372 L30 10 L30 0 Z " />
<glyph glyph-name="braceleft" unicode="&#x7b;" horiz-adv-x="330" d="M252 662 L270 662 L270 700 L252 700 C178 700 130 652 130 578 C130 508 140 471 140 421 C140 390 122 369 88 369 L60 369 L60 331 L88 331 C122 331 140 310 140 279 C140 229 130 192 130 122 C130 48 178 0 252 0 L270 0 L270 38 L252 38 C203 38 170 71 170 120 C170 192 180 231 180 283 C180 315 163 340 137 350 C163 360 180 385 180 417 C180 469 170 508 170 580 C170 629 203 662 252 662 L252 662 Z " />
<glyph glyph-name="bar" unicode="&#x7c;" horiz-adv-x="260" d="M110 -100 L150 -100 L150 800 L110 800 L110 -100 Z " />
<glyph glyph-name="braceright" unicode="&#x7d;" horiz-adv-x="330" d="M242 369 C208 369 190 390 190 421 C190 471 200 508 200 578 C200 652 152 700 78 700 L60 700 L60 662 L78 662 C127 662 160 629 160 580 C160 508 150 469 150 417 C150 385 167 360 193 350 C167 340 150 315 150 283 C150 231 160 192 160 120 C160 71 127 38 78 38 L60 38 L60 0 L78 0 C152 0 200 48 200 122 C200 192 190 229 190 279 C190 310 208 331 242 331 L270 331 L270 369 L242 369 Z " />
<glyph glyph-name="asciitilde" unicode="&#x7e;" horiz-adv-x="530" d="M80 283 C80 283 108 311 160 311 C245 311 290 271 370 271 C422 271 450 301 450 301 L450 337 C450 337 422 309 370 309 C285 309 240 349 160 349 C108 349 80 319 80 319 L80 283 Z " />
<glyph glyph-name="exclamdown" unicode="&#xa1;" horiz-adv-x="230" d="M115 485 C95 485 80 470 80 450 C80 430 95 415 115 415 C135 415 150 430 150 450 C150 470 135 485 115 485 L115 485 Z M100 280 L95 -220 L135 -220 L130 280 L100 280 Z " />
<glyph glyph-name="cent" unicode="&#xa2;" horiz-adv-x="530" d="M465 370 L433 392 C404 348 356 317 298 313 L298 677 C352 673 395 646 427 607 L457 631 C418 677 364 711 298 715 L298 800 L262 800 L262 714 C151 702 65 609 65 495 C65 381 151 288 262 276 L262 190 L298 190 L298 275 C369 279 428 317 465 370 L465 370 Z M105 495 C105 587 173 664 262 676 L262 314 C173 326 105 403 105 495 L105 495 Z " />
<glyph glyph-name="sterling" unicode="&#xa3;" horiz-adv-x="530" d="M240 192 C240 244 228 285 213 321 L390 321 L390 359 L195 359 C168 412 140 460 140 532 C140 612 197 677 294 677 C406 677 435 587 435 587 L470 599 C470 599 431 715 293 715 C173 715 100 634 100 532 C100 460 126 410 151 359 L50 359 L50 321 L169 321 C186 282 200 241 200 187 C200 92 145 27 80 23 L80 0 L460 0 L460 38 L177 38 C216 70 240 125 240 192 L240 192 Z " />
<glyph glyph-name="currency" unicode="&#xa4;" horiz-adv-x="530" d="M428 498 L485 555 L460 580 L402 522 C365 552 317 570 265 570 C213 570 165 552 128 522 L70 580 L45 555 L102 498 C67 459 45 407 45 350 C45 298 63 250 93 213 L45 165 L70 140 L117 187 C156 152 208 130 265 130 C322 130 374 152 413 187 L460 140 L485 165 L437 213 C467 250 485 298 485 350 C485 407 463 459 428 498 L428 498 Z M265 168 C165 168 85 250 85 350 C85 450 165 532 265 532 C365 532 445 450 445 350 C445 250 365 168 265 168 L265 168 Z " />
<glyph glyph-name="yen" unicode="&#xa5;" horiz-adv-x="530" d="M285 360 L510 700 L460 700 L265 402 L70 700 L20 700 L245 360 L245 339 L20 339 L20 301 L245 301 L245 219 L20 219 L20 181 L245 181 L245 0 L285 0 L285 181 L510 181 L510 219 L285 219 L285 301 L510 301 L510 339 L285 339 L285 360 Z " />
<glyph glyph-name="brokenbar" unicode="&#xa6;" horiz-adv-x="260" d="M110 500 L150 500 L150 800 L110 800 L110 500 Z M110 -100 L150 -100 L150 200 L110 200 L110 -100 Z " />
<glyph glyph-name="section" unicode="&#xa7;" horiz-adv-x="485" d="M425 336 C425 414 362 464 279 486 C209 505 140 532 140 596 C140 647 187 677 254 677 C331 677 366 613 366 613 L398 632 C398 632 353 715 253 715 C160 715 100 663 100 596 C100 549 127 516 164 492 C97 473 60 423 60 364 C60 286 123 236 206 214 C276 195 345 168 345 104 C345 53 298 23 231 23 C154 23 119 87 119 87 L87 68 C87 68 132 -15 232 -15 C325 -15 385 37 385 104 C385 151 358 184 321 208 C388 227 425 277 425 336 L425 336 Z M280 229 C263 237 245 243 227 248 C150 270 100 304 100 364 C100 417 138 462 205 471 C222 463 240 457 258 452 C335 430 385 396 385 336 C385 283 347 238 280 229 L280 229 Z " />
<glyph glyph-name="dieresis" unicode="&#xa8;" horiz-adv-x="600" d="M115 595 C135 595 150 610 150 630 C150 650 135 665 115 665 C95 665 80 650 80 630 C80 610 95 595 115 595 L115 595 Z M265 595 C285 595 300 610 300 630 C300 650 285 665 265 665 C245 665 230 650 230 630 C230 610 245 595 265 595 L265 595 Z " />
<glyph glyph-name="copyright" unicode="&#xa9;" horiz-adv-x="830" d="M415 -15 C620 -15 780 145 780 350 C780 555 620 715 415 715 C210 715 50 555 50 350 C50 145 210 -15 415 -15 L415 -15 Z M415 23 C232 23 90 166 90 350 C90 534 232 677 415 677 C598 677 740 534 740 350 C740 166 598 23 415 23 L415 23 Z M420 130 C497 130 561 169 600 225 L568 247 C537 200 484 168 420 168 C320 168 240 250 240 350 C240 450 320 532 420 532 C480 532 528 504 562 462 L592 486 C551 535 492 570 420 570 C298 570 200 472 200 350 C200 228 298 130 420 130 L420 130 Z " />
<glyph glyph-name="ordfeminine" unicode="&#xaa;" horiz-adv-x="311" d="M236 700 L234 661 C218 689 189 707 151 707 C89 707 40 657 40 593 C40 528 89 478 151 478 C189 478 218 496 234 524 L236 485 L271 485 L271 700 L236 700 Z M156 513 C112 513 77 549 77 593 C77 636 112 672 156 672 C200 672 234 636 234 593 C234 549 200 513 156 513 L156 513 Z " />
<glyph glyph-name="guillemotleft" unicode="&#xab;" horiz-adv-x="690" d="M330 175 L330 213 L128 350 L330 487 L330 525 L80 355 L80 345 L330 175 Z M610 175 L610 213 L408 350 L610 487 L610 525 L360 355 L360 345 L610 175 Z " />
<glyph glyph-name="logicalnot" unicode="&#xac;" horiz-adv-x="530" d="M80 290 L410 290 L410 200 L450 200 L450 328 L80 328 L80 290 Z " />
<glyph glyph-name="registered" unicode="&#xae;" horiz-adv-x="420" d="M210 723 C125 723 60 658 60 573 C60 488 125 423 210 423 C295 423 360 488 360 573 C360 658 295 723 210 723 L210 723 Z M210 456 C145 456 94 508 94 573 C94 638 145 690 210 690 C275 690 326 638 326 573 C326 508 275 456 210 456 L210 456 Z M261 601 C261 624 244 644 214 644 L163 644 L163 500 L195 500 L195 559 L204 559 L239 500 L277 500 L236 563 C252 570 261 585 261 601 L261 601 Z M195 616 L212 616 C223 616 230 609 230 599 C230 589 223 582 212 582 L195 582 L195 616 Z " />
<glyph glyph-name="macron" unicode="&#xaf;" horiz-adv-x="600" d="M60 631 L275 631 L275 669 L60 669 L60 631 Z " />
<glyph glyph-name="degree" unicode="&#xb0;" horiz-adv-x="460" d="M230 375 C326 375 400 449 400 545 C400 641 326 715 230 715 C134 715 60 641 60 545 C60 449 134 375 230 375 L230 375 Z M230 413 C159 413 100 471 100 545 C100 619 159 677 230 677 C301 677 360 619 360 545 C360 471 301 413 230 413 L230 413 Z " />
<glyph glyph-name="plusminus" unicode="&#xb1;" horiz-adv-x="530" d="M285 448 L285 614 L245 614 L245 448 L80 448 L80 410 L245 410 L245 244 L285 244 L285 410 L450 410 L450 448 L285 448 Z M80 110 L450 110 L450 148 L80 148 L80 110 Z " />
<glyph glyph-name="uni00B2" unicode="&#xb2;" horiz-adv-x="326" d="M60 347 L263 347 L263 382 L120 382 L224 515 C248 546 266 576 266 611 C266 666 224 707 166 707 C112 707 73 671 61 621 L95 610 C104 648 129 672 165 672 C202 672 227 645 227 609 C227 584 216 562 195 534 L60 362 L60 347 Z " />
<glyph glyph-name="uni00B3" unicode="&#xb3;" horiz-adv-x="326" d="M206 530 C241 546 260 578 260 613 C260 667 218 707 159 707 C119 707 86 687 68 659 L94 638 C109 659 130 672 156 672 C194 672 221 645 221 611 C221 575 198 543 138 543 L121 543 L121 516 L138 516 C201 516 228 482 228 443 C228 405 197 375 157 375 C126 375 102 392 87 416 L60 397 C78 362 114 340 159 340 C222 340 266 382 266 440 C266 480 245 513 206 530 L206 530 Z " />
<glyph glyph-name="acute" unicode="&#xb4;" horiz-adv-x="600" d="M80 560 L117 560 L140 700 L100 700 L80 560 Z " />
<glyph glyph-name="uni00B5" unicode="&#xb5;" horiz-adv-x="470" d="M360 410 L360 145 C360 72 309 25 240 25 C171 25 120 72 120 145 L120 410 L80 410 L80 -220 L120 -220 L120 43 C146 6 188 -15 240 -15 C331 -15 400 50 400 145 L400 410 L360 410 Z " />
<glyph glyph-name="paragraph" unicode="&#xb6;" horiz-adv-x="600" d="M50 525 C50 425 125 350 245 350 L270 350 L270 0 L310 0 L310 662 L460 662 L460 0 L500 0 L500 700 L245 700 C125 700 50 625 50 525 L50 525 Z " />
<glyph glyph-name="periodcentered" unicode="&#xb7;" horiz-adv-x="230" d="M115 315 C135 315 150 330 150 350 C150 370 135 385 115 385 C95 385 80 370 80 350 C80 330 95 315 115 315 L115 315 Z " />
<glyph glyph-name="cedilla" unicode="&#xb8;" horiz-adv-x="600" d="M175 -57 C172 -57 170 -57 167 -58 L195 0 L159 0 L115 -92 L138 -103 C138 -103 155 -91 174 -91 C202 -91 227 -107 227 -135 C227 -166 199 -184 165 -184 C124 -184 99 -161 99 -161 L80 -190 C80 -190 114 -220 165 -220 C227 -220 265 -178 265 -135 C265 -95 232 -57 175 -57 L175 -57 Z " />
<glyph glyph-name="uni00B9" unicode="&#xb9;" horiz-adv-x="213" d="M104 347 L143 347 L143 700 L50 700 L50 665 L104 665 L104 347 Z " />
<glyph glyph-name="ordmasculine" unicode="&#xba;" horiz-adv-x="311" d="M156 477 C220 477 271 527 271 592 C271 656 220 707 156 707 C91 707 40 656 40 592 C40 527 91 477 156 477 L156 477 Z M156 512 C112 512 77 548 77 592 C77 635 112 671 156 671 C200 671 234 635 234 592 C234 548 200 512 156 512 L156 512 Z " />
<glyph glyph-name="guillemotright" unicode="&#xbb;" horiz-adv-x="690" d="M80 175 L330 345 L330 355 L80 525 L80 487 L282 350 L80 213 L80 175 Z M360 175 L610 345 L610 355 L360 525 L360 487 L562 350 L360 213 L360 175 Z " />
<glyph glyph-name="onequarter" unicode="&#xbc;" horiz-adv-x="695" d="M104 347 L143 347 L143 700 L50 700 L50 665 L104 665 L104 347 Z M440 700 L63 0 L106 0 L483 700 L440 700 Z M635 141 L579 141 L579 353 L539 353 L393 128 L393 108 L542 108 L542 0 L579 0 L579 108 L635 108 L635 141 Z M438 141 L542 304 L542 141 L438 141 Z " />
<glyph glyph-name="onehalf" unicode="&#xbd;" horiz-adv-x="659" d="M104 347 L143 347 L143 700 L50 700 L50 665 L104 665 L104 347 Z M63 0 L106 0 L483 700 L440 700 L63 0 Z M393 0 L596 0 L596 35 L453 35 L557 168 C581 199 599 229 599 264 C599 319 557 360 499 360 C445 360 406 324 394 274 L428 263 C437 301 462 325 498 325 C535 325 560 298 560 262 C560 237 549 215 528 187 L393 15 L393 0 Z " />
<glyph glyph-name="threequarters" unicode="&#xbe;" horiz-adv-x="808" d="M266 440 C266 480 245 513 206 530 C241 546 260 578 260 613 C260 667 218 707 159 707 C119 707 86 687 68 659 L94 638 C109 659 130 672 156 672 C194 672 221 645 221 611 C221 575 198 543 138 543 L121 543 L121 516 L138 516 C201 516 228 482 228 443 C228 405 197 375 157 375 C126 375 102 392 87 416 L60 397 C78 362 114 340 159 340 C222 340 266 382 266 440 L266 440 Z M553 700 L176 0 L219 0 L596 700 L553 700 Z M748 141 L692 141 L692 353 L652 353 L506 128 L506 108 L655 108 L655 0 L692 0 L692 108 L748 108 L748 141 Z M551 141 L655 304 L655 141 L551 141 Z " />
<glyph glyph-name="questiondown" unicode="&#xbf;" horiz-adv-x="485" d="M290 485 C270 485 255 470 255 450 C255 430 270 415 290 415 C310 415 325 430 325 450 C325 470 310 485 290 485 L290 485 Z M262 280 L217 280 L117 110 C80 47 50 -7 50 -65 C50 -161 119 -235 237 -235 C372 -235 435 -152 435 -50 L395 -50 C395 -141 329 -197 237 -197 C149 -197 90 -139 90 -67 C90 -18 114 27 153 93 L262 280 Z " />
<glyph glyph-name="Agrave" unicode="&#xc0;" horiz-adv-x="740" d="M388 770 L368 910 L328 910 L351 770 L388 770 Z M676 0 L720 0 L384 700 L356 700 L20 0 L64 0 L207 299 L533 299 L676 0 Z M225 337 L370 642 L515 337 L225 337 Z " />
<glyph glyph-name="Aacute" unicode="&#xc1;" horiz-adv-x="740" d="M412 910 L372 910 L352 770 L389 770 L412 910 Z M676 0 L720 0 L384 700 L356 700 L20 0 L64 0 L207 299 L533 299 L676 0 Z M225 337 L370 642 L515 337 L225 337 Z " />
<glyph glyph-name="Acircumflex" unicode="&#xc2;" horiz-adv-x="740" d="M370 878 L440 770 L477 770 L392 910 L347 910 L262 770 L299 770 L370 878 Z M676 0 L720 0 L384 700 L356 700 L20 0 L64 0 L207 299 L533 299 L676 0 Z M225 337 L370 642 L515 337 L225 337 Z " />
<glyph glyph-name="Atilde" unicode="&#xc3;" horiz-adv-x="740" d="M308 855 C357 855 381 829 430 829 C460 829 477 849 477 849 L477 885 C477 885 460 866 430 866 C381 866 357 892 308 892 C278 892 262 872 262 872 L262 836 C262 836 278 855 308 855 L308 855 Z M676 0 L720 0 L384 700 L356 700 L20 0 L64 0 L207 299 L533 299 L676 0 Z M225 337 L370 642 L515 337 L225 337 Z " />
<glyph glyph-name="Adieresis" unicode="&#xc4;" horiz-adv-x="740" d="M295 805 C315 805 330 820 330 840 C330 860 315 875 295 875 C275 875 260 860 260 840 C260 820 275 805 295 805 L295 805 Z M445 805 C465 805 480 820 480 840 C480 860 465 875 445 875 C425 875 410 860 410 840 C410 820 425 805 445 805 L445 805 Z M676 0 L720 0 L384 700 L356 700 L20 0 L64 0 L207 299 L533 299 L676 0 Z M225 337 L370 642 L515 337 L225 337 Z " />
<glyph glyph-name="Aring" unicode="&#xc5;" horiz-adv-x="740" d="M370 715 C426 715 470 759 470 815 C470 871 426 915 370 915 C314 915 270 871 270 815 C270 759 314 715 370 715 L370 715 Z M370 880 C406 880 435 851 435 815 C435 779 406 750 370 750 C334 750 305 779 305 815 C305 851 334 880 370 880 L370 880 Z M676 0 L720 0 L384 700 L356 700 L20 0 L64 0 L207 299 L533 299 L676 0 Z M225 337 L370 642 L515 337 L225 337 Z " />
<glyph glyph-name="AE" unicode="&#xc6;" horiz-adv-x="940" d="M702 38 L552 351 L885 351 L885 389 L533 389 L402 662 L860 662 L860 700 L356 700 L20 0 L64 0 L207 299 L533 299 L676 0 L890 0 L890 38 L702 38 Z M225 337 L370 642 L515 337 L225 337 Z " />
<glyph glyph-name="Ccedilla" unicode="&#xc7;" horiz-adv-x="775" d="M725 162 L691 182 C637 86 536 23 415 23 C232 23 90 166 90 350 C90 534 232 677 415 677 C526 677 619 624 675 542 L707 565 C644 656 539 715 415 715 C210 715 50 555 50 350 C50 153 198 -2 391 -14 L354 -92 L377 -103 C377 -103 394 -91 413 -91 C441 -91 466 -107 466 -135 C466 -166 438 -184 404 -184 C363 -184 338 -161 338 -161 L319 -190 C319 -190 353 -220 404 -220 C466 -220 504 -178 504 -135 C504 -95 471 -57 414 -57 C411 -57 409 -57 406 -58 L427 -15 C558 -11 666 58 725 162 L725 162 Z " />
<glyph glyph-name="Egrave" unicode="&#xc8;" horiz-adv-x="520" d="M288 770 L268 910 L228 910 L251 770 L288 770 Z M140 38 L140 351 L465 351 L465 389 L140 389 L140 662 L440 662 L440 700 L100 700 L100 0 L470 0 L470 38 L140 38 Z " />
<glyph glyph-name="Eacute" unicode="&#xc9;" horiz-adv-x="520" d="M312 910 L272 910 L252 770 L289 770 L312 910 Z M140 38 L140 351 L465 351 L465 389 L140 389 L140 662 L440 662 L440 700 L100 700 L100 0 L470 0 L470 38 L140 38 Z " />
<glyph glyph-name="Ecircumflex" unicode="&#xca;" horiz-adv-x="520" d="M270 878 L340 770 L377 770 L292 910 L247 910 L162 770 L199 770 L270 878 Z M140 38 L140 351 L465 351 L465 389 L140 389 L140 662 L440 662 L440 700 L100 700 L100 0 L470 0 L470 38 L140 38 Z " />
<glyph glyph-name="Edieresis" unicode="&#xcb;" horiz-adv-x="520" d="M195 805 C215 805 230 820 230 840 C230 860 215 875 195 875 C175 875 160 860 160 840 C160 820 175 805 195 805 L195 805 Z M345 805 C365 805 380 820 380 840 C380 860 365 875 345 875 C325 875 310 860 310 840 C310 820 325 805 345 805 L345 805 Z M140 38 L140 351 L465 351 L465 389 L140 389 L140 662 L440 662 L440 700 L100 700 L100 0 L470 0 L470 38 L140 38 Z " />
<glyph glyph-name="Igrave" unicode="&#xcc;" horiz-adv-x="260" d="M148 770 L128 910 L88 910 L111 770 L148 770 Z M110 0 L150 0 L150 700 L110 700 L110 0 Z " />
<glyph glyph-name="Iacute" unicode="&#xcd;" horiz-adv-x="260" d="M112 770 L149 770 L172 910 L132 910 L112 770 Z M110 0 L150 0 L150 700 L110 700 L110 0 Z " />
<glyph glyph-name="Icircumflex" unicode="&#xce;" horiz-adv-x="260" d="M22 770 L59 770 L130 878 L200 770 L237 770 L152 910 L107 910 L22 770 Z M110 0 L150 0 L150 700 L110 700 L110 0 Z " />
<glyph glyph-name="Idieresis" unicode="&#xcf;" horiz-adv-x="260" d="M55 805 C75 805 90 820 90 840 C90 860 75 875 55 875 C35 875 20 860 20 840 C20 820 35 805 55 805 L55 805 Z M205 805 C225 805 240 820 240 840 C240 860 225 875 205 875 C185 875 170 860 170 840 C170 820 185 805 205 805 L205 805 Z M110 0 L150 0 L150 700 L110 700 L110 0 Z " />
<glyph glyph-name="Eth" unicode="&#xd0;" horiz-adv-x="640" d="M240 700 L100 700 L100 374 L0 374 L0 336 L100 336 L100 0 L240 0 C468 0 590 150 590 350 C590 550 468 700 240 700 L240 700 Z M240 38 L140 38 L140 336 L340 336 L340 374 L140 374 L140 662 L240 662 C446 662 550 529 550 350 C550 171 446 38 240 38 L240 38 Z " />
<glyph glyph-name="Ntilde" unicode="&#xd1;" horiz-adv-x="740" d="M262 836 C262 836 278 855 308 855 C357 855 381 829 430 829 C460 829 477 849 477 849 L477 885 C477 885 460 866 430 866 C381 866 357 892 308 892 C278 892 262 872 262 872 L262 836 Z M616 0 L640 0 L640 700 L600 700 L600 86 L123 700 L100 700 L100 0 L140 0 L140 614 L616 0 Z " />
<glyph glyph-name="Ograve" unicode="&#xd2;" horiz-adv-x="830" d="M433 770 L413 910 L373 910 L396 770 L433 770 Z M415 -15 C620 -15 780 145 780 350 C780 555 620 715 415 715 C210 715 50 555 50 350 C50 145 210 -15 415 -15 L415 -15 Z M415 23 C232 23 90 166 90 350 C90 534 232 677 415 677 C598 677 740 534 740 350 C740 166 598 23 415 23 L415 23 Z " />
<glyph glyph-name="Oacute" unicode="&#xd3;" horiz-adv-x="830" d="M397 770 L434 770 L457 910 L417 910 L397 770 Z M415 -15 C620 -15 780 145 780 350 C780 555 620 715 415 715 C210 715 50 555 50 350 C50 145 210 -15 415 -15 L415 -15 Z M415 23 C232 23 90 166 90 350 C90 534 232 677 415 677 C598 677 740 534 740 350 C740 166 598 23 415 23 L415 23 Z " />
<glyph glyph-name="Ocircumflex" unicode="&#xd4;" horiz-adv-x="830" d="M307 770 L344 770 L415 878 L485 770 L522 770 L437 910 L392 910 L307 770 Z M415 -15 C620 -15 780 145 780 350 C780 555 620 715 415 715 C210 715 50 555 50 350 C50 145 210 -15 415 -15 L415 -15 Z M415 23 C232 23 90 166 90 350 C90 534 232 677 415 677 C598 677 740 534 740 350 C740 166 598 23 415 23 L415 23 Z " />
<glyph glyph-name="Otilde" unicode="&#xd5;" horiz-adv-x="830" d="M307 836 C307 836 323 855 353 855 C402 855 426 829 475 829 C505 829 522 849 522 849 L522 885 C522 885 505 866 475 866 C426 866 402 892 353 892 C323 892 307 872 307 872 L307 836 Z M415 -15 C620 -15 780 145 780 350 C780 555 620 715 415 715 C210 715 50 555 50 350 C50 145 210 -15 415 -15 L415 -15 Z M415 23 C232 23 90 166 90 350 C90 534 232 677 415 677 C598 677 740 534 740 350 C740 166 598 23 415 23 L415 23 Z " />
<glyph glyph-name="Odieresis" unicode="&#xd6;" horiz-adv-x="830" d="M340 805 C360 805 375 820 375 840 C375 860 360 875 340 875 C320 875 305 860 305 840 C305 820 320 805 340 805 L340 805 Z M490 805 C510 805 525 820 525 840 C525 860 510 875 490 875 C470 875 455 860 455 840 C455 820 470 805 490 805 L490 805 Z M415 -15 C620 -15 780 145 780 350 C780 555 620 715 415 715 C210 715 50 555 50 350 C50 145 210 -15 415 -15 L415 -15 Z M415 23 C232 23 90 166 90 350 C90 534 232 677 415 677 C598 677 740 534 740 350 C740 166 598 23 415 23 L415 23 Z " />
<glyph glyph-name="multiply" unicode="&#xd7;" horiz-adv-x="530" d="M430 446 L402 474 L265 337 L128 474 L100 446 L237 309 L100 172 L128 144 L265 281 L402 144 L430 172 L293 309 L430 446 Z " />
<glyph glyph-name="Oslash" unicode="&#xd8;" horiz-adv-x="830" d="M780 700 L733 700 L659 624 C595 681 510 715 415 715 C210 715 50 555 50 350 C50 252 87 164 147 99 L50 0 L97 0 L171 76 C235 19 320 -15 415 -15 C620 -15 780 145 780 350 C780 448 743 536 683 601 L780 700 Z M90 350 C90 534 232 677 415 677 C499 677 575 647 632 596 L174 127 C122 185 90 263 90 350 L90 350 Z M740 350 C740 166 598 23 415 23 C331 23 255 53 198 104 L656 573 C708 515 740 437 740 350 L740 350 Z " />
<glyph glyph-name="Ugrave" unicode="&#xd9;" horiz-adv-x="660" d="M348 770 L328 910 L288 910 L311 770 L348 770 Z M330 -15 C468 -15 570 87 570 245 L570 700 L530 700 L530 245 C530 109 446 23 330 23 C214 23 130 109 130 245 L130 700 L90 700 L90 245 C90 87 192 -15 330 -15 L330 -15 Z " />
<glyph glyph-name="Uacute" unicode="&#xda;" horiz-adv-x="660" d="M312 770 L349 770 L372 910 L332 910 L312 770 Z M330 -15 C468 -15 570 87 570 245 L570 700 L530 700 L530 245 C530 109 446 23 330 23 C214 23 130 109 130 245 L130 700 L90 700 L90 245 C90 87 192 -15 330 -15 L330 -15 Z " />
<glyph glyph-name="Ucircumflex" unicode="&#xdb;" horiz-adv-x="660" d="M222 770 L259 770 L330 878 L400 770 L437 770 L352 910 L307 910 L222 770 Z M330 -15 C468 -15 570 87 570 245 L570 700 L530 700 L530 245 C530 109 446 23 330 23 C214 23 130 109 130 245 L130 700 L90 700 L90 245 C90 87 192 -15 330 -15 L330 -15 Z " />
<glyph glyph-name="Udieresis" unicode="&#xdc;" horiz-adv-x="660" d="M255 805 C275 805 290 820 290 840 C290 860 275 875 255 875 C235 875 220 860 220 840 C220 820 235 805 255 805 L255 805 Z M405 805 C425 805 440 820 440 840 C440 860 425 875 405 875 C385 875 370 860 370 840 C370 820 385 805 405 805 L405 805 Z M330 -15 C468 -15 570 87 570 245 L570 700 L530 700 L530 245 C530 109 446 23 330 23 C214 23 130 109 130 245 L130 700 L90 700 L90 245 C90 87 192 -15 330 -15 L330 -15 Z " />
<glyph glyph-name="Yacute" unicode="&#xdd;" horiz-adv-x="580" d="M272 770 L309 770 L332 910 L292 910 L272 770 Z M270 0 L310 0 L310 360 L570 700 L520 700 L290 397 L60 700 L10 700 L270 360 L270 0 Z " />
<glyph glyph-name="Thorn" unicode="&#xde;" horiz-adv-x="500" d="M235 555 L140 555 L140 700 L100 700 L100 0 L140 0 L140 165 L235 165 C365 165 450 250 450 360 C450 470 365 555 235 555 L235 555 Z M235 203 L140 203 L140 517 L235 517 C343 517 410 448 410 360 C410 272 343 203 235 203 L235 203 Z " />
<glyph glyph-name="germandbls" unicode="&#xdf;" horiz-adv-x="540" d="M432 602 C432 672 375 755 260 755 C145 755 80 675 80 565 L80 0 L120 0 L120 565 C120 659 178 717 260 717 C342 717 392 657 392 600 C392 515 297 480 297 385 C297 280 460 250 460 135 C460 67 413 23 343 23 C283 23 238 54 238 54 L220 21 C220 21 270 -15 343 -15 C433 -15 500 47 500 135 C500 274 335 300 335 390 C335 465 432 502 432 602 L432 602 Z " />
<glyph glyph-name="agrave" unicode="&#xe0;" horiz-adv-x="560" d="M298 530 L278 670 L238 670 L261 530 L298 530 Z M440 410 L440 321 C404 384 339 425 260 425 C138 425 40 327 40 205 C40 83 138 -15 260 -15 C339 -15 404 26 440 89 L440 0 L480 0 L480 410 L440 410 Z M260 23 C160 23 80 105 80 205 C80 305 160 387 260 387 C360 387 440 305 440 205 C440 105 360 23 260 23 L260 23 Z " />
<glyph glyph-name="aacute" unicode="&#xe1;" horiz-adv-x="560" d="M322 670 L282 670 L262 530 L299 530 L322 670 Z M440 410 L440 321 C404 384 339 425 260 425 C138 425 40 327 40 205 C40 83 138 -15 260 -15 C339 -15 404 26 440 89 L440 0 L480 0 L480 410 L440 410 Z M260 23 C160 23 80 105 80 205 C80 305 160 387 260 387 C360 387 440 305 440 205 C440 105 360 23 260 23 L260 23 Z " />
<glyph glyph-name="acircumflex" unicode="&#xe2;" horiz-adv-x="560" d="M280 638 L350 530 L387 530 L302 670 L257 670 L172 530 L209 530 L280 638 Z M440 410 L440 321 C404 384 339 425 260 425 C138 425 40 327 40 205 C40 83 138 -15 260 -15 C339 -15 404 26 440 89 L440 0 L480 0 L480 410 L440 410 Z M260 23 C160 23 80 105 80 205 C80 305 160 387 260 387 C360 387 440 305 440 205 C440 105 360 23 260 23 L260 23 Z " />
<glyph glyph-name="atilde" unicode="&#xe3;" horiz-adv-x="560" d="M218 615 C267 615 291 589 340 589 C370 589 387 609 387 609 L387 645 C387 645 370 626 340 626 C291 626 267 652 218 652 C188 652 172 632 172 632 L172 596 C172 596 188 615 218 615 L218 615 Z M440 410 L440 321 C404 384 339 425 260 425 C138 425 40 327 40 205 C40 83 138 -15 260 -15 C339 -15 404 26 440 89 L440 0 L480 0 L480 410 L440 410 Z M260 23 C160 23 80 105 80 205 C80 305 160 387 260 387 C360 387 440 305 440 205 C440 105 360 23 260 23 L260 23 Z " />
<glyph glyph-name="adieresis" unicode="&#xe4;" horiz-adv-x="560" d="M205 565 C225 565 240 580 240 600 C240 620 225 635 205 635 C185 635 170 620 170 600 C170 580 185 565 205 565 L205 565 Z M355 565 C375 565 390 580 390 600 C390 620 375 635 355 635 C335 635 320 620 320 600 C320 580 335 565 355 565 L355 565 Z M440 410 L440 321 C404 384 339 425 260 425 C138 425 40 327 40 205 C40 83 138 -15 260 -15 C339 -15 404 26 440 89 L440 0 L480 0 L480 410 L440 410 Z M260 23 C160 23 80 105 80 205 C80 305 160 387 260 387 C360 387 440 305 440 205 C440 105 360 23 260 23 L260 23 Z " />
<glyph glyph-name="aring" unicode="&#xe5;" horiz-adv-x="560" d="M280 475 C336 475 380 519 380 575 C380 631 336 675 280 675 C224 675 180 631 180 575 C180 519 224 475 280 475 L280 475 Z M280 640 C316 640 345 611 345 575 C345 539 316 510 280 510 C244 510 215 539 215 575 C215 611 244 640 280 640 L280 640 Z M440 410 L440 321 C404 384 339 425 260 425 C138 425 40 327 40 205 C40 83 138 -15 260 -15 C339 -15 404 26 440 89 L440 0 L480 0 L480 410 L440 410 Z M260 23 C160 23 80 105 80 205 C80 305 160 387 260 387 C360 387 440 305 440 205 C440 105 360 23 260 23 L260 23 Z " />
<glyph glyph-name="ae" unicode="&#xe6;" horiz-adv-x="905" d="M865 215 C865 328 778 425 655 425 C576 425 514 384 480 321 L480 410 L440 410 L440 321 C404 384 339 425 260 425 C138 425 40 327 40 205 C40 83 138 -15 260 -15 C339 -15 404 26 440 89 L440 0 L480 0 L480 92 C515 28 580 -15 660 -15 C748 -15 815 35 848 95 L815 112 C788 66 734 23 660 23 C560 23 480 105 480 205 L864 205 C864 205 865 209 865 215 L865 215 Z M260 23 C160 23 80 105 80 205 C80 305 160 387 260 387 C360 387 440 305 440 205 C440 105 360 23 260 23 L260 23 Z M655 387 C746 387 809 323 822 243 L484 243 C500 325 568 387 655 387 L655 387 Z " />
<glyph glyph-name="ccedilla" unicode="&#xe7;" horiz-adv-x="470" d="M440 80 L408 102 C377 55 324 23 260 23 C160 23 80 105 80 205 C80 305 160 387 260 387 C320 387 368 359 402 317 L432 341 C391 390 332 425 260 425 C138 425 40 327 40 205 C40 91 126 -2 236 -14 L199 -92 L222 -103 C222 -103 239 -91 258 -91 C286 -91 311 -107 311 -135 C311 -166 283 -184 249 -184 C208 -184 183 -161 183 -161 L164 -190 C164 -190 198 -220 249 -220 C311 -220 349 -178 349 -135 C349 -95 316 -57 259 -57 C256 -57 254 -57 251 -58 L272 -15 C344 -11 403 27 440 80 L440 80 Z " />
<glyph glyph-name="egrave" unicode="&#xe8;" horiz-adv-x="505" d="M273 530 L253 670 L213 670 L236 530 L273 530 Z M465 215 C465 328 378 425 255 425 C133 425 40 327 40 205 C40 83 138 -15 260 -15 C348 -15 415 35 448 95 L415 112 C388 66 334 23 260 23 C160 23 80 105 80 205 L464 205 C464 205 465 209 465 215 L465 215 Z M255 387 C346 387 409 323 422 243 L84 243 C100 325 168 387 255 387 L255 387 Z " />
<glyph glyph-name="eacute" unicode="&#xe9;" horiz-adv-x="505" d="M297 670 L257 670 L237 530 L274 530 L297 670 Z M465 215 C465 328 378 425 255 425 C133 425 40 327 40 205 C40 83 138 -15 260 -15 C348 -15 415 35 448 95 L415 112 C388 66 334 23 260 23 C160 23 80 105 80 205 L464 205 C464 205 465 209 465 215 L465 215 Z M255 387 C346 387 409 323 422 243 L84 243 C100 325 168 387 255 387 L255 387 Z " />
<glyph glyph-name="ecircumflex" unicode="&#xea;" horiz-adv-x="505" d="M255 638 L325 530 L362 530 L277 670 L232 670 L147 530 L184 530 L255 638 Z M465 215 C465 328 378 425 255 425 C133 425 40 327 40 205 C40 83 138 -15 260 -15 C348 -15 415 35 448 95 L415 112 C388 66 334 23 260 23 C160 23 80 105 80 205 L464 205 C464 205 465 209 465 215 L465 215 Z M255 387 C346 387 409 323 422 243 L84 243 C100 325 168 387 255 387 L255 387 Z " />
<glyph glyph-name="edieresis" unicode="&#xeb;" horiz-adv-x="505" d="M180 565 C200 565 215 580 215 600 C215 620 200 635 180 635 C160 635 145 620 145 600 C145 580 160 565 180 565 L180 565 Z M330 565 C350 565 365 580 365 600 C365 620 350 635 330 635 C310 635 295 620 295 600 C295 580 310 565 330 565 L330 565 Z M465 215 C465 328 378 425 255 425 C133 425 40 327 40 205 C40 83 138 -15 260 -15 C348 -15 415 35 448 95 L415 112 C388 66 334 23 260 23 C160 23 80 105 80 205 L464 205 C464 205 465 209 465 215 L465 215 Z M255 387 C346 387 409 323 422 243 L84 243 C100 325 168 387 255 387 L255 387 Z " />
<glyph glyph-name="igrave" unicode="&#xec;" horiz-adv-x="220" d="M128 530 L108 670 L68 670 L91 530 L128 530 Z M90 0 L130 0 L130 410 L90 410 L90 0 Z " />
<glyph glyph-name="iacute" unicode="&#xed;" horiz-adv-x="220" d="M92 530 L129 530 L152 670 L112 670 L92 530 Z M90 0 L130 0 L130 410 L90 410 L90 0 Z " />
<glyph glyph-name="icircumflex" unicode="&#xee;" horiz-adv-x="220" d="M2 530 L39 530 L110 638 L180 530 L217 530 L132 670 L87 670 L2 530 Z M90 0 L130 0 L130 410 L90 410 L90 0 Z " />
<glyph glyph-name="idieresis" unicode="&#xef;" horiz-adv-x="220" d="M35 565 C55 565 70 580 70 600 C70 620 55 635 35 635 C15 635 0 620 0 600 C0 580 15 565 35 565 L35 565 Z M185 565 C205 565 220 580 220 600 C220 620 205 635 185 635 C165 635 150 620 150 600 C150 580 165 565 185 565 L185 565 Z M90 0 L130 0 L130 410 L90 410 L90 0 Z " />
<glyph glyph-name="eth" unicode="&#xf0;" horiz-adv-x="520" d="M376 594 L458 624 L445 660 L352 626 C318 668 276 711 225 755 L199 727 C244 687 281 649 313 612 L164 558 L177 522 L338 580 C402 494 433 411 443 315 C408 382 341 425 257 425 C137 425 40 327 40 205 C40 83 138 -15 260 -15 C387 -15 480 78 480 245 C480 374 455 483 376 594 L376 594 Z M260 23 C160 23 80 105 80 205 C80 305 160 387 260 387 C360 387 440 305 440 205 C440 105 360 23 260 23 L260 23 Z " />
<glyph glyph-name="ntilde" unicode="&#xf1;" horiz-adv-x="470" d="M173 615 C222 615 246 589 295 589 C325 589 342 609 342 609 L342 645 C342 645 325 626 295 626 C246 626 222 652 173 652 C143 652 127 632 127 632 L127 596 C127 596 143 615 173 615 L173 615 Z M263 425 C201 425 156 390 120 337 L120 410 L80 410 L80 0 L120 0 L120 275 C158 347 206 385 263 385 C319 385 360 352 360 280 L360 0 L400 0 L400 280 C400 374 341 425 263 425 L263 425 Z " />
<glyph glyph-name="ograve" unicode="&#xf2;" horiz-adv-x="520" d="M278 530 L258 670 L218 670 L241 530 L278 530 Z M260 -15 C382 -15 480 83 480 205 C480 327 382 425 260 425 C138 425 40 327 40 205 C40 83 138 -15 260 -15 L260 -15 Z M260 23 C160 23 80 105 80 205 C80 305 160 387 260 387 C360 387 440 305 440 205 C440 105 360 23 260 23 L260 23 Z " />
<glyph glyph-name="oacute" unicode="&#xf3;" horiz-adv-x="520" d="M242 530 L279 530 L302 670 L262 670 L242 530 Z M260 -15 C382 -15 480 83 480 205 C480 327 382 425 260 425 C138 425 40 327 40 205 C40 83 138 -15 260 -15 L260 -15 Z M260 23 C160 23 80 105 80 205 C80 305 160 387 260 387 C360 387 440 305 440 205 C440 105 360 23 260 23 L260 23 Z " />
<glyph glyph-name="ocircumflex" unicode="&#xf4;" horiz-adv-x="520" d="M152 530 L189 530 L260 638 L330 530 L367 530 L282 670 L237 670 L152 530 Z M260 -15 C382 -15 480 83 480 205 C480 327 382 425 260 425 C138 425 40 327 40 205 C40 83 138 -15 260 -15 L260 -15 Z M260 23 C160 23 80 105 80 205 C80 305 160 387 260 387 C360 387 440 305 440 205 C440 105 360 23 260 23 L260 23 Z " />
<glyph glyph-name="otilde" unicode="&#xf5;" horiz-adv-x="520" d="M152 596 C152 596 168 615 198 615 C247 615 271 589 320 589 C350 589 367 609 367 609 L367 645 C367 645 350 626 320 626 C271 626 247 652 198 652 C168 652 152 632 152 632 L152 596 Z M260 -15 C382 -15 480 83 480 205 C480 327 382 425 260 425 C138 425 40 327 40 205 C40 83 138 -15 260 -15 L260 -15 Z M260 23 C160 23 80 105 80 205 C80 305 160 387 260 387 C360 387 440 305 440 205 C440 105 360 23 260 23 L260 23 Z " />
<glyph glyph-name="odieresis" unicode="&#xf6;" horiz-adv-x="520" d="M185 565 C205 565 220 580 220 600 C220 620 205 635 185 635 C165 635 150 620 150 600 C150 580 165 565 185 565 L185 565 Z M335 565 C355 565 370 580 370 600 C370 620 355 635 335 635 C315 635 300 620 300 600 C300 580 315 565 335 565 L335 565 Z M260 -15 C382 -15 480 83 480 205 C480 327 382 425 260 425 C138 425 40 327 40 205 C40 83 138 -15 260 -15 L260 -15 Z M260 23 C160 23 80 105 80 205 C80 305 160 387 260 387 C360 387 440 305 440 205 C440 105 360 23 260 23 L260 23 Z " />
<glyph glyph-name="divide" unicode="&#xf7;" horiz-adv-x="530" d="M265 438 C285 438 300 453 300 473 C300 493 285 508 265 508 C245 508 230 493 230 473 C230 453 245 438 265 438 L265 438 Z M80 290 L450 290 L450 328 L80 328 L80 290 Z M265 110 C285 110 300 125 300 145 C300 165 285 180 265 180 C245 180 230 165 230 145 C230 125 245 110 265 110 L265 110 Z " />
<glyph glyph-name="oslash" unicode="&#xf8;" horiz-adv-x="520" d="M480 410 L433 410 L400 375 C362 406 313 425 260 425 C138 425 40 327 40 205 C40 148 61 97 96 58 L40 0 L87 0 L120 35 C158 4 207 -15 260 -15 C382 -15 480 83 480 205 C480 262 459 313 424 352 L480 410 Z M80 205 C80 305 160 387 260 387 C303 387 342 372 373 347 L123 87 C96 119 80 160 80 205 L80 205 Z M440 205 C440 105 360 23 260 23 C217 23 178 38 147 63 L397 323 C424 291 440 250 440 205 L440 205 Z " />
<glyph glyph-name="ugrave" unicode="&#xf9;" horiz-adv-x="460" d="M248 530 L228 670 L188 670 L211 530 L248 530 Z M230 -15 C321 -15 390 50 390 145 L390 410 L350 410 L350 145 C350 72 299 25 230 25 C161 25 110 72 110 145 L110 410 L70 410 L70 145 C70 50 139 -15 230 -15 L230 -15 Z " />
<glyph glyph-name="uacute" unicode="&#xfa;" horiz-adv-x="460" d="M212 530 L249 530 L272 670 L232 670 L212 530 Z M230 -15 C321 -15 390 50 390 145 L390 410 L350 410 L350 145 C350 72 299 25 230 25 C161 25 110 72 110 145 L110 410 L70 410 L70 145 C70 50 139 -15 230 -15 L230 -15 Z " />
<glyph glyph-name="ucircumflex" unicode="&#xfb;" horiz-adv-x="460" d="M122 530 L159 530 L230 638 L300 530 L337 530 L252 670 L207 670 L122 530 Z M230 -15 C321 -15 390 50 390 145 L390 410 L350 410 L350 145 C350 72 299 25 230 25 C161 25 110 72 110 145 L110 410 L70 410 L70 145 C70 50 139 -15 230 -15 L230 -15 Z " />
<glyph glyph-name="udieresis" unicode="&#xfc;" horiz-adv-x="460" d="M155 565 C175 565 190 580 190 600 C190 620 175 635 155 635 C135 635 120 620 120 600 C120 580 135 565 155 565 L155 565 Z M305 565 C325 565 340 580 340 600 C340 620 325 635 305 635 C285 635 270 620 270 600 C270 580 285 565 305 565 L305 565 Z M230 -15 C321 -15 390 50 390 145 L390 410 L350 410 L350 145 C350 72 299 25 230 25 C161 25 110 72 110 145 L110 410 L70 410 L70 145 C70 50 139 -15 230 -15 L230 -15 Z " />
<glyph glyph-name="yacute" unicode="&#xfd;" horiz-adv-x="420" d="M252 620 L212 620 L192 480 L229 480 L252 620 Z M367 410 L210 60 L53 410 L10 410 L189 15 L81 -220 L124 -220 L410 410 L367 410 Z " />
<glyph glyph-name="thorn" unicode="&#xfe;" horiz-adv-x="560" d="M300 425 C221 425 156 384 120 321 L120 740 L80 740 L80 -220 L120 -220 L120 89 C156 26 221 -15 300 -15 C422 -15 520 83 520 205 C520 327 422 425 300 425 L300 425 Z M300 23 C200 23 120 105 120 205 C120 305 200 387 300 387 C400 387 480 305 480 205 C480 105 400 23 300 23 L300 23 Z " />
<glyph glyph-name="ydieresis" unicode="&#xff;" horiz-adv-x="420" d="M135 515 C155 515 170 530 170 550 C170 570 155 585 135 585 C115 585 100 570 100 550 C100 530 115 515 135 515 L135 515 Z M285 515 C305 515 320 530 320 550 C320 570 305 585 285 585 C265 585 250 570 250 550 C250 530 265 515 285 515 L285 515 Z M367 410 L210 60 L53 410 L10 410 L189 15 L81 -220 L124 -220 L410 410 L367 410 Z " />
<glyph glyph-name="Amacron" unicode="&#x100;" horiz-adv-x="740" d="M477 879 L262 879 L262 841 L477 841 L477 879 Z M676 0 L720 0 L384 700 L356 700 L20 0 L64 0 L207 299 L533 299 L676 0 Z M225 337 L370 642 L515 337 L225 337 Z " />
<glyph glyph-name="amacron" unicode="&#x101;" horiz-adv-x="560" d="M387 639 L172 639 L172 601 L387 601 L387 639 Z M440 410 L440 321 C404 384 339 425 260 425 C138 425 40 327 40 205 C40 83 138 -15 260 -15 C339 -15 404 26 440 89 L440 0 L480 0 L480 410 L440 410 Z M260 23 C160 23 80 105 80 205 C80 305 160 387 260 387 C360 387 440 305 440 205 C440 105 360 23 260 23 L260 23 Z " />
<glyph glyph-name="Abreve" unicode="&#x102;" horiz-adv-x="740" d="M370 770 C440 770 487 821 487 910 L449 910 C449 842 416 806 370 806 C323 806 290 842 290 910 L252 910 C252 821 299 770 370 770 L370 770 Z M676 0 L720 0 L384 700 L356 700 L20 0 L64 0 L207 299 L533 299 L676 0 Z M225 337 L370 642 L515 337 L225 337 Z " />
<glyph glyph-name="abreve" unicode="&#x103;" horiz-adv-x="560" d="M280 530 C350 530 397 581 397 670 L359 670 C359 602 326 566 280 566 C233 566 200 602 200 670 L162 670 C162 581 209 530 280 530 L280 530 Z M440 410 L440 321 C404 384 339 425 260 425 C138 425 40 327 40 205 C40 83 138 -15 260 -15 C339 -15 404 26 440 89 L440 0 L480 0 L480 410 L440 410 Z M260 23 C160 23 80 105 80 205 C80 305 160 387 260 387 C360 387 440 305 440 205 C440 105 360 23 260 23 L260 23 Z " />
<glyph glyph-name="Aogonek" unicode="&#x104;" horiz-adv-x="740" d="M746 -155 C746 -155 719 -189 674 -189 C637 -189 608 -165 608 -125 C608 -75 655 -40 720 0 L384 700 L356 700 L20 0 L64 0 L207 299 L533 299 L674 5 C622 -25 570 -65 570 -125 C570 -182 609 -225 674 -225 C737 -225 770 -178 770 -178 L746 -155 Z M225 337 L370 642 L515 337 L225 337 Z " />
<glyph glyph-name="aogonek" unicode="&#x105;" horiz-adv-x="560" d="M506 -155 C506 -155 479 -189 434 -189 C397 -189 368 -165 368 -125 C368 -75 415 -40 480 0 L480 410 L440 410 L440 321 C404 384 339 425 260 425 C138 425 40 327 40 205 C40 83 138 -15 260 -15 C339 -15 404 26 440 89 L440 8 C386 -21 330 -62 330 -125 C330 -182 369 -225 434 -225 C497 -225 530 -178 530 -178 L506 -155 Z M260 23 C160 23 80 105 80 205 C80 305 160 387 260 387 C360 387 440 305 440 205 C440 105 360 23 260 23 L260 23 Z " />
<glyph glyph-name="Cacute" unicode="&#x106;" horiz-adv-x="775" d="M397 770 L434 770 L457 910 L417 910 L397 770 Z M415 -15 C551 -15 664 55 725 162 L691 182 C637 86 536 23 415 23 C232 23 90 166 90 350 C90 534 232 677 415 677 C526 677 619 624 675 542 L707 565 C644 656 539 715 415 715 C210 715 50 555 50 350 C50 145 210 -15 415 -15 L415 -15 Z " />
<glyph glyph-name="cacute" unicode="&#x107;" horiz-adv-x="470" d="M242 530 L279 530 L302 670 L262 670 L242 530 Z M260 -15 C337 -15 401 24 440 80 L408 102 C377 55 324 23 260 23 C160 23 80 105 80 205 C80 305 160 387 260 387 C320 387 368 359 402 317 L432 341 C391 390 332 425 260 425 C138 425 40 327 40 205 C40 83 138 -15 260 -15 L260 -15 Z " />
<glyph glyph-name="Ccircumflex" unicode="&#x108;" horiz-adv-x="775" d="M307 770 L344 770 L415 878 L485 770 L522 770 L437 910 L392 910 L307 770 Z M415 -15 C551 -15 664 55 725 162 L691 182 C637 86 536 23 415 23 C232 23 90 166 90 350 C90 534 232 677 415 677 C526 677 619 624 675 542 L707 565 C644 656 539 715 415 715 C210 715 50 555 50 350 C50 145 210 -15 415 -15 L415 -15 Z " />
<glyph glyph-name="ccircumflex" unicode="&#x109;" horiz-adv-x="470" d="M152 530 L189 530 L260 638 L330 530 L367 530 L282 670 L237 670 L152 530 Z M260 -15 C337 -15 401 24 440 80 L408 102 C377 55 324 23 260 23 C160 23 80 105 80 205 C80 305 160 387 260 387 C320 387 368 359 402 317 L432 341 C391 390 332 425 260 425 C138 425 40 327 40 205 C40 83 138 -15 260 -15 L260 -15 Z " />
<glyph glyph-name="Cdotaccent" unicode="&#x10a;" horiz-adv-x="775" d="M415 805 C435 805 450 820 450 840 C450 860 435 875 415 875 C395 875 380 860 380 840 C380 820 395 805 415 805 L415 805 Z M415 -15 C551 -15 664 55 725 162 L691 182 C637 86 536 23 415 23 C232 23 90 166 90 350 C90 534 232 677 415 677 C526 677 619 624 675 542 L707 565 C644 656 539 715 415 715 C210 715 50 555 50 350 C50 145 210 -15 415 -15 L415 -15 Z " />
<glyph glyph-name="cdotaccent" unicode="&#x10b;" horiz-adv-x="470" d="M260 565 C280 565 295 580 295 600 C295 620 280 635 260 635 C240 635 225 620 225 600 C225 580 240 565 260 565 L260 565 Z M260 -15 C337 -15 401 24 440 80 L408 102 C377 55 324 23 260 23 C160 23 80 105 80 205 C80 305 160 387 260 387 C320 387 368 359 402 317 L432 341 C391 390 332 425 260 425 C138 425 40 327 40 205 C40 83 138 -15 260 -15 L260 -15 Z " />
<glyph glyph-name="Ccaron" unicode="&#x10c;" horiz-adv-x="775" d="M307 910 L392 770 L437 770 L522 910 L485 910 L415 802 L344 910 L307 910 Z M415 -15 C551 -15 664 55 725 162 L691 182 C637 86 536 23 415 23 C232 23 90 166 90 350 C90 534 232 677 415 677 C526 677 619 624 675 542 L707 565 C644 656 539 715 415 715 C210 715 50 555 50 350 C50 145 210 -15 415 -15 L415 -15 Z " />
<glyph glyph-name="ccaron" unicode="&#x10d;" horiz-adv-x="470" d="M152 670 L237 530 L282 530 L367 670 L330 670 L260 562 L189 670 L152 670 Z M260 -15 C337 -15 401 24 440 80 L408 102 C377 55 324 23 260 23 C160 23 80 105 80 205 C80 305 160 387 260 387 C320 387 368 359 402 317 L432 341 C391 390 332 425 260 425 C138 425 40 327 40 205 C40 83 138 -15 260 -15 L260 -15 Z " />
<glyph glyph-name="Dcaron" unicode="&#x10e;" horiz-adv-x="640" d="M212 910 L297 770 L342 770 L427 910 L390 910 L320 802 L249 910 L212 910 Z M100 0 L240 0 C468 0 590 150 590 350 C590 550 468 700 240 700 L100 700 L100 0 Z M140 38 L140 662 L240 662 C446 662 550 529 550 350 C550 171 446 38 240 38 L140 38 Z " />
<glyph glyph-name="dcaron" unicode="&#x10f;" horiz-adv-x="620" d="M440 321 C404 384 339 425 260 425 C138 425 40 327 40 205 C40 83 138 -15 260 -15 C339 -15 404 26 440 89 L440 0 L480 0 L480 740 L440 740 L440 321 Z M577 700 L557 490 L597 490 L620 700 L577 700 Z M260 23 C160 23 80 105 80 205 C80 305 160 387 260 387 C360 387 440 305 440 205 C440 105 360 23 260 23 L260 23 Z " />
<glyph glyph-name="Dcroat" unicode="&#x110;" horiz-adv-x="640" d="M240 700 L100 700 L100 374 L0 374 L0 336 L100 336 L100 0 L240 0 C468 0 590 150 590 350 C590 550 468 700 240 700 L240 700 Z M240 38 L140 38 L140 336 L340 336 L340 374 L140 374 L140 662 L240 662 C446 662 550 529 550 350 C550 171 446 38 240 38 L240 38 Z " />
<glyph glyph-name="dcroat" unicode="&#x111;" horiz-adv-x="560" d="M560 640 L480 640 L480 740 L440 740 L440 640 L340 640 L340 602 L440 602 L440 321 C404 384 339 425 260 425 C138 425 40 327 40 205 C40 83 138 -15 260 -15 C339 -15 404 26 440 89 L440 0 L480 0 L480 602 L560 602 L560 640 Z M260 23 C160 23 80 105 80 205 C80 305 160 387 260 387 C360 387 440 305 440 205 C440 105 360 23 260 23 L260 23 Z " />
<glyph glyph-name="Emacron" unicode="&#x112;" horiz-adv-x="520" d="M377 879 L162 879 L162 841 L377 841 L377 879 Z M140 38 L140 351 L465 351 L465 389 L140 389 L140 662 L440 662 L440 700 L100 700 L100 0 L470 0 L470 38 L140 38 Z " />
<glyph glyph-name="emacron" unicode="&#x113;" horiz-adv-x="505" d="M362 639 L147 639 L147 601 L362 601 L362 639 Z M465 215 C465 328 378 425 255 425 C133 425 40 327 40 205 C40 83 138 -15 260 -15 C348 -15 415 35 448 95 L415 112 C388 66 334 23 260 23 C160 23 80 105 80 205 L464 205 C464 205 465 209 465 215 L465 215 Z M255 387 C346 387 409 323 422 243 L84 243 C100 325 168 387 255 387 L255 387 Z " />
<glyph glyph-name="Ebreve" unicode="&#x114;" horiz-adv-x="520" d="M270 770 C340 770 387 821 387 910 L349 910 C349 842 316 806 270 806 C223 806 190 842 190 910 L152 910 C152 821 199 770 270 770 L270 770 Z M140 38 L140 351 L465 351 L465 389 L140 389 L140 662 L440 662 L440 700 L100 700 L100 0 L470 0 L470 38 L140 38 Z " />
<glyph glyph-name="ebreve" unicode="&#x115;" horiz-adv-x="505" d="M255 530 C325 530 372 581 372 670 L334 670 C334 602 301 566 255 566 C208 566 175 602 175 670 L137 670 C137 581 184 530 255 530 L255 530 Z M465 215 C465 328 378 425 255 425 C133 425 40 327 40 205 C40 83 138 -15 260 -15 C348 -15 415 35 448 95 L415 112 C388 66 334 23 260 23 C160 23 80 105 80 205 L464 205 C464 205 465 209 465 215 L465 215 Z M255 387 C346 387 409 323 422 243 L84 243 C100 325 168 387 255 387 L255 387 Z " />
<glyph glyph-name="Edotaccent" unicode="&#x116;" horiz-adv-x="520" d="M270 805 C290 805 305 820 305 840 C305 860 290 875 270 875 C250 875 235 860 235 840 C235 820 250 805 270 805 L270 805 Z M140 38 L140 351 L465 351 L465 389 L140 389 L140 662 L440 662 L440 700 L100 700 L100 0 L470 0 L470 38 L140 38 Z " />
<glyph glyph-name="edotaccent" unicode="&#x117;" horiz-adv-x="505" d="M255 565 C275 565 290 580 290 600 C290 620 275 635 255 635 C235 635 220 620 220 600 C220 580 235 565 255 565 L255 565 Z M465 215 C465 328 378 425 255 425 C133 425 40 327 40 205 C40 83 138 -15 260 -15 C348 -15 415 35 448 95 L415 112 C388 66 334 23 260 23 C160 23 80 105 80 205 L464 205 C464 205 465 209 465 215 L465 215 Z M255 387 C346 387 409 323 422 243 L84 243 C100 325 168 387 255 387 L255 387 Z " />
<glyph glyph-name="Eogonek" unicode="&#x118;" horiz-adv-x="520" d="M496 -155 C496 -155 469 -189 424 -189 C387 -189 358 -165 358 -125 C358 -75 405 -40 470 0 L470 38 L140 38 L140 351 L465 351 L465 389 L140 389 L140 662 L440 662 L440 700 L100 700 L100 0 L415 0 C366 -29 320 -68 320 -125 C320 -182 359 -225 424 -225 C487 -225 520 -178 520 -178 L496 -155 Z " />
<glyph glyph-name="eogonek" unicode="&#x119;" horiz-adv-x="505" d="M465 215 C465 328 378 425 255 425 C133 425 40 327 40 205 C40 84 136 -13 256 -15 C216 -42 184 -77 184 -125 C184 -182 223 -225 288 -225 C351 -225 384 -178 384 -178 L360 -155 C360 -155 333 -189 288 -189 C251 -189 222 -165 222 -125 C222 -77 265 -43 326 -5 C381 12 424 51 448 95 L415 112 C388 66 334 23 260 23 C160 23 80 105 80 205 L464 205 C464 205 465 209 465 215 L465 215 Z M255 387 C346 387 409 323 422 243 L84 243 C100 325 168 387 255 387 L255 387 Z " />
<glyph glyph-name="Ecaron" unicode="&#x11a;" horiz-adv-x="520" d="M292 770 L377 910 L340 910 L270 802 L199 910 L162 910 L247 770 L292 770 Z M140 38 L140 351 L465 351 L465 389 L140 389 L140 662 L440 662 L440 700 L100 700 L100 0 L470 0 L470 38 L140 38 Z " />
<glyph glyph-name="ecaron" unicode="&#x11b;" horiz-adv-x="505" d="M277 530 L362 670 L325 670 L255 562 L184 670 L147 670 L232 530 L277 530 Z M465 215 C465 328 378 425 255 425 C133 425 40 327 40 205 C40 83 138 -15 260 -15 C348 -15 415 35 448 95 L415 112 C388 66 334 23 260 23 C160 23 80 105 80 205 L464 205 C464 205 465 209 465 215 L465 215 Z M255 387 C346 387 409 323 422 243 L84 243 C100 325 168 387 255 387 L255 387 Z " />
<glyph glyph-name="Gcircumflex" unicode="&#x11c;" horiz-adv-x="815" d="M420 878 L490 770 L527 770 L442 910 L397 910 L312 770 L349 770 L420 878 Z M764 340 L250 340 L250 302 L724 302 C711 142 583 23 415 23 C232 23 90 166 90 350 C90 534 233 677 420 677 C520 677 605 637 664 576 L692 603 C626 671 531 715 420 715 C211 715 50 555 50 350 C50 145 210 -15 415 -15 C615 -15 765 135 765 330 C765 337 764 340 764 340 L764 340 Z " />
<glyph glyph-name="gcircumflex" unicode="&#x11d;" horiz-adv-x="560" d="M280 638 L350 530 L387 530 L302 670 L257 670 L172 530 L209 530 L280 638 Z M440 410 L440 321 C404 384 339 425 260 425 C138 425 40 327 40 205 C40 83 138 -15 260 -15 C339 -15 404 26 440 89 L440 -25 C440 -133 363 -197 265 -197 C171 -197 100 -143 100 -65 L60 -65 C60 -165 149 -235 265 -235 C385 -235 480 -155 480 -25 L480 410 L440 410 Z M260 23 C160 23 80 105 80 205 C80 305 160 387 260 387 C360 387 440 305 440 205 C440 105 360 23 260 23 L260 23 Z " />
<glyph glyph-name="Gbreve" unicode="&#x11e;" horiz-adv-x="815" d="M420 770 C490 770 537 821 537 910 L499 910 C499 842 466 806 420 806 C373 806 340 842 340 910 L302 910 C302 821 349 770 420 770 L420 770 Z M764 340 L250 340 L250 302 L724 302 C711 142 583 23 415 23 C232 23 90 166 90 350 C90 534 233 677 420 677 C520 677 605 637 664 576 L692 603 C626 671 531 715 420 715 C211 715 50 555 50 350 C50 145 210 -15 415 -15 C615 -15 765 135 765 330 C765 337 764 340 764 340 L764 340 Z " />
<glyph glyph-name="gbreve" unicode="&#x11f;" horiz-adv-x="560" d="M280 530 C350 530 397 581 397 670 L359 670 C359 602 326 566 280 566 C233 566 200 602 200 670 L162 670 C162 581 209 530 280 530 L280 530 Z M440 410 L440 321 C404 384 339 425 260 425 C138 425 40 327 40 205 C40 83 138 -15 260 -15 C339 -15 404 26 440 89 L440 -25 C440 -133 363 -197 265 -197 C171 -197 100 -143 100 -65 L60 -65 C60 -165 149 -235 265 -235 C385 -235 480 -155 480 -25 L480 410 L440 410 Z M260 23 C160 23 80 105 80 205 C80 305 160 387 260 387 C360 387 440 305 440 205 C440 105 360 23 260 23 L260 23 Z " />
<glyph glyph-name="Gdotaccent" unicode="&#x120;" horiz-adv-x="815" d="M420 805 C440 805 455 820 455 840 C455 860 440 875 420 875 C400 875 385 860 385 840 C385 820 400 805 420 805 L420 805 Z M764 340 L250 340 L250 302 L724 302 C711 142 583 23 415 23 C232 23 90 166 90 350 C90 534 233 677 420 677 C520 677 605 637 664 576 L692 603 C626 671 531 715 420 715 C211 715 50 555 50 350 C50 145 210 -15 415 -15 C615 -15 765 135 765 330 C765 337 764 340 764 340 L764 340 Z " />
<glyph glyph-name="gdotaccent" unicode="&#x121;" horiz-adv-x="560" d="M280 565 C300 565 315 580 315 600 C315 620 300 635 280 635 C260 635 245 620 245 600 C245 580 260 565 280 565 L280 565 Z M440 410 L440 321 C404 384 339 425 260 425 C138 425 40 327 40 205 C40 83 138 -15 260 -15 C339 -15 404 26 440 89 L440 -25 C440 -133 363 -197 265 -197 C171 -197 100 -143 100 -65 L60 -65 C60 -165 149 -235 265 -235 C385 -235 480 -155 480 -25 L480 410 L440 410 Z M260 23 C160 23 80 105 80 205 C80 305 160 387 260 387 C360 387 440 305 440 205 C440 105 360 23 260 23 L260 23 Z " />
<glyph glyph-name="Gcommaaccent" unicode="&#x122;" horiz-adv-x="815" d="M764 340 L250 340 L250 302 L724 302 C711 142 583 23 415 23 C232 23 90 166 90 350 C90 534 233 677 420 677 C520 677 605 637 664 576 L692 603 C626 671 531 715 420 715 C211 715 50 555 50 350 C50 145 210 -15 415 -15 C615 -15 765 135 765 330 C765 337 764 340 764 340 L764 340 Z M375 -210 L412 -210 L435 -70 L395 -70 L375 -210 Z " />
<glyph glyph-name="gcommaaccent" unicode="&#x123;" horiz-adv-x="560" d="M320 670 L283 670 L260 530 L300 530 L320 670 Z M440 410 L440 321 C404 384 339 425 260 425 C138 425 40 327 40 205 C40 83 138 -15 260 -15 C339 -15 404 26 440 89 L440 -25 C440 -133 363 -197 265 -197 C171 -197 100 -143 100 -65 L60 -65 C60 -165 149 -235 265 -235 C385 -235 480 -155 480 -25 L480 410 L440 410 Z M260 23 C160 23 80 105 80 205 C80 305 160 387 260 387 C360 387 440 305 440 205 C440 105 360 23 260 23 L260 23 Z " />
<glyph glyph-name="Hcircumflex" unicode="&#x124;" horiz-adv-x="760" d="M380 878 L450 770 L487 770 L402 910 L357 910 L272 770 L309 770 L380 878 Z M620 700 L620 390 L140 390 L140 700 L100 700 L100 0 L140 0 L140 352 L620 352 L620 0 L660 0 L660 700 L620 700 Z " />
<glyph glyph-name="hcircumflex" unicode="&#x125;" horiz-adv-x="470" d="M170 810 L207 810 L122 950 L77 950 L-8 810 L29 810 L100 918 L170 810 Z M263 425 C201 425 156 390 120 337 L120 740 L80 740 L80 0 L120 0 L120 275 C158 347 206 385 263 385 C319 385 360 352 360 280 L360 0 L400 0 L400 280 C400 374 341 425 263 425 L263 425 Z " />
<glyph glyph-name="Hbar" unicode="&#x126;" horiz-adv-x="760" d="M760 559 L660 559 L660 700 L620 700 L620 559 L140 559 L140 700 L100 700 L100 559 L0 559 L0 521 L100 521 L100 0 L140 0 L140 352 L620 352 L620 0 L660 0 L660 521 L760 521 L760 559 Z M620 390 L140 390 L140 521 L620 521 L620 390 Z " />
<glyph glyph-name="hbar" unicode="&#x127;" horiz-adv-x="470" d="M263 425 C201 425 156 390 120 337 L120 602 L220 602 L220 640 L120 640 L120 740 L80 740 L80 640 L0 640 L0 602 L80 602 L80 0 L120 0 L120 275 C158 347 206 385 263 385 C319 385 360 352 360 280 L360 0 L400 0 L400 280 C400 374 341 425 263 425 L263 425 Z " />
<glyph glyph-name="Itilde" unicode="&#x128;" horiz-adv-x="260" d="M22 836 C22 836 38 855 68 855 C117 855 141 829 190 829 C220 829 237 849 237 849 L237 885 C237 885 220 866 190 866 C141 866 117 892 68 892 C38 892 22 872 22 872 L22 836 Z M110 0 L150 0 L150 700 L110 700 L110 0 Z " />
<glyph glyph-name="itilde" unicode="&#x129;" horiz-adv-x="220" d="M2 596 C2 596 18 615 48 615 C97 615 121 589 170 589 C200 589 217 609 217 609 L217 645 C217 645 200 626 170 626 C121 626 97 652 48 652 C18 652 2 632 2 632 L2 596 Z M90 0 L130 0 L130 410 L90 410 L90 0 Z " />
<glyph glyph-name="Imacron" unicode="&#x12a;" horiz-adv-x="260" d="M22 841 L237 841 L237 879 L22 879 L22 841 Z M110 0 L150 0 L150 700 L110 700 L110 0 Z " />
<glyph glyph-name="imacron" unicode="&#x12b;" horiz-adv-x="220" d="M2 601 L217 601 L217 639 L2 639 L2 601 Z M90 0 L130 0 L130 410 L90 410 L90 0 Z " />
<glyph glyph-name="Ibreve" unicode="&#x12c;" horiz-adv-x="260" d="M12 910 C12 821 59 770 130 770 C200 770 247 821 247 910 L209 910 C209 842 176 806 130 806 C83 806 50 842 50 910 L12 910 Z M110 0 L150 0 L150 700 L110 700 L110 0 Z " />
<glyph glyph-name="ibreve" unicode="&#x12d;" horiz-adv-x="220" d="M-8 670 C-8 581 39 530 110 530 C180 530 227 581 227 670 L189 670 C189 602 156 566 110 566 C63 566 30 602 30 670 L-8 670 Z M90 0 L130 0 L130 410 L90 410 L90 0 Z " />
<glyph glyph-name="Iogonek" unicode="&#x12e;" horiz-adv-x="260" d="M176 -155 C176 -155 149 -189 104 -189 C67 -189 38 -165 38 -125 C38 -75 85 -40 150 0 L150 700 L110 700 L110 8 C56 -21 0 -62 0 -125 C0 -182 39 -225 104 -225 C167 -225 200 -178 200 -178 L176 -155 Z " />
<glyph glyph-name="iogonek" unicode="&#x12f;" horiz-adv-x="220" d="M110 565 C130 565 145 580 145 600 C145 620 130 635 110 635 C90 635 75 620 75 600 C75 580 90 565 110 565 L110 565 Z M156 -155 C156 -155 129 -189 84 -189 C47 -189 18 -165 18 -125 C18 -75 65 -40 130 0 L130 410 L90 410 L90 8 C36 -21 -20 -62 -20 -125 C-20 -182 19 -225 84 -225 C147 -225 180 -178 180 -178 L156 -155 Z " />
<glyph glyph-name="Idotaccent" unicode="&#x130;" horiz-adv-x="260" d="M130 805 C150 805 165 820 165 840 C165 860 150 875 130 875 C110 875 95 860 95 840 C95 820 110 805 130 805 L130 805 Z M110 0 L150 0 L150 700 L110 700 L110 0 Z " />
<glyph glyph-name="dotlessi" unicode="&#x131;" horiz-adv-x="220" d="M90 0 L130 0 L130 410 L90 410 L90 0 Z " />
<glyph glyph-name="IJ" unicode="&#x132;" horiz-adv-x="733" d="M110 0 L150 0 L150 700 L110 700 L110 0 Z M443 -15 C557 -15 643 71 643 205 L643 700 L603 700 L603 205 C603 93 535 23 443 23 C388 23 340 50 310 93 L280 72 C318 19 375 -15 443 -15 L443 -15 Z " />
<glyph glyph-name="ij" unicode="&#x133;" horiz-adv-x="440" d="M110 565 C130 565 145 580 145 600 C145 620 130 635 110 635 C90 635 75 620 75 600 C75 580 90 565 110 565 L110 565 Z M330 565 C350 565 365 580 365 600 C365 620 350 635 330 635 C310 635 295 620 295 600 C295 580 310 565 330 565 L330 565 Z M90 0 L130 0 L130 410 L90 410 L90 0 Z M310 -220 L350 -220 L350 410 L310 410 L310 -220 Z " />
<glyph glyph-name="Jcircumflex" unicode="&#x134;" horiz-adv-x="473" d="M255 770 L292 770 L363 878 L433 770 L470 770 L385 910 L340 910 L255 770 Z M183 -15 C297 -15 383 71 383 205 L383 700 L343 700 L343 205 C343 93 275 23 183 23 C128 23 80 50 50 93 L20 72 C58 19 115 -15 183 -15 L183 -15 Z " />
<glyph glyph-name="jcircumflex" unicode="&#x135;" horiz-adv-x="220" d="M2 560 L39 560 L110 668 L180 560 L217 560 L132 700 L87 700 L2 560 Z M90 -220 L130 -220 L130 410 L90 410 L90 -220 Z " />
<glyph glyph-name="Kcommaaccent" unicode="&#x136;" horiz-adv-x="575" d="M183 353 L535 700 L478 700 L140 360 L140 700 L100 700 L100 0 L140 0 L140 340 L497 0 L555 0 L183 353 Z M268 -210 L305 -210 L328 -70 L288 -70 L268 -210 Z " />
<glyph glyph-name="kcommaaccent" unicode="&#x137;" horiz-adv-x="370" d="M161 211 L350 410 L297 410 L120 221 L120 740 L80 740 L80 0 L120 0 L120 199 L306 0 L360 0 L161 211 Z M173 -210 L210 -210 L233 -70 L193 -70 L173 -210 Z " />
<glyph glyph-name="Lacute" unicode="&#x139;" horiz-adv-x="490" d="M162 910 L122 910 L102 770 L139 770 L162 910 Z M140 38 L140 700 L100 700 L100 0 L470 0 L470 38 L140 38 Z " />
<glyph glyph-name="lacute" unicode="&#x13a;" horiz-adv-x="220" d="M92 810 L129 810 L152 950 L112 950 L92 810 Z M90 0 L130 0 L130 740 L90 740 L90 0 Z " />
<glyph glyph-name="Lcommaaccent" unicode="&#x13b;" horiz-adv-x="490" d="M140 38 L140 700 L100 700 L100 0 L470 0 L470 38 L140 38 Z M245 -210 L282 -210 L305 -70 L265 -70 L245 -210 Z " />
<glyph glyph-name="lcommaaccent" unicode="&#x13c;" horiz-adv-x="220" d="M90 0 L130 0 L130 740 L90 740 L90 0 Z M70 -210 L107 -210 L130 -70 L90 -70 L70 -210 Z " />
<glyph glyph-name="Lcaron" unicode="&#x13d;" horiz-adv-x="490" d="M140 38 L140 700 L100 700 L100 0 L470 0 L470 38 L140 38 Z M423 700 L380 700 L360 490 L400 490 L423 700 Z " />
<glyph glyph-name="lcaron" unicode="&#x13e;" horiz-adv-x="273" d="M90 0 L130 0 L130 740 L90 740 L90 0 Z M210 490 L250 490 L273 700 L230 700 L210 490 Z " />
<glyph glyph-name="Ldot" unicode="&#x13f;" horiz-adv-x="490" d="M140 38 L140 700 L100 700 L100 0 L470 0 L470 38 L140 38 Z M355 315 C375 315 390 330 390 350 C390 370 375 385 355 385 C335 385 320 370 320 350 C320 330 335 315 355 315 L355 315 Z " />
<glyph glyph-name="ldot" unicode="&#x140;" horiz-adv-x="260" d="M90 0 L130 0 L130 740 L90 740 L90 0 Z M225 315 C245 315 260 330 260 350 C260 370 245 385 225 385 C205 385 190 370 190 350 C190 330 205 315 225 315 L225 315 Z " />
<glyph glyph-name="Lslash" unicode="&#x141;" horiz-adv-x="490" d="M140 38 L140 327 L340 386 L340 424 L140 365 L140 700 L100 700 L100 353 L0 324 L0 286 L100 315 L100 0 L470 0 L470 38 L140 38 Z " />
<glyph glyph-name="lslash" unicode="&#x142;" horiz-adv-x="220" d="M220 404 L130 371 L130 740 L90 740 L90 357 L0 324 L0 286 L90 319 L90 0 L130 0 L130 333 L220 366 L220 404 Z " />
<glyph glyph-name="Nacute" unicode="&#x143;" horiz-adv-x="740" d="M352 770 L389 770 L412 910 L372 910 L352 770 Z M616 0 L640 0 L640 700 L600 700 L600 86 L123 700 L100 700 L100 0 L140 0 L140 614 L616 0 Z " />
<glyph glyph-name="nacute" unicode="&#x144;" horiz-adv-x="470" d="M277 670 L237 670 L217 530 L254 530 L277 670 Z M263 425 C201 425 156 390 120 337 L120 410 L80 410 L80 0 L120 0 L120 275 C158 347 206 385 263 385 C319 385 360 352 360 280 L360 0 L400 0 L400 280 C400 374 341 425 263 425 L263 425 Z " />
<glyph glyph-name="Ncommaaccent" unicode="&#x145;" horiz-adv-x="740" d="M616 0 L640 0 L640 700 L600 700 L600 86 L123 700 L100 700 L100 0 L140 0 L140 614 L616 0 Z M330 -210 L367 -210 L390 -70 L350 -70 L330 -210 Z " />
<glyph glyph-name="ncommaaccent" unicode="&#x146;" horiz-adv-x="470" d="M263 425 C201 425 156 390 120 337 L120 410 L80 410 L80 0 L120 0 L120 275 C158 347 206 385 263 385 C319 385 360 352 360 280 L360 0 L400 0 L400 280 C400 374 341 425 263 425 L263 425 Z M195 -210 L232 -210 L255 -70 L215 -70 L195 -210 Z " />
<glyph glyph-name="Ncaron" unicode="&#x147;" horiz-adv-x="740" d="M262 910 L347 770 L392 770 L477 910 L440 910 L370 802 L299 910 L262 910 Z M616 0 L640 0 L640 700 L600 700 L600 86 L123 700 L100 700 L100 0 L140 0 L140 614 L616 0 Z " />
<glyph glyph-name="ncaron" unicode="&#x148;" horiz-adv-x="470" d="M257 530 L342 670 L305 670 L235 562 L164 670 L127 670 L212 530 L257 530 Z M263 425 C201 425 156 390 120 337 L120 410 L80 410 L80 0 L120 0 L120 275 C158 347 206 385 263 385 C319 385 360 352 360 280 L360 0 L400 0 L400 280 C400 374 341 425 263 425 L263 425 Z " />
<glyph glyph-name="Eng" unicode="&#x14a;" horiz-adv-x="740" d="M100 0 L140 0 L140 614 L600 21 L600 -45 C600 -144 549 -197 475 -197 C429 -197 393 -177 367 -147 L340 -170 C373 -211 416 -235 475 -235 C571 -235 640 -166 640 -45 L640 700 L600 700 L600 86 L123 700 L100 700 L100 0 Z " />
<glyph glyph-name="eng" unicode="&#x14b;" horiz-adv-x="470" d="M263 425 C201 425 156 390 120 337 L120 410 L80 410 L80 0 L120 0 L120 275 C158 347 206 385 263 385 C319 385 360 352 360 280 L360 -220 L400 -220 L400 280 C400 374 341 425 263 425 L263 425 Z " />
<glyph glyph-name="Omacron" unicode="&#x14c;" horiz-adv-x="830" d="M307 841 L522 841 L522 879 L307 879 L307 841 Z M415 -15 C620 -15 780 145 780 350 C780 555 620 715 415 715 C210 715 50 555 50 350 C50 145 210 -15 415 -15 L415 -15 Z M415 23 C232 23 90 166 90 350 C90 534 232 677 415 677 C598 677 740 534 740 350 C740 166 598 23 415 23 L415 23 Z " />
<glyph glyph-name="omacron" unicode="&#x14d;" horiz-adv-x="520" d="M152 601 L367 601 L367 639 L152 639 L152 601 Z M260 -15 C382 -15 480 83 480 205 C480 327 382 425 260 425 C138 425 40 327 40 205 C40 83 138 -15 260 -15 L260 -15 Z M260 23 C160 23 80 105 80 205 C80 305 160 387 260 387 C360 387 440 305 440 205 C440 105 360 23 260 23 L260 23 Z " />
<glyph glyph-name="Obreve" unicode="&#x14e;" horiz-adv-x="830" d="M297 910 C297 821 344 770 415 770 C485 770 532 821 532 910 L494 910 C494 842 461 806 415 806 C368 806 335 842 335 910 L297 910 Z M415 -15 C620 -15 780 145 780 350 C780 555 620 715 415 715 C210 715 50 555 50 350 C50 145 210 -15 415 -15 L415 -15 Z M415 23 C232 23 90 166 90 350 C90 534 232 677 415 677 C598 677 740 534 740 350 C740 166 598 23 415 23 L415 23 Z " />
<glyph glyph-name="obreve" unicode="&#x14f;" horiz-adv-x="520" d="M142 670 C142 581 189 530 260 530 C330 530 377 581 377 670 L339 670 C339 602 306 566 260 566 C213 566 180 602 180 670 L142 670 Z M260 -15 C382 -15 480 83 480 205 C480 327 382 425 260 425 C138 425 40 327 40 205 C40 83 138 -15 260 -15 L260 -15 Z M260 23 C160 23 80 105 80 205 C80 305 160 387 260 387 C360 387 440 305 440 205 C440 105 360 23 260 23 L260 23 Z " />
<glyph glyph-name="Ohungarumlaut" unicode="&#x150;" horiz-adv-x="830" d="M337 770 L374 770 L397 910 L357 910 L337 770 Z M457 770 L494 770 L517 910 L477 910 L457 770 Z M415 -15 C620 -15 780 145 780 350 C780 555 620 715 415 715 C210 715 50 555 50 350 C50 145 210 -15 415 -15 L415 -15 Z M415 23 C232 23 90 166 90 350 C90 534 232 677 415 677 C598 677 740 534 740 350 C740 166 598 23 415 23 L415 23 Z " />
<glyph glyph-name="ohungarumlaut" unicode="&#x151;" horiz-adv-x="520" d="M182 530 L219 530 L242 670 L202 670 L182 530 Z M302 530 L339 530 L362 670 L322 670 L302 530 Z M260 -15 C382 -15 480 83 480 205 C480 327 382 425 260 425 C138 425 40 327 40 205 C40 83 138 -15 260 -15 L260 -15 Z M260 23 C160 23 80 105 80 205 C80 305 160 387 260 387 C360 387 440 305 440 205 C440 105 360 23 260 23 L260 23 Z " />
<glyph glyph-name="OE" unicode="&#x152;" horiz-adv-x="1120" d="M1070 38 L607 38 C712 101 780 216 780 350 L780 351 L1065 351 L1065 389 L778 389 C766 506 701 605 607 662 L1040 662 L1040 700 L521 700 C488 710 452 715 415 715 C210 715 50 555 50 350 C50 145 210 -15 415 -15 C452 -15 488 -10 521 0 L1070 0 L1070 38 Z M90 350 C90 534 232 677 415 677 C598 677 740 534 740 350 C740 166 598 23 415 23 C232 23 90 166 90 350 L90 350 Z " />
<glyph glyph-name="oe" unicode="&#x153;" horiz-adv-x="905" d="M865 215 C865 328 778 425 655 425 C562 425 489 369 460 288 C428 369 353 425 260 425 C138 425 40 327 40 205 C40 83 138 -15 260 -15 C353 -15 429 42 460 123 C491 42 567 -15 660 -15 C748 -15 815 35 848 95 L815 112 C788 66 734 23 660 23 C560 23 480 105 480 205 L864 205 C864 205 865 209 865 215 L865 215 Z M260 23 C160 23 80 105 80 205 C80 305 160 387 260 387 C360 387 440 305 440 205 C440 105 360 23 260 23 L260 23 Z M655 387 C746 387 809 323 822 243 L484 243 C500 325 568 387 655 387 L655 387 Z " />
<glyph glyph-name="Racute" unicode="&#x154;" horiz-adv-x="530" d="M307 910 L267 910 L247 770 L284 770 L307 910 Z M478 0 L530 0 L260 321 C377 329 450 408 450 510 C450 618 368 700 240 700 L100 700 L100 0 L140 0 L140 320 L210 320 L478 0 Z M140 662 L240 662 C346 662 410 596 410 510 C410 424 346 358 240 358 L140 358 L140 662 Z " />
<glyph glyph-name="racute" unicode="&#x155;" horiz-adv-x="335" d="M240 670 L200 670 L180 530 L217 530 L240 670 Z M230 425 C183 425 149 400 120 350 L120 410 L80 410 L80 0 L120 0 L120 280 C155 360 190 387 230 387 C262 387 286 370 306 345 L335 370 C309 400 277 425 230 425 L230 425 Z " />
<glyph glyph-name="Rcommaaccent" unicode="&#x156;" horiz-adv-x="530" d="M260 321 C377 329 450 408 450 510 C450 618 368 700 240 700 L100 700 L100 0 L140 0 L140 320 L210 320 L478 0 L530 0 L260 321 Z M140 662 L240 662 C346 662 410 596 410 510 C410 424 346 358 240 358 L140 358 L140 662 Z M259 -210 L296 -210 L319 -70 L279 -70 L259 -210 Z " />
<glyph glyph-name="rcommaaccent" unicode="&#x157;" horiz-adv-x="335" d="M230 425 C183 425 149 400 120 350 L120 410 L80 410 L80 0 L120 0 L120 280 C155 360 190 387 230 387 C262 387 286 370 306 345 L335 370 C309 400 277 425 230 425 L230 425 Z M60 -210 L97 -210 L120 -70 L80 -70 L60 -210 Z " />
<glyph glyph-name="Rcaron" unicode="&#x158;" horiz-adv-x="530" d="M287 770 L372 910 L335 910 L265 802 L194 910 L157 910 L242 770 L287 770 Z M478 0 L530 0 L260 321 C377 329 450 408 450 510 C450 618 368 700 240 700 L100 700 L100 0 L140 0 L140 320 L210 320 L478 0 Z M140 662 L240 662 C346 662 410 596 410 510 C410 424 346 358 240 358 L140 358 L140 662 Z " />
<glyph glyph-name="rcaron" unicode="&#x159;" horiz-adv-x="335" d="M220 530 L305 670 L268 670 L198 562 L127 670 L90 670 L175 530 L220 530 Z M230 425 C183 425 149 400 120 350 L120 410 L80 410 L80 0 L120 0 L120 280 C155 360 190 387 230 387 C262 387 286 370 306 345 L335 370 C309 400 277 425 230 425 L230 425 Z " />
<glyph glyph-name="Sacute" unicode="&#x15a;" horiz-adv-x="515" d="M253 770 L290 770 L313 910 L273 910 L253 770 Z M265 -15 C388 -15 465 69 465 172 C465 283 367 335 275 381 C194 422 115 469 115 547 C115 622 176 677 272 677 C363 677 416 618 416 618 L445 646 C445 646 382 715 271 715 C152 715 75 644 75 547 C75 445 167 390 256 345 C342 302 425 259 425 172 C425 91 365 23 264 23 C145 23 84 132 84 132 L50 111 C50 111 121 -15 265 -15 L265 -15 Z " />
<glyph glyph-name="sacute" unicode="&#x15b;" horiz-adv-x="341" d="M164 530 L201 530 L224 670 L184 670 L164 530 Z M180 -15 C253 -15 301 39 301 103 C301 171 242 206 185 231 C134 252 100 277 100 319 C100 358 130 387 188 387 C239 387 273 349 273 349 L298 376 C298 376 258 425 182 425 C108 425 60 378 60 317 C60 254 114 220 169 196 C222 173 261 148 261 101 C261 59 235 23 182 23 C107 23 71 92 71 92 L40 71 C40 71 84 -15 180 -15 L180 -15 Z " />
<glyph glyph-name="Scedilla" unicode="&#x15e;" horiz-adv-x="515" d="M465 172 C465 283 367 335 275 381 C194 422 115 469 115 547 C115 622 176 677 272 677 C363 677 416 618 416 618 L445 646 C445 646 382 715 271 715 C152 715 75 644 75 547 C75 445 167 390 256 345 C342 302 425 259 425 172 C425 91 365 23 264 23 C145 23 84 132 84 132 L50 111 C50 111 113 -1 241 -14 L204 -92 L227 -103 C227 -103 244 -91 263 -91 C291 -91 316 -107 316 -135 C316 -166 288 -184 254 -184 C213 -184 188 -161 188 -161 L169 -190 C169 -190 203 -220 254 -220 C316 -220 354 -178 354 -135 C354 -95 321 -57 264 -57 C261 -57 259 -57 256 -58 L277 -15 C393 -9 465 72 465 172 L465 172 Z " />
<glyph glyph-name="scedilla" unicode="&#x15f;" horiz-adv-x="341" d="M179 -57 C176 -57 174 -57 171 -58 L192 -14 C258 -9 301 43 301 103 C301 171 242 206 185 231 C134 252 100 277 100 319 C100 358 130 387 188 387 C239 387 273 349 273 349 L298 376 C298 376 258 425 182 425 C108 425 60 378 60 317 C60 254 114 220 169 196 C222 173 261 148 261 101 C261 59 235 23 182 23 C107 23 71 92 71 92 L40 71 C40 71 77 -1 157 -13 L119 -92 L142 -103 C142 -103 159 -91 178 -91 C206 -91 231 -107 231 -135 C231 -166 203 -184 169 -184 C128 -184 103 -161 103 -161 L84 -190 C84 -190 118 -220 169 -220 C231 -220 269 -178 269 -135 C269 -95 236 -57 179 -57 L179 -57 Z " />
<glyph glyph-name="Scaron" unicode="&#x160;" horiz-adv-x="515" d="M163 910 L248 770 L293 770 L378 910 L341 910 L271 802 L200 910 L163 910 Z M265 -15 C388 -15 465 69 465 172 C465 283 367 335 275 381 C194 422 115 469 115 547 C115 622 176 677 272 677 C363 677 416 618 416 618 L445 646 C445 646 382 715 271 715 C152 715 75 644 75 547 C75 445 167 390 256 345 C342 302 425 259 425 172 C425 91 365 23 264 23 C145 23 84 132 84 132 L50 111 C50 111 121 -15 265 -15 L265 -15 Z " />
<glyph glyph-name="scaron" unicode="&#x161;" horiz-adv-x="341" d="M74 670 L159 530 L204 530 L289 670 L252 670 L182 562 L111 670 L74 670 Z M180 -15 C253 -15 301 39 301 103 C301 171 242 206 185 231 C134 252 100 277 100 319 C100 358 130 387 188 387 C239 387 273 349 273 349 L298 376 C298 376 258 425 182 425 C108 425 60 378 60 317 C60 254 114 220 169 196 C222 173 261 148 261 101 C261 59 235 23 182 23 C107 23 71 92 71 92 L40 71 C40 71 84 -15 180 -15 L180 -15 Z " />
<glyph glyph-name="uni0162" unicode="&#x162;" horiz-adv-x="490" d="M265 0 L265 662 L470 662 L470 700 L20 700 L20 662 L225 662 L225 0 L228 0 L184 -92 L207 -103 C207 -103 224 -91 243 -91 C271 -91 296 -107 296 -135 C296 -166 268 -184 234 -184 C193 -184 168 -161 168 -161 L149 -190 C149 -190 183 -220 234 -220 C296 -220 334 -178 334 -135 C334 -95 301 -57 244 -57 C241 -57 239 -57 236 -58 L264 0 L265 0 Z " />
<glyph glyph-name="uni0163" unicode="&#x163;" horiz-adv-x="340" d="M180 0 L180 372 L310 372 L310 410 L180 410 L180 630 L140 630 L140 410 L30 410 L30 372 L140 372 L140 0 L143 0 L99 -92 L122 -103 C122 -103 139 -91 158 -91 C186 -91 211 -107 211 -135 C211 -166 183 -184 149 -184 C108 -184 83 -161 83 -161 L64 -190 C64 -190 98 -220 149 -220 C211 -220 249 -178 249 -135 C249 -95 216 -57 159 -57 C156 -57 154 -57 151 -58 L179 0 L180 0 Z " />
<glyph glyph-name="Tcaron" unicode="&#x164;" horiz-adv-x="490" d="M267 770 L352 910 L315 910 L245 802 L174 910 L137 910 L222 770 L267 770 Z M470 700 L20 700 L20 662 L225 662 L225 0 L265 0 L265 662 L470 662 L470 700 Z " />
<glyph glyph-name="tcaron" unicode="&#x165;" horiz-adv-x="340" d="M310 700 L267 700 L247 490 L287 490 L310 700 Z M180 630 L140 630 L140 410 L30 410 L30 372 L140 372 L140 0 L180 0 L180 372 L310 372 L310 410 L180 410 L180 630 Z " />
<glyph glyph-name="Tbar" unicode="&#x166;" horiz-adv-x="490" d="M470 662 L470 700 L20 700 L20 662 L225 662 L225 374 L70 374 L70 336 L225 336 L225 0 L265 0 L265 336 L420 336 L420 374 L265 374 L265 662 L470 662 Z " />
<glyph glyph-name="tbar" unicode="&#x167;" horiz-adv-x="340" d="M310 372 L310 410 L180 410 L180 630 L140 630 L140 410 L30 410 L30 372 L140 372 L140 229 L30 229 L30 191 L140 191 L140 0 L180 0 L180 191 L310 191 L310 229 L180 229 L180 372 L310 372 Z " />
<glyph glyph-name="Utilde" unicode="&#x168;" horiz-adv-x="660" d="M222 836 C222 836 238 855 268 855 C317 855 341 829 390 829 C420 829 437 849 437 849 L437 885 C437 885 420 866 390 866 C341 866 317 892 268 892 C238 892 222 872 222 872 L222 836 Z M330 -15 C468 -15 570 87 570 245 L570 700 L530 700 L530 245 C530 109 446 23 330 23 C214 23 130 109 130 245 L130 700 L90 700 L90 245 C90 87 192 -15 330 -15 L330 -15 Z " />
<glyph glyph-name="utilde" unicode="&#x169;" horiz-adv-x="460" d="M122 596 C122 596 138 615 168 615 C217 615 241 589 290 589 C320 589 337 609 337 609 L337 645 C337 645 320 626 290 626 C241 626 217 652 168 652 C138 652 122 632 122 632 L122 596 Z M230 -15 C321 -15 390 50 390 145 L390 410 L350 410 L350 145 C350 72 299 25 230 25 C161 25 110 72 110 145 L110 410 L70 410 L70 145 C70 50 139 -15 230 -15 L230 -15 Z " />
<glyph glyph-name="Umacron" unicode="&#x16a;" horiz-adv-x="660" d="M222 841 L437 841 L437 879 L222 879 L222 841 Z M330 -15 C468 -15 570 87 570 245 L570 700 L530 700 L530 245 C530 109 446 23 330 23 C214 23 130 109 130 245 L130 700 L90 700 L90 245 C90 87 192 -15 330 -15 L330 -15 Z " />
<glyph glyph-name="umacron" unicode="&#x16b;" horiz-adv-x="460" d="M122 601 L337 601 L337 639 L122 639 L122 601 Z M230 -15 C321 -15 390 50 390 145 L390 410 L350 410 L350 145 C350 72 299 25 230 25 C161 25 110 72 110 145 L110 410 L70 410 L70 145 C70 50 139 -15 230 -15 L230 -15 Z " />
<glyph glyph-name="Ubreve" unicode="&#x16c;" horiz-adv-x="660" d="M212 910 C212 821 259 770 330 770 C400 770 447 821 447 910 L409 910 C409 842 376 806 330 806 C283 806 250 842 250 910 L212 910 Z M330 -15 C468 -15 570 87 570 245 L570 700 L530 700 L530 245 C530 109 446 23 330 23 C214 23 130 109 130 245 L130 700 L90 700 L90 245 C90 87 192 -15 330 -15 L330 -15 Z " />
<glyph glyph-name="ubreve" unicode="&#x16d;" horiz-adv-x="460" d="M112 670 C112 581 159 530 230 530 C300 530 347 581 347 670 L309 670 C309 602 276 566 230 566 C183 566 150 602 150 670 L112 670 Z M230 -15 C321 -15 390 50 390 145 L390 410 L350 410 L350 145 C350 72 299 25 230 25 C161 25 110 72 110 145 L110 410 L70 410 L70 145 C70 50 139 -15 230 -15 L230 -15 Z " />
<glyph glyph-name="Uring" unicode="&#x16e;" horiz-adv-x="660" d="M330 715 C386 715 430 759 430 815 C430 871 386 915 330 915 C274 915 230 871 230 815 C230 759 274 715 330 715 L330 715 Z M330 750 C294 750 265 779 265 815 C265 851 294 880 330 880 C366 880 395 851 395 815 C395 779 366 750 330 750 L330 750 Z M330 -15 C468 -15 570 87 570 245 L570 700 L530 700 L530 245 C530 109 446 23 330 23 C214 23 130 109 130 245 L130 700 L90 700 L90 245 C90 87 192 -15 330 -15 L330 -15 Z " />
<glyph glyph-name="uring" unicode="&#x16f;" horiz-adv-x="460" d="M230 475 C286 475 330 519 330 575 C330 631 286 675 230 675 C174 675 130 631 130 575 C130 519 174 475 230 475 L230 475 Z M230 510 C194 510 165 539 165 575 C165 611 194 640 230 640 C266 640 295 611 295 575 C295 539 266 510 230 510 L230 510 Z M230 -15 C321 -15 390 50 390 145 L390 410 L350 410 L350 145 C350 72 299 25 230 25 C161 25 110 72 110 145 L110 410 L70 410 L70 145 C70 50 139 -15 230 -15 L230 -15 Z " />
<glyph glyph-name="Uhungarumlaut" unicode="&#x170;" horiz-adv-x="660" d="M252 770 L289 770 L312 910 L272 910 L252 770 Z M372 770 L409 770 L432 910 L392 910 L372 770 Z M330 -15 C468 -15 570 87 570 245 L570 700 L530 700 L530 245 C530 109 446 23 330 23 C214 23 130 109 130 245 L130 700 L90 700 L90 245 C90 87 192 -15 330 -15 L330 -15 Z " />
<glyph glyph-name="uhungarumlaut" unicode="&#x171;" horiz-adv-x="460" d="M152 530 L189 530 L212 670 L172 670 L152 530 Z M272 530 L309 530 L332 670 L292 670 L272 530 Z M230 -15 C321 -15 390 50 390 145 L390 410 L350 410 L350 145 C350 72 299 25 230 25 C161 25 110 72 110 145 L110 410 L70 410 L70 145 C70 50 139 -15 230 -15 L230 -15 Z " />
<glyph glyph-name="Uogonek" unicode="&#x172;" horiz-adv-x="660" d="M530 700 L530 245 C530 109 446 23 330 23 C214 23 130 109 130 245 L130 700 L90 700 L90 245 C90 90 188 -11 322 -15 C283 -42 250 -77 250 -125 C250 -182 289 -225 354 -225 C417 -225 450 -178 450 -178 L426 -155 C426 -155 399 -189 354 -189 C317 -189 288 -165 288 -125 C288 -79 328 -46 385 -9 C494 14 570 109 570 245 L570 700 L530 700 Z " />
<glyph glyph-name="uogonek" unicode="&#x173;" horiz-adv-x="460" d="M294 -3 C351 20 390 74 390 145 L390 410 L350 410 L350 145 C350 72 299 25 230 25 C161 25 110 72 110 145 L110 410 L70 410 L70 145 C70 53 135 -11 221 -15 C182 -42 149 -77 149 -125 C149 -182 188 -225 253 -225 C316 -225 349 -178 349 -178 L325 -155 C325 -155 298 -189 253 -189 C216 -189 187 -165 187 -125 C187 -76 232 -42 294 -3 L294 -3 Z " />
<glyph glyph-name="Wcircumflex" unicode="&#x174;" horiz-adv-x="1040" d="M520 878 L590 770 L627 770 L542 910 L497 910 L412 770 L449 770 L520 878 Z M977 700 L746 81 L530 700 L510 700 L295 81 L63 700 L20 700 L284 0 L306 0 L520 609 L734 0 L756 0 L1020 700 L977 700 Z " />
<glyph glyph-name="wcircumflex" unicode="&#x175;" horiz-adv-x="630" d="M315 588 L385 480 L422 480 L337 620 L292 620 L207 480 L244 480 L315 588 Z M577 410 L445 79 L327 410 L303 410 L185 79 L53 410 L10 410 L173 0 L197 0 L315 332 L433 0 L457 0 L620 410 L577 410 Z " />
<glyph glyph-name="Ycircumflex" unicode="&#x176;" horiz-adv-x="580" d="M182 770 L219 770 L290 878 L360 770 L397 770 L312 910 L267 910 L182 770 Z M270 0 L310 0 L310 360 L570 700 L520 700 L290 397 L60 700 L10 700 L270 360 L270 0 Z " />
<glyph glyph-name="ycircumflex" unicode="&#x177;" horiz-adv-x="420" d="M210 588 L280 480 L317 480 L232 620 L187 620 L102 480 L139 480 L210 588 Z M367 410 L210 60 L53 410 L10 410 L189 15 L81 -220 L124 -220 L410 410 L367 410 Z " />
<glyph glyph-name="Ydieresis" unicode="&#x178;" horiz-adv-x="580" d="M215 805 C235 805 250 820 250 840 C250 860 235 875 215 875 C195 875 180 860 180 840 C180 820 195 805 215 805 L215 805 Z M365 805 C385 805 400 820 400 840 C400 860 385 875 365 875 C345 875 330 860 330 840 C330 820 345 805 365 805 L365 805 Z M270 0 L310 0 L310 360 L570 700 L520 700 L290 397 L60 700 L10 700 L270 360 L270 0 Z " />
<glyph glyph-name="Zacute" unicode="&#x179;" horiz-adv-x="650" d="M307 770 L344 770 L367 910 L327 910 L307 770 Z M50 0 L600 0 L600 38 L120 38 L600 690 L600 700 L50 700 L50 662 L530 662 L50 10 L50 0 Z " />
<glyph glyph-name="zacute" unicode="&#x17a;" horiz-adv-x="380" d="M172 480 L209 480 L232 620 L192 620 L172 480 Z M30 0 L350 0 L350 38 L96 38 L350 400 L350 410 L30 410 L30 372 L284 372 L30 10 L30 0 Z " />
<glyph glyph-name="Zdotaccent" unicode="&#x17b;" horiz-adv-x="650" d="M325 805 C345 805 360 820 360 840 C360 860 345 875 325 875 C305 875 290 860 290 840 C290 820 305 805 325 805 L325 805 Z M50 0 L600 0 L600 38 L120 38 L600 690 L600 700 L50 700 L50 662 L530 662 L50 10 L50 0 Z " />
<glyph glyph-name="zdotaccent" unicode="&#x17c;" horiz-adv-x="380" d="M190 515 C210 515 225 530 225 550 C225 570 210 585 190 585 C170 585 155 570 155 550 C155 530 170 515 190 515 L190 515 Z M30 0 L350 0 L350 38 L96 38 L350 400 L350 410 L30 410 L30 372 L284 372 L30 10 L30 0 Z " />
<glyph glyph-name="Zcaron" unicode="&#x17d;" horiz-adv-x="650" d="M217 910 L302 770 L347 770 L432 910 L395 910 L325 802 L254 910 L217 910 Z M50 0 L600 0 L600 38 L120 38 L600 690 L600 700 L50 700 L50 662 L530 662 L50 10 L50 0 Z " />
<glyph glyph-name="zcaron" unicode="&#x17e;" horiz-adv-x="380" d="M82 620 L167 480 L212 480 L297 620 L260 620 L190 512 L119 620 L82 620 Z M30 0 L350 0 L350 38 L96 38 L350 400 L350 410 L30 410 L30 372 L284 372 L30 10 L30 0 Z " />
<glyph glyph-name="florin" unicode="&#x192;" horiz-adv-x="600" d="M414 677 C468 677 492 638 520 568 L560 580 C527 667 487 715 412 715 C293 715 262 580 260 269 L83 269 L83 231 L260 231 C260 -67 240 -197 146 -197 C91 -197 68 -158 40 -88 L0 -100 C33 -187 72 -235 148 -235 C270 -235 299 -95 300 231 L487 231 L487 269 L300 269 C301 552 322 677 414 677 L414 677 Z " />
<glyph glyph-name="Aringacute" unicode="&#x1fa;" horiz-adv-x="720" d="M460 800 C460 847 429 886 385 897 L402 970 L362 970 L348 899 C298 893 260 852 260 800 C260 744 304 700 360 700 C416 700 460 744 460 800 L460 800 Z M360 735 C324 735 295 764 295 800 C295 836 324 865 360 865 C396 865 425 836 425 800 C425 764 396 735 360 735 L360 735 Z M676 0 L720 0 L384 700 L356 700 L20 0 L64 0 L207 299 L533 299 L676 0 Z M225 337 L370 642 L515 337 L225 337 Z " />
<glyph glyph-name="aringacute" unicode="&#x1fb;" horiz-adv-x="560" d="M440 410 L440 321 C416 362 380 394 335 411 C362 429 380 460 380 495 C380 542 349 581 305 592 L322 665 L282 665 L268 594 C218 588 180 547 180 495 C180 465 193 438 213 420 C114 399 40 311 40 205 C40 83 138 -15 260 -15 C339 -15 404 26 440 89 L440 0 L480 0 L480 410 L440 410 Z M280 560 C316 560 345 531 345 495 C345 459 316 430 280 430 C244 430 215 459 215 495 C215 531 244 560 280 560 L280 560 Z M260 23 C160 23 80 105 80 205 C80 305 160 387 260 387 C360 387 440 305 440 205 C440 105 360 23 260 23 L260 23 Z " />
<glyph glyph-name="AEacute" unicode="&#x1fc;" horiz-adv-x="940" d="M650 910 L610 910 L590 770 L627 770 L650 910 Z M702 38 L552 351 L885 351 L885 389 L533 389 L402 662 L860 662 L860 700 L356 700 L20 0 L64 0 L207 299 L533 299 L676 0 L890 0 L890 38 L702 38 Z M225 337 L370 642 L515 337 L225 337 Z " />
<glyph glyph-name="aeacute" unicode="&#x1fd;" horiz-adv-x="905" d="M502 670 L462 670 L442 530 L479 530 L502 670 Z M865 215 C865 328 778 425 655 425 C576 425 514 384 480 321 L480 410 L440 410 L440 321 C404 384 339 425 260 425 C138 425 40 327 40 205 C40 83 138 -15 260 -15 C339 -15 404 26 440 89 L440 0 L480 0 L480 92 C515 28 580 -15 660 -15 C748 -15 815 35 848 95 L815 112 C788 66 734 23 660 23 C560 23 480 105 480 205 L864 205 C864 205 865 209 865 215 L865 215 Z M260 23 C160 23 80 105 80 205 C80 305 160 387 260 387 C360 387 440 305 440 205 C440 105 360 23 260 23 L260 23 Z M655 387 C746 387 809 323 822 243 L484 243 C500 325 568 387 655 387 L655 387 Z " />
<glyph glyph-name="Oslashacute" unicode="&#x1fe;" horiz-adv-x="830" d="M457 910 L417 910 L397 770 L434 770 L457 910 Z M780 700 L733 700 L659 624 C595 681 510 715 415 715 C210 715 50 555 50 350 C50 252 87 164 147 99 L50 0 L97 0 L171 76 C235 19 320 -15 415 -15 C620 -15 780 145 780 350 C780 448 743 536 683 601 L780 700 Z M90 350 C90 534 232 677 415 677 C499 677 575 647 632 596 L174 127 C122 185 90 263 90 350 L90 350 Z M740 350 C740 166 598 23 415 23 C331 23 255 53 198 104 L656 573 C708 515 740 437 740 350 L740 350 Z " />
<glyph glyph-name="oslashacute" unicode="&#x1ff;" horiz-adv-x="520" d="M302 670 L262 670 L242 530 L279 530 L302 670 Z M480 410 L433 410 L400 375 C362 406 313 425 260 425 C138 425 40 327 40 205 C40 148 61 97 96 58 L40 0 L87 0 L120 35 C158 4 207 -15 260 -15 C382 -15 480 83 480 205 C480 262 459 313 424 352 L480 410 Z M80 205 C80 305 160 387 260 387 C303 387 342 372 373 347 L123 87 C96 119 80 160 80 205 L80 205 Z M440 205 C440 105 360 23 260 23 C217 23 178 38 147 63 L397 323 C424 291 440 250 440 205 L440 205 Z " />
<glyph glyph-name="Scommaaccent" unicode="&#x218;" horiz-adv-x="515" d="M265 -15 C388 -15 465 69 465 172 C465 283 367 335 275 381 C194 422 115 469 115 547 C115 622 176 677 272 677 C363 677 416 618 416 618 L445 646 C445 646 382 715 271 715 C152 715 75 644 75 547 C75 445 167 390 256 345 C342 302 425 259 425 172 C425 91 365 23 264 23 C145 23 84 132 84 132 L50 111 C50 111 121 -15 265 -15 L265 -15 Z M225 -210 L262 -210 L285 -70 L245 -70 L225 -210 Z " />
<glyph glyph-name="scommaaccent" unicode="&#x219;" horiz-adv-x="341" d="M180 -15 C253 -15 301 39 301 103 C301 171 242 206 185 231 C134 252 100 277 100 319 C100 358 130 387 188 387 C239 387 273 349 273 349 L298 376 C298 376 258 425 182 425 C108 425 60 378 60 317 C60 254 114 220 169 196 C222 173 261 148 261 101 C261 59 235 23 182 23 C107 23 71 92 71 92 L40 71 C40 71 84 -15 180 -15 L180 -15 Z M140 -210 L177 -210 L200 -70 L160 -70 L140 -210 Z " />
<glyph glyph-name="uni021A" unicode="&#x21a;" horiz-adv-x="490" d="M470 700 L20 700 L20 662 L225 662 L225 0 L265 0 L265 662 L470 662 L470 700 Z M205 -210 L242 -210 L265 -70 L225 -70 L205 -210 Z " />
<glyph glyph-name="uni021B" unicode="&#x21b;" horiz-adv-x="340" d="M310 410 L180 410 L180 630 L140 630 L140 410 L30 410 L30 372 L140 372 L140 0 L180 0 L180 372 L310 372 L310 410 Z M120 -210 L157 -210 L180 -70 L140 -70 L120 -210 Z " />
<glyph glyph-name="circumflex" unicode="&#x2c6;" horiz-adv-x="600" d="M80 560 L117 560 L188 668 L258 560 L295 560 L210 700 L165 700 L80 560 Z " />
<glyph glyph-name="caron" unicode="&#x2c7;" horiz-adv-x="600" d="M80 700 L165 560 L210 560 L295 700 L258 700 L188 592 L117 700 L80 700 Z " />
<glyph glyph-name="breve" unicode="&#x2d8;" horiz-adv-x="600" d="M80 700 C80 611 127 560 198 560 C268 560 315 611 315 700 L277 700 C277 632 244 596 198 596 C151 596 118 632 118 700 L80 700 Z " />
<glyph glyph-name="dotaccent" unicode="&#x2d9;" horiz-adv-x="600" d="M115 595 C135 595 150 610 150 630 C150 650 135 665 115 665 C95 665 80 650 80 630 C80 610 95 595 115 595 L115 595 Z " />
<glyph glyph-name="ring" unicode="&#x2da;" horiz-adv-x="600" d="M180 505 C236 505 280 549 280 605 C280 661 236 705 180 705 C124 705 80 661 80 605 C80 549 124 505 180 505 L180 505 Z M180 540 C144 540 115 569 115 605 C115 641 144 670 180 670 C216 670 245 641 245 605 C245 569 216 540 180 540 L180 540 Z " />
<glyph glyph-name="ogonek" unicode="&#x2db;" horiz-adv-x="600" d="M184 -225 C247 -225 280 -178 280 -178 L256 -155 C256 -155 229 -189 184 -189 C147 -189 118 -165 118 -125 C118 -75 165 -40 230 0 L193 10 C138 -20 80 -61 80 -125 C80 -182 119 -225 184 -225 L184 -225 Z " />
<glyph glyph-name="tilde" unicode="&#x2dc;" horiz-adv-x="600" d="M60 626 C60 626 76 645 106 645 C155 645 179 619 228 619 C258 619 275 639 275 639 L275 675 C275 675 258 656 228 656 C179 656 155 682 106 682 C76 682 60 662 60 662 L60 626 Z " />
<glyph glyph-name="hungarumlaut" unicode="&#x2dd;" horiz-adv-x="600" d="M80 560 L117 560 L140 700 L100 700 L80 560 Z M200 560 L237 560 L260 700 L220 700 L200 560 Z " />
<glyph glyph-name="gravecomb" unicode="&#x300;" d="M-80 560 L-100 700 L-140 700 L-117 560 L-80 560 Z " />
<glyph glyph-name="acutecomb" unicode="&#x301;" d="M-140 560 L-103 560 L-80 700 L-120 700 L-140 560 Z " />
<glyph glyph-name="uni0302" unicode="&#x302;" d="M-295 560 L-258 560 L-187 668 L-117 560 L-80 560 L-165 700 L-210 700 L-295 560 Z " />
<glyph glyph-name="tildecomb" unicode="&#x303;" d="M-275 626 C-275 626 -259 645 -229 645 C-180 645 -156 619 -107 619 C-77 619 -60 639 -60 639 L-60 675 C-60 675 -77 656 -107 656 C-156 656 -180 682 -229 682 C-259 682 -275 662 -275 662 L-275 626 Z " />
<glyph glyph-name="uni0304" unicode="&#x304;" d="M-275 631 L-60 631 L-60 669 L-275 669 L-275 631 Z " />
<glyph glyph-name="uni0306" unicode="&#x306;" d="M-315 700 C-315 611 -268 560 -197 560 C-127 560 -80 611 -80 700 L-118 700 C-118 632 -151 596 -197 596 C-244 596 -277 632 -277 700 L-315 700 Z " />
<glyph glyph-name="uni0307" unicode="&#x307;" d="M-115 595 C-95 595 -80 610 -80 630 C-80 650 -95 665 -115 665 C-135 665 -150 650 -150 630 C-150 610 -135 595 -115 595 L-115 595 Z " />
<glyph glyph-name="uni0308" unicode="&#x308;" d="M-265 595 C-245 595 -230 610 -230 630 C-230 650 -245 665 -265 665 C-285 665 -300 650 -300 630 C-300 610 -285 595 -265 595 L-265 595 Z M-115 595 C-95 595 -80 610 -80 630 C-80 650 -95 665 -115 665 C-135 665 -150 650 -150 630 C-150 610 -135 595 -115 595 L-115 595 Z " />
<glyph glyph-name="uni030A" unicode="&#x30a;" d="M-180 505 C-124 505 -80 549 -80 605 C-80 661 -124 705 -180 705 C-236 705 -280 661 -280 605 C-280 549 -236 505 -180 505 L-180 505 Z M-180 540 C-216 540 -245 569 -245 605 C-245 641 -216 670 -180 670 C-144 670 -115 641 -115 605 C-115 569 -144 540 -180 540 L-180 540 Z " />
<glyph glyph-name="uni030B" unicode="&#x30b;" d="M-260 560 L-223 560 L-200 700 L-240 700 L-260 560 Z M-140 560 L-103 560 L-80 700 L-120 700 L-140 560 Z " />
<glyph glyph-name="uni030C" unicode="&#x30c;" d="M-295 700 L-210 560 L-165 560 L-80 700 L-117 700 L-187 592 L-258 700 L-295 700 Z " />
<glyph glyph-name="uni0312" unicode="&#x312;" d="M-80 700 L-117 700 L-140 560 L-100 560 L-80 700 Z " />
<glyph glyph-name="uni0326" unicode="&#x326;" d="M-140 -220 L-103 -220 L-80 -80 L-120 -80 L-140 -220 Z " />
<glyph glyph-name="uni0327" unicode="&#x327;" d="M-170 -57 C-173 -57 -175 -57 -178 -58 L-150 0 L-186 0 L-230 -92 L-207 -103 C-207 -103 -190 -91 -171 -91 C-143 -91 -118 -107 -118 -135 C-118 -166 -146 -184 -180 -184 C-221 -184 -246 -161 -246 -161 L-265 -190 C-265 -190 -231 -220 -180 -220 C-118 -220 -80 -178 -80 -135 C-80 -95 -113 -57 -170 -57 L-170 -57 Z " />
<glyph glyph-name="uni0328" unicode="&#x328;" d="M-176 -225 C-113 -225 -80 -178 -80 -178 L-104 -155 C-104 -155 -131 -189 -176 -189 C-213 -189 -242 -165 -242 -125 C-242 -75 -195 -40 -130 0 L-167 10 C-222 -20 -280 -61 -280 -125 C-280 -182 -241 -225 -176 -225 L-176 -225 Z " />
<glyph glyph-name="uni0394" unicode="&#x394;" horiz-adv-x="720" d="M374 700 L346 700 L20 0 L700 0 L374 700 Z M82 38 L360 641 L638 38 L82 38 Z " />
<glyph glyph-name="uni03A9" unicode="&#x3a9;" horiz-adv-x="830" d="M780 350 C780 555 620 715 415 715 C210 715 50 555 50 350 C50 211 123 97 234 38 L60 38 L60 0 L315 0 L315 38 C183 79 90 201 90 350 C90 534 232 677 415 677 C598 677 740 534 740 350 C740 201 647 79 515 38 L515 0 L770 0 L770 38 L596 38 C707 97 780 211 780 350 L780 350 Z " />
<glyph glyph-name="uni03BC" unicode="&#x3bc;" horiz-adv-x="470" d="M360 410 L360 145 C360 72 309 25 240 25 C171 25 120 72 120 145 L120 410 L80 410 L80 -220 L120 -220 L120 43 C146 6 188 -15 240 -15 C331 -15 400 50 400 145 L400 410 L360 410 Z " />
<glyph glyph-name="pi" unicode="&#x3c0;" horiz-adv-x="600" d="M570 410 L30 410 L30 372 L140 372 L140 0 L180 0 L180 372 L420 372 L420 0 L460 0 L460 372 L570 372 L570 410 Z " />
<glyph glyph-name="Wgrave" unicode="&#x1e80;" horiz-adv-x="1040" d="M538 770 L518 910 L478 910 L501 770 L538 770 Z M977 700 L746 81 L530 700 L510 700 L295 81 L63 700 L20 700 L284 0 L306 0 L520 609 L734 0 L756 0 L1020 700 L977 700 Z " />
<glyph glyph-name="wgrave" unicode="&#x1e81;" horiz-adv-x="630" d="M333 480 L313 620 L273 620 L296 480 L333 480 Z M577 410 L445 79 L327 410 L303 410 L185 79 L53 410 L10 410 L173 0 L197 0 L315 332 L433 0 L457 0 L620 410 L577 410 Z " />
<glyph glyph-name="Wacute" unicode="&#x1e82;" horiz-adv-x="1040" d="M562 910 L522 910 L502 770 L539 770 L562 910 Z M977 700 L746 81 L530 700 L510 700 L295 81 L63 700 L20 700 L284 0 L306 0 L520 609 L734 0 L756 0 L1020 700 L977 700 Z " />
<glyph glyph-name="wacute" unicode="&#x1e83;" horiz-adv-x="630" d="M357 620 L317 620 L297 480 L334 480 L357 620 Z M577 410 L445 79 L327 410 L303 410 L185 79 L53 410 L10 410 L173 0 L197 0 L315 332 L433 0 L457 0 L620 410 L577 410 Z " />
<glyph glyph-name="Wdieresis" unicode="&#x1e84;" horiz-adv-x="1040" d="M445 805 C465 805 480 820 480 840 C480 860 465 875 445 875 C425 875 410 860 410 840 C410 820 425 805 445 805 L445 805 Z M595 805 C615 805 630 820 630 840 C630 860 615 875 595 875 C575 875 560 860 560 840 C560 820 575 805 595 805 L595 805 Z M977 700 L746 81 L530 700 L510 700 L295 81 L63 700 L20 700 L284 0 L306 0 L520 609 L734 0 L756 0 L1020 700 L977 700 Z " />
<glyph glyph-name="wdieresis" unicode="&#x1e85;" horiz-adv-x="630" d="M240 515 C260 515 275 530 275 550 C275 570 260 585 240 585 C220 585 205 570 205 550 C205 530 220 515 240 515 L240 515 Z M390 515 C410 515 425 530 425 550 C425 570 410 585 390 585 C370 585 355 570 355 550 C355 530 370 515 390 515 L390 515 Z M577 410 L445 79 L327 410 L303 410 L185 79 L53 410 L10 410 L173 0 L197 0 L315 332 L433 0 L457 0 L620 410 L577 410 Z " />
<glyph glyph-name="Ygrave" unicode="&#x1ef2;" horiz-adv-x="580" d="M308 770 L288 910 L248 910 L271 770 L308 770 Z M270 0 L310 0 L310 360 L570 700 L520 700 L290 397 L60 700 L10 700 L270 360 L270 0 Z " />
<glyph glyph-name="ygrave" unicode="&#x1ef3;" horiz-adv-x="420" d="M228 480 L208 620 L168 620 L191 480 L228 480 Z M367 410 L210 60 L53 410 L10 410 L189 15 L81 -220 L124 -220 L410 410 L367 410 Z " />
<glyph glyph-name="endash" unicode="&#x2013;" horiz-adv-x="690" d="M80 290 L610 290 L610 328 L80 328 L80 290 Z " />
<glyph glyph-name="emdash" unicode="&#x2014;" horiz-adv-x="920" d="M80 290 L840 290 L840 328 L80 328 L80 290 Z " />
<glyph glyph-name="quoteleft" unicode="&#x2018;" horiz-adv-x="230" d="M150 700 L110 700 L87 490 L130 490 L150 700 Z " />
<glyph glyph-name="quoteright" unicode="&#x2019;" horiz-adv-x="230" d="M80 490 L120 490 L143 700 L100 700 L80 490 Z " />
<glyph glyph-name="quotesinglbase" unicode="&#x201a;" horiz-adv-x="230" d="M80 -150 L120 -150 L143 60 L100 60 L80 -150 Z " />
<glyph glyph-name="quotedblleft" unicode="&#x201c;" horiz-adv-x="390" d="M150 700 L110 700 L87 490 L130 490 L150 700 Z M310 700 L270 700 L247 490 L290 490 L310 700 Z " />
<glyph glyph-name="quotedblright" unicode="&#x201d;" horiz-adv-x="390" d="M80 490 L120 490 L143 700 L100 700 L80 490 Z M240 490 L280 490 L303 700 L260 700 L240 490 Z " />
<glyph glyph-name="quotedblbase" unicode="&#x201e;" horiz-adv-x="390" d="M80 -150 L120 -150 L143 60 L100 60 L80 -150 Z M240 -150 L280 -150 L303 60 L260 60 L240 -150 Z " />
<glyph glyph-name="dagger" unicode="&#x2020;" horiz-adv-x="370" d="M310 600 L205 600 L205 700 L165 700 L165 600 L60 600 L60 562 L165 562 L165 260 L205 260 L205 562 L310 562 L310 600 Z " />
<glyph glyph-name="daggerdbl" unicode="&#x2021;" horiz-adv-x="370" d="M310 562 L310 600 L205 600 L205 700 L165 700 L165 600 L60 600 L60 562 L165 562 L165 398 L60 398 L60 360 L165 360 L165 260 L205 260 L205 360 L310 360 L310 398 L205 398 L205 562 L310 562 Z " />
<glyph glyph-name="bullet" unicode="&#x2022;" horiz-adv-x="260" d="M130 300 C159 300 180 321 180 350 C180 379 159 400 130 400 C101 400 80 379 80 350 C80 321 101 300 130 300 L130 300 Z " />
<glyph glyph-name="ellipsis" unicode="&#x2026;" horiz-adv-x="850" d="M115 -5 C135 -5 150 10 150 30 C150 50 135 65 115 65 C95 65 80 50 80 30 C80 10 95 -5 115 -5 L115 -5 Z M425 -5 C445 -5 460 10 460 30 C460 50 445 65 425 65 C405 65 390 50 390 30 C390 10 405 -5 425 -5 L425 -5 Z M735 -5 C755 -5 770 10 770 30 C770 50 755 65 735 65 C715 65 700 50 700 30 C700 10 715 -5 735 -5 L735 -5 Z " />
<glyph glyph-name="perthousand" unicode="&#x2030;" horiz-adv-x="1280" d="M220 395 C310 395 380 465 380 555 C380 645 310 715 220 715 C130 715 60 645 60 555 C60 465 130 395 220 395 L220 395 Z M230 0 L273 0 L650 700 L607 700 L230 0 Z M220 434 C153 434 100 488 100 555 C100 622 153 676 220 676 C287 676 340 622 340 555 C340 488 287 434 220 434 L220 434 Z M660 -15 C750 -15 820 55 820 145 C820 235 750 305 660 305 C570 305 500 235 500 145 C500 55 570 -15 660 -15 L660 -15 Z M1060 -15 C1150 -15 1220 55 1220 145 C1220 235 1150 305 1060 305 C970 305 900 235 900 145 C900 55 970 -15 1060 -15 L1060 -15 Z M660 24 C593 24 540 78 540 145 C540 212 593 266 660 266 C727 266 780 212 780 145 C780 78 727 24 660 24 L660 24 Z M1060 24 C993 24 940 78 940 145 C940 212 993 266 1060 266 C1127 266 1180 212 1180 145 C1180 78 1127 24 1060 24 L1060 24 Z " />
<glyph glyph-name="guilsinglleft" unicode="&#x2039;" horiz-adv-x="410" d="M330 175 L330 213 L128 350 L330 487 L330 525 L80 355 L80 345 L330 175 Z " />
<glyph glyph-name="guilsinglright" unicode="&#x203a;" horiz-adv-x="410" d="M80 175 L330 345 L330 355 L80 525 L80 487 L282 350 L80 213 L80 175 Z " />
<glyph glyph-name="fraction" unicode="&#x2044;" horiz-adv-x="120" d="M-150 0 L-107 0 L270 700 L227 700 L-150 0 Z " />
<glyph glyph-name="Euro" unicode="&#x20ac;" horiz-adv-x="530" d="M314 23 C226 23 168 113 153 266 L380 266 L380 304 L150 304 C149 319 149 334 149 350 C149 366 149 381 150 396 L420 396 L420 434 L153 434 C168 587 226 677 314 677 C370 677 412 638 440 568 L480 580 C447 667 391 715 314 715 C200 715 129 614 113 434 L40 434 L40 396 L110 396 C109 381 109 366 109 350 C109 334 109 319 110 304 L40 304 L40 266 L113 266 C129 86 200 -15 314 -15 C391 -15 447 33 480 120 L440 132 C412 62 370 23 314 23 L314 23 Z " />
<glyph glyph-name="trademark" unicode="&#x2122;" horiz-adv-x="586" d="M60 665 L127 665 L127 448 L165 448 L165 665 L232 665 L232 700 L60 700 L60 665 Z M494 700 L390 505 L286 700 L254 700 L254 448 L292 448 L292 614 L383 448 L397 448 L488 614 L488 448 L526 448 L526 700 L494 700 Z " />
<glyph glyph-name="minus" unicode="&#x2212;" horiz-adv-x="530" d="M80 290 L450 290 L450 328 L80 328 L80 290 Z " />
<glyph glyph-name="approxequal" unicode="&#x2248;" horiz-adv-x="530" d="M80 378 C80 378 108 406 160 406 C245 406 280 356 370 356 C422 356 450 386 450 386 L450 422 C450 422 422 394 370 394 C285 394 250 444 160 444 C108 444 80 414 80 414 L80 378 Z M80 198 C80 198 108 226 160 226 C245 226 280 176 370 176 C422 176 450 206 450 206 L450 242 C450 242 422 214 370 214 C285 214 250 264 160 264 C108 264 80 234 80 234 L80 198 Z " />
<glyph glyph-name="notequal" unicode="&#x2260;" horiz-adv-x="530" d="M450 380 L450 418 L328 418 L365 514 L324 514 L287 418 L80 418 L80 380 L272 380 L217 238 L80 238 L80 200 L202 200 L165 104 L206 104 L243 200 L450 200 L450 238 L258 238 L313 380 L450 380 Z " />
<glyph glyph-name="lessequal" unicode="&#x2264;" horiz-adv-x="530" d="M450 248 L450 291 L136 423 L450 555 L450 598 L80 438 L80 408 L450 248 Z M450 123 L450 161 L80 161 L80 123 L450 123 Z " />
<glyph glyph-name="greaterequal" unicode="&#x2265;" horiz-adv-x="530" d="M80 248 L450 408 L450 438 L80 598 L80 555 L394 423 L80 291 L80 248 Z M80 123 L450 123 L450 161 L80 161 L80 123 Z " />
<glyph glyph-name="fi" unicode="&#xfb01;" horiz-adv-x="560" d="M140 613 L140 410 L30 410 L30 372 L140 372 L140 0 L180 0 L180 372 L310 372 L310 410 L180 410 L180 613 C180 677 215 717 272 717 C313 717 340 698 340 698 L340 738 C340 738 317 755 272 755 C191 755 140 701 140 613 L140 613 Z M450 635 C430 635 415 620 415 600 C415 580 430 565 450 565 C470 565 485 580 485 600 C485 620 470 635 450 635 L450 635 Z M430 0 L470 0 L470 410 L430 410 L430 0 Z " />
<glyph glyph-name="fl" unicode="&#xfb02;" horiz-adv-x="560" d="M140 613 L140 410 L30 410 L30 372 L140 372 L140 0 L180 0 L180 372 L310 372 L310 410 L180 410 L180 613 C180 677 215 717 272 717 C313 717 340 698 340 698 L340 738 C340 738 317 755 272 755 C191 755 140 701 140 613 L140 613 Z M430 740 L430 0 L470 0 L470 740 L430 740 Z " />
</font>
</svg>
