<?xml version="1.0" encoding="UTF-8"?>
<svg xmlns="http://www.w3.org/2000/svg" xmlns:xlink="http://www.w3.org/1999/xlink" version="1.2" >
<font id="Intervogue Alt Med Oblq">
<font-face  font-family="Intervogue Alt" units-per-em="1000" ascent="740" descent="-220" font-style="italic" font-weight="500" font-stretch="normal" slope="-12" cap-height="710" x-height="445" underline-position="-75" underline-thickness="50" />
<missing-glyph  horiz-adv-x="600" d="M-24 65 L557 65 L681 645 L101 645 L-24 65 Z M190 267 L283 360 L190 453 L236 499 L329 406 L422 499 L468 453 L375 360 L468 267 L422 221 L329 314 L236 221 L190 267 Z " />
<glyph glyph-name="NULL" d="" />
<glyph glyph-name="CR" unicode="&#xd;" horiz-adv-x="250" d="" />
<glyph glyph-name="space" unicode="&#x20;" horiz-adv-x="300" d="" />
<glyph glyph-name="exclam" unicode="&#x21;" horiz-adv-x="255" d="M85 220 L170 220 L286 710 L176 710 L85 220 Z M93 -10 C132 -10 160 20 160 58 C160 96 132 125 93 125 C54 125 25 96 25 58 C25 20 54 -10 93 -10 L93 -10 Z " />
<glyph glyph-name="quotedbl" unicode="&#x22;" horiz-adv-x="453" d="M127 440 L227 440 L284 710 L184 710 L127 440 Z M320 440 L420 440 L477 710 L377 710 L320 440 Z " />
<glyph glyph-name="numbersign" unicode="&#x23;" horiz-adv-x="545" d="M554 710 L489 710 L411 488 L286 488 L364 710 L299 710 L221 488 L107 488 L93 424 L198 424 L149 287 L64 287 L51 223 L127 223 L48 0 L113 0 L192 223 L317 223 L238 0 L303 0 L382 223 L496 223 L509 287 L404 287 L453 424 L538 424 L552 488 L476 488 L554 710 Z M339 287 L214 287 L263 424 L388 424 L339 287 Z " />
<glyph glyph-name="dollar" unicode="&#x24;" horiz-adv-x="545" d="M349 410 L396 631 C465 615 484 557 484 557 L568 593 C568 593 538 696 415 720 L432 800 L384 800 L368 725 L360 725 C242 725 164 669 144 576 C124 482 182 393 283 327 L230 79 C134 99 114 195 114 195 L28 162 C28 162 56 17 211 -10 L192 -100 L240 -100 L258 -15 L265 -15 C387 -15 469 54 490 152 C513 254 452 341 349 410 L349 410 Z M246 560 C255 604 289 632 349 635 L307 440 C259 479 238 520 246 560 L246 560 Z M388 166 C379 117 341 81 278 76 L325 297 C374 256 398 211 388 166 L388 166 Z " />
<glyph glyph-name="percent" unicode="&#x25;" horiz-adv-x="880" d="M293 385 C389 385 464 460 464 555 C464 651 389 725 293 725 C196 725 121 651 121 555 C121 460 196 385 293 385 L293 385 Z M168 0 L228 0 L769 710 L709 710 L168 0 Z M293 462 C241 462 200 504 200 555 C200 607 241 648 293 648 C344 648 385 607 385 555 C385 504 344 462 293 462 L293 462 Z M645 -15 C741 -15 816 60 816 155 C816 251 741 325 645 325 C548 325 473 251 473 155 C473 60 548 -15 645 -15 L645 -15 Z M645 62 C593 62 552 104 552 155 C552 207 593 248 645 248 C696 248 737 207 737 155 C737 104 696 62 645 62 L645 62 Z " />
<glyph glyph-name="ampersand" unicode="&#x26;" horiz-adv-x="618" d="M619 360 L512 360 L406 237 L329 369 C430 441 475 488 488 553 C507 638 447 725 345 725 C258 725 188 670 170 585 C154 513 182 448 216 386 C96 303 44 252 27 173 C5 68 78 -15 181 -15 C252 -15 315 19 387 91 L440 0 L543 0 L450 161 L619 360 Z M257 574 C266 617 297 646 338 646 C384 646 409 605 399 559 C391 519 363 490 290 437 C261 494 249 535 257 574 L257 574 Z M204 70 C150 70 116 116 127 171 C136 216 167 252 256 317 L344 165 C285 97 246 71 204 70 L204 70 Z " />
<glyph glyph-name="quotesingle" unicode="&#x27;" horiz-adv-x="260" d="M127 440 L227 440 L284 710 L184 710 L127 440 Z " />
<glyph glyph-name="parenleft" unicode="&#x28;" horiz-adv-x="290" d="M353 710 L248 710 C248 710 121 605 73 382 C26 160 107 0 107 0 L202 0 C202 0 119 155 165 370 C211 585 353 710 353 710 L353 710 Z " />
<glyph glyph-name="parenright" unicode="&#x29;" horiz-adv-x="290" d="M-7 0 L98 0 C98 0 225 105 273 328 C320 550 239 710 239 710 L144 710 C144 710 227 555 181 340 C135 125 -7 0 -7 0 L-7 0 Z " />
<glyph glyph-name="asterisk" unicode="&#x2a;" horiz-adv-x="451" d="M463 563 L441 629 L337 591 L363 700 L295 714 L276 605 L196 681 L149 630 L234 558 L127 527 L148 461 L252 498 L226 391 L294 377 L314 486 L394 409 L441 460 L357 532 L463 563 Z " />
<glyph glyph-name="plus" unicode="&#x2b;" horiz-adv-x="545" d="M514 357 L350 357 L385 522 L288 522 L253 357 L89 357 L69 263 L233 263 L198 97 L295 97 L330 263 L494 263 L514 357 Z " />
<glyph glyph-name="comma" unicode="&#x2c;" horiz-adv-x="255" d="M-19 -150 L75 -150 L162 120 L57 120 L-19 -150 Z " />
<glyph glyph-name="hyphen" unicode="&#x2d;" horiz-adv-x="440" d="M69 262 L389 262 L409 356 L89 356 L69 262 Z " />
<glyph glyph-name="period" unicode="&#x2e;" horiz-adv-x="255" d="M93 -10 C132 -10 160 20 160 58 C160 96 132 125 93 125 C54 125 25 96 25 58 C25 20 54 -10 93 -10 L93 -10 Z " />
<glyph glyph-name="slash" unicode="&#x2f;" horiz-adv-x="530" d="M-59 -100 L24 -101 L643 800 L555 800 L-59 -100 Z " />
<glyph glyph-name="zero" unicode="0" horiz-adv-x="545" d="M242 -15 C374 -15 469 96 521 343 C573 589 497 725 360 725 C228 725 133 614 81 368 C29 121 105 -15 242 -15 L242 -15 Z M251 84 C175 84 147 183 185 363 C223 542 281 626 352 626 C427 626 455 527 417 348 C379 168 321 84 251 84 L251 84 Z " />
<glyph glyph-name="one" unicode="1" horiz-adv-x="370" d="M107 0 L212 0 L363 710 L143 710 L123 616 L238 616 L107 0 Z " />
<glyph glyph-name="two" unicode="2" horiz-adv-x="510" d="M-12 0 L409 0 L429 94 L175 94 L416 341 C466 395 508 448 522 515 C547 626 465 725 342 725 C221 725 147 658 99 548 L185 507 C218 586 264 629 327 629 C390 629 430 579 417 519 C409 478 385 444 337 395 L-1 50 L-12 0 Z " />
<glyph glyph-name="three" unicode="3" horiz-adv-x="490" d="M304 725 C224 725 157 686 108 629 L166 567 C206 608 243 630 289 630 C354 630 397 574 384 514 C370 449 319 400 213 400 L173 400 L158 330 L193 330 C308 330 344 263 329 191 C314 124 261 80 189 80 C134 80 90 109 64 154 L-13 104 C19 37 92 -15 191 -15 C315 -15 404 57 429 170 C445 246 419 319 354 360 C427 388 474 442 488 511 C513 626 434 725 304 725 L304 725 Z " />
<glyph glyph-name="four" unicode="4" horiz-adv-x="545" d="M535 293 L435 293 L524 710 L414 710 L33 259 L21 204 L316 204 L273 0 L373 0 L416 204 L516 204 L535 293 Z M154 293 L397 585 L335 293 L154 293 Z " />
<glyph glyph-name="five" unicode="5" horiz-adv-x="530" d="M524 616 L544 710 L184 710 L87 280 L150 280 C150 280 181 344 264 344 C342 344 393 278 377 206 C361 129 299 82 225 82 C165 82 120 116 100 163 L15 115 C46 42 117 -15 221 -15 C345 -15 446 59 474 194 C500 317 422 433 295 433 C262 433 235 425 211 414 L258 616 L524 616 Z " />
<glyph glyph-name="six" unicode="6" horiz-adv-x="545" d="M302 435 C286 435 271 433 257 429 L465 710 L349 710 L107 371 C75 327 56 285 46 239 C20 109 112 -15 248 -15 C372 -15 468 62 495 189 C523 318 436 435 302 435 L302 435 Z M398 198 C383 125 325 82 258 82 C177 82 128 153 144 228 C159 301 216 344 283 344 C364 344 413 273 398 198 L398 198 Z " />
<glyph glyph-name="seven" unicode="7" horiz-adv-x="475" d="M129 710 L108 611 L400 611 L36 0 L156 0 L544 665 L554 710 L129 710 Z " />
<glyph glyph-name="eight" unicode="8" horiz-adv-x="545" d="M543 508 C567 620 485 725 355 725 C245 725 157 665 133 553 C119 486 143 422 190 382 C120 358 68 306 50 223 C25 103 110 -15 247 -15 C365 -15 459 53 485 173 C500 247 473 316 419 357 C482 383 528 433 543 508 L543 508 Z M445 513 C432 452 385 412 325 412 C258 412 215 469 229 532 C242 593 288 629 348 629 C415 629 458 576 445 513 L445 513 Z M389 193 C375 125 321 82 255 82 C182 82 135 149 149 218 C164 285 216 324 282 324 C355 324 404 261 389 193 L389 193 Z " />
<glyph glyph-name="nine" unicode="9" horiz-adv-x="545" d="M354 725 C230 725 134 648 107 521 C79 392 166 275 300 275 C316 275 331 277 345 281 L137 0 L253 0 L495 339 C527 383 546 425 556 471 C582 601 490 725 354 725 L354 725 Z M458 482 C443 409 386 366 319 366 C238 366 189 437 204 512 C219 585 277 628 344 628 C425 628 474 557 458 482 L458 482 Z " />
<glyph glyph-name="colon" unicode="&#x3a;" horiz-adv-x="255" d="M163 320 C202 320 230 350 230 388 C230 426 202 455 163 455 C124 455 95 426 95 388 C95 350 124 320 163 320 L163 320 Z M93 -10 C132 -10 160 20 160 58 C160 96 132 125 93 125 C54 125 25 96 25 58 C25 20 54 -10 93 -10 L93 -10 Z " />
<glyph glyph-name="semicolon" unicode="&#x3b;" horiz-adv-x="255" d="M163 320 C202 320 230 350 230 388 C230 426 202 455 163 455 C124 455 95 426 95 388 C95 350 124 320 163 320 L163 320 Z M-19 -150 L75 -150 L162 120 L57 120 L-19 -150 Z " />
<glyph glyph-name="less" unicode="&#x3c;" horiz-adv-x="545" d="M558 565 L96 390 L81 320 L469 145 L489 240 L226 348 L535 457 L558 565 Z " />
<glyph glyph-name="equal" unicode="&#x3d;" horiz-adv-x="545" d="M90 363 L515 363 L534 452 L109 452 L90 363 Z M49 168 L474 168 L493 257 L68 257 L49 168 Z " />
<glyph glyph-name="greater" unicode="&#x3e;" horiz-adv-x="545" d="M44 145 L506 320 L521 390 L133 565 L113 470 L376 362 L67 253 L44 145 Z " />
<glyph glyph-name="question" unicode="&#x3f;" horiz-adv-x="495" d="M187 220 L301 220 L430 375 C478 432 510 478 521 532 C543 631 470 725 342 725 C205 725 123 647 105 525 L202 525 C214 593 260 636 330 636 C394 636 430 587 420 539 C414 509 398 483 365 443 L187 220 Z M166 -10 C205 -10 233 20 233 58 C233 96 205 125 166 125 C127 125 98 96 98 58 C98 20 127 -10 166 -10 L166 -10 Z " />
<glyph glyph-name="at" unicode="&#x40;" horiz-adv-x="1060" d="M537 725 C267 725 57 515 57 245 C57 -27 267 -230 537 -230 C593 -230 643 -221 685 -205 L660 -133 C623 -145 584 -151 537 -151 C311 -151 137 18 137 245 C137 471 311 646 537 646 C766 646 942 482 942 245 C942 99 867 26 796 26 C728 26 695 86 711 163 L767 424 L684 424 L667 352 C647 404 601 440 530 440 C432 440 351 373 328 264 C304 155 376 44 495 44 C553 44 594 69 623 110 C628 23 689 -48 783 -48 C918 -48 1017 75 1017 245 C1017 525 807 725 537 725 L537 725 Z M514 126 C443 126 399 190 413 255 C427 320 479 358 537 358 C608 358 652 294 638 229 C625 164 572 126 514 126 L514 126 Z " />
<glyph glyph-name="A" unicode="A" horiz-adv-x="740" d="M563 0 L683 0 L521 710 L427 710 L-38 0 L87 0 L222 212 L521 212 L563 0 Z M282 306 L449 570 L502 306 L282 306 Z " />
<glyph glyph-name="B" unicode="B" horiz-adv-x="535" d="M529 527 C548 621 484 710 364 710 L184 710 L33 0 L223 0 C366 0 452 66 477 185 C495 265 459 342 389 382 C466 401 514 455 529 527 L529 527 Z M422 523 C410 470 368 437 304 437 L236 437 L275 619 L331 619 C398 619 433 575 422 523 L422 523 Z M375 207 C359 132 306 92 219 92 L163 92 L217 348 L258 348 C344 348 391 282 375 207 L375 207 Z " />
<glyph glyph-name="C" unicode="C" horiz-adv-x="766" d="M415 -15 C547 -15 638 34 716 129 L636 191 C582 125 510 89 424 89 C261 89 152 231 187 395 C215 530 325 621 458 621 C582 621 654 546 684 468 L782 511 C739 619 637 725 468 725 C273 725 121 601 80 408 C33 186 190 -15 415 -15 L415 -15 Z " />
<glyph glyph-name="D" unicode="D" horiz-adv-x="650" d="M33 0 L243 0 C439 0 587 119 629 312 C677 534 551 710 325 710 L184 710 L33 0 Z M165 102 L272 609 L321 609 C481 609 555 490 522 325 C494 189 387 102 257 102 L165 102 Z " />
<glyph glyph-name="E" unicode="E" horiz-adv-x="535" d="M542 609 L564 710 L184 710 L33 0 L443 0 L465 102 L165 102 L217 347 L512 347 L532 441 L237 441 L273 609 L542 609 Z " />
<glyph glyph-name="F" unicode="F" horiz-adv-x="525" d="M542 609 L564 710 L184 710 L33 0 L143 0 L211 322 L507 322 L527 416 L231 416 L273 609 L542 609 Z " />
<glyph glyph-name="G" unicode="G" horiz-adv-x="808" d="M791 392 L332 392 L312 294 L678 294 C649 166 550 89 424 89 C261 89 153 232 187 395 C215 530 326 621 463 621 C559 621 623 577 661 525 L753 585 C696 663 601 725 473 725 C274 725 121 601 80 408 C33 187 190 -15 415 -15 C606 -15 740 101 781 288 C793 340 791 392 791 392 L791 392 Z " />
<glyph glyph-name="H" unicode="H" horiz-adv-x="760" d="M674 710 L618 448 L238 448 L294 710 L184 710 L33 0 L143 0 L216 344 L596 344 L523 0 L633 0 L784 710 L674 710 Z " />
<glyph glyph-name="I" unicode="I" horiz-adv-x="290" d="M43 0 L153 0 L304 710 L194 710 L43 0 Z " />
<glyph glyph-name="J" unicode="J" horiz-adv-x="494" d="M174 -15 C302 -15 387 58 417 200 L525 710 L415 710 L309 205 C292 126 245 89 184 89 C137 89 105 115 89 153 L-6 102 C20 40 83 -15 174 -15 L174 -15 Z " />
<glyph glyph-name="K" unicode="K" horiz-adv-x="620" d="M694 710 L547 710 L232 419 L294 710 L184 710 L33 0 L143 0 L219 359 L430 0 L563 0 L330 380 L694 710 Z " />
<glyph glyph-name="L" unicode="L" horiz-adv-x="505" d="M165 104 L294 710 L184 710 L33 0 L443 0 L466 104 L165 104 Z " />
<glyph glyph-name="M" unicode="M" horiz-adv-x="890" d="M33 0 L141 0 L238 459 L376 0 L421 0 L753 459 L656 0 L763 0 L914 710 L821 710 L428 165 L268 710 L184 710 L33 0 Z " />
<glyph glyph-name="N" unicode="N" horiz-adv-x="740" d="M522 0 L614 0 L764 710 L656 710 L545 186 L276 710 L184 710 L34 0 L143 0 L255 530 L522 0 Z " />
<glyph glyph-name="O" unicode="O" horiz-adv-x="825" d="M415 -15 C610 -15 760 109 802 302 C850 524 692 725 467 725 C273 725 121 601 80 408 C33 187 191 -15 415 -15 L415 -15 Z M424 89 C261 89 152 231 187 395 C216 531 325 621 458 621 C621 621 728 480 695 315 C667 179 557 89 424 89 L424 89 Z " />
<glyph glyph-name="P" unicode="P" horiz-adv-x="535" d="M352 710 L184 710 L33 0 L143 0 L205 293 L303 293 C438 293 526 367 550 481 C574 596 497 710 352 710 L352 710 Z M445 490 C432 426 379 387 308 387 L225 387 L274 614 L336 614 C417 614 459 555 445 490 L445 490 Z " />
<glyph glyph-name="Q" unicode="Q" horiz-adv-x="825" d="M802 302 C850 524 692 725 467 725 C273 725 121 601 80 408 C33 187 191 -15 415 -15 C464 -15 510 -7 552 7 L665 -150 L746 -93 L642 53 C721 108 779 194 802 302 L802 302 Z M488 96 C468 91 446 89 424 89 C261 89 152 231 187 395 C216 531 325 621 458 621 C621 621 728 480 695 315 C679 239 638 177 581 137 L487 269 L405 212 L488 96 Z " />
<glyph glyph-name="R" unicode="R" horiz-adv-x="575" d="M552 486 C575 598 502 710 357 710 L184 710 L33 0 L143 0 L207 303 L244 303 L404 0 L528 0 L357 306 C458 322 531 388 552 486 L552 486 Z M445 488 C432 422 375 382 305 382 L224 382 L274 614 L334 614 C414 614 458 555 445 488 L445 488 Z " />
<glyph glyph-name="S" unicode="S" horiz-adv-x="535" d="M249 -15 C372 -15 460 59 481 155 C506 274 442 355 332 418 C263 458 230 503 241 557 C251 603 295 630 347 630 C441 630 482 561 482 561 L557 622 C557 622 494 725 344 725 C238 725 154 667 135 576 C112 468 177 389 284 327 C356 285 388 235 375 171 C364 119 315 81 250 81 C141 81 97 188 97 188 L19 133 C19 133 78 -15 249 -15 L249 -15 Z " />
<glyph glyph-name="T" unicode="T" horiz-adv-x="520" d="M609 710 L119 710 L97 606 L287 606 L158 0 L268 0 L397 606 L587 606 L609 710 Z " />
<glyph glyph-name="U" unicode="U" horiz-adv-x="655" d="M300 -15 C452 -15 553 81 585 230 L687 710 L577 710 L477 243 C457 149 395 94 316 94 C220 94 170 164 192 268 L287 710 L177 710 L84 275 C46 97 149 -15 300 -15 L300 -15 Z " />
<glyph glyph-name="V" unicode="V" horiz-adv-x="590" d="M202 0 L293 0 L684 710 L567 710 L285 190 L225 710 L114 710 L202 0 Z " />
<glyph glyph-name="W" unicode="W" horiz-adv-x="1040" d="M1015 710 L728 186 L663 710 L578 710 L292 190 L228 710 L114 710 L208 0 L294 0 L585 526 L652 0 L738 0 L1133 710 L1015 710 Z " />
<glyph glyph-name="X" unicode="X" horiz-adv-x="610" d="M-38 0 L96 0 L319 266 L431 0 L553 0 L399 363 L694 710 L561 710 L350 461 L246 710 L124 710 L271 363 L-38 0 Z " />
<glyph glyph-name="Y" unicode="Y" horiz-adv-x="600" d="M198 0 L308 0 L381 343 L704 710 L575 710 L345 451 L225 710 L104 710 L271 343 L198 0 Z " />
<glyph glyph-name="Z" unicode="Z" horiz-adv-x="675" d="M3 0 L578 0 L600 102 L206 102 L720 665 L729 710 L154 710 L132 609 L527 609 L13 45 L3 0 Z " />
<glyph glyph-name="bracketleft" unicode="&#x5b;" horiz-adv-x="340" d="M376 631 L393 710 L183 710 L32 0 L242 0 L259 79 L144 79 L261 631 L376 631 Z " />
<glyph glyph-name="backslash" unicode="&#x5c;" horiz-adv-x="530" d="M452 -100 L220 800 L133 800 L369 -100 L452 -100 Z " />
<glyph glyph-name="bracketright" unicode="&#x5d;" horiz-adv-x="340" d="M364 710 L154 710 L137 631 L252 631 L135 79 L20 79 L3 0 L213 0 L364 710 Z " />
<glyph glyph-name="asciicircum" unicode="&#x5e;" horiz-adv-x="545" d="M522 350 L411 710 L341 710 L77 350 L179 350 L357 599 L429 350 L522 350 Z " />
<glyph glyph-name="underscore" unicode="&#x5f;" horiz-adv-x="545" d="M-70 -104 L476 -104 L493 -25 L-53 -25 L-70 -104 Z " />
<glyph glyph-name="grave" unicode="&#x60;" horiz-adv-x="263" d="M266 570 L270 710 L174 710 L181 570 L266 570 Z " />
<glyph glyph-name="a" unicode="a" horiz-adv-x="578" d="M465 445 L449 382 C428 410 376 460 276 460 C159 460 66 381 40 258 C9 115 100 -15 240 -15 C316 -15 359 15 382 40 L380 0 L465 0 L560 445 L465 445 Z M264 82 C175 82 119 159 137 244 C152 316 213 364 282 364 C365 364 409 312 426 285 L394 137 C367 112 323 82 264 82 L264 82 Z " />
<glyph glyph-name="b" unicode="b" horiz-adv-x="578" d="M338 460 C272 460 230 437 206 415 L275 740 L175 740 L18 0 L113 0 L129 63 C150 36 201 -15 302 -15 C419 -15 512 65 538 188 C569 331 478 460 338 460 L338 460 Z M441 202 C426 129 365 82 296 82 C213 82 169 134 152 161 L183 309 C210 334 254 364 314 364 C403 364 459 286 441 202 L441 202 Z " />
<glyph glyph-name="c" unicode="c" horiz-adv-x="490" d="M255 -15 C333 -15 399 15 449 77 L373 130 C343 97 307 82 264 82 C175 82 119 159 137 244 C152 316 213 364 282 364 C341 364 384 330 403 284 L494 322 C463 392 400 460 291 460 C169 460 66 381 40 258 C9 115 110 -15 255 -15 L255 -15 Z " />
<glyph glyph-name="d" unicode="d" horiz-adv-x="578" d="M522 740 L447 385 C425 413 373 460 276 460 C159 460 66 381 40 258 C9 115 100 -15 240 -15 C316 -15 359 15 382 40 L380 0 L465 0 L622 740 L522 740 Z M264 82 C175 82 119 159 137 244 C152 316 213 364 282 364 C364 364 408 313 426 286 L394 137 C367 111 323 82 264 82 L264 82 Z " />
<glyph glyph-name="e" unicode="e" horiz-adv-x="535" d="M287 460 C167 460 66 381 39 255 C9 115 110 -15 255 -15 C345 -15 419 25 472 106 L387 143 C357 103 314 79 262 79 C188 79 135 135 133 206 L495 206 C495 206 498 214 500 228 C518 338 429 460 287 460 L287 460 Z M282 374 C349 374 393 337 403 280 L148 280 C174 344 224 374 282 374 L282 374 Z " />
<glyph glyph-name="f" unicode="f" horiz-adv-x="350" d="M384 755 C281 755 216 699 193 587 L163 446 L73 446 L53 352 L143 352 L68 0 L168 0 L242 352 L353 352 L373 446 L262 446 L289 573 C301 630 334 661 386 661 C421 661 440 646 440 646 L459 736 C459 736 433 755 384 755 L384 755 Z " />
<glyph glyph-name="g" unicode="g" horiz-adv-x="578" d="M465 445 L449 382 C428 410 376 460 276 460 C159 460 67 383 41 263 C11 122 100 -5 240 -5 C308 -5 349 17 374 38 L361 -23 C343 -104 289 -144 219 -144 C169 -144 129 -116 106 -85 L37 -146 C72 -195 137 -235 216 -235 C337 -235 430 -168 458 -35 L560 445 L465 445 Z M264 89 C175 89 122 165 138 249 C152 320 213 366 282 366 C365 366 409 313 426 285 L396 142 C369 118 324 89 264 89 L264 89 Z " />
<glyph glyph-name="h" unicode="h" horiz-adv-x="498" d="M334 460 C285 460 245 437 202 395 L276 740 L176 740 L18 0 L118 0 L181 293 C219 343 257 363 290 363 C336 363 363 331 351 275 L293 0 L393 0 L456 297 C477 394 423 460 334 460 L334 460 Z " />
<glyph glyph-name="i" unicode="i" horiz-adv-x="245" d="M207 555 C246 555 275 584 275 620 C275 656 246 685 207 685 C168 685 140 656 140 620 C140 584 168 555 207 555 L207 555 Z M26 0 L126 0 L220 445 L120 445 L26 0 Z " />
<glyph glyph-name="j" unicode="j" horiz-adv-x="245" d="M207 555 C246 555 275 584 275 620 C275 656 246 685 207 685 C168 685 140 656 140 620 C140 584 168 555 207 555 L207 555 Z M-21 -220 L79 -220 L220 445 L120 445 L-21 -220 Z " />
<glyph glyph-name="k" unicode="k" horiz-adv-x="443" d="M475 445 L350 445 L176 271 L276 740 L176 740 L18 0 L118 0 L162 206 L275 0 L390 0 L254 237 L475 445 Z " />
<glyph glyph-name="l" unicode="l" horiz-adv-x="245" d="M25 0 L125 0 L283 740 L183 740 L25 0 Z " />
<glyph glyph-name="m" unicode="m" horiz-adv-x="773" d="M609 460 C552 460 506 429 456 373 C442 427 397 460 334 460 C284 460 243 436 200 392 L208 445 L113 445 L18 0 L118 0 L181 294 C219 343 257 363 290 363 C336 363 363 331 351 275 L293 0 L393 0 L455 293 C494 342 532 363 565 363 C611 363 638 331 626 275 L568 0 L668 0 L731 296 C752 394 698 460 609 460 L609 460 Z " />
<glyph glyph-name="n" unicode="n" horiz-adv-x="498" d="M334 460 C284 460 243 436 200 392 L208 445 L113 445 L18 0 L118 0 L181 294 C219 343 257 363 290 363 C336 363 363 331 351 275 L293 0 L393 0 L456 296 C477 394 423 460 334 460 L334 460 Z " />
<glyph glyph-name="o" unicode="o" horiz-adv-x="545" d="M255 -15 C377 -15 479 65 506 188 C536 330 435 460 291 460 C169 460 66 381 40 258 C9 115 110 -15 255 -15 L255 -15 Z M264 82 C175 82 119 159 137 244 C152 316 213 364 282 364 C370 364 426 286 409 202 C394 129 332 82 264 82 L264 82 Z " />
<glyph glyph-name="p" unicode="p" horiz-adv-x="578" d="M338 460 C263 460 220 431 197 406 L198 445 L113 445 L-29 -220 L72 -220 L132 60 C154 32 205 -15 302 -15 C419 -15 512 65 538 188 C569 331 478 460 338 460 L338 460 Z M441 202 C426 129 365 82 296 82 C215 82 171 132 153 160 L185 310 C212 335 256 364 314 364 C403 364 459 286 441 202 L441 202 Z " />
<glyph glyph-name="q" unicode="q" horiz-adv-x="578" d="M465 445 L449 382 C428 410 376 460 276 460 C159 460 66 381 40 258 C9 115 100 -15 240 -15 C306 -15 347 8 372 30 L319 -220 L419 -220 L560 445 L465 445 Z M264 82 C175 82 119 159 137 244 C152 316 213 364 282 364 C365 364 409 312 426 285 L395 137 C368 112 323 82 264 82 L264 82 Z " />
<glyph glyph-name="r" unicode="r" horiz-adv-x="398" d="M320 460 C281 460 244 439 199 391 L208 445 L113 445 L18 0 L118 0 L181 291 C221 349 251 369 279 369 C305 369 319 354 329 325 L427 361 C417 422 381 460 320 460 L320 460 Z " />
<glyph glyph-name="s" unicode="s" horiz-adv-x="382" d="M170 -15 C247 -15 308 31 323 96 C340 172 299 227 223 268 C178 292 168 318 174 342 C180 365 202 379 234 379 C277 379 312 337 312 337 L371 393 C371 393 325 460 225 460 C152 460 94 420 80 359 C64 291 99 232 175 191 C222 166 235 141 229 112 C223 85 198 66 165 66 C104 66 69 125 69 125 L6 76 C6 76 46 -15 170 -15 L170 -15 Z " />
<glyph glyph-name="t" unicode="t" horiz-adv-x="350" d="M373 446 L263 446 L309 665 L209 665 L163 446 L73 446 L53 352 L143 352 L68 0 L168 0 L243 352 L353 352 L373 446 Z " />
<glyph glyph-name="u" unicode="u" horiz-adv-x="498" d="M380 445 L317 151 C279 102 241 82 208 82 C162 82 135 114 147 170 L205 445 L105 445 L42 149 C21 51 75 -15 164 -15 C214 -15 255 9 298 53 L290 0 L385 0 L480 445 L380 445 Z " />
<glyph glyph-name="v" unicode="v" horiz-adv-x="460" d="M141 0 L225 0 L503 445 L393 445 L209 139 L156 445 L53 445 L141 0 Z " />
<glyph glyph-name="w" unicode="w" horiz-adv-x="695" d="M628 445 L463 155 L431 445 L354 445 L199 156 L156 445 L53 445 L127 0 L204 0 L363 294 L396 0 L473 0 L738 445 L628 445 Z " />
<glyph glyph-name="x" unicode="x" horiz-adv-x="425" d="M-43 0 L77 0 L202 145 L265 0 L373 0 L271 227 L463 445 L344 445 L225 308 L166 445 L58 445 L157 227 L-43 0 Z " />
<glyph glyph-name="y" unicode="y" horiz-adv-x="460" d="M395 445 L212 146 L158 445 L53 445 L136 27 L-17 -220 L85 -220 L503 445 L395 445 Z " />
<glyph glyph-name="z" unicode="z" horiz-adv-x="430" d="M-10 0 L345 0 L365 89 L154 89 L430 400 L440 445 L85 445 L66 356 L276 356 L0 45 L-10 0 Z " />
<glyph glyph-name="braceleft" unicode="&#x7b;" horiz-adv-x="350" d="M357 710 C261 710 204 665 186 581 C173 520 175 479 165 436 C159 408 141 394 112 394 L86 394 L69 315 L93 315 C122 315 135 294 129 266 C121 223 105 204 93 143 C75 60 125 0 221 0 L252 0 L269 79 L255 79 C208 79 181 111 190 155 C201 207 215 225 226 273 C234 309 222 340 195 353 C227 361 249 383 257 422 C267 469 266 511 277 563 C286 606 317 631 364 631 L386 631 L403 710 L357 710 Z " />
<glyph glyph-name="bar" unicode="&#x7c;" horiz-adv-x="275" d="M22 -100 L117 -100 L309 800 L214 800 L22 -100 Z " />
<glyph glyph-name="braceright" unicode="&#x7d;" horiz-adv-x="350" d="M313 395 C284 395 271 416 277 444 C285 487 301 506 313 567 C331 650 281 710 185 710 L154 710 L137 631 L151 631 C198 631 225 599 216 555 C205 503 191 485 180 437 C172 401 184 370 211 357 C179 349 157 327 149 288 C139 241 140 199 129 147 C120 104 89 79 42 79 L20 79 L3 0 L49 0 C145 0 202 45 220 129 C233 190 231 231 241 274 C247 302 265 316 294 316 L320 316 L337 395 L313 395 Z " />
<glyph glyph-name="asciitilde" unicode="&#x7e;" horiz-adv-x="545" d="M68 257 C68 257 109 286 171 286 C270 286 303 241 400 241 C457 241 497 276 497 276 L516 364 C516 364 475 335 412 335 C313 335 280 380 184 380 C126 380 87 345 87 345 L68 257 Z " />
<glyph glyph-name="exclamdown" unicode="&#xa1;" horiz-adv-x="255" d="M172 500 C133 500 105 470 105 432 C105 394 133 365 172 365 C211 365 240 394 240 432 C240 470 211 500 172 500 L172 500 Z M180 270 L95 270 L-21 -220 L89 -220 L180 270 Z " />
<glyph glyph-name="cent" unicode="&#xa2;" horiz-adv-x="545" d="M340 347 L339 347 L397 624 C437 612 464 584 479 549 L570 587 C544 645 496 702 418 720 L435 800 L387 800 L371 725 L367 725 C245 725 143 646 116 523 C90 401 161 288 272 258 L254 175 L302 175 L318 250 L331 250 C409 250 475 280 526 342 L449 395 C420 362 383 347 340 347 L340 347 Z M213 509 C227 578 286 625 351 629 L292 355 C233 377 199 441 213 509 L213 509 Z " />
<glyph glyph-name="sterling" unicode="&#xa3;" horiz-adv-x="545" d="M375 725 C260 725 179 659 154 551 C139 486 150 428 160 370 L72 370 L61 321 L168 321 C173 283 175 245 166 203 C147 114 88 64 35 57 L23 0 L428 0 L448 94 L208 94 C238 122 260 160 269 205 C278 249 278 286 274 321 L431 321 L442 370 L266 370 C256 424 243 473 256 532 C269 593 312 629 374 629 C457 629 477 554 477 554 L571 588 C571 588 533 725 375 725 L375 725 Z " />
<glyph glyph-name="currency" unicode="&#xa4;" horiz-adv-x="545" d="M580 512 L554 552 L486 508 C453 547 406 576 351 587 C295 599 241 591 194 569 L150 638 L110 612 L154 545 C111 512 79 463 67 405 C55 349 63 295 86 248 L24 208 L51 168 L112 208 C146 166 194 135 252 123 C310 111 367 120 414 144 L454 82 L494 108 L454 170 C494 203 524 249 536 305 C548 364 539 421 513 468 L580 512 Z M272 217 C195 234 148 308 164 385 C181 461 254 510 331 493 C408 477 455 403 438 326 C422 249 349 201 272 217 L272 217 Z " />
<glyph glyph-name="yen" unicode="&#xa5;" horiz-adv-x="545" d="M353 343 L634 710 L508 710 L321 454 L243 710 L119 710 L243 343 L239 322 L46 322 L36 273 L228 273 L213 202 L21 202 L10 153 L203 153 L170 0 L280 0 L313 153 L505 153 L516 202 L323 202 L338 273 L531 273 L541 322 L349 322 L353 343 Z " />
<glyph glyph-name="brokenbar" unicode="&#xa6;" horiz-adv-x="290" d="M145 480 L255 480 L324 800 L214 800 L145 480 Z M22 -100 L132 -100 L200 220 L90 220 L22 -100 Z " />
<glyph glyph-name="section" unicode="&#xa7;" horiz-adv-x="500" d="M354 500 C282 530 258 560 265 595 C270 624 301 642 345 642 C413 642 446 592 446 592 L509 646 C509 646 456 725 338 725 C247 725 187 680 172 611 C163 567 175 529 203 497 C141 479 96 440 85 388 C68 310 110 249 203 210 C275 181 299 150 292 116 C287 86 256 68 212 68 C144 68 111 118 111 118 L48 64 C48 64 101 -15 219 -15 C310 -15 370 31 385 99 C394 143 382 182 354 214 C416 232 461 270 472 322 C489 401 447 462 354 500 L354 500 Z M380 326 C374 294 342 269 291 264 C280 270 268 276 256 281 C192 309 167 340 177 384 C183 416 216 442 268 446 C278 440 289 435 301 430 C365 402 390 371 380 326 L380 326 Z " />
<glyph glyph-name="dieresis" unicode="&#xa8;" horiz-adv-x="418" d="M216 585 C247 585 271 609 271 640 C271 672 247 695 216 695 C184 695 161 672 161 640 C161 609 184 585 216 585 L216 585 Z M381 585 C412 585 436 609 436 640 C436 672 412 695 381 695 C349 695 326 672 326 640 C326 609 349 585 381 585 L381 585 Z " />
<glyph glyph-name="copyright" unicode="&#xa9;" horiz-adv-x="825" d="M441 -15 C649 -15 811 147 811 355 C811 563 649 725 441 725 C233 725 71 563 71 355 C71 147 233 -15 441 -15 L441 -15 Z M441 42 C265 42 129 179 129 355 C129 531 265 669 441 669 C618 669 754 531 754 355 C754 179 618 42 441 42 L441 42 Z M433 139 C510 139 563 169 609 223 L548 270 C520 238 483 221 438 221 C355 221 301 293 319 379 C334 449 394 490 458 490 C518 490 551 457 572 414 L647 447 C621 509 562 572 464 572 C350 572 259 499 235 386 C207 256 301 139 433 139 L433 139 Z " />
<glyph glyph-name="ordfeminine" unicode="&#xaa;" horiz-adv-x="317" d="M325 710 L317 683 C307 695 283 718 236 718 C175 718 129 676 115 611 C99 537 144 470 215 470 C250 470 271 484 282 497 L283 478 L338 478 L388 710 L325 710 Z M233 535 C196 535 174 567 180 602 C186 633 212 653 242 653 C276 653 294 631 301 618 L288 558 C276 547 258 535 233 535 L233 535 Z " />
<glyph glyph-name="guillemotleft" unicode="&#xab;" horiz-adv-x="665" d="M394 545 L91 370 L85 340 L313 165 L330 243 L202 349 L375 455 L394 545 Z M674 545 L371 370 L365 340 L593 165 L610 243 L482 349 L655 455 L674 545 Z " />
<glyph glyph-name="logicalnot" unicode="&#xac;" horiz-adv-x="545" d="M69 263 L404 263 L384 170 L474 170 L514 357 L89 357 L69 263 Z " />
<glyph glyph-name="registered" unicode="&#xae;" horiz-adv-x="400" d="M275 723 C190 723 125 658 125 573 C125 488 190 423 275 423 C360 423 425 488 425 573 C425 658 360 723 275 723 L275 723 Z M275 461 C213 461 164 511 164 573 C164 636 213 686 275 686 C338 686 387 636 387 573 C387 511 338 461 275 461 L275 461 Z M295 645 L242 645 L212 500 L250 500 L262 559 L267 559 L286 500 L331 500 L307 563 C322 569 332 582 336 598 C341 621 327 645 295 645 L295 645 Z M286 614 C295 614 302 607 300 598 C298 589 291 584 282 584 L267 584 L274 614 L286 614 Z " />
<glyph glyph-name="macron" unicode="&#xaf;" horiz-adv-x="406" d="M154 616 L419 616 L434 685 L169 685 L154 616 Z " />
<glyph glyph-name="degree" unicode="&#xb0;" horiz-adv-x="463" d="M300 365 C403 365 482 444 482 545 C482 647 403 725 300 725 C197 725 119 647 119 545 C119 444 197 365 300 365 L300 365 Z M300 442 C245 442 199 488 199 545 C199 603 245 648 300 648 C356 648 402 603 402 545 C402 488 356 442 300 442 L300 442 Z " />
<glyph glyph-name="plusminus" unicode="&#xb1;" horiz-adv-x="545" d="M379 492 L414 657 L317 657 L282 492 L118 492 L98 398 L262 398 L227 232 L324 232 L359 398 L523 398 L543 492 L379 492 Z M28 73 L453 73 L473 167 L48 167 L28 73 Z " />
<glyph glyph-name="uni00B2" unicode="&#xb2;" horiz-adv-x="330" d="M84 352 L305 352 L319 415 L207 415 L310 523 C336 550 355 576 362 608 C374 666 331 717 267 717 C200 717 163 682 136 626 L194 598 C210 635 229 653 255 653 C280 653 295 633 290 610 C286 594 279 580 258 558 L92 388 L84 352 Z " />
<glyph glyph-name="uni00B3" unicode="&#xb3;" horiz-adv-x="324" d="M251 717 C209 717 174 697 148 668 L184 626 C206 646 221 654 240 654 C267 654 284 630 279 606 C273 578 252 558 208 558 L184 558 L173 511 L194 511 C243 511 260 485 253 453 C246 426 224 409 195 409 C172 409 153 419 139 441 L89 407 C106 372 144 345 197 345 C261 345 308 382 320 439 C328 474 316 509 288 531 C321 546 343 571 350 605 C363 666 323 717 251 717 L251 717 Z " />
<glyph glyph-name="acute" unicode="&#xb4;" horiz-adv-x="263" d="M144 570 L236 570 L296 710 L193 710 L144 570 Z " />
<glyph glyph-name="uni00B5" unicode="&#xb5;" horiz-adv-x="498" d="M388 445 L328 166 C317 112 277 83 228 83 C173 83 145 122 156 176 L213 445 L113 445 L-29 -220 L72 -220 L124 25 C148 0 182 -15 227 -15 C323 -15 402 46 426 159 L488 445 L388 445 Z " />
<glyph glyph-name="paragraph" unicode="&#xb6;" horiz-adv-x="660" d="M108 544 C85 436 150 323 288 323 L291 323 L222 0 L317 0 L450 626 L570 626 L437 0 L532 0 L683 710 L331 710 C213 710 131 651 108 544 L108 544 Z " />
<glyph glyph-name="periodcentered" unicode="&#xb7;" horiz-adv-x="255" d="M157 288 C196 288 224 318 224 356 C224 394 196 423 157 423 C118 423 89 394 89 356 C89 318 118 288 157 288 L157 288 Z " />
<glyph glyph-name="cedilla" unicode="&#xb8;" horiz-adv-x="340" d="M120 -47 L150 0 L94 0 L34 -87 L60 -106 C60 -106 73 -96 89 -96 C114 -96 129 -112 125 -132 C121 -154 99 -165 75 -165 C37 -165 16 -144 16 -144 L-18 -188 C-18 -188 18 -220 77 -220 C142 -220 183 -186 193 -140 C203 -94 177 -52 120 -47 L120 -47 Z " />
<glyph glyph-name="uni00B9" unicode="&#xb9;" horiz-adv-x="234" d="M130 352 L201 352 L277 710 L144 710 L131 647 L192 647 L130 352 Z " />
<glyph glyph-name="ordmasculine" unicode="&#xba;" horiz-adv-x="317" d="M227 471 C292 471 346 512 360 577 C376 651 323 718 248 718 C183 718 129 676 115 611 C99 537 152 471 227 471 L227 471 Z M233 535 C196 535 173 567 180 602 C186 633 212 653 242 653 C279 653 302 621 295 586 C289 555 263 535 233 535 L233 535 Z " />
<glyph glyph-name="guillemotright" unicode="&#xbb;" horiz-adv-x="665" d="M48 165 L351 340 L357 370 L129 545 L112 467 L240 361 L67 255 L48 165 Z M328 165 L631 340 L637 370 L409 545 L392 467 L520 361 L347 255 L328 165 Z " />
<glyph glyph-name="onequarter" unicode="&#xbc;" horiz-adv-x="709" d="M559 710 L21 0 L85 0 L623 710 L559 710 Z M201 352 L277 710 L144 710 L131 647 L192 647 L130 352 L201 352 Z M646 358 L571 358 L385 131 L377 94 L523 94 L503 0 L570 0 L590 94 L631 94 L644 153 L602 153 L646 358 Z M461 153 L562 278 L536 153 L461 153 Z " />
<glyph glyph-name="onehalf" unicode="&#xbd;" horiz-adv-x="684" d="M21 0 L85 0 L623 710 L559 710 L21 0 Z M130 352 L201 352 L277 710 L144 710 L131 647 L192 647 L130 352 Z M363 0 L584 0 L598 63 L486 63 L589 171 C615 198 634 224 641 256 C653 314 610 365 546 365 C479 365 442 330 415 274 L473 246 C489 283 508 301 534 301 C559 301 574 281 569 258 C565 242 558 228 537 206 L371 36 L363 0 Z " />
<glyph glyph-name="threequarters" unicode="&#xbe;" horiz-adv-x="799" d="M320 439 C328 474 316 509 288 531 C321 546 343 571 350 605 C363 666 323 717 251 717 C209 717 174 697 148 668 L184 626 C206 646 221 654 240 654 C267 654 284 630 279 606 C273 578 252 558 208 558 L184 558 L173 511 L194 511 C243 511 260 485 253 453 C246 426 224 409 195 409 C172 409 153 419 139 441 L89 407 C106 372 144 345 197 345 C261 345 308 382 320 439 L320 439 Z M649 710 L111 0 L175 0 L713 710 L649 710 Z M736 358 L661 358 L475 131 L467 94 L613 94 L593 0 L660 0 L680 94 L721 94 L734 153 L692 153 L736 358 Z M551 153 L652 278 L626 153 L551 153 Z " />
<glyph glyph-name="questiondown" unicode="&#xbf;" horiz-adv-x="495" d="M339 500 C300 500 272 470 272 432 C272 394 300 365 339 365 C378 365 407 394 407 432 C407 470 378 500 339 500 L339 500 Z M318 270 L204 270 L75 115 C27 58 -5 12 -16 -42 C-38 -141 35 -235 163 -235 C300 -235 382 -157 400 -35 L303 -35 C291 -103 245 -146 175 -146 C111 -146 75 -97 85 -49 C91 -19 107 7 140 47 L318 270 Z " />
<glyph glyph-name="Agrave" unicode="&#xc0;" horiz-adv-x="740" d="M531 775 L535 915 L439 915 L446 775 L531 775 Z M563 0 L683 0 L521 710 L427 710 L-38 0 L87 0 L222 212 L521 212 L563 0 Z M282 306 L449 570 L502 306 L282 306 Z " />
<glyph glyph-name="Aacute" unicode="&#xc1;" horiz-adv-x="740" d="M596 915 L493 915 L444 775 L536 775 L596 915 Z M563 0 L683 0 L521 710 L427 710 L-38 0 L87 0 L222 212 L521 212 L563 0 Z M282 306 L449 570 L502 306 L282 306 Z " />
<glyph glyph-name="Acircumflex" unicode="&#xc2;" horiz-adv-x="740" d="M508 862 L543 775 L620 775 L575 915 L460 915 L355 775 L435 775 L508 862 Z M563 0 L683 0 L521 710 L427 710 L-38 0 L87 0 L222 212 L521 212 L563 0 Z M282 306 L449 570 L502 306 L282 306 Z " />
<glyph glyph-name="Atilde" unicode="&#xc3;" horiz-adv-x="740" d="M570 807 C606 807 632 830 632 830 L645 894 C645 894 614 875 578 875 C517 875 500 904 438 904 C403 904 377 881 377 881 L364 817 C364 817 395 836 430 836 C492 836 509 807 570 807 L570 807 Z M563 0 L683 0 L521 710 L427 710 L-38 0 L87 0 L222 212 L521 212 L563 0 Z M282 306 L449 570 L502 306 L282 306 Z " />
<glyph glyph-name="Adieresis" unicode="&#xc4;" horiz-adv-x="740" d="M421 790 C452 790 476 814 476 845 C476 877 452 900 421 900 C389 900 366 877 366 845 C366 814 389 790 421 790 L421 790 Z M586 790 C617 790 641 814 641 845 C641 877 617 900 586 900 C554 900 531 877 531 845 C531 814 554 790 586 790 L586 790 Z M563 0 L683 0 L521 710 L427 710 L-38 0 L87 0 L222 212 L521 212 L563 0 Z M282 306 L449 570 L502 306 L282 306 Z " />
<glyph glyph-name="Aring" unicode="&#xc5;" horiz-adv-x="740" d="M603 815 C603 874 556 920 496 920 C436 920 390 874 390 815 C390 756 436 710 496 710 C556 710 603 756 603 815 L603 815 Z M496 766 C469 766 447 788 447 815 C447 842 469 864 496 864 C523 864 545 842 545 815 C545 788 523 766 496 766 L496 766 Z M563 0 L683 0 L521 710 L427 710 L-38 0 L87 0 L222 212 L521 212 L563 0 Z M282 306 L449 570 L502 306 L282 306 Z " />
<glyph glyph-name="AE" unicode="&#xc6;" horiz-adv-x="925" d="M932 609 L954 710 L427 710 L-38 0 L88 0 L223 212 L519 212 L563 0 L833 0 L855 102 L660 102 L610 322 L896 322 L916 416 L588 416 L544 609 L932 609 Z M283 306 L447 563 L500 306 L283 306 Z " />
<glyph glyph-name="Ccedilla" unicode="&#xc7;" horiz-adv-x="766" d="M424 89 C261 89 152 231 187 395 C215 530 325 621 458 621 C582 621 654 546 684 468 L782 511 C739 619 637 725 468 725 C273 725 121 601 80 408 C36 200 171 10 374 -13 L323 -87 L349 -106 C349 -106 362 -96 378 -96 C403 -96 418 -112 414 -132 C410 -154 388 -165 364 -165 C326 -165 305 -144 305 -144 L271 -188 C271 -188 307 -220 366 -220 C431 -220 472 -186 482 -140 C492 -94 466 -52 409 -47 L429 -15 C554 -11 641 37 716 129 L636 191 C582 125 510 89 424 89 L424 89 Z " />
<glyph glyph-name="Egrave" unicode="&#xc8;" horiz-adv-x="535" d="M431 775 L435 915 L339 915 L346 775 L431 775 Z M542 609 L564 710 L184 710 L33 0 L443 0 L465 102 L165 102 L217 347 L512 347 L532 441 L237 441 L273 609 L542 609 Z " />
<glyph glyph-name="Eacute" unicode="&#xc9;" horiz-adv-x="535" d="M496 915 L393 915 L344 775 L436 775 L496 915 Z M542 609 L564 710 L184 710 L33 0 L443 0 L465 102 L165 102 L217 347 L512 347 L532 441 L237 441 L273 609 L542 609 Z " />
<glyph glyph-name="Ecircumflex" unicode="&#xca;" horiz-adv-x="535" d="M408 862 L443 775 L520 775 L475 915 L360 915 L255 775 L335 775 L408 862 Z M542 609 L564 710 L184 710 L33 0 L443 0 L465 102 L165 102 L217 347 L512 347 L532 441 L237 441 L273 609 L542 609 Z " />
<glyph glyph-name="Edieresis" unicode="&#xcb;" horiz-adv-x="535" d="M321 790 C352 790 376 814 376 845 C376 877 352 900 321 900 C289 900 266 877 266 845 C266 814 289 790 321 790 L321 790 Z M486 790 C517 790 541 814 541 845 C541 877 517 900 486 900 C454 900 431 877 431 845 C431 814 454 790 486 790 L486 790 Z M542 609 L564 710 L184 710 L33 0 L443 0 L465 102 L165 102 L217 347 L512 347 L532 441 L237 441 L273 609 L542 609 Z " />
<glyph glyph-name="Igrave" unicode="&#xcc;" horiz-adv-x="290" d="M306 775 L310 915 L214 915 L221 775 L306 775 Z M43 0 L153 0 L304 710 L194 710 L43 0 Z " />
<glyph glyph-name="Iacute" unicode="&#xcd;" horiz-adv-x="290" d="M219 775 L311 775 L371 915 L268 915 L219 775 Z M43 0 L153 0 L304 710 L194 710 L43 0 Z " />
<glyph glyph-name="Icircumflex" unicode="&#xce;" horiz-adv-x="290" d="M130 775 L210 775 L283 862 L318 775 L395 775 L350 915 L235 915 L130 775 Z M43 0 L153 0 L304 710 L194 710 L43 0 Z " />
<glyph glyph-name="Idieresis" unicode="&#xcf;" horiz-adv-x="290" d="M196 790 C227 790 251 814 251 845 C251 877 227 900 196 900 C164 900 141 877 141 845 C141 814 164 790 196 790 L196 790 Z M361 790 C392 790 416 814 416 845 C416 877 392 900 361 900 C329 900 306 877 306 845 C306 814 329 790 361 790 L361 790 Z M43 0 L153 0 L304 710 L194 710 L43 0 Z " />
<glyph glyph-name="Eth" unicode="&#xd0;" horiz-adv-x="650" d="M325 710 L184 710 L114 382 L34 382 L23 328 L103 328 L33 0 L243 0 C439 0 587 119 629 312 C677 534 551 710 325 710 L325 710 Z M522 325 C494 189 387 102 257 102 L165 102 L213 328 L363 328 L374 382 L224 382 L272 609 L321 609 C481 609 555 490 522 325 L522 325 Z " />
<glyph glyph-name="Ntilde" unicode="&#xd1;" horiz-adv-x="740" d="M364 817 C364 817 395 836 430 836 C492 836 509 807 570 807 C606 807 632 830 632 830 L645 894 C645 894 614 875 578 875 C517 875 500 904 438 904 C403 904 377 881 377 881 L364 817 Z M522 0 L614 0 L764 710 L656 710 L545 186 L276 710 L184 710 L34 0 L143 0 L255 530 L522 0 Z " />
<glyph glyph-name="Ograve" unicode="&#xd2;" horiz-adv-x="825" d="M574 775 L578 915 L482 915 L489 775 L574 775 Z M415 -15 C610 -15 760 109 802 302 C850 524 692 725 467 725 C273 725 121 601 80 408 C33 187 191 -15 415 -15 L415 -15 Z M424 89 C261 89 152 231 187 395 C216 531 325 621 458 621 C621 621 728 480 695 315 C667 179 557 89 424 89 L424 89 Z " />
<glyph glyph-name="Oacute" unicode="&#xd3;" horiz-adv-x="825" d="M487 775 L579 775 L639 915 L536 915 L487 775 Z M415 -15 C610 -15 760 109 802 302 C850 524 692 725 467 725 C273 725 121 601 80 408 C33 187 191 -15 415 -15 L415 -15 Z M424 89 C261 89 152 231 187 395 C216 531 325 621 458 621 C621 621 728 480 695 315 C667 179 557 89 424 89 L424 89 Z " />
<glyph glyph-name="Ocircumflex" unicode="&#xd4;" horiz-adv-x="825" d="M398 775 L478 775 L551 862 L586 775 L663 775 L618 915 L503 915 L398 775 Z M415 -15 C610 -15 760 109 802 302 C850 524 692 725 467 725 C273 725 121 601 80 408 C33 187 191 -15 415 -15 L415 -15 Z M424 89 C261 89 152 231 187 395 C216 531 325 621 458 621 C621 621 728 480 695 315 C667 179 557 89 424 89 L424 89 Z " />
<glyph glyph-name="Otilde" unicode="&#xd5;" horiz-adv-x="825" d="M407 817 C407 817 438 836 473 836 C535 836 552 807 613 807 C649 807 675 830 675 830 L688 894 C688 894 657 875 621 875 C560 875 543 904 481 904 C446 904 420 881 420 881 L407 817 Z M415 -15 C610 -15 760 109 802 302 C850 524 692 725 467 725 C273 725 121 601 80 408 C33 187 191 -15 415 -15 L415 -15 Z M424 89 C261 89 152 231 187 395 C216 531 325 621 458 621 C621 621 728 480 695 315 C667 179 557 89 424 89 L424 89 Z " />
<glyph glyph-name="Odieresis" unicode="&#xd6;" horiz-adv-x="825" d="M464 790 C495 790 519 814 519 845 C519 877 495 900 464 900 C432 900 409 877 409 845 C409 814 432 790 464 790 L464 790 Z M629 790 C660 790 684 814 684 845 C684 877 660 900 629 900 C597 900 574 877 574 845 C574 814 597 790 629 790 L629 790 Z M415 -15 C610 -15 760 109 802 302 C850 524 692 725 467 725 C273 725 121 601 80 408 C33 187 191 -15 415 -15 L415 -15 Z M424 89 C261 89 152 231 187 395 C216 531 325 621 458 621 C621 621 728 480 695 315 C667 179 557 89 424 89 L424 89 Z " />
<glyph glyph-name="multiply" unicode="&#xd7;" horiz-adv-x="565" d="M517 394 L466 473 L315 375 L217 526 L138 474 L236 324 L85 226 L137 146 L287 244 L385 94 L465 145 L367 296 L517 394 Z " />
<glyph glyph-name="Oslash" unicode="&#xd8;" horiz-adv-x="825" d="M889 710 L810 710 L712 625 C651 687 565 725 467 725 C273 725 121 601 80 408 C58 303 82 202 137 126 L-8 0 L71 0 L170 86 C231 24 317 -15 415 -15 C610 -15 760 109 802 302 C825 408 801 509 745 585 L889 710 Z M185 395 C214 531 324 624 458 624 C528 624 588 598 631 555 L218 196 C183 251 169 321 185 395 L185 395 Z M697 315 C670 179 559 87 424 87 C354 87 294 113 251 156 L664 515 C699 460 712 390 697 315 L697 315 Z " />
<glyph glyph-name="Ugrave" unicode="&#xd9;" horiz-adv-x="655" d="M489 775 L493 915 L397 915 L404 775 L489 775 Z M300 -15 C452 -15 553 81 585 230 L687 710 L577 710 L477 243 C457 149 395 94 316 94 C220 94 170 164 192 268 L287 710 L177 710 L84 275 C46 97 149 -15 300 -15 L300 -15 Z " />
<glyph glyph-name="Uacute" unicode="&#xda;" horiz-adv-x="655" d="M402 775 L494 775 L554 915 L451 915 L402 775 Z M300 -15 C452 -15 553 81 585 230 L687 710 L577 710 L477 243 C457 149 395 94 316 94 C220 94 170 164 192 268 L287 710 L177 710 L84 275 C46 97 149 -15 300 -15 L300 -15 Z " />
<glyph glyph-name="Ucircumflex" unicode="&#xdb;" horiz-adv-x="655" d="M313 775 L393 775 L466 862 L501 775 L578 775 L533 915 L418 915 L313 775 Z M300 -15 C452 -15 553 81 585 230 L687 710 L577 710 L477 243 C457 149 395 94 316 94 C220 94 170 164 192 268 L287 710 L177 710 L84 275 C46 97 149 -15 300 -15 L300 -15 Z " />
<glyph glyph-name="Udieresis" unicode="&#xdc;" horiz-adv-x="655" d="M379 790 C410 790 434 814 434 845 C434 877 410 900 379 900 C347 900 324 877 324 845 C324 814 347 790 379 790 L379 790 Z M544 790 C575 790 599 814 599 845 C599 877 575 900 544 900 C512 900 489 877 489 845 C489 814 512 790 544 790 L544 790 Z M300 -15 C452 -15 553 81 585 230 L687 710 L577 710 L477 243 C457 149 395 94 316 94 C220 94 170 164 192 268 L287 710 L177 710 L84 275 C46 97 149 -15 300 -15 L300 -15 Z " />
<glyph glyph-name="Yacute" unicode="&#xdd;" horiz-adv-x="600" d="M372 775 L464 775 L524 915 L421 915 L372 775 Z M198 0 L308 0 L381 343 L704 710 L575 710 L345 451 L225 710 L104 710 L271 343 L198 0 Z " />
<glyph glyph-name="Thorn" unicode="&#xde;" horiz-adv-x="535" d="M323 574 L265 574 L294 710 L184 710 L33 0 L143 0 L176 157 L274 157 C409 157 497 231 521 345 C545 460 468 574 323 574 L323 574 Z M416 354 C403 290 350 251 279 251 L196 251 L245 478 L307 478 C388 478 430 419 416 354 L416 354 Z " />
<glyph glyph-name="germandbls" unicode="&#xdf;" horiz-adv-x="560" d="M543 576 C559 651 505 755 367 755 C239 755 164 688 137 558 L18 0 L118 0 L236 555 C252 629 296 666 358 666 C421 666 451 616 441 570 C426 500 340 492 320 397 C298 292 432 231 414 145 C404 96 369 72 322 72 C274 72 242 102 242 102 L199 32 C199 32 244 -15 323 -15 C418 -15 491 35 511 133 C538 260 401 325 416 395 C429 460 521 471 543 576 L543 576 Z " />
<glyph glyph-name="agrave" unicode="&#xe0;" horiz-adv-x="578" d="M403 555 L407 695 L311 695 L318 555 L403 555 Z M465 445 L449 382 C428 410 376 460 276 460 C159 460 66 381 40 258 C9 115 100 -15 240 -15 C316 -15 359 15 382 40 L380 0 L465 0 L560 445 L465 445 Z M264 82 C175 82 119 159 137 244 C152 316 213 364 282 364 C365 364 409 312 426 285 L394 137 C367 112 323 82 264 82 L264 82 Z " />
<glyph glyph-name="aacute" unicode="&#xe1;" horiz-adv-x="578" d="M468 695 L365 695 L316 555 L408 555 L468 695 Z M465 445 L449 382 C428 410 376 460 276 460 C159 460 66 381 40 258 C9 115 100 -15 240 -15 C316 -15 359 15 382 40 L380 0 L465 0 L560 445 L465 445 Z M264 82 C175 82 119 159 137 244 C152 316 213 364 282 364 C365 364 409 312 426 285 L394 137 C367 112 323 82 264 82 L264 82 Z " />
<glyph glyph-name="acircumflex" unicode="&#xe2;" horiz-adv-x="578" d="M380 642 L415 555 L492 555 L447 695 L332 695 L227 555 L307 555 L380 642 Z M465 445 L449 382 C428 410 376 460 276 460 C159 460 66 381 40 258 C9 115 100 -15 240 -15 C316 -15 359 15 382 40 L380 0 L465 0 L560 445 L465 445 Z M264 82 C175 82 119 159 137 244 C152 316 213 364 282 364 C365 364 409 312 426 285 L394 137 C367 112 323 82 264 82 L264 82 Z " />
<glyph glyph-name="atilde" unicode="&#xe3;" horiz-adv-x="578" d="M442 587 C478 587 504 610 504 610 L517 674 C517 674 486 655 450 655 C389 655 372 684 310 684 C275 684 249 661 249 661 L236 597 C236 597 267 616 302 616 C364 616 381 587 442 587 L442 587 Z M465 445 L449 382 C428 410 376 460 276 460 C159 460 66 381 40 258 C9 115 100 -15 240 -15 C316 -15 359 15 382 40 L380 0 L465 0 L560 445 L465 445 Z M264 82 C175 82 119 159 137 244 C152 316 213 364 282 364 C365 364 409 312 426 285 L394 137 C367 112 323 82 264 82 L264 82 Z " />
<glyph glyph-name="adieresis" unicode="&#xe4;" horiz-adv-x="578" d="M293 570 C324 570 348 594 348 625 C348 657 324 680 293 680 C261 680 238 657 238 625 C238 594 261 570 293 570 L293 570 Z M458 570 C489 570 513 594 513 625 C513 657 489 680 458 680 C426 680 403 657 403 625 C403 594 426 570 458 570 L458 570 Z M465 445 L449 382 C428 410 376 460 276 460 C159 460 66 381 40 258 C9 115 100 -15 240 -15 C316 -15 359 15 382 40 L380 0 L465 0 L560 445 L465 445 Z M264 82 C175 82 119 159 137 244 C152 316 213 364 282 364 C365 364 409 312 426 285 L394 137 C367 112 323 82 264 82 L264 82 Z " />
<glyph glyph-name="aring" unicode="&#xe5;" horiz-adv-x="578" d="M368 490 C428 490 475 536 475 595 C475 654 428 700 368 700 C308 700 262 654 262 595 C262 536 308 490 368 490 L368 490 Z M368 644 C395 644 417 622 417 595 C417 568 395 546 368 546 C341 546 319 568 319 595 C319 622 341 644 368 644 L368 644 Z M465 445 L449 382 C428 410 376 460 276 460 C159 460 66 381 40 258 C9 115 100 -15 240 -15 C316 -15 359 15 382 40 L380 0 L465 0 L560 445 L465 445 Z M264 82 C175 82 119 159 137 244 C152 316 213 364 282 364 C365 364 409 312 426 285 L394 137 C367 112 323 82 264 82 L264 82 Z " />
<glyph glyph-name="ae" unicode="&#xe6;" horiz-adv-x="915" d="M684 460 C632 460 584 439 545 402 L550 445 L465 445 L449 382 C428 410 376 460 276 460 C159 460 66 381 40 258 C9 115 100 -15 240 -15 C309 -15 351 10 375 33 L370 0 L460 0 L482 83 C510 24 565 -15 642 -15 C728 -15 802 25 854 106 L769 143 C740 103 697 79 645 79 C570 79 516 135 514 206 L878 206 C878 206 881 214 883 228 C900 338 811 460 684 460 L684 460 Z M663 374 C728 374 775 337 786 280 L528 280 C553 344 602 374 663 374 L663 374 Z M137 244 C152 316 213 364 282 364 C365 364 409 312 426 285 L394 137 C367 112 323 82 264 82 C175 82 119 159 137 244 L137 244 Z " />
<glyph glyph-name="ccedilla" unicode="&#xe7;" horiz-adv-x="490" d="M264 82 C175 82 119 159 137 244 C152 316 213 364 282 364 C341 364 384 330 403 284 L494 322 C463 392 400 460 291 460 C169 460 66 381 40 258 C13 135 84 22 197 -8 L142 -87 L168 -106 C168 -106 181 -96 197 -96 C222 -96 237 -112 233 -132 C229 -154 207 -165 183 -165 C145 -165 124 -144 124 -144 L90 -188 C90 -188 126 -220 185 -220 C250 -220 291 -186 301 -140 C311 -94 285 -52 228 -47 L248 -15 L255 -15 C333 -15 399 15 449 77 L373 130 C343 97 307 82 264 82 L264 82 Z " />
<glyph glyph-name="egrave" unicode="&#xe8;" horiz-adv-x="535" d="M384 555 L388 695 L292 695 L299 555 L384 555 Z M287 460 C167 460 66 381 39 255 C9 115 110 -15 255 -15 C345 -15 419 25 472 106 L387 143 C357 103 314 79 262 79 C188 79 135 135 133 206 L495 206 C495 206 498 214 500 228 C518 338 429 460 287 460 L287 460 Z M282 374 C349 374 393 337 403 280 L148 280 C174 344 224 374 282 374 L282 374 Z " />
<glyph glyph-name="eacute" unicode="&#xe9;" horiz-adv-x="535" d="M449 695 L346 695 L297 555 L389 555 L449 695 Z M287 460 C167 460 66 381 39 255 C9 115 110 -15 255 -15 C345 -15 419 25 472 106 L387 143 C357 103 314 79 262 79 C188 79 135 135 133 206 L495 206 C495 206 498 214 500 228 C518 338 429 460 287 460 L287 460 Z M282 374 C349 374 393 337 403 280 L148 280 C174 344 224 374 282 374 L282 374 Z " />
<glyph glyph-name="ecircumflex" unicode="&#xea;" horiz-adv-x="535" d="M361 642 L396 555 L473 555 L428 695 L313 695 L208 555 L288 555 L361 642 Z M287 460 C167 460 66 381 39 255 C9 115 110 -15 255 -15 C345 -15 419 25 472 106 L387 143 C357 103 314 79 262 79 C188 79 135 135 133 206 L495 206 C495 206 498 214 500 228 C518 338 429 460 287 460 L287 460 Z M282 374 C349 374 393 337 403 280 L148 280 C174 344 224 374 282 374 L282 374 Z " />
<glyph glyph-name="edieresis" unicode="&#xeb;" horiz-adv-x="535" d="M274 570 C305 570 329 594 329 625 C329 657 305 680 274 680 C242 680 219 657 219 625 C219 594 242 570 274 570 L274 570 Z M439 570 C470 570 494 594 494 625 C494 657 470 680 439 680 C407 680 384 657 384 625 C384 594 407 570 439 570 L439 570 Z M287 460 C167 460 66 381 39 255 C9 115 110 -15 255 -15 C345 -15 419 25 472 106 L387 143 C357 103 314 79 262 79 C188 79 135 135 133 206 L495 206 C495 206 498 214 500 228 C518 338 429 460 287 460 L287 460 Z M282 374 C349 374 393 337 403 280 L148 280 C174 344 224 374 282 374 L282 374 Z " />
<glyph glyph-name="igrave" unicode="&#xec;" horiz-adv-x="245" d="M237 555 L241 695 L145 695 L152 555 L237 555 Z M25 0 L125 0 L220 445 L120 445 L25 0 Z " />
<glyph glyph-name="iacute" unicode="&#xed;" horiz-adv-x="245" d="M150 555 L242 555 L302 695 L199 695 L150 555 Z M25 0 L125 0 L220 445 L120 445 L25 0 Z " />
<glyph glyph-name="icircumflex" unicode="&#xee;" horiz-adv-x="245" d="M61 555 L141 555 L214 642 L249 555 L326 555 L281 695 L166 695 L61 555 Z M25 0 L125 0 L220 445 L120 445 L25 0 Z " />
<glyph glyph-name="idieresis" unicode="&#xef;" horiz-adv-x="245" d="M127 570 C158 570 182 594 182 625 C182 657 158 680 127 680 C95 680 72 657 72 625 C72 594 95 570 127 570 L127 570 Z M292 570 C323 570 347 594 347 625 C347 657 323 680 292 680 C260 680 237 657 237 625 C237 594 260 570 292 570 L292 570 Z M25 0 L125 0 L220 445 L120 445 L25 0 Z " />
<glyph glyph-name="eth" unicode="&#xf0;" horiz-adv-x="545" d="M561 639 L545 677 L462 644 C439 682 408 720 369 755 L302 691 C332 664 356 636 376 608 L246 556 L261 518 L398 573 C444 493 455 413 453 343 C428 407 370 455 280 455 C165 455 66 380 39 254 C10 117 110 -15 255 -15 C379 -15 478 55 514 230 C539 348 543 483 482 607 L561 639 Z M409 202 C394 129 332 82 264 82 C175 82 119 159 137 244 C152 316 213 364 282 364 C370 364 426 286 409 202 L409 202 Z " />
<glyph glyph-name="ntilde" unicode="&#xf1;" horiz-adv-x="498" d="M411 655 C350 655 333 684 271 684 C236 684 210 661 210 661 L197 597 C197 597 228 616 263 616 C325 616 342 587 403 587 C439 587 465 610 465 610 L478 674 C478 674 447 655 411 655 L411 655 Z M334 460 C284 460 243 436 200 392 L208 445 L113 445 L18 0 L118 0 L181 294 C219 343 257 363 290 363 C336 363 363 331 351 275 L293 0 L393 0 L456 296 C477 394 423 460 334 460 L334 460 Z " />
<glyph glyph-name="ograve" unicode="&#xf2;" horiz-adv-x="545" d="M387 555 L391 695 L295 695 L302 555 L387 555 Z M255 -15 C377 -15 479 65 506 188 C536 330 435 460 291 460 C169 460 66 381 40 258 C9 115 110 -15 255 -15 L255 -15 Z M264 82 C175 82 119 159 137 244 C152 316 213 364 282 364 C370 364 426 286 409 202 C394 129 332 82 264 82 L264 82 Z " />
<glyph glyph-name="oacute" unicode="&#xf3;" horiz-adv-x="545" d="M300 555 L392 555 L452 695 L349 695 L300 555 Z M255 -15 C377 -15 479 65 506 188 C536 330 435 460 291 460 C169 460 66 381 40 258 C9 115 110 -15 255 -15 L255 -15 Z M264 82 C175 82 119 159 137 244 C152 316 213 364 282 364 C370 364 426 286 409 202 C394 129 332 82 264 82 L264 82 Z " />
<glyph glyph-name="ocircumflex" unicode="&#xf4;" horiz-adv-x="545" d="M211 555 L291 555 L364 642 L399 555 L476 555 L431 695 L316 695 L211 555 Z M255 -15 C377 -15 479 65 506 188 C536 330 435 460 291 460 C169 460 66 381 40 258 C9 115 110 -15 255 -15 L255 -15 Z M264 82 C175 82 119 159 137 244 C152 316 213 364 282 364 C370 364 426 286 409 202 C394 129 332 82 264 82 L264 82 Z " />
<glyph glyph-name="otilde" unicode="&#xf5;" horiz-adv-x="545" d="M220 597 C220 597 251 616 286 616 C348 616 365 587 426 587 C462 587 488 610 488 610 L501 674 C501 674 470 655 434 655 C373 655 356 684 294 684 C259 684 233 661 233 661 L220 597 Z M255 -15 C377 -15 479 65 506 188 C536 330 435 460 291 460 C169 460 66 381 40 258 C9 115 110 -15 255 -15 L255 -15 Z M264 82 C175 82 119 159 137 244 C152 316 213 364 282 364 C370 364 426 286 409 202 C394 129 332 82 264 82 L264 82 Z " />
<glyph glyph-name="odieresis" unicode="&#xf6;" horiz-adv-x="545" d="M277 570 C308 570 332 594 332 625 C332 657 308 680 277 680 C245 680 222 657 222 625 C222 594 245 570 277 570 L277 570 Z M442 570 C473 570 497 594 497 625 C497 657 473 680 442 680 C410 680 387 657 387 625 C387 594 410 570 442 570 L442 570 Z M255 -15 C377 -15 479 65 506 188 C536 330 435 460 291 460 C169 460 66 381 40 258 C9 115 110 -15 255 -15 L255 -15 Z M264 82 C175 82 119 159 137 244 C152 316 213 364 282 364 C370 364 426 286 409 202 C394 129 332 82 264 82 L264 82 Z " />
<glyph glyph-name="divide" unicode="&#xf7;" horiz-adv-x="545" d="M330 426 C369 426 398 456 398 494 C398 532 369 561 330 561 C291 561 263 532 263 494 C263 456 291 426 330 426 L330 426 Z M69 263 L494 263 L514 357 L89 357 L69 263 Z M252 58 C291 58 320 88 320 126 C320 164 291 193 252 193 C213 193 185 164 185 126 C185 88 213 58 252 58 L252 58 Z " />
<glyph glyph-name="oslash" unicode="&#xf8;" horiz-adv-x="545" d="M560 445 L485 445 L439 404 C401 439 349 460 291 460 C169 460 66 381 40 258 C26 192 40 128 73 79 L-15 0 L60 0 L106 41 C145 6 196 -15 255 -15 C377 -15 479 65 506 188 C520 254 506 317 472 366 L560 445 Z M132 244 C147 316 208 369 282 369 C316 369 345 358 367 340 L146 144 C130 172 124 208 132 244 L132 244 Z M414 202 C399 129 337 77 264 77 C230 77 201 88 179 106 L399 302 C415 273 421 238 414 202 L414 202 Z " />
<glyph glyph-name="ugrave" unicode="&#xf9;" horiz-adv-x="498" d="M354 510 L358 650 L262 650 L269 510 L354 510 Z M380 445 L317 151 C279 102 241 82 208 82 C162 82 135 114 147 170 L205 445 L105 445 L42 149 C21 51 75 -15 164 -15 C214 -15 255 9 298 53 L290 0 L385 0 L480 445 L380 445 Z " />
<glyph glyph-name="uacute" unicode="&#xfa;" horiz-adv-x="498" d="M419 650 L316 650 L267 510 L359 510 L419 650 Z M380 445 L317 151 C279 102 241 82 208 82 C162 82 135 114 147 170 L205 445 L105 445 L42 149 C21 51 75 -15 164 -15 C214 -15 255 9 298 53 L290 0 L385 0 L480 445 L380 445 Z " />
<glyph glyph-name="ucircumflex" unicode="&#xfb;" horiz-adv-x="498" d="M331 597 L366 510 L443 510 L398 650 L283 650 L178 510 L258 510 L331 597 Z M380 445 L317 151 C279 102 241 82 208 82 C162 82 135 114 147 170 L205 445 L105 445 L42 149 C21 51 75 -15 164 -15 C214 -15 255 9 298 53 L290 0 L385 0 L480 445 L380 445 Z " />
<glyph glyph-name="udieresis" unicode="&#xfc;" horiz-adv-x="498" d="M244 525 C275 525 299 549 299 580 C299 612 275 635 244 635 C212 635 189 612 189 580 C189 549 212 525 244 525 L244 525 Z M409 525 C440 525 464 549 464 580 C464 612 440 635 409 635 C377 635 354 612 354 580 C354 549 377 525 409 525 L409 525 Z M380 445 L317 151 C279 102 241 82 208 82 C162 82 135 114 147 170 L205 445 L105 445 L42 149 C21 51 75 -15 164 -15 C214 -15 255 9 298 53 L290 0 L385 0 L480 445 L380 445 Z " />
<glyph glyph-name="yacute" unicode="&#xfd;" horiz-adv-x="460" d="M398 650 L295 650 L246 510 L338 510 L398 650 Z M395 445 L212 146 L158 445 L53 445 L136 27 L-17 -220 L85 -220 L503 445 L395 445 Z " />
<glyph glyph-name="thorn" unicode="&#xfe;" horiz-adv-x="578" d="M338 460 C272 460 231 438 206 415 L273 730 L173 730 L-29 -220 L72 -220 L131 60 C153 32 205 -15 302 -15 C419 -15 512 65 538 188 C569 331 478 460 338 460 L338 460 Z M441 202 C426 129 365 82 296 82 C214 82 170 133 152 160 L184 310 C211 335 255 364 314 364 C403 364 459 286 441 202 L441 202 Z " />
<glyph glyph-name="ydieresis" unicode="&#xff;" horiz-adv-x="460" d="M223 525 C254 525 278 549 278 580 C278 612 254 635 223 635 C191 635 168 612 168 580 C168 549 191 525 223 525 L223 525 Z M388 525 C419 525 443 549 443 580 C443 612 419 635 388 635 C356 635 333 612 333 580 C333 549 356 525 388 525 L388 525 Z M395 445 L212 146 L158 445 L53 445 L136 27 L-17 -220 L85 -220 L503 445 L395 445 Z " />
<glyph glyph-name="Amacron" unicode="&#x100;" horiz-adv-x="740" d="M644 890 L379 890 L364 821 L629 821 L644 890 Z M563 0 L683 0 L521 710 L427 710 L-38 0 L87 0 L222 212 L521 212 L563 0 Z M282 306 L449 570 L502 306 L282 306 Z " />
<glyph glyph-name="amacron" unicode="&#x101;" horiz-adv-x="578" d="M516 670 L251 670 L236 601 L501 601 L516 670 Z M465 445 L449 382 C428 410 376 460 276 460 C159 460 66 381 40 258 C9 115 100 -15 240 -15 C316 -15 359 15 382 40 L380 0 L465 0 L560 445 L465 445 Z M264 82 C175 82 119 159 137 244 C152 316 213 364 282 364 C365 364 409 312 426 285 L394 137 C367 112 323 82 264 82 L264 82 Z " />
<glyph glyph-name="Abreve" unicode="&#x102;" horiz-adv-x="740" d="M500 775 C578 775 631 828 650 915 L576 915 C565 866 541 838 505 838 C469 838 448 866 459 915 L385 915 C367 833 416 775 500 775 L500 775 Z M563 0 L683 0 L521 710 L427 710 L-38 0 L87 0 L222 212 L521 212 L563 0 Z M282 306 L449 570 L502 306 L282 306 Z " />
<glyph glyph-name="abreve" unicode="&#x103;" horiz-adv-x="578" d="M372 555 C450 555 503 608 522 695 L448 695 C437 646 413 618 377 618 C341 618 320 646 331 695 L257 695 C239 613 288 555 372 555 L372 555 Z M465 445 L449 382 C428 410 376 460 276 460 C159 460 66 381 40 258 C9 115 100 -15 240 -15 C316 -15 359 15 382 40 L380 0 L465 0 L560 445 L465 445 Z M264 82 C175 82 119 159 137 244 C152 316 213 364 282 364 C365 364 409 312 426 285 L394 137 C367 112 323 82 264 82 L264 82 Z " />
<glyph glyph-name="Aogonek" unicode="&#x104;" horiz-adv-x="740" d="M657 -126 C657 -126 632 -152 601 -152 C575 -152 556 -132 561 -104 C568 -71 604 -45 683 0 L521 710 L427 710 L-38 0 L87 0 L222 212 L521 212 L563 0 L597 0 C540 -31 499 -62 488 -113 C475 -173 519 -225 584 -225 C653 -225 692 -173 692 -173 L657 -126 Z M282 306 L449 570 L502 306 L282 306 Z " />
<glyph glyph-name="aogonek" unicode="&#x105;" horiz-adv-x="578" d="M383 -152 C357 -152 338 -132 343 -104 C350 -71 386 -45 465 0 L560 445 L465 445 L449 382 C428 410 376 460 276 460 C159 460 66 381 40 258 C9 115 100 -15 240 -15 C316 -15 359 15 382 40 L380 0 C322 -31 281 -62 270 -113 C257 -173 301 -225 366 -225 C435 -225 474 -173 474 -173 L439 -126 C439 -126 414 -152 383 -152 L383 -152 Z M264 82 C175 82 119 159 137 244 C152 316 213 364 282 364 C365 364 409 312 426 285 L394 137 C367 112 323 82 264 82 L264 82 Z " />
<glyph glyph-name="Cacute" unicode="&#x106;" horiz-adv-x="766" d="M447 775 L539 775 L599 915 L496 915 L447 775 Z M415 -15 C547 -15 638 34 716 129 L636 191 C582 125 510 89 424 89 C261 89 152 231 187 395 C215 530 325 621 458 621 C582 621 654 546 684 468 L782 511 C739 619 637 725 468 725 C273 725 121 601 80 408 C33 186 190 -15 415 -15 L415 -15 Z " />
<glyph glyph-name="cacute" unicode="&#x107;" horiz-adv-x="490" d="M300 555 L392 555 L452 695 L349 695 L300 555 Z M255 -15 C333 -15 399 15 449 77 L373 130 C343 97 307 82 264 82 C175 82 119 159 137 244 C152 316 213 364 282 364 C341 364 384 330 403 284 L494 322 C463 392 400 460 291 460 C169 460 66 381 40 258 C9 115 110 -15 255 -15 L255 -15 Z " />
<glyph glyph-name="Ccircumflex" unicode="&#x108;" horiz-adv-x="766" d="M358 775 L438 775 L511 862 L546 775 L623 775 L578 915 L463 915 L358 775 Z M415 -15 C547 -15 638 34 716 129 L636 191 C582 125 510 89 424 89 C261 89 152 231 187 395 C215 530 325 621 458 621 C582 621 654 546 684 468 L782 511 C739 619 637 725 468 725 C273 725 121 601 80 408 C33 186 190 -15 415 -15 L415 -15 Z " />
<glyph glyph-name="ccircumflex" unicode="&#x109;" horiz-adv-x="490" d="M211 555 L291 555 L364 642 L399 555 L476 555 L431 695 L316 695 L211 555 Z M255 -15 C333 -15 399 15 449 77 L373 130 C343 97 307 82 264 82 C175 82 119 159 137 244 C152 316 213 364 282 364 C341 364 384 330 403 284 L494 322 C463 392 400 460 291 460 C169 460 66 381 40 258 C9 115 110 -15 255 -15 L255 -15 Z " />
<glyph glyph-name="Cdotaccent" unicode="&#x10a;" horiz-adv-x="766" d="M506 790 C537 790 561 814 561 845 C561 877 537 900 506 900 C474 900 451 877 451 845 C451 814 474 790 506 790 L506 790 Z M415 -15 C547 -15 638 34 716 129 L636 191 C582 125 510 89 424 89 C261 89 152 231 187 395 C215 530 325 621 458 621 C582 621 654 546 684 468 L782 511 C739 619 637 725 468 725 C273 725 121 601 80 408 C33 186 190 -15 415 -15 L415 -15 Z " />
<glyph glyph-name="cdotaccent" unicode="&#x10b;" horiz-adv-x="490" d="M359 570 C390 570 414 594 414 625 C414 657 390 680 359 680 C327 680 304 657 304 625 C304 594 327 570 359 570 L359 570 Z M255 -15 C333 -15 399 15 449 77 L373 130 C343 97 307 82 264 82 C175 82 119 159 137 244 C152 316 213 364 282 364 C341 364 384 330 403 284 L494 322 C463 392 400 460 291 460 C169 460 66 381 40 258 C9 115 110 -15 255 -15 L255 -15 Z " />
<glyph glyph-name="Ccaron" unicode="&#x10c;" horiz-adv-x="766" d="M389 915 L434 775 L549 775 L654 915 L574 915 L502 828 L466 915 L389 915 Z M415 -15 C547 -15 638 34 716 129 L636 191 C582 125 510 89 424 89 C261 89 152 231 187 395 C215 530 325 621 458 621 C582 621 654 546 684 468 L782 511 C739 619 637 725 468 725 C273 725 121 601 80 408 C33 186 190 -15 415 -15 L415 -15 Z " />
<glyph glyph-name="ccaron" unicode="&#x10d;" horiz-adv-x="490" d="M242 695 L287 555 L402 555 L507 695 L427 695 L355 608 L319 695 L242 695 Z M255 -15 C333 -15 399 15 449 77 L373 130 C343 97 307 82 264 82 C175 82 119 159 137 244 C152 316 213 364 282 364 C341 364 384 330 403 284 L494 322 C463 392 400 460 291 460 C169 460 66 381 40 258 C9 115 110 -15 255 -15 L255 -15 Z " />
<glyph glyph-name="Dcaron" unicode="&#x10e;" horiz-adv-x="650" d="M341 915 L386 775 L501 775 L606 915 L526 915 L454 828 L418 915 L341 915 Z M33 0 L243 0 C439 0 587 119 629 312 C677 534 551 710 325 710 L184 710 L33 0 Z M165 102 L272 609 L321 609 C481 609 555 490 522 325 C494 189 387 102 257 102 L165 102 Z " />
<glyph glyph-name="dcaron" unicode="&#x10f;" horiz-adv-x="705" d="M447 385 C425 413 373 460 276 460 C159 460 66 381 40 258 C9 115 100 -15 240 -15 C316 -15 359 15 382 40 L380 0 L465 0 L622 740 L522 740 L447 385 Z M830 710 L754 440 L848 440 L935 710 L830 710 Z M264 82 C175 82 119 159 137 244 C152 316 213 364 282 364 C364 364 408 313 426 286 L394 137 C367 111 323 82 264 82 L264 82 Z " />
<glyph glyph-name="Dcroat" unicode="&#x110;" horiz-adv-x="650" d="M325 710 L184 710 L114 382 L34 382 L23 328 L103 328 L33 0 L243 0 C439 0 587 119 629 312 C677 534 551 710 325 710 L325 710 Z M522 325 C494 189 387 102 257 102 L165 102 L213 328 L363 328 L374 382 L224 382 L272 609 L321 609 C481 609 555 490 522 325 L522 325 Z " />
<glyph glyph-name="dcroat" unicode="&#x111;" horiz-adv-x="578" d="M666 640 L601 640 L622 740 L522 740 L501 640 L411 640 L400 586 L489 586 L447 385 C425 413 373 460 276 460 C159 460 66 381 40 258 C9 115 100 -15 240 -15 C316 -15 359 15 382 40 L380 0 L465 0 L589 586 L655 586 L666 640 Z M264 82 C175 82 119 159 137 244 C152 316 213 364 282 364 C364 364 408 313 426 286 L394 137 C367 111 323 82 264 82 L264 82 Z " />
<glyph glyph-name="Emacron" unicode="&#x112;" horiz-adv-x="535" d="M544 890 L279 890 L264 821 L529 821 L544 890 Z M542 609 L564 710 L184 710 L33 0 L443 0 L465 102 L165 102 L217 347 L512 347 L532 441 L237 441 L273 609 L542 609 Z " />
<glyph glyph-name="emacron" unicode="&#x113;" horiz-adv-x="535" d="M497 670 L232 670 L217 601 L482 601 L497 670 Z M287 460 C167 460 66 381 39 255 C9 115 110 -15 255 -15 C345 -15 419 25 472 106 L387 143 C357 103 314 79 262 79 C188 79 135 135 133 206 L495 206 C495 206 498 214 500 228 C518 338 429 460 287 460 L287 460 Z M282 374 C349 374 393 337 403 280 L148 280 C174 344 224 374 282 374 L282 374 Z " />
<glyph glyph-name="Ebreve" unicode="&#x114;" horiz-adv-x="535" d="M400 775 C478 775 531 828 550 915 L476 915 C465 866 441 838 405 838 C369 838 348 866 359 915 L285 915 C267 833 316 775 400 775 L400 775 Z M542 609 L564 710 L184 710 L33 0 L443 0 L465 102 L165 102 L217 347 L512 347 L532 441 L237 441 L273 609 L542 609 Z " />
<glyph glyph-name="ebreve" unicode="&#x115;" horiz-adv-x="535" d="M353 555 C431 555 484 608 503 695 L429 695 C418 646 394 618 358 618 C322 618 301 646 312 695 L238 695 C220 613 269 555 353 555 L353 555 Z M287 460 C167 460 66 381 39 255 C9 115 110 -15 255 -15 C345 -15 419 25 472 106 L387 143 C357 103 314 79 262 79 C188 79 135 135 133 206 L495 206 C495 206 498 214 500 228 C518 338 429 460 287 460 L287 460 Z M282 374 C349 374 393 337 403 280 L148 280 C174 344 224 374 282 374 L282 374 Z " />
<glyph glyph-name="Edotaccent" unicode="&#x116;" horiz-adv-x="535" d="M403 790 C434 790 458 814 458 845 C458 877 434 900 403 900 C371 900 348 877 348 845 C348 814 371 790 403 790 L403 790 Z M542 609 L564 710 L184 710 L33 0 L443 0 L465 102 L165 102 L217 347 L512 347 L532 441 L237 441 L273 609 L542 609 Z " />
<glyph glyph-name="edotaccent" unicode="&#x117;" horiz-adv-x="535" d="M356 570 C387 570 411 594 411 625 C411 657 387 680 356 680 C324 680 301 657 301 625 C301 594 324 570 356 570 L356 570 Z M287 460 C167 460 66 381 39 255 C9 115 110 -15 255 -15 C345 -15 419 25 472 106 L387 143 C357 103 314 79 262 79 C188 79 135 135 133 206 L495 206 C495 206 498 214 500 228 C518 338 429 460 287 460 L287 460 Z M282 374 C349 374 393 337 403 280 L148 280 C174 344 224 374 282 374 L282 374 Z " />
<glyph glyph-name="Eogonek" unicode="&#x118;" horiz-adv-x="535" d="M542 609 L564 710 L184 710 L33 0 L357 0 C300 -31 259 -62 248 -113 C235 -173 279 -225 344 -225 C413 -225 452 -173 452 -173 L417 -126 C417 -126 392 -152 361 -152 C335 -152 316 -132 321 -104 C328 -71 364 -45 443 0 L465 102 L165 102 L217 347 L512 347 L532 441 L237 441 L273 609 L542 609 Z " />
<glyph glyph-name="eogonek" unicode="&#x119;" horiz-adv-x="535" d="M287 460 C167 460 66 381 39 255 C13 133 87 18 202 -9 C153 -37 119 -67 109 -113 C96 -173 140 -225 205 -225 C274 -225 313 -173 313 -173 L278 -126 C278 -126 253 -152 222 -152 C196 -152 177 -132 182 -104 C188 -75 218 -51 280 -14 C359 -7 424 33 472 106 L387 143 C357 103 314 79 262 79 C188 79 135 135 133 206 L495 206 C495 206 498 214 500 228 C518 338 429 460 287 460 L287 460 Z M282 374 C349 374 393 337 403 280 L148 280 C174 344 224 374 282 374 L282 374 Z " />
<glyph glyph-name="Ecaron" unicode="&#x11a;" horiz-adv-x="535" d="M446 775 L551 915 L471 915 L399 828 L363 915 L286 915 L331 775 L446 775 Z M542 609 L564 710 L184 710 L33 0 L443 0 L465 102 L165 102 L217 347 L512 347 L532 441 L237 441 L273 609 L542 609 Z " />
<glyph glyph-name="ecaron" unicode="&#x11b;" horiz-adv-x="535" d="M399 555 L504 695 L424 695 L352 608 L316 695 L239 695 L284 555 L399 555 Z M287 460 C167 460 66 381 39 255 C9 115 110 -15 255 -15 C345 -15 419 25 472 106 L387 143 C357 103 314 79 262 79 C188 79 135 135 133 206 L495 206 C495 206 498 214 500 228 C518 338 429 460 287 460 L287 460 Z M282 374 C349 374 393 337 403 280 L148 280 C174 344 224 374 282 374 L282 374 Z " />
<glyph glyph-name="Gcircumflex" unicode="&#x11c;" horiz-adv-x="808" d="M556 862 L591 775 L668 775 L623 915 L508 915 L403 775 L483 775 L556 862 Z M791 392 L332 392 L312 294 L678 294 C649 166 550 89 424 89 C261 89 153 232 187 395 C215 530 326 621 463 621 C559 621 623 577 661 525 L753 585 C696 663 601 725 473 725 C274 725 121 601 80 408 C33 187 190 -15 415 -15 C606 -15 740 101 781 288 C793 340 791 392 791 392 L791 392 Z " />
<glyph glyph-name="gcircumflex" unicode="&#x11d;" horiz-adv-x="578" d="M381 642 L416 555 L493 555 L448 695 L333 695 L228 555 L308 555 L381 642 Z M465 445 L449 382 C428 410 376 460 276 460 C159 460 67 383 41 263 C11 122 100 -5 240 -5 C308 -5 349 17 374 38 L361 -23 C343 -104 289 -144 219 -144 C169 -144 129 -116 106 -85 L37 -146 C72 -195 137 -235 216 -235 C337 -235 430 -168 458 -35 L560 445 L465 445 Z M264 89 C175 89 122 165 138 249 C152 320 213 366 282 366 C365 366 409 313 426 285 L396 142 C369 118 324 89 264 89 L264 89 Z " />
<glyph glyph-name="Gbreve" unicode="&#x11e;" horiz-adv-x="808" d="M548 775 C626 775 679 828 698 915 L624 915 C613 866 589 838 553 838 C517 838 496 866 507 915 L433 915 C415 833 464 775 548 775 L548 775 Z M791 392 L332 392 L312 294 L678 294 C649 166 550 89 424 89 C261 89 153 232 187 395 C215 530 326 621 463 621 C559 621 623 577 661 525 L753 585 C696 663 601 725 473 725 C274 725 121 601 80 408 C33 187 190 -15 415 -15 C606 -15 740 101 781 288 C793 340 791 392 791 392 L791 392 Z " />
<glyph glyph-name="gbreve" unicode="&#x11f;" horiz-adv-x="578" d="M373 555 C451 555 504 608 523 695 L449 695 C438 646 414 618 378 618 C342 618 321 646 332 695 L258 695 C240 613 289 555 373 555 L373 555 Z M465 445 L449 382 C428 410 376 460 276 460 C159 460 67 383 41 263 C11 122 100 -5 240 -5 C308 -5 349 17 374 38 L361 -23 C343 -104 289 -144 219 -144 C169 -144 129 -116 106 -85 L37 -146 C72 -195 137 -235 216 -235 C337 -235 430 -168 458 -35 L560 445 L465 445 Z M264 89 C175 89 122 165 138 249 C152 320 213 366 282 366 C365 366 409 313 426 285 L396 142 C369 118 324 89 264 89 L264 89 Z " />
<glyph glyph-name="Gdotaccent" unicode="&#x120;" horiz-adv-x="808" d="M551 790 C582 790 606 814 606 845 C606 877 582 900 551 900 C519 900 496 877 496 845 C496 814 519 790 551 790 L551 790 Z M791 392 L332 392 L312 294 L678 294 C649 166 550 89 424 89 C261 89 153 232 187 395 C215 530 326 621 463 621 C559 621 623 577 661 525 L753 585 C696 663 601 725 473 725 C274 725 121 601 80 408 C33 187 190 -15 415 -15 C606 -15 740 101 781 288 C793 340 791 392 791 392 L791 392 Z " />
<glyph glyph-name="gdotaccent" unicode="&#x121;" horiz-adv-x="578" d="M376 570 C407 570 431 594 431 625 C431 657 407 680 376 680 C344 680 321 657 321 625 C321 594 344 570 376 570 L376 570 Z M465 445 L449 382 C428 410 376 460 276 460 C159 460 67 383 41 263 C11 122 100 -5 240 -5 C308 -5 349 17 374 38 L361 -23 C343 -104 289 -144 219 -144 C169 -144 129 -116 106 -85 L37 -146 C72 -195 137 -235 216 -235 C337 -235 430 -168 458 -35 L560 445 L465 445 Z M264 89 C175 89 122 165 138 249 C152 320 213 366 282 366 C365 366 409 313 426 285 L396 142 C369 118 324 89 264 89 L264 89 Z " />
<glyph glyph-name="Gcommaaccent" unicode="&#x122;" horiz-adv-x="808" d="M791 392 L332 392 L312 294 L678 294 C649 166 550 89 424 89 C261 89 153 232 187 395 C215 530 326 621 463 621 C559 621 623 577 661 525 L753 585 C696 663 601 725 473 725 C274 725 121 601 80 408 C33 187 190 -15 415 -15 C606 -15 740 101 781 288 C793 340 791 392 791 392 L791 392 Z M249 -205 L341 -205 L402 -65 L298 -65 L249 -205 Z " />
<glyph glyph-name="gcommaaccent" unicode="&#x123;" horiz-adv-x="578" d="M463 695 L371 695 L311 555 L414 555 L463 695 Z M465 445 L449 382 C428 410 376 460 276 460 C159 460 67 383 41 263 C11 122 100 -5 240 -5 C308 -5 349 17 374 38 L361 -23 C343 -104 289 -144 219 -144 C169 -144 129 -116 106 -85 L37 -146 C72 -195 137 -235 216 -235 C337 -235 430 -168 458 -35 L560 445 L465 445 Z M264 89 C175 89 122 165 138 249 C152 320 213 366 282 366 C365 366 409 313 426 285 L396 142 C369 118 324 89 264 89 L264 89 Z " />
<glyph glyph-name="Hcircumflex" unicode="&#x124;" horiz-adv-x="760" d="M518 862 L553 775 L630 775 L585 915 L470 915 L365 775 L445 775 L518 862 Z M674 710 L618 448 L238 448 L294 710 L184 710 L33 0 L143 0 L216 344 L596 344 L523 0 L633 0 L784 710 L674 710 Z " />
<glyph glyph-name="hcircumflex" unicode="&#x125;" horiz-adv-x="498" d="M260 892 L295 805 L372 805 L327 945 L212 945 L107 805 L187 805 L260 892 Z M334 460 C285 460 245 437 202 395 L276 740 L176 740 L18 0 L118 0 L181 293 C219 343 257 363 290 363 C336 363 363 331 351 275 L293 0 L393 0 L456 297 C477 394 423 460 334 460 L334 460 Z " />
<glyph glyph-name="Hbar" unicode="&#x126;" horiz-adv-x="760" d="M838 587 L758 587 L784 710 L674 710 L648 587 L268 587 L294 710 L184 710 L158 587 L78 587 L66 533 L146 533 L33 0 L143 0 L216 344 L596 344 L523 0 L633 0 L746 533 L826 533 L838 587 Z M618 448 L238 448 L256 533 L636 533 L618 448 Z " />
<glyph glyph-name="hbar" unicode="&#x127;" horiz-adv-x="498" d="M334 460 C285 460 245 437 202 395 L243 586 L333 586 L344 640 L255 640 L276 740 L176 740 L155 640 L89 640 L78 586 L143 586 L18 0 L118 0 L181 293 C219 343 257 363 290 363 C336 363 363 331 351 275 L293 0 L393 0 L456 297 C477 394 423 460 334 460 L334 460 Z " />
<glyph glyph-name="Itilde" unicode="&#x128;" horiz-adv-x="290" d="M139 817 C139 817 170 836 205 836 C267 836 284 807 345 807 C381 807 407 830 407 830 L420 894 C420 894 389 875 353 875 C292 875 275 904 213 904 C178 904 152 881 152 881 L139 817 Z M43 0 L153 0 L304 710 L194 710 L43 0 Z " />
<glyph glyph-name="itilde" unicode="&#x129;" horiz-adv-x="245" d="M70 597 C70 597 101 616 136 616 C198 616 215 587 276 587 C312 587 338 610 338 610 L351 674 C351 674 320 655 284 655 C223 655 206 684 144 684 C109 684 83 661 83 661 L70 597 Z M25 0 L125 0 L220 445 L120 445 L25 0 Z " />
<glyph glyph-name="Imacron" unicode="&#x12a;" horiz-adv-x="290" d="M139 821 L404 821 L419 890 L154 890 L139 821 Z M43 0 L153 0 L304 710 L194 710 L43 0 Z " />
<glyph glyph-name="imacron" unicode="&#x12b;" horiz-adv-x="245" d="M70 601 L335 601 L350 670 L85 670 L70 601 Z M25 0 L125 0 L220 445 L120 445 L25 0 Z " />
<glyph glyph-name="Ibreve" unicode="&#x12c;" horiz-adv-x="290" d="M160 915 C142 833 191 775 275 775 C353 775 406 828 425 915 L351 915 C340 866 316 838 280 838 C244 838 223 866 234 915 L160 915 Z M43 0 L153 0 L304 710 L194 710 L43 0 Z " />
<glyph glyph-name="ibreve" unicode="&#x12d;" horiz-adv-x="245" d="M91 695 C73 613 122 555 206 555 C284 555 337 608 356 695 L282 695 C271 646 247 618 211 618 C175 618 154 646 165 695 L91 695 Z M25 0 L125 0 L220 445 L120 445 L25 0 Z " />
<glyph glyph-name="Iogonek" unicode="&#x12e;" horiz-adv-x="290" d="M71 -152 C45 -152 26 -132 31 -104 C38 -71 74 -45 153 0 L304 710 L194 710 L43 0 L67 0 C10 -31 -31 -62 -42 -113 C-55 -173 -11 -225 54 -225 C123 -225 162 -173 162 -173 L127 -126 C127 -126 102 -152 71 -152 L71 -152 Z " />
<glyph glyph-name="iogonek" unicode="&#x12f;" horiz-adv-x="245" d="M207 685 C168 685 140 656 140 620 C140 584 168 555 207 555 C246 555 275 584 275 620 C275 656 246 685 207 685 L207 685 Z M125 0 L126 0 L220 445 L120 445 L26 0 L39 0 C-18 -31 -59 -62 -70 -113 C-83 -173 -39 -225 26 -225 C95 -225 134 -173 134 -173 L99 -126 C99 -126 74 -152 43 -152 C17 -152 -2 -132 3 -104 C10 -71 46 -45 125 0 L125 0 Z " />
<glyph glyph-name="Idotaccent" unicode="&#x130;" horiz-adv-x="290" d="M278 790 C309 790 333 814 333 845 C333 877 309 900 278 900 C246 900 223 877 223 845 C223 814 246 790 278 790 L278 790 Z M43 0 L153 0 L304 710 L194 710 L43 0 Z " />
<glyph glyph-name="dotlessi" unicode="&#x131;" horiz-adv-x="245" d="M25 0 L125 0 L220 445 L120 445 L25 0 Z " />
<glyph glyph-name="IJ" unicode="&#x132;" horiz-adv-x="784" d="M43 0 L153 0 L304 710 L194 710 L43 0 Z M464 -15 C592 -15 677 58 707 200 L815 710 L705 710 L599 205 C582 126 535 89 474 89 C427 89 395 115 379 153 L284 102 C310 40 373 -15 464 -15 L464 -15 Z " />
<glyph glyph-name="ij" unicode="&#x133;" horiz-adv-x="490" d="M207 555 C246 555 275 584 275 620 C275 656 246 685 207 685 C168 685 140 656 140 620 C140 584 168 555 207 555 L207 555 Z M452 555 C491 555 520 584 520 620 C520 656 491 685 452 685 C413 685 385 656 385 620 C385 584 413 555 452 555 L452 555 Z M26 0 L126 0 L220 445 L120 445 L26 0 Z M224 -220 L324 -220 L465 445 L365 445 L224 -220 Z " />
<glyph glyph-name="Jcircumflex" unicode="&#x134;" horiz-adv-x="494" d="M351 775 L431 775 L504 862 L539 775 L616 775 L571 915 L456 915 L351 775 Z M174 -15 C302 -15 387 58 417 200 L525 710 L415 710 L309 205 C292 126 245 89 184 89 C137 89 105 115 89 153 L-6 102 C20 40 83 -15 174 -15 L174 -15 Z " />
<glyph glyph-name="jcircumflex" unicode="&#x135;" horiz-adv-x="245" d="M64 570 L144 570 L217 657 L252 570 L329 570 L284 710 L169 710 L64 570 Z M-21 -220 L79 -220 L220 445 L120 445 L-21 -220 Z " />
<glyph glyph-name="Kcommaaccent" unicode="&#x136;" horiz-adv-x="620" d="M694 710 L547 710 L232 419 L294 710 L184 710 L33 0 L143 0 L219 359 L430 0 L563 0 L330 380 L694 710 Z M164 -205 L256 -205 L317 -65 L213 -65 L164 -205 Z " />
<glyph glyph-name="kcommaaccent" unicode="&#x137;" horiz-adv-x="443" d="M475 445 L350 445 L176 271 L276 740 L176 740 L18 0 L118 0 L162 206 L275 0 L390 0 L254 237 L475 445 Z M80 -205 L172 -205 L233 -65 L129 -65 L80 -205 Z " />
<glyph glyph-name="Lacute" unicode="&#x139;" horiz-adv-x="505" d="M361 915 L258 915 L209 775 L301 775 L361 915 Z M165 104 L294 710 L184 710 L33 0 L443 0 L466 104 L165 104 Z " />
<glyph glyph-name="lacute" unicode="&#x13a;" horiz-adv-x="245" d="M203 805 L295 805 L355 945 L252 945 L203 805 Z M25 0 L125 0 L283 740 L183 740 L25 0 Z " />
<glyph glyph-name="Lcommaaccent" unicode="&#x13b;" horiz-adv-x="505" d="M165 104 L294 710 L184 710 L33 0 L443 0 L466 104 L165 104 Z M121 -205 L213 -205 L274 -65 L170 -65 L121 -205 Z " />
<glyph glyph-name="lcommaaccent" unicode="&#x13c;" horiz-adv-x="245" d="M25 0 L125 0 L283 740 L183 740 L25 0 Z M-42 -205 L50 -205 L111 -65 L7 -65 L-42 -205 Z " />
<glyph glyph-name="Lcaron" unicode="&#x13d;" horiz-adv-x="505" d="M294 710 L184 710 L33 0 L443 0 L466 104 L165 104 L294 710 Z M571 710 L495 440 L589 440 L676 710 L571 710 Z " />
<glyph glyph-name="lcaron" unicode="&#x13e;" horiz-adv-x="367" d="M25 0 L125 0 L283 740 L183 740 L25 0 Z M415 440 L509 440 L596 710 L491 710 L415 440 Z " />
<glyph glyph-name="Ldot" unicode="&#x13f;" horiz-adv-x="505" d="M294 710 L184 710 L33 0 L443 0 L466 104 L165 104 L294 710 Z M434 423 C395 423 366 394 366 356 C366 318 395 288 434 288 C473 288 501 318 501 356 C501 394 473 423 434 423 L434 423 Z " />
<glyph glyph-name="ldot" unicode="&#x140;" horiz-adv-x="353" d="M25 0 L125 0 L283 740 L183 740 L25 0 Z M341 288 C380 288 408 318 408 356 C408 394 380 423 341 423 C302 423 273 394 273 356 C273 318 302 288 341 288 L341 288 Z " />
<glyph glyph-name="Lslash" unicode="&#x141;" horiz-adv-x="505" d="M165 104 L219 359 L379 403 L390 457 L231 413 L294 710 L184 710 L114 381 L29 357 L17 303 L102 327 L33 0 L443 0 L466 104 L165 104 Z " />
<glyph glyph-name="lslash" unicode="&#x142;" horiz-adv-x="245" d="M291 437 L213 413 L283 740 L183 740 L106 381 L29 357 L17 303 L95 327 L25 0 L125 0 L202 359 L279 383 L291 437 Z " />
<glyph glyph-name="Nacute" unicode="&#x143;" horiz-adv-x="740" d="M444 775 L536 775 L596 915 L493 915 L444 775 Z M522 0 L614 0 L764 710 L656 710 L545 186 L276 710 L184 710 L34 0 L143 0 L255 530 L522 0 Z " />
<glyph glyph-name="nacute" unicode="&#x144;" horiz-adv-x="498" d="M429 695 L326 695 L277 555 L369 555 L429 695 Z M334 460 C284 460 243 436 200 392 L208 445 L113 445 L18 0 L118 0 L181 294 C219 343 257 363 290 363 C336 363 363 331 351 275 L293 0 L393 0 L456 296 C477 394 423 460 334 460 L334 460 Z " />
<glyph glyph-name="Ncommaaccent" unicode="&#x145;" horiz-adv-x="740" d="M522 0 L614 0 L764 710 L656 710 L545 186 L276 710 L184 710 L34 0 L143 0 L255 530 L522 0 Z M206 -205 L298 -205 L359 -65 L255 -65 L206 -205 Z " />
<glyph glyph-name="ncommaaccent" unicode="&#x146;" horiz-adv-x="498" d="M334 460 C284 460 243 436 200 392 L208 445 L113 445 L18 0 L118 0 L181 294 C219 343 257 363 290 363 C336 363 363 331 351 275 L293 0 L393 0 L456 296 C477 394 423 460 334 460 L334 460 Z M85 -205 L177 -205 L238 -65 L134 -65 L85 -205 Z " />
<glyph glyph-name="Ncaron" unicode="&#x147;" horiz-adv-x="740" d="M386 915 L431 775 L546 775 L651 915 L571 915 L499 828 L463 915 L386 915 Z M522 0 L614 0 L764 710 L656 710 L545 186 L276 710 L184 710 L34 0 L143 0 L255 530 L522 0 Z " />
<glyph glyph-name="ncaron" unicode="&#x148;" horiz-adv-x="498" d="M379 555 L484 695 L404 695 L332 608 L296 695 L219 695 L264 555 L379 555 Z M334 460 C284 460 243 436 200 392 L208 445 L113 445 L18 0 L118 0 L181 294 C219 343 257 363 290 363 C336 363 363 331 351 275 L293 0 L393 0 L456 296 C477 394 423 460 334 460 L334 460 Z " />
<glyph glyph-name="Eng" unicode="&#x14a;" horiz-adv-x="740" d="M34 0 L143 0 L255 530 L510 24 L498 -33 C484 -99 449 -131 396 -131 C363 -131 333 -115 316 -93 L254 -169 C280 -206 333 -235 391 -235 C502 -235 576 -176 604 -43 L764 710 L656 710 L545 186 L276 710 L184 710 L34 0 Z " />
<glyph glyph-name="eng" unicode="&#x14b;" horiz-adv-x="498" d="M334 460 C284 460 243 436 200 392 L208 445 L113 445 L18 0 L118 0 L181 294 C219 343 257 363 290 363 C336 363 363 331 351 275 L246 -220 L346 -220 L456 296 C477 394 423 460 334 460 L334 460 Z " />
<glyph glyph-name="Omacron" unicode="&#x14c;" horiz-adv-x="825" d="M407 821 L672 821 L687 890 L422 890 L407 821 Z M415 -15 C610 -15 760 109 802 302 C850 524 692 725 467 725 C273 725 121 601 80 408 C33 187 191 -15 415 -15 L415 -15 Z M424 89 C261 89 152 231 187 395 C216 531 325 621 458 621 C621 621 728 480 695 315 C667 179 557 89 424 89 L424 89 Z " />
<glyph glyph-name="omacron" unicode="&#x14d;" horiz-adv-x="545" d="M220 601 L485 601 L500 670 L235 670 L220 601 Z M255 -15 C377 -15 479 65 506 188 C536 330 435 460 291 460 C169 460 66 381 40 258 C9 115 110 -15 255 -15 L255 -15 Z M264 82 C175 82 119 159 137 244 C152 316 213 364 282 364 C370 364 426 286 409 202 C394 129 332 82 264 82 L264 82 Z " />
<glyph glyph-name="Obreve" unicode="&#x14e;" horiz-adv-x="825" d="M428 915 C410 833 459 775 543 775 C621 775 674 828 693 915 L619 915 C608 866 584 838 548 838 C512 838 491 866 502 915 L428 915 Z M415 -15 C610 -15 760 109 802 302 C850 524 692 725 467 725 C273 725 121 601 80 408 C33 187 191 -15 415 -15 L415 -15 Z M424 89 C261 89 152 231 187 395 C216 531 325 621 458 621 C621 621 728 480 695 315 C667 179 557 89 424 89 L424 89 Z " />
<glyph glyph-name="obreve" unicode="&#x14f;" horiz-adv-x="545" d="M241 695 C223 613 272 555 356 555 C434 555 487 608 506 695 L432 695 C421 646 397 618 361 618 C325 618 304 646 315 695 L241 695 Z M255 -15 C377 -15 479 65 506 188 C536 330 435 460 291 460 C169 460 66 381 40 258 C9 115 110 -15 255 -15 L255 -15 Z M264 82 C175 82 119 159 137 244 C152 316 213 364 282 364 C370 364 426 286 409 202 C394 129 332 82 264 82 L264 82 Z " />
<glyph glyph-name="Ohungarumlaut" unicode="&#x150;" horiz-adv-x="825" d="M420 775 L502 775 L562 915 L469 915 L420 775 Z M565 775 L647 775 L707 915 L614 915 L565 775 Z M415 -15 C610 -15 760 109 802 302 C850 524 692 725 467 725 C273 725 121 601 80 408 C33 187 191 -15 415 -15 L415 -15 Z M424 89 C261 89 152 231 187 395 C216 531 325 621 458 621 C621 621 728 480 695 315 C667 179 557 89 424 89 L424 89 Z " />
<glyph glyph-name="ohungarumlaut" unicode="&#x151;" horiz-adv-x="545" d="M233 555 L315 555 L375 695 L282 695 L233 555 Z M378 555 L460 555 L520 695 L427 695 L378 555 Z M255 -15 C377 -15 479 65 506 188 C536 330 435 460 291 460 C169 460 66 381 40 258 C9 115 110 -15 255 -15 L255 -15 Z M264 82 C175 82 119 159 137 244 C152 316 213 364 282 364 C370 364 426 286 409 202 C394 129 332 82 264 82 L264 82 Z " />
<glyph glyph-name="OE" unicode="&#x152;" horiz-adv-x="1100" d="M1107 609 L1129 710 L570 710 C538 720 503 725 467 725 C273 725 121 601 80 408 C33 187 191 -15 415 -15 C455 -15 493 -10 528 0 L1008 0 L1030 102 L699 102 C749 154 785 222 802 302 C805 317 808 332 809 347 L1076 347 L1096 441 L806 441 C795 505 767 562 727 609 L1107 609 Z M695 315 C667 179 557 89 424 89 C261 89 152 231 187 395 C216 531 325 621 458 621 C621 621 728 480 695 315 L695 315 Z " />
<glyph glyph-name="oe" unicode="&#x153;" horiz-adv-x="915" d="M670 460 C586 460 517 421 473 355 C438 418 373 460 291 460 C169 460 66 381 40 258 C9 115 110 -15 255 -15 C340 -15 411 24 455 90 C490 27 555 -15 638 -15 C728 -15 802 25 855 106 L770 143 C740 103 697 79 645 79 C571 79 518 135 516 206 L878 206 C878 206 881 214 883 228 C901 338 812 460 670 460 L670 460 Z M665 374 C732 374 776 337 786 280 L531 280 C557 344 607 374 665 374 L665 374 Z M409 202 C394 129 332 82 264 82 C175 82 119 159 137 244 C152 316 213 364 282 364 C370 364 426 286 409 202 L409 202 Z " />
<glyph glyph-name="Racute" unicode="&#x154;" horiz-adv-x="575" d="M509 915 L406 915 L357 775 L449 775 L509 915 Z M552 486 C575 598 502 710 357 710 L184 710 L33 0 L143 0 L207 303 L244 303 L404 0 L528 0 L357 306 C458 322 531 388 552 486 L552 486 Z M445 488 C432 422 375 382 305 382 L224 382 L274 614 L334 614 C414 614 458 555 445 488 L445 488 Z " />
<glyph glyph-name="racute" unicode="&#x155;" horiz-adv-x="398" d="M399 695 L296 695 L247 555 L339 555 L399 695 Z M320 460 C281 460 244 439 199 391 L208 445 L113 445 L18 0 L118 0 L181 291 C221 349 251 369 279 369 C305 369 319 354 329 325 L427 361 C417 422 381 460 320 460 L320 460 Z " />
<glyph glyph-name="Rcommaaccent" unicode="&#x156;" horiz-adv-x="575" d="M552 486 C575 598 502 710 357 710 L184 710 L33 0 L143 0 L207 303 L244 303 L404 0 L528 0 L357 306 C458 322 531 388 552 486 L552 486 Z M445 488 C432 422 375 382 305 382 L224 382 L274 614 L334 614 C414 614 458 555 445 488 L445 488 Z M151 -205 L243 -205 L304 -65 L200 -65 L151 -205 Z " />
<glyph glyph-name="rcommaaccent" unicode="&#x157;" horiz-adv-x="398" d="M320 460 C281 460 244 439 199 391 L208 445 L113 445 L18 0 L118 0 L181 291 C221 349 251 369 279 369 C305 369 319 354 329 325 L427 361 C417 422 381 460 320 460 L320 460 Z M-49 -205 L43 -205 L104 -65 L0 -65 L-49 -205 Z " />
<glyph glyph-name="Rcaron" unicode="&#x158;" horiz-adv-x="575" d="M459 775 L564 915 L484 915 L412 828 L376 915 L299 915 L344 775 L459 775 Z M357 710 L184 710 L33 0 L143 0 L207 303 L244 303 L404 0 L528 0 L357 306 C458 322 531 388 552 486 C575 598 502 710 357 710 L357 710 Z M445 488 C432 422 375 382 305 382 L224 382 L274 614 L334 614 C414 614 458 555 445 488 L445 488 Z " />
<glyph glyph-name="rcaron" unicode="&#x159;" horiz-adv-x="398" d="M349 555 L454 695 L374 695 L302 608 L266 695 L189 695 L234 555 L349 555 Z M320 460 C281 460 244 439 199 391 L208 445 L113 445 L18 0 L118 0 L181 291 C221 349 251 369 279 369 C305 369 319 354 329 325 L427 361 C417 422 381 460 320 460 L320 460 Z " />
<glyph glyph-name="Sacute" unicode="&#x15a;" horiz-adv-x="535" d="M353 775 L445 775 L505 915 L402 915 L353 775 Z M249 -15 C372 -15 460 59 481 155 C506 274 442 355 332 418 C263 458 230 503 241 557 C251 603 295 630 347 630 C441 630 482 561 482 561 L557 622 C557 622 494 725 344 725 C238 725 154 667 135 576 C112 468 177 389 284 327 C356 285 388 235 375 171 C364 119 315 81 250 81 C141 81 97 188 97 188 L19 133 C19 133 78 -15 249 -15 L249 -15 Z " />
<glyph glyph-name="sacute" unicode="&#x15b;" horiz-adv-x="382" d="M229 555 L321 555 L381 695 L278 695 L229 555 Z M170 -15 C247 -15 308 31 323 96 C340 172 299 227 223 268 C178 292 168 318 174 342 C180 365 202 379 234 379 C277 379 312 337 312 337 L371 393 C371 393 325 460 225 460 C152 460 94 420 80 359 C64 291 99 232 175 191 C222 166 235 141 229 112 C223 85 198 66 165 66 C104 66 69 125 69 125 L6 76 C6 76 46 -15 170 -15 L170 -15 Z " />
<glyph glyph-name="Scedilla" unicode="&#x15e;" horiz-adv-x="535" d="M332 418 C263 458 230 503 241 557 C251 603 295 630 347 630 C441 630 482 561 482 561 L557 622 C557 622 494 725 344 725 C238 725 154 667 135 576 C112 468 177 389 284 327 C356 285 388 235 375 171 C364 119 315 81 250 81 C141 81 97 188 97 188 L19 133 C19 133 65 17 195 -10 L142 -87 L168 -106 C168 -106 181 -96 197 -96 C222 -96 237 -112 233 -132 C229 -154 207 -165 183 -165 C145 -165 124 -144 124 -144 L90 -188 C90 -188 126 -220 185 -220 C250 -220 291 -186 301 -140 C311 -94 285 -52 228 -47 L248 -15 L249 -15 C372 -15 460 59 481 155 C506 274 442 355 332 418 L332 418 Z " />
<glyph glyph-name="scedilla" unicode="&#x15f;" horiz-adv-x="382" d="M223 268 C178 292 168 318 174 342 C180 365 202 379 234 379 C277 379 312 337 312 337 L371 393 C371 393 325 460 225 460 C152 460 94 420 80 359 C64 291 99 232 175 191 C222 166 235 141 229 112 C223 85 198 66 165 66 C104 66 69 125 69 125 L6 76 C6 76 35 9 121 -10 L68 -87 L94 -106 C94 -106 107 -96 123 -96 C148 -96 163 -112 159 -132 C155 -154 133 -165 109 -165 C71 -165 50 -144 50 -144 L16 -188 C16 -188 52 -220 111 -220 C176 -220 217 -186 227 -140 C237 -94 211 -52 154 -47 L174 -15 C249 -13 308 32 323 96 C340 172 299 227 223 268 L223 268 Z " />
<glyph glyph-name="Scaron" unicode="&#x160;" horiz-adv-x="535" d="M295 915 L340 775 L455 775 L560 915 L480 915 L408 828 L372 915 L295 915 Z M249 -15 C372 -15 460 59 481 155 C506 274 442 355 332 418 C263 458 230 503 241 557 C251 603 295 630 347 630 C441 630 482 561 482 561 L557 622 C557 622 494 725 344 725 C238 725 154 667 135 576 C112 468 177 389 284 327 C356 285 388 235 375 171 C364 119 315 81 250 81 C141 81 97 188 97 188 L19 133 C19 133 78 -15 249 -15 L249 -15 Z " />
<glyph glyph-name="scaron" unicode="&#x161;" horiz-adv-x="382" d="M171 695 L216 555 L331 555 L436 695 L356 695 L284 608 L248 695 L171 695 Z M170 -15 C247 -15 308 31 323 96 C340 172 299 227 223 268 C178 292 168 318 174 342 C180 365 202 379 234 379 C277 379 312 337 312 337 L371 393 C371 393 325 460 225 460 C152 460 94 420 80 359 C64 291 99 232 175 191 C222 166 235 141 229 112 C223 85 198 66 165 66 C104 66 69 125 69 125 L6 76 C6 76 46 -15 170 -15 L170 -15 Z " />
<glyph glyph-name="uni0162" unicode="&#x162;" horiz-adv-x="520" d="M268 0 L397 606 L587 606 L609 710 L119 710 L97 606 L287 606 L158 0 L190 0 L130 -87 L156 -106 C156 -106 169 -96 185 -96 C210 -96 225 -112 221 -132 C217 -154 195 -165 171 -165 C133 -165 112 -144 112 -144 L78 -188 C78 -188 114 -220 173 -220 C238 -220 279 -186 289 -140 C299 -94 273 -52 216 -47 L246 0 L268 0 Z " />
<glyph glyph-name="uni0163" unicode="&#x163;" horiz-adv-x="350" d="M168 0 L243 352 L353 352 L373 446 L263 446 L309 665 L209 665 L163 446 L73 446 L53 352 L143 352 L68 0 L95 0 L35 -87 L61 -106 C61 -106 74 -96 90 -96 C115 -96 130 -112 126 -132 C122 -154 100 -165 76 -165 C38 -165 17 -144 17 -144 L-17 -188 C-17 -188 19 -220 78 -220 C143 -220 184 -186 194 -140 C204 -94 178 -52 121 -47 L151 0 L168 0 Z " />
<glyph glyph-name="Tcaron" unicode="&#x164;" horiz-adv-x="520" d="M436 775 L541 915 L461 915 L389 828 L353 915 L276 915 L321 775 L436 775 Z M609 710 L119 710 L97 606 L287 606 L158 0 L268 0 L397 606 L587 606 L609 710 Z " />
<glyph glyph-name="tcaron" unicode="&#x165;" horiz-adv-x="403" d="M386 710 L324 505 L418 505 L491 710 L386 710 Z M309 665 L209 665 L163 446 L73 446 L53 352 L143 352 L68 0 L168 0 L243 352 L353 352 L373 446 L263 446 L309 665 Z " />
<glyph glyph-name="Tbar" unicode="&#x166;" horiz-adv-x="520" d="M587 606 L609 710 L119 710 L97 606 L287 606 L237 372 L92 372 L81 318 L226 318 L158 0 L268 0 L336 318 L481 318 L492 372 L347 372 L397 606 L587 606 Z " />
<glyph glyph-name="tbar" unicode="&#x167;" horiz-adv-x="350" d="M353 352 L373 446 L263 446 L309 665 L209 665 L163 446 L73 446 L53 352 L143 352 L118 237 L28 237 L17 183 L107 183 L68 0 L168 0 L207 183 L315 183 L327 237 L218 237 L243 352 L353 352 Z " />
<glyph glyph-name="Utilde" unicode="&#x168;" horiz-adv-x="655" d="M322 817 C322 817 353 836 388 836 C450 836 467 807 528 807 C564 807 590 830 590 830 L603 894 C603 894 572 875 536 875 C475 875 458 904 396 904 C361 904 335 881 335 881 L322 817 Z M300 -15 C452 -15 553 81 585 230 L687 710 L577 710 L477 243 C457 149 395 94 316 94 C220 94 170 164 192 268 L287 710 L177 710 L84 275 C46 97 149 -15 300 -15 L300 -15 Z " />
<glyph glyph-name="utilde" unicode="&#x169;" horiz-adv-x="498" d="M393 542 C429 542 455 565 455 565 L468 629 C468 629 437 610 401 610 C340 610 323 639 261 639 C226 639 200 616 200 616 L187 552 C187 552 218 571 253 571 C315 571 332 542 393 542 L393 542 Z M380 445 L317 151 C279 102 241 82 208 82 C162 82 135 114 147 170 L205 445 L105 445 L42 149 C21 51 75 -15 164 -15 C214 -15 255 9 298 53 L290 0 L385 0 L480 445 L380 445 Z " />
<glyph glyph-name="Umacron" unicode="&#x16a;" horiz-adv-x="655" d="M322 821 L587 821 L602 890 L337 890 L322 821 Z M300 -15 C452 -15 553 81 585 230 L687 710 L577 710 L477 243 C457 149 395 94 316 94 C220 94 170 164 192 268 L287 710 L177 710 L84 275 C46 97 149 -15 300 -15 L300 -15 Z " />
<glyph glyph-name="umacron" unicode="&#x16b;" horiz-adv-x="498" d="M467 625 L202 625 L187 556 L452 556 L467 625 Z M380 445 L317 151 C279 102 241 82 208 82 C162 82 135 114 147 170 L205 445 L105 445 L42 149 C21 51 75 -15 164 -15 C214 -15 255 9 298 53 L290 0 L385 0 L480 445 L380 445 Z " />
<glyph glyph-name="Ubreve" unicode="&#x16c;" horiz-adv-x="655" d="M343 915 C325 833 374 775 458 775 C536 775 589 828 608 915 L534 915 C523 866 499 838 463 838 C427 838 406 866 417 915 L343 915 Z M300 -15 C452 -15 553 81 585 230 L687 710 L577 710 L477 243 C457 149 395 94 316 94 C220 94 170 164 192 268 L287 710 L177 710 L84 275 C46 97 149 -15 300 -15 L300 -15 Z " />
<glyph glyph-name="ubreve" unicode="&#x16d;" horiz-adv-x="498" d="M323 510 C401 510 454 563 473 650 L399 650 C388 601 364 573 328 573 C292 573 271 601 282 650 L208 650 C190 568 239 510 323 510 L323 510 Z M380 445 L317 151 C279 102 241 82 208 82 C162 82 135 114 147 170 L205 445 L105 445 L42 149 C21 51 75 -15 164 -15 C214 -15 255 9 298 53 L290 0 L385 0 L480 445 L380 445 Z " />
<glyph glyph-name="Uring" unicode="&#x16e;" horiz-adv-x="655" d="M454 710 C514 710 561 756 561 815 C561 874 514 920 454 920 C394 920 348 874 348 815 C348 756 394 710 454 710 L454 710 Z M454 766 C427 766 405 788 405 815 C405 842 427 864 454 864 C481 864 503 842 503 815 C503 788 481 766 454 766 L454 766 Z M300 -15 C452 -15 553 81 585 230 L687 710 L577 710 L477 243 C457 149 395 94 316 94 C220 94 170 164 192 268 L287 710 L177 710 L84 275 C46 97 149 -15 300 -15 L300 -15 Z " />
<glyph glyph-name="uring" unicode="&#x16f;" horiz-adv-x="498" d="M319 445 C379 445 426 491 426 550 C426 609 379 655 319 655 C259 655 213 609 213 550 C213 491 259 445 319 445 L319 445 Z M319 599 C346 599 368 577 368 550 C368 523 346 501 319 501 C292 501 270 523 270 550 C270 577 292 599 319 599 L319 599 Z M380 445 L317 151 C279 102 241 82 208 82 C162 82 135 114 147 170 L205 445 L105 445 L42 149 C21 51 75 -15 164 -15 C214 -15 255 9 298 53 L290 0 L385 0 L480 445 L380 445 Z " />
<glyph glyph-name="Uhungarumlaut" unicode="&#x170;" horiz-adv-x="655" d="M335 775 L417 775 L477 915 L384 915 L335 775 Z M480 775 L562 775 L622 915 L529 915 L480 775 Z M300 -15 C452 -15 553 81 585 230 L687 710 L577 710 L477 243 C457 149 395 94 316 94 C220 94 170 164 192 268 L287 710 L177 710 L84 275 C46 97 149 -15 300 -15 L300 -15 Z " />
<glyph glyph-name="uhungarumlaut" unicode="&#x171;" horiz-adv-x="498" d="M342 650 L249 650 L200 510 L282 510 L342 650 Z M487 650 L394 650 L345 510 L427 510 L487 650 Z M317 151 C279 102 241 82 208 82 C162 82 135 114 147 170 L205 445 L105 445 L42 149 C21 51 75 -15 164 -15 C214 -15 255 9 298 53 L290 0 L385 0 L480 445 L380 445 L317 151 Z " />
<glyph glyph-name="Uogonek" unicode="&#x172;" horiz-adv-x="655" d="M577 710 L477 243 C457 149 395 94 316 94 C220 94 170 164 192 268 L287 710 L177 710 L84 275 C50 117 128 11 251 -11 C204 -39 171 -68 161 -113 C148 -173 192 -225 257 -225 C326 -225 365 -173 365 -173 L330 -126 C330 -126 305 -152 274 -152 C248 -152 229 -132 234 -104 C240 -74 270 -50 333 -13 C466 -1 555 92 585 230 L687 710 L577 710 Z " />
<glyph glyph-name="uogonek" unicode="&#x173;" horiz-adv-x="498" d="M303 -152 C277 -152 258 -132 263 -104 C270 -71 306 -45 385 0 L480 445 L380 445 L317 151 C279 102 241 82 208 82 C162 82 135 114 147 170 L205 445 L105 445 L42 149 C21 51 75 -15 164 -15 C214 -15 255 9 298 53 L290 0 L299 0 C242 -31 201 -62 190 -113 C177 -173 221 -225 286 -225 C355 -225 394 -173 394 -173 L359 -126 C359 -126 334 -152 303 -152 L303 -152 Z " />
<glyph glyph-name="Wcircumflex" unicode="&#x174;" horiz-adv-x="1040" d="M656 862 L691 775 L768 775 L723 915 L608 915 L503 775 L583 775 L656 862 Z M1015 710 L728 186 L663 710 L578 710 L292 190 L228 710 L114 710 L208 0 L294 0 L585 526 L652 0 L738 0 L1133 710 L1015 710 Z " />
<glyph glyph-name="wcircumflex" unicode="&#x175;" horiz-adv-x="695" d="M428 597 L463 510 L540 510 L495 650 L380 650 L275 510 L355 510 L428 597 Z M628 445 L463 155 L431 445 L354 445 L199 156 L156 445 L53 445 L127 0 L204 0 L363 294 L396 0 L473 0 L738 445 L628 445 Z " />
<glyph glyph-name="Ycircumflex" unicode="&#x176;" horiz-adv-x="600" d="M283 775 L363 775 L436 862 L471 775 L548 775 L503 915 L388 915 L283 775 Z M198 0 L308 0 L381 343 L704 710 L575 710 L345 451 L225 710 L104 710 L271 343 L198 0 Z " />
<glyph glyph-name="ycircumflex" unicode="&#x177;" horiz-adv-x="460" d="M310 597 L345 510 L422 510 L377 650 L262 650 L157 510 L237 510 L310 597 Z M395 445 L212 146 L158 445 L53 445 L136 27 L-17 -220 L85 -220 L503 445 L395 445 Z " />
<glyph glyph-name="Ydieresis" unicode="&#x178;" horiz-adv-x="600" d="M349 790 C380 790 404 814 404 845 C404 877 380 900 349 900 C317 900 294 877 294 845 C294 814 317 790 349 790 L349 790 Z M514 790 C545 790 569 814 569 845 C569 877 545 900 514 900 C482 900 459 877 459 845 C459 814 482 790 514 790 L514 790 Z M198 0 L308 0 L381 343 L704 710 L575 710 L345 451 L225 710 L104 710 L271 343 L198 0 Z " />
<glyph glyph-name="Zacute" unicode="&#x179;" horiz-adv-x="675" d="M412 775 L504 775 L564 915 L461 915 L412 775 Z M3 0 L578 0 L600 102 L206 102 L720 665 L729 710 L154 710 L132 609 L527 609 L13 45 L3 0 Z " />
<glyph glyph-name="zacute" unicode="&#x17a;" horiz-adv-x="430" d="M238 510 L330 510 L390 650 L287 650 L238 510 Z M-10 0 L345 0 L365 89 L154 89 L430 400 L440 445 L85 445 L66 356 L276 356 L0 45 L-10 0 Z " />
<glyph glyph-name="Zdotaccent" unicode="&#x17b;" horiz-adv-x="675" d="M471 790 C502 790 526 814 526 845 C526 877 502 900 471 900 C439 900 416 877 416 845 C416 814 439 790 471 790 L471 790 Z M3 0 L578 0 L600 102 L206 102 L720 665 L729 710 L154 710 L132 609 L527 609 L13 45 L3 0 Z " />
<glyph glyph-name="zdotaccent" unicode="&#x17c;" horiz-adv-x="430" d="M297 525 C328 525 352 549 352 580 C352 612 328 635 297 635 C265 635 242 612 242 580 C242 549 265 525 297 525 L297 525 Z M-10 0 L345 0 L365 89 L154 89 L430 400 L440 445 L85 445 L66 356 L276 356 L0 45 L-10 0 Z " />
<glyph glyph-name="Zcaron" unicode="&#x17d;" horiz-adv-x="675" d="M354 915 L399 775 L514 775 L619 915 L539 915 L467 828 L431 915 L354 915 Z M3 0 L578 0 L600 102 L206 102 L720 665 L729 710 L154 710 L132 609 L527 609 L13 45 L3 0 Z " />
<glyph glyph-name="zcaron" unicode="&#x17e;" horiz-adv-x="430" d="M180 650 L225 510 L340 510 L445 650 L365 650 L293 563 L257 650 L180 650 Z M-10 0 L345 0 L365 89 L154 89 L430 400 L440 445 L85 445 L66 356 L276 356 L0 45 L-10 0 Z " />
<glyph glyph-name="florin" unicode="&#x192;" horiz-adv-x="580" d="M475 725 C348 725 289 615 216 280 L70 280 L60 231 L205 231 C144 -53 114 -139 50 -139 C13 -139 -1 -110 -9 -56 L-109 -76 C-96 -180 -40 -235 46 -235 C174 -235 233 -120 310 231 L455 231 L465 280 L321 280 C378 547 408 629 470 629 C507 629 521 600 529 546 L628 566 C616 670 559 725 475 725 L475 725 Z " />
<glyph glyph-name="Aringacute" unicode="&#x1fa;" horiz-adv-x="720" d="M563 0 L683 0 L523 700 C564 714 592 752 592 798 C592 829 579 856 558 875 L606 970 L506 970 L479 903 C422 900 379 855 379 798 C379 760 398 728 427 710 L-38 0 L87 0 L222 212 L521 212 L563 0 Z M485 847 C512 847 534 825 534 798 C534 771 512 749 485 749 C458 749 436 771 436 798 C436 825 458 847 485 847 L485 847 Z M282 306 L449 570 L502 306 L282 306 Z " />
<glyph glyph-name="aringacute" unicode="&#x1fb;" horiz-adv-x="578" d="M465 445 L449 382 C441 393 428 408 409 421 C450 435 479 474 479 520 C479 553 465 581 442 600 L485 693 L382 693 L356 624 C304 617 266 574 266 520 C266 497 273 477 284 460 L276 460 C159 460 66 381 40 258 C9 115 100 -15 240 -15 C316 -15 359 15 382 40 L380 0 L465 0 L560 445 L465 445 Z M372 569 C399 569 421 547 421 520 C421 493 399 471 372 471 C345 471 323 493 323 520 C323 547 345 569 372 569 L372 569 Z M264 82 C175 82 119 159 137 244 C152 316 213 364 282 364 C365 364 409 312 426 285 L394 137 C367 112 323 82 264 82 L264 82 Z " />
<glyph glyph-name="AEacute" unicode="&#x1fc;" horiz-adv-x="925" d="M807 915 L704 915 L655 775 L747 775 L807 915 Z M932 609 L954 710 L427 710 L-38 0 L88 0 L223 212 L519 212 L563 0 L833 0 L855 102 L660 102 L610 322 L896 322 L916 416 L588 416 L544 609 L932 609 Z M283 306 L447 563 L500 306 L283 306 Z " />
<glyph glyph-name="aeacute" unicode="&#x1fd;" horiz-adv-x="915" d="M642 695 L539 695 L490 555 L582 555 L642 695 Z M684 460 C632 460 584 439 545 402 L550 445 L465 445 L449 382 C428 410 376 460 276 460 C159 460 66 381 40 258 C9 115 100 -15 240 -15 C309 -15 351 10 375 33 L370 0 L460 0 L482 83 C510 24 565 -15 642 -15 C728 -15 802 25 854 106 L769 143 C740 103 697 79 645 79 C570 79 516 135 514 206 L878 206 C878 206 881 214 883 228 C900 338 811 460 684 460 L684 460 Z M663 374 C728 374 775 337 786 280 L528 280 C553 344 602 374 663 374 L663 374 Z M137 244 C152 316 213 364 282 364 C365 364 409 312 426 285 L394 137 C367 112 323 82 264 82 C175 82 119 159 137 244 L137 244 Z " />
<glyph glyph-name="Oslashacute" unicode="&#x1fe;" horiz-adv-x="825" d="M639 915 L536 915 L487 775 L579 775 L639 915 Z M889 710 L810 710 L712 625 C651 687 565 725 467 725 C273 725 121 601 80 408 C58 303 82 202 137 126 L-8 0 L71 0 L170 86 C231 24 317 -15 415 -15 C610 -15 760 109 802 302 C825 408 801 509 745 585 L889 710 Z M185 395 C214 531 324 624 458 624 C528 624 588 598 631 555 L218 196 C183 251 169 321 185 395 L185 395 Z M697 315 C670 179 559 87 424 87 C354 87 294 113 251 156 L664 515 C699 460 712 390 697 315 L697 315 Z " />
<glyph glyph-name="oslashacute" unicode="&#x1ff;" horiz-adv-x="545" d="M452 695 L349 695 L300 555 L392 555 L452 695 Z M560 445 L485 445 L439 404 C401 439 349 460 291 460 C169 460 66 381 40 258 C26 192 40 128 73 79 L-15 0 L60 0 L106 41 C145 6 196 -15 255 -15 C377 -15 479 65 506 188 C520 254 506 317 472 366 L560 445 Z M132 244 C147 316 208 369 282 369 C316 369 345 358 367 340 L146 144 C130 172 124 208 132 244 L132 244 Z M414 202 C399 129 337 77 264 77 C230 77 201 88 179 106 L399 302 C415 273 421 238 414 202 L414 202 Z " />
<glyph glyph-name="Scommaaccent" unicode="&#x218;" horiz-adv-x="535" d="M249 -15 C372 -15 460 59 481 155 C506 274 442 355 332 418 C263 458 230 503 241 557 C251 603 295 630 347 630 C441 630 482 561 482 561 L557 622 C557 622 494 725 344 725 C238 725 154 667 135 576 C112 468 177 389 284 327 C356 285 388 235 375 171 C364 119 315 81 250 81 C141 81 97 188 97 188 L19 133 C19 133 78 -15 249 -15 L249 -15 Z M108 -205 L200 -205 L261 -65 L157 -65 L108 -205 Z " />
<glyph glyph-name="scommaaccent" unicode="&#x219;" horiz-adv-x="382" d="M170 -15 C247 -15 308 31 323 96 C340 172 299 227 223 268 C178 292 168 318 174 342 C180 365 202 379 234 379 C277 379 312 337 312 337 L371 393 C371 393 325 460 225 460 C152 460 94 420 80 359 C64 291 99 232 175 191 C222 166 235 141 229 112 C223 85 198 66 165 66 C104 66 69 125 69 125 L6 76 C6 76 46 -15 170 -15 L170 -15 Z M34 -205 L126 -205 L187 -65 L83 -65 L34 -205 Z " />
<glyph glyph-name="uni021A" unicode="&#x21a;" horiz-adv-x="520" d="M609 710 L119 710 L97 606 L287 606 L158 0 L268 0 L397 606 L587 606 L609 710 Z M96 -205 L188 -205 L249 -65 L145 -65 L96 -205 Z " />
<glyph glyph-name="uni021B" unicode="&#x21b;" horiz-adv-x="350" d="M373 446 L263 446 L309 665 L209 665 L163 446 L73 446 L53 352 L143 352 L68 0 L168 0 L243 352 L353 352 L373 446 Z M1 -205 L93 -205 L154 -65 L50 -65 L1 -205 Z " />
<glyph glyph-name="circumflex" unicode="&#x2c6;" horiz-adv-x="405" d="M144 570 L224 570 L297 657 L332 570 L409 570 L364 710 L249 710 L144 570 Z " />
<glyph glyph-name="caron" unicode="&#x2c7;" horiz-adv-x="405" d="M174 710 L219 570 L334 570 L439 710 L359 710 L287 623 L251 710 L174 710 Z " />
<glyph glyph-name="breve" unicode="&#x2d8;" horiz-adv-x="405" d="M174 710 C156 628 205 570 289 570 C367 570 420 623 439 710 L365 710 C354 661 330 633 294 633 C258 633 237 661 248 710 L174 710 Z " />
<glyph glyph-name="dotaccent" unicode="&#x2d9;" horiz-adv-x="253" d="M216 585 C247 585 271 609 271 640 C271 672 247 695 216 695 C184 695 161 672 161 640 C161 609 184 585 216 585 L216 585 Z " />
<glyph glyph-name="ring" unicode="&#x2da;" horiz-adv-x="358" d="M261 505 C321 505 368 551 368 610 C368 669 321 715 261 715 C201 715 155 669 155 610 C155 551 201 505 261 505 L261 505 Z M261 561 C234 561 212 583 212 610 C212 637 234 659 261 659 C288 659 310 637 310 610 C310 583 288 561 261 561 L261 561 Z " />
<glyph glyph-name="ogonek" unicode="&#x2db;" horiz-adv-x="357" d="M95 -225 C164 -225 203 -173 203 -173 L168 -126 C168 -126 143 -152 112 -152 C86 -152 67 -132 72 -104 C79 -71 115 -45 194 0 L127 10 C60 -25 11 -57 -1 -113 C-14 -173 30 -225 95 -225 L95 -225 Z " />
<glyph glyph-name="tilde" unicode="&#x2dc;" horiz-adv-x="406" d="M153 612 C153 612 184 631 219 631 C281 631 298 602 359 602 C395 602 421 625 421 625 L434 689 C434 689 403 670 367 670 C306 670 289 699 227 699 C192 699 166 676 166 676 L153 612 Z " />
<glyph glyph-name="hungarumlaut" unicode="&#x2dd;" horiz-adv-x="398" d="M144 570 L226 570 L286 710 L193 710 L144 570 Z M289 570 L371 570 L431 710 L338 710 L289 570 Z " />
<glyph glyph-name="gravecomb" unicode="&#x300;" d="M3 570 L7 710 L-89 710 L-82 570 L3 570 Z " />
<glyph glyph-name="acutecomb" unicode="&#x301;" d="M-119 570 L-27 570 L33 710 L-70 710 L-119 570 Z " />
<glyph glyph-name="uni0302" unicode="&#x302;" d="M-261 570 L-181 570 L-108 657 L-73 570 L4 570 L-41 710 L-156 710 L-261 570 Z " />
<glyph glyph-name="tildecomb" unicode="&#x303;" d="M-242 612 C-242 612 -211 631 -176 631 C-114 631 -97 602 -36 602 C0 602 26 625 26 625 L39 689 C39 689 8 670 -28 670 C-89 670 -106 699 -168 699 C-203 699 -229 676 -229 676 L-242 612 Z " />
<glyph glyph-name="uni0304" unicode="&#x304;" d="M-241 616 L24 616 L39 685 L-226 685 L-241 616 Z " />
<glyph glyph-name="uni0306" unicode="&#x306;" d="M-231 710 C-249 628 -200 570 -116 570 C-38 570 15 623 34 710 L-40 710 C-51 661 -75 633 -111 633 C-147 633 -168 661 -157 710 L-231 710 Z " />
<glyph glyph-name="uni0307" unicode="&#x307;" d="M-36 585 C-5 585 19 609 19 640 C19 672 -5 695 -36 695 C-68 695 -91 672 -91 640 C-91 609 -68 585 -36 585 L-36 585 Z " />
<glyph glyph-name="uni0308" unicode="&#x308;" d="M-201 585 C-170 585 -146 609 -146 640 C-146 672 -170 695 -201 695 C-233 695 -256 672 -256 640 C-256 609 -233 585 -201 585 L-201 585 Z M-36 585 C-5 585 19 609 19 640 C19 672 -5 695 -36 695 C-68 695 -91 672 -91 640 C-91 609 -68 585 -36 585 L-36 585 Z " />
<glyph glyph-name="uni030A" unicode="&#x30a;" d="M-89 505 C-29 505 18 551 18 610 C18 669 -29 715 -89 715 C-149 715 -195 669 -195 610 C-195 551 -149 505 -89 505 L-89 505 Z M-89 561 C-116 561 -138 583 -138 610 C-138 637 -116 659 -89 659 C-62 659 -40 637 -40 610 C-40 583 -62 561 -89 561 L-89 561 Z " />
<glyph glyph-name="uni030B" unicode="&#x30b;" d="M-254 570 L-172 570 L-112 710 L-205 710 L-254 570 Z M-109 570 L-27 570 L33 710 L-60 710 L-109 570 Z " />
<glyph glyph-name="uni030C" unicode="&#x30c;" d="M-231 710 L-186 570 L-71 570 L34 710 L-46 710 L-118 623 L-154 710 L-231 710 Z " />
<glyph glyph-name="uni0312" unicode="&#x312;" d="M33 710 L-59 710 L-119 570 L-16 570 L33 710 Z " />
<glyph glyph-name="uni0326" unicode="&#x326;" d="M-287 -220 L-195 -220 L-134 -80 L-238 -80 L-287 -220 Z " />
<glyph glyph-name="uni0327" unicode="&#x327;" d="M-220 -47 L-190 0 L-246 0 L-306 -87 L-280 -106 C-280 -106 -267 -96 -251 -96 C-226 -96 -211 -112 -215 -132 C-219 -154 -241 -165 -265 -165 C-303 -165 -324 -144 -324 -144 L-358 -188 C-358 -188 -322 -220 -263 -220 C-198 -220 -157 -186 -147 -140 C-137 -94 -163 -52 -220 -47 L-220 -47 Z " />
<glyph glyph-name="uni0328" unicode="&#x328;" d="M-262 -225 C-193 -225 -154 -173 -154 -173 L-189 -126 C-189 -126 -214 -152 -245 -152 C-271 -152 -290 -132 -285 -104 C-278 -71 -242 -45 -163 0 L-230 10 C-297 -25 -346 -57 -358 -113 C-371 -173 -327 -225 -262 -225 L-262 -225 Z " />
<glyph glyph-name="uni0394" unicode="&#x394;" horiz-adv-x="720" d="M511 710 L417 710 L-38 0 L663 0 L511 710 Z M146 94 L436 555 L525 94 L146 94 Z " />
<glyph glyph-name="uni03A9" unicode="&#x3a9;" horiz-adv-x="825" d="M810 338 C852 540 702 725 482 725 C283 725 121 606 78 403 C52 279 85 166 160 99 L24 99 L3 0 L276 0 L297 99 C202 135 157 255 182 375 C213 525 330 621 473 621 C626 621 731 485 699 335 C673 215 586 135 477 99 L456 0 L728 0 L749 99 L638 99 C723 149 786 227 810 338 L810 338 Z " />
<glyph glyph-name="uni03BC" unicode="&#x3bc;" horiz-adv-x="498" d="M388 445 L328 166 C317 112 277 83 228 83 C173 83 145 122 156 176 L213 445 L113 445 L-29 -220 L72 -220 L124 25 C148 0 182 -15 227 -15 C323 -15 402 46 426 159 L488 445 L388 445 Z " />
<glyph glyph-name="pi" unicode="&#x3c0;" horiz-adv-x="605" d="M628 446 L73 446 L52 352 L143 352 L68 0 L168 0 L243 352 L418 352 L343 0 L443 0 L518 352 L607 352 L628 446 Z " />
<glyph glyph-name="Wgrave" unicode="&#x1e80;" horiz-adv-x="1040" d="M679 775 L683 915 L587 915 L594 775 L679 775 Z M1015 710 L728 186 L663 710 L578 710 L292 190 L228 710 L114 710 L208 0 L294 0 L585 526 L652 0 L738 0 L1133 710 L1015 710 Z " />
<glyph glyph-name="wgrave" unicode="&#x1e81;" horiz-adv-x="695" d="M451 510 L455 650 L359 650 L366 510 L451 510 Z M628 445 L463 155 L431 445 L354 445 L199 156 L156 445 L53 445 L127 0 L204 0 L363 294 L396 0 L473 0 L738 445 L628 445 Z " />
<glyph glyph-name="Wacute" unicode="&#x1e82;" horiz-adv-x="1040" d="M744 915 L641 915 L592 775 L684 775 L744 915 Z M1015 710 L728 186 L663 710 L578 710 L292 190 L228 710 L114 710 L208 0 L294 0 L585 526 L652 0 L738 0 L1133 710 L1015 710 Z " />
<glyph glyph-name="wacute" unicode="&#x1e83;" horiz-adv-x="695" d="M516 650 L413 650 L364 510 L456 510 L516 650 Z M628 445 L463 155 L431 445 L354 445 L199 156 L156 445 L53 445 L127 0 L204 0 L363 294 L396 0 L473 0 L738 445 L628 445 Z " />
<glyph glyph-name="Wdieresis" unicode="&#x1e84;" horiz-adv-x="1040" d="M569 790 C600 790 624 814 624 845 C624 877 600 900 569 900 C537 900 514 877 514 845 C514 814 537 790 569 790 L569 790 Z M734 790 C765 790 789 814 789 845 C789 877 765 900 734 900 C702 900 679 877 679 845 C679 814 702 790 734 790 L734 790 Z M1015 710 L728 186 L663 710 L578 710 L292 190 L228 710 L114 710 L208 0 L294 0 L585 526 L652 0 L738 0 L1133 710 L1015 710 Z " />
<glyph glyph-name="wdieresis" unicode="&#x1e85;" horiz-adv-x="695" d="M341 525 C372 525 396 549 396 580 C396 612 372 635 341 635 C309 635 286 612 286 580 C286 549 309 525 341 525 L341 525 Z M506 525 C537 525 561 549 561 580 C561 612 537 635 506 635 C474 635 451 612 451 580 C451 549 474 525 506 525 L506 525 Z M628 445 L463 155 L431 445 L354 445 L199 156 L156 445 L53 445 L127 0 L204 0 L363 294 L396 0 L473 0 L738 445 L628 445 Z " />
<glyph glyph-name="Ygrave" unicode="&#x1ef2;" horiz-adv-x="600" d="M459 775 L463 915 L367 915 L374 775 L459 775 Z M198 0 L308 0 L381 343 L704 710 L575 710 L345 451 L225 710 L104 710 L271 343 L198 0 Z " />
<glyph glyph-name="ygrave" unicode="&#x1ef3;" horiz-adv-x="460" d="M333 510 L337 650 L241 650 L248 510 L333 510 Z M395 445 L212 146 L158 445 L53 445 L136 27 L-17 -220 L85 -220 L503 445 L395 445 Z " />
<glyph glyph-name="endash" unicode="&#x2013;" horiz-adv-x="670" d="M69 262 L619 262 L639 356 L89 356 L69 262 Z " />
<glyph glyph-name="emdash" unicode="&#x2014;" horiz-adv-x="900" d="M69 262 L849 262 L869 356 L89 356 L69 262 Z " />
<glyph glyph-name="quoteleft" unicode="&#x2018;" horiz-adv-x="255" d="M298 710 L204 710 L117 440 L222 440 L298 710 Z " />
<glyph glyph-name="quoteright" unicode="&#x2019;" horiz-adv-x="255" d="M107 440 L201 440 L288 710 L183 710 L107 440 Z " />
<glyph glyph-name="quotesinglbase" unicode="&#x201a;" horiz-adv-x="255" d="M-19 -150 L75 -150 L162 120 L57 120 L-19 -150 Z " />
<glyph glyph-name="quotedblleft" unicode="&#x201c;" horiz-adv-x="453" d="M298 710 L204 710 L117 440 L222 440 L298 710 Z M496 710 L402 710 L315 440 L420 440 L496 710 Z " />
<glyph glyph-name="quotedblright" unicode="&#x201d;" horiz-adv-x="453" d="M107 440 L201 440 L288 710 L183 710 L107 440 Z M305 440 L399 440 L486 710 L381 710 L305 440 Z " />
<glyph glyph-name="quotedblbase" unicode="&#x201e;" horiz-adv-x="453" d="M-19 -150 L75 -150 L162 120 L57 120 L-19 -150 Z M179 -150 L273 -150 L360 120 L255 120 L179 -150 Z " />
<glyph glyph-name="dagger" unicode="&#x2020;" horiz-adv-x="370" d="M401 601 L306 601 L327 700 L247 700 L226 601 L131 601 L116 532 L211 532 L147 230 L227 230 L291 532 L386 532 L401 601 Z " />
<glyph glyph-name="daggerdbl" unicode="&#x2021;" horiz-adv-x="370" d="M386 532 L401 601 L306 601 L327 700 L247 700 L226 601 L131 601 L116 532 L211 532 L183 399 L88 399 L73 330 L168 330 L147 230 L227 230 L248 330 L343 330 L358 399 L263 399 L291 532 L386 532 Z " />
<glyph glyph-name="bullet" unicode="&#x2022;" horiz-adv-x="320" d="M189 255 C247 255 289 299 289 355 C289 412 247 455 189 455 C131 455 89 412 89 355 C89 299 131 255 189 255 L189 255 Z " />
<glyph glyph-name="ellipsis" unicode="&#x2026;" horiz-adv-x="885" d="M93 -10 C132 -10 160 20 160 58 C160 96 132 125 93 125 C54 125 25 96 25 58 C25 20 54 -10 93 -10 L93 -10 Z M408 -10 C447 -10 475 20 475 58 C475 96 447 125 408 125 C369 125 340 96 340 58 C340 20 369 -10 408 -10 L408 -10 Z M723 -10 C762 -10 790 20 790 58 C790 96 762 125 723 125 C684 125 655 96 655 58 C655 20 684 -10 723 -10 L723 -10 Z " />
<glyph glyph-name="perthousand" unicode="&#x2030;" horiz-adv-x="1290" d="M293 385 C389 385 464 460 464 555 C464 651 389 725 293 725 C196 725 121 651 121 555 C121 460 196 385 293 385 L293 385 Z M168 0 L228 0 L769 710 L709 710 L168 0 Z M293 462 C241 462 200 504 200 555 C200 607 241 648 293 648 C344 648 385 607 385 555 C385 504 344 462 293 462 L293 462 Z M645 -15 C741 -15 816 60 816 155 C816 251 741 325 645 325 C548 325 473 251 473 155 C473 60 548 -15 645 -15 L645 -15 Z M1055 -15 C1151 -15 1226 60 1226 155 C1226 251 1151 325 1055 325 C958 325 883 251 883 155 C883 60 958 -15 1055 -15 L1055 -15 Z M645 62 C593 62 552 104 552 155 C552 207 593 248 645 248 C696 248 737 207 737 155 C737 104 696 62 645 62 L645 62 Z M1055 62 C1003 62 962 104 962 155 C962 207 1003 248 1055 248 C1106 248 1147 207 1147 155 C1147 104 1106 62 1055 62 L1055 62 Z " />
<glyph glyph-name="guilsinglleft" unicode="&#x2039;" horiz-adv-x="385" d="M394 545 L91 370 L85 340 L313 165 L330 243 L202 349 L375 455 L394 545 Z " />
<glyph glyph-name="guilsinglright" unicode="&#x203a;" horiz-adv-x="385" d="M48 165 L351 340 L357 370 L129 545 L112 467 L240 361 L67 255 L48 165 Z " />
<glyph glyph-name="fraction" unicode="&#x2044;" horiz-adv-x="120" d="M-213 0 L-149 0 L389 710 L325 710 L-213 0 Z " />
<glyph glyph-name="Euro" unicode="&#x20ac;" horiz-adv-x="545" d="M296 82 C235 82 206 148 216 268 L410 268 L421 317 L222 317 L231 363 C233 373 235 383 238 393 L472 393 L482 442 L251 442 C288 568 339 629 398 629 C436 629 462 602 472 546 L567 560 C552 668 492 725 406 725 C288 725 200 636 145 442 L82 442 L72 393 L133 393 L127 368 C123 350 120 333 118 317 L56 317 L45 268 L112 268 C98 85 171 -15 288 -15 C367 -15 432 29 487 136 L397 167 C367 110 335 82 296 82 L296 82 Z " />
<glyph glyph-name="trademark" unicode="&#x2122;" horiz-adv-x="584" d="M324 659 L335 710 L154 710 L143 659 L205 659 L162 458 L218 458 L261 659 L324 659 Z M589 710 L460 536 L405 710 L361 710 L307 458 L360 458 L389 596 L435 458 L456 458 L561 596 L531 458 L583 458 L637 710 L589 710 Z " />
<glyph glyph-name="minus" unicode="&#x2212;" horiz-adv-x="545" d="M69 263 L494 263 L514 357 L89 357 L69 263 Z " />
<glyph glyph-name="approxequal" unicode="&#x2248;" horiz-adv-x="545" d="M90 362 C90 362 133 388 193 388 C297 388 314 338 420 338 C475 338 517 368 517 368 L535 454 C535 454 492 427 432 427 C328 427 311 477 205 477 C150 477 108 447 108 447 L90 362 Z M49 167 C49 167 92 193 152 193 C256 193 272 143 379 143 C434 143 475 173 475 173 L494 259 C494 259 450 232 390 232 C286 232 270 282 163 282 C108 282 67 252 67 252 L49 167 Z " />
<glyph glyph-name="notequal" unicode="&#x2260;" horiz-adv-x="545" d="M515 363 L534 452 L407 452 L460 540 L401 540 L348 452 L109 452 L90 363 L294 363 L229 257 L68 257 L49 168 L175 168 L122 80 L181 80 L234 168 L474 168 L493 257 L288 257 L353 363 L515 363 Z " />
<glyph glyph-name="lessequal" unicode="&#x2264;" horiz-adv-x="545" d="M488 235 L508 330 L250 433 L552 537 L575 645 L114 475 L99 405 L488 235 Z M457 87 L476 176 L51 176 L32 87 L457 87 Z " />
<glyph glyph-name="greaterequal" unicode="&#x2265;" horiz-adv-x="545" d="M63 235 L524 405 L539 475 L150 645 L130 550 L389 446 L86 343 L63 235 Z M32 87 L457 87 L476 176 L51 176 L32 87 Z " />
<glyph glyph-name="fi" unicode="&#xfb01;" horiz-adv-x="595" d="M289 573 C301 630 334 661 386 661 C421 661 440 646 440 646 L459 736 C459 736 433 755 384 755 C281 755 216 699 193 587 L163 446 L73 446 L53 352 L143 352 L68 0 L168 0 L242 352 L353 352 L373 446 L262 446 L289 573 Z M557 685 C518 685 490 656 490 620 C490 584 518 555 557 555 C596 555 625 584 625 620 C625 656 596 685 557 685 L557 685 Z M376 0 L476 0 L570 445 L470 445 L376 0 Z " />
<glyph glyph-name="fl" unicode="&#xfb02;" horiz-adv-x="595" d="M289 573 C301 630 334 661 386 661 C421 661 440 646 440 646 L459 736 C459 736 433 755 384 755 C281 755 216 699 193 587 L163 446 L73 446 L53 352 L143 352 L68 0 L168 0 L242 352 L353 352 L373 446 L262 446 L289 573 Z M533 740 L375 0 L475 0 L633 740 L533 740 Z " />
</font>
</svg>
